<?xml version="1.0" encoding="utf-8"?><!DOCTYPE svg PUBLIC "-//W3C//DTD SVG 1.1//EN" "http://www.w3.org/Graphics/SVG/1.1/DTD/svg11.dtd"><svg version="1.1" id="Contours" xmlns="http://www.w3.org/2000/svg" xmlns:xlink="http://www.w3.org/1999/xlink" x="0px" y="0px" width="2660.127930px" height="2660.127930px" viewBox="-0.000001 0.000000 2660.127930 353.567322" enable-background="new 0 0 2660.127930 2660.127930" xml:space="preserve" stroke="black" fill="none" stroke-linecap='round' stroke-linejoin='round'><path class="selected"  fill="#000000" opacity="1.000000" stroke="none" 
 	d="
M948.224554 275.228065 C948.891180 283.949653 949.496526 292.177314 950.303899 300.385048 C950.402532 301.387397 951.390020 302.605293 952.306585 303.162971 C954.403936 304.439094 956.657720 305.507026 958.946722 306.408699 C963.250921 308.104133 966.268621 310.125862 964.321111 315.691810 C962.834844 319.939521 962.616155 324.631721 961.120489 328.874855 C959.435796 333.654396 953.962835 337.063240 949.342290 336.134925 C940.550054 334.368507 931.820074 332.090034 925.505620 324.972511 C921.637945 320.613014 919.285161 315.605201 919.195745 309.588600 C918.945257 292.729957 918.566900 275.873176 918.221929 259.015998 C917.900823 243.324714 917.584722 227.633186 917.215948 211.943000 C916.925359 199.583381 916.025335 187.210853 916.366582 174.870903 C916.747259 161.105110 918.717412 147.381645 919.053472 133.616752 C919.282171 124.250663 917.836126 114.848442 917.255437 105.455177 C917.060491 102.301399 917.348821 99.119362 917.194524 95.961067 C916.981084 91.594474 916.579290 87.236305 916.206304 82.878975 C916.132635 82.018654 915.823919 81.178459 915.623601 80.329002 C915.157232 81.135566 914.535284 81.890495 914.247991 82.756462 C910.213445 94.917808 906.200567 107.086479 902.229253 119.268623 C893.136297 147.161766 884.060125 175.060432 875.008306 202.966926 C874.290288 205.180488 873.929632 207.510353 873.203863 209.720863 C870.437261 218.147285 862.222112 222.075142 853.432867 220.035896 C841.073980 217.168434 835.907598 208.043251 832.212224 197.275871 C824.252508 174.082832 816.227544 150.912132 808.201299 127.741981 C808.053716 127.315849 807.561773 127.006645 807.223821 126.649253 C806.264654 125.635002 805.302068 124.624046 804.340826 123.611793 C804.302068 124.985817 804.162115 126.365806 804.242620 127.732795 C804.529363 132.596138 804.905157 137.454155 805.221685 142.315849 C805.897832 152.702919 806.534124 163.092628 807.230230 173.478340 C808.207647 188.061638 809.250066 202.640632 810.216070 217.224647 C810.925970 227.942756 811.004583 238.737190 812.373113 249.367775 C813.877752 261.055153 816.399236 272.622017 818.760076 284.183723 C819.738592 288.975624 817.800359 296.943824 814.062078 299.798622 C813.013494 300.599311 811.317266 301.411720 810.200506 301.123664 C802.985418 299.262794 795.464910 298.032966 789.840093 292.371711 C785.618902 288.123207 783.555486 282.817695 783.319036 277.104652 C782.704534 262.258339 782.702642 247.387611 782.181158 232.536293 C781.722478 219.475349 781.052129 206.416664 780.176153 193.377067 C779.408208 181.945503 778.577581 170.497169 777.139043 159.136726 C775.146062 143.397895 772.489141 127.744255 770.248968 112.035225 C768.785955 101.775550 767.636175 91.471382 766.194463 81.208442 C765.359930 75.267768 764.194768 69.374099 763.250555 63.447761 C763.069341 62.310287 762.821966 60.917373 763.289251 59.985283 C766.541875 53.497490 771.127813 48.066436 777.349859 44.283615 C781.047185 42.035804 784.340337 44.085075 786.993963 46.571533 C796.767889 55.729805 804.941717 66.242462 811.341070 77.962242 C819.261602 92.468116 827.191411 107.019981 834.045537 122.040962 C839.594488 134.201545 843.554693 147.086784 848.233037 159.645561 C848.501043 160.364967 848.771245 161.137977 849.247686 161.714744 C850.531438 163.268745 851.927434 164.729988 853.278875 166.228050 C853.927434 164.584251 854.642034 162.963081 855.214300 161.293144 C860.565069 145.679664 865.182745 129.769691 871.389654 114.505455 C880.839849 91.265190 891.355291 68.457069 901.481695 45.493354 C905.272466 36.896972 909.037542 28.276596 913.260015 19.891594 C914.420354 17.587417 917.062200 15.924385 919.252874 14.270019 C922.127630 12.099075 925.020818 9.756279 928.273992 8.321293 C936.305120 4.778682 942.754522 10.160362 946.134588 17.834549 C947.059820 19.935089 947.157110 22.514976 947.179143 24.879150 C947.281744 35.875259 947.115911 46.874176 947.247625 57.869667 C947.501531 79.060203 947.927129 100.248619 948.215581 121.438820 C948.585821 148.626304 949.202398 175.815712 949.111089 203.002296 C949.053838 220.056923 947.723516 237.103737 947.306890 254.162422 C947.139776 261.006080 947.891241 267.872169 948.224554 275.228065 z"/><path class="selected"  fill="#000000" opacity="1.000000" stroke="none" 
 	d="
M2345.474554 223.978065 C2355.606878 232.869941 2367.209905 238.770912 2379.017278 244.054023 C2385.858343 247.114997 2391.300481 251.451576 2396.216253 256.785347 C2396.537542 257.134071 2396.637151 258.282051 2396.391057 258.469215 C2392.483099 261.445716 2388.862737 265.188942 2384.455266 267.031105 C2377.386907 269.985420 2370.054632 268.152382 2363.058538 265.557472 C2349.736028 260.616066 2339.214788 251.209480 2327.811224 243.248787 C2300.635931 224.277809 2273.486028 205.266029 2246.553655 185.953071 C2230.414739 174.379982 2214.638372 162.295433 2198.840276 150.255882 C2193.689397 146.330421 2188.998724 141.803138 2184.057317 137.598640 C2183.378850 137.021446 2182.465276 136.720787 2181.660589 136.292106 C2181.515081 137.231895 2181.174993 138.188438 2181.254095 139.108909 C2182.208196 150.198402 2183.255315 161.279884 2184.210149 172.369285 C2184.628118 177.223808 2184.912054 182.090355 2185.220159 186.953758 C2185.900579 197.676506 2186.527044 208.402717 2187.231145 219.123848 C2188.516546 238.696663 2192.347112 257.738044 2199.572210 276.009193 C2201.457952 280.777076 2201.641790 285.283393 2197.901556 288.901527 C2193.947942 292.726143 2188.931341 293.603523 2183.369817 292.963447 C2172.413030 291.702278 2170.180364 282.257789 2166.556341 274.766761 C2162.000921 265.351204 2160.938421 254.855751 2160.166448 244.408210 C2159.060979 229.444038 2157.569280 214.508186 2156.219671 199.562294 C2155.581975 192.502662 2154.901067 185.446846 2154.222600 178.390968 C2152.896673 164.609535 2151.537298 150.831291 2150.236761 137.047477 C2149.825872 132.692985 2149.482122 128.329139 2149.241643 123.962211 C2148.845403 116.770591 2148.775579 109.554832 2148.178411 102.381721 C2147.001897 88.254615 2145.229436 74.169746 2144.370061 60.026893 C2143.968450 53.419593 2143.464300 47.029518 2140.169866 41.224128 C2138.844427 38.888763 2137.083684 36.731842 2135.216009 34.786453 C2130.342962 29.710281 2130.510686 23.374504 2136.056341 18.938675 C2144.012884 12.574615 2153.442327 9.382240 2163.214300 7.315544 C2168.668401 6.162044 2174.379827 5.006080 2179.850530 5.437126 C2187.980901 6.077755 2196.147405 7.569751 2204.042181 9.666069 C2239.373235 19.047828 2272.763616 33.821388 2306.655706 47.186981 C2314.819280 50.406410 2323.225286 53.254440 2330.870306 57.455604 C2335.620061 60.065857 2339.636907 64.509071 2343.094182 68.839073 C2346.962102 73.683097 2343.874944 81.991554 2336.761663 85.083091 C2329.145940 88.392875 2321.083684 90.719413 2313.129827 93.198341 C2289.357366 100.607460 2265.526067 107.826011 2241.756048 115.242515 C2234.987493 117.354393 2228.279974 119.707878 2221.684026 122.305442 C2218.478704 123.567726 2216.129339 125.704612 2216.095159 129.933799 C2216.060491 134.148613 2218.964788 135.445228 2221.629583 137.090248 C2233.565130 144.457878 2245.718450 151.484291 2257.491888 159.099662 C2271.605901 168.228798 2285.616643 177.547371 2299.284124 187.326164 C2308.659368 194.034080 2317.357610 201.685920 2326.387640 208.879432 C2332.641057 213.861091 2338.943792 218.780708 2345.474554 223.978065 M2175.224309 73.728065 C2175.557806 81.583091 2175.597112 89.468315 2176.398870 97.275230 C2176.648138 99.701881 2178.457464 103.028526 2180.462835 103.940010 C2182.845403 105.022804 2186.395452 104.547691 2189.118841 103.707634 C2208.740179 97.655342 2228.259954 91.275367 2247.852727 85.129356 C2261.054388 80.988136 2273.513616 74.242836 2287.881536 74.013771 C2289.686224 73.984993 2291.444768 71.034805 2293.224554 69.438240 C2291.998968 68.309387 2290.826116 67.114189 2289.523626 66.082290 C2288.948431 65.626617 2288.119085 65.476654 2287.390325 65.231918 C2278.033880 62.089973 2268.683294 58.930099 2259.314641 55.825180 C2236.911321 48.400375 2214.585638 40.721054 2192.040960 33.752258 C2184.562444 31.440628 2175.164739 33.107483 2174.427923 44.010749 C2173.785100 53.521789 2174.891057 63.151046 2175.224309 73.728065 z"/><path class="selected"  fill="#000000" opacity="1.000000" stroke="none" 
 	d="
M2016.224554 128.228065 C2026.199895 128.266395 2035.588567 127.635124 2044.547796 124.198997 C2046.699163 123.373954 2048.837347 122.379020 2050.762395 121.125694 C2055.150091 118.268837 2058.171575 118.485725 2061.735052 122.238243 C2066.052434 126.785194 2067.945501 134.942283 2065.123479 139.060890 C2063.688421 141.155494 2061.412298 142.909416 2059.153020 144.163597 C2048.072210 150.315803 2036.560003 155.293861 2023.673040 156.247596 C2016.110052 156.807289 2008.570989 157.703010 2001.004583 158.189079 C1993.099309 158.696937 1985.165716 158.767219 1977.259466 159.265129 C1969.853948 159.731544 1965.530096 165.520103 1965.244451 175.082512 C1965.125066 179.077751 1965.375921 183.086326 1965.196966 187.077110 C1964.603582 200.300224 1963.762273 213.513252 1963.274480 226.739692 C1962.997503 234.249061 1965.426458 236.119484 1972.601995 234.204902 C2002.301702 226.280586 2031.913274 218.014289 2061.696722 210.421241 C2072.815130 207.586616 2084.361028 206.470039 2095.625921 204.151802 C2103.419622 202.547920 2110.603460 202.752815 2117.663763 207.026130 C2123.219182 210.388618 2126.178655 214.345832 2125.138372 220.268379 C2124.232122 225.427894 2119.549993 227.178932 2115.339544 228.110023 C2098.956487 231.733101 2082.418645 234.659675 2066.038763 238.296638 C2050.837347 241.672035 2035.507513 244.816169 2020.694280 249.513160 C1999.699651 256.170326 1979.135320 264.182228 1958.370061 271.567207 C1949.817571 274.608863 1942.160711 273.479591 1935.884954 266.406013 C1934.891424 265.286293 1933.831487 264.210579 1932.703435 263.228004 C1927.242742 258.471504 1926.510076 252.953712 1928.642156 246.099891 C1930.546453 239.978614 1931.633489 233.473152 1932.111516 227.064888 C1933.145330 213.205940 1933.525091 199.298973 1934.249090 185.415657 C1934.415960 182.212715 1934.877019 179.024269 1935.228826 175.832039 C1935.545599 172.958915 1934.124456 171.829063 1931.456121 172.257667 C1928.989568 172.653862 1926.526922 173.171928 1924.125310 173.856453 C1915.091619 176.431068 1906.768133 176.512474 1899.942815 168.539238 C1895.544012 163.400596 1895.533269 159.178535 1899.812444 154.021782 C1904.582220 148.273658 1911.439519 146.862251 1917.760442 144.155159 C1921.738836 142.451378 1925.854070 140.564384 1929.125677 137.825309 C1934.621160 133.224205 1931.603948 126.508262 1932.126409 120.695716 C1932.275091 119.039970 1931.382391 117.318443 1931.251043 115.605339 C1930.234563 102.347526 1929.248968 89.087074 1928.337591 75.821663 C1927.952825 70.221000 1928.535345 64.436119 1927.333318 59.034210 C1924.925237 48.213455 1917.326971 40.792030 1908.802068 34.356598 C1903.487249 30.344474 1902.503850 26.712509 1907.061346 22.040817 C1918.331731 10.488426 1931.419256 2.289791 1948.294866 2.234577 C1958.958196 2.199691 1969.630071 2.487602 1980.282903 2.152294 C1990.181707 1.840721 2000.112249 -0.063649 2009.935003 0.467151 C2022.626897 1.152992 2035.233831 3.505428 2047.862249 5.247059 C2056.820745 6.482505 2065.718938 8.257488 2074.707952 9.145218 C2089.111272 10.567695 2100.281682 17.084716 2108.384954 28.974762 C2108.515569 29.166641 2107.991888 30.128074 2107.582708 30.317192 C2098.842718 34.355850 2089.596868 33.468025 2080.425970 32.883598 C2075.313665 32.557808 2070.240911 31.622856 2065.128850 31.269340 C2057.947210 30.772705 2050.740667 30.642212 2043.553655 30.208297 C2033.827825 29.621116 2024.109807 28.357566 2014.390081 28.374275 C2004.001409 28.392135 1993.616155 29.575828 1983.227361 30.222412 C1977.369207 30.587028 1971.511297 31.015403 1965.646551 31.203582 C1952.401189 31.628570 1951.843206 35.258064 1954.400945 45.475738 C1957.455877 57.679428 1958.465154 69.984886 1959.322698 82.430458 C1960.216619 95.404426 1961.902776 108.323448 1963.206609 121.270118 C1963.339544 122.589668 1963.125432 123.942985 1963.242498 125.265541 C1963.642034 129.778602 1965.614568 134.032417 1971.315008 133.266990 C1982.241277 131.799858 1993.194280 130.527031 2004.144720 129.246696 C2007.991643 128.796898 2011.863958 128.561393 2016.224554 128.228065 z"/><path class="selected"  fill="#000000" opacity="1.000000" stroke="none" 
 	d="
M608.224554 163.228065 C609.557867 173.172874 611.003362 182.603675 612.187139 192.067192 C613.045721 198.931633 613.455266 205.851234 614.248113 212.725135 C615.492437 223.513160 616.756719 234.302223 618.262456 245.055824 C619.755682 255.719795 621.278997 266.393837 623.299810 276.965828 C625.500188 288.476844 628.412237 299.849983 630.777715 311.331947 C632.462469 319.509925 634.271673 327.724830 634.973150 336.012336 C635.257268 339.368660 633.520879 343.590309 631.324773 346.300666 C627.981756 350.426307 622.744146 348.240394 618.397344 347.791450 C607.580389 346.674354 602.202764 339.111427 597.494207 330.166450 C586.532476 309.342018 575.112371 288.754982 563.639837 268.204689 C554.410284 251.672279 544.732976 235.390327 535.439153 218.893135 C528.219793 206.078376 521.343328 193.070854 514.194402 180.215767 C511.546575 175.454445 508.606573 170.851600 505.677740 166.254188 C505.127203 165.389991 503.998601 164.893974 503.136785 164.228065 C502.499395 165.216514 501.307317 166.215767 501.326299 167.191414 C501.388677 170.390968 501.606023 173.642891 502.273016 176.765907 C505.472967 191.747413 509.082891 206.644874 512.071538 221.666816 C514.475225 233.748817 516.646429 245.913185 518.091558 258.139045 C519.389410 269.118324 519.605840 280.228492 520.208135 291.285896 C520.626897 298.974250 520.918767 306.669990 521.197088 314.364997 C521.242803 315.628883 520.962102 316.911537 520.769414 318.175972 C519.912115 323.802436 516.977911 326.436439 511.034246 325.277382 C507.894414 324.665107 504.629095 324.720222 501.465703 324.199348 C490.436834 322.383339 488.767889 316.091133 488.396429 307.984565 C487.525823 288.986152 487.839788 269.935890 487.132635 250.926765 C486.595830 236.494697 485.930608 222.001655 484.065435 207.699653 C480.969427 183.958793 475.734075 160.622230 468.360479 137.778129 C464.461065 125.697105 461.306646 113.377403 457.668157 101.209633 C455.543401 94.104194 457.377691 87.806205 462.297918 82.907188 C466.452459 78.770576 472.300664 77.508216 477.690008 80.397865 C480.759771 82.043800 483.419683 85.061760 485.397405 88.037864 C498.139837 107.212410 510.944341 126.357933 523.132329 145.885002 C533.497564 162.491752 543.138433 179.554008 552.956487 196.497764 C560.966863 210.321968 568.726812 224.291023 576.673894 238.152229 C580.771917 245.299995 585.024847 252.359199 589.242559 259.437690 C589.630315 260.088447 590.270879 260.588539 590.794073 261.158546 C590.937566 260.384895 591.302373 259.577583 591.190557 258.842750 C589.976079 250.862495 588.561101 242.910987 587.457036 234.916267 C586.536077 228.247383 585.897222 221.537208 585.236761 214.835151 C583.863042 200.895607 582.538518 186.951133 581.236028 173.004753 C580.829351 168.650978 580.369512 164.289390 580.258123 159.923103 C579.840887 143.568092 578.408880 127.127479 579.571355 110.877342 C580.585210 96.705330 584.564092 82.743385 587.283086 68.698356 C587.574651 67.192535 588.357183 65.781425 588.645391 64.275375 C589.965276 57.377967 594.492925 53.286255 600.508489 50.449440 C601.064764 50.187095 601.641973 49.968284 602.213872 49.740318 C604.841924 48.692764 608.491704 46.022354 609.908330 46.910690 C614.072698 49.522186 617.466802 53.767440 617.108343 59.141006 C616.675970 65.622863 615.568120 72.081100 614.413885 78.488548 C612.492742 89.152900 609.796941 99.701500 608.370733 110.424324 C607.023382 120.554603 606.470586 130.842262 606.367559 141.068748 C606.294927 148.281547 607.557928 155.507805 608.224554 163.228065 z"/><path class="selected"  fill="#000000" opacity="1.000000" stroke="none" 
 	d="
M429.224554 156.228065 C436.879003 180.382530 444.592138 204.018409 452.093664 227.721290 C452.812292 229.991890 452.184850 232.680275 452.228826 235.173896 C452.710699 262.505592 456.849065 289.243843 464.812627 315.424232 C466.809576 321.989112 468.658208 328.831459 468.923345 335.610878 C469.107061 340.308601 467.024786 345.388252 464.910650 349.796424 C462.965520 353.852119 458.273016 354.026588 454.495611 353.116706 C442.205968 350.156501 430.330358 340.434303 429.042425 326.250557 C427.915258 313.837135 425.094366 301.584907 423.269842 289.224830 C422.032598 280.843483 421.265722 272.393531 420.208105 263.984413 C419.633672 259.417122 419.014379 254.848243 418.179876 250.323494 C417.651220 247.457222 411.102026 245.054603 407.689794 245.145637 C396.639867 245.440590 385.576726 245.238594 374.518651 245.228096 C374.185430 245.227790 373.851446 245.242622 373.519079 245.225929 C360.299230 244.561714 347.082372 243.828804 333.858037 243.272285 C330.350103 243.124641 327.940282 243.720008 327.018011 248.514198 C323.892522 264.760719 319.957098 280.854164 316.196294 296.974617 C314.359441 304.848213 312.830144 312.876503 310.038244 320.418953 C307.686315 326.772834 302.190588 330.078437 295.083105 329.182441 C288.732854 328.381935 282.823797 326.191810 281.011236 319.306709 C280.172094 316.119209 280.437322 312.283729 281.331884 309.055091 C287.122381 288.156196 293.211095 267.339759 299.228216 246.503883 C305.545049 224.630043 311.723608 202.714363 318.268896 180.908897 C325.691534 156.180626 333.471838 131.559867 341.061742 106.881630 C345.153661 93.576942 349.119878 80.233406 353.247228 66.939834 C355.247625 60.496910 359.127660 55.396148 365.183324 52.264938 C369.525335 50.019790 373.456914 51.196266 376.924200 54.422317 C391.681249 68.152595 402.263708 84.889488 410.040807 103.189354 C416.600133 118.623817 421.553930 134.740364 427.230230 150.550743 C427.854986 152.290901 428.557897 154.002967 429.224554 156.228065 M402.724554 177.228065 C398.224554 161.775795 394.156377 146.178688 389.043218 130.932060 C386.468847 123.255775 381.841894 116.286461 378.462865 108.852119 C377.156103 105.977058 375.829839 106.885048 374.681005 108.378791 C372.981420 110.588646 371.247472 112.948631 370.293127 115.527763 C360.942937 140.797416 351.649724 166.089485 342.594976 191.466056 C340.618383 197.005699 338.900304 202.857887 338.524236 208.660804 C338.318151 211.840736 337.762609 217.605629 343.187780 218.093788 C355.360601 219.189094 367.595312 219.628242 379.810918 220.206367 C389.158208 220.648719 398.515295 220.881813 407.866979 221.235725 C410.759222 221.345192 413.939458 217.844093 413.189703 215.053932 C412.107427 211.026527 410.653295 207.098182 409.596715 203.064979 C407.389898 194.641029 405.339300 186.176139 402.724554 177.228065 z"/><path class="selected"  fill="#000000" opacity="1.000000" stroke="none" 
 	d="
M1706.224554 91.228035 C1706.566228 82.423103 1702.572454 75.677391 1698.469427 68.943245 C1696.290472 65.367103 1694.233587 61.712120 1692.239080 58.029190 C1688.592229 51.295555 1688.917425 46.784767 1696.484563 42.629959 C1704.468084 38.246528 1712.756902 34.658470 1722.402410 35.113861 C1733.069768 35.617492 1741.413274 46.780677 1738.779851 57.261093 C1735.340520 70.948921 1736.318792 83.889076 1747.044866 94.550346 C1749.388128 96.879387 1751.740179 99.200248 1754.050603 101.561561 C1768.549749 116.379768 1783.119451 131.129997 1797.502386 146.060157 C1807.659734 156.604011 1817.612615 167.346840 1827.552434 178.097358 C1832.857976 183.835640 1837.934392 189.785438 1843.138250 195.618492 C1843.636053 196.176597 1844.304143 196.582786 1844.893255 197.059425 C1844.996404 196.275032 1845.397893 195.381950 1845.157537 194.722786 C1842.045599 186.184410 1839.025213 177.605613 1835.628850 169.179268 C1824.502508 141.575676 1811.911687 114.521003 1805.176092 85.309562 C1802.908391 75.474601 1799.332098 65.894416 1797.671941 55.977119 C1795.006048 40.052665 1796.615301 24.305900 1805.760931 10.551986 C1809.060247 5.589939 1813.490301 0.586719 1820.783880 0.026207 C1825.220159 -0.314732 1832.877996 2.697586 1835.951238 7.506748 C1838.648260 11.727523 1836.948064 15.619201 1834.587713 19.378173 C1831.768133 23.868126 1828.433782 28.147094 1826.349798 32.962127 C1822.549139 41.743538 1823.556097 51.229644 1825.429021 60.114807 C1828.695135 75.608268 1832.445135 91.093025 1837.410100 106.112800 C1844.562444 127.749763 1852.457220 149.180488 1861.016424 170.301490 C1868.761907 189.414238 1877.096624 208.369514 1886.563909 226.674018 C1892.728094 238.592018 1901.352972 249.242439 1908.939886 260.416999 C1911.963079 264.870033 1916.123724 269.204353 1913.775701 275.043037 C1909.506780 285.657997 1901.223089 288.336372 1891.820989 282.791816 C1885.008977 278.774696 1879.937078 271.744270 1874.252264 265.899025 C1869.800848 261.321907 1865.638494 256.465431 1861.278631 251.797432 C1851.170965 240.975288 1840.981390 230.229316 1830.899724 219.383033 C1818.837957 206.406501 1806.870672 193.342308 1794.831365 180.345070 C1785.786687 170.580894 1776.664617 160.888404 1767.629583 151.115532 C1760.515813 143.420906 1753.581853 135.557289 1746.351995 127.974739 C1744.195501 125.712959 1741.309637 124.146537 1738.758001 122.261512 C1738.246770 125.359947 1737.270574 128.463050 1737.301458 131.556068 C1737.475042 148.915077 1737.729436 166.276817 1738.281927 183.627235 C1738.644964 195.024421 1739.078557 206.460456 1740.408269 217.769996 C1741.177923 224.315895 1743.543890 230.725593 1745.626775 237.053321 C1748.644475 246.220131 1747.688665 255.213234 1745.153875 264.202095 C1744.923040 265.020546 1743.530340 266.259254 1742.964544 266.121589 C1736.046087 264.437996 1728.838933 264.202308 1722.960638 258.758186 C1716.880193 253.126838 1713.038641 246.598732 1712.369573 238.691078 C1711.455022 227.881141 1711.532293 216.985878 1711.231145 206.125892 C1710.869939 193.101478 1710.577581 180.075142 1710.218450 167.050666 C1709.914373 156.024147 1709.656072 144.995018 1709.199407 133.974418 C1708.637517 120.416450 1707.901922 106.865577 1707.185735 93.314567 C1707.156927 92.770271 1706.557928 92.256157 1706.224554 91.228035 z"/><path class="selected"  fill="#000000" opacity="1.000000" stroke="none" 
 	d="
M1167.474554 224.978065 C1174.204778 238.708198 1180.845403 252.114753 1187.086126 265.704811 C1189.585393 271.147102 1190.985296 277.084449 1193.286199 282.630287 C1195.571722 288.138466 1189.446722 294.585029 1183.499456 294.001167 C1171.279119 292.801490 1162.638006 285.994575 1157.388128 275.495887 C1152.929143 266.579078 1149.933294 256.934852 1146.212957 247.643348 C1142.264349 237.781318 1138.683172 227.735633 1134.095037 218.176368 C1129.541936 208.689552 1120.885564 206.000709 1110.278875 208.521064 C1102.591619 210.347694 1094.639349 211.993019 1086.794988 212.041175 C1066.400701 212.166328 1058.914739 222.350959 1054.378118 238.942665 C1050.627386 252.659279 1048.221990 266.743873 1045.225774 280.666511 C1044.005926 286.334602 1039.060613 289.904945 1031.494085 289.107338 C1019.970281 287.892524 1011.880315 280.943672 1013.370672 269.858314 C1013.997259 265.197822 1016.253484 260.759895 1017.736883 256.210334 C1020.496404 247.746833 1022.172307 239.199562 1017.137151 231.040931 C1015.333318 228.118171 1012.811590 225.454689 1010.110174 223.312904 C1006.120550 220.149665 1005.653265 215.665626 1010.050725 213.039833 C1015.206853 209.960914 1020.944402 207.852821 1026.088079 204.756050 C1036.202459 198.666603 1040.929754 188.652656 1044.183660 177.897636 C1050.057195 158.484245 1055.957830 139.070808 1061.287420 119.504936 C1063.638494 110.874122 1065.092718 101.924034 1066.101751 93.022270 C1067.291570 82.525932 1067.528265 71.922943 1068.232854 61.369835 C1068.922918 51.034050 1083.659368 42.433006 1091.895330 46.240036 C1097.484197 48.823532 1099.088689 54.449829 1101.138006 59.416786 C1108.360784 76.922416 1115.202215 94.585090 1122.230901 112.171211 C1129.201971 129.613670 1136.235906 147.031013 1143.212224 164.471428 C1144.299139 167.188682 1144.799261 170.236930 1146.319036 172.663307 C1148.933294 176.836830 1153.291814 175.321968 1157.041448 174.853630 C1165.552801 173.790504 1173.999822 172.073845 1182.534368 171.396003 C1186.512884 171.080024 1190.657049 172.459266 1194.662664 173.353675 C1195.179754 173.469154 1195.919866 175.730476 1195.536932 176.259346 C1189.814397 184.161247 1185.531072 193.449302 1174.763860 196.388984 C1171.599676 197.252845 1168.823064 199.836143 1166.095159 201.926674 C1162.093694 204.993232 1161.574163 210.836921 1164.396917 217.894264 C1165.312444 220.183021 1166.280584 222.450721 1167.474554 224.978065 M1084.224554 147.728065 C1083.891180 148.923103 1083.489690 150.103813 1083.235174 151.315391 C1081.076238 161.589897 1079.191595 171.931358 1076.667303 182.114586 C1075.804998 185.593391 1076.272649 186.455513 1079.698186 186.254997 C1092.249334 185.520347 1104.807439 184.903083 1117.361883 184.223182 C1121.388738 184.005119 1122.112615 181.612999 1120.829900 178.376152 C1118.050848 171.363655 1115.186834 164.382057 1112.206853 157.452552 C1106.427923 144.014442 1100.563177 130.613075 1094.661443 117.228447 C1094.304021 116.418068 1093.310125 115.888359 1092.612371 115.228065 C1092.149724 116.029564 1091.470403 116.777671 1091.257879 117.640770 C1088.872015 127.326316 1086.557928 137.029579 1084.224554 147.728065 z"/><path class="selected"  fill="#000000" opacity="1.000000" stroke="none" 
 	d="
M1680.224554 185.228065 C1678.536932 199.821754 1674.041082 213.083351 1666.692327 225.096840 C1653.836004 246.113960 1635.279607 261.203682 1613.917547 272.914497 C1605.820135 277.353553 1596.586736 279.331306 1587.555730 278.995979 C1572.791326 278.447731 1559.101141 273.448341 1547.133855 264.576027 C1532.062566 253.402443 1521.833440 239.175300 1520.227117 219.839729 C1519.544134 211.618354 1518.905218 203.393348 1518.221624 195.172035 C1516.873724 178.960624 1521.288641 163.485481 1524.101629 147.783378 C1526.880926 132.270561 1530.988225 117.178856 1537.251653 102.724052 C1545.263494 84.233696 1552.334295 65.094009 1567.334783 50.726410 C1579.174627 39.386108 1593.346502 31.611778 1609.116888 27.425872 C1616.658758 25.424057 1623.895208 28.336616 1629.979681 33.468498 C1644.051946 45.337623 1653.184270 60.789108 1661.165594 76.967414 C1669.102239 93.055397 1673.878606 110.165550 1677.366399 127.775123 C1680.706853 144.641044 1681.582830 161.563881 1681.185857 178.638450 C1681.138372 180.674675 1680.557928 182.698494 1680.224554 185.228065 M1571.724554 92.228050 C1566.776189 104.509758 1561.466985 116.660987 1556.966863 129.104820 C1550.749578 146.296775 1549.391546 164.429802 1548.339910 182.484672 C1547.711248 193.279426 1548.731512 204.170784 1548.091131 214.964180 C1547.357854 227.321357 1552.059270 236.854835 1561.140081 244.601204 C1567.846380 250.321968 1575.816228 253.942665 1584.522039 252.963203 C1591.142766 252.218361 1597.833196 249.772651 1603.893133 246.843361 C1616.736761 240.634620 1627.079168 231.168403 1635.174383 219.425880 C1639.063299 213.784828 1643.677312 208.179054 1645.706365 201.835548 C1648.375677 193.490013 1649.762517 184.457878 1649.990057 175.676658 C1650.284490 164.313148 1649.248846 152.870597 1648.129339 141.526878 C1646.877752 128.845329 1645.235052 116.179069 1643.141790 103.609565 C1640.207708 85.992836 1631.952215 70.969932 1619.049016 58.649559 C1614.105413 53.929390 1607.590520 53.585838 1602.239934 56.948143 C1588.783147 65.404426 1579.352117 77.646904 1571.724554 92.228050 z"/><path class="selected"  fill="#000000" opacity="1.000000" stroke="none" 
 	d="
M1312.974554 257.478065 C1312.260198 270.385414 1316.409856 282.163337 1319.677312 294.056648 C1320.544988 297.214729 1320.534124 298.497688 1316.842474 298.283546 C1313.924749 298.114357 1310.582708 299.370399 1308.137517 298.329506 C1304.504949 296.783058 1301.318670 293.975288 1298.258855 291.337288 C1289.749456 284.001045 1288.045232 273.648780 1286.204778 263.361396 C1284.293401 252.677559 1282.070867 242.047523 1280.284612 231.343879 C1279.283636 225.344459 1278.691106 219.257209 1278.274480 213.184852 C1277.736272 205.339454 1277.460271 197.472068 1277.245428 189.609398 C1276.839544 174.754112 1276.948308 159.873512 1276.114568 145.044395 C1275.282293 130.239967 1273.575872 115.484031 1272.216497 100.710167 C1271.597600 93.984092 1270.644964 87.279091 1270.288396 80.541023 C1269.865789 72.552795 1265.692449 67.899505 1257.743474 68.301002 C1242.982976 69.046524 1228.147161 69.504837 1213.528997 71.468437 C1202.805730 72.908813 1192.153265 75.898903 1181.883245 79.409568 C1171.054388 83.111274 1156.721136 74.340248 1154.757024 64.215774 C1154.611761 63.466865 1154.715887 62.191597 1155.186346 61.873054 C1161.932928 57.303581 1168.363714 51.969741 1175.702337 48.669067 C1181.276678 46.161934 1188.000066 46.016227 1194.265935 45.273895 C1220.255071 42.194954 1246.365545 41.857566 1272.492864 42.245323 C1288.684392 42.485611 1304.881414 43.355262 1321.060857 43.072960 C1332.656805 42.870628 1344.211614 40.886108 1355.814886 40.337707 C1364.880315 39.909256 1369.729192 47.550529 1369.289861 53.704269 C1368.915594 58.947761 1364.016180 64.577217 1358.360906 65.188743 C1353.521062 65.712089 1348.639593 65.835983 1343.785100 66.239784 C1332.200017 67.203453 1320.573308 67.875183 1309.060735 69.399253 C1304.359197 70.021675 1300.836248 71.469581 1301.193548 78.547706 C1301.961492 93.761604 1302.482976 108.987953 1303.250432 124.201896 C1303.783147 134.762458 1304.574285 145.309806 1305.220037 155.864906 C1305.906560 167.083961 1306.512395 178.308113 1307.238714 189.524528 C1307.836004 198.749916 1308.484319 207.973274 1309.242254 217.186683 C1310.340398 230.538948 1311.557806 243.881416 1312.974554 257.478065 z"/><path class="selected"  fill="#000000" opacity="1.000000" stroke="none" 
 	d="
M682.224554 211.228065 C682.224554 167.744606 682.243658 124.761131 682.181646 81.777763 C682.177495 78.916511 681.993230 75.917198 681.133794 73.224334 C679.350957 67.638191 681.907598 64.593513 686.458623 62.200264 C689.345159 60.682319 692.167120 59.010391 694.879400 57.199859 C698.570501 54.735862 701.446233 55.640586 704.862188 58.206337 C713.452032 64.658241 715.308233 72.750549 713.412176 83.000312 C711.830328 91.551429 711.384099 100.401924 711.306951 109.127540 C710.812200 165.133094 710.343572 221.141060 710.413702 277.147529 C710.427007 287.759254 713.037237 298.353187 714.110662 308.989509 C714.346624 311.327674 713.941411 314.758216 712.433904 316.032783 C709.205999 318.761909 704.986028 318.322090 701.105535 316.603218 C689.896245 311.638069 683.756231 302.644691 683.380559 290.778999 C682.546758 264.442878 682.557867 238.080024 682.224554 211.228065 z"/><path class="selected"  fill="#000000" opacity="1.000000" stroke="none" 
 	d="
M1454.474554 247.978065 C1453.945623 258.415779 1460.389471 263.739326 1467.993474 268.601204 C1475.548650 273.431770 1475.079900 277.480720 1467.285100 282.266151 C1455.840032 289.292640 1443.859685 282.391700 1437.271184 273.245704 C1429.746648 262.800300 1424.296331 251.200508 1422.413641 238.473487 C1421.099676 229.591926 1421.497625 220.449989 1421.238714 211.421241 C1420.850774 197.897194 1420.935979 184.347618 1420.122381 170.850975 C1419.240057 156.212700 1417.709173 141.606819 1416.181097 127.016151 C1414.715642 113.021965 1412.902776 99.063987 1411.218572 85.092979 C1410.588445 79.865913 1409.616888 74.660072 1409.366155 69.417511 C1409.272039 67.448814 1410.251531 64.874702 1411.645086 63.478309 C1421.033269 54.071174 1432.690862 55.908096 1440.229192 67.563644 C1443.157049 72.090896 1444.223333 77.022499 1444.284734 82.405479 C1444.432928 95.433311 1444.855169 108.458671 1445.237005 121.482978 C1445.506536 130.678062 1445.720891 139.879860 1446.263616 149.060691 C1447.116277 163.485298 1448.125555 177.902549 1449.257391 192.308097 C1450.090032 202.904609 1451.253850 213.474800 1452.214788 224.061714 C1452.930486 231.946327 1453.557928 239.838997 1454.474554 247.978065 z"/><path class="selected"  fill="#000000" opacity="1.000000" stroke="none" 
 	d="
M216.974554 180.478065 C217.419836 181.866111 218.052038 183.849723 217.742071 184.009864 C214.994390 185.429512 212.049047 187.591865 209.220434 187.510322 C201.879980 187.298729 194.552083 186.184166 187.251012 185.195045 C178.766851 184.045631 170.321416 182.613395 161.850164 181.364997 C154.455801 180.275291 147.040227 179.328300 139.649847 178.213310 C130.567358 176.843025 121.494909 175.402824 112.430196 173.919212 C105.265005 172.746513 98.133367 171.363670 90.959432 170.250831 C79.663442 168.498573 68.367826 166.705299 57.025777 165.303886 C50.883306 164.544929 44.624441 164.773643 38.455053 164.175514 C30.348775 163.389595 22.257749 162.368065 14.205068 161.150825 C11.450910 160.734504 4.148153 151.492088 4.255682 149.219734 C4.275167 148.807991 4.671510 148.394569 4.942899 148.017173 C9.677236 141.433479 20.395673 138.039329 28.508787 139.877555 C33.032156 140.902458 37.806997 140.822212 42.469678 141.226555 C54.054693 142.231193 65.721769 142.673347 77.206594 144.358802 C94.204244 146.853248 111.238378 149.513954 127.957906 153.392936 C154.006841 159.436378 179.824560 166.486656 205.689550 173.302589 C209.935949 174.421608 214.223821 176.051948 216.974554 180.478065 z"/><path class="selected"  fill="#000000" opacity="1.000000" stroke="none" 
 	d="
M2544.224554 105.228050 C2531.261175 108.894722 2518.853216 112.765129 2506.317327 116.164436 C2496.065862 118.944267 2486.133001 117.251136 2476.871526 112.230812 C2474.988958 111.210395 2472.599554 109.020393 2472.555364 107.314949 C2472.512884 105.669029 2474.891057 103.033821 2476.735784 102.416130 C2488.596624 98.444404 2500.549993 94.722953 2512.575628 91.276756 C2526.288518 87.347068 2540.077825 83.671684 2553.889349 80.101097 C2571.184270 75.629997 2588.069768 68.816169 2606.313421 69.356773 C2613.912054 69.581924 2621.656194 70.535942 2628.965276 72.518882 C2632.641790 73.516243 2635.492620 77.556297 2638.716985 80.220436 C2638.369329 80.573249 2638.040716 80.947731 2637.671087 81.275703 C2631.053655 87.146598 2622.551458 87.544578 2614.498724 89.220863 C2597.790960 92.698799 2581.044134 95.996498 2564.377386 99.659492 C2557.739202 101.118476 2551.270452 103.348838 2544.224554 105.228050 z"/><path class="selected"  fill="#000000" opacity="1.000000" stroke="none" 
 	d="
M2569.224554 181.228080 C2554.359563 178.894752 2539.988958 176.597114 2525.631780 174.215599 C2515.979436 172.614479 2506.310003 171.076851 2496.717474 169.164848 C2490.181829 167.862190 2486.171331 162.683052 2481.795110 158.213661 C2481.782415 158.200569 2482.380315 157.493141 2482.763860 157.204185 C2485.426702 155.198219 2488.131780 153.247383 2490.778265 151.220420 C2494.173772 148.619712 2497.968206 149.686454 2501.528997 150.292930 C2514.255559 152.460640 2526.958929 154.782737 2539.629339 157.259330 C2552.550481 159.784919 2565.412298 162.613014 2578.319280 165.213890 C2591.866643 167.943855 2605.580022 170.000145 2618.949895 173.412834 C2628.912542 175.955818 2638.537542 179.955116 2648.121038 183.785911 C2651.972600 185.325447 2655.349065 188.091499 2658.862737 190.418403 C2660.060247 191.211357 2661.195745 192.305153 2658.328069 192.253044 C2652.779729 192.152198 2647.177923 192.665611 2641.690130 192.072639 C2633.358587 191.172401 2625.108831 189.526680 2616.818792 188.232887 C2606.013616 186.546577 2595.206975 184.869011 2584.393255 183.239692 C2579.513372 182.504417 2574.614690 181.894752 2569.224554 181.228080 z"/><path class="selected"  fill="#000000" opacity="1.000000" stroke="none" 
 	d="
M121.224554 210.228065 C127.278310 210.894722 132.902532 211.215309 138.365514 212.327736 C143.580282 213.389595 145.864172 218.137489 148.564962 222.144355 C148.652883 222.274849 148.146627 223.063972 147.789358 223.193763 C145.759283 223.931221 143.727926 224.949043 141.627141 225.153389 C135.956548 225.704994 130.254201 225.980873 124.558172 226.209022 C114.538305 226.610389 104.510122 226.811561 94.492055 227.248542 C81.105978 227.832466 67.724172 228.523079 54.344388 229.239753 C42.957708 229.849708 31.562589 230.385933 20.197416 231.285835 C11.729871 231.956276 5.529062 228.377021 0.551919 221.997779 C0.149919 221.482521 -0.175955 220.271919 0.106019 219.952827 C5.844984 213.458351 10.934392 206.553077 21.642576 208.002143 C29.984792 209.131050 38.604047 208.108467 47.096479 208.255714 C60.285696 208.484413 73.472250 208.876869 86.659002 209.233528 C98.014852 209.540626 109.369421 209.894752 121.224554 210.228065 z"/></svg>