<?xml version="1.0" encoding="utf-8"?><!DOCTYPE svg PUBLIC "-//W3C//DTD SVG 1.1//EN" "http://www.w3.org/Graphics/SVG/1.1/DTD/svg11.dtd"><svg version="1.1" id="Contours" xmlns="http://www.w3.org/2000/svg" xmlns:xlink="http://www.w3.org/1999/xlink" x="0px" y="0px" width="1842.317383px" height="1842.317383px" viewBox="-0.000000 0.000006 1842.317383 1938.773193" enable-background="new 0 0 1842.317383 1842.317383" xml:space="preserve" stroke="black" fill="none" stroke-linecap='round' stroke-linejoin='round'><path class="selected"  fill="#000000" opacity="1.000000" stroke="none" 
 	d="
M1842.317383 1935.484308 C1837.260620 1935.317560 1831.941773 1935.427911 1827.199219 1933.829278 C1815.929199 1930.030206 1803.384522 1934.669855 1792.547486 1928.128839 C1790.837403 1927.096612 1787.967774 1927.947931 1785.635376 1927.990167 C1773.019654 1928.218927 1760.547974 1927.164483 1748.283814 1924.027032 C1747.032471 1923.707208 1745.624634 1924.049737 1744.295655 1923.973810 C1732.904907 1923.325128 1721.272583 1923.864190 1710.193970 1921.644708 C1699.016480 1919.405450 1688.002808 1920.793634 1676.960449 1919.937677 C1671.882324 1919.543878 1666.775635 1917.800958 1661.803101 1918.195733 C1655.342163 1918.708917 1649.287232 1918.843683 1643.212036 1916.120538 C1641.269165 1915.249689 1638.606690 1915.984308 1636.273560 1915.984308 C1624.607666 1915.984308 1612.941895 1915.998956 1601.276001 1915.978937 C1593.912110 1915.966241 1586.506714 1916.658380 1579.672974 1912.555108 C1577.938111 1911.513360 1575.208496 1912.015314 1572.934815 1912.004327 C1563.269043 1911.957452 1553.598755 1912.151544 1543.938721 1911.909845 C1539.519898 1911.799493 1534.714844 1913.559259 1530.766358 1909.984308 C1518.986206 1912.526300 1507.103638 1909.010553 1495.477906 1910.415704 C1491.043457 1910.951837 1487.274170 1912.927911 1483.023194 1910.074396 C1482.104126 1909.457330 1480.137573 1909.492975 1479.130371 1910.066095 C1473.585816 1913.221124 1468.281250 1910.641778 1462.723511 1910.236749 C1449.509522 1909.274103 1436.263184 1910.141290 1423.356568 1913.853937 C1421.511963 1914.384454 1419.111084 1914.607843 1417.448975 1913.877618 C1408.138672 1909.788751 1399.721558 1914.540216 1390.840454 1915.557062 C1383.634278 1916.382257 1376.078858 1917.638605 1368.507691 1916.194513 C1365.359131 1915.594171 1361.656616 1916.979669 1358.397949 1918.047784 C1348.798584 1921.194024 1338.950318 1919.835626 1329.207032 1919.910333 C1319.537354 1919.984308 1310.139038 1923.048517 1300.844116 1923.413507 C1289.113037 1923.874200 1278.030640 1927.626153 1266.523072 1927.818536 C1256.178833 1927.991388 1246.451294 1930.758478 1236.517334 1932.788751 C1234.678223 1933.164483 1232.847534 1933.930353 1231.013916 1933.927911 C1219.068482 1933.912530 1207.417603 1936.439386 1195.639527 1937.659357 C1182.118775 1939.059503 1168.163330 1939.293878 1154.746704 1937.465753 C1147.354981 1936.458185 1139.959229 1932.946710 1132.178589 1931.872247 C1130.808472 1931.683038 1129.600220 1930.073907 1128.386841 1929.039239 C1120.421753 1922.247491 1114.070923 1914.061700 1108.672119 1905.195123 C1106.204346 1901.142267 1105.420044 1896.894464 1108.137818 1891.919244 C1111.627808 1885.530450 1116.059326 1880.700494 1122.254273 1876.891412 C1132.406250 1870.649225 1141.693726 1862.833673 1152.256592 1857.478204 C1161.559571 1852.761407 1169.483643 1844.881036 1180.631714 1843.910089 C1182.069214 1843.784967 1183.550904 1842.836603 1184.789185 1841.956109 C1198.645386 1832.104425 1215.674927 1829.558893 1230.549317 1822.039606 C1235.207642 1819.684625 1240.662232 1818.683282 1244.937866 1815.838190 C1253.808106 1809.935968 1263.895508 1806.310357 1273.475464 1802.605890 C1284.870240 1798.199518 1297.289063 1795.767145 1309.049195 1791.865411 C1322.910401 1787.266778 1337.267823 1784.503229 1351.075562 1779.867608 C1357.770386 1777.620050 1365.176026 1777.540826 1371.217285 1775.330743 C1379.575684 1772.272760 1388.985108 1774.146417 1396.481323 1768.810724 C1396.749024 1768.620050 1397.010132 1768.104913 1397.184693 1768.143732 C1407.477417 1770.429986 1416.364258 1763.198297 1426.490601 1763.845758 C1429.824585 1764.058893 1433.255249 1762.612482 1436.653931 1761.992120 C1444.096436 1760.633356 1451.592652 1759.529962 1458.983032 1757.933893 C1469.765991 1755.605157 1481.233399 1757.223688 1491.561646 1752.095880 C1493.165894 1751.299249 1495.507080 1751.940118 1497.505615 1751.991876 C1507.178955 1752.242242 1516.605835 1750.978082 1525.882324 1748.098199 C1528.314331 1747.343072 1531.188111 1748.119928 1533.844727 1747.958307 C1541.119385 1747.516168 1548.905762 1749.932062 1555.283081 1744.138971 C1555.839234 1743.633722 1557.208252 1743.918268 1558.186402 1743.998956 C1574.462525 1745.341241 1588.975708 1737.763605 1604.413819 1734.876398 C1605.636109 1734.647882 1606.821778 1734.082940 1608.043457 1734.015314 C1621.669068 1733.261651 1634.092530 1727.896783 1646.900635 1723.997613 C1653.715698 1721.922906 1660.727295 1720.397882 1667.378418 1717.900934 C1682.657593 1712.164483 1698.136353 1706.754205 1712.842163 1699.757501 C1726.262329 1693.372613 1739.233643 1685.752984 1751.529297 1677.392755 C1760.540528 1671.265802 1767.161988 1662.428766 1771.557129 1652.026788 C1772.959351 1648.708307 1771.207276 1647.813898 1769.702515 1646.450128 C1764.896729 1642.093927 1759.928589 1637.916315 1755.007447 1633.688043 C1754.287476 1633.069391 1753.405152 1631.979791 1752.728638 1632.071344 C1744.638184 1633.167657 1738.616822 1627.137018 1731.207154 1625.962701 C1727.796875 1625.422296 1724.431763 1624.601983 1721.028565 1624.009454 C1719.750122 1623.786920 1717.504151 1624.269464 1717.253418 1623.720758 C1713.173950 1614.788263 1704.319580 1619.312677 1697.975830 1616.898614 C1691.617066 1614.478815 1684.678223 1613.594781 1678.013306 1611.957696 C1676.528198 1611.593072 1675.164917 1610.722955 1673.677613 1610.377496 C1658.954468 1606.957574 1644.759033 1601.897272 1629.159424 1601.610406 C1613.957398 1601.330865 1598.820313 1597.914483 1583.636353 1596.023248 C1578.497437 1595.383233 1573.298462 1594.822931 1568.133789 1594.876764 C1557.166870 1594.990777 1547.205689 1590.050348 1536.163452 1589.409234 C1526.493408 1588.847833 1516.321656 1587.045709 1506.763062 1586.699884 C1494.653565 1586.261773 1483.473755 1582.135431 1471.467163 1581.579767 C1455.030518 1580.819024 1438.640991 1578.547296 1422.122681 1577.709894 C1411.544312 1577.173639 1401.138428 1573.746148 1390.583008 1572.068414 C1383.596924 1570.957818 1376.495850 1570.406305 1369.423828 1570.034112 C1353.709351 1569.207452 1337.981201 1568.645929 1322.257813 1567.991876 C1320.599365 1567.922784 1318.310913 1568.660333 1317.376343 1567.829523 C1310.923828 1562.093439 1303.191773 1564.177301 1295.915772 1564.059259 C1285.288208 1563.886773 1274.977539 1561.339776 1264.540283 1560.370172 C1256.067505 1559.583185 1247.144287 1557.734186 1238.558106 1560.766900 C1238.274536 1560.867120 1238.080567 1561.221002 1237.844971 1561.456720 C1230.590088 1553.840997 1221.154297 1561.882745 1213.336182 1558.078790 C1212.526856 1557.685113 1211.372315 1558.021173 1210.379395 1557.981134 C1193.989868 1557.319024 1177.605835 1556.356988 1161.209839 1556.061944 C1142.550415 1555.725885 1123.879029 1556.126886 1105.215576 1555.937189 C1091.267334 1555.795587 1077.459839 1556.613092 1063.867432 1559.954034 C1062.924561 1560.185846 1061.874878 1559.993097 1060.875122 1559.982965 C1046.952271 1559.842096 1033.180786 1561.257745 1019.531739 1563.967950 C1018.890381 1564.095148 1018.201050 1563.963922 1017.535279 1563.987115 C998.479248 1564.650201 979.419190 1565.216485 960.369263 1566.024591 C949.969910 1566.465753 939.326172 1566.130914 929.278321 1568.347467 C920.736817 1570.231744 912.430115 1569.520929 904.026734 1569.950250 C888.643372 1570.736261 873.171082 1570.602106 857.892395 1572.278009 C849.929138 1573.151178 842.330628 1571.453180 834.510010 1571.765436 C826.492798 1572.085626 817.411988 1572.724298 810.600098 1569.460016 C802.056946 1565.366266 792.952393 1567.710382 784.813904 1564.033502 C782.296997 1562.896295 779.139588 1562.897516 776.938721 1561.401666 C773.010254 1558.731622 768.987793 1557.802301 764.321228 1557.896173 C758.818787 1558.006769 754.349610 1555.268854 749.484314 1552.671441 C743.001892 1549.211114 737.685242 1544.808526 733.019470 1539.533868 C727.949280 1533.802179 723.510254 1527.512262 718.801392 1521.461481 C718.611573 1521.217584 718.329712 1520.925348 718.338867 1520.664117 C718.623535 1512.459283 717.965149 1504.064264 719.528137 1496.106134 C721.044678 1488.384332 726.189636 1482.745172 733.047974 1477.709161 C749.338562 1465.747491 768.093506 1459.198785 786.254334 1451.440607 C793.598267 1448.303399 801.145630 1445.531549 808.317749 1441.955743 C819.774109 1436.243951 831.620911 1431.996759 844.323792 1429.784234 C849.650269 1428.856378 854.710511 1425.964898 859.685730 1423.542901 C871.041931 1418.014337 883.366699 1417.442804 895.545166 1415.901178 C899.199036 1415.438775 902.697693 1413.856866 906.321106 1413.019830 C911.209778 1411.890558 916.162232 1411.039972 921.063355 1409.960992 C923.483155 1409.428155 925.879395 1408.740899 928.228333 1407.951105 C929.678894 1407.463312 930.993286 1406.137872 932.414856 1406.063165 C947.317505 1405.279596 961.186951 1400.430231 975.434326 1396.591852 C984.022217 1394.278253 993.781372 1394.452203 1002.525391 1391.724298 C1008.070191 1389.994562 1015.003540 1392.155328 1019.322998 1386.229913 C1019.916748 1385.415460 1022.813477 1385.403985 1024.064698 1386.085138 C1032.938111 1390.913995 1040.251221 1384.620538 1048.276734 1383.224298 C1053.493531 1382.316583 1059.035401 1382.633966 1064.353760 1383.172052 C1068.154785 1383.556573 1071.379273 1384.571344 1075.317017 1382.318414 C1079.816162 1379.744562 1085.071656 1378.359308 1090.700562 1379.822442 C1092.537598 1380.299982 1095.047608 1379.201349 1096.883545 1378.170953 C1097.614136 1377.761041 1098.012573 1374.897272 1097.424195 1374.329523 C1095.160889 1372.144708 1092.034668 1368.493707 1089.961670 1368.922662 C1084.156494 1370.124444 1082.123047 1365.959039 1078.631470 1363.445978 C1072.025635 1358.690851 1065.042359 1354.461725 1058.241699 1349.974908 C1055.644165 1348.261163 1050.971802 1348.296930 1052.317383 1343.145807 C1042.223511 1339.800226 1037.448487 1327.266168 1024.855835 1327.648126 C1022.182129 1327.729181 1019.257080 1323.658258 1016.693482 1321.239801 C1015.633545 1320.240045 1015.376099 1317.478570 1014.489258 1317.350641 C1007.284790 1316.310480 1002.848633 1311.750787 997.734619 1307.014947 C992.986939 1302.618341 985.762329 1300.903741 979.644532 1297.974420 C977.972046 1297.173639 976.137573 1296.510919 974.755738 1295.338922 C969.047852 1290.497857 963.540467 1285.420221 957.829224 1280.583185 C956.450440 1279.415338 954.435974 1277.924493 952.951477 1278.149713 C947.854248 1278.922662 945.329102 1275.572687 942.021179 1272.844659 C934.901734 1266.973565 927.362732 1261.613702 920.061035 1255.959894 C918.028565 1254.385797 915.183228 1252.831598 914.540406 1250.713067 C913.308899 1246.654107 910.426880 1246.963312 907.476136 1245.705133 C902.687989 1243.663751 898.640320 1239.862726 894.334473 1236.729669 C893.281494 1235.963556 892.518494 1234.211725 891.488282 1234.094903 C883.712097 1233.213434 880.789063 1224.191705 872.873780 1223.240289 C871.145264 1223.032525 870.115723 1219.099054 868.260803 1217.446466 C863.454346 1213.164606 860.420227 1204.647394 851.190247 1209.835382 C850.455994 1210.248102 848.595032 1208.378107 847.151184 1207.874078 C845.169007 1207.182306 842.930908 1206.016046 841.071411 1206.390069 C833.221436 1207.968805 829.057434 1206.706720 827.574890 1199.867731 C826.852722 1196.536188 825.553101 1194.438409 823.525513 1192.125421 C815.191345 1182.617853 807.026184 1172.962213 798.714966 1163.434259 C796.990540 1161.457452 795.200257 1158.841485 792.940613 1158.147882 C782.753174 1155.020563 776.541016 1147.008722 769.408081 1140.079645 C765.278137 1136.067682 761.379761 1132.125787 755.691712 1129.746515 C748.833802 1126.877618 748.915222 1119.255792 748.575440 1113.145685 C748.311280 1108.395074 746.992493 1105.136407 743.569458 1102.073541 C741.502075 1100.223932 740.131653 1097.567071 738.567810 1095.193902 C737.722657 1093.911310 737.410828 1092.186578 736.377442 1091.132867 C728.290039 1082.885675 720.190552 1074.643976 711.858094 1066.647149 C709.151245 1064.049371 705.752869 1062.167535 702.643982 1059.996881 C701.925049 1059.494806 700.839051 1059.344415 700.356629 1058.704523 C694.815308 1051.354669 689.512451 1043.818658 683.783692 1036.620782 C682.081543 1034.481988 678.915528 1033.561212 676.985535 1031.542047 C667.903015 1022.040338 659.025940 1012.342340 650.052857 1002.735650 C648.461121 1001.031549 646.761353 999.428277 645.111634 997.778497 C634.310425 986.977472 623.120850 976.533014 612.802490 965.288873 C598.522217 949.727594 585.026490 933.449029 570.931336 917.713678 C564.973999 911.063043 558.258606 905.097711 552.040467 898.673150 C537.033875 883.168756 524.734070 865.179803 508.307068 850.973993 C503.700623 837.426996 489.755982 831.634759 482.529846 819.915765 C478.850525 813.948907 472.654419 809.339410 469.440308 802.432245 C468.264832 799.906183 464.641968 798.429498 461.990418 796.696100 C453.190399 790.943292 451.008271 780.309869 444.367981 772.961786 C442.697266 771.113031 441.910828 768.309686 440.022217 766.837823 C425.647309 755.635003 417.880921 738.583673 404.261048 726.687555 C401.596802 724.360467 399.902375 720.559747 398.591553 717.121881 C395.846741 709.923089 389.831879 704.812311 384.814118 700.249689 C370.209198 686.969720 363.078095 668.097772 348.502198 654.981988 C338.690186 646.152826 329.720520 636.387445 320.374024 627.040887 C319.902619 626.569574 319.004395 626.080377 319.023194 625.629449 C319.367005 617.389154 309.868714 615.291925 308.199707 608.236078 C307.821961 606.638910 306.142090 605.175775 304.753784 604.021112 C298.128754 598.511285 290.033509 594.325189 288.046295 584.769159 C287.932801 584.223321 287.146332 583.820184 286.678955 583.344903 C276.399903 572.891900 265.976288 562.575128 255.920960 551.911127 C252.321869 548.094232 248.812775 543.798578 246.685608 539.079950 C243.509430 532.034173 238.135285 527.101434 233.088410 521.707757 C226.155304 514.298150 219.486115 506.640375 212.499298 499.283136 C210.577118 497.258966 207.678864 496.183587 205.653473 494.231805 C197.507569 486.382074 191.434250 476.679132 183.909287 468.473199 C178.169251 462.213800 174.480393 454.201166 166.115509 449.460870 C158.889801 445.366083 150.290909 440.792840 146.377808 432.658502 C143.997010 427.709344 140.780533 425.477350 136.132981 423.905145 C134.705185 423.422174 132.539734 422.036004 132.503800 421.001153 C132.158982 411.074640 122.381180 402.896051 127.135239 392.011590 C127.493439 391.191522 126.612458 388.964898 125.808274 388.644220 C120.981201 386.719598 119.896485 382.832452 119.562531 378.285272 C119.475907 377.105768 119.032395 375.725946 118.273072 374.857782 C111.727234 367.373285 111.845291 358.405542 112.256211 349.303491 C112.308106 348.154230 111.863053 346.628961 111.079560 345.849634 C101.938843 336.757409 97.531784 324.947290 92.297638 313.602655 C91.778519 312.477502 91.167191 311.286554 90.288880 310.452264 C82.211640 302.780328 80.175080 292.012628 75.693093 282.487054 C74.368172 279.671197 71.540337 277.560907 70.224030 274.742914 C67.752709 269.452203 67.039574 262.885278 63.441643 258.700830 C59.673645 254.318597 53.554093 252.005639 52.268662 245.349054 C51.923805 243.563196 50.984024 241.892206 50.317360 240.168481 C49.650704 238.444757 49.184639 235.343988 48.285958 235.213067 C40.416230 234.066797 41.130295 226.040063 37.125977 222.054590 C31.918488 216.871606 25.776551 212.626825 20.028946 207.987970 C19.037361 207.187707 17.567765 206.651697 17.063736 205.627191 C12.970734 197.307763 6.395863 190.351068 4.196594 180.942621 C2.921623 175.488367 -1.106251 170.709985 0.290280 164.566308 C0.574532 163.315820 0.072201 161.702478 0.690304 160.746240 C2.586373 157.812951 5.260525 155.328027 6.835083 152.259729 C7.982685 150.023431 7.293610 146.843225 8.444798 144.610498 C10.447037 140.727044 13.158676 137.193414 15.720040 133.618524 C18.498230 129.741022 20.948807 125.438714 24.417832 122.284692 C32.275597 115.140542 39.631760 107.521936 47.090859 99.991678 C49.145394 97.917550 51.187668 95.810556 53.419731 93.938165 C56.300080 91.521982 57.943802 87.660104 62.942620 87.713083 C65.279114 87.737848 67.756989 85.004526 69.976410 83.272241 C74.468773 79.765848 77.141129 73.985513 83.870941 73.176217 C85.527237 72.977044 86.788819 69.905954 88.327912 68.244119 C92.752655 63.466470 97.162995 58.671976 101.721970 54.024347 C102.999817 52.721643 105.654633 52.216745 106.154770 50.805948 C107.767166 46.257577 110.321274 43.740106 115.354035 43.851358 C116.400894 43.874505 117.608872 42.785913 118.515656 41.960382 C124.113755 36.863931 130.283493 33.262597 138.222122 33.984308 C143.743347 27.483438 151.148651 27.428796 158.736328 27.969201 C159.020401 27.989404 159.581391 27.768304 159.575791 27.691583 C158.910996 18.572702 167.293061 23.904107 170.485337 20.909097 C171.325760 20.120584 173.522873 20.146600 173.730545 19.412195 C175.970627 11.490442 183.251908 11.991723 188.968537 10.551782 C193.780533 9.339685 197.428345 6.905786 201.428177 4.223291 C206.989167 0.493829 213.872895 -0.140036 220.616242 0.022973 C221.163086 0.036203 222.068329 0.497720 222.180634 0.918207 C223.849152 7.165674 228.176117 7.421304 233.302216 5.984308 C236.657013 14.067621 244.652130 16.179880 251.320709 20.002862 C251.599793 20.162851 251.916962 20.422754 252.016236 20.706216 C257.454682 36.229104 271.784912 43.375024 282.836548 53.637369 C285.853791 56.439157 287.774750 60.408777 290.745453 63.276163 C296.365753 68.700982 303.033997 73.150461 308.110504 79.007425 C322.883911 96.051950 341.629395 108.852334 356.786865 125.436914 C358.134674 126.911645 360.445221 128.054346 360.880707 129.723749 C363.242920 138.779321 371.713745 141.150781 377.940827 145.963830 C378.149475 146.125146 378.603089 145.927911 378.923249 145.992792 C383.515473 146.923791 380.487885 155.708124 388.329712 154.344751 C392.421601 153.633356 397.441986 156.101343 401.511444 158.176019 C404.260041 159.577264 406.878907 162.439752 408.152466 165.278253 C410.859131 171.310785 412.851959 177.588006 412.449494 184.553552 C412.046417 191.530267 417.883759 196.221277 420.399750 202.196100 C422.910370 208.158227 427.185211 213.573388 428.673401 219.716089 C430.218537 226.093957 430.979645 233.582605 429.035095 239.600427 C427.412445 244.622095 425.165131 249.754693 426.705078 254.296258 C428.001862 258.120691 432.592041 260.892877 435.889832 263.952478 C438.236756 266.129938 441.217285 267.701440 443.280335 270.091272 C447.163056 274.589013 451.730133 278.057855 457.279297 279.851892 C467.601807 283.189233 472.832276 292.430047 480.259339 299.090326 C485.445374 303.740899 490.052674 309.032770 494.984131 313.972589 C498.492554 317.487024 502.265869 320.748376 505.633240 324.388849 C508.679444 327.682062 510.918579 331.812494 514.252014 334.730157 C520.888428 340.538934 527.120972 346.428033 530.445435 354.916131 C531.225098 356.906854 533.606018 358.271875 535.254517 359.920587 C547.980835 372.648309 560.456482 385.640314 573.510559 398.022638 C585.049195 408.967584 597.302246 419.156183 609.071289 429.864068 C611.373169 431.958368 612.887207 434.913507 614.790100 437.452569 C622.797180 448.136957 631.700501 458.281366 638.542481 469.665155 C643.874146 478.536065 651.214234 485.157220 657.835938 492.656427 C661.359864 496.647455 663.817383 501.560602 667.153137 505.740838 C675.978882 516.800714 685.375305 527.422357 693.854492 538.735589 C699.676453 546.503412 706.722779 553.264703 710.576294 562.769037 C713.559693 570.127252 719.628601 576.222284 724.247620 582.932672 C730.311096 591.741632 736.425904 600.520196 742.250916 609.485834 C744.419617 612.823785 744.958435 617.676446 747.755249 620.064691 C756.009461 627.113519 759.579163 637.304132 766.033020 645.549249 C772.649292 654.001764 776.215210 664.796686 782.540955 673.534967 C788.464112 681.717157 793.034241 690.583612 798.448120 698.982965 C801.723938 704.065240 806.438050 708.198724 810.219116 712.985162 C812.532776 715.914056 814.304199 719.271478 816.316834 722.437921 C816.987183 723.492669 817.476502 724.729181 818.344422 725.581232 C826.371704 733.461908 829.958008 744.660943 838.960572 752.030511 C843.976990 756.136896 847.005799 762.610467 851.218506 767.782525 C853.695374 770.823480 856.883972 773.275873 859.475586 776.235345 C861.327759 778.350397 863.588623 780.683099 864.134644 783.245294 C865.234497 788.406183 866.261475 793.134332 872.130493 794.797418 C881.873657 811.615289 897.708008 824.104120 906.013733 841.775201 C908.205567 846.438470 914.570435 846.382989 914.949219 853.069391 C915.169678 856.960931 920.762573 860.413141 923.583374 864.319269 C930.603028 874.039972 937.422058 883.905572 944.314209 893.718194 C945.217224 895.003961 945.780579 896.939874 947.003113 897.523736 C955.993103 901.816827 959.405518 910.631280 964.370911 918.222711 C965.342530 919.708185 966.858460 920.972223 968.378479 921.935846 C971.435425 923.873712 974.076416 925.611261 974.560913 929.915582 C974.802246 932.060113 977.477661 934.032770 979.261719 935.880914 C983.265991 940.028863 987.281739 944.033380 988.468506 950.112604 C988.757447 951.591730 990.774048 952.935357 992.271607 953.924371 C994.054566 955.101617 996.733155 955.341485 997.963257 956.851495 C1000.710205 960.223688 1002.798706 964.132379 1005.155518 967.822442 C1011.620240 966.280694 1011.767212 972.726617 1014.782593 975.510309 C1018.208496 978.673028 1021.665406 981.872125 1024.583374 985.480401 C1025.724976 986.892023 1025.819336 989.476983 1025.719849 991.494317 C1025.542847 995.085260 1027.829834 997.938898 1030.569458 996.610895 C1034.409180 994.749566 1038.150147 994.087335 1040.868408 997.717218 C1043.459961 1001.177789 1046.019165 1005.025934 1043.493286 1009.918878 C1042.662842 1011.527521 1042.537720 1013.564508 1042.385620 1015.429620 C1042.319092 1016.243829 1042.996094 1017.118829 1043.335205 1017.966363 C1043.662598 1017.101983 1044.263550 1016.240045 1044.271363 1015.372980 C1044.312012 1010.855401 1045.966919 1011.395318 1048.911499 1013.478815 C1053.266968 1016.560602 1053.505371 1021.430963 1051.875489 1024.905939 C1050.425659 1027.997369 1050.030396 1029.588678 1052.673584 1031.273370 C1058.253907 1034.830011 1058.778321 1040.121026 1058.360352 1045.967706 C1058.123291 1049.283868 1058.256104 1052.632501 1058.349243 1055.963067 C1058.383911 1057.206232 1058.379029 1058.758966 1059.072632 1059.626642 C1065.008545 1067.051080 1069.710694 1078.498102 1070.371826 1087.158014 C1070.510620 1088.973810 1071.104981 1090.851007 1071.896118 1092.505304 C1076.711426 1102.574396 1080.542481 1112.921197 1083.344361 1123.790826 C1086.109741 1134.518732 1091.330689 1144.449029 1095.789307 1154.608575 C1097.268433 1157.979059 1097.499634 1161.894952 1098.322144 1165.556817 C1098.663574 1167.076349 1098.802246 1168.709405 1099.470459 1170.077081 C1104.910889 1181.212823 1107.670777 1193.528741 1112.903687 1204.475519 C1117.043946 1213.136163 1121.036377 1221.707574 1124.704956 1230.623712 C1128.366211 1239.522516 1131.015137 1248.693414 1134.140015 1257.700372 C1138.199097 1269.400201 1140.768433 1281.609064 1144.436035 1293.457208 C1145.694824 1297.523981 1147.685547 1301.743463 1150.489746 1304.860528 C1154.356690 1309.158746 1156.518189 1313.706109 1156.702881 1319.363702 C1156.952271 1327.003107 1162.445191 1333.291315 1162.320191 1341.034234 C1162.309571 1341.695611 1162.101807 1342.800226 1162.387696 1342.954645 C1168.966065 1346.508478 1166.894043 1352.161798 1166.429566 1357.728570 C1165.932373 1363.686700 1166.317383 1369.718316 1166.317383 1375.717950 C1157.966065 1383.677911 1165.408081 1391.536676 1166.930298 1399.216974 C1167.388306 1401.527154 1167.622315 1402.561212 1166.707398 1404.901422 C1163.954102 1411.943658 1157.181763 1414.013360 1151.999634 1417.828180 C1146.022217 1422.228326 1139.307007 1420.454645 1132.910279 1417.649713 C1130.942383 1416.786798 1128.720093 1416.098932 1126.600220 1416.058038 C1117.604248 1415.884332 1108.508179 1415.159112 1099.626221 1416.180353 C1086.753784 1417.660577 1073.475098 1417.792047 1061.261841 1422.418512 C1055.931153 1424.437677 1050.996948 1423.700128 1045.917481 1423.874811 C1036.950684 1424.183038 1028.186157 1424.876398 1020.066773 1429.170587 C1019.001953 1429.733819 1017.635254 1429.951105 1016.408814 1429.949640 C1004.221314 1429.934625 992.630493 1433.351739 980.791870 1435.368463 C966.476990 1437.806940 952.517761 1441.679742 938.245545 1444.167413 C923.883118 1446.670953 909.664612 1450.065607 895.864563 1455.185724 C888.891541 1457.773126 881.101197 1458.061700 873.871094 1460.074640 C863.155274 1463.058404 852.223999 1465.771905 842.090088 1470.211358 C829.969361 1475.521295 817.507508 1480.003839 805.873108 1486.762384 C797.663880 1491.531305 789.029053 1495.886407 780.674439 1500.599664 C779.609436 1501.200494 778.309326 1501.404596 777.286377 1502.056573 C770.757569 1506.216852 770.958740 1508.640558 777.830628 1512.547906 C781.899231 1514.861383 785.924866 1517.301446 789.721802 1520.029596 C795.442993 1524.140436 802.404846 1521.555719 808.476563 1523.886773 C811.654358 1525.106744 815.199707 1525.454156 818.614502 1525.952936 C823.987366 1526.737726 829.388550 1527.330865 834.780701 1527.980646 C840.559448 1528.676935 845.990967 1530.434381 852.247437 1528.362604 C856.305237 1527.018976 861.729065 1530.432062 866.263550 1529.781427 C881.639527 1527.574762 897.195679 1529.360284 912.408386 1527.544000 C922.216126 1526.372980 932.280396 1527.952325 941.500000 1525.494928 C947.959168 1523.773370 953.865784 1526.321832 960.269959 1524.406549 C966.694824 1522.485040 974.144532 1524.071466 981.140991 1523.925348 C982.970825 1523.887018 984.774414 1523.067193 986.609497 1522.704889 C991.918213 1521.657037 996.881348 1517.850030 1002.783448 1521.792413 C1004.627320 1523.023981 1008.572266 1522.960260 1010.535767 1521.785333 C1014.913574 1519.165826 1019.393677 1520.089044 1023.825928 1520.049493 C1032.506958 1519.971857 1040.925537 1518.547784 1049.216309 1516.109674 C1049.825928 1515.930353 1050.567871 1515.838067 1051.158692 1516.010919 C1062.913452 1519.454034 1074.114380 1513.786432 1085.679077 1513.946100 C1098.009278 1514.116266 1110.347534 1514.165216 1122.673950 1513.892877 C1127.409912 1513.788141 1132.247071 1511.609186 1136.826294 1512.154230 C1165.533325 1515.570367 1194.334595 1515.848443 1223.176514 1516.373712 C1229.723633 1516.492975 1236.990357 1518.722345 1243.585449 1519.313775 C1250.429322 1519.927423 1257.731690 1520.517389 1264.875122 1520.142267 C1268.885987 1519.931695 1272.977295 1521.338312 1277.038330 1521.978692 C1281.424561 1522.670099 1285.801026 1523.733819 1290.210938 1523.913019 C1310.593384 1524.741022 1331.131470 1524.074640 1351.322632 1526.434503 C1364.144287 1527.932916 1377.427002 1526.530450 1390.004151 1531.699640 C1395.705200 1534.042901 1402.686035 1533.175592 1409.053589 1534.012994 C1423.569336 1535.922052 1438.061035 1538.014947 1452.573609 1539.948297 C1454.538697 1540.210016 1456.572510 1539.902032 1458.567871 1539.997613 C1471.958618 1540.638727 1485.554810 1540.111871 1498.671753 1542.365289 C1509.177857 1544.170343 1520.279053 1542.684503 1530.352173 1547.781549 C1533.005860 1549.124322 1536.915650 1547.971857 1540.248780 1547.986871 C1547.290528 1548.018732 1553.964600 1548.801202 1560.937134 1551.056940 C1569.014893 1553.670343 1578.177979 1554.121393 1586.725830 1553.507135 C1590.174073 1553.259332 1594.370606 1553.509454 1595.571656 1554.816095 C1598.898926 1558.435357 1602.584473 1557.753473 1606.442871 1558.013605 C1615.000733 1558.590753 1623.545288 1556.666681 1632.010987 1561.598199 C1636.823120 1564.401422 1643.887329 1563.689874 1649.959473 1563.890558 C1657.656250 1564.145074 1664.961304 1565.773370 1672.360840 1567.748102 C1675.771607 1568.658258 1679.599243 1572.578302 1683.864380 1568.202936 C1684.696045 1567.350030 1688.683838 1568.863336 1690.763184 1570.067193 C1697.784912 1574.132623 1705.310303 1575.487359 1713.303955 1576.207574 C1718.393677 1576.666070 1723.247315 1579.428277 1728.281616 1580.901788 C1734.540406 1582.733941 1740.872925 1584.316095 1747.185059 1585.962457 C1747.809204 1586.125299 1748.618042 1585.760065 1749.163941 1586.016656 C1771.020264 1596.289606 1795.133301 1602.803277 1812.941895 1620.046075 C1823.979126 1630.732721 1830.281006 1644.241632 1824.393433 1660.568414 C1822.816284 1664.941827 1822.670777 1669.846490 1820.984131 1674.161920 C1818.097779 1681.547784 1816.429932 1689.981744 1807.783692 1693.517999 C1802.516602 1705.224298 1788.853882 1706.984430 1781.145386 1715.881891 C1779.933350 1717.280694 1777.069214 1717.138360 1775.107300 1718.017267 C1768.558594 1720.950250 1762.217041 1723.968805 1756.360840 1728.500421 C1750.098145 1733.346857 1742.653931 1738.180475 1735.119873 1739.463312 C1726.820435 1740.876520 1720.214234 1745.762384 1712.187134 1747.221002 C1699.931641 1749.447931 1689.080567 1755.768121 1677.507935 1760.012506 C1676.938233 1760.221368 1676.474365 1761.258233 1676.037232 1761.210748 C1662.216675 1759.710382 1651.677124 1771.298517 1637.615845 1770.407770 C1630.952759 1769.985773 1623.840210 1773.667413 1617.267700 1776.323053 C1614.744507 1777.342340 1613.093140 1778.697320 1610.278809 1777.166559 C1609.141602 1776.548028 1606.486695 1776.932184 1605.635498 1777.870294 C1600.588257 1783.430597 1593.116699 1781.152521 1587.221070 1783.868951 C1586.023682 1784.420587 1584.148804 1783.461969 1582.578736 1783.256280 C1581.210938 1783.076959 1579.312378 1782.330255 1578.543701 1782.948175 C1573.746948 1786.804010 1568.176880 1785.757379 1562.762451 1786.008844 C1550.041870 1786.599420 1537.354737 1787.343683 1525.209229 1791.876520 C1523.161255 1792.640802 1520.568848 1791.817193 1518.252564 1792.015924 C1511.521607 1792.593316 1504.801880 1793.304376 1498.080200 1793.987726 C1491.688477 1794.637506 1485.301026 1795.331476 1478.909302 1795.980890 C1472.187622 1796.663873 1464.249024 1795.303766 1459.022583 1798.454034 C1451.085572 1803.238214 1442.935303 1803.596002 1434.552490 1804.799493 C1428.632813 1805.649103 1422.775879 1806.930475 1416.881836 1807.966607 C1415.612183 1808.189996 1414.162110 1807.858819 1413.033325 1808.340631 C1401.172852 1813.403985 1388.005005 1813.884210 1376.140625 1818.282525 C1362.116699 1823.481256 1346.845703 1822.422052 1333.248169 1828.156549 C1323.835327 1832.126275 1314.468750 1836.021661 1304.609986 1838.681695 C1299.233399 1840.132623 1293.623535 1840.828180 1288.795044 1843.966607 C1285.924073 1845.832574 1283.011719 1847.660089 1279.987427 1849.257867 C1276.721070 1850.983453 1273.359619 1853.594781 1269.939331 1853.761651 C1260.080445 1854.242853 1252.529785 1860.200982 1243.880005 1863.469659 C1240.428223 1864.773858 1237.137940 1866.501031 1233.743897 1867.965509 C1232.614746 1868.452936 1231.092530 1868.392023 1230.260132 1869.145440 C1225.536621 1873.421197 1221.710205 1878.384576 1214.384278 1879.473565 C1211.840210 1879.851739 1208.516724 1881.160211 1205.628540 1882.194024 C1199.857666 1884.259698 1194.512207 1887.518487 1189.024781 1890.349786 C1188.845703 1890.442193 1188.879761 1891.559015 1189.078247 1891.655328 C1189.622559 1891.919977 1190.325928 1892.038751 1190.934815 1891.962579 C1201.385498 1890.659234 1212.088013 1890.310724 1222.204102 1887.696832 C1231.765991 1885.226129 1241.035645 1883.316705 1250.968628 1883.873224 C1263.558838 1884.578546 1275.968384 1882.774835 1288.336426 1880.142145 C1295.541870 1878.608331 1303.079834 1878.616754 1310.473389 1877.991754 C1323.953003 1876.852228 1337.466431 1876.420099 1350.977173 1875.818658 C1363.458496 1875.262994 1375.895752 1873.460992 1388.318970 1871.935480 C1397.130249 1870.853570 1405.873047 1869.221124 1414.676636 1868.064508 C1416.472168 1867.828546 1418.391602 1868.772272 1420.273072 1868.907648 C1424.737427 1869.228692 1429.218872 1869.633844 1433.682251 1869.528253 C1436.467774 1869.462335 1439.227661 1868.092706 1442.008301 1868.058404 C1455.338623 1867.893487 1468.673828 1868.099786 1482.003174 1867.897638 C1485.082886 1867.851129 1488.122193 1866.489923 1491.225220 1866.162286 C1493.418579 1865.930719 1495.686035 1866.523126 1497.924195 1866.567804 C1501.531739 1866.639947 1505.144287 1866.632135 1508.750977 1866.529596 C1512.008789 1866.437066 1515.882324 1864.961236 1518.383789 1866.243097 C1523.184693 1868.703668 1527.921021 1867.782037 1532.688355 1867.946954 C1554.407593 1868.698663 1576.131714 1869.319024 1597.854126 1869.980401 C1598.853150 1870.010919 1600.199463 1869.559381 1600.801392 1870.048883 C1608.208618 1876.072809 1617.078125 1872.720270 1625.167847 1874.140069 C1640.208008 1876.779474 1655.314087 1875.279840 1670.354859 1876.135919 C1679.182617 1876.638482 1687.923340 1878.657281 1696.706665 1879.971490 C1697.358643 1880.069024 1698.248657 1880.262506 1698.672364 1879.941705 C1703.503784 1876.282770 1708.266968 1879.719781 1713.046387 1879.987604 C1724.770020 1880.643976 1736.585327 1880.617731 1748.193238 1882.153741 C1764.274292 1884.281549 1780.315796 1885.769098 1796.550293 1886.185357 C1808.023804 1886.479791 1819.456421 1888.591852 1830.891480 1890.020074 C1834.393921 1890.457452 1837.843628 1891.317560 1841.817383 1891.984308 C1842.317383 1906.317682 1842.317383 1920.651056 1842.317383 1935.484308 M17.317398 139.984308 C17.584061 138.917627 17.850731 137.850976 18.117386 136.784295 C17.681687 136.686670 17.245987 136.589044 16.810288 136.491418 C16.645989 137.655725 16.481690 138.820001 15.317383 139.984308 C15.268570 140.602167 15.219757 141.219995 15.170937 141.837854 C15.553086 141.219995 15.935234 140.602167 17.317398 139.984308 M984.317383 1084.984308 C984.499512 1085.833063 984.681641 1086.681940 984.863770 1087.530694 C985.299439 1087.397394 985.735230 1087.264093 986.170899 1087.130792 C985.553101 1086.081964 984.935181 1085.033136 984.317383 1082.984308 C983.574585 1081.984308 982.877198 1080.941949 982.033692 1080.035699 C981.923096 1079.916925 981.062866 1080.496026 980.549805 1080.751886 C981.270264 1081.627374 981.929566 1082.565851 982.738404 1083.350274 C983.115235 1083.715753 983.781983 1083.782281 984.317383 1084.984308 M684.317383 956.984308 C692.292664 964.959649 700.273621 972.929254 708.237854 980.915582 C709.633606 982.314996 711.859925 983.614923 712.166992 985.249322 C713.810059 993.994928 721.189759 997.279107 727.228211 1001.849298 C728.704773 1002.966974 731.506531 1003.462579 731.861695 1004.750787 C734.289673 1013.556085 740.419983 1019.161310 747.452942 1024.151422 C748.256775 1024.721857 748.928162 1025.505182 749.579529 1026.260187 C757.837952 1035.831109 765.450867 1046.072198 774.530396 1054.785455 C781.658631 1061.626275 786.458191 1070.222467 793.757080 1076.932916 C798.060913 1080.889581 799.898011 1087.358087 807.114807 1088.180108 C808.332825 1088.318780 809.742432 1090.893609 810.234070 1092.584039 C812.449463 1100.201471 814.325012 1102.109308 821.814392 1101.886407 C826.219666 1101.755182 831.155457 1101.711236 834.864136 1099.754571 C841.731507 1096.131280 849.993714 1092.435357 853.732605 1086.348199 C857.623413 1080.013605 861.879700 1073.825250 865.752930 1067.436822 C867.653321 1064.302179 869.120911 1060.818902 870.241822 1057.319635 C871.676941 1052.839776 866.063965 1054.351373 864.965576 1051.734918 C864.488037 1050.597345 862.990906 1049.923395 862.353760 1048.811456 C856.570801 1038.719659 852.111878 1027.885675 843.267456 1019.638482 C839.477967 1016.104669 837.189392 1010.933648 834.331177 1006.435113 C828.972473 998.001398 823.711548 989.505548 818.378968 981.055108 C814.874634 975.501886 810.472901 970.334527 807.983521 964.364557 C804.436402 955.857721 798.521363 950.270563 790.817017 945.918512 C789.076538 944.935357 786.744629 943.284845 786.495789 941.663751 C785.228150 933.406061 778.980713 928.393854 773.241028 924.575738 C767.379029 920.676202 761.622376 918.270074 757.973694 911.163995 C753.538452 902.525934 746.654114 895.114435 740.604859 887.347345 C736.827332 882.497003 733.098938 877.448785 728.543762 873.393365 C714.317932 860.728326 697.634156 850.678155 687.255432 833.970514 C686.758789 833.170892 685.935608 832.404657 685.084961 832.019708 C672.452881 826.304925 664.800965 815.359552 656.341614 805.157220 C652.178711 800.136590 647.278015 795.699090 642.497193 791.226495 C636.552918 785.665643 628.648377 781.338373 624.805237 774.635187 C620.942444 767.897821 615.796204 762.922357 610.797913 757.540887 C603.983094 750.203546 596.050965 743.878107 591.629456 734.475030 C590.562134 732.205316 588.255066 730.201532 586.046082 728.842828 C578.177429 724.003045 575.516724 715.267694 570.460083 708.371942 C567.222901 703.957391 566.413574 697.492120 562.700135 693.746148 C549.999573 680.934564 542.402527 664.637811 532.882019 649.871271 C524.731323 637.229547 515.057190 625.664361 507.357239 612.656793 C502.452271 604.370843 493.696472 598.364557 486.668640 591.334833 C484.549317 589.214837 482.239746 587.249689 480.350952 584.940607 C472.022278 574.758661 464.674378 563.605157 455.365418 554.433404 C440.987519 540.267450 427.965668 525.252923 417.303650 508.113397 C414.634064 503.822076 410.463898 500.473260 407.721375 496.215936 C404.350037 490.982355 402.327240 484.937189 395.782776 482.236749 C393.507202 481.297845 391.060700 478.943414 390.227997 476.672418 C387.470093 469.150567 377.009400 466.533868 377.839936 456.698053 C377.948487 455.412713 375.221100 453.887933 373.807251 452.474115 C372.198242 450.865167 370.424103 449.388360 369.010315 447.623041 C364.218842 441.640191 360.430023 434.473382 354.625092 429.777826 C347.041168 423.643243 342.089417 415.743646 336.381012 408.312738 C332.370606 403.092218 329.301117 397.137201 325.187836 392.010492 C319.887299 385.403863 313.243683 379.791437 308.482117 372.855890 C301.840485 363.181878 296.006287 353.217401 286.001801 346.200433 C282.640930 343.843164 279.879944 341.327722 275.869324 339.542444 C271.952637 337.798883 266.344513 339.930353 263.856446 334.608148 C261.916718 330.459009 259.156403 332.900842 258.491059 335.119256 C256.871308 340.519861 252.483795 342.181604 248.331146 341.764703 C237.595673 340.686853 230.454438 346.825891 225.614136 354.214624 C219.092621 364.169702 209.769867 372.242334 206.179505 384.480890 C204.941223 388.701837 203.552902 393.152887 204.675080 396.527398 C206.413910 401.756158 210.576935 406.169671 208.375824 412.348688 C208.242218 412.723749 208.919464 413.420038 209.271729 413.930780 C213.741455 420.412591 217.863800 427.174249 222.779969 433.298517 C230.481415 442.892450 238.686981 452.083856 246.740235 461.392816 C259.907440 476.613092 273.067536 491.840326 286.357758 506.952814 C289.833924 510.905633 293.996582 514.255304 297.466584 518.212884 C306.540222 528.561151 314.268311 539.991632 323.045075 550.620538 C333.244690 562.972650 344.109711 574.489374 355.195282 585.935113 C365.032868 596.092157 374.554169 606.555658 384.218140 616.881036 C384.673310 617.367425 385.215088 617.781549 385.621643 618.303216 C396.297547 632.003412 406.407898 646.086419 419.120362 658.193353 C425.667542 664.428644 429.404785 673.553583 435.737610 680.087762 C447.915467 692.652948 454.884674 709.526483 469.367981 720.079523 C469.826721 720.413751 470.211243 721.102838 470.286316 721.671869 C471.195801 728.570794 477.203675 731.500177 481.244446 735.983514 C483.803955 738.823358 485.782288 742.194208 488.389405 744.982660 C497.900818 755.155328 504.812805 767.453668 515.634644 776.659906 C522.167053 782.217157 528.216614 788.382745 532.732605 796.383111 C536.992981 803.930658 544.701844 809.533746 550.906861 815.979547 C552.010742 817.126336 553.444092 818.042596 554.276856 819.350763 C564.017761 834.653680 576.713135 847.538873 588.570130 861.085748 C594.626831 868.005609 601.656861 874.063653 608.002808 880.743158 C614.301514 887.372857 620.085755 894.496393 626.465210 901.043390 C638.285279 913.173883 650.965882 924.522394 662.123902 937.219659 C668.512757 944.490045 675.369263 950.723565 684.317383 956.984308 M709.317383 661.984308 C705.778809 655.779107 702.517884 649.394525 698.647949 643.403375 C688.439881 627.600152 677.967469 611.967706 667.600281 596.267206 C662.416687 588.416986 657.324463 580.504083 652.006287 572.746148 C649.759278 569.468316 645.470398 568.786432 642.706238 566.657709 C640.476990 564.940912 642.035523 558.960748 640.118836 556.056634 C635.035218 548.354364 629.075440 541.216730 623.284790 533.998468 C617.037537 526.211053 610.464905 518.683099 604.278260 510.849298 C601.373596 507.171258 599.426392 502.704523 596.358643 499.195428 C591.800720 493.981561 585.700989 489.924798 581.912110 484.267511 C572.955994 470.894830 559.643250 461.621881 550.041077 448.913080 C547.809204 445.959161 543.133362 444.704523 541.279358 441.640924 C536.421753 433.614129 529.994934 427.405206 522.956482 421.352167 C514.685425 414.239129 507.359802 406.026727 499.624207 398.291131 C498.681641 397.348565 497.649353 396.479303 496.811035 395.451715 C491.128235 388.485834 485.852906 381.145563 479.743897 374.579400 C470.936035 365.112176 461.447266 356.281976 452.429474 347.004571 C449.309418 343.794671 447.316132 338.043390 443.771179 337.009851 C437.442383 335.164667 434.352967 330.353082 430.016907 326.656030 C420.830170 318.823175 414.326050 307.334405 400.809113 305.388116 C400.016785 305.274042 399.334534 304.093774 398.685181 303.337427 C393.798340 297.645440 387.927185 293.689630 380.740235 291.106592 C377.029450 289.772851 374.253845 285.987085 370.853577 283.596704 C367.544464 281.270318 364.082917 279.110010 360.503205 277.229028 C350.717835 272.087152 340.949250 266.448633 329.337677 271.964013 C321.856385 269.739282 316.237671 276.044031 309.050720 276.563775 C305.348145 276.831537 302.080872 283.118005 298.616883 286.684808 C300.692871 287.627099 303.162598 288.133050 304.775605 289.588434 C311.231781 295.413812 317.200379 301.571924 320.481446 310.032007 C321.906830 313.707269 324.995789 316.791528 327.565918 319.951654 C329.631317 322.491205 333.150696 324.397882 334.028717 327.208856 C335.037079 330.437189 334.962311 333.347803 339.178162 334.135797 C340.399567 334.364129 341.565033 336.270074 342.267304 337.654840 C345.055695 343.153436 347.262757 348.987726 350.466828 354.218927 C352.309510 357.227472 356.693878 358.847131 358.084564 361.927118 C360.453156 367.172845 364.509735 370.678308 368.053620 374.804681 C374.341309 382.125909 380.371308 389.669244 386.472351 397.149652 C392.154297 404.116205 397.760224 411.144830 403.450562 418.104425 C410.378327 426.577386 417.446228 434.937433 424.276886 443.487359 C427.221527 447.173273 429.594513 451.310846 432.451203 455.073053 C439.204438 463.966974 445.365448 473.462762 453.088776 481.433465 C465.909790 494.665155 477.022827 509.442499 490.846741 521.789483 C498.827759 528.917779 504.598267 538.710748 513.046326 545.068475 C520.263367 550.499811 524.483155 557.569940 529.597168 564.293085 C531.117798 566.292169 532.171387 568.705682 533.903992 570.473504 C539.737854 576.425836 548.449585 580.040399 549.339661 589.946771 C549.385437 590.456354 550.179016 590.958246 550.705933 591.355829 C557.046387 596.139032 560.704041 603.012079 564.825623 609.509942 C572.689148 621.907220 580.172852 634.559869 588.420777 646.694208 C594.680420 655.903497 601.898255 664.460016 608.645874 673.340326 C609.972534 675.086175 611.244202 676.904779 612.294373 678.824823 C620.624146 694.054559 630.777832 707.879571 643.274109 719.990167 C651.648682 728.106317 659.708985 736.546869 668.085633 744.660760 C671.062195 747.543878 674.882080 749.578302 677.747498 752.549432 C683.400330 758.410760 688.297547 765.031366 694.178162 770.633661 C699.781739 775.972101 702.180542 784.985345 711.496582 786.237054 C711.835633 786.282586 712.050476 787.279169 712.316834 787.835687 C716.484131 796.541559 724.189148 802.228815 730.439331 809.164361 C733.444275 812.498773 735.712769 816.588556 739.026123 819.536859 C751.408570 830.555108 765.358338 839.804925 776.094849 852.689569 C777.752259 854.678583 780.015015 856.150384 781.853699 858.004266 C784.198670 860.368707 786.497132 862.794671 788.631104 865.348443 C790.874512 868.033136 792.672791 871.115045 795.066956 873.643365 C800.295655 879.165094 806.035279 884.216546 811.097718 889.878961 C818.634888 898.309015 825.675904 907.180597 833.114197 915.701715 C836.356323 919.415826 840.762146 922.271173 843.393555 926.325250 C847.582886 932.779840 850.107239 940.341363 854.469605 946.650934 C860.373963 955.191095 863.379212 965.631036 871.744446 972.594171 C873.798462 974.303888 875.060669 977.136773 876.278687 979.651056 C884.453003 996.525323 894.674561 1012.168268 905.087586 1027.689386 C907.911194 1031.897882 909.339173 1031.853204 914.711365 1028.612970 C915.228516 1028.301202 915.928467 1027.911432 916.438416 1028.025934 C924.833740 1029.910821 932.388794 1023.933282 941.000550 1025.772516 C946.623047 1026.973565 950.338074 1023.167779 950.203919 1017.424127 C950.093262 1012.688531 948.787354 1007.993951 948.362915 1003.249811 C947.708313 995.933648 945.015808 991.628839 938.928162 987.416803 C936.950989 986.048761 935.734314 983.505670 934.349243 981.383111 C933.342163 979.839776 932.967224 977.775812 931.732117 976.506891 C923.652344 968.205621 920.808472 955.853448 910.580323 949.247247 C909.679383 940.759088 901.981201 937.501153 897.301697 931.912408 C895.695130 929.993585 893.263306 927.788263 893.243836 925.695001 C893.176148 918.429254 888.258667 913.694879 885.422730 907.841730 C882.691468 902.204523 879.098877 897.567682 874.685181 893.286188 C868.004700 886.805719 859.900940 881.509515 857.017090 871.794122 C856.153260 868.883966 854.640564 865.995111 852.792359 863.580804 C847.329834 856.444940 841.530030 849.568109 835.901917 842.557916 C830.445557 835.761651 828.823487 825.530511 818.466309 823.133233 C805.035584 805.702508 791.602661 788.273431 778.176514 770.839227 C776.039612 768.064508 773.919861 765.276239 771.814759 762.477289 C765.794129 754.472345 761.461975 745.300592 756.785340 736.652765 C747.882263 720.189752 734.583130 706.945611 725.828308 690.555169 C720.861328 681.256219 715.500733 672.167657 709.317383 661.984308 M316.317383 160.984308 C313.488007 157.488275 310.950959 153.693536 307.758271 150.568719 C303.368500 146.272241 298.154846 142.802179 293.875183 138.411676 C284.003815 128.284631 274.497986 117.801721 264.805542 107.499231 C262.994965 105.574685 260.977509 103.846460 259.104157 101.978860 C254.160950 97.050744 249.288910 92.050531 244.305298 87.163888 C238.970307 81.932687 234.539429 74.248514 224.993073 79.901269 C224.054199 80.457208 222.038636 80.364511 221.184418 79.709741 C213.951691 74.165780 205.868805 78.073923 198.549271 78.416681 C187.726364 78.923501 177.086731 82.384195 165.978897 80.170999 C164.347214 79.845895 161.121948 81.598260 160.529602 83.124902 C158.963181 87.162057 155.588532 88.111154 152.523636 87.784479 C147.725769 87.273080 145.152420 89.802453 142.503235 92.806695 C139.614014 96.083139 136.641556 98.244272 131.648361 98.287179 C127.953293 98.318902 122.447403 100.166879 121.006577 102.914422 C118.499329 107.695566 114.352356 109.272729 110.666870 112.049478 C104.508316 116.689523 97.167801 120.790704 93.230484 126.970117 C90.794159 130.793786 87.517670 132.886346 84.846482 135.933893 C83.658341 137.289361 80.721924 137.903589 80.500183 139.186334 C79.080902 147.396814 70.266220 154.373437 76.236946 163.890039 C76.837174 164.846734 76.469483 166.526727 76.291817 167.835901 C75.385819 174.511773 84.843628 179.952905 78.672959 187.324426 C78.616287 187.392175 80.101975 188.580408 80.676865 189.382226 C81.954697 191.164422 83.002411 193.117303 84.336960 194.852075 C89.118622 201.067773 88.855286 210.272424 96.254441 214.921380 C96.314133 222.163232 104.380081 224.378381 106.101654 230.679712 C107.152085 234.524408 108.405609 238.465997 110.408585 241.869287 C116.265473 251.820703 122.538346 261.527490 128.659333 271.323175 C133.127594 278.473962 139.107056 285.115655 141.699356 292.889184 C144.689453 301.855493 150.210556 307.149133 157.365235 312.410394 C163.176453 316.683740 169.415222 321.826654 168.303192 330.719354 C167.970734 333.377984 169.124146 333.886865 171.633011 334.073633 C179.389084 334.650873 185.369019 330.367120 191.944809 327.476159 C199.356446 324.217706 202.811569 315.855890 211.294464 313.764306 C217.846161 312.148950 219.705048 306.046777 220.293640 299.847009 C220.450470 298.195306 220.205658 296.507287 220.336487 294.851007 C220.948151 287.107232 221.954865 279.640405 228.813233 274.296960 C231.223847 272.418786 232.252289 268.794092 234.629883 266.840997 C242.415589 260.445398 248.032318 251.005853 259.487610 249.508111 C261.492340 249.245965 265.418762 247.501123 264.598877 242.886682 C264.363556 241.562250 268.387940 237.937524 268.988892 238.244653 C275.632935 241.639917 280.700775 237.411249 284.783844 234.129968 C293.445435 227.169153 301.982239 220.512170 312.234802 215.737817 C321.377747 211.480127 329.219239 209.403039 339.400574 213.503076 C348.674561 217.237726 359.119599 219.112543 369.539795 217.918634 C370.519654 217.806329 371.643280 216.939020 372.203308 216.093255 C372.451630 215.718286 371.664826 214.116693 370.993439 213.781213 C369.354035 212.961938 367.497834 212.046869 365.746887 212.081445 C360.832428 212.178522 357.270172 209.884393 353.927674 206.667383 C352.102661 204.910913 349.512024 203.854059 347.966034 201.922052 C343.879517 196.815210 338.972870 191.866235 336.698700 185.965631 C334.889038 181.270318 332.786957 177.402490 329.343079 173.998956 C325.312866 170.015985 321.324097 165.991052 316.317383 160.984308 M1034.317383 1146.984308 C1035.170166 1142.906427 1033.068238 1139.624200 1031.520020 1136.143609 C1029.017578 1130.517755 1026.389282 1124.916437 1024.377442 1119.109796 C1018.478638 1102.083673 1006.208985 1093.341852 989.166870 1092.008600 C980.069580 1091.296930 971.847046 1088.721490 965.304077 1081.993341 C963.934387 1080.584772 962.342713 1079.390924 960.984925 1077.972223 C952.499207 1069.105157 943.298950 1069.180841 933.824890 1076.052057 C930.862549 1078.200616 929.605286 1076.913873 928.329041 1074.508478 C927.909058 1073.717096 927.624817 1072.853692 927.278443 1072.023126 C926.958069 1072.890314 926.588684 1073.742975 926.326355 1074.627374 C925.445069 1077.597833 925.557129 1081.824640 923.579163 1083.342340 C914.918396 1089.988214 916.772156 1100.051813 914.387085 1108.668146 C911.900696 1117.650567 913.474671 1128.268732 903.414673 1134.023248 C902.569031 1134.506769 902.435242 1136.217950 901.948914 1137.349420 C900.261353 1141.275812 899.365174 1145.115777 893.003296 1144.303644 C888.093323 1143.676813 885.530640 1150.921930 888.597657 1155.234674 C890.626587 1158.087701 892.317871 1161.537530 895.047364 1163.462213 C900.841187 1167.547662 907.446289 1170.492364 909.695191 1178.171319 C909.994385 1179.192804 912.312256 1179.596734 913.665650 1180.340387 C923.859864 1185.942682 935.760865 1188.944513 942.768128 1199.416192 C942.933594 1199.663507 943.257202 1199.815973 943.526123 1199.981622 C963.234864 1212.124689 981.531494 1226.226861 999.841065 1240.326227 C1001.281372 1241.435357 1004.680664 1242.108575 1005.736206 1241.240777 C1010.092163 1237.659723 1015.908081 1233.967706 1017.234375 1229.213678 C1018.210938 1225.713556 1019.469849 1223.299737 1021.904419 1222.143365 C1027.832764 1219.327447 1034.610962 1218.232355 1038.969483 1212.508356 C1039.508057 1211.801080 1041.411743 1212.130792 1042.683472 1211.984918 C1052.527954 1210.855279 1054.856934 1206.696832 1050.822510 1197.483087 C1049.958008 1195.508844 1049.346802 1193.396783 1048.278687 1191.544122 C1045.641114 1186.968927 1041.826172 1182.836969 1044.204712 1176.793634 C1044.519776 1175.992975 1043.153198 1174.632745 1042.829102 1173.458917 C1041.918213 1170.158624 1041.408081 1166.725641 1040.256348 1163.518732 C1038.488892 1158.597589 1036.317383 1153.821832 1034.317383 1146.984308 M174.317383 342.984308 C176.945023 345.635614 178.183823 342.916650 179.704071 341.522241 C179.892365 341.349542 179.742478 340.363244 179.488922 340.222223 C176.849304 338.754541 174.156372 337.382745 171.478241 335.984308 C171.411026 336.637384 171.110565 337.381097 171.322205 337.925836 C171.866120 339.325708 172.637131 340.637384 174.317383 342.984308 M859.317383 827.984308 C858.436463 829.103387 857.107544 830.132135 856.856385 831.378107 C856.723389 832.037530 858.464966 833.074823 859.360230 833.941461 C860.555481 832.134088 864.246643 831.146722 859.317383 827.984308 M118.317383 360.984308 C118.722122 363.317651 119.103531 365.656061 119.608612 367.967492 C119.631089 368.070306 120.779312 367.927118 121.403168 367.898523 C120.932663 365.485193 120.478043 363.068536 119.968781 360.663415 C119.913590 360.402734 119.542130 360.209070 118.317383 360.984308 M231.317383 303.984308 C230.266419 303.217065 229.328125 300.777215 227.965424 303.465173 C227.524567 304.334680 228.088227 305.713464 228.192383 306.859308 C229.567383 306.234308 230.942383 305.609308 231.317383 303.984308 M246.317383 338.984308 C247.423096 339.211908 248.706818 339.894983 249.588898 339.550317 C250.659333 339.132043 251.390778 337.846246 252.268860 336.935785 C251.112641 336.618616 249.963928 336.096826 248.797669 336.054284 C247.983307 336.024591 247.145020 336.650995 246.317383 338.984308 M1038.317383 1002.984308 C1038.085572 1002.085870 1037.853760 1001.187433 1037.622071 1000.288995 C1037.187134 1000.568658 1036.412476 1000.811090 1036.377075 1001.134576 C1036.233521 1002.444757 1036.137085 1003.814020 1036.380493 1005.093683 C1036.544312 1005.954645 1037.306885 1006.701959 1037.801636 1007.500055 C1038.306885 1006.328180 1038.812134 1005.156183 1038.317383 1002.984308 M735.317383 669.984369 C734.267639 669.317682 733.282288 668.286859 732.150086 668.086603 C731.016602 667.886163 729.736450 668.515497 728.520569 668.781122 C729.517945 669.247247 730.474610 669.869012 731.522217 670.142999 C733.086975 670.552057 734.715821 670.716058 735.317383 669.984369 M200.317383 396.984308 C200.317383 396.005731 200.480133 394.988885 200.261750 394.061761 C200.109070 393.413507 199.435211 392.887933 198.994156 392.307550 C197.541916 393.540155 198.233353 397.029046 200.317383 396.984308 M136.317383 396.984247 C134.984055 396.993829 133.648636 396.979547 132.324539 397.095086 C132.268494 397.099969 132.268524 398.868707 132.324539 398.873590 C133.648651 398.989007 134.984055 398.974847 136.317383 396.984247 M868.317383 1130.984308 C867.615357 1130.282281 867.003052 1129.425958 866.173340 1128.943414 C865.760254 1128.703302 864.391480 1129.220148 864.398377 1129.273981 C864.595825 1130.818048 864.913330 1132.346979 865.211304 1133.878229 C865.913330 1133.246881 866.615357 1132.615655 868.317383 1130.984308 M1160.317383 1376.984308 C1160.969727 1376.331964 1161.622193 1375.679498 1162.274536 1375.027154 C1161.238037 1374.730279 1160.201538 1374.433404 1159.164917 1374.136651 C1159.215698 1375.419244 1159.266480 1376.701715 1160.317383 1376.984308 M137.317383 419.984308 C137.650727 418.552789 138.076309 417.133294 138.264282 415.682916 C138.325058 415.213983 137.762070 414.664178 137.484421 414.151361 C137.095398 414.820611 136.520844 415.449518 136.364350 416.169305 C136.168854 417.068536 136.317383 418.042596 137.317383 419.984308 M719.317383 625.984308 C719.650757 626.650995 719.984070 627.317621 720.317322 627.984308 C720.650696 627.317621 720.984009 626.650934 719.317383 625.984308 M955.317444 1005.984308 C955.592041 1004.925592 955.878357 1003.869195 956.085755 1002.797418 C956.092102 1002.764825 955.277710 1002.573297 954.846009 1002.455743 C954.669800 1003.298639 954.493592 1004.141412 955.317444 1005.984308 M710.317383 1028.984308 C709.258606 1028.709772 708.202149 1028.423395 707.130371 1028.215875 C707.097779 1028.209527 706.906189 1029.023981 706.788758 1029.455743 C707.631653 1029.631891 708.474488 1029.808160 710.317383 1028.984308 M458.317383 536.984308 C457.650696 537.317621 456.984040 537.650934 456.317383 537.984308 C456.984040 538.317682 457.650696 538.650995 458.317383 536.984308 M914.317383 1088.984308 C914.141175 1088.141412 913.964966 1087.298639 913.788758 1086.455865 C913.357056 1086.573297 912.542725 1086.764825 912.549011 1086.797418 C912.756531 1087.869073 913.042786 1088.925592 914.317383 1088.984308 M996.317383 1088.984430 C996.984131 1088.651056 997.650757 1088.317682 998.317383 1087.984430 C997.650635 1087.651056 996.984009 1087.317682 996.317383 1088.984430 M1017.317383 1095.984308 C1017.042725 1097.043023 1016.756226 1098.099420 1016.548828 1099.171197 C1016.542603 1099.203912 1017.357056 1099.395440 1017.788697 1099.512872 C1017.964966 1098.669977 1018.141114 1097.827203 1017.317383 1095.984308 M1043.317261 1281.984308 C1043.591919 1280.925592 1043.878296 1279.869195 1044.085938 1278.797296 C1044.092163 1278.764703 1043.277710 1278.573053 1042.846070 1278.455743 C1042.669800 1279.298639 1042.493653 1280.141412 1043.317261 1281.984308 M375.317353 223.984308 C375.650696 224.650995 375.984040 225.317651 376.317383 225.984308 C376.650727 225.317651 376.984070 224.650964 375.317353 223.984308 M1458.317383 1786.984308 C1458.141236 1786.141412 1457.964966 1785.298639 1457.788819 1784.455621 C1457.357056 1784.573053 1456.542603 1784.764703 1456.548828 1784.797418 C1456.756348 1785.869195 1457.042725 1786.925592 1458.317383 1786.984308 M6.317383 160.984308 C6.493580 161.827173 6.669781 162.670038 6.845970 163.512872 C7.277706 163.395410 8.092060 163.203851 8.085747 163.171258 C7.878227 162.099512 7.591980 161.043054 6.317383 160.984308 M1688.317383 1894.984308 C1688.493531 1895.827203 1688.669678 1896.669977 1688.845948 1897.512994 C1689.277710 1897.395563 1690.092163 1897.203912 1690.085694 1897.171197 C1689.878174 1896.099542 1689.592041 1895.043023 1688.317383 1894.984308 M518.317383 592.984308 C517.917420 592.717645 517.517395 592.450982 517.117310 592.184320 C517.184021 592.784295 517.250672 593.384332 518.317383 592.984308 M1011.317383 1091.984308 C1011.584107 1091.584283 1011.850708 1091.184381 1012.117432 1090.784357 C1011.517456 1090.851007 1010.917359 1090.917657 1011.317383 1091.984308 M442.317383 480.984308 C441.917359 480.717645 441.517365 480.450982 441.117340 480.184320 C441.184021 480.784295 441.250702 481.384332 442.317383 480.984308 M1746.317383 1612.984308 C1745.917359 1612.717584 1745.517456 1612.450982 1745.117310 1612.184259 C1745.183960 1612.784234 1745.250611 1613.384332 1746.317383 1612.984308 M440.317383 730.984308 C440.717377 731.250970 441.117401 731.517633 441.517365 731.784295 C441.450714 731.184320 441.384033 730.584283 440.317383 730.984308 z"/><path class="selected"  fill="#000000" opacity="1.000000" stroke="none" 
 	d="
M1459.817383 1811.484308 C1458.659302 1811.984308 1457.692383 1812.265069 1457.394654 1811.937555 C1455.798584 1810.181695 1454.369507 1808.274225 1452.882569 1806.419122 C1453.480591 1806.274225 1454.072998 1806.036554 1454.677613 1805.999689 C1458.195557 1805.785333 1460.061035 1807.485650 1459.817383 1811.484308 z"/></svg>