<?xml version="1.0" encoding="utf-8"?>
<!-- Generator: Adobe Illustrator 24.1.2, SVG Export Plug-In . SVG Version: 6.00 Build 0)  -->
<svg version="1.1" id="Lag_1" xmlns="http://www.w3.org/2000/svg" xmlns:xlink="http://www.w3.org/1999/xlink" x="0px" y="0px"
	 viewBox="0 0 841.9 595.3" style="enable-background:new 0 0 841.9 595.3;" xml:space="preserve">
<style type="text/css">
	.st0{fill:none;stroke:#000000;stroke-width:6;}
	.st1{enable-background:new    ;}
	.st2{fill:none;}
	.st3{font-family:'ArialMT';}
	.st4{font-size:12px;}
	.st5{fill:#FFFFFF;}
	.st6{font-family:'BaskOldFace';}
	.st7{font-size:2.8589px;}
</style>
<path d="M426.6,243.8c10.1,0,23.8-2.3,28-6.7c4.1-4.3-6.2-18.1-6.8-18.9c0,0,0,0,0-0.1c-0.4-0.8-7-14-8.9-18.3
	c-0.1-0.2-0.1-0.4,0-0.6l0.2-0.5c0.1-0.2,0.2-0.3,0.4-0.4c0.8-0.3,3-1.2,3.2-1.9c0.3-0.7-0.4-5-4.1-10.4c-0.5-0.7-1.4-1.1-2.2-0.8
	c-1.1,0.4-3.1,1.1-6.6,2.6c-0.1,0.1-0.2,0-0.4,0c-0.4-0.3-1.5-0.9-2.6,0.2c-0.1,0.1-0.3,0.4-0.4,0.5c-0.2,0.3-0.5,0.4-0.9,0.3
	c-0.4-0.2-1-0.4-1.4-0.3c-0.5,0.2-0.9,0.8-1.2,1.2c-0.2,0.3-0.5,0.4-0.8,0.3c-0.6-0.2-1.4-0.3-1.8,0c-0.5,0.4-0.9,1.3-1,1.7
	c0,0.1-0.1,0.2-0.2,0.3c-0.4,0.3-1.6,1.4-2,2.3c-0.4,1.1-0.4,2.9-0.9,4.5c0,0.1-0.1,0.3-0.2,0.3c-0.8,0.6-4.1,2.8-11.9,5.7l-0.5,0.2
	c0-0.6,0.2-1.2,0.6-1.6c0.3-0.4,0.6-1,0.3-1.5c-0.4-0.6-4.7-2-4.7-2l-0.1-0.5c-0.1-0.7-0.4-1.3-1-1.7c-1.7-1.4-6.1-4.5-11.1-4.1
	c-6.1,0.5-11.3,6.5-13.2,8.9c-0.5,0.7-0.9,1.4-1,2.2c-1,5.7,1.1,6.2,0.8,4.8c-0.1-0.7-1.6-0.3-2.2-0.1c-0.2,0.1-0.4,0.2-0.5,0.4
	l-0.4,1.1c-0.1,0.2-0.2,0.3-0.3,0.4c-0.8,0.4-3.4,2-3.9,5.5c-0.6,4.1,1.1,22.1,0,24.7c-1.1,2.6-7.8,10.3-8.9,10.9
	c-1.1,0.6-9.3,10-10.5,12.7s-3.6,3.4-4.1,10.4c-0.1,0.8,0.7,1.8,0.8,1.8c0.8,0.9,8.6,8.5,14,11.1c5.8,2.7,8.1,4,13,6
	c2.9,1.2,4.4,1.7,5.1,1.9c0.4,0.1,0.8,0.4,1.2,0.7l0,0c0.5,0.4,0.7,1,0.5,1.7c-0.2,0.9-0.6,1.6-0.7,1.8c-0.8,1.4-2.7,5.8-6,27.9
	c-3.2,21.5-7.6,32.5-8.9,35.5c-0.3,0.6-0.5,1.2-0.6,1.9c-0.2,1.1-0.6,3-1,4.3c-0.6,2-5.8,9.2-5.8,9.2s-9.5,11.9-7,49.3
	c0,0.2,0,0.3-0.1,0.4c-1,1.5-7.5,11.7-5.2,14.8c0.3,0.4,0.4,0.9,0.6,1.3c2.6,5.4,2.7,9.9,3.6,11.1c1.2,1.6,5.1,3.1,8.2,3
	c1.2-0.1,2.1-1.1,1.8-2.3c-0.1-0.4-0.8-2.6-1.2-3c-1.7-2.3-0.2-24-0.2-24s0.8-10.8,1.8-13.2c1-2.2,10.4-28.7,11.7-35
	c0.2-1.1,0.9-2.2,1.8-2.9c0.6-0.4,2.2-1.7,3-2.5c7.9-7.7,19.3-37.2,22.9-46.7c0.3-0.7,1.2-0.6,1.4,0.1c0.5,3,1.8,8.4,5.4,16.7
	c6.2,14.4,3.9,18,5,20.8c1.1,2.7,4.7,7.9,4.2,10.1c-0.5,2.3,0.8,14.7,2.3,18.5s6.8,22.7,8,27.7s1.1,9.5,0,10.9s-1.7,4.2-1.3,6.5
	c0.5,2.3,3,3.8,3.5,5c0.8,1.8,3.8,6.9,5.4,8.5c1.2,1.2,4.7,1.4,6.2,1.3c0.1,0,1.8-0.7,1.9-0.8c0.2-0.5,0.1-1.3-0.9-3.2
	c-1.4-2.4-4.8-12.4-5.5-16.8c-0.6-4.4-2.4-19.8-1.5-23.5c0.9-3.5-1.1-25.5-6-40.2c-0.2-0.7-0.3-1.5-0.3-2.2c0.1-1.8,0.1-5.4-0.8-8
	c-1.3-3.5-0.9-14.8-0.9-15.4c0,0,0,0,0-0.1c0.1-0.7,1.1-28.4-4.3-46.4c0-0.1-0.1-0.4-0.1-0.5c0.1-1.5,0.8-4.9,0-13.7
	c-0.8-8.7-3.6-17.6-1.7-19.8c0.1-0.1,0.1-0.1,0.2-0.1c1-0.2,6.1-3,6-8.2c-0.1-3.7-1.3-4.8-4.9-11.1
	C418.2,245.8,416.5,243.8,426.6,243.8z M371.4,216.1c0-0.2,0.2-0.3,0.3-0.4c0.6-0.3,1.9-1.1,2.2-0.5c4.4,11.4,4.8,8.9,5.9,10.2
	s6.2,0.4,7,1s-1.5,3.8-2.1,5s-7.7,5.1-8.9,4.1c-1.2-1.1-1.8-7-1.8-8.6c0-1.7-1.8-6.1-2.4-7.7C371,217.9,371.2,216.6,371.4,216.1z
	 M386.5,285.8c-0.6,1.9-2.4,3.2-3.3,3.9c-0.1,0.1-0.6,0.4-1.4,0.2c-9.6-3-12-6-16-8.3c-3.6-2.2-9.1-8.1-10.1-9.4
	c-0.1-0.1-0.1-0.3,0.1-0.4c3.9-3.3,9.1-8.5,11.1-11.1c0.4-0.5,0.5-1.1,0.6-0.5l0.2,1.2c0.1,0.3,0.3,0.5,0.5,0.6
	c0.5,0.1,1.3,0.4,1.4,1.1c0.1,1.1,0,1.8,0.8,1.8s0.4-0.4,0.8,1.6s0.2,2.4,1,1.7c0.8-0.8,1.1-0.9,1.1,1.5s0.3,1.4,1.1,1.4
	c0.8,0,0.3,2,0.6,3.3c0.3,1.4,1.6,5.7,1.8,4c0.2-1.7,1-3,0.8-4.5s0.9-2.3,1.2-3.6c0.2-0.7,0-1.1-0.2-1.4s-0.2-0.7,0-0.9l0.1-0.1
	c0.4-0.4,1.1-0.3,1.2,0.3c1.3,4.6,5.4,9,6.5,10.7C387.7,280.5,387.2,283.5,386.5,285.8z M409.9,229.6c-8.9,2.8-9.7-8.4-7.6-10.9
	s6.5-0.9,5.2-6.2c-0.3-1.1-0.9-1.6-0.7-2.3c0.6-2.1-1.2-0.4-1.2-0.4s11.5-4.8,12.6-5.1s3.9,2.3,6,2.1c1.1-0.1,3.6-0.9,6.1-2.9
	s7.8,11.2,8.2,13.9c0.3,2.4,2.2,10.1,3.3,12.9c0.2,0.5-0.1,0.9-0.6,1c-2.8,0.1-10.3,0.3-14.9-0.6C420.5,230,418.8,226.8,409.9,229.6
	z"/>
<path d="M394.3,206.5"/>
<rect x="277.5" y="146" class="st0" width="236.4" height="360"/>
<g>
	<g class="st1">
		<path d="M290.8,469.3h5.1c3.3,0,5.7,0.4,7.3,1.3c1.6,0.8,2.9,2.2,3.9,4.1c1,1.9,1.5,4.1,1.5,6.7c0,1.8-0.3,3.5-0.9,5
			s-1.4,2.8-2.4,3.8c-1,1-2.1,1.7-3.3,2.1s-3.2,0.6-6.1,0.6h-5.1V469.3z M295.1,473.6v14.8h2c2,0,3.4-0.2,4.3-0.7
			c0.9-0.5,1.6-1.3,2.2-2.4c0.6-1.1,0.8-2.5,0.8-4.1c0-2.5-0.7-4.4-2-5.8c-1.2-1.2-3.1-1.8-5.8-1.8H295.1z"/>
		<path d="M328.9,485.3h-13.4c0.2,1.2,0.7,2.2,1.6,2.9c0.8,0.7,1.9,1.1,3.2,1.1c1.6,0,2.9-0.6,4-1.7l3.5,1.7
			c-0.9,1.3-1.9,2.3-3.1,2.9c-1.2,0.6-2.7,0.9-4.4,0.9c-2.6,0-4.7-0.9-6.4-2.6s-2.5-3.9-2.5-6.4c0-2.6,0.8-4.8,2.5-6.6
			c1.6-1.7,3.7-2.6,6.1-2.6c2.6,0,4.7,0.9,6.4,2.6c1.6,1.7,2.5,4,2.5,6.9L328.9,485.3z M324.7,481.9c-0.3-1-0.8-1.8-1.6-2.4
			s-1.8-0.9-2.8-0.9c-1.2,0-2.2,0.3-3.1,1c-0.6,0.4-1.1,1.2-1.5,2.2H324.7z"/>
		<path d="M332.2,475.4h4.2v17.9c0,1.6-0.2,2.9-0.5,3.7s-0.8,1.4-1.5,1.9s-1.5,0.7-2.4,0.7c-0.8,0-1.9-0.2-3.1-0.7v-3.4
			c0.7,0.3,1.2,0.5,1.7,0.5c0.5,0,0.9-0.2,1.2-0.5c0.3-0.3,0.4-0.9,0.4-1.8V475.4z M334.2,468.3c0.7,0,1.4,0.3,1.9,0.8
			s0.8,1.2,0.8,2c0,0.8-0.3,1.4-0.8,2c-0.5,0.5-1.1,0.8-1.9,0.8c-0.7,0-1.4-0.3-1.9-0.8c-0.5-0.6-0.8-1.2-0.8-2c0-0.8,0.3-1.4,0.8-2
			C332.9,468.5,333.5,468.3,334.2,468.3z"/>
		<path d="M340,468.7h4.2v24H340V468.7z"/>
		<path d="M349.5,468.3c0.7,0,1.4,0.3,1.9,0.8c0.5,0.6,0.8,1.2,0.8,2c0,0.8-0.3,1.4-0.8,2c-0.5,0.5-1.1,0.8-1.9,0.8
			c-0.7,0-1.4-0.3-1.9-0.8s-0.8-1.2-0.8-2c0-0.8,0.3-1.4,0.8-2C348.2,468.5,348.8,468.3,349.5,468.3z M347.4,475.4h4.2v17.3h-4.2
			V475.4z"/>
		<path d="M367.7,475.4h4.2v14.8c0,2.9-0.6,5.1-1.7,6.5c-1.5,1.9-3.8,2.8-6.9,2.8c-1.6,0-3-0.2-4.1-0.6c-1.1-0.4-2-1-2.8-1.9
			s-1.3-1.8-1.7-3h4.6c0.4,0.5,0.9,0.9,1.6,1.1c0.6,0.3,1.4,0.4,2.3,0.4c1.1,0,2-0.2,2.7-0.5c0.7-0.4,1.2-0.8,1.4-1.4
			c0.3-0.6,0.4-1.6,0.4-3c-0.7,0.8-1.5,1.3-2.3,1.6s-1.7,0.5-2.7,0.5c-2.2,0-4.1-0.8-5.7-2.5c-1.5-1.7-2.3-3.8-2.3-6.4
			c0-2.7,0.8-5,2.4-6.6c1.5-1.5,3.2-2.3,5.3-2.3c1,0,1.9,0.2,2.7,0.5c0.9,0.4,1.7,1,2.6,1.8V475.4z M363.4,479
			c-1.3,0-2.4,0.5-3.3,1.4c-0.9,0.9-1.3,2.1-1.3,3.5c0,1.4,0.4,2.6,1.3,3.5c0.9,0.9,2,1.4,3.3,1.4c1.3,0,2.4-0.5,3.2-1.4
			c0.8-0.9,1.3-2.1,1.3-3.5c0-1.4-0.4-2.6-1.3-3.5S364.7,479,363.4,479z"/>
		<path d="M392.7,485.3h-13.4c0.2,1.2,0.7,2.2,1.6,2.9c0.8,0.7,1.9,1.1,3.2,1.1c1.6,0,2.9-0.6,4-1.7l3.5,1.7
			c-0.9,1.3-1.9,2.3-3.1,2.9c-1.2,0.6-2.7,0.9-4.4,0.9c-2.6,0-4.7-0.9-6.4-2.6s-2.5-3.9-2.5-6.4c0-2.6,0.8-4.8,2.5-6.6
			c1.6-1.7,3.7-2.6,6.1-2.6c2.6,0,4.7,0.9,6.4,2.6c1.6,1.7,2.5,4,2.5,6.9L392.7,485.3z M388.5,481.9c-0.3-1-0.8-1.8-1.6-2.4
			s-1.8-0.9-2.8-0.9c-1.2,0-2.2,0.3-3.1,1c-0.6,0.4-1.1,1.2-1.5,2.2H388.5z"/>
		<path d="M405.3,469.3h5.1c3.3,0,5.7,0.4,7.3,1.3c1.6,0.8,2.9,2.2,3.9,4.1c1,1.9,1.5,4.1,1.5,6.7c0,1.8-0.3,3.5-0.9,5
			c-0.6,1.5-1.4,2.8-2.4,3.8c-1,1-2.1,1.7-3.3,2.1s-3.2,0.6-6.1,0.6h-5.1V469.3z M409.5,473.6v14.8h2c2,0,3.4-0.2,4.3-0.7
			c0.9-0.5,1.6-1.3,2.2-2.4c0.6-1.1,0.8-2.5,0.8-4.1c0-2.5-0.7-4.4-2-5.8c-1.2-1.2-3.1-1.8-5.8-1.8H409.5z"/>
		<path d="M439,475.4h4.2v17.3H439v-1.8c-0.8,0.8-1.6,1.4-2.4,1.7c-0.8,0.4-1.7,0.5-2.7,0.5c-2.1,0-4-0.9-5.6-2.6
			c-1.6-1.7-2.3-3.9-2.3-6.5c0-2.7,0.8-4.9,2.3-6.6c1.5-1.7,3.4-2.6,5.5-2.6c1,0,1.9,0.2,2.8,0.6c0.9,0.4,1.7,1,2.4,1.8V475.4z
			 M434.6,479c-1.3,0-2.4,0.5-3.2,1.4c-0.9,0.9-1.3,2.2-1.3,3.7c0,1.5,0.4,2.7,1.3,3.7c0.9,1,1.9,1.4,3.2,1.4c1.3,0,2.4-0.5,3.3-1.4
			c0.9-0.9,1.3-2.2,1.3-3.7c0-1.5-0.4-2.7-1.3-3.7C437,479.4,435.9,479,434.6,479z"/>
		<path d="M447.3,475.4h4.2v2c0.7-0.8,1.5-1.4,2.4-1.8c0.9-0.4,1.8-0.6,2.9-0.6c1,0,2,0.3,2.8,0.8c0.8,0.5,1.5,1.3,2,2.3
			c0.7-1,1.5-1.8,2.4-2.3s2-0.8,3.2-0.8c1.2,0,2.2,0.3,3.1,0.9c0.9,0.6,1.5,1.3,1.9,2.2s0.6,2.4,0.6,4.5v10.2h-4.2v-8.8
			c0-2-0.2-3.3-0.7-4c-0.5-0.7-1.2-1-2.1-1c-0.7,0-1.4,0.2-1.9,0.6c-0.6,0.4-1,1-1.3,1.8c-0.3,0.7-0.4,1.9-0.4,3.6v7.8H458v-8.4
			c0-1.5-0.1-2.7-0.3-3.4c-0.2-0.7-0.5-1.2-1-1.6s-1-0.5-1.6-0.5c-0.7,0-1.3,0.2-1.9,0.6c-0.6,0.4-1,1-1.3,1.8
			c-0.3,0.8-0.4,2-0.4,3.7v7.7h-4.2V475.4z"/>
		<path d="M493.4,485.3H480c0.2,1.2,0.7,2.2,1.6,2.9c0.8,0.7,1.9,1.1,3.2,1.1c1.6,0,2.9-0.6,4-1.7l3.5,1.7c-0.9,1.3-1.9,2.3-3.1,2.9
			s-2.7,0.9-4.4,0.9c-2.6,0-4.7-0.9-6.4-2.6c-1.6-1.7-2.5-3.9-2.5-6.4c0-2.6,0.8-4.8,2.5-6.6c1.6-1.7,3.7-2.6,6.1-2.6
			c2.6,0,4.7,0.9,6.4,2.6c1.6,1.7,2.5,4,2.5,6.9L493.4,485.3z M489.3,481.9c-0.3-1-0.8-1.8-1.6-2.4s-1.8-0.9-2.8-0.9
			c-1.2,0-2.2,0.3-3.1,1c-0.6,0.4-1.1,1.2-1.5,2.2H489.3z"/>
		<path d="M495.8,475.4h3.6v2.2c0.4-0.9,0.9-1.5,1.5-2c0.6-0.4,1.3-0.7,2.1-0.7c0.5,0,1.1,0.1,1.7,0.4l-1.3,3.7
			c-0.5-0.3-0.9-0.4-1.2-0.4c-0.6,0-1.2,0.4-1.6,1.2c-0.4,0.8-0.7,2.4-0.7,4.9l0,0.8v7h-4.1V475.4z"/>
	</g>
</g>
<g class="st1">
	<path d="M328.8,157.1h5.4c2.9,0,5,0.2,6.3,0.7c1.2,0.5,2.2,1.2,3,2.3c0.8,1.1,1.1,2.3,1.1,3.8c0,1.5-0.4,2.8-1.3,3.9
		c-0.8,1-2.1,1.8-3.8,2.3l6.3,10.4h-5.5l-6-9.9h-0.5v9.9h-5.1V157.1z M333.9,166.2h1.6c1.6,0,2.7-0.2,3.3-0.6c0.6-0.4,0.9-1,0.9-1.9
		c0-0.5-0.2-1-0.5-1.3c-0.3-0.4-0.7-0.6-1.2-0.8s-1.4-0.2-2.8-0.2h-1.4V166.2z"/>
	<path d="M347.7,184.7l11.9-28.2h3.5l-12,28.2H347.7z"/>
	<path d="M380.9,160.3l-3.8,2.9c-1.3-1.6-2.7-2.4-4-2.4c-0.7,0-1.2,0.2-1.6,0.5s-0.6,0.7-0.6,1.1c0,0.4,0.2,0.8,0.5,1.1
		c0.4,0.5,1.6,1.5,3.7,3c1.9,1.4,3.1,2.3,3.5,2.7c1,0.9,1.8,1.8,2.2,2.6c0.4,0.8,0.6,1.7,0.6,2.7c0,1.9-0.8,3.5-2.3,4.8
		s-3.5,1.9-5.9,1.9c-1.9,0-3.5-0.4-5-1.2c-1.4-0.8-2.6-2.1-3.6-3.9l4.3-2.3c1.3,2.1,2.8,3.1,4.4,3.1c0.9,0,1.6-0.2,2.2-0.7
		c0.6-0.4,0.9-1,0.9-1.5c0-0.5-0.2-1.1-0.7-1.6s-1.4-1.3-3-2.4c-2.9-2.1-4.8-3.7-5.6-4.8c-0.8-1.1-1.3-2.3-1.3-3.4
		c0-1.6,0.7-3,2.1-4.2c1.4-1.2,3.1-1.7,5.2-1.7c1.3,0,2.6,0.3,3.8,0.8C378.2,157.8,379.5,158.8,380.9,160.3z"/>
	<path d="M386.4,169.8h9.2v4h-9.2V169.8z"/>
	<path d="M402.1,157.1h5.4c2.9,0,5,0.2,6.3,0.7c1.2,0.5,2.2,1.2,3,2.3c0.8,1.1,1.1,2.3,1.1,3.8c0,1.5-0.4,2.8-1.3,3.9
		c-0.8,1-2.1,1.8-3.8,2.3l6.3,10.4h-5.5l-6-9.9h-0.5v9.9h-5.1V157.1z M407.2,166.2h1.6c1.6,0,2.7-0.2,3.3-0.6c0.6-0.4,0.9-1,0.9-1.9
		c0-0.5-0.2-1-0.5-1.3c-0.3-0.4-0.7-0.6-1.2-0.8s-1.4-0.2-2.8-0.2h-1.4V166.2z"/>
	<path d="M423.3,157.1h14.5v4.4h-9.5v4.2h9.5v4.3h-9.5v6.2h9.5v4.4h-14.5V157.1z"/>
	<path d="M442.5,157.1h5.4c2.9,0,5,0.2,6.3,0.7c1.3,0.5,2.3,1.2,3,2.3c0.7,1.1,1.1,2.3,1.1,3.8c0,1.6-0.5,3-1.5,4.1
		c-1,1.1-2.3,1.8-4,2.3c-1,0.2-2.8,0.4-5.3,0.4v9.9h-5.1V157.1z M447.6,166.2h1.6c1.3,0,2.1-0.1,2.6-0.2c0.5-0.2,0.9-0.4,1.2-0.8
		c0.3-0.4,0.4-0.8,0.4-1.3c0-0.9-0.4-1.6-1.2-2c-0.6-0.3-1.7-0.5-3.2-0.5h-1.4V166.2z"/>
</g>
<path id="SVGID_x5F_1_x5F_" class="st2" d="M431.8,169.9c8.8-3.7,20,2.8,25,14.6s1.9,24.4-6.9,28.1c-8.8,3.7-20-2.8-25-14.6
	S423,173.7,431.8,169.9z"/>
<text transform="matrix(0.7376 -0.6753 0.6753 0.7376 426.8041 173.4701)" class="st3 st4"> </text>
<text transform="matrix(0.8533 -0.5213 0.5213 0.8533 429.3089 171.2664)" class="st5 st6 st7">B</text>
<text transform="matrix(1 0 0 1 0 -2.538289e-05)" class="st3 st4"> </text>
<g class="st1">
	<path d="M292.2,298.6h13.6v49.6h-9v-40.7h-9.8L292.2,298.6z"/>
	<path d="M336.3,349.4l-7.7-4l8.3-16.9c-4,0-7.5-1.5-10.3-4.5c-2.8-3-4.2-6.7-4.2-11.2c0-4.3,1.4-8,4.4-11c2.9-3,6.4-4.5,10.5-4.5
		c4.3,0,7.9,1.6,10.7,4.7c2.9,3.1,4.3,6.7,4.3,10.7c0,1.5-0.2,3.1-0.7,4.6c-0.4,1.5-1.5,3.9-3.1,7.1L336.3,349.4z M337.4,319.6
		c1.7,0,3.1-0.6,4.2-1.9c1.1-1.3,1.7-2.9,1.7-4.7c0-1.9-0.6-3.5-1.8-4.8c-1.2-1.3-2.6-1.9-4.2-1.9c-1.7,0-3.1,0.6-4.3,1.9
		c-1.2,1.3-1.8,2.9-1.8,4.8c0,1.9,0.6,3.5,1.8,4.8S335.6,319.6,337.4,319.6z"/>
</g>
<g class="st1">
	<path d="M443.2,314.6h-8.8c0.2-5.3,1.8-9.6,4.8-12.6c3-3.1,6.8-4.6,11.5-4.6c2.9,0,5.4,0.6,7.6,1.9c2.2,1.3,4,3.1,5.3,5.5
		c1.3,2.4,2,4.8,2,7.3c0,2.9-0.8,6.1-2.4,9.5s-4.5,7.4-8.8,12l-5.3,5.9h17v8.7h-33v-4.5l14.7-15.6c3.6-3.8,5.9-6.8,7.1-9
		c1.2-2.3,1.8-4.3,1.8-6.2c0-1.9-0.6-3.5-1.8-4.7c-1.2-1.2-2.8-1.9-4.7-1.9c-1.9,0-3.6,0.8-4.9,2.3C444,309.9,443.3,312,443.2,314.6
		z"/>
	<path d="M487.1,297.3c3.5,0,6.5,0.9,9,2.7s4.5,4.5,5.8,8.1c1.4,3.7,2.1,8.7,2.1,15.2c0,6.6-0.7,11.7-2.1,15.4
		c-1.4,3.7-3.3,6.4-5.6,8.1c-2.4,1.7-5.3,2.6-8.9,2.6s-6.6-0.9-9-2.6c-2.4-1.7-4.3-4.4-5.7-7.9c-1.4-3.5-2.1-8.5-2.1-15.1
		c0-9.1,1.3-15.7,4-19.8C477.6,299.6,481.8,297.3,487.1,297.3z M487.3,306.3c-1.5,0-2.9,0.5-4.1,1.5s-2.1,2.8-2.7,5.3
		c-0.6,2.5-0.9,6.1-0.9,10.9c0,6.3,0.7,10.6,2.1,13c1.4,2.4,3.3,3.6,5.6,3.6c2.2,0,3.9-1.1,5.2-3.4c1.6-2.7,2.4-7.3,2.4-13.7
		c0-6.5-0.7-11-2.1-13.5S489.6,306.3,487.3,306.3z"/>
</g>
</svg>
