<?xml version="1.0" encoding="utf-8"?><!DOCTYPE svg PUBLIC "-//W3C//DTD SVG 1.1//EN" "http://www.w3.org/Graphics/SVG/1.1/DTD/svg11.dtd"><svg version="1.1" id="Contours" xmlns="http://www.w3.org/2000/svg" xmlns:xlink="http://www.w3.org/1999/xlink" x="0px" y="0px" width="1994.445801px" height="1994.445801px" viewBox="-0.000001 0.000001 1994.445801 943.194946" enable-background="new 0 0 1994.445801 1994.445801" xml:space="preserve" stroke="black" fill="none" stroke-linecap='round' stroke-linejoin='round'><path class="selected"  fill="#000000" opacity="1.000000" stroke="none" 
 	d="
M1063.810686 722.947341 C1074.992082 723.769668 1078.911149 731.468398 1081.806657 740.183608 C1084.824846 749.267653 1087.855729 758.347854 1090.798967 767.456252 C1094.267351 778.190139 1096.980241 789.225722 1101.241472 799.630629 C1106.141862 811.596389 1112.588884 822.919570 1117.940935 834.713881 C1120.415300 840.166762 1121.790788 846.110305 1123.867570 851.756667 C1124.500627 853.477370 1125.772722 854.974929 1126.826921 856.523757 C1127.342912 857.281936 1128.030168 857.923659 1128.640031 858.617995 C1129.030168 857.612990 1129.865007 856.543044 1129.729265 855.615066 C1129.277482 852.526565 1128.453020 849.494094 1127.815202 846.431167 C1125.873918 837.110183 1130.764299 829.688491 1140.400651 829.146071 C1147.243547 828.760878 1151.039934 825.249892 1153.749284 819.944961 C1158.095476 811.434585 1161.811662 802.599868 1166.230974 794.130080 C1170.392717 786.153884 1175.374406 778.605117 1179.529436 770.625686 C1184.227434 761.603591 1188.185930 752.195876 1192.899553 743.182570 C1195.428728 738.346145 1197.736467 733.621474 1199.219743 728.267287 C1201.482561 720.100234 1209.079973 718.327224 1216.214372 717.030410 C1225.908464 715.268203 1233.422502 720.284133 1240.395769 726.092605 C1245.288835 730.168410 1244.364519 736.453322 1245.805314 741.828505 C1247.494890 748.131606 1248.086198 755.019484 1251.109758 760.592544 C1254.101213 766.106337 1252.593522 771.852065 1254.565202 777.356337 C1257.804216 786.398024 1259.067155 796.128859 1261.938005 805.327346 C1264.315446 812.945144 1268.067277 820.123061 1270.742937 827.661635 C1273.790910 836.249221 1275.904680 845.181533 1279.185075 853.670119 C1282.956071 863.427810 1287.618303 872.838210 1291.778215 882.449294 C1293.918107 887.393386 1295.769670 892.461623 1297.844743 897.434890 C1298.233659 898.366897 1299.064226 899.114577 1299.690935 899.947341 C1300.458391 899.053054 1301.522478 898.273024 1301.922014 897.236892 C1302.478654 895.792800 1302.819963 894.145583 1302.758195 892.605300 C1302.569597 887.904616 1302.065080 883.217238 1301.825334 878.517531 C1301.117204 864.629958 1300.983293 850.690871 1299.672014 836.862380 C1298.291032 822.299636 1295.636491 807.862319 1293.877214 793.329116 C1292.846574 784.816543 1292.850847 776.171523 1291.662858 767.687880 C1291.009050 763.018813 1288.610002 758.622024 1287.427507 753.992690 C1285.687150 747.179030 1284.121354 740.305251 1282.867082 733.387099 C1281.507585 725.887404 1287.766496 719.633803 1295.344987 717.976760 C1305.327653 715.793837 1317.433488 722.068007 1322.509538 730.990676 C1326.698015 738.353591 1326.445207 746.491591 1327.691789 754.327651 C1329.644182 766.600722 1329.356462 779.135878 1332.473039 791.345351 C1333.949968 797.130935 1333.336809 803.434157 1333.828386 809.490066 C1335.109270 825.274428 1336.360246 841.062941 1337.862932 856.826857 C1338.557023 864.107985 1339.874650 871.327956 1340.780778 878.591628 C1341.166154 881.680861 1342.337907 883.784865 1345.720354 882.473952 C1357.080583 878.071364 1368.546647 874.499709 1380.738786 872.727492 C1392.675065 870.992263 1404.480852 868.301589 1416.605974 869.040603 C1422.434221 869.395705 1428.199235 870.758986 1434.000749 871.612380 C1434.880144 871.741774 1435.802263 871.580275 1436.704606 871.553298 C1436.657487 870.768996 1436.665666 869.976516 1436.554460 869.201247 C1435.652482 862.912795 1434.751237 856.624221 1433.805070 850.342238 C1432.506486 841.719924 1431.069108 833.117141 1429.881486 824.479812 C1429.029680 818.285170 1428.888200 811.971328 1427.714006 805.847915 C1426.100725 797.436049 1424.175065 789.041518 1421.652482 780.865066 C1420.443010 776.944472 1417.767717 774.084121 1412.474016 773.721511 C1405.434343 773.239333 1400.458024 768.306472 1397.964860 761.970839 C1395.615251 756.000319 1396.226945 750.142959 1400.564714 744.454604 C1406.867814 736.188735 1416.068986 733.375075 1425.044694 731.240737 C1435.863542 728.668044 1447.200090 727.202285 1458.316423 727.179397 C1479.284807 727.136123 1500.029558 730.255874 1518.821672 740.147963 C1529.050187 745.532363 1538.355607 752.752395 1547.743181 759.602309 C1550.587907 761.677932 1552.556291 765.133742 1554.496599 768.226821 C1557.292131 772.683547 1557.877824 776.880141 1553.977556 781.649001 C1550.820817 785.508803 1549.369768 790.718276 1546.698137 795.042434 C1545.646257 796.744887 1543.395036 797.765212 1541.573991 798.912063 C1540.431047 799.631850 1539.072526 800.009231 1537.810686 800.540236 C1538.829729 801.675979 1539.648820 803.150771 1540.901994 803.889419 C1546.777360 807.352981 1552.921281 810.377273 1558.686296 814.007827 C1565.735124 818.447036 1572.381242 823.531997 1579.489274 827.865554 C1580.968645 828.767470 1584.732805 828.436965 1585.693498 827.253371 C1590.745988 821.028884 1598.364519 821.104079 1604.936540 819.191176 C1610.771867 817.492629 1614.792741 814.789321 1615.836198 808.590041 C1616.354997 805.508193 1616.876604 802.382094 1617.865739 799.433242 C1620.021379 793.007277 1624.073625 786.763442 1624.403581 780.294814 C1624.809221 772.344191 1630.761125 766.516799 1630.199968 758.190322 C1629.792863 752.148757 1633.002580 745.869582 1634.548112 739.683547 C1634.780046 738.754775 1635.111223 737.573012 1634.749406 736.818374 C1632.195695 731.492019 1635.225603 727.925246 1638.102922 723.944167 C1639.653215 721.798964 1640.542253 718.777785 1640.681535 716.097426 C1640.936540 711.193252 1643.403703 708.290481 1647.331926 705.862868 C1658.460100 698.985976 1668.794816 701.446914 1677.081682 710.287551 C1685.308000 719.063430 1694.397355 716.755202 1703.798234 716.440017 C1704.565690 716.414321 1705.321550 715.981521 1706.087053 715.967238 C1725.280656 715.608535 1744.493303 714.637404 1763.662370 715.183547 C1775.548845 715.522292 1786.981584 719.311355 1796.867937 726.524306 C1800.976945 729.522231 1802.798112 735.462295 1799.602434 738.766799 C1797.317399 741.129653 1793.195573 742.217910 1789.714738 742.791335 C1785.658342 743.459609 1781.387712 742.691909 1777.246110 743.012465 C1772.168107 743.405593 1767.142839 744.503859 1762.064104 744.855971 C1759.404924 745.040297 1756.641252 743.811782 1753.992204 744.031875 C1744.555559 744.815688 1735.151262 745.978042 1725.728532 746.937270 C1718.676896 747.655044 1711.602800 748.169265 1704.565446 749.000503 C1701.637224 749.346389 1698.806779 750.614699 1695.880998 750.862136 C1692.285051 751.166152 1692.317155 753.348891 1693.069597 755.644790 C1698.165544 771.191970 1703.569353 786.640883 1708.451188 802.253615 C1709.645402 806.072158 1710.001604 809.969191 1715.029558 809.891433 C1719.895280 809.816176 1724.777360 809.478530 1729.609636 808.899795 C1736.384294 808.088454 1743.158586 807.152114 1749.856950 805.871474 C1753.941423 805.090529 1757.873674 802.627883 1761.890764 802.588149 C1767.942888 802.528274 1774.421037 802.866530 1779.950700 805.012954 C1785.198503 807.049819 1785.150651 820.223586 1781.259416 825.125564 C1776.063615 831.670852 1768.360490 832.952468 1761.232805 834.754897 C1750.414812 837.490615 1739.289445 839.045058 1728.259416 840.890090 C1724.776872 841.472732 1723.220964 843.780776 1724.503557 847.165358 C1728.325334 857.250075 1731.691179 867.527297 1735.961076 877.415847 C1738.956437 884.352858 1743.134172 890.779982 1746.807145 897.422194 C1747.038713 897.841140 1747.559099 898.099074 1747.796281 898.516433 C1749.195939 900.979445 1750.136613 905.181472 1751.997697 905.631545 C1757.988542 907.080153 1764.475358 908.299148 1770.468156 907.455520 C1777.867814 906.413894 1785.009782 903.347732 1792.166643 900.877395 C1794.764787 899.980544 1796.957536 897.897780 1799.559709 897.025588 C1805.284318 895.106765 1811.078752 893.244338 1816.986101 892.072951 C1821.152604 891.247024 1823.821306 889.840285 1823.813859 885.247268 C1823.801774 877.747756 1823.908220 870.245681 1823.724626 862.750686 C1823.689958 861.332961 1822.885026 859.573928 1821.847185 858.598098 C1814.212419 851.418654 1805.668229 845.043044 1798.938737 837.116836 C1793.849626 831.122573 1788.451677 825.067458 1787.459367 815.873427 C1786.199235 804.199233 1793.763322 799.616836 1801.039934 794.385329 C1804.762102 791.709365 1809.286760 790.177077 1813.315568 787.893203 C1819.053605 784.640395 1821.316423 779.011245 1819.755632 771.205642 C1818.350236 764.177566 1816.741716 757.165847 1814.737443 750.288405 C1812.667619 743.186660 1810.453142 736.060012 1807.461931 729.316848 C1805.380632 724.624709 1803.204484 720.050490 1806.721086 715.750197 C1811.106096 710.388076 1817.075456 707.541518 1824.314226 708.988418 C1827.509660 709.627089 1830.780046 710.260146 1833.768327 711.495925 C1843.029191 715.326064 1849.120622 721.766555 1850.898454 732.109206 C1852.406267 740.882216 1852.105729 750.041762 1856.460466 758.297194 C1857.426652 760.128982 1856.357805 762.940688 1856.963029 765.094130 C1857.289323 766.255568 1859.978654 767.967849 1860.241350 767.754714 C1866.923845 762.333510 1875.577897 762.820388 1883.052629 759.919631 C1897.408220 754.348586 1911.748063 748.730117 1925.989030 742.874831 C1930.117448 741.177443 1933.659685 737.662490 1937.872087 736.648024 C1945.018205 734.927077 1951.867692 737.097670 1957.808977 741.496657 C1960.276262 743.323623 1962.446916 745.545607 1964.850847 747.464553 C1973.775407 754.588393 1968.738298 764.695205 1961.312395 768.696486 C1954.758317 772.227981 1947.192766 774.401076 1939.813493 775.756484 C1929.637224 777.625625 1919.820939 780.324050 1910.195451 784.020827 C1896.389299 789.323317 1882.755144 795.342788 1868.545061 799.209731 C1861.612810 801.096084 1861.648942 804.291884 1861.760515 809.428298 C1861.945329 817.923781 1862.215104 826.451430 1861.687150 834.918044 C1861.235979 842.151076 1865.302019 845.904738 1870.575578 849.204909 C1885.661394 858.645339 1900.699724 868.163527 1915.872575 877.462478 C1929.939836 886.084060 1944.117570 894.527785 1958.321916 902.922805 C1967.005266 908.055129 1975.849992 912.913894 1984.585588 917.959060 C1990.504045 921.377150 1993.398576 927.342238 1994.373674 933.390822 C1995.098283 937.885329 1990.220231 940.425368 1986.140642 941.898024 C1979.143571 944.423537 1971.979997 942.954177 1965.754167 940.117141 C1951.433610 933.591140 1937.357438 926.448073 1923.579240 918.836623 C1910.636979 911.686843 1898.222673 903.584060 1885.539689 895.960891 C1879.813859 892.519484 1874.085954 889.063674 1868.196062 885.919265 C1864.254045 883.814773 1862.651994 884.771926 1862.865129 889.028029 C1863.360979 898.926467 1864.018449 908.821608 1864.878435 918.694655 C1865.183000 922.193557 1863.502946 924.092238 1861.032731 925.979934 C1857.316667 928.819655 1853.920061 932.756911 1848.604753 930.876418 C1842.661394 928.774001 1836.903215 926.144484 1831.090227 923.682937 C1830.521257 923.441970 1830.185930 922.701003 1829.654558 922.311110 C1826.366472 919.897170 1823.875993 917.336501 1819.986467 922.732741 C1817.444963 926.258864 1812.019548 927.883864 1807.668352 929.888625 C1799.979387 933.431350 1792.197404 936.802443 1784.303361 939.855056 C1781.129899 941.082107 1777.573503 941.745437 1774.165300 941.855788 C1765.617570 942.132644 1756.993791 942.572585 1748.517961 941.744460 C1742.037248 941.111281 1735.340104 941.635817 1729.034929 938.167800 C1724.545671 935.698684 1718.477678 936.123366 1713.946184 933.700515 C1709.762102 931.463454 1706.394548 927.402419 1703.219377 923.674514 C1700.944719 921.004348 1699.696306 917.484939 1697.780412 914.477858 C1695.577531 911.020949 1696.856950 908.047561 1698.832658 905.217116 C1703.410905 898.658645 1704.086320 892.077834 1700.944108 884.461867 C1696.421892 873.501662 1692.848161 862.151809 1688.788469 850.997756 C1687.511735 847.489760 1682.280412 845.930556 1677.294328 846.893813 C1672.455583 847.828566 1667.523698 848.281814 1662.632951 848.947585 C1657.742570 849.613479 1652.575944 849.516555 1648.038835 851.158645 C1643.341691 852.858596 1638.134904 855.325637 1638.806535 862.102736 C1638.839128 862.432937 1638.888200 862.791457 1638.799089 863.098952 C1637.246599 868.453689 1635.787004 873.839065 1634.072526 879.141799 C1632.460954 884.126540 1630.071794 888.911086 1628.945085 893.987868 C1627.691179 899.638259 1627.355852 905.508620 1626.838762 911.302688 C1626.025529 920.413649 1619.174089 929.517409 1610.518327 931.620437 C1603.388078 933.352858 1597.091325 929.633620 1591.707292 925.915236 C1587.722917 923.163405 1582.765520 919.978347 1582.380876 913.974441 C1582.245012 911.852736 1582.702409 909.697829 1582.649553 907.564162 C1582.615861 906.204665 1582.440812 904.654616 1581.726945 903.596511 C1581.417863 903.138381 1579.443254 903.397902 1578.477312 903.859328 C1574.297014 905.856276 1570.210954 908.050734 1566.087053 910.166335 C1565.539079 910.447463 1564.994157 910.780349 1564.407243 910.933425 C1556.281877 913.051345 1548.195207 915.348220 1540.002946 917.168532 C1534.292009 918.437697 1528.458024 919.277297 1522.634782 919.882766 C1516.636735 920.506423 1510.576433 920.978835 1504.559587 920.835036 C1499.489641 920.713698 1494.432023 919.686599 1489.390764 918.917922 C1486.697648 918.507277 1485.408464 919.619338 1484.174211 921.978957 C1479.191057 931.505691 1471.983415 932.941726 1461.869890 929.146316 C1447.953386 923.923781 1443.267961 913.304763 1441.812761 900.003737 C1441.390764 896.147780 1436.760515 893.985305 1432.069963 896.329421 C1421.514543 901.604201 1409.938493 901.903396 1398.715593 903.926467 C1386.562395 906.117385 1374.706193 908.762893 1364.088029 915.789748 C1359.166276 919.046950 1353.162126 920.705275 1347.580461 922.915969 C1343.702775 924.451857 1341.368791 929.021682 1336.191057 928.148635 C1332.874895 927.589675 1329.365251 928.272170 1326.000749 927.887282 C1318.855241 927.069777 1312.392839 924.471023 1306.900163 919.656081 C1306.617204 919.408034 1305.039812 919.916213 1304.889787 920.354690 C1303.937639 923.137893 1304.110979 927.271438 1302.243303 928.584548 C1297.720720 931.764113 1292.732561 935.639235 1286.566423 933.851516 C1281.261247 932.313430 1275.756608 930.643874 1271.156022 927.739821 C1267.049821 925.147780 1264.491594 921.096023 1263.484514 915.412673 C1261.938371 906.686110 1259.490617 898.041457 1255.476701 889.793044 C1251.049577 880.695876 1248.039445 870.867751 1244.903337 861.198684 C1242.926286 855.103103 1240.828874 853.681594 1233.861955 854.894729 C1228.517839 855.825393 1223.073381 856.169143 1217.709245 857.002883 C1215.599504 857.330764 1213.630510 858.566848 1211.520891 858.891433 C1206.099138 859.725417 1200.609758 860.125808 1195.194841 860.994582 C1190.561052 861.737868 1186.003312 862.944045 1181.393205 863.849929 C1174.232805 865.257033 1171.631608 871.695754 1167.940812 876.575271 C1161.796159 884.699172 1156.831682 893.716628 1150.675554 901.830642 C1147.080949 906.568435 1142.580095 910.965285 1137.621721 914.181472 C1134.973771 915.899123 1130.436052 915.236159 1126.847673 914.818435 C1123.359636 914.412429 1119.924699 913.134353 1116.599382 911.885329 C1114.158220 910.968337 1111.146013 910.050124 1109.758195 908.138259 C1105.738664 902.601149 1102.198259 896.677566 1098.929948 890.655837 C1097.838395 888.644729 1098.188859 885.870559 1097.778947 883.462356 C1097.545305 882.089797 1097.238664 880.701369 1096.739641 879.406936 C1094.136369 872.653762 1091.638688 865.850173 1088.728898 859.229323 C1087.451311 856.322219 1085.608537 854.562575 1081.338151 855.674514 C1072.373552 858.008864 1063.053117 858.940505 1054.012346 861.026687 C1042.670671 863.643874 1031.415056 866.173659 1021.723894 873.746291 C1014.904191 879.075271 1012.735002 885.681838 1011.807268 893.440261 C1010.993547 900.245681 1009.391252 906.963088 1004.249650 911.712478 C1001.807390 913.968581 997.961198 915.188430 994.556901 915.804397 C989.629655 916.696120 984.529680 916.814895 979.497087 916.899123 C972.357194 917.018874 961.918901 906.368361 961.785234 899.314406 C961.608049 889.963942 965.931596 882.353835 971.147600 875.199050 C976.392351 868.004958 979.587785 860.266921 979.927385 851.277419 C980.009294 849.106643 980.944841 846.282180 982.505998 844.965102 C992.282731 836.716506 999.104875 826.131789 1004.618425 815.035537 C1015.513200 793.109450 1027.428239 771.594436 1035.076066 748.172744 C1036.036027 745.232802 1037.353898 742.317763 1037.726945 739.295058 C1038.902849 729.766738 1045.928239 726.450515 1053.633439 724.048415 C1056.677629 723.099257 1060.074479 723.280715 1063.810686 722.947341 M1478.810686 878.447341 C1487.373796 889.740066 1500.096940 890.095046 1512.195451 889.653151 C1523.994523 889.221999 1535.761979 886.753493 1546.749528 881.623244 C1551.056413 879.612380 1556.484270 879.433913 1560.130998 876.716018 C1565.158586 872.968947 1569.035173 867.653151 1573.251237 862.873855 C1573.745134 862.313796 1573.687028 860.537429 1573.171647 859.934646 C1569.769060 855.954543 1566.769426 851.229201 1562.524431 848.445144 C1549.971940 840.212783 1536.635637 833.411452 1522.184221 828.865127 C1511.732438 825.576919 1501.255876 823.179091 1490.241350 823.956496 C1483.502946 824.432143 1476.823137 824.968825 1470.335954 822.107375 C1468.532731 821.311904 1467.134904 821.629714 1467.674821 824.838637 C1469.993059 838.618361 1471.571916 852.523757 1473.960344 866.289748 C1474.651262 870.271926 1473.947648 875.177810 1478.810686 878.447341 M1461.810686 780.447402 C1462.599870 781.280715 1463.316179 782.749892 1464.189592 782.850112 C1474.229387 784.002639 1484.304460 784.846267 1494.346940 785.977920 C1503.131486 786.967727 1509.415422 781.437514 1516.358049 777.718093 C1517.576799 777.065139 1518.993425 774.055007 1518.564104 773.506362 C1516.243425 770.540420 1513.839860 766.734755 1510.607316 765.541457 C1495.594255 759.999343 1480.039201 756.760634 1463.891618 758.100539 C1462.771745 758.193435 1460.960222 760.476455 1460.959611 761.741591 C1460.956682 767.643325 1461.477312 773.545424 1461.810686 780.447402 M1214.310686 827.947402 C1218.502824 827.614089 1222.693620 827.040481 1226.887346 827.018752 C1230.659318 826.999221 1231.601945 825.315566 1230.469011 822.138320 C1226.175432 810.096877 1221.809831 798.080825 1217.394792 786.083388 C1216.973527 784.938735 1216.019914 783.989882 1215.313493 782.950149 C1214.479143 784.268142 1213.517106 785.524306 1212.841813 786.919326 C1211.904924 788.854262 1211.453630 791.068679 1210.302141 792.844191 C1208.835954 795.104995 1206.465715 796.827590 1205.218400 799.172255 C1202.692155 803.920791 1200.605974 808.908400 1198.440202 813.842238 C1196.708879 817.786330 1195.310319 821.885512 1193.422014 825.748671 C1191.962907 828.733657 1193.995134 828.937697 1195.736101 828.886306 C1201.598405 828.713393 1207.453142 828.280593 1214.310686 827.947402 M1047.810686 829.447402 C1054.462419 828.614028 1061.120988 827.829787 1067.761125 826.913100 C1069.434587 826.682021 1072.353776 826.207778 1072.447404 825.532607 C1072.731096 823.488967 1072.186418 821.189956 1071.448625 819.179885 C1070.497331 816.588637 1068.885759 814.246108 1067.843034 811.680800 C1065.408464 805.691420 1063.214860 799.603774 1060.741960 793.631118 C1060.322160 792.617202 1058.999040 791.977431 1058.093278 791.164748 C1057.332414 792.182387 1056.399187 793.113418 1055.837663 794.231093 C1050.781755 804.294204 1045.760881 814.375197 1040.821916 824.495986 C1040.231950 825.704787 1039.568376 827.530349 1040.073991 828.438125 C1040.582658 829.351821 1042.477189 829.627517 1043.821794 829.900771 C1044.941667 830.128310 1046.144548 829.947341 1047.810686 829.447402 M1655.810808 801.447341 C1654.753068 804.838332 1654.193254 808.506423 1652.501970 811.544753 C1650.700212 814.781447 1653.094987 816.747390 1654.594011 816.721816 C1659.988176 816.629531 1665.357805 815.527724 1670.754289 814.981948 C1673.684709 814.685622 1673.940690 813.860549 1672.927995 811.008315 C1669.933122 802.573440 1667.528459 793.930495 1664.764543 785.410598 C1664.250505 783.825881 1663.139299 782.434890 1662.303605 780.954482 C1661.472673 782.441604 1660.291887 783.837417 1659.875261 785.432692 C1658.535295 790.564650 1657.477312 795.770156 1655.810808 801.447341 z"/><path class="selected"  fill="#000000" opacity="1.000000" stroke="none" 
 	d="
M719.810686 387.947341 C714.920549 388.613967 710.528886 389.270888 706.140642 389.949538 C698.311357 391.160109 690.489763 392.421096 682.654802 393.593581 C669.359453 395.583144 656.045976 398.411025 642.564653 396.785964 C634.937150 395.866530 627.966203 392.428115 623.249284 385.844008 C618.492998 379.205153 619.094255 377.436232 624.074052 371.007216 C630.032609 363.314528 638.218461 361.604018 646.975175 360.984267 C658.520708 360.167190 670.146196 360.143630 681.626420 358.818618 C697.384599 356.999831 713.025041 354.181472 728.743181 351.986464 C737.464433 350.768447 746.283281 350.220351 754.981462 348.874282 C764.613664 347.383742 774.159807 345.335341 783.740068 343.512038 C786.668474 342.954787 789.763933 342.769484 792.467241 341.650771 C796.718339 339.891555 800.454606 337.679336 803.780351 333.855300 C813.200029 323.024184 823.592973 313.041579 833.548784 302.673110 C835.561723 300.576766 837.456987 298.341659 839.190568 296.009993 C840.974321 293.610824 838.803056 289.376937 835.021806 286.922866 C827.207414 281.851272 818.359270 280.068374 809.408403 280.105483 C796.183061 280.160262 782.892839 280.665389 769.761979 282.146804 C759.701799 283.281722 749.851945 286.253768 739.896257 288.350509 C730.844438 290.256881 721.741411 291.933516 712.728105 294.003890 C707.301652 295.250319 702.000871 297.046431 696.648393 298.611770 C677.324907 304.263076 658.029619 310.014083 638.657792 315.494552 C635.010026 316.526503 631.071306 316.716842 627.247575 316.904189 C616.479204 317.431746 605.651445 319.478713 594.994096 315.950423 C579.485124 310.815932 566.552141 302.619582 561.478532 286.015700 C557.948015 274.461806 559.248063 263.043380 564.217363 252.026137 C568.460161 242.619582 573.016496 233.327529 576.708452 223.706344 C581.231279 211.920089 586.711503 200.710769 593.818986 190.296187 C597.461198 184.959273 601.228898 179.707961 604.872697 174.372115 C612.675737 162.945693 619.992143 151.151809 628.367204 140.163344 C634.016862 132.750594 641.211442 126.527694 647.572221 119.640761 C652.988725 113.776229 657.646806 107.088576 663.612443 101.877944 C678.921098 88.506759 692.474321 72.912017 711.260637 63.783187 C714.650651 62.135878 716.849870 58.199187 720.070939 56.016173 C736.282915 45.028869 753.648454 36.196944 771.260942 27.606978 C788.899064 19.004516 806.737626 11.018355 825.141496 4.373961 C831.430498 2.103423 838.478959 1.691558 845.239152 1.036956 C852.729143 0.311706 860.295000 -0.126176 867.812578 0.032378 C883.273515 0.358458 897.534074 5.307830 909.621721 14.680800 C915.556352 19.282546 921.515886 25.821502 921.482316 33.967101 C921.455522 40.454604 919.711259 47.587005 916.616105 53.285201 C907.996110 69.154387 895.510759 82.111678 882.657121 94.683120 C876.295488 100.905074 870.450761 107.651931 864.211992 114.003951 C855.143876 123.236678 845.524309 131.961715 836.885698 141.573562 C826.769609 152.829177 817.423723 164.779281 807.805864 176.479201 C803.944902 181.176009 800.440812 186.176680 796.437089 190.743392 C788.929887 199.306106 779.026628 201.131850 768.289445 199.854445 C767.052873 199.707351 765.755144 198.467208 764.847429 197.420241 C758.454729 190.046889 759.844926 179.596389 767.661455 173.495101 C770.529924 171.256057 772.890947 168.367019 775.483415 165.774520 C786.048784 155.209273 796.671464 144.700606 807.157243 134.056930 C813.171525 127.952010 818.957353 121.622176 824.857072 115.404036 C831.290788 108.623153 837.634172 101.752211 844.213701 95.115615 C848.700029 90.590468 853.985368 86.794173 858.099748 81.976973 C866.208879 72.482848 873.823076 62.560393 881.477250 52.687453 C883.259965 50.387923 884.499589 47.633925 885.787004 44.990615 C888.634843 39.143020 886.292619 33.140548 880.182451 30.860427 C874.548051 28.757888 868.922807 26.449935 863.090288 25.132049 C859.963640 24.425582 856.410295 25.630187 853.046892 25.944518 C838.620256 27.292724 824.654802 30.732650 811.226701 36.032760 C801.350786 39.930816 791.721513 44.479064 782.100053 48.988845 C773.996477 52.787154 765.795427 56.497909 758.120500 61.059935 C748.291276 66.902419 739.291826 74.181960 729.312639 79.721358 C713.855058 88.301742 702.600786 101.823470 689.064104 112.633712 C679.454301 120.307998 671.310258 129.952529 663.173051 139.293502 C656.612993 146.823989 650.718461 154.996779 645.107133 163.276656 C636.416154 176.100570 628.711442 189.616012 619.633500 202.146346 C613.785173 210.218764 609.287248 218.841414 605.558488 227.868575 C601.384904 237.972793 597.457536 248.283675 594.735917 258.843032 C593.119401 265.114699 593.654741 272.056441 593.962053 278.662520 C594.129472 282.260787 602.173540 286.680739 607.424699 286.950393 C618.606767 287.524733 629.505876 285.441207 640.255937 282.884627 C651.870256 280.122512 663.296159 276.574538 674.825883 273.448928 C684.273454 270.887832 693.745561 268.416366 703.219743 265.954635 C713.605974 263.255935 723.935747 260.279281 734.423479 258.051345 C743.095659 256.209151 751.981462 255.396163 760.736772 253.915297 C769.736711 252.393050 778.635759 250.025008 787.687700 249.140944 C794.458879 248.479628 801.402482 249.594253 808.270097 249.899917 C809.595659 249.958938 810.932207 250.030868 812.251420 249.932448 C827.511796 248.794295 840.581865 254.693892 852.975664 262.661300 C855.776079 264.461593 858.313554 266.667128 861.011979 268.631148 C862.864152 269.979171 864.458330 270.246566 866.238115 268.115096 C869.593645 264.096480 873.101457 260.177382 876.826311 256.500930 C883.281267 250.129775 890.045183 244.071883 896.507036 237.707442 C907.151933 227.222945 917.717607 216.656356 928.202531 206.011886 C934.450273 199.669021 940.122697 192.719802 946.683671 186.733535 C959.522294 175.019637 973.100847 164.109328 985.803239 152.255752 C995.690202 143.029586 1004.741228 132.904525 1014.104875 123.122573 C1017.266862 119.819259 1020.392717 116.461226 1023.284807 112.923507 C1031.611223 102.738204 1039.765764 92.412520 1048.074846 82.212874 C1053.171892 75.956206 1058.274309 69.691985 1063.646623 63.674300 C1073.783830 52.319487 1083.711809 40.726882 1094.557268 30.078933 C1099.312517 25.410186 1105.938371 22.473357 1112.069719 19.476211 C1114.120256 18.473891 1118.156145 18.727111 1119.751970 20.138778 C1124.148454 24.028228 1128.213884 28.520019 1131.423601 33.419875 C1132.866960 35.623443 1132.542985 39.289702 1129.560075 41.815597 C1124.571550 46.040008 1119.667131 50.424666 1115.182145 55.171493 C1102.784562 68.292693 1090.534807 81.556807 1078.411760 94.932418 C1073.890153 99.921370 1069.351701 105.039199 1065.761857 110.695479 C1060.117692 119.588790 1054.433732 128.627395 1050.284807 138.258407 C1044.319230 152.106399 1039.108293 166.355788 1034.703996 180.778579 C1030.343767 195.056777 1026.952775 209.673598 1023.928728 224.305617 C1020.735246 239.757491 1018.157487 255.357100 1015.931169 270.980605 C1014.606462 280.276565 1014.428972 289.739882 1013.844011 299.134719 C1013.693986 301.542800 1013.282365 303.107406 1017.515520 302.210189 C1028.995134 299.777236 1040.745134 298.623183 1052.385393 296.944808 C1063.862443 295.289962 1075.317033 293.461318 1086.818620 292.001632 C1094.338640 291.047194 1101.929704 290.663375 1109.480363 289.936507 C1122.930681 288.641707 1136.371477 287.247512 1149.822893 285.965316 C1154.506975 285.518844 1159.206071 285.161391 1163.906633 284.968581 C1181.460100 284.248763 1199.022233 283.720565 1216.570817 282.902236 C1225.306047 282.494857 1234.025407 281.038497 1242.740373 281.132613 C1249.502214 281.205581 1256.281877 282.758193 1262.983049 284.025863 C1266.411516 284.674453 1267.372575 288.870315 1265.875627 292.298140 C1262.889787 299.135909 1256.412248 299.690627 1250.575578 300.841475 C1238.641252 303.194655 1226.615983 305.133407 1214.576799 306.892257 C1203.668107 308.485976 1192.681901 309.542190 1181.746965 310.966475 C1169.594133 312.549392 1157.424699 315.810225 1145.328630 315.525680 C1132.728044 315.229262 1120.901628 317.856978 1108.793718 319.865889 C1105.549943 320.404128 1102.097062 319.597213 1098.815935 320.010207 C1086.980241 321.500045 1075.180192 323.271956 1063.359025 324.880843 C1060.018693 325.335463 1056.628068 325.446731 1053.301530 325.974318 C1041.120256 327.906264 1028.953020 329.928664 1016.787492 331.958083 C1012.850847 332.614760 1010.590837 334.401229 1010.719011 339.024245 C1011.010026 349.515273 1010.312150 360.049514 1010.931901 370.511916 C1011.779680 384.820571 1013.439592 399.082473 1014.823991 413.357375 C1015.754289 422.949111 1016.590593 432.558364 1017.882829 442.103774 C1018.852434 449.266311 1020.414812 456.352797 1021.831926 463.449477 C1023.765764 473.133742 1025.556169 482.858107 1027.896867 492.445937 C1029.579851 499.339614 1032.358049 505.961806 1034.131242 512.838271 C1039.360856 533.119460 1047.469499 552.254592 1056.352067 571.143203 C1058.698137 576.131972 1059.801042 581.713332 1061.350969 587.058486 C1061.550676 587.746840 1061.224382 588.821181 1060.761613 589.426101 C1059.095231 591.604445 1057.130632 593.560012 1055.521257 595.775832 C1046.863542 607.696547 1027.859392 602.361220 1022.011369 587.880568 C1018.093767 578.179946 1012.741716 569.039504 1007.766618 559.790908 C1003.649309 552.137038 999.121232 544.704848 994.817155 537.150527 C990.594133 529.738540 986.730241 522.102309 982.170671 514.905288 C970.433854 496.379287 958.254289 477.978957 941.085771 464.027114 C927.961320 453.361709 915.089494 442.158400 900.105241 433.968093 C891.964555 429.518508 883.897661 424.858596 875.451066 421.064711 C866.815690 417.186049 862.347124 420.161391 859.701433 429.199538 C857.324968 437.318068 853.995500 445.156081 851.137834 453.136184 C849.889421 456.622695 849.004838 460.257277 847.536821 463.643264 C845.269060 468.874099 841.545793 473.721755 840.421098 479.142959 C838.672441 487.571670 833.693498 494.080520 829.974748 501.371840 C826.336687 508.505080 823.307817 515.947036 819.752031 523.124953 C818.164873 526.328689 815.527666 529.033767 814.085954 532.284011 C809.712541 542.143508 804.589494 551.445266 798.230791 560.251662 C788.311174 573.989699 779.624284 588.617385 769.716691 602.364821 C759.094926 617.103042 747.977800 631.513991 736.492509 645.591079 C726.825273 657.439773 716.392961 668.670363 706.156999 680.046523 C700.444658 686.395217 694.806413 692.891982 688.448625 698.551223 C683.821245 702.670058 678.139116 705.638137 672.805437 708.921218 C664.986772 713.733840 657.298356 718.854140 649.091142 722.904311 C643.894975 725.468459 637.916887 726.597670 632.178789 727.872390 C626.167985 729.207656 619.969560 730.982924 613.955034 730.661208 C607.724138 730.327895 601.507524 728.028823 595.485185 725.995681 C590.002031 724.144607 584.641435 722.012465 580.534440 717.323256 C574.803422 710.779494 572.248125 703.252150 570.610612 694.854751 C569.229265 687.771071 567.367937 680.901748 567.733171 673.556350 C568.099504 666.189528 567.197648 658.718154 568.033525 651.428115 C568.845109 644.350356 570.951066 637.386977 572.883439 630.483840 C574.166520 625.900527 576.093278 621.491958 577.821855 617.040114 C580.943193 609.001418 583.263627 600.498671 587.463151 593.061904 C598.023942 574.360549 609.085649 555.915786 620.635393 537.807509 C630.056291 523.036818 641.116655 509.483657 653.246477 496.712478 C661.587785 487.930190 668.305620 477.625869 676.110429 468.304458 C679.341936 464.445022 683.795122 461.628676 687.198198 457.888015 C692.285295 452.296096 697.000017 446.358901 701.755998 440.473891 C708.299638 432.376540 714.519304 424.007216 721.281999 416.100173 C726.846330 409.594375 732.914262 403.508437 738.925737 397.400588 C742.128984 394.145888 745.707902 391.263015 749.062028 388.152785 C749.653764 387.604079 750.505754 386.388076 750.319841 386.122268 C749.702165 385.239516 748.588579 383.963515 747.802080 384.052260 C738.774248 385.070327 729.771379 386.310805 720.764482 387.511733 C720.596818 387.534072 720.461198 387.796767 719.810686 387.947341 M601.810686 676.447341 C603.143999 680.895400 604.869340 685.271377 605.703508 689.811171 C606.586870 694.618545 609.562944 696.723769 613.787919 696.859694 C623.546647 697.173659 633.058183 695.863112 641.950639 691.340529 C656.509782 683.936110 669.580949 674.335708 681.084489 662.927260 C693.175981 650.935866 704.433549 638.087172 715.772233 625.360793 C720.527666 620.023513 724.651079 614.107802 728.889299 608.328505 C734.870012 600.173354 740.603471 591.836501 746.605974 583.697768 C751.899064 576.520827 758.025529 569.887282 762.706926 562.345168 C772.452348 546.644423 781.748308 530.647292 790.716813 514.487746 C796.548784 503.979628 801.816179 493.121779 806.726213 482.147475 C813.072832 467.962295 819.302141 453.684951 824.648576 439.104995 C828.625749 428.259170 831.252946 416.922561 836.568071 406.542312 C836.820024 406.050307 835.819780 404.251052 835.111040 404.039992 C830.050920 402.533095 824.918535 401.267165 819.802507 399.950332 C811.521196 397.818862 803.123002 396.061355 794.980546 393.491958 C786.055803 390.675673 781.176408 390.981643 776.483842 398.694777 C775.158159 400.873855 773.391557 402.850478 771.552629 404.637526 C768.036271 408.054274 764.031877 411.002944 760.741411 414.612075 C745.785661 431.016677 731.008745 447.584365 716.165239 464.091445 C713.107561 467.491774 709.893388 470.763503 707.004106 474.301040 C695.633073 488.223525 684.695146 502.515395 672.950395 516.112075 C663.532304 527.015029 654.411943 538.051711 646.794450 550.300918 C641.019609 559.587172 634.637041 568.527175 629.354875 578.080214 C622.413713 590.633559 615.582963 603.341689 610.041459 616.544326 C605.874040 626.472976 603.245500 637.163772 600.982255 647.740066 C599.029802 656.863784 598.320024 666.313186 601.810686 676.447341 M885.310686 323.947341 C890.700456 323.280654 896.098833 322.675887 901.477922 321.931746 C908.238115 320.996566 914.983476 319.954146 921.733354 318.945327 C927.850908 318.031020 933.994523 317.255446 940.075883 316.141372 C950.736467 314.188460 961.322526 311.810988 972.008439 310.021132 C979.265153 308.805739 982.955705 306.639388 983.736345 301.032760 C984.712663 294.020003 985.085344 286.925216 985.823503 279.876815 C987.110246 267.593154 987.927507 255.226333 989.953508 243.062941 C992.344865 228.706893 995.494523 214.453414 998.917741 200.301162 C1001.351335 190.239638 1004.805192 180.426070 1007.740129 170.483138 C1008.157609 169.068862 1008.216203 167.548629 1008.440812 166.077437 C1006.949357 166.815413 1005.169938 167.249862 1004.016740 168.344314 C999.204484 172.911574 994.516618 177.615401 989.903459 182.385543 C983.829729 188.665908 978.604020 196.045485 971.694353 201.175399 C960.188310 209.717849 950.004777 219.443953 940.308244 229.871444 C931.070024 239.806045 921.499223 249.431655 912.068925 259.187545 C902.195329 269.402083 892.139177 279.449477 882.561601 289.934249 C880.186723 292.534041 878.170000 296.504775 878.063920 299.910048 C877.860429 306.438888 879.427629 313.002547 879.695695 319.574782 C879.838212 323.069594 880.872026 324.481246 885.310686 323.947341 M921.810686 416.447341 C932.143266 423.543532 942.345598 430.763747 952.267473 438.484755 C964.318132 447.862441 975.285905 458.110793 985.019548 469.754165 C987.617937 472.862319 989.463884 476.589065 991.872941 479.872146 C992.586198 480.844314 994.043229 481.270827 995.159440 481.947341 C995.107438 480.844985 995.283952 479.671889 994.968034 478.651259 C991.989274 469.026931 989.227434 459.393508 988.737199 449.211318 C988.492814 444.134170 987.414201 439.101577 986.823381 434.035903 C985.450090 422.260390 984.156633 410.475600 982.799333 398.698195 C982.545305 396.494033 982.047258 394.316115 981.833269 392.109450 C981.512102 388.797255 981.289445 385.473037 981.127092 382.148940 C981.022966 380.015944 981.208269 377.867507 981.079362 375.737197 C980.706315 369.578811 980.034562 363.430983 979.887834 357.269301 C979.800187 353.584304 980.678605 349.885940 980.766496 346.185134 C980.923356 339.573867 979.416887 338.693435 972.844499 340.341811 C968.271379 341.488845 963.580339 342.209243 958.912004 342.924025 C949.333269 344.390578 939.695573 345.502944 930.152971 347.167067 C916.366166 349.571364 902.597856 352.130324 888.920305 355.080764 C885.126542 355.899184 879.667131 354.388503 878.180375 360.146132 C877.430314 363.050551 877.329179 366.116286 876.791643 369.083144 C876.008073 373.407668 875.101518 377.710036 874.235979 382.019545 C873.585405 385.258864 872.774797 388.660170 876.237993 390.804763 C879.787309 393.002700 883.567399 394.825026 887.217912 396.863051 C898.589433 403.211440 909.947465 409.584121 921.810686 416.447341 M842.810686 363.447402 C832.433000 364.947402 822.048479 366.403396 811.688249 368.015578 C810.653276 368.176589 809.766313 369.288222 808.810686 369.958693 C809.940568 370.621596 810.999040 371.627395 812.214250 371.880263 C815.321000 372.526687 818.588212 372.510512 821.626909 373.352370 C827.577653 375.000991 833.367265 377.245315 839.342607 378.779372 C840.563432 379.092727 842.307695 377.367324 843.810686 376.581801 C841.109819 372.912063 844.120256 370.115981 845.223039 366.997878 C845.877397 365.147597 847.300249 362.703628 842.810686 363.447402 M844.310686 328.947341 C843.897172 329.867171 843.270585 330.767104 843.181718 331.717299 C843.149064 332.066054 844.676896 333.043837 844.999528 332.861525 C846.637590 331.935897 848.168596 330.786178 849.584733 329.541518 C849.787797 329.363021 849.109025 327.637130 848.928728 327.652999 C847.543413 327.775008 846.180559 328.150527 844.310686 328.947341 z"/><path class="selected"  fill="#000000" opacity="1.000000" stroke="none" 
 	d="
M361.560686 858.697341 C361.810686 847.393630 362.057817 836.333022 361.751237 825.287795 C361.319444 809.728896 360.674638 794.169082 359.706285 778.635573 C359.355668 773.011062 358.415758 767.266433 356.693834 761.914748 C352.080461 747.576247 361.772447 740.475600 372.698015 736.964919 C381.879869 734.014663 388.389451 739.786147 395.442247 744.002578 C401.145250 747.412124 403.483262 753.075515 405.742479 758.679580 C410.439470 770.330642 417.319017 780.553969 425.420427 790.004958 C431.047441 796.569350 436.876359 802.964980 442.748704 809.312331 C444.485246 811.189406 446.491777 812.967849 448.695909 814.230605 C453.785234 817.146254 460.329790 817.827346 463.723161 810.114760 C469.052629 798.001784 475.053300 785.965407 478.403398 773.272048 C480.920000 763.736953 483.829423 754.581984 487.709428 745.573501 C490.048112 740.143691 494.488603 737.766311 499.122819 735.002883 C507.832719 729.809157 515.673845 733.995681 522.094560 738.382277 C526.990312 741.727065 531.086259 747.112685 531.131791 754.986525 C531.200151 766.783400 533.530778 778.556777 534.675371 790.361892 C535.293901 796.741774 535.167314 803.198134 535.880571 809.563552 C536.799089 817.760268 537.616166 826.050307 539.588212 834.025405 C541.841936 843.140212 545.675249 851.856154 548.127458 860.933181 C549.625261 866.477614 548.836015 872.624343 552.797136 877.517898 C555.203569 880.490920 557.799943 883.378127 559.753679 886.637893 C567.420366 899.430129 558.186723 906.872146 547.910173 907.739455 C541.846208 908.251174 535.074724 908.619460 529.962846 903.900100 C525.820512 900.075881 521.612626 896.175368 518.227189 891.707473 C509.698198 880.451369 506.844194 866.739211 503.085161 853.541823 C501.233171 847.039992 500.881853 840.113967 499.783220 833.391066 C499.612260 832.344863 499.304765 831.117568 498.605485 830.451919 C498.283525 830.145400 496.625505 830.745070 495.982866 831.360976 C493.502519 833.738845 491.001848 836.138808 488.846391 838.803603 C482.995012 846.037429 475.755693 849.770949 466.250139 849.012404 C461.557695 848.637893 456.680192 849.637160 452.120866 848.775100 C446.242479 847.663649 440.451280 845.673903 434.884782 843.415969 C422.889909 838.550551 414.555467 828.887038 405.490037 820.204787 C404.411424 819.171767 402.808275 818.686477 401.448259 817.947341 C401.235734 819.331984 400.690477 820.759902 400.864030 822.094314 C402.094194 831.553237 403.366411 841.009475 404.845964 850.431960 C405.598009 855.221023 407.344011 859.903151 407.657030 864.697951 C407.958360 869.313918 408.120439 874.537307 406.265001 878.527053 C404.417039 882.500686 400.525499 886.546950 396.543748 888.234572 C392.020250 890.151809 386.408525 889.793410 381.260270 889.884963 C369.953050 890.086135 358.334093 878.168044 358.913774 866.920730 C359.052507 864.228835 360.477342 861.603347 361.560686 858.697341 z"/><path class="selected"  fill="#000000" opacity="1.000000" stroke="none" 
 	d="
M162.810686 920.947341 C149.258088 920.947341 136.133027 921.816726 123.170442 920.736648 C105.240144 919.242507 87.443788 916.185622 69.565027 914.003005 C63.915285 913.313186 58.024110 914.006301 52.528055 912.785232 C43.172174 910.706862 33.856157 908.104323 24.903276 904.717727 C21.056779 903.262771 17.608941 899.723952 14.987268 896.349441 C12.346338 892.949904 13.656854 888.707595 15.848016 885.249221 C21.994661 875.547194 31.437036 870.461989 42.220460 868.103469 C47.964357 866.847121 55.159456 872.013137 56.714670 877.821242 C58.043451 882.783645 60.924096 883.840163 65.692949 884.135207 C71.761621 884.510817 77.739137 886.287795 83.769121 887.388503 C87.039674 887.985549 90.320726 888.678420 93.626054 888.905593 C109.533174 889.998488 125.438676 891.414138 141.367143 891.806472 C155.264680 892.149001 169.429338 892.719558 183.028688 890.477004 C193.293794 888.784133 204.107500 885.417190 211.721269 876.663527 C213.694932 874.394484 214.435228 872.616652 212.846055 869.894484 C209.875017 864.805129 206.783830 860.312087 200.346177 858.777419 C196.245714 857.799880 192.658464 854.841750 188.620469 853.382277 C184.399125 851.856399 179.863145 851.227004 175.553361 849.914626 C164.972536 846.692580 154.182756 845.198684 143.128694 844.868178 C133.563508 844.582168 123.984788 842.762160 114.472627 843.141128 C99.111223 843.753249 83.802369 845.647475 68.466051 846.937453 C54.607477 848.103103 40.765550 849.067946 27.121789 845.003554 C24.115785 844.108169 20.812967 844.221755 17.792535 843.360000 C7.368780 840.386245 3.425184 831.564773 0.202752 822.558669 C-0.507834 820.572768 0.763677 817.151259 2.243078 815.274062 C4.606214 812.275710 7.784208 809.858657 10.835336 807.474441 C20.883401 799.622512 30.903634 791.723586 41.199487 784.205581 C45.295335 781.214797 50.103799 779.207717 54.554185 776.693191 C65.357698 770.589126 75.971651 764.122695 86.978944 758.413405 C98.934160 752.212417 111.671632 748.589492 125.162568 746.648696 C134.970369 745.237746 144.278413 746.365920 153.579103 748.177627 C157.930864 749.025344 162.239641 751.819533 165.703615 754.752334 C167.371660 756.164565 167.822069 760.064345 167.423631 762.619338 C166.842958 766.342971 163.276292 767.650771 159.889619 767.882522 C152.044404 768.419692 144.173189 768.566420 136.318376 768.982070 C134.444734 769.081191 132.561769 769.490371 130.737840 769.966628 C114.063707 774.320327 98.790498 781.574538 84.639512 791.466079 C77.517824 796.444106 69.630144 800.311965 62.296632 805.006362 C57.237398 808.244826 52.516305 812.015578 47.692506 815.613357 C47.010591 816.122024 46.603929 816.999648 46.069894 817.706557 C47.064851 818.120192 48.050485 818.862380 49.056352 818.890883 C53.608224 819.019973 58.232156 819.451552 62.710168 818.862380 C85.210573 815.901809 107.812929 816.897780 130.367250 817.141433 C138.002458 817.223952 145.603547 819.624343 153.238176 820.854079 C160.130678 821.964187 167.060258 822.845046 173.950502 823.967971 C181.576784 825.210952 189.316911 826.100051 196.741212 828.121230 C202.016862 829.557509 206.916673 832.484267 211.869554 834.973830 C222.932603 840.534682 233.505662 846.592727 242.339097 855.725539 C254.344377 868.137893 254.306535 875.022780 247.485887 889.559646 C243.525438 898.000564 235.305314 902.737380 227.896959 907.942702 C217.573198 915.196486 205.802446 918.002883 193.468629 918.929397 C183.422136 919.684157 173.363786 920.280715 162.810686 920.947341 z"/><path class="selected"  fill="#000000" opacity="1.000000" stroke="none" 
 	d="
M757.810625 787.947341 C760.143999 779.914748 761.893571 772.123671 765.065507 764.962600 C766.573076 761.559096 769.713640 758.821120 774.643693 757.649428 C787.620439 754.565261 797.113908 759.483901 805.573198 768.290114 C806.605668 769.364882 807.419877 770.898208 807.756547 772.352920 C810.435808 783.930556 816.529008 793.575332 823.919938 802.693496 C829.897905 810.068435 835.208330 817.984694 840.806413 825.666945 C841.360490 826.427321 841.752519 827.329177 842.393205 827.999526 C850.598039 836.583816 858.860979 845.112624 867.051896 853.710036 C871.355485 858.227004 875.537004 862.860061 879.802995 867.413161 C880.290483 867.933547 880.967729 868.276076 881.556901 868.701125 C881.974870 867.874343 882.869279 866.944655 882.717241 866.240920 C882.331865 864.456618 881.271684 862.822951 880.843645 861.041945 C877.781999 848.301101 874.958940 835.501052 871.761979 822.794875 C869.378801 813.323440 866.432390 803.994826 863.966203 794.542739 C862.661516 789.542617 861.863420 784.411086 860.802690 779.346023 C860.354936 777.208144 859.499345 775.106276 859.381486 772.957717 C858.947404 765.040297 857.163225 757.063064 860.765336 749.312209 C863.204423 744.063918 868.409929 743.809585 872.675004 743.138991 C885.743913 741.084365 893.786210 749.623366 896.635332 760.645339 C898.846208 769.198440 899.170671 778.220839 900.896989 786.922866 C902.622758 795.622085 904.959489 804.205520 907.187700 812.798476 C910.657915 826.180678 914.239519 839.534194 917.817705 852.888259 C920.951555 864.583693 924.862443 876.130080 927.064897 887.995681 C928.571428 896.112258 930.331376 904.566237 926.971513 913.061599 C925.174577 917.605056 914.184587 923.142531 909.364885 921.964919 C903.602678 920.557204 897.653276 919.724807 892.086809 917.779494 C888.790544 916.627517 885.803911 914.107985 883.145891 911.689284 C866.288408 896.348830 849.242265 881.192824 832.908586 865.307692 C822.753557 855.431350 813.754106 844.368239 804.194597 833.875625 C803.468461 833.078505 802.411333 832.583022 801.508073 831.947341 C800.942277 833.007583 799.842851 834.093947 799.893327 835.124038 C800.387163 845.201552 801.282609 855.262649 801.619035 865.343215 C801.798784 870.731032 800.894914 876.147048 800.871843 881.551833 C800.849626 886.775710 801.540849 892.001662 801.544206 897.226882 C801.550249 906.638747 805.779008 915.764724 802.907976 925.418532 C801.097795 931.505202 795.960466 936.459304 789.489335 935.823928 C782.376542 935.125564 775.067949 934.915969 768.886674 930.046828 C765.068437 927.039138 762.374589 924.097487 762.742082 918.876662 C763.068925 914.233596 763.051713 909.533889 762.754533 904.886672 C762.302385 897.816604 760.953081 890.772536 760.923356 883.713454 C760.867021 870.354812 761.868791 856.987258 761.667070 843.634963 C761.541643 835.329665 759.949968 827.051650 759.170610 818.746901 C759.018876 817.129958 759.941179 815.401809 759.745317 813.801162 C759.052202 808.137893 757.896562 802.527541 757.310930 796.856337 C757.026323 794.099929 757.616472 791.253188 757.810625 787.947341 z"/><path class="selected"  fill="#000000" opacity="1.000000" stroke="none" 
 	d="
M586.560686 802.697341 C591.541398 788.831496 600.328142 777.938369 611.395585 769.296279 C616.669938 765.177688 623.765520 762.258864 630.398393 761.298110 C638.753007 760.087905 647.504411 761.113906 656.033342 761.806411 C660.805803 762.193923 665.729875 765.318374 670.120683 764.550612 C674.831071 763.727065 676.572648 765.487441 678.859392 768.428542 C681.810563 772.224074 685.669572 774.096450 690.572893 775.212539 C695.546403 776.344558 699.960954 779.776015 704.747453 781.916091 C717.582841 787.655105 727.686052 796.401503 733.440812 809.293410 C735.956682 814.929641 738.717424 820.819838 737.890397 827.488112 C737.688310 829.116958 738.696123 830.859755 738.765397 832.565749 C738.912248 836.183242 740.033830 839.474441 738.200212 843.494948 C735.918779 848.497390 736.238786 854.615432 734.726457 860.054641 C731.715837 870.882766 727.527177 881.222487 720.242387 890.051101 C716.478227 894.612990 713.630021 900.249343 709.111467 903.802321 C700.243669 910.775100 690.866594 917.293532 681.020036 922.778762 C668.830156 929.569411 654.921525 929.068313 641.717912 927.647902 C627.328447 926.100051 613.279436 921.432082 603.055864 910.389846 C596.200517 902.985671 590.011735 894.659377 585.104509 885.864333 C581.882463 880.089309 580.843889 872.825271 579.962053 866.079909 C578.701066 856.433913 577.930986 846.651259 577.950334 836.928969 C577.973955 825.044570 579.636308 813.313674 586.560686 802.697341 M679.810686 881.447341 C684.749345 874.897048 691.154985 869.669265 694.196550 861.409621 C697.056840 853.642287 699.730974 845.923537 699.624284 837.764846 C699.535844 831.004775 697.742753 824.275283 696.831743 817.515151 C696.069658 811.860793 691.632402 808.601882 686.273942 809.998305 C684.028337 810.583449 681.810563 811.278151 679.588334 811.950210 C672.165666 814.194594 665.165788 813.338698 658.553728 809.223647 C657.120256 808.331496 655.471086 807.790481 654.013688 806.931106 C648.472917 803.663894 642.268083 804.561232 636.299699 803.723891 C629.089738 802.712356 627.974626 802.725966 624.785417 808.870498 C620.927568 816.303176 617.736162 823.772414 617.683183 832.467421 C617.639177 839.690566 615.075944 847.121535 616.140764 854.075759 C617.718217 864.377761 619.077165 875.234084 625.883684 883.906447 C629.214860 888.150710 632.673234 893.706130 637.226213 895.233107 C643.289873 897.267043 650.838579 897.353103 657.091875 895.735183 C665.555009 893.545485 673.024980 888.366164 679.810686 881.447341 z"/><path class="selected"  fill="#000000" opacity="1.000000" stroke="none" 
 	d="
M283.560686 921.197341 C282.143999 917.601638 280.226549 914.312941 279.968126 910.898391 C279.441942 903.946364 280.062089 896.915236 279.748582 889.937453 C279.334184 880.713210 278.361680 871.515212 277.857744 862.293410 C277.591630 857.423415 278.098192 852.506423 277.753312 847.646377 C276.931322 836.061843 276.603197 824.354873 274.541887 812.975234 C273.082231 804.917067 272.907640 796.141494 266.127458 789.465163 C261.703966 785.109450 265.118608 778.815505 264.990068 773.444167 C264.883378 768.984206 270.125749 765.922744 277.089433 764.892409 C279.196428 764.580642 281.190202 763.557570 283.263933 762.957351 C290.885484 760.751601 296.196184 763.935683 301.882738 769.097182 C308.414781 775.026259 308.894975 782.943679 310.462358 790.085341 C312.803850 800.753737 312.884172 811.928481 313.791673 822.899001 C314.872362 835.962478 315.924760 849.030471 316.769975 862.110671 C317.319505 870.615188 317.482438 879.144973 317.809312 887.663772 C318.148942 896.515090 318.600541 905.364821 318.738878 914.219436 C318.782915 917.036941 318.907487 920.628859 317.354844 922.519118 C314.840104 925.580642 311.193773 929.061110 307.619096 929.583083 C302.442735 930.338698 296.724473 929.224563 291.589586 927.712111 C288.637681 926.842727 286.380571 923.613967 283.560686 921.197341 z"/><path class="selected"  fill="#000000" opacity="1.000000" stroke="none" 
 	d="
M318.560686 393.697341 C317.723894 394.534133 317.219163 395.262893 316.525072 395.664016 C315.944230 395.999648 315.142045 395.952285 314.437883 396.074538 C314.606523 395.487746 314.590043 394.704787 314.972124 394.344253 C319.249772 390.307509 323.550249 386.292128 327.962449 382.404799 C328.485460 381.943984 329.710100 382.279677 330.609514 382.246169 C330.275163 383.047927 330.159715 384.105544 329.570573 384.609511 C326.044481 387.626235 322.409288 390.515395 318.560686 393.697341 z"/><path class="selected"  fill="#000000" opacity="1.000000" stroke="none" 
 	d="
M664.060686 756.197341 C664.637529 756.953811 664.997026 757.952956 665.227617 758.981032 C665.245622 759.061110 664.360673 759.343642 663.895341 759.532058 C663.867082 758.503798 663.838884 757.475539 664.060686 756.197341 z"/></svg>