<?xml version="1.0" encoding="utf-8"?><!DOCTYPE svg PUBLIC "-//W3C//DTD SVG 1.1//EN" "http://www.w3.org/Graphics/SVG/1.1/DTD/svg11.dtd"><svg version="1.1" id="Contours" xmlns="http://www.w3.org/2000/svg" xmlns:xlink="http://www.w3.org/1999/xlink" x="0px" y="0px" width="1524.172241px" height="1524.172241px" viewBox="-0.000005 0.000001 1524.172241 216.287003" enable-background="new 0 0 1524.172241 1524.172241" xml:space="preserve" stroke="black" fill="none" stroke-linecap='round' stroke-linejoin='round'><path class="selected"  fill="#000000" opacity="1.000000" stroke="none" 
 	d="
M446.635823 118.968115 C449.227498 110.876410 451.155659 102.971823 454.555867 95.761405 C460.686665 82.760581 471.766438 74.633643 484.624287 69.078757 C490.975179 66.335043 497.705037 64.003394 504.494038 62.884665 C510.009053 61.975867 515.930806 62.729636 521.551350 63.562048 C525.055867 64.081061 529.070332 70.531424 527.379231 73.141730 C525.473470 76.083533 521.752095 78.028327 518.503011 79.836569 C517.113728 80.609732 514.569722 80.589530 513.151814 79.820715 C504.307027 75.024802 496.844502 79.179266 489.727132 83.519995 C479.129536 89.983237 471.521565 98.920340 468.566609 111.437064 C466.813313 118.863379 465.755818 126.112647 467.556783 133.725516 C469.258321 140.918143 469.445393 148.562811 471.837178 155.476386 C475.404439 165.787695 485.077596 176.052191 497.789021 174.988257 C505.161519 174.371161 510.939046 170.293707 516.693257 166.331519 C526.324605 159.699652 535.749104 152.767615 545.273030 145.979224 C545.767720 145.626669 546.514790 145.564108 546.907124 145.144629 C547.889424 144.094290 548.735249 142.916403 549.635823 141.789679 C548.312276 141.515814 546.934346 140.852301 545.673665 141.028357 C532.939656 142.806647 520.200154 144.572730 507.514485 146.659750 C500.729634 147.775946 494.101033 149.921027 487.298726 150.824179 C482.769246 151.425574 479.846150 147.925208 477.757893 144.275122 C477.395955 143.642447 478.410237 141.901907 479.174092 140.999030 C483.355611 136.056555 489.337544 134.870200 495.243733 134.035208 C506.323262 132.468848 517.449849 131.217536 528.573750 129.988211 C544.371907 128.242346 560.180318 126.584494 575.996114 125.007285 C579.481160 124.659735 582.770528 125.278616 584.918904 128.657111 C585.321858 129.290869 586.470601 129.450369 587.275227 129.828711 C587.395467 129.045294 587.773640 128.197882 587.597554 127.487952 C584.350789 114.398352 584.488118 101.071982 584.529683 87.727652 C584.535420 85.879965 583.616109 83.388236 582.246724 82.302405 C578.696065 79.487052 573.896016 77.054465 574.860493 72.002234 C575.970601 66.186896 581.694234 64.052664 586.640462 62.015540 C601.570149 55.866690 617.365987 54.581549 633.105061 56.187140 C648.453938 57.752966 663.853169 60.226813 678.049641 66.995627 C685.937947 70.756766 690.095235 76.256629 688.416341 82.309851 C687.211079 86.655356 684.359700 90.733847 681.557820 94.409400 C674.731343 103.364539 664.660603 107.338950 654.473592 110.962729 C645.031758 114.321402 635.566243 117.613486 626.132405 120.994101 C624.902119 121.434958 623.798238 122.228583 622.635823 122.858801 C623.434834 124.194220 623.913777 126.014151 625.084187 126.787406 C633.429402 132.300772 641.744832 137.896399 650.398457 142.897040 C662.596761 149.946005 674.790364 157.128363 687.553304 163.025794 C694.631490 166.296454 702.849873 167.128760 710.581563 168.943915 C714.657124 169.900733 716.520100 167.210181 717.603535 163.968665 C720.638875 154.886939 723.631001 145.787024 726.388570 136.618613 C727.116658 134.198065 726.539998 131.390875 727.237141 128.954291 C730.258687 118.394888 733.820210 107.984091 736.640584 97.374426 C740.561116 82.626395 743.707600 67.669455 747.776814 52.965613 C749.402486 47.091406 751.925679 41.211981 755.241902 36.117011 C760.586018 27.906180 773.493977 29.420310 777.555013 38.666937 C785.168782 56.002768 792.795064 73.365515 799.413777 91.091345 C802.413289 99.124487 806.827657 102.007758 814.903401 101.045203 C818.682332 100.594794 822.559651 100.968115 826.392293 100.968115 C832.939778 100.968115 834.805745 98.723868 833.679036 92.741690 C832.797200 88.059195 831.889119 83.315512 831.754842 78.577399 C831.626546 74.051703 830.249593 70.900610 826.047078 68.929709 C821.781697 66.929450 816.709798 66.078284 815.231892 60.205252 C814.282185 56.431372 814.830647 53.673407 818.545735 52.670752 C824.263753 51.127524 828.396443 48.655234 829.938435 42.276602 C830.317830 40.707465 834.413655 39.292944 836.873860 39.160330 C839.897054 38.997351 842.975911 40.389014 846.068440 40.862143 C850.178181 41.490820 849.653523 45.148566 850.939656 47.698126 C852.234456 50.264884 853.973958 52.042365 857.458333 52.064749 C868.320149 52.134543 879.185262 52.503241 890.037556 53.005316 C900.767415 53.501746 911.515584 53.985617 922.193806 55.080145 C929.209920 55.799277 936.178059 57.348364 943.023274 59.092383 C944.539510 59.478690 946.044270 62.121512 946.447102 63.966971 C946.769368 65.443839 945.884236 68.241843 944.724934 68.815222 C936.368245 72.947882 927.593709 74.137290 918.283040 72.250723 C913.240193 71.228934 907.967244 71.076834 902.792683 71.021826 C888.296834 70.867713 873.797932 71.006491 859.300618 70.943121 C855.308308 70.925681 853.287679 72.726859 853.666585 76.677359 C854.571004 86.104010 855.693440 95.509680 856.606282 104.935584 C856.949544 108.480704 859.131795 109.002677 862.063679 108.990546 C874.727986 108.938117 887.397176 109.165610 900.055135 108.877219 C905.623616 108.750357 911.161092 107.548300 916.728841 106.998602 C920.417928 106.634406 923.684285 107.282721 925.678670 111.084036 C927.730916 114.995627 924.539021 116.589804 922.542439 118.464636 C917.004231 123.664908 909.604817 124.800223 902.652303 125.764502 C892.205281 127.213446 881.567586 127.268790 871.015950 127.991782 C868.477010 128.165762 865.679890 128.047522 863.486287 129.086875 C858.480428 131.458701 860.601399 136.411505 860.851033 140.121848 C861.093953 143.732199 863.004109 147.263220 864.394490 150.744315 C864.830403 151.835852 865.771931 152.990851 866.792317 153.541052 C874.040974 157.449408 876.177693 165.682776 871.039632 171.978674 C862.743245 182.144904 854.413167 181.175299 847.255818 170.064093 C842.511067 162.698401 840.960896 154.389044 840.660603 145.813193 C840.311360 135.845999 836.994710 127.251135 829.575398 120.397086 C827.654256 118.622321 825.884236 115.383719 823.890218 115.257285 C819.676839 114.990180 815.130574 115.768088 811.228352 117.360709 C810.057454 117.838568 809.739095 122.670828 810.446614 125.094855 C813.560262 135.762732 817.219563 146.270529 820.626668 156.853858 C823.015828 164.275794 819.984456 171.408820 813.863118 172.968115 C806.967488 174.724646 799.350789 169.614264 797.598836 162.400641 C794.735738 150.612204 791.760335 138.847510 788.585164 127.139838 C786.902242 120.934104 785.853841 120.641593 779.653096 121.934821 C772.570027 123.412055 765.450703 124.734656 758.315755 125.938361 C751.924092 127.016669 746.897115 133.466223 744.544453 142.405539 C741.512776 153.924262 738.086629 165.357703 734.321736 176.658453 C731.791890 184.252112 724.184041 188.085059 715.648824 184.218115 C712.283223 182.693274 707.585591 183.511603 703.606221 184.065497 C695.912801 185.136389 688.863362 182.939581 681.812886 180.612982 C664.035725 174.746680 648.810262 164.176734 633.270589 154.166297 C627.130879 150.211218 620.754720 146.613852 614.386128 143.031622 C613.134969 142.327872 611.423604 142.442359 609.924458 142.179495 C610.161580 143.334677 610.437520 144.483435 610.629781 145.646048 C612.306966 155.785498 614.111714 165.906867 615.575276 176.077246 C616.299519 181.109412 613.291524 184.055029 608.915364 185.998877 C604.961263 187.755225 601.629231 186.918524 598.421773 184.285986 C594.907185 181.401434 593.863240 177.742041 593.501790 173.269843 C592.875874 165.524878 591.390034 157.850989 590.325337 150.138907 C589.995015 147.746878 589.924214 145.319693 589.618367 142.923453 C589.290913 140.357871 588.881734 137.797415 588.318929 135.277014 C588.272847 135.070639 586.336690 134.822791 586.010823 135.210074 C577.190816 145.693335 564.349446 150.749655 553.906758 159.051306 C544.237996 166.737769 534.412068 174.361578 523.943684 180.868109 C514.177876 186.937995 504.034383 193.342352 491.589314 191.930335 C479.117207 190.515265 468.954304 185.597846 460.265645 175.626563 C450.566182 164.495184 448.047261 151.703467 446.737019 138.140540 C446.140950 131.970725 446.635823 125.695517 446.635823 118.968115 M640.135823 101.968131 C641.522176 101.301459 642.843526 100.334204 644.305684 100.018439 C652.015218 98.353323 657.664265 93.265524 663.482198 88.538428 C667.176045 85.537238 666.193806 81.189322 661.766743 79.594489 C646.180745 73.979743 630.037068 71.832160 613.556111 72.074042 C611.904927 72.098288 610.150044 73.416052 608.660115 74.446875 C604.712178 77.178275 604.850484 81.718588 604.776326 85.638068 C604.631184 93.304709 605.319783 100.986075 605.628865 108.662741 C605.796590 112.827826 608.835713 113.873038 611.725301 112.837348 C620.972737 109.522818 630.014607 105.634772 640.135823 101.968131 M779.135823 95.968100 C775.735860 87.234793 772.387166 78.480734 768.872639 69.793784 C768.419453 68.673789 767.107014 67.901480 766.192586 66.968115 C765.340352 68.100333 764.194600 69.118369 763.699971 70.389700 C762.806660 72.685462 762.227071 75.114523 761.649373 77.519858 C759.614400 85.993384 757.516438 94.455252 755.715474 102.979224 C755.234700 105.254813 754.972920 108.363791 758.987325 107.939963 C764.209859 107.388602 769.433736 106.774664 774.615315 105.931342 C780.587727 104.959296 781.854695 102.400153 779.135823 95.968100 z"/><path class="selected"  fill="#000000" opacity="1.000000" stroke="none" 
 	d="
M116.635823 89.968115 C112.563283 92.634772 108.699483 95.918265 104.373128 96.726813 C96.308644 98.233923 87.984395 98.463995 79.751515 98.931860 C65.705708 99.730063 51.638722 100.181433 37.606480 101.152426 C36.192021 101.250311 33.842076 103.889807 33.809544 105.390616 C33.513509 119.047141 33.699559 132.713339 33.573338 146.375113 C33.552190 148.663367 34.237569 149.253088 36.336903 148.983435 C44.415517 147.945700 52.480946 146.727591 60.590047 146.022162 C74.157368 144.841925 87.752888 144.000662 100.750417 149.577292 C103.783864 150.878775 105.808095 151.303931 105.748402 146.552008 C105.642079 138.087561 108.894185 130.346411 112.702596 122.994727 C117.831349 113.094336 123.065511 103.089835 132.137288 96.097891 C137.232533 92.170798 140.921254 85.786444 148.044545 85.160803 C156.689198 84.401572 165.403371 83.989401 174.067616 84.209342 C176.250752 84.264746 178.518819 87.133124 180.472066 88.997733 C188.240804 96.413977 196.571706 103.387396 203.392171 111.605567 C209.045796 118.417746 211.486775 127.354788 212.523000 136.195624 C213.620045 145.555701 209.038747 153.270941 203.638020 160.443396 C194.200276 172.977118 181.776662 182.133185 168.289510 189.571539 C155.144337 196.821387 140.651326 197.187079 127.000111 191.489752 C115.314351 186.612677 108.323872 176.866522 106.623647 163.894171 C106.378194 162.021277 106.437184 159.875189 105.503407 158.391760 C104.580556 156.925726 102.438771 155.049048 101.070912 155.223853 C87.855122 156.912970 74.662740 158.834448 61.520222 161.028449 C53.491780 162.368720 45.513753 164.111701 37.628789 166.126532 C36.031453 166.534705 33.824117 168.969367 33.816823 170.479071 C33.764577 181.293219 32.698033 192.201911 36.453633 202.791052 C37.079533 204.555823 35.757634 207.463782 34.555302 209.344489 C29.895604 216.633276 24.520650 218.305945 18.039265 213.777655 C15.471761 211.983862 13.339391 208.222357 12.853078 205.072058 C11.810979 198.321448 11.786549 191.387702 11.705281 184.524695 C11.657658 180.501746 12.874638 176.406622 12.433903 172.465735 C12.141927 169.854895 10.527989 166.511664 8.433690 165.170325 C4.379231 162.573523 4.402638 159.150794 4.717702 155.355170 C4.759984 154.845679 5.848058 154.263007 6.557896 153.995245 C10.767812 152.407202 12.808430 149.621481 12.697499 144.922202 C12.485234 135.929663 12.740483 126.926810 12.590794 117.931754 C12.518147 113.566718 12.389149 109.115607 11.444081 104.891776 C11.023244 103.010916 8.814748 100.981467 6.914601 100.081702 C0.904164 97.235632 -1.275005 93.956671 0.719701 89.031256 C1.160283 87.943335 2.528569 86.876151 3.696523 86.495474 C11.212758 84.045783 17.953862 78.750083 26.485570 80.009955 C28.297612 80.277533 30.371632 80.643729 31.736440 81.714560 C35.771352 84.880408 39.562962 86.128455 45.133717 85.278403 C53.112416 84.060935 61.437032 85.345084 69.574361 84.875067 C80.345601 84.252905 91.069173 82.846182 101.831837 82.018637 C107.360799 81.593543 112.734731 82.416998 116.797169 86.759985 C117.222432 87.214606 116.712086 88.544379 116.635823 89.968115 M186.635823 121.468115 C182.882527 114.917502 178.873952 108.565436 171.551076 105.417502 C166.603139 103.290503 161.635579 101.145834 156.515431 99.515936 C154.629781 98.915671 151.572469 98.966651 150.276875 100.110617 C146.393727 103.539237 142.956349 107.521048 139.630757 111.524375 C125.826924 128.141455 121.988057 146.818198 128.671956 167.435339 C131.478444 176.092291 141.440663 181.026495 150.351888 179.023169 C162.595143 176.270758 172.472462 169.815405 180.571400 160.492804 C191.751973 147.622962 194.664784 138.182913 186.635823 121.468115 z"/><path class="selected"  fill="#000000" opacity="1.000000" stroke="none" 
 	d="
M1289.635823 116.968115 C1288.873860 121.297049 1291.575032 123.354758 1293.816609 125.650046 C1298.664998 130.614066 1298.889241 143.371100 1294.413045 148.742346 C1290.688802 153.210944 1282.400716 151.997626 1277.717244 148.436942 C1273.409871 145.162192 1271.599080 140.722327 1271.500447 135.003455 C1271.220296 118.774329 1270.253133 102.558005 1269.652547 86.333090 C1269.232137 74.975363 1268.907185 63.613150 1268.661336 52.250296 C1268.533284 46.328421 1267.163777 41.088553 1262.990071 36.509543 C1261.929646 35.346320 1262.018513 31.149695 1263.066365 30.385367 C1268.335408 26.541693 1273.897298 22.959166 1279.762654 20.126448 C1283.180135 18.476004 1289.934041 23.245261 1289.436848 27.214209 C1288.086018 37.996100 1295.473714 44.303977 1300.854329 51.567435 C1308.838460 62.345557 1317.332234 72.744711 1325.515950 83.376730 C1331.724324 91.442313 1337.753377 99.645880 1343.972005 107.703253 C1344.541463 108.440970 1345.910970 108.561148 1346.909016 108.968115 C1347.151326 107.612891 1347.870076 106.133399 1347.554524 104.923636 C1346.070393 99.233588 1343.955281 93.692862 1342.711385 87.958716 C1340.445149 77.512503 1338.268269 67.019461 1336.764607 56.444953 C1335.755086 49.346472 1335.648640 42.069495 1335.749348 34.880927 C1335.815633 30.149085 1336.647786 25.357031 1337.733113 20.731879 C1338.673665 16.724989 1345.208699 11.345770 1348.727742 12.209410 C1351.698933 12.938567 1354.933430 15.269293 1356.581868 17.835211 C1357.813435 19.752272 1357.260701 23.330405 1356.538777 25.897910 C1353.535481 36.576346 1354.320515 47.097739 1356.557942 57.781836 C1358.531575 67.206336 1359.314534 76.897452 1361.578816 86.239264 C1364.162312 96.898749 1367.771199 107.311804 1370.996907 117.812750 C1372.811360 123.719840 1374.932942 129.537726 1376.591756 135.486304 C1378.858479 143.615576 1371.390218 149.587164 1362.130696 146.819205 C1358.939656 145.865332 1355.840779 144.000189 1353.196126 141.920310 C1337.106404 129.267203 1324.692097 113.269080 1312.599202 96.965750 C1306.319417 88.499640 1299.703084 80.280524 1293.115193 72.048728 C1292.308430 71.040564 1290.733846 70.646674 1289.515218 69.968131 C1289.222127 71.272574 1288.681355 72.575705 1288.674519 73.881629 C1288.609578 86.213568 1288.594197 98.546286 1288.680501 110.877966 C1288.693562 112.743491 1289.302449 114.604834 1289.635823 116.968115 z"/><path class="selected"  fill="#000000" opacity="1.000000" stroke="none" 
 	d="
M1426.385823 37.718115 C1418.997395 58.234519 1420.213094 79.329108 1420.924031 100.164664 C1421.318196 111.721381 1423.784627 123.414267 1426.887654 134.610556 C1429.696370 144.745612 1435.913533 149.327460 1442.851521 147.726233 C1447.196492 146.723395 1451.487386 143.933386 1454.951985 140.955695 C1465.859578 131.580878 1476.771077 122.140585 1486.881917 111.933920 C1493.463704 105.289923 1498.879720 97.554495 1500.789021 87.751410 C1502.090535 81.069571 1503.098836 78.268210 1493.934895 79.041342 C1486.320760 79.683707 1478.690633 80.611960 1471.201009 82.089438 C1465.935506 83.128165 1460.957234 85.545584 1455.734700 86.900488 C1450.344807 88.298834 1443.537434 84.849646 1442.640828 80.694174 C1441.592488 75.835288 1445.219441 71.727011 1452.250935 70.139166 C1459.998860 68.389548 1468.029378 67.793524 1475.967732 67.009253 C1487.701497 65.850012 1499.448323 64.711539 1511.216756 64.046057 C1521.361409 63.472403 1519.166829 64.949225 1522.620198 72.184042 C1526.377522 80.055563 1522.391194 87.362067 1520.333699 94.579321 C1517.931111 103.006339 1512.731526 110.052893 1506.699788 116.407050 C1500.704427 122.722601 1495.143391 129.529044 1488.635457 135.261466 C1478.400105 144.277121 1467.800984 152.936652 1456.853108 161.070197 C1446.177449 169.001654 1425.326619 167.668707 1417.902058 158.761328 C1410.026936 149.313208 1406.545125 138.341940 1404.424153 126.296607 C1400.688191 105.080435 1401.554036 83.789176 1401.787923 62.519232 C1401.959065 46.966727 1406.826131 32.746695 1416.695027 20.229300 C1424.380086 10.481986 1434.533284 5.015296 1445.853841 1.388411 C1453.258748 -0.983957 1460.856404 -0.230676 1468.014363 2.996184 C1473.247395 5.355277 1476.335408 9.938483 1475.497639 13.605826 C1473.785970 21.099799 1468.774617 23.024832 1463.138509 23.069861 C1458.650838 23.105719 1454.975911 22.374289 1451.755818 18.858008 C1450.592610 17.587813 1447.580159 16.967619 1445.817830 17.471518 C1438.463826 19.574263 1432.537923 23.667899 1429.610799 31.197379 C1428.774617 33.348105 1427.635823 35.381140 1426.385823 37.718115 z"/><path class="selected"  fill="#000000" opacity="1.000000" stroke="none" 
 	d="
M1079.885823 51.718115 C1080.165486 46.592520 1079.023885 42.335883 1075.839436 38.407996 C1074.994221 37.365500 1075.284627 34.450171 1076.160603 33.127753 C1080.165242 27.081046 1083.610554 26.217276 1091.609090 27.934485 C1101.576619 30.074469 1111.776448 31.341528 1121.545857 34.138342 C1132.031209 37.140128 1142.158650 41.413504 1152.391927 45.265631 C1156.996907 46.999106 1161.357259 49.458212 1166.042073 50.888785 C1177.572469 54.409781 1180.275471 65.136267 1171.596883 72.702887 C1166.046346 77.542243 1161.719441 83.773581 1156.232381 88.699698 C1148.344807 95.780966 1140.015218 102.389151 1131.649373 108.910819 C1126.926961 112.592291 1126.465413 112.801413 1130.790364 116.526877 C1143.263387 127.270880 1156.016438 137.689597 1168.505696 148.415183 C1173.581868 152.774634 1178.436971 157.407446 1185.439412 158.185278 C1187.757039 158.442694 1190.248494 158.077673 1192.533406 157.497351 C1197.626790 156.203711 1201.504964 159.519110 1200.635945 164.677924 C1199.775227 169.787207 1195.055745 173.650641 1189.717854 174.000250 C1180.671223 174.592780 1172.979085 170.818945 1166.160115 165.788611 C1153.302205 156.303473 1140.979939 146.093878 1128.390340 136.242636 C1121.237874 130.645896 1114.023518 125.127066 1106.757771 119.678671 C1105.964314 119.083655 1104.504231 118.792243 1103.621907 119.108634 C1103.043172 119.316153 1102.627400 120.891287 1102.685506 121.819815 C1103.270955 131.208853 1104.185139 140.583930 1104.486043 149.979605 C1104.562459 152.368140 1103.475545 155.993872 1101.734090 157.006598 C1097.221516 159.630988 1092.176106 158.047278 1088.498982 154.980231 C1086.383992 153.216162 1085.437825 149.627875 1084.785481 146.679312 C1084.338216 144.658377 1085.574788 142.327048 1085.590779 140.131064 C1085.682942 127.473685 1085.895833 114.808386 1085.561360 102.159155 C1085.238240 89.934714 1084.547078 77.705618 1083.509846 65.521811 C1083.119832 60.941367 1081.302449 56.482443 1079.885823 51.718115 M1100.635823 49.468115 C1100.635823 54.517706 1100.426472 59.577796 1100.679402 64.614691 C1101.200887 74.997336 1101.910237 85.372199 1102.720418 95.736319 C1102.808308 96.860465 1104.044270 98.794516 1104.786824 98.813468 C1108.162434 98.899603 1111.804768 99.145560 1114.893391 98.046896 C1129.892781 92.711600 1141.846394 83.402243 1150.384724 69.787131 C1153.766682 64.394202 1153.637044 62.375693 1147.819661 60.036765 C1137.402180 55.848319 1127.016438 51.306571 1116.204427 48.507269 C1111.780476 47.361884 1105.953328 44.372901 1100.635823 49.468115 z"/><path class="selected"  fill="#000000" opacity="1.000000" stroke="none" 
 	d="
M994.635823 152.968115 C994.790730 159.493292 999.551961 157.013464 1001.998250 156.790961 C1011.984456 155.882666 1021.897176 154.200751 1031.860432 152.997229 C1041.262898 151.861426 1050.687703 150.891516 1060.117879 150.010932 C1063.293660 149.714377 1066.043538 151.122962 1066.477620 154.442664 C1066.865315 157.407691 1065.815511 160.050635 1062.249348 161.040503 C1060.055135 161.649573 1058.153523 163.384924 1055.954182 163.890418 C1049.222371 165.437689 1042.424031 166.711310 1035.625813 167.949591 C1026.156697 169.674384 1016.683308 172.403601 1007.175740 172.563727 C999.571492 172.691748 997.427693 175.797156 995.748006 182.113776 C994.545613 186.635840 989.931233 188.673804 984.427937 187.979010 C979.803792 187.395209 975.675130 183.175971 974.480916 178.998450 C973.835164 176.739447 971.821248 174.713995 970.045857 172.968237 C966.276570 169.261939 965.857991 167.740515 969.468831 162.506598 C970.649373 160.795538 971.645467 158.425482 971.520345 156.432440 C970.750569 144.165762 969.634236 131.920859 968.636433 119.668448 C967.966756 111.444983 967.639973 103.176611 966.563557 95.006857 C964.500203 79.349173 966.292317 63.337317 962.086263 47.886267 C961.186360 44.580557 965.103474 38.702719 968.767171 38.026724 C972.077718 37.415869 975.513753 36.866751 978.829915 37.123374 C980.982991 37.289984 984.053792 38.407507 984.914632 40.044806 C987.420857 44.811804 991.510579 44.289099 995.347127 43.881461 C1005.488484 42.803961 1015.663655 41.720236 1025.673421 39.833121 C1033.415974 38.373465 1040.873128 35.451315 1048.574055 33.691077 C1051.309163 33.065878 1055.246907 32.916251 1057.072469 34.432105 C1058.929646 35.974280 1060.381673 40.826315 1059.310872 42.469321 C1057.253743 45.625906 1053.566243 48.084586 1050.063679 49.866538 C1039.234700 55.375861 1027.428914 57.255469 1015.428181 57.941657 C1007.183675 58.413031 998.913289 58.481238 990.684041 59.114371 C989.258870 59.224021 986.807820 61.268500 986.822713 62.393073 C986.934285 70.875968 986.982014 79.433188 988.186360 87.803656 C989.058675 93.866019 991.551472 94.477606 998.248128 92.893500 C1009.595906 90.209082 1021.010701 90.484015 1032.561116 91.791617 C1037.246663 92.322058 1041.955281 92.050086 1044.540730 96.568259 C1045.857259 98.869284 1046.121541 101.903449 1046.210164 104.627371 C1046.222615 105.012503 1042.521321 105.902731 1040.545613 105.883765 C1037.014119 105.849906 1033.466389 104.872931 1029.962971 105.046179 C1018.074544 105.633978 1006.305379 106.852042 994.894246 110.822012 C990.417195 112.379584 990.310628 115.159491 990.659016 118.620886 C991.590901 127.880026 992.616170 137.129996 993.651204 146.378363 C993.879720 148.419440 994.302449 150.438773 994.635823 152.968115 z"/><path class="selected"  fill="#000000" opacity="1.000000" stroke="none" 
 	d="
M314.635823 152.968115 C314.374409 136.409491 319.220113 121.892401 327.601888 108.333411 C334.967122 96.418952 346.754109 90.511908 358.794148 85.050177 C365.628438 81.949912 372.950337 80.332831 380.600179 80.957358 C385.269246 81.338538 389.228230 82.254920 392.201070 86.799140 C396.327534 93.106848 403.747273 94.596869 410.390279 96.953253 C423.669514 101.663580 430.810628 111.675986 432.384480 124.997061 C433.439534 133.926657 428.699178 141.856452 423.834309 149.329398 C415.644856 161.909247 403.980794 170.259528 390.996358 177.126898 C385.794087 179.878333 380.783894 183.023627 375.458028 185.498511 C372.546895 186.851325 369.196858 187.415564 365.979817 187.926703 C352.694051 190.037665 340.058064 187.665076 329.251424 179.799140 C320.636189 173.528296 314.830647 164.836951 314.635823 152.968115 M343.135823 165.968115 C349.200764 173.311255 364.430623 174.623602 373.278950 169.596411 C380.510823 165.487616 387.517659 160.653876 393.684468 155.098303 C399.100545 150.219122 403.892415 144.310507 407.718221 138.092505 C411.981526 131.163428 410.646626 122.897421 406.989033 116.434668 C404.754292 112.486121 398.964619 109.957770 394.252888 108.125540 C384.347859 104.273886 374.144429 101.155707 363.949055 98.120719 C362.366963 97.649771 359.770283 98.716147 358.336507 99.906928 C343.510152 112.220023 334.249959 127.378836 335.731770 147.383765 C336.217000 153.934149 335.947224 161.128851 343.135823 165.968115 z"/><path class="selected"  fill="#000000" opacity="1.000000" stroke="none" 
 	d="
M260.385823 185.218115 C259.302480 176.320441 258.530507 167.666266 257.621053 159.026618 C256.346242 146.916129 255.044209 134.807471 253.607289 122.715460 C252.763753 115.617041 251.379231 108.575339 250.743550 101.462943 C250.422932 97.875266 248.008412 96.690650 245.709676 97.116660 C235.575093 98.994864 225.416981 100.977271 215.513234 103.788153 C208.975179 105.643805 203.575734 103.912238 198.283803 100.815314 C197.508015 100.361304 197.536855 97.767249 197.875264 96.323157 C198.758046 92.556174 201.361653 90.005667 205.047108 89.121344 C216.884694 86.281027 228.670308 82.952658 240.677327 81.164603 C253.288564 79.286582 266.150868 79.159415 278.868275 77.909049 C289.502095 76.863547 300.054189 74.879370 310.700276 74.099448 C319.479512 73.456290 328.352559 73.798239 337.152791 74.277533 C337.888936 74.317618 339.654622 79.618491 338.736287 80.926123 C336.718037 83.799963 333.605000 86.878195 330.371175 87.737952 C321.580830 90.075018 312.544331 91.676260 303.512532 92.861426 C294.693623 94.018637 285.751027 94.202902 276.880574 95.010458 C272.561330 95.403677 273.503102 99.001486 273.713399 101.592444 C274.111836 106.500647 275.153950 111.354804 275.599416 116.261328 C276.709950 128.493689 277.089223 140.818533 278.771474 152.966437 C280.970601 168.846564 280.786855 185.217719 287.457845 200.290595 C288.599568 202.870307 286.938588 204.180518 284.998067 204.927863 C274.972127 208.789465 266.261555 204.588172 262.679402 194.118598 C261.724812 191.328681 261.302510 188.356574 260.385823 185.218115 z"/><path class="selected"  fill="#000000" opacity="1.000000" stroke="none" 
 	d="
M1234.635823 38.968115 C1235.924763 47.423804 1237.215413 55.379218 1238.498494 63.335852 C1238.575276 63.811682 1238.608601 64.296347 1238.633382 64.778388 C1239.302937 77.819098 1240.355183 90.854956 1240.526326 103.902335 C1240.694905 116.741797 1240.021931 129.594641 1239.613850 142.438300 C1239.408528 148.900565 1235.782307 152.067267 1229.050252 151.968146 C1223.517537 151.886664 1218.471761 147.107855 1218.687703 141.597800 C1219.192342 128.717032 1220.654378 115.836386 1220.456502 102.975256 C1220.226888 88.063025 1219.122639 73.116644 1217.444661 58.293021 C1216.507283 50.012183 1213.602254 41.958167 1211.673421 33.780829 C1211.400349 32.623206 1211.336995 31.249823 1211.692342 30.141730 C1212.729573 26.907340 1220.352010 22.673514 1224.764119 23.014990 C1229.724934 23.398932 1231.193684 27.464392 1232.602498 31.318167 C1233.450887 33.639090 1233.969197 36.080740 1234.635823 38.968115 z"/><path class="selected"  fill="#000000" opacity="1.000000" stroke="none" 
 	d="
M568.385823 101.718115 C566.669820 101.502081 565.203755 101.036063 563.737752 100.570044 C563.918477 100.369422 564.162312 99.965277 564.270467 99.998816 C565.736592 100.453070 567.183858 100.968115 568.385823 101.718115 z"/><path class="selected"  fill="#000000" opacity="1.000000" stroke="none" 
 	d="
M562.635823 99.968115 C562.302510 99.137640 561.960713 97.809027 561.666585 96.469931 C561.654805 96.416403 562.095113 96.263587 562.324727 96.157019 C562.428426 97.260718 562.532124 98.364417 562.635823 99.968115 z"/></svg>