<?xml version="1.0" encoding="utf-8"?><!DOCTYPE svg PUBLIC "-//W3C//DTD SVG 1.1//EN" "http://www.w3.org/Graphics/SVG/1.1/DTD/svg11.dtd"><svg version="1.1" id="Contours" xmlns="http://www.w3.org/2000/svg" xmlns:xlink="http://www.w3.org/1999/xlink" x="0px" y="0px" width="1892.239380px" height="1892.239380px" viewBox="0.000000 0.000007 1892.239380 1966.796021" enable-background="new 0 0 1892.239380 1892.239380" xml:space="preserve" stroke="black" fill="none" stroke-linecap='round' stroke-linejoin='round'><path class="selected"  fill="#000000" opacity="1.000000" stroke="none" 
 	d="
M1693.854621 1338.657220 C1693.233161 1354.847528 1695.212531 1369.706781 1699.945197 1384.138421 C1700.828010 1386.829949 1698.524421 1388.520990 1699.351813 1391.658685 C1701.298347 1399.039178 1701.517097 1406.959832 1701.757941 1414.683099 C1702.028205 1423.351068 1702.306159 1431.724847 1705.554328 1440.136956 C1707.787848 1445.921991 1707.478400 1452.786370 1707.798347 1459.193719 C1708.632819 1475.907708 1706.995490 1493.117181 1710.528571 1509.210321 C1713.508552 1522.784539 1712.812995 1536.849969 1717.589728 1550.136102 C1719.806647 1556.301995 1719.584113 1563.477655 1719.752082 1570.213372 C1719.952765 1578.252191 1720.560065 1586.080804 1723.679938 1593.624139 C1724.386237 1595.331903 1723.849006 1597.561883 1723.851203 1599.551385 C1723.859626 1607.217401 1723.883185 1614.883538 1723.848273 1622.549432 C1723.789435 1635.477166 1724.954352 1648.263909 1727.783820 1660.905145 C1728.281135 1663.126947 1727.757697 1665.560296 1727.870612 1667.887933 C1728.504035 1680.945672 1728.990119 1694.016351 1730.008185 1707.045037 C1730.233893 1709.932733 1732.564948 1712.608270 1733.623420 1715.492791 C1734.582282 1718.106195 1736.444953 1721.397821 1735.615851 1723.474847 C1732.763068 1730.620355 1732.032966 1739.119622 1725.225715 1744.083734 C1722.323737 1746.199945 1718.518439 1747.122186 1715.062385 1748.424798 C1705.547004 1752.011468 1696.006476 1755.532098 1686.461555 1759.039300 C1681.252692 1760.953241 1675.762336 1764.842889 1670.840949 1764.239007 C1659.847175 1762.889886 1648.083014 1762.201165 1639.487922 1753.308465 C1636.245490 1749.953851 1632.608649 1746.934442 1629.691047 1743.326043 C1627.405524 1740.499383 1623.992194 1739.458367 1621.871711 1740.862664 C1615.662726 1744.974847 1609.870368 1742.069574 1604.628547 1740.070184 C1598.488166 1737.728021 1592.525031 1736.732659 1586.055549 1736.549310 C1573.991584 1736.207635 1561.864387 1738.073968 1549.821174 1734.895623 C1546.517585 1734.023675 1542.448127 1735.146356 1538.578132 1736.118890 C1533.084723 1737.499383 1526.387092 1736.021478 1520.716681 1734.183465 C1515.728034 1732.566400 1511.070319 1732.608758 1506.040290 1732.405511 C1496.990729 1732.039666 1487.866706 1734.626947 1478.732795 1730.977655 C1475.463996 1729.671746 1470.769294 1732.258782 1466.685920 1732.606317 C1455.318000 1733.573846 1443.758185 1730.868646 1432.489264 1734.558587 C1430.382209 1735.248651 1427.693976 1735.193109 1425.554816 1734.549066 C1420.645514 1733.070916 1416.162848 1733.465814 1411.638190 1735.777215 C1410.295661 1736.463250 1407.958137 1737.176995 1407.108283 1736.527703 C1401.955939 1732.591180 1396.208503 1735.061761 1390.831550 1734.843377 C1385.810187 1734.639398 1380.708625 1736.614495 1375.673713 1736.477777 C1370.870368 1736.347161 1366.092414 1736.628533 1361.329963 1736.762445 C1348.598517 1737.120111 1335.640876 1736.696893 1323.223762 1739.006585 C1309.716559 1741.519158 1296.365363 1739.715448 1282.991828 1740.675286 C1277.243537 1741.087762 1271.247443 1739.228875 1265.782355 1742.595697 C1265.057624 1743.042230 1263.735724 1742.914300 1262.833869 1742.616937 C1255.012214 1740.039422 1247.669318 1742.303949 1240.295783 1744.618280 C1239.385627 1744.904046 1238.110480 1745.020379 1237.338996 1744.600701 C1230.173224 1740.701409 1223.095832 1744.390741 1215.964484 1744.537347 C1171.915900 1745.442620 1127.861335 1746.163568 1083.805427 1746.541253 C1072.089118 1746.641717 1060.366950 1745.016351 1048.635383 1744.780023 C1042.247931 1744.651239 1035.711677 1743.433465 1029.375129 1746.463128 C1027.442145 1747.387445 1024.400153 1746.040643 1021.876349 1745.664910 C1020.008063 1745.386956 1018.169318 1744.818109 1016.295539 1744.683831 C978.612678 1741.984613 940.863654 1742.980340 903.136054 1742.580804 C878.409980 1742.318963 853.691413 1741.334832 828.970038 1740.652215 C818.111213 1740.352532 807.139594 1743.176751 796.382941 1738.843743 C794.033332 1737.897332 790.728889 1739.297357 787.868293 1739.649774 C785.338569 1739.961419 782.633124 1741.081536 780.318122 1740.530389 C767.807624 1737.553094 755.476264 1737.905755 742.909919 1740.470941 C737.470405 1741.581414 731.538825 1741.236199 725.970405 1740.498284 C720.128669 1739.724115 718.925666 1743.253656 717.887702 1747.327142 C716.423408 1753.074334 715.686347 1759.052240 713.757819 1764.626947 C708.700873 1779.243890 704.239570 1794.045770 699.954841 1808.886102 C695.523017 1824.235711 693.225776 1840.182977 689.274360 1855.561883 C685.959296 1868.463616 687.532172 1882.112542 681.921454 1894.424310 C681.418281 1895.528314 681.915473 1897.063226 681.844428 1898.392816 C681.465766 1905.475824 681.619697 1912.471429 680.287177 1919.643548 C678.984260 1926.656976 679.833137 1934.843255 682.320441 1941.557855 C684.562690 1947.611077 683.381904 1953.192132 683.596992 1958.912591 C683.684638 1961.244134 681.169684 1965.484368 679.390937 1965.740228 C673.715583 1966.555902 666.938056 1967.760736 662.195502 1965.475579 C648.832770 1959.036370 643.132636 1946.429437 642.158698 1932.337396 C641.703620 1925.751947 644.058173 1919.030999 639.940009 1912.789056 C639.327216 1911.860101 639.351630 1909.879388 639.938056 1908.895745 C643.218390 1903.393792 641.773871 1897.420892 641.776557 1891.675775 C641.783698 1876.539178 644.697394 1861.923333 647.541755 1847.104852 C651.960822 1824.082513 658.860114 1801.898919 665.452338 1779.508538 C668.347480 1769.675042 670.275214 1759.655267 674.930671 1750.377313 C675.712043 1748.820184 675.425178 1745.692132 674.323127 1744.509637 C673.173102 1743.275384 670.372382 1742.963861 668.413093 1743.208367 C660.873420 1744.149652 653.406867 1746.234246 645.866157 1746.485101 C633.601874 1746.892938 621.409553 1746.735833 609.476081 1750.479486 C606.648139 1751.366571 603.129340 1749.868157 599.918586 1749.761834 C595.216865 1749.605950 590.505378 1749.668206 585.800239 1749.755120 C584.925178 1749.771112 584.019782 1750.694329 583.197761 1750.599237 C578.460517 1750.051873 573.555671 1748.213494 569.074409 1748.973992 C564.713019 1749.714105 560.832221 1750.760369 556.666755 1748.681146 C553.105353 1746.903558 549.839789 1747.547723 547.076301 1750.439813 C532.930793 1765.243157 519.057441 1780.319207 504.555182 1794.764154 C495.334876 1803.947991 487.963264 1815.694451 475.891822 1821.189935 C465.016608 1826.140618 454.980811 1833.804071 441.642859 1832.856561 C427.980353 1831.885980 417.553229 1823.030755 411.432776 1810.714349 C405.431281 1798.637445 411.663520 1789.968133 415.376380 1780.276971 C417.905616 1773.675164 421.503242 1767.489984 424.438087 1761.034295 C427.705054 1753.847772 425.774390 1750.528558 418.066566 1750.755365 C411.995521 1750.933831 405.938361 1752.639764 399.896033 1752.528314 C385.166114 1752.256707 370.453498 1751.085443 355.723365 1750.772576 C349.670478 1750.643914 343.653510 1750.148797 337.428840 1752.287835 C333.324378 1753.698358 327.925269 1751.947259 323.248816 1750.944696 C316.329993 1749.461419 310.561683 1751.662957 305.661750 1756.035516 C302.599433 1758.768060 300.594794 1762.649041 297.751563 1765.672357 C292.769599 1770.969842 287.376655 1775.880853 282.396277 1781.179803 C276.131415 1787.845208 269.409766 1794.249993 264.211951 1801.693719 C260.391822 1807.164300 255.165992 1809.891351 250.319007 1813.729852 C242.204078 1820.156121 233.461982 1821.940789 224.110404 1820.451654 C215.284476 1819.046136 207.460746 1814.703729 201.872886 1807.253656 C200.944114 1806.015496 200.401710 1804.478997 199.433066 1803.280633 C194.927039 1797.705438 194.915183 1791.809930 197.903480 1785.603143 C211.812385 1756.714471 223.461707 1726.772454 238.760642 1698.516229 C241.609443 1693.254510 243.750861 1687.716668 248.055518 1683.359124 C249.091498 1682.310418 249.805793 1680.733758 250.180121 1679.274774 C253.248389 1667.315545 261.250678 1657.869744 266.455909 1647.010491 C269.917457 1639.788934 272.646399 1632.178338 276.573798 1625.234246 C278.475806 1621.871575 273.910499 1620.519036 275.715095 1617.482415 C277.085334 1615.176873 277.824378 1612.094354 277.723517 1609.399407 C277.506537 1603.602899 278.004249 1597.835809 277.884467 1592.052362 C277.753364 1585.722161 277.599891 1579.373773 277.935035 1573.058709 C278.204505 1567.980828 279.252112 1562.948480 279.836585 1557.882196 C280.421393 1552.813348 278.603003 1547.540765 281.701453 1542.617547 C282.498420 1541.351190 281.302497 1538.903802 281.206336 1536.989617 C280.747413 1527.854119 279.413062 1518.635369 280.185035 1509.599481 C281.040656 1499.584466 283.465369 1489.786370 280.110938 1479.764398 C279.309516 1477.369989 279.862525 1474.508782 279.860999 1471.862298 C279.849372 1451.530633 279.697425 1431.196893 279.959113 1410.868646 C280.029334 1405.412469 278.427375 1400.043328 279.736609 1394.497796 C280.458869 1391.438470 279.645667 1388.811395 275.624488 1391.849603 C270.824927 1395.475946 265.617530 1398.611322 261.088386 1402.537835 C247.134376 1414.636102 232.125129 1425.380365 218.734717 1438.285150 C202.836204 1453.606805 184.995795 1466.859613 168.897986 1482.117547 C162.227241 1488.440301 153.928046 1493.174676 147.392905 1499.980584 C143.638144 1503.890741 138.636741 1506.657830 135.126441 1510.739373 C121.736167 1526.309564 104.512168 1537.722772 90.555541 1552.720086 C76.259734 1568.082025 60.922332 1582.471185 46.161048 1597.404901 C39.591460 1604.051263 33.254958 1610.201043 22.728385 1604.812982 C20.065883 1603.450067 16.938008 1609.397454 13.216002 1605.151605 C9.088157 1600.442620 4.351044 1596.271112 0.077660 1591.680780 C-0.308077 1591.266351 0.854129 1589.524163 1.133780 1588.359246 C3.557679 1578.262567 12.789166 1574.576532 19.654588 1568.673089 C21.093368 1567.435907 22.855514 1566.556634 24.216273 1565.249627 C42.828216 1547.372674 61.244452 1529.288812 80.023582 1511.589837 C94.306815 1498.128289 108.897048 1484.982537 123.609855 1471.989740 C137.201072 1459.987176 151.024085 1448.239495 164.961005 1436.639154 C174.051978 1429.072137 183.581244 1422.034051 192.810966 1414.630365 C197.608985 1410.781854 202.125693 1406.584710 206.872397 1402.669793 C213.808982 1396.949212 221.507941 1391.976556 227.645347 1385.511102 C234.210700 1378.594842 242.904304 1374.966302 249.865272 1368.761346 C257.495582 1361.960076 265.823432 1355.937127 273.899207 1349.641595 C277.011268 1347.215448 277.934485 1344.309808 277.974830 1340.271112 C278.454993 1292.216058 279.076484 1244.161492 279.909797 1196.111199 C280.240363 1177.049798 280.180305 1157.888055 282.260810 1138.988153 C283.375556 1128.861444 282.730659 1118.759637 284.012397 1108.794793 C285.824592 1094.705560 286.698493 1080.564202 288.049018 1066.453485 C288.970466 1056.826287 291.733100 1047.375726 293.658484 1037.843255 C293.785285 1037.215570 293.801948 1036.564324 293.853126 1035.922845 C294.522040 1027.533197 295.321082 1019.150994 295.808692 1010.750848 C296.143958 1004.974969 296.348762 999.331903 297.575110 993.524407 C299.878669 982.615960 300.474738 971.350701 301.879035 960.246209 C302.394446 956.170404 303.430427 952.152093 303.811530 948.068719 C305.252112 932.632318 305.113624 916.882928 308.290503 901.825433 C310.933570 889.298211 310.686469 876.834466 312.261664 864.445306 C313.337134 855.986566 312.699225 847.507928 314.037574 839.253839 C316.264960 825.516595 317.115821 811.729608 318.376258 797.932244 C319.145026 789.516900 319.020911 781.084588 319.927527 772.723077 C320.746619 765.168573 322.219947 757.686395 323.307288 750.158197 C323.465583 749.062371 323.115516 747.882684 322.940070 746.751214 C322.601081 744.564996 321.341590 742.063165 322.004798 740.258477 C325.054633 731.959832 322.393653 723.232354 324.068946 715.077874 C327.437873 698.679925 324.253669 682.172113 325.997993 665.881829 C329.571326 632.510430 326.242042 599.043206 328.256934 565.727532 C328.925605 554.670953 328.204474 543.368341 330.184913 532.595147 C332.724616 518.779534 331.347663 505.092034 331.792670 491.364312 C332.669501 464.316217 332.059302 437.170953 334.101081 410.220208 C337.793067 361.487725 334.662452 312.755181 335.732368 264.039392 C335.811988 260.413018 334.787238 256.429223 333.154273 253.174279 C330.510505 247.904412 327.653968 243.035638 331.854621 237.358270 C329.210853 224.944360 335.629401 218.489709 346.544593 214.947564 C348.593085 214.282800 350.565558 212.805963 352.596290 212.761499 C362.923835 212.535394 373.624824 210.949090 383.504035 213.065271 C397.646094 216.094537 412.170447 214.967126 426.105201 218.646875 C426.416785 218.729150 426.769874 218.641656 427.102241 218.659448 C439.491858 219.323449 451.880256 220.011376 464.271094 220.651513 C477.659186 221.343194 491.190955 220.993463 504.409125 222.867639 C530.802436 226.609918 557.307075 225.202874 583.575324 224.021234 C599.976325 223.283441 616.396857 223.657952 632.770453 222.642633 C646.152595 221.812768 659.519843 223.685662 673.017158 221.055169 C680.618476 219.573693 689.012031 222.024530 697.030280 222.877465 C700.470893 223.243432 703.868720 224.586694 707.278998 224.560907 C719.578132 224.467950 731.741218 225.137872 743.633796 228.609094 C744.862372 228.967706 746.286201 228.657220 747.619452 228.657220 C748.952643 228.657220 750.286017 228.646691 751.619086 228.658776 C782.681952 228.939996 813.770514 227.622430 844.790046 230.582116 C853.465461 231.409875 862.101813 230.412164 870.340644 227.180902 C870.915107 226.955590 871.695930 226.500268 872.099128 226.705468 C881.710090 231.597833 890.526496 226.176202 899.638251 224.671289 C900.287177 224.564080 900.969123 224.657220 901.635749 224.657220 C902.302375 224.657220 902.969184 224.669824 903.635505 224.655419 C934.356879 223.990838 965.078010 222.915612 995.799628 222.901330 C1005.245795 222.896936 1014.696906 222.419030 1024.137946 222.726220 C1026.929206 222.817041 1029.675178 223.999475 1032.475715 224.192834 C1034.920417 224.361596 1037.421027 223.909814 1039.880866 223.603540 C1041.429572 223.410699 1043.022834 222.506311 1044.469855 222.731713 C1056.936652 224.673638 1069.366584 222.328912 1081.823493 222.459283 C1097.204108 222.620324 1112.772712 222.536340 1127.948615 220.373101 C1150.718635 217.127282 1173.556891 217.894158 1196.121345 219.226831 C1215.561530 220.374963 1235.054694 218.824090 1254.280524 221.018121 C1267.078986 222.478662 1280.062140 220.685266 1292.395148 223.134576 C1302.750983 225.191186 1312.277350 222.546075 1322.173835 222.589593 C1360.169929 222.756616 1398.169684 222.455163 1436.161628 222.882440 C1441.646857 222.944116 1444.883185 221.098321 1446.469123 216.851617 C1449.268683 209.354821 1455.794684 204.826501 1459.881354 198.409417 C1466.442878 188.106195 1473.007819 177.797540 1479.883430 167.703851 C1487.702521 156.225366 1496.060920 145.112512 1503.807502 133.587030 C1508.838874 126.101281 1512.854743 117.930139 1517.926887 110.475274 C1527.869269 95.862847 1538.456061 81.687768 1548.347419 67.042108 C1555.860358 55.918100 1562.649909 44.307626 1569.886970 32.994027 C1572.438239 29.005532 1575.551764 25.373300 1578.047248 21.353997 C1579.656379 18.762429 1581.086799 15.872583 1581.763190 12.924951 C1583.652595 4.691278 1588.193732 0.330133 1596.656013 0.806146 C1602.480231 1.133752 1608.216071 -1.038581 1614.008063 0.650506 C1626.438849 4.275704 1630.619147 19.291787 1621.253058 28.132074 C1607.480720 41.130975 1596.148810 56.187524 1584.698737 71.078958 C1575.718268 82.758706 1568.188972 95.546044 1559.821296 107.708062 C1553.372077 117.081536 1545.755866 125.765557 1540.253913 135.644586 C1534.956183 145.156915 1527.356940 153.004296 1523.241584 163.571984 C1519.797126 172.417047 1511.636847 179.334436 1506.152595 187.500177 C1499.721320 197.075921 1493.896613 207.060845 1487.896613 216.921716 C1487.250129 217.984399 1486.581305 219.642053 1486.965705 220.608972 C1488.090217 223.436792 1489.569831 221.289880 1491.236823 220.808740 C1493.390510 220.187127 1495.936530 220.272454 1498.179694 220.721612 C1510.007819 223.089837 1518.987189 216.815148 1528.298224 211.251702 C1547.281379 199.909051 1566.734748 189.668756 1589.099982 186.652948 C1593.827521 186.015496 1598.646491 185.720574 1603.249518 184.571252 C1611.748786 182.449060 1618.702033 187.923425 1626.557502 189.041040 C1630.568976 189.611810 1632.792853 194.966027 1633.882453 199.507348 C1634.385383 201.603601 1635.008063 203.709222 1635.892219 205.668023 C1637.723639 209.724725 1637.770637 209.643731 1640.848273 206.714654 C1641.738898 205.867089 1642.935554 204.738885 1643.980720 204.750482 C1653.252570 204.852929 1662.625983 203.461389 1671.382453 208.553887 C1678.919074 212.936883 1682.591071 219.396051 1683.822272 227.571496 C1685.292121 237.331140 1686.956916 247.096032 1687.655280 256.921350 C1687.965583 261.286889 1690.344489 261.417504 1692.630622 260.508691 C1697.202399 258.691186 1701.590827 256.269830 1705.774299 253.649652 C1713.480964 248.822930 1720.690314 243.135003 1728.640143 238.779077 C1741.630256 231.661523 1755.411994 225.942010 1768.153327 218.433587 C1776.255500 213.658929 1785.247321 211.327508 1793.558112 207.146264 C1803.056647 202.367517 1814.404304 201.196344 1825.006354 198.703424 C1831.728644 197.122796 1838.722541 194.339654 1845.302131 195.001672 C1858.902961 196.370111 1872.898688 198.054132 1883.890510 207.757867 C1888.544440 211.866479 1890.961555 217.238580 1891.906379 223.427789 C1893.221686 232.045373 1890.398444 239.943444 1887.671027 247.706903 C1881.218268 266.074670 1870.722175 282.176355 1859.759650 298.207086 C1851.334235 310.527459 1842.211066 322.318841 1832.999152 333.920465 C1825.796271 342.991693 1817.596930 351.378900 1810.697272 360.802911 C1805.073981 368.483453 1800.062873 376.755181 1793.571784 383.622247 C1784.699347 393.008355 1776.885871 403.214105 1768.486091 412.954400 C1765.153449 416.819024 1761.941047 420.451898 1759.554572 425.245538 C1756.348884 431.684991 1750.989631 437.044122 1746.614753 442.911676 C1740.924811 450.542901 1735.135383 458.106805 1729.669929 465.896966 C1717.546638 483.176995 1705.579108 500.566583 1693.623420 517.963311 C1692.840217 519.102899 1692.693732 520.680108 1692.251105 522.053826 C1693.624885 521.749017 1695.374274 521.880487 1696.313727 521.071466 C1704.950934 513.634149 1714.133552 507.182000 1724.721198 502.677728 C1733.792731 498.818414 1742.369636 493.759027 1751.526862 490.147088 C1766.544440 484.223626 1781.345466 477.850213 1797.900886 476.275933 C1805.637702 475.540277 1813.356574 475.077630 1821.102302 474.586480 C1828.954963 474.088555 1836.380378 476.131036 1843.337409 478.931756 C1847.607551 480.650933 1851.257453 484.689447 1854.273688 488.423333 C1855.829230 490.348687 1855.442756 493.876886 1855.846198 496.693414 C1858.356574 514.226983 1849.904426 527.651300 1840.561286 541.428460 C1833.454597 551.907769 1823.902350 560.495538 1817.429694 570.870416 C1807.590461 586.641229 1794.619636 599.796136 1784.525764 615.160089 C1780.593757 621.144952 1777.519294 627.316644 1784.270392 634.479180 C1789.200446 639.709893 1783.762458 649.582696 1775.683845 650.510858 C1769.995734 651.164361 1764.025764 651.517755 1758.611701 648.452386 C1757.281867 647.699334 1755.806403 646.808038 1754.355475 646.725274 C1739.999396 645.906732 1734.137336 625.594659 1739.355842 616.363702 C1744.893195 606.569024 1750.798591 596.831353 1757.744636 588.015252 C1773.088874 568.539727 1789.576789 549.959954 1804.748420 530.356866 C1809.517219 524.194940 1811.127082 515.684503 1815.022712 508.718682 C1817.951545 503.481134 1813.791511 502.631402 1811.210212 501.269342 C1809.436530 500.333367 1806.602180 500.334954 1804.628913 501.024774 C1792.121100 505.397088 1778.809089 508.508416 1767.524055 515.066949 C1754.343879 522.726861 1740.534308 529.349298 1728.138190 538.734246 C1715.083014 548.618035 1702.853034 559.419793 1689.972663 569.451348 C1685.765998 572.727716 1684.181891 577.549493 1684.074103 581.954766 C1683.576667 602.274285 1683.854621 622.612664 1683.854621 642.944329 C1688.432868 649.400567 1680.903937 657.037225 1685.854621 663.457147 C1681.443854 674.903863 1687.298469 686.256341 1686.113898 697.823907 C1684.931769 709.368585 1685.669074 721.133172 1685.949836 732.792108 C1686.055915 737.192437 1684.406867 741.829461 1687.646003 746.122308 C1688.393195 747.112420 1685.820075 750.133966 1685.976569 752.126275 C1686.638068 760.547723 1683.872565 769.184259 1687.548713 777.433770 C1688.045417 778.548211 1688.072516 780.070733 1687.809455 781.295282 C1683.596564 800.909112 1686.676642 820.754632 1686.010627 840.476800 C1685.839118 845.555719 1684.750739 850.580865 1685.659553 855.847039 C1686.553229 861.025628 1686.565314 866.600091 1685.682868 871.782830 C1684.452033 879.012567 1686.864020 886.192987 1685.605964 893.107904 C1684.455573 899.430902 1684.394294 905.727288 1683.969611 912.016961 C1683.476691 919.316400 1683.854621 926.674676 1683.854621 934.007440 C1683.854621 941.673455 1684.113898 949.350579 1683.785041 957.002557 C1683.424079 965.405389 1682.111579 973.779534 1681.996955 982.176873 C1681.919074 987.890130 1683.639899 993.615350 1683.719123 999.346795 C1683.788947 1004.406366 1685.293464 1009.767449 1681.943854 1014.577386 C1681.318610 1015.475213 1681.578010 1017.252069 1681.896613 1018.504144 C1685.864875 1034.100335 1682.415656 1050.025872 1683.997565 1065.668084 C1685.969611 1085.166497 1685.776496 1104.668206 1685.901008 1124.192010 C1685.910651 1125.710931 1686.461799 1127.264886 1686.959601 1128.735467 C1689.186652 1135.315057 1691.029670 1141.421868 1688.265388 1148.857415 C1686.538581 1153.502557 1688.805671 1159.638787 1689.311286 1165.103021 C1689.428107 1166.366204 1689.739997 1167.611932 1689.844001 1168.875360 C1690.913459 1181.871331 1687.644416 1195.060174 1691.581916 1207.929925 C1687.570807 1222.892449 1689.580573 1238.206292 1690.295173 1253.189569 C1690.885749 1265.569940 1690.272712 1278.195184 1692.218390 1290.320672 C1694.762580 1306.176141 1692.986091 1321.906366 1693.854621 1338.657220 M1579.854743 395.657281 C1576.078376 399.433648 1572.081183 403.016046 1568.564948 407.020867 C1555.504279 421.895867 1542.704719 437.000421 1529.608527 451.843560 C1518.732673 464.170159 1496.468146 466.122735 1482.744636 458.707025 C1472.499763 453.171136 1468.244269 446.856073 1470.052863 436.167901 C1470.904059 431.138055 1473.262946 426.090142 1475.980720 421.694635 C1491.095344 397.249749 1506.470588 372.965020 1521.873664 348.699639 C1533.778083 329.945947 1545.530890 311.082879 1557.962287 292.681207 C1567.055182 279.221215 1575.533942 265.489434 1582.736701 250.930047 C1584.117072 248.139886 1584.890632 246.657464 1580.997443 246.676141 C1563.921149 246.758203 1546.794196 245.816125 1529.846564 248.738366 C1527.803351 249.090661 1525.614753 250.176568 1524.066779 251.562738 C1515.072883 259.617120 1504.498420 265.176721 1494.365485 271.534845 C1483.315314 278.468347 1472.417609 280.127893 1460.319831 276.121881 C1458.854621 275.636621 1457.404059 274.768121 1455.925055 274.718560 C1446.399177 274.399194 1440.114142 269.791528 1435.450324 261.478265 C1430.542243 252.729272 1430.040534 253.050378 1419.390876 252.618951 C1417.523078 252.543267 1415.685676 251.759942 1413.816657 251.670831 C1411.119025 251.542169 1408.378058 251.528131 1405.703864 251.857110 C1399.081061 252.671960 1392.040168 255.591577 1385.996467 254.161370 C1379.075812 252.523645 1372.411750 253.506524 1365.713386 252.633966 C1353.256721 251.011376 1341.013312 254.398736 1328.329230 253.067437 C1306.101813 250.734552 1283.617560 253.648980 1261.169440 250.996453 C1244.852668 249.068414 1228.155524 249.400231 1211.693488 249.107843 C1184.014289 248.616174 1156.232062 246.682977 1128.514289 250.461572 C1115.280524 252.265649 1101.764533 252.466272 1088.374274 252.498712 C1078.596564 252.522393 1068.867072 253.976953 1059.012580 252.860009 C1054.423835 252.339898 1049.604743 254.392511 1044.862678 254.576806 C1033.651618 255.012536 1022.502814 252.975549 1011.353950 252.880883 C998.315742 252.770166 985.304877 252.004846 972.125739 254.289605 C958.691840 256.618493 944.747565 256.040338 931.022773 256.644372 C914.636786 257.365533 898.246711 257.991479 881.858161 258.653772 C881.192695 258.680657 880.508491 258.560327 879.860969 258.671472 C865.187385 261.190179 850.359626 263.612847 835.552436 262.305444 C828.260016 261.661584 821.410834 260.439019 814.120612 262.436151 C811.423530 263.175012 808.053535 260.985162 804.961371 260.862420 C800.073615 260.668389 795.154975 260.985406 790.261054 261.279718 C784.449836 261.629266 778.655524 262.425531 772.844733 262.532403 C770.466498 262.576135 767.973395 260.524285 765.687690 260.785119 C749.479865 262.634942 733.846137 257.995935 718.043342 256.214166 C705.592536 254.810296 693.068366 254.211877 680.621406 253.008264 C673.697028 252.338678 666.602180 250.441949 659.241279 252.375970 C655.610480 253.329919 651.192084 250.713616 647.147223 250.778649 C637.409369 250.935388 627.710517 251.254907 617.933722 252.206292 C599.016303 254.047113 579.880012 252.743524 560.781623 254.253015 C545.893805 255.429711 530.736030 255.562677 515.594001 252.972680 C502.467780 250.727471 488.926337 252.849450 475.424933 251.093988 C460.257697 249.121850 444.707191 250.579278 429.290168 248.895990 C413.352332 247.155755 397.206122 247.322900 381.150886 246.660760 C380.485419 246.633325 379.575324 246.942254 379.188697 246.613244 C375.208259 243.225885 374.564338 246.772241 373.945289 249.310449 C373.484931 251.197869 373.814338 253.288751 373.861182 255.287377 C374.152045 267.696099 373.304023 280.084985 375.615790 292.498651 C376.935523 299.585260 375.854621 307.118951 375.854621 314.451318 C375.854621 321.450402 375.409919 328.486047 375.980781 335.438256 C376.541419 342.265863 373.681556 349.008782 375.854621 355.788873 C370.784705 363.251397 378.112372 371.768609 373.854621 379.300225 C373.785132 406.035455 374.575507 432.786859 371.908790 459.466729 C371.301398 465.543450 372.508399 471.596612 372.273139 477.817620 C371.238318 505.182550 372.503455 532.616265 369.981635 559.974359 C369.619727 563.900079 371.950141 568.141656 371.335639 571.963861 C369.407752 583.954644 367.960792 595.785882 369.625129 608.016412 C370.333076 613.219110 368.048041 618.755853 367.946265 624.156243 C367.676246 638.482659 367.199561 652.856134 368.041846 667.137933 C368.857459 680.968072 366.165870 694.587762 367.472602 708.522393 C368.629066 720.854608 367.247565 733.585382 365.670447 745.972650 C363.706855 761.395318 362.028632 776.770440 361.761573 792.331414 C361.606025 801.396173 361.423194 810.648553 359.445380 819.408502 C358.557258 823.341973 361.018683 826.109002 359.930701 829.848504 C357.917151 836.769403 356.598639 844.007440 356.022101 851.196099 C355.534675 857.273675 355.138099 863.102777 352.878119 868.941278 C351.589118 872.271234 351.817786 876.623529 352.625525 880.232782 C353.983802 886.302484 354.568305 891.822747 352.088080 897.956781 C350.237159 902.534539 350.213202 907.958245 349.929633 913.036126 C349.541724 919.982171 351.754767 927.887445 349.141974 933.718866 C344.308722 944.505853 346.656653 955.765496 344.134650 966.604608 C341.539710 977.757196 341.775031 989.540155 339.687812 1000.847161 C337.643043 1011.924066 335.729072 1022.927972 335.850928 1034.216424 C335.876136 1036.549188 336.617042 1039.238275 335.723151 1041.154290 C331.772315 1049.622674 336.168220 1059.865838 329.854621 1067.726556 C330.282630 1086.961297 328.027961 1106.020745 325.742591 1125.048577 C324.761268 1133.218988 325.898536 1141.292718 324.342139 1149.663934 C321.853919 1163.047235 323.119727 1177.080438 321.681251 1190.721063 C320.324622 1203.585565 324.241706 1215.991326 322.360236 1229.149530 C319.581122 1248.585809 322.982215 1268.522088 320.376136 1288.309808 C319.630012 1293.974847 321.983283 1300.294671 320.082984 1306.649896 C319.027778 1310.178826 320.289649 1314.400384 320.507117 1318.309686 C322.963630 1316.425531 325.270942 1314.294793 327.903876 1312.702264 C336.680823 1307.393426 346.051398 1302.931756 354.299262 1296.917840 C363.961219 1289.872552 375.482673 1286.392205 385.017097 1278.980218 C391.687324 1273.794671 400.418616 1271.308709 408.101325 1267.367303 C425.982551 1258.193841 444.305671 1250.834710 464.999366 1252.695794 C467.481513 1252.918939 469.974433 1253.478509 472.363318 1254.206903 C486.472358 1258.509637 495.334388 1274.943109 488.836860 1292.511590 C483.286750 1307.518060 477.104041 1322.325677 470.453132 1336.879510 C464.808387 1349.231561 458.129615 1361.113275 451.847632 1373.171624 C437.136847 1401.409417 422.375983 1429.621209 407.664741 1457.858758 C402.668281 1467.449212 397.894874 1477.157830 392.780372 1486.684198 C384.576575 1501.964471 375.975532 1517.033807 367.916480 1532.388665 C361.321143 1544.954583 355.522803 1557.938958 348.917731 1570.499383 C340.126807 1587.216668 330.918952 1603.715325 321.841712 1620.281366 C318.867591 1625.709222 317.046668 1631.285028 317.761847 1637.639642 C318.081824 1640.482659 317.903480 1643.592157 317.078834 1646.316522 C313.833014 1657.039788 312.108161 1668.027215 311.984382 1679.139642 C311.871161 1689.301873 305.048926 1695.732049 300.090400 1703.233514 C299.433417 1704.227288 297.271094 1704.382196 295.757728 1704.624749 C291.048713 1705.379998 286.333564 1706.258660 281.587165 1706.560784 C278.544623 1706.754388 277.092048 1707.974359 275.781531 1710.638909 C270.056190 1722.278924 264.062964 1733.786981 258.172553 1745.345697 C258.033668 1745.618157 257.853187 1745.930902 257.872840 1746.212274 C257.962348 1747.494012 258.116584 1748.771234 258.247626 1750.050286 C259.190314 1749.512323 260.353644 1749.171746 261.039954 1748.404412 C265.586616 1743.321649 269.716773 1737.826287 274.575843 1733.071771 C283.968329 1723.881585 294.016456 1715.355462 303.301887 1706.063592 C312.823096 1696.535638 321.744361 1686.408929 330.958838 1676.573114 C332.969459 1674.426995 335.029700 1672.314202 337.205329 1670.338250 C343.485206 1664.635003 350.010566 1659.189569 356.090339 1653.283319 C359.530982 1649.941033 361.990699 1645.591302 365.420142 1642.234735 C370.285865 1637.472406 375.499915 1633.034661 380.815497 1628.770379 C388.523993 1622.586541 396.389991 1616.592767 404.308967 1610.678949 C414.977851 1602.711297 425.524695 1594.545770 436.563148 1587.117791 C447.120093 1580.014154 456.733588 1571.181878 469.574500 1567.894403 C476.175971 1566.204339 482.618018 1563.860467 489.252814 1562.338006 C501.713386 1559.478875 513.810309 1557.974969 524.571906 1568.074945 C530.084052 1573.248162 533.945319 1578.303338 533.918952 1586.150018 C533.854316 1605.386224 530.007209 1623.421868 522.634528 1641.491815 C513.789741 1663.169549 503.626624 1684.277215 495.168983 1706.112542 C493.861884 1709.487298 492.994941 1710.703607 497.345893 1710.678826 C508.677375 1710.614373 520.016181 1710.868890 531.336799 1710.512078 C534.262214 1710.419793 537.593757 1709.155145 539.945991 1707.379144 C549.912482 1699.853021 559.418036 1691.716058 569.394355 1684.203729 C585.351996 1672.187493 601.386481 1660.259393 617.689887 1648.719842 C635.249763 1636.290765 655.171638 1628.424188 675.086738 1620.782586 C683.732123 1617.465203 692.914863 1615.297967 702.370795 1616.705926 C709.449286 1617.759759 717.575690 1617.894647 722.641974 1622.921502 C730.248115 1630.468377 735.788032 1639.780389 735.886054 1651.302972 C735.993354 1663.919183 734.915839 1676.360955 731.928168 1688.659051 C730.807563 1693.272088 730.371100 1698.074578 729.957709 1702.819940 C729.851203 1704.042230 731.013862 1705.375116 731.593451 1706.657220 C737.040351 1701.836785 742.494330 1706.696893 747.933112 1706.757196 C791.986518 1707.245965 836.037055 1707.991815 880.088508 1708.655511 C886.201911 1708.747552 892.301276 1708.316888 898.431586 1708.603143 C922.137519 1709.710199 945.911017 1706.878289 969.622199 1710.452508 C978.095160 1711.729730 986.922431 1710.657220 995.587958 1710.657220 C1003.920234 1710.657220 1012.269477 1710.988885 1020.579841 1710.562860 C1028.715339 1710.145745 1036.744391 1711.800164 1044.949470 1710.881097 C1049.869636 1710.329949 1055.055915 1712.680780 1060.091071 1712.546624 C1095.806525 1711.594476 1131.575446 1714.833245 1167.265632 1710.781610 C1180.231696 1709.309808 1193.357795 1710.058343 1206.452277 1709.156854 C1232.737189 1707.347039 1259.237922 1709.308953 1285.582404 1706.690545 C1293.954352 1705.858392 1302.289557 1706.558465 1310.818732 1705.065423 C1323.599250 1702.828363 1336.861457 1703.379144 1349.912238 1702.630975 C1355.335456 1702.320184 1360.687629 1703.214837 1366.188849 1700.909661 C1370.727668 1699.007562 1376.178596 1699.098382 1381.256232 1698.704949 C1391.302863 1697.926629 1401.305671 1698.672723 1411.481696 1697.042108 C1425.289313 1694.829583 1439.524665 1695.071282 1453.587775 1694.729241 C1467.244636 1694.397088 1481.047736 1695.821282 1494.539191 1694.291619 C1505.482184 1693.051019 1515.664924 1694.459588 1526.103522 1696.596429 C1531.087653 1697.616815 1536.717902 1699.664666 1541.151984 1698.303582 C1549.993171 1695.589227 1558.712653 1697.418450 1567.429816 1696.671991 C1575.153205 1696.010614 1582.829841 1696.545159 1590.688972 1695.191033 C1597.356452 1694.042108 1604.780036 1690.901605 1611.949592 1694.633538 C1619.180793 1698.397576 1628.232551 1699.981927 1629.855475 1710.179803 C1630.748908 1715.792962 1634.399299 1718.853631 1639.468390 1720.677728 C1641.492927 1721.406366 1643.462409 1722.305780 1645.409553 1723.227655 C1651.819709 1726.262689 1658.016852 1729.874383 1664.655158 1732.268060 C1672.267463 1735.012933 1680.739264 1730.642449 1683.715827 1723.856561 C1689.571784 1710.506341 1688.798347 1696.314691 1687.423591 1682.618768 C1686.479011 1673.209222 1684.763923 1663.672967 1684.070685 1654.220452 C1682.677375 1635.219110 1682.519416 1616.127069 1681.858893 1597.072137 C1681.824225 1596.073480 1682.203498 1594.896600 1681.801642 1594.099359 C1676.783820 1584.145257 1678.252326 1573.002923 1676.121833 1562.508172 C1673.642463 1550.294671 1672.852180 1537.694818 1671.942878 1525.217767 C1670.896125 1510.856805 1670.506843 1496.447625 1669.869025 1482.057733 C1669.765876 1479.729241 1670.489631 1477.166375 1669.752692 1475.095574 C1664.608527 1460.640618 1667.208259 1445.248040 1664.037971 1430.511224 C1661.762580 1419.934320 1661.424445 1408.955438 1659.789557 1398.221795 C1658.081183 1387.007318 1655.101935 1375.941278 1654.065803 1364.682489 C1653.022590 1353.347650 1653.733893 1341.931268 1652.105231 1330.499261 C1650.315436 1317.934930 1652.413337 1305.131463 1650.202765 1292.308343 C1648.227790 1280.851678 1648.991950 1268.910882 1648.245856 1257.176629 C1646.128058 1223.868157 1649.990607 1190.367425 1645.983649 1157.027459 C1645.627692 1154.066522 1647.658210 1150.871453 1647.573127 1147.813104 C1647.432746 1142.764520 1646.212287 1137.754388 1645.904670 1132.700189 C1645.090461 1119.320428 1644.648932 1105.917474 1643.773810 1092.542230 C1643.524299 1088.727166 1642.093635 1085.113885 1643.712531 1081.137689 C1644.527350 1079.136468 1644.081061 1076.502191 1643.805060 1074.202386 C1643.315680 1070.124383 1641.978156 1066.087762 1641.944587 1062.025872 C1641.757209 1039.363763 1641.959235 1016.698236 1641.764411 994.036126 C1641.726447 989.640863 1638.806891 984.597894 1640.189460 980.994012 C1643.746222 971.722650 1640.222175 962.486322 1641.714118 953.331903 C1642.507819 948.461907 1641.854621 943.356195 1641.854621 938.356805 C1641.854621 933.024163 1640.355231 927.065545 1642.251105 922.524407 C1644.406501 917.361199 1641.239142 913.558709 1641.651130 908.999139 C1642.706550 897.319451 1642.870368 885.521600 1643.373176 873.829949 C1644.553962 846.369439 1643.769782 818.803826 1645.961799 791.355584 C1646.640876 782.853997 1644.157844 774.765802 1645.323493 765.937249 C1647.269538 751.196160 1645.963996 736.009820 1645.763923 721.014459 C1645.723029 717.949334 1642.982429 713.968499 1644.157844 712.026422 C1647.082038 707.194146 1646.710822 701.898248 1645.506232 697.775140 C1643.121711 689.614068 1644.818488 681.516046 1643.744269 673.519830 C1642.645392 665.339654 1640.304450 657.302911 1643.788093 649.136895 C1644.269294 648.009027 1644.415656 646.055963 1643.767219 645.234735 C1637.849006 637.739373 1647.895270 629.035516 1641.856574 621.655267 C1647.976325 613.850946 1637.780158 615.101434 1636.899299 615.043817 C1624.805549 614.252862 1618.536750 606.762689 1614.933845 596.508172 C1613.729133 593.079278 1613.637458 588.734124 1614.562751 585.208245 C1615.874763 580.208490 1618.226447 575.368890 1620.790656 570.831964 C1628.130866 557.844171 1635.943244 545.122796 1643.253303 532.118646 C1645.341559 528.403985 1647.553718 524.113763 1647.658820 520.034539 C1648.324714 494.199762 1648.025519 468.376947 1649.452399 442.513055 C1650.570685 422.243096 1650.894782 401.781243 1648.211432 381.324945 C1646.440070 367.823114 1647.193732 353.840997 1649.763068 340.188439 C1650.087409 338.465020 1649.163581 336.506707 1648.818000 334.657189 C1646.781379 335.372705 1644.327765 335.591577 1642.780646 336.890313 C1636.286017 342.341546 1629.937263 347.982843 1623.765021 353.798699 C1609.390998 367.343255 1595.149665 381.028802 1579.854743 395.657281 M1804.854621 314.657220 C1809.097053 308.414788 1813.004767 301.910821 1817.641486 295.976495 C1835.154304 273.562951 1843.058600 260.807122 1851.308478 235.924249 C1852.771735 231.510980 1851.942267 226.105462 1851.048224 221.370172 C1850.898078 220.575463 1844.907111 220.309655 1841.768073 220.793542 C1837.515876 221.449029 1833.384040 222.976770 1829.250373 224.288049 C1822.775886 226.341821 1816.256232 228.298761 1809.912238 230.708520 C1799.262092 234.753808 1788.181647 238.117761 1778.274909 243.571557 C1759.464850 253.926873 1741.175910 265.271691 1723.027350 276.768975 C1712.886603 283.193322 1703.364387 290.619958 1693.791389 297.894891 C1691.629645 299.537652 1688.525519 303.231835 1689.106818 304.600518 C1691.196296 309.519128 1686.925055 313.465631 1687.963874 317.681878 C1690.067634 326.219049 1690.767707 334.580896 1687.943244 343.078912 C1687.617438 344.058953 1688.539313 345.437188 1688.831672 346.643121 C1689.199958 348.162164 1690.013923 349.775567 1689.779059 351.207757 C1686.818488 369.253717 1686.856208 369.806329 1691.786017 387.750054 C1692.296882 389.609491 1691.967536 391.738275 1691.835456 393.729303 C1691.212043 403.121759 1690.778449 412.536981 1689.789191 421.892511 C1688.575812 433.368157 1692.271003 444.786859 1689.923713 456.253350 C1689.781013 456.950494 1690.632941 457.851190 1691.022101 458.657220 C1691.966315 458.072930 1693.230842 457.706842 1693.801887 456.868402 C1697.150275 451.951287 1700.092902 446.742974 1703.630744 441.972772 C1710.282966 433.002984 1717.239387 424.258477 1724.083381 415.431268 C1735.625251 400.544976 1747.171027 385.661737 1758.728644 370.787774 C1765.785041 361.706658 1772.769050 352.566400 1779.994147 343.621148 C1782.265876 340.808404 1785.490607 338.771051 1787.799567 335.981744 C1793.303351 329.332757 1798.521247 322.447168 1804.854621 314.657220 M408.854682 1382.657220 C409.854682 1380.072869 410.679725 1377.404046 411.882087 1374.917596 C422.073646 1353.840936 432.588447 1332.912591 440.642066 1310.875726 C442.967811 1304.511712 445.441047 1298.198114 447.566810 1291.769036 C447.807868 1291.040032 446.352271 1288.951654 445.467383 1288.806146 C443.244636 1288.440179 440.376441 1287.991815 438.686927 1289.047845 C428.669990 1295.309442 417.430121 1298.956658 407.003577 1304.337640 C395.365485 1310.343988 384.264594 1317.128533 373.048499 1323.842034 C356.892188 1333.512445 341.455451 1344.114862 325.845710 1354.543573 C321.594123 1357.384271 319.161933 1360.287469 319.821937 1365.514520 C320.626075 1371.883538 321.744788 1378.281243 321.766028 1384.669671 C321.927772 1433.305535 321.854621 1481.942010 321.854621 1530.578363 C321.854621 1532.910272 321.702186 1535.256707 321.922492 1537.567620 C322.024116 1538.633294 322.854682 1539.629510 323.354712 1540.657220 C324.188025 1539.962762 325.352241 1539.437249 325.805793 1538.548944 C335.375556 1519.804071 345.023566 1501.116693 355.739417 1482.974481 C360.424598 1475.042352 363.502173 1466.175042 367.951728 1458.085443 C372.574012 1449.681878 377.348212 1441.429071 381.169196 1432.569085 C384.708594 1424.361810 389.540381 1416.708001 393.863746 1408.843866 C398.490455 1400.428094 403.188025 1392.051141 408.854682 1382.657220 M414.854621 1716.657220 C422.231727 1715.990594 429.611457 1715.351190 436.984992 1714.646844 C441.462348 1714.219232 445.567969 1713.379022 447.910346 1708.648919 C452.428809 1699.524285 457.461524 1690.653192 461.940650 1681.510247 C470.338599 1664.368646 478.611762 1647.151971 483.836310 1628.693231 C485.947455 1621.234124 488.362494 1613.805413 489.678748 1606.196649 C490.577888 1600.999139 487.153846 1598.267816 482.986518 1600.861199 C475.585792 1605.466912 466.187140 1606.114251 460.054297 1613.252313 C456.961036 1616.852777 453.032386 1619.996087 448.937507 1622.431634 C427.908210 1634.938714 409.935340 1651.290521 392.046699 1667.663446 C379.828284 1678.846673 368.436500 1690.940789 356.832740 1702.782098 C354.213996 1705.454583 352.250190 1708.768792 349.984839 1711.787469 C353.192298 1712.077386 356.428077 1712.195306 359.597175 1712.717889 C361.702979 1713.065179 363.688605 1714.473260 365.770545 1714.580438 C381.459296 1715.388055 397.158607 1715.990594 414.854621 1716.657220 M1590.854743 306.657251 C1584.970344 315.874993 1579.332282 325.262902 1573.120978 334.254876 C1568.410651 341.074029 1561.977424 346.849969 1558.071662 354.045831 C1551.029914 367.019464 1544.165412 379.984307 1534.411384 391.194085 C1533.920539 391.758111 1534.155768 392.953912 1534.052985 393.855584 C1535.190192 393.919488 1536.893195 394.493585 1537.371100 393.963311 C1540.151374 390.878595 1542.332648 387.212091 1545.300544 384.347589 C1550.915656 378.928033 1557.065436 374.065057 1562.735969 368.699151 C1568.980720 362.790032 1574.656989 356.261102 1581.074592 350.557611 C1595.608771 337.641168 1610.374763 324.981927 1625.196662 312.394860 C1630.777106 307.655877 1636.940680 303.602136 1642.504401 298.845361 C1645.075202 296.647302 1648.164802 294.706384 1647.982917 290.123559 C1647.573859 279.816613 1648.004279 269.478784 1647.762946 259.161248 C1647.691047 256.093408 1647.137092 252.693109 1645.641486 250.121270 C1644.617805 248.360803 1641.603278 246.910241 1639.440192 246.855889 C1636.072150 246.771325 1632.628303 247.830011 1629.302009 248.722650 C1627.552497 249.192102 1624.473395 250.595025 1624.566047 251.138024 C1625.595344 257.174676 1619.810554 259.310052 1617.586921 263.330743 C1609.602668 277.767602 1600.521247 291.597741 1590.854743 306.657251 M614.854621 1712.657220 C625.249701 1712.171258 635.580695 1712.870477 646.067939 1711.012445 C656.193793 1709.218133 666.785407 1710.905877 677.198188 1708.876092 C685.158759 1707.324456 687.411384 1705.909295 687.909064 1697.443109 C688.093268 1694.307977 688.861762 1691.202996 689.424689 1688.095208 C690.883307 1680.043206 692.550117 1672.023431 693.760383 1663.934808 C694.185431 1661.093743 693.523566 1658.089959 693.357978 1655.160638 C690.705634 1655.659539 688.038215 1656.091058 685.405585 1656.678338 C683.289435 1657.150628 681.121284 1657.589715 679.140143 1658.430047 C672.905890 1661.074578 666.915412 1665.667474 660.525519 1666.269769 C649.128364 1667.344110 642.009284 1675.407342 633.440742 1680.632562 C620.995063 1688.221917 609.967841 1698.147454 598.422309 1707.187127 C597.261298 1708.096063 596.696235 1709.766351 595.854621 1711.083245 C597.190803 1711.607904 598.509345 1712.523797 599.866401 1712.584954 C604.188117 1712.780023 608.524116 1712.657220 614.854621 1712.657220 M494.854682 1748.657342 C495.789924 1747.722039 496.725165 1746.786859 497.660346 1745.851434 C496.632148 1745.453363 495.487128 1744.539910 494.595038 1744.742181 C489.486426 1745.900506 484.412299 1747.235955 479.383216 1748.705438 C477.646399 1749.212884 475.267859 1749.842767 474.556281 1751.159295 C470.336310 1758.966424 466.476752 1766.971185 462.626472 1774.972161 C462.182563 1775.894647 462.544562 1777.205072 462.532905 1778.335565 C463.663398 1778.086175 465.223029 1778.222894 465.852942 1777.523065 C469.273047 1773.722406 472.160316 1769.404290 475.802588 1765.849969 C481.582557 1760.209222 487.814124 1755.031121 494.854682 1748.657342 M1594.854621 218.657189 C1595.854621 218.159509 1597.027106 217.829095 1597.760383 217.072839 C1598.015021 216.810327 1597.141852 214.752557 1596.851325 214.768212 C1592.448615 215.005456 1588.048224 215.382379 1583.678840 215.963952 C1583.278449 216.017205 1583.093635 217.690393 1582.808722 218.611322 C1586.167853 216.333001 1589.488898 222.378747 1594.854621 218.657189 z"/><path class="selected"  fill="#000000" opacity="1.000000" stroke="none" 
 	d="
M1565.854621 1808.657220 C1554.854987 1808.657220 1544.736579 1807.679193 1534.882575 1808.877313 C1518.481452 1810.871575 1501.945930 1809.250116 1485.740363 1811.125848 C1474.921271 1812.378167 1464.246955 1812.385491 1453.514533 1812.567620 C1437.950812 1812.832025 1422.504401 1813.805047 1407.156013 1816.553216 C1403.280402 1817.247064 1399.174811 1816.688470 1395.175178 1816.651483 C1382.570930 1816.534906 1370.126838 1817.843377 1357.822639 1820.608392 C1356.236213 1820.964959 1354.497199 1820.589471 1352.834235 1820.667840 C1339.110114 1821.315423 1325.295661 1821.224725 1311.686896 1822.850213 C1294.594977 1824.891717 1277.526984 1826.198846 1260.328742 1826.823358 C1245.852302 1827.348870 1231.249030 1828.365472 1217.050422 1831.025628 C1208.853278 1832.561273 1200.842170 1831.805657 1192.820807 1832.741571 C1184.662238 1833.693353 1176.587165 1835.351922 1168.464240 1836.628411 C1167.163093 1836.832879 1165.798835 1836.595330 1164.469367 1836.666986 C1152.411872 1837.317132 1140.275153 1837.343743 1128.319953 1838.827264 C1114.555671 1840.535272 1100.870124 1842.327630 1086.964240 1842.843133 C1075.816291 1843.256219 1064.667975 1844.947625 1053.631110 1846.751824 C1039.581305 1849.048699 1025.435676 1849.741693 1011.302802 1850.983392 C995.110908 1852.405999 979.113288 1855.723504 962.788703 1857.004388 C950.018439 1858.006463 937.071601 1858.740228 924.454169 1860.861077 C889.437568 1866.746575 854.211188 1863.748040 819.084968 1864.791375 C813.189643 1864.966424 807.262763 1866.587152 801.497993 1868.101800 C790.983649 1870.864129 780.968574 1866.397576 776.876472 1856.675531 C776.518012 1855.824212 776.015388 1854.984857 775.882636 1854.094720 C774.698432 1846.150628 786.022895 1832.709466 794.026923 1832.677728 C811.026008 1832.610345 828.078925 1831.865228 845.001288 1833.006585 C852.919745 1833.540887 860.492988 1833.757928 868.395881 1832.934564 C874.978583 1832.248773 881.827460 1834.662835 888.535285 1834.530633 C908.506110 1834.137323 928.428779 1833.241937 948.089972 1828.835443 C955.903693 1827.084100 964.191047 1827.552362 972.213019 1826.593866 C980.389899 1825.616815 988.501288 1824.098992 996.651801 1822.887933 C998.264533 1822.648309 999.928718 1822.780267 1001.561835 1822.649041 C1018.010016 1821.329461 1034.471442 1820.147332 1050.898566 1818.602655 C1062.039313 1817.555169 1073.126227 1815.944451 1084.246833 1814.669671 C1096.354377 1813.281732 1108.566169 1812.541497 1120.563239 1810.516473 C1135.286139 1808.031121 1150.081672 1807.457635 1164.905280 1806.349359 C1182.019050 1805.069940 1199.120734 1803.585809 1216.242560 1802.300042 C1232.353889 1801.090448 1248.397834 1799.097161 1264.604377 1798.489740 C1278.748176 1797.959588 1292.929816 1796.599237 1306.927497 1794.494134 C1322.335456 1792.176995 1337.964484 1792.225701 1353.213508 1790.088739 C1365.708259 1788.337884 1378.260993 1790.180291 1390.724860 1787.011102 C1400.330085 1784.568719 1410.739264 1785.010003 1420.806891 1784.716912 C1449.524665 1783.880365 1478.376472 1784.765863 1506.939826 1782.274163 C1539.062018 1779.471917 1571.096076 1781.849237 1603.141120 1780.657220 C1615.248908 1785.159417 1628.223151 1780.583978 1640.577643 1784.345330 C1644.519904 1785.545526 1648.464972 1786.315667 1649.239997 1790.096063 C1650.427375 1795.886590 1644.395759 1804.016839 1639.191779 1804.596917 C1631.160407 1805.492303 1623.093146 1806.135980 1615.024787 1806.603753 C1610.041755 1806.892572 1605.018561 1806.456781 1600.030402 1806.698114 C1588.966071 1807.233392 1577.912604 1807.990472 1565.854621 1808.657220 z"/><path class="selected"  fill="#000000" opacity="1.000000" stroke="none" 
 	d="
M737.854621 140.657220 C709.535468 143.830651 681.994452 140.990014 654.753669 143.155511 C637.622138 144.517358 620.475104 142.782769 603.603400 144.976464 C590.478339 146.682977 577.228461 144.887445 564.492133 147.146722 C556.252387 148.608361 548.850776 146.839471 541.071052 146.822534 C531.352485 146.801355 521.633430 148.025811 511.910468 148.647912 C500.860114 149.354913 489.716285 149.340509 478.776649 150.836053 C467.344001 152.399041 455.823890 153.354089 444.477180 155.027917 C430.314033 157.117242 415.817725 156.387170 401.876594 160.494439 C396.764655 162.000451 391.227088 160.675164 385.655036 162.299371 C378.359717 164.425927 370.287299 163.751733 362.605567 164.726647 C355.413062 165.639428 348.303718 167.191217 341.139625 168.349481 C335.807105 169.211663 330.463141 170.378930 325.093940 170.573663 C301.386024 171.433587 277.663856 171.896722 253.955054 172.735711 C249.161994 172.905358 248.403785 169.477014 246.635703 166.515313 C244.641883 163.175470 246.557120 161.309899 248.494025 158.901544 C253.965461 152.098413 261.976630 149.855462 269.490516 146.741662 C270.912360 146.152429 272.930030 146.228387 274.430549 146.726770 C284.252601 149.989007 293.846595 149.006982 303.834662 146.890496 C312.315589 145.093347 321.225318 144.797540 329.946937 144.782556 C342.522681 144.760949 354.422584 141.311486 366.588080 139.063470 C374.151832 137.665795 381.914924 137.025323 389.613074 136.762078 C398.277503 136.465783 406.857276 136.436578 414.982795 132.745843 C416.363898 132.118554 418.274665 132.650689 419.940680 132.658258 C432.862220 132.716912 445.565803 130.997705 458.297095 128.822229 C467.204627 127.300103 476.370704 127.232598 485.431342 126.679467 C497.811713 125.923699 510.432502 126.549676 522.515143 124.273675 C532.379340 122.415643 542.019355 123.062432 551.749824 122.715448 C575.458381 121.870080 599.328315 122.749261 622.850593 120.261407 C646.985724 117.708734 671.113288 120.842980 695.007575 118.374566 C723.429877 115.438439 751.929023 118.946252 780.139716 116.272088 C806.598762 113.763909 833.065803 116.903894 859.280585 114.283685 C880.409980 112.171716 901.500739 114.312646 922.432746 112.313317 C933.195258 111.285333 943.972663 111.694512 954.603827 110.474389 C974.458381 108.195764 994.486457 108.235528 1014.224677 106.080712 C1027.683722 104.611383 1041.492072 107.231958 1054.624274 102.683648 C1055.219245 102.477563 1055.948737 102.679742 1056.614142 102.653924 C1073.665046 101.991449 1090.928962 102.712518 1107.686896 100.139306 C1117.828742 98.582025 1128.119758 100.226647 1138.204474 96.990197 C1143.944343 95.148156 1151.521613 98.486779 1156.916755 96.239862 C1165.584968 92.629754 1172.125373 97.676538 1179.586432 98.725030 C1180.720099 98.884362 1181.827033 99.827935 1182.774665 100.615350 C1186.939338 104.075738 1187.057258 106.517541 1182.376105 108.525323 C1176.441047 111.070855 1170.223639 113.417626 1163.897468 114.490625 C1152.554328 116.414636 1141.018683 117.171594 1129.603766 118.714257 C1122.743781 119.641351 1115.960334 121.133569 1109.141730 122.367517 C1108.518073 122.480340 1107.891730 122.600549 1107.261359 122.651330 C1098.874763 123.326806 1090.469489 123.820794 1082.104255 124.697564 C1069.988288 125.967401 1057.687263 125.564386 1045.768317 128.647058 C1045.456061 128.727868 1045.103644 128.640802 1044.771491 128.659600 C1033.052009 129.323419 1021.336921 130.082421 1009.612250 130.634881 C993.565375 131.391046 977.339606 130.797174 961.519233 133.069879 C950.679389 134.627160 939.896308 133.189965 929.329780 134.842767 C913.606330 137.302209 897.678718 134.901605 882.201118 137.046838 C865.047736 139.424310 847.993781 137.256585 831.004035 138.759881 C800.310859 141.475671 769.577277 140.414758 737.854621 140.657220 z"/><path class="selected"  fill="#000000" opacity="1.000000" stroke="none" 
 	d="
M560.354621 1517.157220 C561.702216 1516.838250 562.549872 1517.019158 563.397529 1517.200067 C562.397529 1518.200067 561.397529 1519.200067 560.397529 1520.200067 C560.216559 1519.352410 560.035590 1518.504876 560.354621 1517.157220 z"/><path class="selected"  fill="#000000" opacity="1.000000" stroke="none" 
 	d="
M445.354621 804.157220 C444.787940 804.057244 444.721259 803.457208 444.654609 802.857232 C445.054603 803.123895 445.454597 803.390557 445.354621 804.157220 z"/><path class="selected"  fill="#000000" opacity="1.000000" stroke="none" 
 	d="
M587.354621 1575.157220 C587.254645 1575.723870 586.654609 1575.790521 586.054572 1575.857171 C586.321235 1575.457147 586.587897 1575.057122 587.354621 1575.157220 z"/></svg>