<?xml version="1.0" encoding="utf-8"?><!DOCTYPE svg PUBLIC "-//W3C//DTD SVG 1.1//EN" "http://www.w3.org/Graphics/SVG/1.1/DTD/svg11.dtd"><svg version="1.1" id="Contours" xmlns="http://www.w3.org/2000/svg" xmlns:xlink="http://www.w3.org/1999/xlink" x="0px" y="0px" width="2876.592285px" height="2876.592285px" viewBox="0.000000 0.000000 2876.592285 482.510529" enable-background="new 0 0 2876.592285 2876.592285" xml:space="preserve" stroke="black" fill="none" stroke-linecap='round' stroke-linejoin='round'><path class="selected"  fill="#000000" opacity="1.000000" stroke="none" 
 	d="
M2876.592314 202.725744 C2873.802519 216.751959 2860.996123 216.810247 2851.414824 220.788443 C2843.739775 223.975180 2835.431914 225.744604 2827.293730 227.674734 C2821.056670 229.153875 2814.630888 229.818411 2808.317412 230.997854 C2801.118926 232.342596 2793.971220 233.964773 2786.764922 235.263311 C2780.886748 236.322500 2774.926543 236.930822 2769.054228 238.017431 C2762.851347 239.165136 2756.732695 240.766226 2750.533232 241.935095 C2745.902861 242.808111 2741.194853 243.261007 2736.536162 243.994207 C2733.848418 244.417212 2731.207304 245.334417 2728.514433 245.487127 C2722.473174 245.829733 2716.361845 246.369497 2710.376250 245.802343 C2705.779814 245.366796 2700.781767 237.480642 2702.790801 234.059393 C2704.670195 230.858923 2707.978056 228.320532 2711.069121 226.051550 C2715.281279 222.959677 2719.663603 221.247534 2725.510527 222.664328 C2729.373320 223.600317 2733.965849 221.602728 2738.217314 220.838583 C2745.190703 219.585196 2752.183135 218.411764 2759.109404 216.932653 C2765.347197 215.600653 2771.467070 213.710028 2777.714873 212.436178 C2781.783965 211.606466 2786.034941 211.688482 2790.123320 210.927038 C2800.560576 208.983053 2810.948515 206.775549 2821.363799 204.711813 C2829.481474 203.103338 2837.633086 201.659124 2845.726592 199.938803 C2851.255156 198.763647 2856.734648 197.330450 2862.190703 195.846685 C2868.549101 194.117590 2872.400908 197.800924 2876.342314 201.975744 C2876.592314 201.975744 2876.592314 202.475744 2876.592314 202.725744 z"/><path class="selected"  fill="#000000" opacity="1.000000" stroke="none" 
 	d="
M1167.592314 345.975744 C1167.925688 350.060675 1168.223052 353.649481 1168.604643 357.229284 C1168.874785 359.764044 1169.328032 362.279852 1169.579253 364.815985 C1170.283843 371.925024 1171.018584 379.033117 1171.564116 386.155188 C1172.033720 392.286291 1171.982573 398.467596 1172.676787 404.568060 C1173.267241 409.756414 1174.289702 414.943274 1175.657378 419.985266 C1178.251860 429.549627 1175.140044 437.523932 1166.969756 441.095617 C1159.738677 444.256659 1148.531279 440.096899 1147.555693 431.333929 C1146.733427 423.949041 1145.301421 416.623846 1144.686308 409.226751 C1144.213774 403.543432 1144.852446 397.774115 1144.518340 392.071081 C1144.191679 386.495184 1143.033720 380.969915 1142.660307 375.394293 C1142.334258 370.526678 1142.843413 365.603827 1142.530425 360.734503 C1142.115019 354.272100 1141.067046 347.850256 1140.654692 341.387823 C1140.340483 336.461309 1140.716582 331.494482 1140.550688 326.553503 C1140.430083 322.961401 1140.141997 319.346045 1139.550200 315.804296 C1138.008818 306.580603 1135.787749 297.446295 1134.713286 288.174932 C1133.409331 276.924749 1129.811797 266.420233 1126.029326 255.901007 C1123.322051 248.371695 1122.136382 248.216009 1114.465971 248.790182 C1107.690825 249.297354 1100.800566 248.102835 1093.954009 247.875921 C1088.705107 247.701971 1083.441802 247.987127 1078.190947 247.842947 C1073.172392 247.705145 1068.157500 247.334692 1063.149687 246.951437 C1060.610991 246.757132 1058.099150 246.230902 1055.562163 245.993307 C1051.316679 245.595709 1047.063261 245.097647 1042.808501 245.047323 C1039.784941 245.011541 1036.760527 245.792837 1033.723662 245.936544 C1030.175200 246.104483 1026.547881 245.545813 1023.070464 246.070044 C1016.860320 247.006277 1015.329985 249.877981 1016.971709 255.897100 C1017.387724 257.422277 1017.865385 259.171911 1017.514067 260.624792 C1015.628874 268.421545 1018.918242 275.559332 1020.116057 282.947485 C1020.697051 286.531134 1021.783720 290.030737 1022.586211 293.580847 C1024.711577 302.982672 1026.943022 312.363562 1028.869292 321.806433 C1030.320952 328.922338 1031.309233 336.131506 1032.610625 343.279730 C1033.613677 348.789190 1034.989287 354.237463 1035.819853 359.769903 C1036.654814 365.330481 1036.921172 370.974035 1037.627715 376.557074 C1038.089018 380.201574 1039.016142 383.785955 1039.511382 387.427588 C1040.302519 393.242682 1040.594145 399.145788 1041.741484 404.882788 C1042.223906 407.295080 1043.870635 410.538122 1045.836333 411.350134 C1049.088286 412.693548 1052.337309 413.959051 1052.398222 417.512365 C1052.457915 420.984838 1051.956084 425.403204 1049.853911 427.756536 C1046.726225 431.257666 1042.027129 433.396276 1037.856230 435.878729 C1037.243437 436.243475 1035.837553 435.359625 1034.831816 434.968145 C1021.652983 429.837927 1016.360869 419.253759 1014.532134 406.063421 C1013.685332 399.955542 1011.880278 393.978582 1011.071013 387.867926 C1009.964507 379.513372 1009.548064 371.069433 1008.545012 362.698645 C1007.683623 355.509802 1006.635527 348.327612 1005.278410 341.217230 C1002.523161 326.782263 999.495940 312.399298 996.594573 297.992102 C994.249968 286.349249 991.991423 274.688543 989.558440 263.064245 C988.646025 258.705114 987.406706 254.410345 986.206938 250.116858 C985.427947 247.329107 978.612395 244.923727 974.362822 245.995413 C965.403716 248.254812 956.341765 248.965200 947.096709 249.172705 C940.275664 249.325781 935.170866 246.822790 930.645598 242.456549 C925.399382 237.394720 926.632842 230.311697 933.495512 228.095938 C942.257353 225.266989 951.201628 222.069021 960.251982 221.347158 C968.263640 220.708151 976.241850 220.090124 984.259734 219.241812 C994.589507 218.148870 1005.138762 219.332769 1015.562285 218.855902 C1023.074736 218.512243 1030.271391 219.811987 1037.588408 220.902319 C1044.373686 221.913427 1051.240996 222.695074 1058.089995 222.866278 C1064.828520 223.034750 1071.600249 221.898489 1078.337309 222.081381 C1086.461943 222.301931 1094.593291 224.060278 1102.669829 223.759420 C1110.380400 223.472219 1117.508086 225.342367 1124.904692 226.508215 C1129.931181 227.300467 1135.224516 227.476187 1140.167754 223.275000 C1146.795317 217.642309 1155.049468 214.342352 1163.812163 213.005835 C1171.321684 211.860464 1178.848418 210.490576 1186.410307 210.138800 C1191.851958 209.885656 1197.355254 211.248205 1202.846343 211.708120 C1218.019927 212.979071 1231.636015 219.038275 1244.709746 226.098013 C1259.918608 234.310720 1274.735869 243.280920 1287.862700 254.722662 C1291.875639 258.220465 1296.016386 261.571905 1300.102934 264.985083 C1305.268706 269.299414 1307.068266 275.901464 1306.068999 281.373938 C1305.224272 286.000189 1300.648955 291.003973 1296.376006 293.714605 C1288.619048 298.635321 1280.176665 302.969152 1271.448149 305.754889 C1256.415434 310.552526 1240.939726 313.958349 1225.659819 317.986456 C1221.209868 319.159582 1216.721220 320.255926 1212.388945 321.781317 C1209.692778 322.730658 1208.605864 324.723608 1210.571806 327.570868 C1215.483672 334.683905 1219.542387 342.550726 1225.302397 348.877783 C1236.152373 360.795630 1247.593779 372.241491 1259.483183 383.125494 C1269.043486 391.877386 1279.488677 399.695807 1289.875273 407.482946 C1291.927519 409.021612 1295.499785 408.876410 1298.373930 408.889837 C1302.123930 408.907385 1305.961821 407.698919 1309.596220 408.205694 C1311.759306 408.507330 1314.483916 410.721411 1315.334013 412.754095 C1316.115630 414.622900 1315.547392 418.194311 1314.150298 419.640783 C1307.766386 426.250738 1300.632842 430.794561 1290.408110 429.147467 C1278.334990 427.202581 1267.778105 422.096380 1258.869292 414.438269 C1245.507597 402.952368 1232.651152 390.784185 1220.445952 378.074347 C1207.958769 365.071081 1196.038237 351.443182 1184.851225 337.311682 C1180.406401 331.696905 1178.099516 324.160406 1175.772612 317.180883 C1174.283965 312.715338 1179.651274 306.770330 1184.294951 305.933355 C1193.363188 304.298956 1202.377226 302.367651 1211.431670 300.653753 C1220.001494 299.031500 1228.578398 296.360449 1237.180693 296.243933 C1250.825102 296.059118 1261.991606 290.587744 1272.761626 283.303228 C1277.444853 280.135626 1278.124175 276.750677 1274.056059 273.074987 C1267.481474 267.134436 1260.636382 261.468359 1253.651030 256.012152 C1236.747344 242.808752 1216.561064 237.052862 1196.410185 231.316336 C1183.424834 227.619680 1172.040556 231.832693 1161.278716 238.788351 C1160.359526 239.382406 1159.507475 240.240835 1158.499541 240.510305 C1153.246733 241.914785 1153.134917 246.712713 1153.829741 250.052099 C1155.578642 258.458807 1158.867217 266.534765 1160.863799 274.904211 C1162.084868 280.022772 1162.081694 285.436621 1162.584624 290.721991 C1162.957060 294.636480 1163.143950 298.571600 1163.615630 302.473089 C1164.681548 311.288794 1166.055083 320.070990 1166.945830 328.902868 C1167.499541 334.393072 1167.399077 339.949194 1167.592314 345.975744 z"/><path class="selected"  fill="#000000" opacity="1.000000" stroke="none" 
 	d="
M2438.842314 291.725744 C2432.624052 286.174200 2426.736113 280.777533 2420.638945 275.628454 C2418.782011 274.060095 2416.348662 273.174170 2414.179228 271.975744 C2413.650420 274.795904 2412.474883 277.673437 2412.719267 280.424963 C2413.336699 287.380529 2414.564238 294.283667 2415.598418 301.200171 C2417.524687 314.081060 2417.374052 327.059393 2417.684111 340.030005 C2417.839873 346.539007 2418.975127 353.023108 2419.632597 359.522009 C2420.307890 366.195227 2421.356230 372.865332 2421.476103 379.550512 C2421.598174 386.353155 2414.777373 391.839544 2408.218291 390.975683 C2404.474150 390.482611 2398.488799 384.784124 2397.608183 380.709723 C2396.228301 374.323889 2394.627470 367.961248 2393.718535 361.504522 C2392.670683 354.059515 2391.966338 346.535009 2391.672392 339.023077 C2391.329619 330.258215 2391.717802 321.467291 2391.551299 312.692175 C2391.426054 306.104498 2390.779814 299.527258 2390.631133 292.939367 C2390.463164 285.497839 2391.220488 277.981329 2390.421416 270.622778 C2389.564482 262.730108 2390.079619 254.508032 2384.012236 247.590826 C2378.344267 241.129080 2377.415068 233.539465 2382.398955 225.470541 C2386.465361 218.887518 2386.843779 211.268377 2385.590361 203.654119 C2384.066191 194.395147 2382.489531 185.144567 2381.027373 175.875875 C2380.690459 173.740545 2380.705107 171.547323 2380.596465 169.378790 C2380.195586 161.362036 2382.955595 157.676260 2392.090605 155.025869 C2400.392363 152.617147 2408.722441 150.095083 2417.583525 150.964621 C2427.308867 151.918951 2437.011015 150.636450 2446.866240 151.621786 C2463.806181 153.315451 2479.671904 158.057501 2495.259795 164.216696 C2511.119414 170.483282 2523.606230 181.480505 2534.948271 193.869467 C2541.294463 200.801168 2546.364287 208.579351 2547.431914 218.131491 C2547.738310 220.874273 2546.754668 224.236425 2545.255156 226.616629 C2540.817656 233.658529 2534.520049 238.252325 2526.446074 241.145224 C2515.581572 245.037878 2504.318388 247.121984 2493.172881 249.603384 C2488.144804 250.722876 2482.544951 249.190298 2477.199980 248.991552 C2466.785918 248.604330 2456.369902 248.257528 2445.951445 248.027761 C2444.265166 247.990591 2442.517119 248.493750 2440.876982 249.002829 C2435.346709 250.719763 2435.011748 251.553213 2439.537383 255.318243 C2451.630156 265.378698 2463.840117 275.305792 2476.209746 285.023413 C2488.731230 294.860571 2501.280058 304.690252 2514.229277 313.946417 C2524.659697 321.402227 2535.498076 328.348059 2546.535918 334.876867 C2557.445342 341.329626 2568.805205 347.026770 2580.018828 352.957983 C2587.588164 356.961615 2595.448515 359.862249 2604.214629 360.237036 C2608.074248 360.402075 2611.840361 362.596685 2615.707304 362.808661 C2619.372344 363.009558 2623.101836 361.725225 2626.826445 361.293280 C2628.403349 361.110418 2630.636260 360.814245 2631.521758 361.663549 C2633.266142 363.336950 2635.509306 365.856909 2635.373564 367.880957 C2634.858672 375.560217 2632.553252 382.334539 2624.386748 385.835974 C2617.098662 388.960882 2610.192656 390.224249 2601.986845 389.274786 C2582.258330 386.991980 2564.634551 379.271246 2547.856719 369.767126 C2530.871123 360.145239 2514.514433 349.305975 2498.484648 338.135168 C2483.861601 327.944647 2470.002226 316.651525 2455.894804 305.730139 C2450.173613 301.301001 2444.686064 296.569555 2438.842314 291.725744 M2410.092314 184.975744 C2410.259062 187.768026 2410.543974 190.559240 2410.569365 193.352835 C2410.636992 200.741232 2410.635039 208.131002 2410.577666 215.519583 C2410.539092 220.461828 2412.212431 221.682745 2417.724394 222.350592 C2431.869414 224.064489 2445.971220 223.829138 2460.104521 223.923010 C2463.463652 223.945318 2466.821074 223.115377 2470.189238 223.019339 C2475.797881 222.859426 2481.618437 223.919714 2486.980986 222.760397 C2495.605254 220.896002 2503.941924 217.682333 2512.374785 214.960577 C2517.294707 213.372610 2518.128447 210.283148 2514.615263 206.562704 C2513.428984 205.306356 2511.696562 204.569601 2510.493437 203.324850 C2502.405302 194.956533 2492.388457 190.389486 2481.179228 187.938101 C2474.847441 186.553366 2468.611601 184.733999 2462.308379 183.211340 C2456.186064 181.732382 2450.079131 179.516531 2443.881377 179.182547 C2435.007842 178.704351 2426.032256 179.358389 2417.158720 180.169821 C2414.857939 180.380239 2412.775176 182.975790 2410.092314 184.975744 z"/><path class="selected"  fill="#000000" opacity="1.000000" stroke="none" 
 	d="
M1698.592314 229.975744 C1701.497588 235.840094 1701.344267 241.709127 1701.668974 247.567556 C1701.981352 253.200201 1703.032256 258.787817 1703.560820 264.413794 C1704.042632 269.541540 1704.141997 274.705175 1704.623808 279.832922 C1705.152373 285.458899 1706.138945 291.046698 1706.540190 296.678595 C1707.083281 304.304785 1707.568388 311.959021 1707.522368 319.597845 C1707.446684 332.182287 1706.575224 344.767706 1706.705351 357.345800 C1706.806059 367.073309 1707.969511 376.787512 1708.575591 386.512915 C1708.932036 392.230078 1708.939726 397.973547 1709.439238 403.675848 C1709.940215 409.394720 1710.439238 415.171942 1711.703886 420.750189 C1713.111479 426.959448 1708.922148 437.537848 1703.066802 437.471899 C1698.881377 437.424780 1693.489165 433.566565 1690.907988 429.836218 C1687.607329 425.066137 1686.366850 418.781530 1684.654936 413.025732 C1682.895171 407.108923 1681.415068 401.085821 1680.245024 395.025763 C1679.580107 391.582434 1679.663969 387.973425 1679.617583 384.436346 C1679.530058 377.772314 1679.482573 371.104132 1679.615874 364.441595 C1679.867705 351.857092 1680.788481 339.260382 1680.433501 326.696936 C1680.119780 315.588049 1681.471343 304.482794 1678.855620 293.295538 C1676.709258 284.115667 1677.122710 274.363897 1675.960844 264.919867 C1674.787260 255.382788 1673.147978 245.899557 1671.556792 236.418905 C1670.865752 232.301489 1665.246367 227.394735 1660.635893 227.023016 C1650.479033 226.204107 1640.309844 225.334860 1630.130156 225.055029 C1617.918364 224.719366 1605.689116 224.884573 1593.469511 225.021521 C1588.714995 225.074789 1583.952666 226.038839 1579.218657 225.873785 C1573.515288 225.674917 1572.976592 229.644445 1572.714873 233.409018 C1572.472563 236.896780 1573.528105 240.454611 1573.547148 243.984076 C1573.644682 262.146185 1573.369170 280.312933 1573.680937 298.470190 C1573.851836 308.424078 1575.023222 318.357336 1575.549590 328.310125 C1575.798735 333.019690 1575.592314 337.753332 1575.592314 342.476080 C1575.592314 351.197943 1575.347929 359.929052 1575.676787 368.638464 C1575.902129 374.601416 1576.955229 380.531073 1577.584258 386.481329 C1578.245635 392.736792 1582.298247 395.451025 1587.885527 397.030310 C1594.727934 398.964361 1595.836455 402.994329 1592.237090 408.955694 C1588.606963 414.967962 1582.964873 418.141699 1576.762358 419.689856 C1573.707915 420.452337 1569.175688 419.151678 1566.567168 417.149511 C1557.233672 409.985510 1551.375273 400.106848 1548.218291 388.895361 C1547.063628 384.794470 1547.812407 380.172369 1547.574736 375.794439 C1547.319731 371.096014 1546.871367 366.408087 1546.615019 361.709692 C1546.485136 359.326880 1546.703520 356.924749 1546.568022 354.542517 C1546.319609 350.176764 1545.599272 345.815161 1545.654448 341.459143 C1545.809721 329.207251 1546.351347 316.960669 1546.561675 304.708929 C1546.717070 295.656469 1546.830351 286.590704 1546.506255 277.547186 C1546.300566 271.808142 1545.055571 266.113195 1544.656645 260.372076 C1544.337676 255.781012 1545.234038 251.032827 1544.418242 246.568640 C1543.539092 241.756948 1543.648833 237.237494 1544.438261 232.491400 C1544.850249 230.015066 1540.384795 228.609594 1536.788847 229.193838 C1529.700346 230.345587 1522.511870 230.883612 1515.423735 232.037664 C1510.082915 232.907217 1504.846587 234.400793 1499.540434 235.505163 C1495.175322 236.413702 1490.764189 237.100622 1486.394194 237.987921 C1477.586821 239.776175 1469.788847 243.975088 1461.881377 248.030386 C1458.170927 249.933187 1454.597075 247.429266 1451.635771 245.364874 C1448.316557 243.050985 1445.641875 239.829657 1442.402129 237.379644 C1438.573393 234.484289 1440.016386 231.747686 1441.595976 228.334524 C1444.133330 222.851507 1448.887236 221.307135 1454.046904 219.999380 C1461.727934 218.052572 1469.339751 215.820135 1477.053496 214.019186 C1486.403838 211.836111 1495.807890 209.865637 1505.229521 208.010305 C1512.865630 206.506598 1520.548003 205.219229 1528.237944 204.015295 C1531.843657 203.450781 1535.515044 203.301352 1539.157988 202.977865 C1543.018218 202.635107 1546.875395 202.240911 1550.741850 201.991430 C1556.822417 201.599066 1562.906157 201.137793 1568.994780 201.017309 C1577.380034 200.851400 1585.773711 200.846533 1594.158965 201.014456 C1601.579985 201.163076 1608.994536 201.640539 1616.411772 201.976324 C1623.719756 202.307165 1631.061430 202.311316 1638.327055 203.056784 C1648.143950 204.064016 1657.912138 205.575628 1667.681914 207.002157 C1673.072905 207.789297 1676.713530 211.406286 1680.339262 215.120642 C1682.184477 217.010778 1684.369048 219.263968 1686.749419 219.799017 C1692.517973 221.095648 1696.246977 224.288458 1698.592314 229.975744 z"/><path class="selected"  fill="#000000" opacity="1.000000" stroke="none" 
 	d="
M2166.342314 203.225729 C2160.774199 192.109350 2162.691435 186.103765 2173.852812 181.947515 C2180.373808 179.519232 2186.992705 178.735907 2193.964629 178.851507 C2203.651396 179.012152 2213.359892 177.906088 2223.045439 178.083288 C2233.834502 178.280661 2244.601347 179.492620 2255.391386 179.914846 C2263.326445 180.225348 2271.283720 179.968603 2279.230986 179.995016 C2279.669219 179.996466 2280.098906 180.380514 2280.544951 180.411993 C2289.311064 181.030737 2298.085967 181.537039 2306.843535 182.256186 C2311.606474 182.647268 2316.348906 183.327459 2321.084746 183.990957 C2327.793242 184.930853 2334.489531 185.957281 2341.185332 186.983816 C2344.361601 187.470785 2347.679717 187.610083 2350.659697 188.673742 C2355.825957 190.517584 2356.176299 194.692801 2352.540801 199.631842 C2348.541289 205.065039 2342.721709 205.424032 2336.952177 205.934607 C2327.685332 206.754644 2318.400176 207.406057 2309.111601 207.933187 C2304.735381 208.181540 2300.329863 207.864370 2295.943633 207.999975 C2287.912627 208.248281 2279.879912 209.006796 2271.860136 208.863455 C2265.126738 208.743093 2258.417021 207.172262 2251.686064 207.089132 C2242.272978 206.972906 2232.850859 207.668341 2223.430937 207.960867 C2220.376738 208.055700 2217.291777 207.725317 2214.266386 208.034430 C2209.720732 208.498800 2207.954131 211.796713 2208.496367 216.540030 C2208.960478 220.601156 2208.482207 224.761602 2208.636992 228.869955 C2208.720000 231.074545 2209.291777 233.257559 2209.586211 235.457937 C2210.601836 243.046179 2211.426054 250.665152 2212.669707 258.215368 C2213.209013 261.491217 2214.667021 264.607092 2215.574248 267.833166 C2216.885527 272.494482 2218.590605 275.728765 2224.718291 274.184271 C2227.933623 273.373877 2231.684111 274.876257 2235.206572 275.045630 C2239.120146 275.233831 2243.053740 274.983099 2246.970488 275.131628 C2249.989287 275.246099 2253.001494 275.973455 2256.006377 275.912542 C2261.539092 275.800451 2267.061552 275.145025 2272.594023 275.043524 C2275.448760 274.991156 2278.323760 275.969366 2281.176299 275.903631 C2286.194121 275.788000 2291.199492 274.959600 2296.213652 274.921667 C2302.758818 274.872107 2308.417998 272.060247 2314.394560 270.071112 C2318.588652 268.675238 2322.971465 273.720312 2322.107695 278.074652 C2321.788603 279.684546 2322.916289 281.541052 2322.770781 283.232367 C2321.990996 292.303320 2314.905058 296.740484 2308.017607 299.543890 C2302.061797 301.967962 2294.837920 301.255346 2288.182158 301.994787 C2286.306426 302.203161 2284.468047 302.821997 2282.592314 302.943121 C2276.121855 303.361120 2269.643584 303.668707 2263.166045 303.968939 C2255.357939 304.330908 2247.500029 305.299170 2239.756133 304.734503 C2234.955107 304.384405 2230.376738 303.600286 2226.058135 305.977301 C2224.317900 306.935064 2221.794707 308.803045 2221.819609 310.217932 C2221.911406 315.399450 2222.877470 320.571386 2223.604033 325.734259 C2224.555693 332.498083 2225.412383 339.283026 2226.646758 345.996954 C2227.718535 351.825842 2229.059355 357.623999 2230.645537 363.334539 C2232.407011 369.676336 2236.272978 371.626379 2242.166533 369.934546 C2250.570342 367.522192 2259.002226 365.199621 2267.465117 363.004278 C2273.805937 361.359320 2280.157256 359.629522 2286.607695 358.566198 C2294.035918 357.341711 2301.568144 356.696264 2309.074004 356.008154 C2316.240752 355.351110 2323.447539 354.434301 2330.606230 354.649115 C2335.075957 354.783209 2339.530791 356.666357 2343.914580 358.016851 C2347.738799 359.194891 2351.473174 360.677130 2355.212920 362.114019 C2359.594023 363.797338 2362.748076 370.517736 2361.896513 376.171911 C2360.411406 386.031408 2354.332060 389.297308 2345.130156 384.977575 C2335.796660 380.596045 2325.954131 380.084204 2315.996367 381.157385 C2309.144804 381.895819 2302.397734 383.564215 2295.554717 384.430792 C2291.221953 384.979528 2286.705351 384.313574 2282.441435 385.106756 C2277.400176 386.044531 2272.271269 387.393621 2267.656279 389.572363 C2254.537627 395.765570 2241.505644 402.184271 2228.750517 409.089178 C2221.677519 412.918158 2216.824492 408.671270 2212.549345 405.069769 C2206.605498 400.062384 2202.575224 394.013830 2204.225127 384.757788 C2205.433379 377.977850 2203.430449 370.573584 2202.539580 363.487707 C2201.798125 357.588659 2200.607695 351.745337 2199.588652 345.882086 C2198.364287 338.836370 2197.048369 331.805883 2195.895293 324.748663 C2195.319853 321.225805 2194.821318 317.668585 2194.633330 314.108679 C2194.245879 306.771734 2188.818633 302.859106 2183.881377 299.121649 C2178.419463 294.987005 2175.747832 289.429693 2174.968047 283.348669 C2174.666777 281.001928 2178.075224 277.290899 2180.698027 275.629339 C2187.703642 271.191137 2189.565947 268.724585 2188.523222 260.963781 C2188.063750 257.545385 2186.630644 254.266912 2186.031523 250.856085 C2185.050322 245.270956 2184.577910 239.594519 2183.541045 234.021688 C2182.436552 228.083960 2181.629912 221.927145 2179.331816 216.435720 C2177.920439 213.063147 2173.954131 210.760153 2171.136504 207.975485 C2169.620146 206.477118 2168.106963 204.975714 2166.342314 203.225729 z"/><path class="selected"  fill="#000000" opacity="1.000000" stroke="none" 
 	d="
M2080.592314 208.975744 C2078.595976 203.130392 2081.107451 197.308569 2086.661162 194.406927 C2096.367217 189.335897 2105.040801 189.929663 2110.836211 196.965872 C2113.502470 200.202856 2115.164092 204.505987 2116.341338 208.596136 C2116.732939 209.955633 2114.490996 212.477499 2112.941924 213.918463 C2107.344511 219.125158 2106.270781 222.693090 2108.819609 229.697485 C2114.932402 246.494848 2121.198027 263.237829 2127.159209 280.088598 C2134.222929 300.054815 2142.383818 319.412481 2152.694609 338.043310 C2160.100371 351.425116 2164.740263 366.339666 2170.582060 380.583593 C2171.984160 384.002356 2173.508086 387.401648 2174.527617 390.939093 C2175.733916 395.122717 2172.393340 401.982550 2168.147978 404.919531 C2162.554961 408.789282 2160.143340 408.538122 2154.457060 405.443670 C2140.361601 397.772772 2128.640654 386.992376 2116.174590 377.150488 C2097.693144 362.559576 2080.697539 346.370733 2064.596220 329.282080 C2054.969267 319.064795 2046.350371 307.897741 2037.275786 297.160131 C2029.972929 288.519354 2022.692290 279.859320 2015.312529 271.284765 C2014.681670 270.551794 2013.377470 270.398382 2012.386015 269.975744 C2012.043608 271.064581 2011.368681 272.166876 2011.412138 273.240179 C2011.723784 280.963018 2012.563139 288.684454 2012.472197 296.397345 C2012.398711 302.627050 2011.045195 308.830969 2010.658476 315.071020 C2010.335967 320.273932 2010.836455 325.526861 2010.534575 330.732244 C2010.092314 338.358221 2008.976469 345.949957 2008.663969 353.577398 C2008.273589 363.106573 2008.256865 372.659124 2008.378813 382.197760 C2008.439726 386.972845 2009.053740 391.752813 2009.618071 396.506781 C2010.511137 404.028753 2004.950591 411.742254 1997.583159 412.975775 C1991.375761 414.015051 1982.502226 407.570471 1981.748564 400.474920 C1981.025053 393.662481 1981.467680 386.710180 1981.622588 379.824377 C1981.834502 370.404272 1982.236357 360.988012 1982.599394 351.571783 C1982.898222 343.819403 1983.299590 336.070929 1983.582304 328.318060 C1983.956206 318.068975 1984.488921 307.817938 1984.519804 297.566442 C1984.544707 289.316565 1983.763701 281.066473 1983.678740 272.812963 C1983.648467 269.863317 1984.834380 266.921423 1985.073637 263.944494 C1985.578520 257.661200 1986.655669 251.266897 1985.983305 245.082861 C1984.977812 235.835440 1977.801543 230.820578 1970.661772 225.891012 C1964.635039 221.729940 1958.964995 217.006475 1953.433501 212.191305 C1950.217802 209.391973 1950.213408 205.548559 1953.427519 202.823263 C1956.863188 199.910269 1960.787749 197.411489 1964.858916 195.498236 C1966.292021 194.824743 1968.787627 196.426458 1970.802275 196.974234 C1978.545561 199.079504 1985.964873 197.060827 1993.568755 195.681280 C2000.885161 194.353872 2009.006010 196.056189 2012.557280 203.605841 C2013.519438 205.651129 2013.885771 208.589819 2013.206816 210.692801 C2009.307890 222.771521 2013.574858 232.681326 2020.947295 241.794867 C2034.191435 258.166327 2047.496123 274.489721 2060.902861 290.728003 C2065.771269 296.624884 2070.868193 302.348669 2076.101836 307.925238 C2084.588408 316.967962 2093.073271 326.028967 2101.928496 334.705084 C2112.028105 344.600653 2122.451445 354.173101 2132.938017 363.660650 C2134.786162 365.332739 2137.635283 365.898870 2140.022002 366.975744 C2139.570586 364.834356 2139.441191 362.558538 2138.612578 360.574865 C2135.051299 352.051245 2131.249541 343.628393 2127.599150 335.141577 C2118.899443 314.916296 2109.949248 294.792150 2101.654814 274.401464 C2095.736601 259.852148 2090.461943 245.023458 2085.417510 230.144156 C2083.156767 223.475866 2082.161650 216.378439 2080.592314 208.975744 z"/><path class="selected"  fill="#000000" opacity="1.000000" stroke="none" 
 	d="
M347.592314 361.975744 C347.925658 353.058355 348.135832 344.633764 348.626128 336.225531 C349.141875 327.380346 350.210173 318.560675 350.515868 309.711828 C350.851469 299.996771 350.797972 290.255163 350.512541 280.536901 C350.350340 275.013647 353.007353 271.054815 356.979277 268.249823 C367.162444 261.058325 380.816039 266.102545 384.156432 278.200079 C384.771697 280.428289 384.009459 283.167761 383.443541 285.567633 C381.422026 294.140387 379.194365 302.536963 379.219298 311.585730 C379.238799 318.657690 376.590361 325.698126 375.683531 332.823339 C374.909026 338.908850 374.673674 345.093573 374.638182 351.236944 C374.517973 372.065527 374.431273 392.897406 374.716521 413.722784 C374.780119 418.365057 373.492827 424.031225 378.499327 427.184881 C380.775969 428.619055 383.865019 428.794226 386.608672 429.442724 C387.872496 429.741430 389.187315 429.896765 390.486693 429.960608 C397.902770 430.325018 405.330656 431.048071 412.736357 430.874273 C422.254881 430.650915 431.761168 430.198370 440.854399 426.405371 C445.354582 424.528296 450.413817 423.851965 455.292082 423.098181 C456.959685 422.840490 459.016356 423.699408 460.597411 424.581823 C463.655669 426.288702 464.834074 425.603704 464.596709 422.161200 C464.246184 417.077673 463.875823 411.994726 463.604338 406.906713 C463.223448 399.767797 463.068236 392.614080 462.549956 385.486090 C462.084349 379.082251 461.133177 372.713720 460.666777 366.309912 C460.521605 364.316595 461.605284 362.244757 461.522673 360.233679 C461.330779 355.562384 460.776457 350.905706 460.358977 346.244024 C459.933806 341.496588 459.424223 336.755407 459.087370 332.001837 C458.815520 328.165228 459.074248 324.265936 458.516631 320.479986 C457.422392 313.050451 455.617827 305.719275 454.674712 298.275457 C453.645445 290.151587 453.059691 281.956091 452.656004 273.773321 C452.338744 267.342627 453.111968 260.829840 452.450072 254.452185 C451.751006 247.716238 449.904906 241.101233 448.602477 234.425085 C448.075560 231.724234 447.796080 229.168539 450.123351 226.868917 C454.384032 222.658865 464.940947 220.270681 470.585417 222.458075 C475.641509 224.417456 478.739806 227.717825 478.609129 233.473806 C478.520873 237.361517 478.363554 241.269552 478.646056 245.138632 C479.066191 250.892599 480.039732 256.607183 480.429564 262.362097 C480.983000 270.532080 481.067351 278.734564 481.657866 286.901037 C481.945250 290.875280 483.121916 294.778631 483.543028 298.751501 C484.079680 303.814672 484.180693 308.922338 484.609831 313.998968 C485.338683 322.621923 486.226408 331.231482 486.954680 339.854498 C487.568907 347.127569 488.120207 354.407446 488.574217 361.692114 C489.095671 370.059027 489.327025 378.446112 489.963316 386.803198 C490.676848 396.174688 491.703886 405.522314 492.591612 414.880560 C492.938017 418.532690 498.297301 421.562262 502.638182 421.039831 C507.689848 420.431860 512.803313 420.352972 517.883391 419.959814 C521.084624 419.712011 524.274199 419.312689 527.468413 418.974951 C533.748381 418.310949 540.015654 417.472692 546.310759 417.020208 C553.605193 416.495916 560.945952 416.551245 568.223357 415.883154 C572.454558 415.494665 576.630766 414.299353 580.777190 413.251318 C585.436064 412.073736 591.129240 414.799963 592.331694 419.351995 C592.670866 420.635931 592.197783 422.918219 591.254729 423.636602 C581.097380 431.374395 570.053374 437.176977 557.159880 439.036352 C550.062529 440.059912 543.084441 441.892584 535.997344 443.010321 C528.375700 444.212439 520.676909 444.916693 513.035307 446.003759 C506.983397 446.864660 500.992064 448.183111 494.927428 448.913061 C489.655211 449.547613 484.213988 450.437963 479.037657 449.760931 C473.409605 449.024847 470.040099 444.513067 467.499358 439.460150 C464.312193 433.121679 461.405882 432.811377 455.752379 437.264624 C446.720000 444.379400 436.591216 449.474951 425.346190 451.894293 C417.209074 453.645056 408.941222 454.901800 400.673979 455.902227 C392.537047 456.886877 384.214537 458.382635 376.185271 457.567541 C369.731169 456.912390 362.590208 458.852789 356.596953 454.058294 C351.987273 450.370611 346.675566 446.787664 345.523924 441.072668 C344.173399 434.370703 344.822386 427.245337 344.811888 420.303320 C344.807280 417.251989 345.399596 414.204626 345.575377 411.147100 C345.963316 404.399176 346.404540 397.649176 346.553648 390.894049 C346.721556 383.284948 346.528410 375.668402 346.637969 368.057196 C346.664824 366.192511 347.259001 364.336004 347.592314 361.975744 z"/><path class="selected"  fill="#000000" opacity="1.000000" stroke="none" 
 	d="
M1417.592314 264.975714 C1419.480986 274.364447 1421.551299 283.219519 1423.207793 292.151281 C1424.882719 301.181250 1425.925078 310.331030 1427.697173 319.339270 C1428.452300 323.177923 1431.943999 324.857611 1435.612944 324.905890 C1443.558867 325.010382 1451.511748 324.798162 1459.457915 324.575323 C1462.512236 324.489691 1464.516875 328.395544 1463.140532 331.942266 C1461.358061 336.535284 1456.911772 337.365271 1453.105132 338.910925 C1449.108550 340.533728 1444.901762 341.638250 1440.789336 342.976904 C1436.379912 344.412268 1435.373564 346.595648 1437.072539 350.958166 C1441.319731 361.865118 1445.143340 372.965521 1450.010771 383.587866 C1451.882964 387.673620 1455.986845 390.811712 1459.323271 394.130835 C1462.777495 397.567266 1465.572539 401.061895 1466.787505 406.094427 C1467.738310 410.032110 1470.373808 413.583807 1472.378935 417.242193 C1477.821684 427.172583 1473.856474 435.744787 1463.763579 438.682653 C1458.792021 440.129766 1453.328154 437.357611 1448.964262 433.863104 C1443.079985 429.151251 1439.622832 422.816687 1436.218047 416.232916 C1426.348174 397.148779 1417.954619 377.475012 1411.191191 357.092840 C1411.096587 356.807714 1410.653960 356.612188 1410.613066 356.338934 C1409.134917 346.483831 1405.511748 344.917883 1395.607695 348.864172 C1392.924712 349.933172 1389.698760 349.924200 1386.724028 349.913214 C1381.584013 349.894232 1378.316313 353.183111 1376.609648 361.068975 C1370.981596 387.077185 1359.683379 410.594366 1345.296538 432.769018 C1342.738432 436.711676 1340.418486 440.847326 1337.499419 444.503241 C1335.634917 446.838263 1333.010893 449.873144 1330.483672 450.122381 C1323.488310 450.812231 1315.821806 450.744970 1311.845976 443.461065 C1309.693755 439.518103 1311.553740 434.820990 1314.538237 431.679419 C1325.456572 420.186377 1332.339751 406.395117 1338.148711 391.920538 C1340.958891 384.918402 1343.943388 377.980413 1346.539824 370.900030 C1348.622099 365.221472 1347.567046 364.394201 1341.968413 361.827337 C1337.623076 359.835028 1333.467070 356.927282 1330.104155 353.552313 C1328.839507 352.283026 1329.008330 347.138403 1330.305571 346.184912 C1336.044096 341.966894 1342.214018 338.175940 1348.646025 335.107122 C1354.743559 332.197882 1361.077788 323.070105 1360.603667 316.433508 C1360.408843 313.707617 1360.403960 310.868444 1360.944731 308.209295 C1362.301787 301.536291 1364.368193 294.995672 1365.503325 288.292456 C1366.891875 280.092932 1367.331450 271.732519 1368.726347 263.534399 C1369.864287 256.845861 1372.034697 250.337942 1373.312041 243.666571 C1374.293486 238.540136 1373.803008 233.024191 1375.397368 228.149313 C1377.526885 221.638372 1375.067534 213.798071 1381.475615 208.477453 C1387.000639 203.889883 1395.746977 202.462667 1401.624175 206.019415 C1402.788115 206.723837 1403.814238 207.860495 1404.559477 209.019384 C1409.475859 216.665030 1411.457304 225.436102 1413.063628 234.124945 C1414.845976 243.765371 1415.456084 253.621847 1416.628691 263.377996 C1416.676665 263.776709 1417.259062 264.111212 1417.592314 264.975714 M1397.092314 300.975744 C1396.258940 296.402990 1395.480010 291.819036 1394.541655 287.267920 C1394.374419 286.456732 1393.546904 285.781713 1393.024199 285.043829 C1392.546904 285.845892 1391.808867 286.595007 1391.633452 287.458410 C1390.226347 294.389471 1388.828520 301.325384 1387.625395 308.293921 C1386.786406 313.153540 1386.031645 318.053808 1385.746977 322.965368 C1385.672759 324.245642 1387.680815 326.875341 1388.419219 326.766211 C1392.072173 326.226294 1395.579131 324.408636 1399.217314 324.146429 C1402.409331 323.916327 1401.767729 322.129889 1401.531035 320.580755 C1401.003203 317.127813 1400.261015 313.695074 1399.383940 310.311743 C1398.610014 307.325842 1397.534697 304.418036 1397.092314 300.975744 z"/><path class="selected"  fill="#000000" opacity="1.000000" stroke="none" 
 	d="
M1794.342314 409.225744 C1773.827910 404.289892 1760.381621 392.075964 1752.377837 372.880285 C1749.536528 366.066381 1748.636504 359.164068 1747.764067 352.172766 C1747.344878 348.813269 1748.779448 345.231298 1749.320342 341.741674 C1752.026885 324.278143 1758.496123 308.144354 1766.511137 292.525366 C1772.727934 280.410406 1779.754546 268.844244 1789.186308 258.944006 C1795.716582 252.089666 1802.177031 245.082479 1809.391631 239.001410 C1813.276152 235.727057 1818.712920 234.317495 1823.383330 231.936880 C1824.641875 231.295385 1826.305693 230.392202 1826.681792 229.247290 C1829.214385 221.536123 1837.238432 221.872458 1842.347685 220.695288 C1849.897490 218.955709 1858.473784 220.960455 1865.624419 225.522604 C1875.911650 232.085852 1886.745024 237.976233 1896.235381 245.545584 C1903.528716 251.362646 1910.223418 258.624853 1915.188261 266.502417 C1922.413237 277.966375 1927.136748 290.704962 1930.879546 303.976568 C1935.935942 321.905951 1932.563261 337.876623 1921.782378 351.819921 C1913.728667 362.236151 1903.289336 370.811560 1893.882597 380.176916 C1883.220610 390.791906 1869.691069 396.945288 1856.468291 403.324804 C1849.166289 406.847815 1840.890654 408.302893 1833.171538 411.024115 C1824.284819 414.156897 1815.141509 412.751013 1806.129302 412.746252 C1802.283110 412.744238 1798.437895 410.630072 1794.342314 409.225744 M1857.092314 376.975775 C1857.544096 376.857306 1858.097197 376.867010 1858.432890 376.601690 C1866.599638 370.144506 1874.869048 363.808447 1882.854765 357.133429 C1890.462676 350.774511 1898.192534 344.530218 1901.696074 334.547949 C1903.652129 328.974707 1905.733061 323.621710 1904.608061 317.581274 C1903.911040 313.839300 1902.750029 310.046118 1902.884673 306.315161 C1903.176787 298.220160 1901.457427 290.419714 1898.162993 283.406439 C1894.927397 276.518286 1890.022612 270.305761 1885.240019 264.281256 C1879.758086 257.375647 1877.068999 257.801092 1869.918974 262.917822 C1864.868437 266.532141 1859.387114 272.049231 1852.364897 266.886206 C1848.104887 263.753912 1843.877348 260.187780 1840.800932 255.966955 C1838.609770 252.960714 1835.743681 252.475531 1833.839140 253.499701 C1822.774321 259.449408 1812.439726 267.047583 1805.297026 277.177465 C1790.784331 297.759649 1778.173491 319.577124 1775.708159 345.481390 C1775.213042 350.684118 1775.842070 356.058996 1776.479033 361.290411 C1777.708037 371.384680 1783.436308 378.907568 1791.610136 384.356237 C1800.518218 390.294439 1810.544096 391.965979 1821.099760 389.964148 C1826.094511 389.016882 1831.286406 388.540014 1835.996123 386.791937 C1843.043364 384.176367 1849.744170 380.627600 1857.092314 376.975775 z"/><path class="selected"  fill="#000000" opacity="1.000000" stroke="none" 
 	d="
M845.592314 455.975744 C841.776701 456.958014 838.517851 458.301428 835.131499 458.833685 C830.611296 459.544165 825.992949 459.884985 821.415068 459.900732 C817.055815 459.915747 812.692412 459.334600 808.334685 458.969336 C802.758147 458.501898 797.110442 458.392706 791.632719 457.377691 C786.434172 456.414404 781.052702 455.190161 776.402617 452.809271 C769.477995 449.263739 762.701323 445.128180 756.650786 440.262396 C750.779997 435.541143 748.338530 428.681067 747.410246 420.973577 C746.502593 413.436926 747.751799 406.814093 751.569487 400.431189 C753.598967 397.038031 763.138396 391.465216 765.922392 393.247564 C767.967497 394.556890 769.094878 398.258795 769.448454 401.044561 C770.115447 406.299994 769.351042 411.761786 770.232329 416.959600 C771.609160 425.079870 777.735381 429.769476 784.810698 432.514013 C794.867888 436.415289 805.200469 439.950994 816.293974 438.940771 C826.683501 437.994665 837.062102 436.884466 847.417204 435.615820 C861.537322 433.885931 872.628142 425.603918 883.923491 418.011999 C890.310271 413.719244 896.331999 409.084570 900.953642 402.443792 C906.387297 394.636023 907.245207 386.217199 906.455718 377.575232 C904.991850 361.549994 893.109221 353.389502 878.588774 349.015203 C869.679839 346.331335 860.694792 343.871283 851.664824 341.629278 C846.723967 340.402563 841.648222 339.502813 836.580351 339.055090 C829.126738 338.396551 821.289885 339.522497 814.226103 337.621832 C804.351653 334.964972 794.473235 331.200506 785.640715 326.101171 C776.301909 320.709631 768.887480 312.357061 766.693572 301.300421 C765.596404 295.770941 765.953581 289.810095 767.882048 284.001745 C770.436186 276.308661 774.196257 269.551672 780.062163 264.061834 C788.042265 256.593420 795.417448 248.070517 804.517180 242.317175 C814.290251 236.138128 825.734099 232.581381 836.506072 228.015371 C839.480193 226.754736 842.724455 226.141058 845.728850 224.940359 C851.447539 222.654867 857.042693 223.033392 862.879363 224.630743 C866.443388 225.606115 870.278410 225.665854 874.005827 225.953802 C881.436369 226.527838 890.353178 237.707907 888.200957 243.867086 C885.452422 251.732901 873.356535 255.746832 866.207854 251.038626 C862.899626 248.859823 859.959746 246.108114 856.599394 244.024954 C849.948821 239.902121 843.236174 242.735083 837.112883 245.164846 C825.499297 249.773138 814.751738 256.132452 805.954558 265.200598 C800.474028 270.849859 796.297148 276.998968 795.155547 285.473852 C794.534575 290.084448 791.820158 294.708593 793.714262 299.334570 C796.508879 306.159979 800.711699 311.771704 808.878752 313.268225 C814.658904 314.327398 820.194243 316.788733 825.984282 317.710546 C832.244170 318.707159 838.724394 318.274633 845.012846 319.151312 C850.423247 319.905584 855.661711 321.815832 861.044035 322.868048 C867.357756 324.102331 873.834013 324.596380 880.067046 326.118658 C883.888152 327.051855 887.349516 329.395514 891.033904 330.961248 C907.124846 337.799444 922.044219 346.051733 929.959685 362.849676 C934.182036 371.810461 935.801177 380.985510 933.298125 390.870977 C930.857573 400.509497 926.023955 408.659216 919.280241 415.719458 C912.627226 422.684790 906.164031 429.955725 898.754790 436.042456 C889.832549 443.372076 879.074187 447.742987 867.992949 450.903112 C860.795805 452.955542 853.399443 454.309088 845.592314 455.975744 z"/><path class="selected"  fill="#000000" opacity="1.000000" stroke="none" 
 	d="
M731.592314 317.975744 C731.636504 329.381140 730.820952 340.165136 728.752470 350.932898 C727.540923 357.239965 728.046599 363.862829 727.559721 370.327032 C727.027251 377.395575 726.876677 384.583776 725.375212 391.461279 C724.042815 397.564611 720.992339 403.279760 718.873625 409.228033 C716.371123 416.254156 714.714018 423.662268 711.515471 430.342138 C705.546050 442.808905 694.999052 450.505499 682.542754 456.054235 C673.950041 459.881964 664.859831 459.966497 656.270293 458.448370 C650.900786 457.499304 645.926421 452.823523 641.362151 449.099951 C629.447966 439.380163 621.791533 426.684484 617.667998 411.981146 C615.252898 403.369513 613.448821 394.575964 611.635161 385.809393 C610.017546 377.990118 608.552092 370.125952 607.417632 362.224432 C606.501433 355.843573 606.272246 349.367224 605.563994 342.952429 C604.946501 337.359472 603.859343 331.812170 603.392607 326.210302 C602.879668 320.054113 602.946990 313.851660 602.554900 307.682501 C602.287260 303.471838 601.721159 299.276617 601.190154 295.086950 C600.188139 287.180700 598.140166 279.370092 598.683623 271.331396 C598.800932 269.596838 599.606352 267.232367 600.901457 266.371161 C606.446013 262.684179 612.468169 260.754370 619.407317 261.877966 C625.209929 262.817480 626.803923 267.056311 627.453154 271.515966 C628.343108 277.629736 628.485136 283.884008 628.519988 290.080481 C628.547331 294.940039 627.546477 299.815069 627.698210 304.661444 C627.852202 309.580328 629.005278 314.459509 629.442351 319.380835 C629.740202 322.733862 629.212187 326.177740 629.674162 329.494574 C630.357939 334.404974 631.766936 339.211035 632.545805 344.112555 C633.415373 349.584753 633.917815 355.114996 634.594328 360.618231 C635.487578 367.884802 635.125334 375.102789 638.064421 382.347662 C641.965666 391.964575 643.492888 402.515539 646.704009 412.450628 C649.255339 420.344488 653.277739 427.733313 660.087370 432.845831 C666.979155 438.020117 673.215910 437.194403 679.067717 429.720037 C688.059416 418.235022 692.475615 404.343023 696.446684 390.492773 C698.374175 383.770208 699.402678 376.770666 700.548613 369.848577 C701.744536 362.624304 702.822173 355.364843 703.534575 348.079992 C704.439848 338.823004 704.932951 329.525518 705.590300 320.244513 C706.291472 310.344458 706.331023 300.490179 704.645415 290.637457 C703.064238 281.394720 701.997099 272.065100 700.556975 262.796545 C699.983550 259.105841 702.139922 257.403784 704.918547 256.196051 C709.815764 254.067511 714.452666 254.670416 716.721526 258.809149 C721.087187 266.772833 725.285429 274.935339 728.440825 283.428595 C732.498564 294.350836 731.590788 306.020086 731.592314 317.975744 z"/><path class="selected"  fill="#000000" opacity="1.000000" stroke="none" 
 	d="
M281.842314 470.225744 C280.009917 478.193151 271.220427 483.478247 263.328368 482.361975 C257.020934 481.469885 253.051894 477.996771 250.211256 472.920416 C249.324583 471.335821 249.566939 469.004827 249.626021 467.025457 C249.880507 458.498205 250.475234 449.976141 250.532912 441.449377 C250.593337 432.515905 249.776625 423.626165 251.445570 414.677008 C252.553053 408.738379 252.415144 402.541876 252.552367 396.454473 C252.720076 389.013922 252.509413 381.565344 252.638228 374.123266 C252.682051 371.590796 253.471388 369.073950 253.547438 366.538763 C253.698943 361.488409 253.465514 356.426275 253.624175 351.376379 C253.825896 344.956030 254.531981 338.541937 254.507628 332.127111 C254.487425 326.807714 253.624266 321.496893 253.316390 316.171789 C252.968977 310.163183 252.892745 304.139135 252.560179 298.129431 C252.419737 295.591314 251.703139 293.078894 251.633391 290.544165 C251.410658 282.449286 250.664275 274.528814 247.667784 266.841131 C244.547881 258.836828 247.559416 252.744314 255.559081 249.508947 C263.517638 246.290197 275.402312 253.091131 277.744688 261.402441 C279.346678 267.086676 280.054930 272.429327 278.726866 278.225866 C278.229552 280.396429 279.446410 282.907873 279.558836 285.279211 C279.976134 294.080816 280.120848 302.896826 280.632506 311.692022 C281.111357 319.923162 282.055388 328.127539 282.517821 336.359228 C282.667876 339.030401 281.648528 341.752905 281.668944 344.448126 C281.776885 358.680304 282.070006 372.910955 282.226592 387.142981 C282.244719 388.788794 281.764769 390.434637 281.600981 392.088903 C280.913756 399.031378 280.154051 405.969061 279.623412 412.923956 C279.143065 419.219366 278.939696 425.535681 278.588957 431.841345 C278.092223 440.771368 276.496214 449.661139 280.339903 458.452063 C281.843596 461.891241 281.561217 466.111334 281.842314 470.225744 z"/><path class="selected"  fill="#000000" opacity="1.000000" stroke="none" 
 	d="
M2844.342314 298.725744 C2840.871611 298.975744 2837.647490 299.070074 2834.430937 298.957037 C2826.574004 298.681005 2818.721709 298.283728 2810.865752 297.982275 C2801.456328 297.621252 2792.044951 297.322790 2782.635283 296.971655 C2774.223418 296.657782 2765.814726 296.217016 2757.400420 296.028936 C2754.692656 295.968390 2751.893095 296.219732 2749.270049 296.870642 C2741.141631 298.887609 2730.795683 294.810583 2728.237578 288.070898 C2724.596465 278.478857 2732.274687 268.443579 2741.271025 269.972967 C2747.238799 270.987463 2753.178740 272.403875 2759.190215 272.860876 C2765.812529 273.364325 2772.504424 273.065954 2779.163115 272.953711 C2788.228056 272.800940 2797.166777 273.454748 2806.179228 274.788916 C2816.345732 276.293859 2826.828642 275.695318 2836.978056 277.271704 C2844.830351 278.491278 2852.462676 281.425451 2860.001494 284.129736 C2861.620146 284.710302 2863.820586 288.353064 2863.326933 289.250341 C2861.893340 291.855536 2859.595488 294.641119 2856.957549 295.771521 C2853.149199 297.403601 2848.743193 297.642431 2844.342314 298.725744 z"/><path class="selected"  fill="#000000" opacity="1.000000" stroke="none" 
 	d="
M140.342314 412.725744 C134.120146 413.975744 128.172530 415.174994 122.168288 415.914740 C117.065329 416.543463 111.892569 416.586706 106.759978 417.003271 C104.719115 417.168951 102.713553 417.737799 100.674101 417.958197 C94.069243 418.671850 87.469237 419.598974 80.842719 419.898565 C73.415152 420.234381 65.955283 419.795385 58.519282 420.019445 C48.221171 420.329809 37.894721 420.550543 27.648680 421.526495 C14.285563 422.799353 12.295777 422.734869 1.096936 413.598791 C-0.338254 412.427923 -0.180796 408.185064 0.522275 405.733374 C2.278944 399.607702 11.207751 397.090734 16.439877 398.317541 C17.507952 398.567938 18.586863 398.929235 19.666407 398.950262 C38.572829 399.318823 57.480105 399.873785 76.387251 399.875921 C85.532660 399.876989 94.671492 398.589727 103.825995 398.325109 C110.024985 398.145941 116.255415 398.593512 122.454955 399.010809 C130.188063 399.531378 137.924880 400.138891 145.613280 401.088140 C147.693205 401.344946 150.873366 402.581854 151.325484 404.052404 C152.239043 407.023901 149.298766 408.282934 146.786070 409.331762 C144.655257 410.221106 142.652007 411.416021 140.342314 412.725744 z"/><path class="selected"  fill="#000000" opacity="1.000000" stroke="none" 
 	d="
M16.592307 337.975744 C24.186728 335.331549 29.498011 340.394690 35.419062 342.441046 C44.505328 345.581366 53.518877 348.515234 63.070067 350.271154 C71.467139 351.814947 79.338278 356.014654 87.623465 358.413549 C106.253775 363.807775 125.010420 368.764532 143.674544 374.044622 C145.702879 374.618475 147.720244 375.867071 149.270140 377.310217 C150.706694 378.647833 152.770049 381.727026 152.372725 382.198553 C150.712935 384.168432 148.325499 386.583288 146.032576 386.774939 C137.017836 387.528509 127.891341 388.168280 118.897978 387.539526 C112.537314 387.094824 106.299490 384.630102 100.051222 382.906225 C91.982161 380.679998 83.979346 378.213324 75.907690 375.996954 C66.748961 373.482092 57.483592 371.339666 48.378333 368.650213 C38.225260 365.651281 28.175236 362.293707 18.131806 358.938269 C14.241028 357.638372 8.868259 346.169744 10.737743 342.602026 C11.756243 340.658331 14.258967 339.492407 16.592307 337.975744 z"/><path class="selected"  fill="#000000" opacity="1.000000" stroke="none" 
 	d="
M865.592314 4.975736 C864.750945 3.317157 864.409514 1.658579 864.068022 0.000000 C864.742827 1.658578 865.417571 3.317157 865.592314 4.975736 z"/><path class="selected"  fill="#000000" opacity="1.000000" stroke="none" 
 	d="
M1847.842314 277.225744 C1844.935332 279.166662 1841.456938 277.824774 1841.079741 274.923162 C1841.043120 274.640387 1841.442046 274.106329 1841.742339 274.008978 C1842.882109 273.639471 1844.463042 272.796881 1845.144560 273.245886 C1846.401030 274.073614 1847.138579 275.688726 1847.842314 277.225744 z"/></svg>