<?xml version="1.0" encoding="utf-8"?><!DOCTYPE svg PUBLIC "-//W3C//DTD SVG 1.1//EN" "http://www.w3.org/Graphics/SVG/1.1/DTD/svg11.dtd"><svg version="1.1" id="Contours" xmlns="http://www.w3.org/2000/svg" xmlns:xlink="http://www.w3.org/1999/xlink" x="0px" y="0px" width="2855.533936px" height="2855.533936px" viewBox="-0.000000 0.000001 2855.533936 414.701324" enable-background="new 0 0 2855.533936 2855.533936" xml:space="preserve" stroke="black" fill="none" stroke-linecap='round' stroke-linejoin='round'><path class="selected"  fill="#000000" opacity="1.000000" stroke="none" 
 	d="
M2358.886348 145.988067 C2352.866329 141.967971 2347.256954 137.913741 2341.271846 134.523559 C2336.993282 132.100127 2336.485958 133.322936 2335.965450 138.211608 C2335.029903 146.993682 2338.071163 155.216430 2338.429805 163.717223 C2338.679561 169.631499 2338.908809 176.269713 2333.605831 180.654906 C2327.967159 185.317870 2318.640743 183.056823 2314.181026 176.093383 C2311.395870 171.744414 2309.241817 167.215636 2310.033321 161.596465 C2310.834102 155.911162 2311.186885 150.097930 2311.025752 144.360686 C2310.872432 138.899871 2309.799922 133.465102 2309.136836 128.018249 C2308.466670 122.515120 2307.800411 117.011519 2307.136592 111.507598 C2306.505489 106.271911 2305.232540 101.437407 2302.057735 96.899871 C2299.379024 93.071532 2297.208126 88.479766 2298.195430 83.411132 C2298.632198 81.169311 2299.162715 78.546035 2300.609737 76.984298 C2303.592159 73.765426 2303.090450 70.648818 2302.252559 66.863296 C2301.118282 61.739364 2300.952266 56.409530 2300.094112 51.213759 C2299.259883 46.161681 2297.839229 41.201735 2297.103633 36.139190 C2296.106563 29.276763 2293.688838 22.163756 2300.714961 16.537520 C2305.090450 13.033858 2309.840694 11.762649 2314.979854 13.215911 C2320.021358 14.641616 2325.194942 21.866561 2325.089473 26.739730 C2324.943233 33.494704 2324.261836 40.240920 2324.207881 46.994063 C2324.170284 51.685332 2324.557002 56.422408 2325.317745 61.046325 C2325.497188 62.135360 2328.143184 63.809142 2329.317012 63.568435 C2333.844112 62.640212 2338.271358 61.154815 2342.668819 59.678359 C2355.830440 55.259398 2368.940792 50.685409 2382.117549 46.312850 C2385.507442 45.187942 2389.029415 44.289229 2392.561885 43.809035 C2397.457393 43.143493 2401.790157 44.133834 2404.208126 49.254912 C2405.661006 52.330840 2407.413692 55.273147 2409.151729 58.204314 C2411.944454 62.913665 2407.968379 65.906463 2406.046504 69.071563 C2404.369258 71.832961 2401.882198 73.731597 2397.482540 72.913512 C2382.796749 70.182769 2368.541866 72.407256 2354.888057 78.477660 C2348.978877 81.104918 2343.096553 83.805633 2337.099483 86.218215 C2331.511104 88.466399 2331.516963 94.157454 2335.981807 97.611724 C2350.654903 108.963149 2366.081661 119.354308 2380.568721 130.927855 C2390.549678 138.901656 2399.442012 148.236297 2408.856319 156.924529 C2410.015010 157.994018 2411.296016 159.018645 2412.693477 159.718322 C2414.253047 160.499297 2416.373653 161.671050 2416.136836 158.144805 C2414.776485 137.892852 2421.796016 119.310317 2428.684932 101.004592 C2435.887569 81.864882 2444.536983 63.233092 2453.314327 44.740111 C2456.975215 37.027022 2462.548213 30.211211 2467.349483 23.053222 C2471.034786 17.559241 2474.211055 11.504134 2478.820674 6.909293 C2483.907100 1.839110 2490.574581 -0.994691 2498.244747 1.729148 C2502.471065 3.230124 2505.457881 8.646064 2505.239864 13.239455 C2505.070674 16.800101 2505.312862 20.533164 2506.217647 23.966720 C2511.570186 44.277038 2517.153682 64.526763 2522.700557 84.785689 C2523.867305 89.047286 2523.716670 94.173751 2529.005245 96.043426 C2531.345333 96.870696 2533.868770 97.667174 2536.303829 97.652007 C2545.023067 97.597686 2553.739131 97.136062 2562.458858 96.933761 C2569.074092 96.780257 2574.631465 103.901610 2571.296260 108.814406 C2567.991573 113.682006 2563.457637 117.925475 2557.098262 118.637191 C2554.581905 118.918822 2551.919551 117.691390 2549.358516 117.824691 C2545.232051 118.039519 2540.924678 118.238463 2537.125362 119.626037 C2535.554561 120.199645 2533.799678 124.226653 2534.345088 126.001754 C2538.149776 138.380538 2542.464473 150.605834 2546.768184 162.826629 C2548.710811 168.342162 2551.084835 173.704101 2553.118282 179.189452 C2556.795284 189.107543 2553.666377 196.160796 2544.512325 198.862060 C2541.433956 199.770415 2532.204219 195.362243 2530.278438 190.939788 C2526.778682 182.902099 2523.997676 174.538207 2521.168819 166.224639 C2517.041622 154.094481 2512.985225 141.935531 2509.194210 129.697280 C2506.995479 122.598296 2501.562129 118.934401 2492.327754 121.975783 C2490.490596 122.580886 2488.432735 122.647185 2486.468379 122.714568 C2473.270626 123.167083 2460.201778 124.190200 2448.294063 130.742537 C2444.969112 132.572219 2443.123653 135.167739 2443.070186 139.215529 C2442.987911 145.469848 2442.143672 151.723998 2442.250118 157.967528 C2442.322139 162.200530 2442.900997 166.611999 2444.277217 170.589355 C2446.087032 175.819091 2441.426143 184.517333 2435.845333 184.665740 C2432.937862 184.743011 2429.990596 183.688079 2427.097042 183.837310 C2423.657588 184.014739 2420.128047 184.546599 2416.867794 185.622832 C2411.388545 187.431609 2406.697627 187.305877 2402.470577 182.701598 C2390.139278 169.269744 2376.531612 157.252135 2361.185909 147.301253 C2360.543086 146.884475 2359.821407 146.589705 2358.886348 145.988067 M2466.136348 76.238036 C2463.136348 82.655837 2460.076045 89.046966 2457.211055 95.524413 C2456.843624 96.355605 2457.456905 98.556930 2457.672237 98.564788 C2459.820430 98.642959 2462.005489 98.548720 2464.133174 98.209563 C2472.714229 96.841598 2481.184200 95.241057 2489.956417 97.613875 C2494.882930 98.946517 2500.756954 95.948485 2498.903438 90.009704 C2494.992061 77.475921 2491.126338 64.927001 2487.068721 52.440536 C2486.413448 50.423369 2484.867061 48.695662 2483.732540 46.834167 C2482.200557 48.271682 2480.208370 49.447295 2479.215206 51.191619 C2474.701778 59.119445 2470.469600 67.207641 2466.136348 76.238036 z"/><path class="selected"  fill="#000000" opacity="1.000000" stroke="none" 
 	d="
M328.136348 126.738067 C326.803005 119.457213 324.868007 112.726867 324.293331 105.882308 C323.621608 97.881728 324.337184 89.775161 324.080928 81.726348 C323.815029 73.374709 323.019832 65.041335 322.620418 56.692107 C322.323268 50.481078 322.193691 44.257949 322.164546 38.039382 C322.138637 32.494948 329.361232 25.857589 336.399288 24.738067 C340.463130 24.091659 347.778377 28.758178 349.066432 33.413314 C351.364925 41.720489 350.695095 50.199782 349.744136 58.653441 C349.417476 61.557586 349.193599 64.487411 349.163234 67.408004 C349.083583 75.073653 348.880519 82.751403 349.201992 90.404372 C349.592311 99.696776 349.935787 109.046767 351.278316 118.228744 C352.784542 128.529983 356.082759 138.520415 363.384792 146.294814 C368.718898 151.973968 375.932643 154.066741 383.764430 154.684020 C401.058895 156.046996 413.083644 145.236342 426.387599 137.121490 C431.229122 134.168365 436.556545 131.916442 441.869899 129.888701 C443.529537 129.255324 445.893367 130.310805 447.878688 130.814437 C448.294033 130.919784 448.868221 132.171508 448.684596 132.604888 C444.724910 141.949233 439.895473 150.717803 432.504726 157.916991 C421.913143 168.234038 409.802303 176.013854 395.230403 178.911010 C389.804286 179.989837 383.926540 178.568236 378.277431 178.812469 C371.300655 179.114074 365.155391 176.852752 359.177333 173.732207 C350.339809 169.118987 342.972988 162.856597 338.194789 153.994048 C336.308559 150.495513 334.364925 150.760558 332.192653 153.247039 C329.455471 156.380126 326.839992 159.639556 324.403957 163.011992 C316.159969 174.425139 304.530208 180.034606 291.145595 182.742125 C285.047389 183.975707 279.005489 185.911895 272.853389 186.355651 C263.589656 187.023803 254.251613 186.716369 244.945125 186.723845 C234.175350 186.732451 223.791515 184.717681 213.750164 180.762359 C203.588161 176.759582 194.640407 167.931273 195.079647 155.366485 C195.384090 146.657134 194.478527 137.858855 195.374111 129.231170 C196.122219 122.024383 198.974452 115.061156 200.376384 107.888732 C201.399700 102.653380 201.584453 97.253707 202.134777 91.926436 C202.476573 88.617782 202.754848 85.301818 203.145839 81.999114 C204.116954 73.795775 206.122447 65.558623 205.796047 57.411849 C205.571590 51.809905 208.123424 45.483550 203.445857 40.050750 C202.693508 39.176925 204.867961 34.570189 206.757244 32.889190 C210.608928 29.462157 214.874858 26.010512 219.596904 24.254058 C222.040706 23.345061 226.395488 25.304198 228.893505 27.245681 C235.751369 32.575667 236.571422 40.097640 235.185054 48.243468 C233.639217 57.326323 232.513164 66.479842 231.123592 75.590270 C229.850444 83.937453 228.366664 92.253493 227.171276 100.611220 C226.324306 106.532973 225.838634 112.505599 225.125530 118.447570 C224.511028 123.568053 223.514690 128.661712 223.236370 133.796981 C223.046657 137.297133 223.928966 140.842849 224.089000 144.379195 C224.184612 146.491973 223.248821 148.770843 223.751827 150.723876 C225.409923 157.161559 231.690380 160.920959 238.754955 160.817901 C243.891841 160.742919 249.038082 161.428222 254.182643 161.731963 C260.266719 162.091247 266.473384 163.311461 272.411128 162.526397 C281.413356 161.336181 290.330043 159.090545 299.083126 156.592681 C303.608211 155.301360 307.763942 152.615020 311.974239 150.350219 C316.078182 148.142592 320.065822 145.713225 324.053920 143.297713 C327.178371 141.405288 330.322200 139.735579 328.289699 134.850036 C327.382320 132.668929 328.136348 129.796660 328.136348 126.738067 z"/><path class="selected"  fill="#000000" opacity="1.000000" stroke="none" 
 	d="
M1869.886348 21.488067 C1873.910762 15.816604 1877.660030 11.499587 1885.739864 12.367408 C1890.379146 12.865676 1895.371700 9.473113 1900.289913 8.145774 C1905.207515 6.818549 1909.843746 5.376731 1915.447750 6.385375 C1921.147945 7.411330 1927.355342 5.553954 1933.348262 5.049506 C1935.788326 4.844115 1938.288326 4.560370 1940.691890 4.862700 C1947.032711 5.660247 1953.312496 6.959311 1959.659297 7.686736 C1967.362789 8.569640 1975.147457 8.791030 1982.827144 9.820426 C1989.883419 10.766257 1996.892330 12.212485 2003.826045 13.846000 C2006.144283 14.392127 2008.427120 15.895331 2010.267208 17.490401 C2013.692989 20.459678 2012.716304 25.634109 2008.113033 27.652740 C2002.308711 30.198165 1996.398555 31.469588 1989.706905 30.112746 C1984.790279 29.115829 1979.403804 30.647094 1974.223384 30.697982 C1961.668209 30.821319 1949.110103 30.655334 1936.555049 30.789351 C1932.872798 30.828673 1929.111690 31.112914 1925.536861 31.936400 C1918.950069 33.453658 1916.935176 37.862349 1916.956417 45.297667 C1916.973140 51.154464 1915.147212 56.992766 1914.558711 62.881148 C1913.852291 69.948333 1913.477169 77.056960 1913.288448 84.156417 C1913.266353 84.988540 1915.416988 86.707839 1916.415401 86.605208 C1923.749752 85.851302 1931.037960 84.661864 1938.359249 83.761199 C1944.683345 82.983184 1951.111080 82.819091 1957.349361 81.630492 C1964.721675 80.225814 1972.093990 78.459258 1979.179195 76.016677 C1985.557613 73.817809 1991.589961 70.580733 1997.697872 67.641204 C2004.228755 64.498153 2009.892086 67.797515 2010.098018 75.234588 C2010.331783 83.676650 2005.531490 89.467986 1998.947139 93.668365 C1987.004268 101.286849 1973.764400 105.566375 1959.797725 107.766158 C1952.380611 108.934386 1945.015865 110.432265 1937.614864 111.707549 C1929.558956 113.095641 1921.482173 114.363692 1913.426021 115.750396 C1908.176143 116.654082 1905.715084 119.763915 1905.014034 125.155471 C1904.223751 131.234130 1902.522212 137.196944 1901.163204 143.197997 C1900.382320 146.646590 1903.381587 152.839599 1907.332759 154.676269 C1912.537837 157.095855 1917.779781 158.223693 1923.912593 158.027038 C1941.038936 157.477935 1956.447627 152.039580 1970.864742 143.602309 C1979.217525 138.714034 1984.621822 130.485915 1990.089717 122.648253 C1992.041866 119.850066 1994.524776 117.350066 1997.640254 118.940001 C2000.584346 120.442473 2004.063228 123.225249 2004.896114 126.134871 C2008.548458 138.896209 2002.762813 148.929900 1993.361080 156.771758 C1986.886714 162.171966 1979.501338 166.531615 1972.297359 170.991698 C1963.970088 176.147338 1955.047359 180.487823 1945.345211 181.812560 C1936.063838 183.079833 1926.878169 186.419860 1917.326778 184.698516 C1904.453365 182.378539 1892.647457 177.388885 1883.238277 168.163146 C1876.123653 161.187072 1874.527950 152.371917 1876.667598 142.560317 C1877.876705 137.015685 1877.773921 131.194396 1878.466304 125.522658 C1878.717525 123.464614 1879.970455 121.496459 1880.057369 119.457076 C1880.291255 113.968627 1879.762081 108.700469 1877.370235 103.426543 C1875.945796 100.285628 1877.500240 96.362105 1881.111446 94.268218 C1888.476070 89.997909 1889.669185 83.356185 1889.537227 75.423522 C1889.430171 68.991118 1891.270748 62.536757 1892.109004 56.074172 C1892.593257 52.341552 1892.802730 48.573302 1893.136226 44.821120 C1893.529048 40.404204 1890.448970 39.775695 1887.255733 39.789382 C1881.888668 39.812423 1870.929317 31.515380 1869.187496 24.523757 C1868.978267 23.684615 1869.469722 22.670882 1869.886348 21.488067 z"/><path class="selected"  fill="#000000" opacity="1.000000" stroke="none" 
 	d="
M593.886348 136.488067 C584.823726 158.877624 566.645259 169.062072 544.988521 174.708159 C538.392330 176.427825 531.762386 178.202849 525.035274 179.167968 C520.790706 179.776946 516.207027 179.525054 512.007259 178.603271 C505.171016 177.102843 498.221553 175.417754 491.866298 172.584838 C481.329708 167.888061 472.086299 161.353667 468.372646 149.474914 C465.604549 140.620696 465.022701 131.507888 465.133785 122.309524 C465.237544 113.717055 464.805843 105.119796 466.089168 96.552764 C466.999385 90.476745 467.914577 84.344359 468.045589 78.220397 C468.336605 64.616240 468.183620 51.001266 468.091365 37.391509 C468.075374 35.028136 467.484493 32.666549 467.131923 30.308196 C466.819728 28.219970 465.525325 25.633056 466.317775 24.149215 C468.482295 20.096274 470.731624 15.183684 474.377040 13.016967 C481.729030 8.647193 489.952358 5.675941 497.981624 2.553046 C500.486446 1.578826 503.519771 1.829535 506.316524 1.769004 C511.369808 1.659629 516.437007 1.938010 521.480648 1.691314 C529.092037 1.319030 536.681636 0.337028 544.292842 0.167754 C551.820064 0.000358 559.364620 0.467002 566.897823 0.753722 C573.708126 1.012931 580.522335 1.281066 587.318904 1.767264 C597.335445 2.483817 607.051937 4.423629 616.289913 8.662330 C620.714656 10.692550 621.387325 12.108527 617.942134 15.399512 C612.396114 20.697288 605.973201 22.070998 598.297298 20.931167 C591.939327 19.987037 585.329647 20.738067 578.831478 20.738067 C576.941585 20.738067 575.040279 20.603919 573.163814 20.762755 C567.067806 21.278792 560.991512 22.100783 554.887386 22.428710 C548.656734 22.763427 542.367000 22.276809 536.169368 22.857329 C531.218929 23.321029 526.130977 24.240554 521.527523 26.040755 C514.266597 28.880187 506.861202 29.569884 499.235897 29.936782 C497.805721 30.005584 495.356227 32.622878 495.316829 34.115340 C494.995937 46.270110 494.965999 58.440932 495.243129 70.597823 C495.323238 74.111373 496.776973 75.938216 501.624629 75.107345 C507.681758 74.069152 514.120845 75.392013 520.397212 75.448028 C523.779659 75.478194 527.248287 75.372024 530.536373 74.666900 C540.499446 72.530318 550.624690 70.758849 560.241756 67.522552 C568.066158 64.889510 575.263179 60.378570 582.709712 56.643142 C585.465938 55.260543 588.014583 53.090682 591.319332 55.400756 C594.537837 57.650619 593.665767 60.368682 593.351619 63.759383 C592.528072 72.649947 586.780086 77.528014 580.187068 81.663283 C569.665218 88.262694 558.685420 94.031051 546.215816 96.146071 C538.832027 97.398437 531.427730 98.529311 524.037471 99.744231 C520.194759 100.375915 516.371944 101.132400 512.523311 101.722579 C507.753719 102.453933 502.937435 102.911284 498.194026 103.776153 C491.339473 105.025969 489.973476 107.761794 491.010677 114.253295 C491.940944 120.075240 492.320796 126.095641 492.005519 131.978209 C491.609584 139.365813 496.918025 147.327056 504.361568 148.707549 C512.281734 150.176482 520.304805 152.777495 528.179317 152.443023 C543.081294 151.810027 557.007015 147.605086 568.168575 136.441268 C573.062374 131.546477 579.087825 127.703139 584.930599 123.889907 C586.513606 122.856826 590.354061 122.756606 591.306941 123.846679 C592.941097 125.716155 593.246517 128.830367 593.855831 131.480391 C594.206844 133.007064 594.059322 134.648375 593.886348 136.488067 z"/><path class="selected"  fill="#000000" opacity="1.000000" stroke="none" 
 	d="
M118.136348 34.738067 C109.772891 35.738067 101.905528 36.708510 94.047481 37.749389 C89.483905 38.353850 84.941104 39.114638 80.378452 39.726775 C75.049053 40.441756 69.721591 41.425155 64.368152 41.627791 C59.968654 41.794356 57.599689 44.554885 56.264606 47.688369 C51.921894 57.880904 47.759670 68.185973 44.275939 78.695662 C42.145759 85.121963 45.355442 88.563781 51.995723 87.660995 C59.319675 86.665267 66.544055 84.958755 73.846446 83.775710 C79.151103 82.916335 84.517497 82.444884 89.846927 81.730178 C103.240924 79.933990 116.226116 76.539733 128.790309 71.567901 C133.369670 69.755797 137.821544 67.594298 142.467967 65.986358 C147.376995 64.287551 151.821102 67.640700 152.121273 73.016234 C152.590267 81.415587 147.635127 87.114089 140.947231 90.104842 C129.865322 95.060546 118.287487 99.049224 106.660541 102.600524 C96.835185 105.601546 86.693973 107.661544 76.593326 109.628402 C71.632831 110.594329 66.428729 110.232314 61.367923 110.777862 C53.488239 111.627318 45.639263 112.758590 37.772491 113.731734 C31.212944 114.543181 28.888156 117.009780 28.111366 123.813796 C27.768867 126.813766 26.640521 129.803237 26.758308 132.762053 C27.147293 142.533141 34.335967 147.036300 42.168556 149.553618 C54.462413 153.504729 67.143276 154.862395 80.217632 152.894530 C90.091526 151.408416 100.170101 150.862975 109.309360 146.612136 C115.065486 143.934859 120.161891 139.871901 125.734783 136.753142 C128.253902 135.343337 131.149242 134.199340 133.985790 133.854094 C138.811061 133.266768 140.217800 135.716872 140.236247 140.704284 C140.289028 154.985229 130.511821 162.251494 120.153255 168.560058 C113.247905 172.765502 105.552974 176.194457 97.758060 178.260375 C91.115634 180.020873 83.828021 179.381103 76.822002 179.725249 C70.865772 180.017791 64.904529 180.321929 58.944469 180.344268 C57.432704 180.349975 55.928302 179.269011 54.401210 178.743499 C45.651531 175.732299 36.570026 173.441985 28.218349 169.574248 C15.473920 163.672179 5.755596 154.110473 0.863615 140.702926 C-0.565114 136.787215 0.472467 132.015685 0.099177 127.660460 C-0.453676 121.210219 1.380729 115.396346 3.714694 109.478332 C5.469972 105.027648 4.737798 99.153258 7.369676 95.570357 C16.940391 82.541289 20.536998 66.966125 27.117496 52.694076 C29.446392 47.643065 28.258285 44.163070 23.775554 40.821242 C19.967914 37.982711 15.379068 36.286635 13.891900 30.577300 C12.765445 26.252776 14.375570 23.403579 17.084423 21.903899 C24.891605 17.581695 32.892112 13.335464 41.302886 10.503264 C44.970836 9.268142 49.860294 11.385764 54.129619 12.289680 C58.276378 13.167647 62.296520 15.142058 66.448055 15.395995 C75.278827 15.936164 84.160160 15.598395 93.018100 15.763526 C99.139789 15.877662 105.255138 16.310637 111.376773 16.454337 C116.864192 16.583152 122.364589 16.700591 127.843410 16.460692 C131.419109 16.304122 140.572536 20.082877 141.899654 23.107390 C142.710155 24.954528 143.437526 27.453643 140.744792 28.557677 C136.898830 30.134536 132.963024 31.551482 128.964839 32.679671 C125.596599 33.630111 122.084667 34.071395 118.136348 34.738067 z"/><path class="selected"  fill="#000000" opacity="1.000000" stroke="none" 
 	d="
M2696.386348 48.488067 C2689.249141 45.091491 2684.541866 39.495879 2680.645381 33.374267 C2679.832393 32.096831 2681.334590 28.454482 2682.786006 26.785964 C2688.199581 20.562613 2695.884639 18.446830 2703.557735 16.809188 C2710.711544 15.282340 2717.959346 13.953368 2725.233028 13.344146 C2728.331661 13.084617 2731.602413 14.877395 2734.794795 15.738158 C2744.684200 18.404632 2755.126094 19.850280 2764.335567 24.018874 C2778.817989 30.574050 2792.935909 38.235778 2806.326778 46.805861 C2817.063350 53.677108 2826.826290 62.214995 2836.407100 70.706222 C2846.292354 79.467238 2852.572627 90.859420 2855.328731 103.730010 C2856.125118 107.448241 2854.445674 111.989120 2853.008174 115.817550 C2851.282833 120.412200 2849.068965 124.986205 2846.202266 128.943130 C2843.420284 132.783263 2839.931758 136.376113 2836.072139 139.118209 C2826.494502 145.922530 2816.983028 153.062743 2806.594356 158.416564 C2795.426631 164.171874 2783.257686 167.969176 2771.585323 172.766021 C2764.468624 175.690642 2757.445674 178.847381 2750.414913 181.976714 C2743.662715 184.982177 2737.103877 188.525359 2730.142208 190.899932 C2727.834346 191.687163 2724.337032 189.992278 2721.734737 188.716277 C2715.090938 185.459075 2709.742305 180.728759 2708.113643 173.122191 C2707.364131 169.621154 2707.433711 165.944274 2707.137081 162.346709 C2706.468624 154.237334 2704.297237 145.891601 2705.522090 138.078628 C2707.015010 128.555205 2705.269893 119.168258 2706.757930 109.632842 C2708.352901 99.412856 2708.345821 88.737670 2706.337032 78.236495 C2705.606319 74.416121 2706.816524 70.225249 2707.135616 66.202941 C2707.472530 61.953399 2707.871944 57.707351 2708.119502 53.452529 C2708.454708 47.694762 2704.129756 45.939361 2696.386348 48.488067 M2775.136348 148.238051 C2783.039669 144.404708 2791.313106 141.169799 2798.746700 136.576446 C2806.816524 131.589858 2814.613887 125.885894 2821.548213 119.438643 C2825.843868 115.444610 2832.250362 111.117751 2829.952266 103.695571 C2828.426631 98.767745 2825.913692 93.701125 2822.514034 89.878631 C2810.843624 76.758101 2796.343379 67.168151 2781.053829 58.738219 C2768.281124 51.696044 2754.626338 47.021300 2740.451534 43.825240 C2739.263790 43.557433 2737.548458 44.188064 2736.505977 44.970916 C2732.383907 48.066253 2733.978877 53.017699 2733.350704 57.054900 C2732.474483 62.686828 2733.317501 68.562881 2733.001827 74.311248 C2732.601436 81.608413 2731.417354 88.873672 2731.241817 96.168822 C2731.079952 102.902358 2731.999629 109.654494 2732.092403 116.403258 C2732.251094 127.946715 2732.200801 139.494414 2732.111690 151.039367 C2732.060176 157.701995 2737.653926 161.803191 2744.227657 159.740722 C2745.850215 159.231719 2747.513301 158.837798 2749.105586 158.249816 C2757.624874 155.103850 2766.127803 151.913238 2775.136348 148.238051 z"/><path class="selected"  fill="#000000" opacity="1.000000" stroke="none" 
 	d="
M728.886348 160.988067 C718.203060 157.064239 709.918758 149.960357 701.357845 143.381774 C688.549556 133.539351 675.996883 123.364669 663.242488 113.451018 C662.003414 112.487975 659.259517 111.481887 658.694148 112.027968 C657.365108 113.311767 656.470149 115.460860 656.212520 117.369521 C654.723079 128.404677 653.427425 139.466903 652.172237 150.531981 C651.923336 152.726409 651.336971 155.423980 652.287960 157.110351 C655.014034 161.944671 652.019527 165.614409 649.915401 168.890563 C648.309200 171.391387 644.871028 172.984679 641.942806 174.305480 C637.304317 176.397704 627.956661 169.189605 628.268367 163.350677 C628.696285 155.331908 630.077327 147.365829 630.979244 139.369201 C631.181758 137.573028 631.040523 135.740890 631.146114 133.930465 C631.452083 128.679152 631.985591 123.434218 632.093685 118.179854 C632.257137 110.239623 632.043025 102.291884 632.182002 94.350707 C632.237972 91.152205 633.044185 87.966094 633.090511 84.768279 C633.221553 75.717498 633.524166 66.641921 633.020381 57.617354 C632.573604 49.614348 631.187618 41.659759 630.120296 33.696654 C629.252315 27.220168 632.589290 22.599547 637.295955 19.231193 C647.590450 11.863852 659.031002 6.631324 671.453975 4.114951 C675.297176 3.336471 679.583370 4.147277 683.571834 4.805350 C692.360103 6.255347 701.108882 7.969642 709.836177 9.759246 C728.015254 13.487029 743.294551 21.619796 752.078548 38.881957 C755.498043 45.601958 756.288387 52.388183 753.302425 60.006530 C746.638790 77.008208 735.930660 89.508941 718.189083 95.132094 C712.571224 96.912673 706.770931 98.109969 701.110774 99.767562 C695.309322 101.466521 694.390865 105.158813 698.618892 109.694335 C707.425716 119.141784 717.510677 127.024932 728.959224 132.964080 C739.080013 138.214385 749.488887 142.908553 759.759883 147.870467 C763.093502 149.480956 766.886898 150.587310 769.608028 152.926879 C775.713802 158.176421 773.989620 163.679320 766.394039 166.826110 C755.484127 171.345977 745.402400 168.569976 735.329891 164.395263 C733.195796 163.510741 731.197322 162.299041 728.886348 160.988067 M683.636348 84.738067 C703.827510 85.575789 718.204647 76.373137 727.361690 58.820464 C729.221248 55.255889 731.798458 50.981917 728.543514 46.672225 C718.991207 34.024444 704.862117 31.400588 690.461971 29.860641 C685.506221 29.330672 680.269405 31.041305 675.389827 30.273849 C667.640682 29.055068 658.985897 38.137053 658.359493 45.922957 C657.477230 56.889876 658.227413 67.982039 658.079891 79.017974 C658.036556 82.261230 659.507015 83.041747 662.284053 82.740081 C669.324764 81.975265 676.236080 83.035018 683.636348 84.738067 z"/><path class="selected"  fill="#000000" opacity="1.000000" stroke="none" 
 	d="
M1385.386348 10.988067 C1387.009639 10.031402 1388.394893 9.346648 1389.754390 8.614432 C1397.556880 4.411910 1406.288692 8.513846 1408.127559 17.307746 C1410.300411 27.699141 1411.482295 38.326735 1417.089107 47.764632 C1422.985347 57.689284 1429.987178 66.576964 1439.354366 73.420257 C1444.303096 77.035644 1452.507930 76.899596 1457.339839 72.025817 C1471.379878 57.864242 1481.027461 41.427611 1483.100948 21.232711 C1484.178585 10.736884 1489.770381 4.373794 1499.790645 1.554290 C1503.597774 0.483062 1509.008785 2.708808 1511.102046 6.785254 C1514.595821 13.588988 1517.365474 20.534659 1514.209224 28.388396 C1513.690425 29.679351 1513.926143 31.393706 1514.173946 32.851058 C1515.078731 38.174636 1516.283443 43.450133 1517.087398 48.787078 C1517.671871 52.666778 1517.461666 56.681228 1518.208980 60.518096 C1519.661739 67.976363 1520.297969 75.421844 1520.251949 83.038421 C1520.202388 91.231124 1521.153438 99.425643 1521.479122 107.626876 C1521.615352 111.058959 1521.199214 114.509444 1521.152461 117.953170 C1521.088130 122.674300 1520.666744 127.459441 1521.283931 132.099334 C1521.785030 135.867064 1521.576900 139.839461 1526.167598 142.598922 C1533.610347 147.072722 1531.506465 152.957458 1528.030879 162.596862 C1526.526119 166.769713 1518.252437 169.747008 1513.680538 167.586089 C1507.549068 164.688231 1502.906124 159.753173 1500.194698 153.457610 C1497.449581 147.083907 1498.095088 140.230651 1498.077754 133.476470 C1498.067867 129.615203 1497.435176 125.758010 1497.145015 121.894317 C1496.775875 116.979857 1496.453609 112.061706 1496.139644 107.143325 C1495.462276 96.533767 1494.826778 85.921416 1494.109615 75.314589 C1494.005611 73.776717 1493.544551 72.262984 1493.248775 70.738097 C1491.580074 71.536010 1489.495357 71.942153 1488.312618 73.197829 C1482.270992 79.612044 1476.434932 86.221358 1470.577754 92.807464 C1459.691768 105.048095 1448.943721 104.140471 1435.796627 98.485747 C1427.152584 94.767837 1419.473751 88.745482 1411.523067 83.511504 C1409.117427 81.927794 1409.713497 83.267776 1409.629146 84.722136 C1409.170040 92.626830 1408.681270 100.530395 1408.107295 108.427413 C1407.970943 110.302932 1407.355831 112.139831 1407.156856 114.015288 C1406.438106 120.788100 1405.713619 127.562713 1405.176876 134.351317 C1404.936763 137.388289 1405.121700 140.460097 1405.138912 143.515960 C1405.213008 156.678191 1394.011959 158.740722 1384.755733 155.069854 C1373.650630 150.665771 1372.627925 142.465041 1375.279048 133.083922 C1377.935665 123.682891 1380.910640 114.347060 1382.999019 104.818892 C1384.389400 98.475326 1384.841182 91.855269 1385.028072 85.339324 C1385.202022 79.270461 1384.379634 73.178374 1384.195064 67.090499 C1384.143917 65.407577 1385.194820 63.674529 1385.073604 62.013106 C1384.194942 49.966872 1385.791377 37.509978 1380.976924 26.075194 C1378.177608 19.426513 1378.451534 14.712111 1385.386348 10.988067 z"/><path class="selected"  fill="#000000" opacity="1.000000" stroke="none" 
 	d="
M1018.136348 77.738067 C1025.915157 79.071395 1033.152461 80.748229 1040.485225 81.636809 C1047.177730 82.447799 1053.970699 82.539214 1060.725215 82.701491 C1067.963008 82.875381 1072.855098 87.010833 1075.136348 95.299071 C1076.060665 98.657195 1071.138545 107.238387 1067.022823 109.343215 C1055.474605 115.248916 1044.048580 121.416060 1032.324947 126.951644 C1014.080440 135.566176 995.739925 143.998443 977.223445 152.007110 C966.992366 156.432219 955.905391 157.149199 944.853816 156.691283 C933.749019 156.231170 924.487544 150.946380 915.651851 144.757583 C903.330989 136.127669 898.019832 123.371627 895.273555 109.325042 C894.601070 105.885314 895.445064 102.087707 895.913387 98.496566 C898.466304 78.919112 907.234554 61.643386 917.527706 45.375152 C921.775081 38.662169 929.302913 33.819427 935.868282 28.821822 C948.911495 18.893378 963.146602 10.948707 978.743160 5.699904 C983.398616 4.133201 987.944332 2.177451 993.196529 2.631042 C998.946102 3.127593 1004.799556 2.414443 1010.550411 2.903495 C1019.515132 3.665862 1028.030879 18.208747 1024.761226 26.613204 C1023.036251 31.047057 1017.097286 34.432143 1012.080196 33.029830 C1007.819087 31.838775 1003.550716 30.088149 999.809444 27.747649 C992.501583 23.175948 985.300289 24.810485 978.108760 27.321319 C957.906002 34.374877 942.582393 47.934417 930.588741 65.109282 C925.669185 72.154143 922.651851 80.520934 922.023738 89.538405 C921.627864 95.221694 920.092464 100.821334 919.148616 106.471923 C918.173152 112.312102 923.824398 122.248412 929.391109 125.793593 C940.337337 132.764800 951.503231 133.098556 963.567012 128.841201 C980.283565 122.941955 997.568233 118.616134 1013.173580 109.789336 C1016.911006 107.675323 1021.020748 106.223769 1024.933711 104.412292 C1025.727169 104.044997 1026.405147 103.428557 1027.136348 102.926970 C1026.494136 102.388488 1025.933467 101.582915 1025.195674 101.357863 C1022.027950 100.391540 1018.827632 98.958602 1015.603633 98.860152 C1006.708980 98.588576 997.939998 97.464278 988.828365 99.028243 C982.659358 100.087096 975.691036 101.567748 969.061641 98.811995 C963.571590 96.529815 959.515132 92.836303 957.655330 87.435729 C957.058101 85.701262 958.642696 81.839889 960.308284 80.932219 C968.975398 76.209258 978.190731 74.109328 988.319148 75.565520 C994.741695 76.488906 1001.414669 75.526031 1007.956050 75.827910 C1011.205196 75.977874 1014.411006 77.071410 1018.136348 77.738067 z"/><path class="selected"  fill="#000000" opacity="1.000000" stroke="none" 
 	d="
M1720.136348 2.738067 C1720.802852 2.738067 1720.990230 2.687171 1721.133052 2.745337 C1732.194454 7.249564 1733.062496 12.345992 1723.911251 20.312285 C1722.720088 21.349151 1720.598628 21.488570 1718.866451 21.697463 C1715.022945 22.160979 1711.157711 22.497985 1707.291744 22.707335 C1704.411861 22.863296 1701.442623 22.318374 1698.641231 22.812255 C1687.729976 24.735824 1681.102657 32.519469 1675.176143 40.918639 C1667.766597 51.419616 1665.328243 63.891082 1662.240718 76.005584 C1660.477779 82.922942 1662.119747 84.039168 1668.843257 82.796340 C1676.993404 81.289794 1685.185054 79.732680 1693.428829 79.073821 C1704.495723 78.189330 1715.638179 77.690841 1726.731807 77.900512 C1733.885982 78.035735 1741.160030 79.145415 1748.107418 80.899489 C1755.522823 82.771712 1763.459468 92.676467 1762.104122 100.463012 C1761.188106 105.726333 1759.317012 110.361083 1754.694087 113.858581 C1750.008907 117.403060 1745.864376 121.684646 1741.619014 125.784102 C1725.629512 141.223815 1708.406246 155.123931 1689.915767 167.453460 C1677.209468 175.925994 1663.562496 173.495269 1652.174922 164.220122 C1641.550044 155.566344 1637.342769 143.032729 1632.810787 130.792953 C1632.302242 129.419204 1633.041988 127.601653 1633.129268 125.985961 C1633.714717 115.150344 1632.543697 104.380950 1634.866329 93.437453 C1638.385127 76.858611 1642.465450 60.512847 1648.182491 44.589995 C1651.976802 34.022841 1657.522090 24.485671 1666.263912 17.102233 C1674.218746 10.383414 1682.567378 4.687064 1692.805049 1.497848 C1699.920406 -0.718705 1706.821285 0.231460 1713.811641 0.060157 C1715.730098 0.013137 1717.693599 1.795279 1720.136348 2.738067 M1706.636348 124.738067 C1713.846675 118.861022 1721.125850 113.064864 1728.213375 107.043319 C1729.752559 105.735488 1730.605098 103.619369 1731.773799 101.875579 C1729.574581 101.163085 1727.398921 100.356917 1725.161495 99.797133 C1724.519649 99.636565 1723.712642 100.254012 1722.959224 100.401641 C1719.694210 101.041396 1716.329586 102.457320 1713.167110 102.104278 C1702.162349 100.875701 1691.533687 102.936782 1680.763057 104.450286 C1674.682979 105.304687 1668.354610 107.941451 1662.220211 104.320388 C1659.207271 102.541915 1657.671627 104.851241 1657.242916 106.884246 C1654.738521 118.758529 1656.244258 130.207839 1662.180538 140.853744 C1665.597164 146.981093 1675.935543 149.307433 1681.750606 144.640777 C1689.851802 138.139098 1698.005245 131.702498 1706.636348 124.738067 z"/><path class="selected"  fill="#000000" opacity="1.000000" stroke="none" 
 	d="
M2112.886348 178.988067 C2113.136348 180.961425 2113.255001 182.694610 2113.113887 184.406310 C2112.711299 189.285125 2108.439083 192.184447 2103.556026 190.606566 C2092.380245 186.995055 2087.723506 179.205352 2086.126338 169.207976 C2085.521114 165.418151 2084.549434 161.670012 2084.194698 157.860991 C2083.640499 151.906829 2083.524288 145.913207 2083.106075 139.944457 C2082.963008 137.903060 2082.220577 135.891723 2082.175411 133.857268 C2081.775020 115.777450 2081.524288 97.694274 2081.111934 79.614791 C2080.921993 71.304046 2080.600460 62.991195 2080.085079 54.695037 C2079.796016 50.037414 2076.599727 48.940444 2071.385616 48.548644 C2062.245235 47.861815 2054.151973 51.942046 2045.443233 52.926940 C2039.703975 53.575988 2034.494502 51.576278 2029.935420 48.611999 C2025.519527 45.740783 2021.905391 42.052764 2019.898677 36.567016 C2018.284908 32.155684 2020.211421 30.103408 2023.082881 28.865340 C2029.439205 26.124434 2035.859249 23.453094 2043.125118 23.667663 C2052.785518 23.953002 2062.492549 24.207549 2072.118282 23.564254 C2078.017452 23.170043 2083.775264 20.926101 2089.651729 19.803138 C2092.163448 19.323180 2094.817989 19.618514 2097.404903 19.499259 C2102.401241 19.268905 2107.395626 18.982192 2112.391719 18.740981 C2119.532100 18.396232 2126.676387 18.123160 2133.812618 17.705306 C2135.853145 17.585814 2137.859249 16.913123 2139.900752 16.764907 C2149.898555 16.039092 2159.895137 15.170142 2169.908321 14.817176 C2177.069942 14.564727 2179.327022 16.499373 2181.445430 22.512908 C2183.379512 28.003112 2178.243282 37.580596 2172.743282 38.645446 C2165.618282 40.024886 2158.367305 40.757873 2151.165157 41.728347 C2148.254756 42.120467 2145.224971 42.028213 2142.430538 42.806228 C2132.696407 45.516204 2122.774532 44.903396 2112.907100 44.645263 C2107.394649 44.501067 2103.553340 48.383727 2104.999385 54.718917 C2105.770870 58.099044 2105.010616 61.806060 2105.177364 65.354476 C2105.304317 68.058776 2106.044795 70.740829 2106.097530 73.440902 C2106.501338 94.020202 2106.670528 114.604842 2107.183956 135.181029 C2107.513790 148.412520 2106.558711 161.844359 2112.084590 174.466521 C2112.637081 175.728911 2112.469600 177.306670 2112.886348 178.988067 z"/><path class="selected"  fill="#000000" opacity="1.000000" stroke="none" 
 	d="
M1202.886348 156.988067 C1196.983516 148.418532 1191.330684 140.098907 1185.677852 131.779357 C1180.025020 123.459838 1174.008663 115.360625 1168.800044 106.771697 C1159.901607 92.098220 1151.222042 77.336913 1144.844478 61.235518 C1140.770259 50.949492 1134.697750 41.453902 1129.505855 31.612044 C1126.149532 25.249709 1129.128047 18.081145 1136.169429 15.756591 C1137.644283 15.269729 1139.234493 15.131446 1140.707759 14.640883 C1147.214839 12.474227 1150.070796 14.081878 1152.538814 20.567679 C1155.876827 29.339217 1159.396724 38.052642 1163.171993 46.644515 C1174.445430 72.300353 1189.212642 96.014968 1204.193111 119.593902 C1205.238399 121.239211 1207.095455 122.368712 1208.575069 123.738051 C1209.287471 122.379333 1210.190547 121.085692 1210.680660 119.651000 C1213.223873 112.203963 1215.577754 104.691802 1218.156734 97.257537 C1221.742549 86.921157 1225.078487 76.473113 1229.232173 66.364837 C1234.847042 52.700316 1240.747676 39.118941 1247.341915 25.909286 C1249.729854 21.125991 1254.454463 17.503036 1258.186641 13.417899 C1258.350948 13.238166 1259.303707 13.639106 1259.800533 13.924102 C1266.283687 17.643981 1269.627925 22.883300 1266.294307 32.099059 C1259.533321 50.789672 1252.231685 69.315078 1246.304195 88.268554 C1239.918331 108.686736 1234.603877 129.453826 1229.289058 150.188415 C1225.421138 165.278747 1212.709346 166.054137 1202.886348 156.988067 z"/><path class="selected"  fill="#000000" opacity="1.000000" stroke="none" 
 	d="
M2625.886348 186.488067 C2623.262569 186.778472 2620.842403 186.532439 2618.523067 186.908355 C2607.832637 188.640960 2597.394649 188.867522 2587.342159 183.782287 C2579.407344 179.768340 2575.903926 173.361266 2576.165889 164.731048 C2576.345333 158.807342 2577.160030 152.883941 2577.025997 146.975539 C2576.914180 142.066543 2575.449581 137.192260 2575.287960 132.279464 C2575.123165 127.273040 2576.042598 122.240447 2576.090450 117.215529 C2576.196651 106.096663 2575.629756 95.007186 2573.125362 84.118346 C2569.034297 66.329421 2564.572139 48.649474 2557.619502 31.700622 C2554.690059 24.559310 2558.577999 17.972327 2567.540889 14.745109 C2578.020137 10.972045 2584.924190 16.599784 2585.343379 27.024856 C2585.644161 34.501861 2587.741085 41.927886 2589.277950 49.326522 C2590.352901 54.501250 2591.981807 59.559478 2593.104610 64.725936 C2595.214229 74.430800 2597.590694 84.110671 2599.009151 93.923415 C2600.441280 103.832213 2601.742061 113.767760 2601.324581 123.927108 C2601.008174 131.626296 2602.431514 139.393325 2603.012325 147.135329 C2603.177120 149.335021 2602.639522 151.684600 2603.225215 153.736815 C2604.826778 159.348510 2608.058467 160.729125 2613.896358 159.829314 C2618.914180 159.055816 2624.082393 159.303679 2629.131710 158.677886 C2635.139766 157.933288 2641.097286 156.769683 2647.066280 155.728789 C2652.550411 154.772490 2658.104854 154.060363 2663.474483 152.652953 C2669.588008 151.050506 2675.459346 148.522323 2681.575069 146.930739 C2685.166622 145.996093 2689.037471 145.748214 2692.765499 145.846389 C2695.911739 145.929229 2697.948848 151.778930 2695.920284 156.238982 C2694.629512 159.076690 2692.391231 162.242736 2689.733516 163.568328 C2678.158565 169.341735 2666.487178 175.051818 2654.421749 179.663390 C2647.196163 182.425109 2639.174190 183.094787 2631.520870 184.753783 C2629.704219 185.147613 2627.930049 185.738067 2625.886348 186.488067 z"/><path class="selected"  fill="#000000" opacity="1.000000" stroke="none" 
 	d="
M1573.136348 59.738067 C1572.234249 54.140075 1571.104488 49.068999 1570.497676 43.936080 C1569.945919 39.269210 1569.796382 34.536040 1569.770259 29.830428 C1569.736568 23.722655 1569.598018 17.567473 1570.285762 11.521560 C1570.706294 7.824660 1580.100093 2.825721 1584.834346 2.704085 C1590.738155 2.552398 1593.014156 6.642577 1593.998287 11.177802 C1595.237178 16.886893 1595.572017 22.804992 1596.105953 28.650374 C1596.583980 33.885360 1596.985713 39.141189 1597.067012 44.393310 C1597.114620 47.470565 1596.158809 50.563323 1596.205928 53.640655 C1596.285518 58.835814 1596.814083 64.023559 1597.133419 69.215697 C1597.479976 74.853118 1597.748165 80.496016 1598.161373 86.128386 C1598.347530 88.665771 1598.997188 91.175384 1599.102169 93.711425 C1599.518550 103.785918 1599.647945 113.874129 1600.186275 123.941100 C1600.602657 131.729293 1601.547725 139.487868 1602.098873 147.270858 C1602.325801 150.476012 1602.574336 153.784240 1602.047969 156.917052 C1600.833858 164.142882 1604.759761 170.174865 1606.305294 176.719054 C1607.302364 180.941192 1606.552486 183.974944 1603.197627 186.069549 C1597.411983 189.681975 1593.730709 189.374724 1589.921504 186.071136 C1584.108028 181.029265 1582.497554 173.914397 1580.119869 167.130828 C1576.416133 156.564178 1577.429317 145.607116 1577.025264 134.726104 C1576.726436 126.679183 1575.169185 118.686294 1574.624141 110.638747 C1574.243770 105.020812 1574.722164 99.349837 1574.644283 93.704940 C1574.559200 87.528411 1574.334224 81.352004 1574.059322 75.180480 C1573.837154 70.195861 1573.450191 65.218596 1573.136348 59.738067 z"/><path class="selected"  fill="#000000" opacity="1.000000" stroke="none" 
 	d="
M1113.886348 23.988067 C1115.136348 27.319884 1116.792842 30.358153 1117.000728 33.492492 C1117.444087 40.179015 1116.920772 46.924071 1117.192867 53.628951 C1117.508052 61.398711 1118.321773 69.146941 1118.782100 76.912642 C1119.042232 81.300551 1118.934078 85.709701 1119.164913 90.100173 C1119.359249 93.798400 1120.904537 97.815352 1119.912960 101.107100 C1117.669185 108.554717 1118.013790 116.027282 1118.225948 123.487761 C1118.566280 135.454207 1118.668086 147.434051 1125.798458 158.153014 C1129.255245 163.349792 1124.116329 174.652404 1118.705684 174.539611 C1113.423580 174.429473 1107.805049 172.891784 1104.456783 168.342162 C1101.465694 164.277923 1099.039058 159.614623 1097.305782 154.871215 C1096.093746 151.554259 1096.410762 147.661269 1096.150264 144.018004 C1095.763423 138.609328 1095.477779 133.193480 1095.134151 127.781646 C1094.811519 122.701430 1094.418453 117.625136 1094.148433 112.542235 C1093.766719 105.357863 1093.211421 98.167785 1093.245601 90.982573 C1093.262569 87.418395 1094.653194 83.880492 1094.987056 80.290252 C1095.170528 78.318618 1094.312129 76.273025 1094.162837 74.243178 C1093.752925 68.669845 1093.666377 63.066741 1093.088985 57.513122 C1092.276119 49.693679 1091.148555 41.906631 1090.132198 34.108779 C1089.424556 28.680419 1092.910518 25.867324 1096.890621 23.529296 C1103.183589 19.832587 1108.169429 18.753287 1113.886348 23.988067 z"/><path class="selected"  fill="#000000" opacity="1.000000" stroke="none" 
 	d="
M279.386348 411.988067 C279.862941 411.964629 280.054286 412.252532 280.322505 412.406646 C281.245937 412.937407 282.196254 413.421477 283.136348 413.923247 C282.509242 414.194854 281.587947 414.867461 281.309871 414.663360 C280.453334 414.034881 279.842586 413.071380 279.386348 411.988067 z"/></svg>