<?xml version="1.0" encoding="utf-8"?><!DOCTYPE svg PUBLIC "-//W3C//DTD SVG 1.1//EN" "http://www.w3.org/Graphics/SVG/1.1/DTD/svg11.dtd"><svg version="1.1" id="Contours" xmlns="http://www.w3.org/2000/svg" xmlns:xlink="http://www.w3.org/1999/xlink" x="0px" y="0px" width="1759.970703px" height="1759.970703px" viewBox="0.000001 0.000000 1759.970703 1738.284424" enable-background="new 0 0 1759.970703 1759.970703" xml:space="preserve" stroke="black" fill="none" stroke-linecap='round' stroke-linejoin='round'><path class="selected"  fill="#000000" opacity="1.000000" stroke="none" 
 	d="
M606.011901 732.351196 C605.565124 727.312927 609.800781 727.217529 612.790832 726.442383 C620.383727 724.474060 620.566284 723.669678 622.207092 716.715942 C623.692077 710.422302 623.867858 703.889221 627.089599 697.738525 C629.152954 693.799377 627.849426 688.082886 627.999694 683.161438 C628.070922 680.830749 627.694763 678.424438 628.195617 676.204529 C628.356201 675.492676 631.466308 675.618530 631.852050 674.750183 C632.721679 672.792846 631.961974 669.583130 633.247802 668.445251 C636.239135 665.798095 635.998962 662.750793 636.030456 659.481445 C636.061340 656.279968 635.106323 652.747314 638.732360 650.591308 C639.259948 650.277649 639.979492 649.612182 639.955383 649.143249 C639.224243 634.911926 652.536804 626.391784 654.642455 613.120117 C655.149536 609.924011 661.787658 607.770141 662.428161 604.512207 C664.163757 595.684570 672.049438 594.177734 677.533874 590.182434 C683.200500 586.054443 690.090392 583.622558 696.353149 580.276367 C697.183898 579.832519 697.259521 578.125732 698.058959 577.439636 C699.465087 576.232727 701.910644 574.121338 702.615722 574.547607 C708.240966 577.948608 711.591003 573.022644 715.916564 571.573425 C720.044372 570.190429 724.406188 569.417175 728.718566 568.695617 C734.369933 567.750061 740.133727 567.412658 745.738830 566.271667 C751.817809 565.034302 757.731506 563.006042 763.785339 561.620483 C776.500671 558.710327 788.756164 554.730469 800.617980 549.112854 C805.558654 546.773071 812.193420 548.176452 817.370666 546.134949 C826.664367 542.470032 836.107726 540.709289 845.962707 540.295898 C847.455139 540.233215 849.002502 539.607239 850.376281 538.937927 C854.541320 536.908447 858.458190 534.189148 862.808898 532.777099 C866.394836 531.613281 870.216735 533.369018 874.384826 532.673095 C895.286071 529.183532 916.487365 526.387695 937.634338 528.616516 C955.063903 530.453430 972.476623 529.379883 989.792785 530.747375 C995.438415 531.193115 1000.701354 529.968017 1006.168151 530.274841 C1012.148254 530.610473 1018.299133 531.173584 1024.135070 530.198364 C1042.315612 527.160095 1060.401061 530.710327 1078.486999 530.914184 C1091.190856 531.057373 1104.679260 531.298645 1116.975402 536.411682 C1123.514831 539.130981 1129.755309 542.560608 1136.208190 545.499511 C1140.127258 547.284485 1144.070739 549.603699 1148.216491 550.199585 C1164.404846 552.525879 1178.672058 558.942077 1191.536437 568.836181 C1193.261901 570.163208 1195.204528 572.137390 1197.074279 572.168823 C1202.210266 572.255371 1204.495910 574.831848 1206.164123 579.280029 C1206.909973 581.268738 1209.018615 583.400635 1211.004821 584.145935 C1216.738464 586.297424 1219.509704 590.320434 1220.840270 596.039612 C1221.307922 598.049804 1222.795471 600.045715 1224.311584 601.549927 C1230.541686 607.730530 1233.653381 615.432861 1236.406188 623.574829 C1239.061462 631.428406 1242.804260 638.911560 1245.998351 646.586914 C1248.009460 651.419372 1250.760192 656.154114 1251.641784 661.201294 C1253.288268 670.627929 1259.113586 678.201233 1261.863586 686.991577 C1264.727355 696.145691 1267.857849 705.474853 1269.478576 714.719238 C1271.234558 724.735168 1272.384216 734.140259 1280.099914 741.442505 C1280.583679 741.900512 1281.457824 742.386169 1281.454650 742.854248 C1281.384582 753.174865 1289.209777 754.410095 1296.602355 755.823486 C1298.952087 756.272705 1302.337341 756.503479 1303.858947 755.205261 C1311.267272 748.884216 1318.995788 753.367737 1325.508727 755.435425 C1333.772033 758.058838 1341.706481 760.796264 1350.421813 760.306091 C1353.612731 760.126648 1355.911315 761.071777 1358.219055 763.381958 C1360.888976 766.054565 1364.197204 768.101928 1367.294006 770.329529 C1368.546935 771.230774 1370.274719 771.616028 1371.269348 772.707397 C1375.823791 777.703918 1380.037536 783.019653 1384.730163 787.876037 C1386.094543 789.287903 1388.587951 789.752136 1390.655578 790.311218 C1395.167663 791.531494 1399.806823 792.311462 1404.270202 793.676086 C1411.351379 795.840942 1418.340515 798.309936 1425.341735 800.727905 C1426.201110 801.024658 1426.946472 801.739990 1427.658752 802.359985 C1437.241760 810.700500 1449.751891 813.552551 1460.363464 819.907165 C1463.643737 821.871582 1466.605651 824.979919 1468.664367 828.229004 C1471.784118 833.153198 1474.476257 838.486084 1476.410461 843.976318 C1477.758849 847.804260 1477.461730 852.196411 1478.032775 856.318115 C1478.584289 860.300049 1475.536804 865.608398 1482.011901 867.489929 C1481.080261 872.016357 1487.312927 876.347290 1482.380187 880.982910 C1484.323425 890.578369 1478.535827 900.777344 1484.647155 910.091369 C1485.056945 910.715881 1484.926696 912.252868 1484.427795 912.827698 C1480.166442 917.738586 1481.872497 923.043701 1483.021179 928.421814 C1483.621032 931.230224 1485.031799 935.189819 1483.758727 936.822632 C1480.114562 941.496521 1482.646179 945.394592 1484.113342 949.322571 C1485.899963 954.105835 1487.311462 958.654785 1486.096984 963.891784 C1484.943176 968.867370 1487.609313 974.291687 1484.345764 979.207458 C1483.650207 980.255371 1483.857849 982.615722 1484.589782 983.780884 C1488.838317 990.545654 1488.028991 998.021606 1487.984558 1005.378540 C1487.937927 1013.094482 1491.122497 1020.420166 1491.611022 1027.744140 C1492.828308 1045.992920 1494.379333 1064.781860 1491.334899 1082.591430 C1488.389709 1099.819702 1485.836608 1116.710693 1485.844543 1134.212036 C1485.854919 1157.597778 1484.678527 1180.984253 1484.011901 1204.370361 C1479.113586 1210.794555 1484.110168 1218.012817 1482.296447 1224.955200 C1480.365417 1232.347290 1480.421081 1240.314331 1480.084533 1248.051147 C1479.751647 1255.701904 1480.599548 1263.437866 1479.833312 1271.025757 C1479.173644 1277.559204 1476.925720 1283.936645 1480.011901 1290.383056 C1474.978820 1302.775635 1481.183654 1316.340820 1476.011901 1328.718872 C1479.228698 1337.526489 1475.058166 1345.853637 1473.733825 1354.184204 C1471.581725 1367.721679 1472.235168 1381.868652 1465.151183 1394.584350 C1462.683776 1399.013428 1462.763122 1404.952759 1462.058044 1410.252685 C1460.709167 1420.391479 1460.441589 1430.583618 1457.095764 1440.531616 C1453.614196 1450.882934 1451.762634 1461.768921 1449.967834 1472.599121 C1448.442077 1481.806152 1446.747863 1490.976684 1442.085021 1499.328003 C1440.301086 1502.523437 1439.495666 1506.249267 1437.972595 1509.610229 C1436.190124 1513.544311 1434.378600 1517.510254 1432.103820 1521.166382 C1427.747985 1528.167236 1424.899108 1535.398071 1423.660461 1543.769653 C1422.751281 1549.914306 1418.852477 1555.710205 1415.831970 1561.421264 C1413.038513 1566.703247 1409.263244 1571.461914 1409.967834 1578.020141 C1410.611999 1584.015991 1404.601379 1586.350708 1402.130554 1590.694824 C1399.138976 1595.954101 1393.160583 1599.416382 1389.289611 1604.301880 C1385.645934 1608.900390 1382.565978 1614.120117 1380.202453 1619.491089 C1378.839904 1622.587524 1377.676208 1624.258056 1374.202453 1624.404053 C1365.731140 1624.759765 1360.004943 1630.194702 1356.187072 1636.704956 C1348.461486 1649.877807 1337.187805 1657.242798 1322.640319 1660.354492 C1317.726745 1661.405517 1313.215026 1662.691650 1308.937805 1666.071777 C1301.979919 1671.570312 1292.465148 1671.048095 1284.427551 1674.304199 C1283.568786 1674.652221 1281.943298 1673.922973 1281.523864 1674.416382 C1276.414855 1680.425903 1269.084289 1681.207641 1262.181823 1683.395508 C1254.879333 1685.710205 1247.985412 1689.313232 1240.911559 1692.350464 C1238.648010 1693.322265 1235.883727 1693.771484 1234.232726 1695.371948 C1231.886535 1697.646484 1229.549621 1698.385620 1226.405456 1698.497192 C1224.397521 1698.568359 1222.491393 1700.217895 1220.445861 1700.862060 C1217.961364 1701.644409 1216.641662 1704.598999 1212.616393 1703.043701 C1210.450012 1702.206421 1206.050842 1705.951050 1203.225646 1708.307617 C1199.416564 1711.485107 1196.034606 1713.082641 1190.513610 1713.019287 C1187.119811 1712.980346 1179.634460 1711.593384 1177.943664 1718.751587 C1177.790222 1719.400879 1176.706725 1720.239502 1176.005798 1720.288940 C1165.290222 1721.045166 1154.569518 1722.110718 1143.843444 1722.186157 C1137.736755 1722.229126 1131.194763 1721.327881 1125.636901 1722.836426 C1121.050964 1724.081421 1116.743835 1724.241455 1112.335754 1724.266357 C1098.744323 1724.343261 1085.337097 1725.570312 1071.966613 1728.175537 C1066.508117 1729.239013 1060.651672 1728.075805 1055.009948 1728.443603 C1050.934631 1728.709350 1046.464294 1726.581665 1042.739929 1730.255005 C1042.093566 1730.892334 1040.150695 1730.489136 1038.895324 1730.192016 C1027.620056 1727.523071 1026.214660 1727.606079 1015.093810 1730.169800 C1012.568176 1730.751953 1009.797424 1730.179077 1007.157897 1730.379761 C1001.412048 1730.816528 995.729308 1729.775146 989.856017 1732.005249 C986.356262 1733.334228 981.556457 1731.229492 977.339416 1730.680542 C971.329528 1729.898193 965.325744 1729.060547 959.304992 1728.372925 C954.818054 1727.860595 949.699890 1728.737549 945.970886 1726.829956 C941.825622 1724.709595 938.716125 1727.989013 934.670471 1726.775024 C930.521179 1725.530151 925.306457 1728.461181 920.638244 1728.189087 C911.014099 1727.628296 901.068298 1729.637329 891.843566 1724.541015 C889.545593 1723.271362 885.948058 1724.290893 882.950378 1724.362304 C873.278869 1724.592895 863.964782 1722.851806 854.553283 1720.598755 C847.957214 1719.019531 840.803283 1719.817871 833.906310 1719.419922 C831.957824 1719.307495 830.047790 1718.644287 828.101379 1718.363769 C817.992980 1716.906494 808.149597 1714.885132 797.654724 1717.973388 C792.171813 1719.586792 785.545715 1716.964111 779.424621 1716.848266 C771.627380 1716.700439 763.817932 1717.124511 756.016540 1717.389282 C755.144958 1717.418823 754.307311 1718.261841 753.429138 1718.314575 C741.377502 1719.035888 729.327453 1719.955444 717.263732 1720.221802 C712.224670 1720.333130 707.165527 1718.646728 702.093627 1718.490722 C699.060424 1718.397217 695.836120 1720.637817 692.953552 1720.188476 C679.451293 1718.083862 666.057006 1721.369995 652.583801 1720.488891 C646.857910 1720.114380 641.171386 1719.401367 635.221130 1720.062988 C626.024536 1721.085205 616.885314 1721.958618 607.889953 1724.251587 C606.174499 1724.688843 604.040222 1724.109131 602.254333 1723.524658 C597.214660 1721.875488 592.573913 1722.551147 587.354492 1723.694214 C574.399291 1726.531372 561.735473 1730.718750 548.066894 1730.561157 C530.689636 1730.360718 513.274108 1731.359985 495.914977 1732.467651 C484.763061 1733.179321 473.706909 1735.318115 462.558959 1736.200683 C458.203979 1736.545410 453.719055 1735.171020 449.285766 1734.643066 C447.669433 1734.450683 445.932311 1734.044433 444.419616 1734.419067 C437.268920 1736.190552 430.197082 1737.853149 423.029846 1734.422363 C422.378600 1734.110595 421.248290 1734.794067 420.342040 1735.021728 C413.282165 1736.794555 406.278381 1741.527588 399.150024 1734.743530 C398.076110 1733.721435 395.318786 1734.618408 393.389465 1734.314331 C389.256896 1733.662720 385.340698 1735.570190 380.991760 1734.575683 C376.557861 1733.561645 371.702575 1734.532837 367.047973 1734.304931 C361.293456 1734.023193 355.420104 1735.511841 349.796081 1732.503296 C347.982238 1731.533081 344.755493 1731.516357 342.958923 1732.497925 C335.793334 1736.412964 329.799377 1732.459106 323.215087 1730.795410 C316.750366 1729.162231 309.895873 1729.021484 303.197631 1728.379638 C298.762817 1727.954834 294.249328 1729.160400 289.910522 1726.552124 C288.544921 1725.731201 285.773193 1727.474731 283.608398 1727.715332 C276.901183 1728.460815 270.362426 1729.145263 263.621581 1726.536865 C257.855834 1724.305786 251.482604 1723.607300 245.349120 1722.375122 C240.259338 1721.352539 235.156310 1719.508301 229.982726 1722.293213 C229.207519 1722.710449 227.604980 1722.784912 227.076171 1722.285888 C219.715698 1715.338989 207.767272 1718.473877 200.985626 1710.345825 C200.007385 1709.173340 199.057159 1707.642090 197.384185 1709.841797 C196.968292 1710.388672 195.514800 1710.505249 194.660552 1710.302978 C187.693511 1708.654053 180.779601 1706.776611 173.800384 1705.183960 C168.896789 1704.065185 163.899658 1703.361450 158.977813 1702.314575 C156.874450 1701.867187 154.884399 1700.907959 152.793121 1700.377319 C149.762390 1699.608764 146.702239 1698.583008 143.625671 1698.472412 C140.484802 1698.359375 138.315307 1697.290527 135.769042 1695.455932 C133.160766 1693.576660 129.443054 1692.917846 126.107696 1692.428345 C117.075805 1691.102905 108.535735 1688.437378 100.624450 1683.913452 C96.828399 1681.742798 93.396819 1678.869018 89.465270 1677.029297 C87.491607 1676.105591 85.188995 1673.425537 82.280853 1676.213501 C81.681884 1676.787597 78.980590 1676.056885 77.956268 1675.138183 C74.362396 1671.915161 71.213287 1668.135742 65.728942 1668.308594 C65.197509 1668.325439 64.372589 1667.883301 64.145751 1667.425415 C57.141357 1653.286255 42.370696 1646.457886 33.180053 1634.414673 C31.719879 1632.501220 30.275207 1630.012817 30.196624 1627.742798 C30.084197 1624.495971 29.190582 1622.166260 26.788696 1620.064331 C23.205993 1616.928711 21.857116 1612.889770 21.888549 1608.066284 C21.906280 1605.347534 20.408477 1602.654053 20.065551 1599.890503 C19.233886 1593.188476 18.603393 1586.458374 18.039733 1579.727173 C17.694763 1575.607300 19.212341 1571.021240 14.750305 1568.077636 C14.477783 1567.897827 14.039123 1567.571899 14.072357 1567.383911 C15.592407 1558.787720 11.342559 1551.151001 10.151550 1543.030029 C8.594329 1532.412353 7.615539 1521.729248 4.180724 1511.474853 C3.880676 1510.579101 4.063537 1509.523559 4.010894 1508.542724 C3.345733 1496.154541 2.531616 1483.771362 2.107940 1471.374878 C1.991821 1467.977051 1.439239 1464.631714 3.671996 1460.999634 C5.184142 1458.539795 3.451965 1454.100830 3.213958 1450.544067 C3.077636 1448.507080 2.864135 1446.455810 2.971435 1444.426025 C3.228179 1439.569702 4.785156 1434.476074 3.792083 1429.919433 C1.193908 1417.998535 0.875457 1406.343994 3.918273 1394.511230 C4.561340 1392.010376 4.516296 1389.085693 3.928375 1386.556152 C0.630340 1372.367309 2.007568 1358.231445 3.181121 1343.933716 C3.936706 1334.728271 2.230407 1325.343994 2.120574 1316.034179 C2.068694 1311.639038 1.531127 1307.319458 3.602538 1302.683594 C4.953063 1299.661255 2.181487 1294.907959 1.612975 1290.879883 C1.204223 1287.983520 1.279601 1285.001953 1.338745 1282.062378 C1.377044 1280.156860 2.064636 1278.243408 1.966277 1276.359497 C1.154662 1260.816650 3.562896 1245.292602 0.918182 1229.611816 C0.041747 1224.415283 0.591064 1218.118408 0.730316 1212.529785 C0.866912 1207.047241 1.933349 1201.084472 1.876525 1195.344848 C1.836456 1191.293457 2.517242 1187.346557 0.455993 1182.965332 C-1.114045 1179.628052 1.870056 1174.401123 1.920715 1170.004272 C2.135589 1151.343628 1.752685 1132.674438 2.081756 1114.016968 C2.441375 1093.624878 1.713561 1073.003540 4.648712 1052.948852 C6.302001 1041.652710 3.274566 1031.333252 3.862243 1020.510498 C4.811553 1003.028808 6.842986 985.587036 6.138702 968.009094 C5.959625 963.539062 7.683074 959.022339 7.898528 954.497009 C8.053832 951.234253 6.744415 947.912536 6.815368 944.632934 C6.980102 937.024475 7.483550 929.417602 8.077422 921.827881 C8.243316 919.708069 8.884246 917.487427 9.852691 915.591675 C14.755584 905.994140 15.139648 895.517517 15.957305 885.139587 C16.203918 882.009582 15.714324 878.828186 15.715972 875.670471 C15.717681 872.381775 15.951537 869.093872 15.999633 865.804382 C16.053253 862.139160 15.838134 858.462341 16.053100 854.809021 C16.366760 849.478760 15.316955 843.229614 23.223083 842.140014 C26.058715 834.647339 35.430755 831.427063 36.060485 822.445373 C36.165923 820.941162 36.444579 818.733337 37.433044 818.116821 C48.115234 811.453552 53.173248 799.700989 61.966003 791.360595 C66.146942 787.394653 70.047271 783.155884 76.228515 782.265564 C77.333129 782.106567 78.449859 780.980285 79.266052 780.043640 C83.996917 774.614319 89.500060 771.294372 97.109496 772.225281 C98.727172 772.423279 101.040923 771.487427 102.181487 770.273193 C108.446563 763.603699 116.960296 764.058594 124.889037 762.118286 C132.384735 760.283813 139.448730 756.722900 147.321563 755.988769 C150.116302 755.728149 152.838775 754.760986 155.630370 754.382995 C161.338745 753.610107 167.075378 753.048157 172.791229 752.326660 C173.992431 752.174988 174.088439 749.853943 176.511291 751.564575 C182.522766 755.808960 188.740112 752.547912 194.750518 750.597778 C201.046295 748.555053 210.190551 748.009765 218.160888 748.200500 C222.499633 748.304260 226.984252 747.248535 231.206725 746.033386 C236.521972 744.503967 241.575439 742.085144 246.854858 740.405029 C252.165649 738.714905 256.320556 736.307861 258.810485 730.763916 C261.721313 724.282593 267.573608 718.642944 268.824096 712.011108 C270.568664 702.758728 277.148071 698.218017 282.839416 692.809753 C288.561340 687.372253 295.265258 682.908996 301.809631 678.412903 C307.975158 674.177063 314.669738 670.705871 320.788757 666.409973 C324.321411 663.929870 327.684875 661.895324 332.134765 662.333008 C333.110595 662.428955 334.787841 662.632873 334.996032 662.215454 C338.502197 655.186035 345.324462 658.248291 349.761230 658.792846 C357.885436 659.789978 365.954528 662.433838 373.548400 666.248352 C384.461913 671.730469 396.038757 675.019531 408.324401 676.537414 C422.894897 678.337463 433.795776 685.725586 438.076965 700.790222 C438.654540 702.822387 439.969238 704.702698 441.190734 706.483093 C444.407531 711.171936 448.349792 715.464294 450.922790 720.469909 C454.835021 728.081054 461.827575 731.668701 468.528930 735.770508 C469.523620 736.379455 471.342162 736.756897 472.223022 736.258301 C478.433837 732.742431 486.277831 736.897156 492.281555 731.365783 C496.062255 727.882507 501.351379 732.416199 506.206420 730.560241 C510.549499 728.900024 515.607787 728.295349 520.286804 728.524658 C526.901183 728.848755 533.432800 730.595398 540.045837 731.303894 C545.143798 731.850097 550.311706 731.787231 555.450622 731.888794 C557.723571 731.933777 560.004150 731.753784 562.276855 731.606872 C564.986328 731.431824 567.688476 731.138916 570.398803 730.986328 C571.529662 730.922668 572.673461 731.088928 573.811340 731.150635 C573.238037 731.857605 572.664794 732.564575 572.091552 733.271545 C573.176330 733.520080 574.315490 734.106628 575.334045 733.942993 C577.146057 733.651794 579.194274 732.011719 580.603881 732.498657 C588.826782 735.338867 596.892883 731.320373 605.511901 732.851196 C606.629760 733.399963 607.247619 733.448791 607.865478 733.497619 C607.247619 733.115539 606.629760 732.733398 606.011901 732.351196 M393.011901 754.351196 C391.049377 747.572815 389.286559 740.772888 389.998962 733.597290 C390.347839 730.083557 389.425109 727.959961 385.609008 726.131103 C378.969970 722.949402 372.816833 719.170166 364.978332 720.247375 C363.273315 720.481689 361.332763 719.545959 359.594909 718.896972 C354.113525 716.849853 348.760864 714.402588 343.172790 712.730041 C341.455871 712.216003 338.777282 713.188293 337.167236 714.350342 C331.001098 718.801025 325.065002 723.573913 319.121704 728.324951 C318.488159 728.831421 318.161926 729.953979 318.042846 730.837829 C315.999816 746.000976 314.061340 761.178345 311.982665 776.336487 C311.336364 781.049255 310.108215 785.399780 306.444457 789.078491 C298.992309 796.561401 291.222595 802.089233 279.851135 798.507751 C278.518249 798.087951 276.489684 799.777771 274.818969 800.564514 C273.699951 801.091430 271.843688 802.442932 271.676391 802.249573 C267.943786 797.936035 260.731994 803.207336 257.625915 797.143310 C257.382690 796.668457 255.458007 796.945373 254.331725 797.051758 C250.176635 797.444092 245.486144 799.358642 241.991577 798.048340 C234.833373 795.364319 228.305114 797.571594 221.546386 798.414123 C219.439147 798.676758 217.205932 800.615600 215.405517 800.192016 C207.079711 798.233398 199.694488 802.129394 191.906066 802.973877 C186.001068 803.614074 180.746368 806.248108 174.834533 806.435547 C162.656188 806.821594 150.439849 807.205322 138.345184 808.546325 C131.974120 809.252807 125.214965 810.887573 119.695587 813.994324 C104.741332 822.411865 93.673339 835.556946 81.841766 847.674621 C80.678161 848.866455 80.104949 851.110534 80.091461 852.872619 C80.002868 864.433838 78.946349 875.453247 72.391631 885.793091 C70.340301 889.028930 67.164520 894.915527 71.826599 900.060730 C72.748840 901.078674 71.358917 904.273254 70.908386 906.437622 C69.703765 912.224853 64.334411 915.992004 63.870513 922.392944 C63.038391 933.875000 60.389556 945.278198 60.191528 956.743530 C59.603393 990.797729 60.641326 1024.871948 58.201415 1058.908569 C57.793945 1064.592285 59.756957 1070.121948 58.374816 1076.315918 C56.480102 1084.807129 58.435668 1094.194092 56.326751 1102.590698 C54.068664 1111.581177 57.034026 1120.036255 56.168762 1128.756347 C55.415557 1136.346924 56.270629 1144.082886 55.934875 1151.733520 C55.634094 1158.586548 54.134673 1165.413452 54.166198 1172.247070 C54.197173 1178.965942 54.065338 1185.625976 55.482147 1192.524658 C56.818115 1199.029663 56.971343 1206.402588 54.485076 1213.744140 C52.713683 1218.974609 55.156280 1225.724731 56.064514 1231.744385 C56.992309 1237.893554 54.127624 1243.683471 55.664611 1250.174438 C57.233886 1256.801758 56.488372 1264.132934 55.860534 1271.075073 C55.361785 1276.589721 56.194732 1281.979370 56.039520 1287.429687 C55.884521 1292.872803 55.357513 1298.211670 55.688262 1303.788208 C57.112243 1327.796509 57.201171 1351.880859 58.116088 1375.924682 C58.337036 1381.731323 57.954345 1387.488281 58.000396 1393.268799 C58.050811 1399.600586 57.638458 1405.961426 58.114807 1412.257690 C58.611022 1418.816894 55.362426 1426.093384 61.847442 1431.792358 C63.004241 1432.808960 62.262695 1436.304443 61.958160 1438.597046 C61.377258 1442.970093 61.135040 1447.553711 59.576843 1451.597046 C56.341552 1459.991821 56.194488 1469.466186 58.665923 1476.717773 C62.196594 1487.077392 61.381103 1497.069336 62.054962 1507.275635 C62.219879 1509.772949 62.224944 1512.704712 63.517333 1514.616089 C66.275634 1518.695556 66.761260 1523.319336 68.291259 1527.691650 C71.792632 1537.697265 70.288787 1548.922241 76.580718 1558.291748 C78.487701 1561.131592 77.079437 1565.995971 78.369140 1569.498779 C80.393768 1574.997925 83.594634 1579.415283 82.668029 1586.409668 C82.044372 1591.117187 86.620147 1597.736572 90.679321 1601.599243 C100.664367 1611.101318 111.885742 1619.288330 122.244323 1628.418823 C130.751525 1635.917724 141.829467 1637.559814 151.577514 1642.186279 C157.660247 1645.073364 164.434509 1646.638672 171.025054 1648.292602 C185.845397 1652.012207 200.808654 1655.175537 215.576049 1659.085571 C220.583862 1660.411499 225.757202 1662.482300 230.537963 1663.699585 C236.225280 1665.147705 241.989929 1666.626220 247.764343 1668.153686 C260.268981 1671.461303 272.960998 1675.088501 285.759704 1675.993774 C301.576721 1677.112671 317.323120 1679.364868 333.083312 1680.017334 C356.558837 1680.989013 380.100219 1680.604126 403.573425 1682.334961 C414.950500 1683.173828 426.500671 1680.602661 437.769714 1684.253418 C439.881103 1684.937378 443.172424 1685.304931 444.586974 1684.165161 C448.248657 1681.214721 452.151733 1682.645019 455.910705 1682.423584 C460.892578 1682.130005 465.904785 1682.351196 470.903991 1682.351196 C476.236450 1682.351196 481.663024 1682.965332 486.873107 1682.166870 C491.455261 1681.464477 495.754333 1682.842407 500.250121 1682.442627 C510.946899 1681.491577 521.683410 1680.970215 532.408874 1680.363647 C545.127624 1679.644287 557.851501 1679.016235 570.573547 1678.355713 C571.238281 1678.321167 571.994201 1678.559082 572.559936 1678.320312 C582.317626 1674.200805 592.591979 1674.241699 602.911071 1674.280029 C606.056945 1674.291748 609.205688 1673.454834 612.353576 1673.010010 C622.668762 1671.552124 632.967834 1669.962036 643.307433 1668.704956 C647.411743 1668.205810 651.606445 1668.355591 655.759216 1668.376220 C660.206664 1668.398315 664.583801 1669.406616 669.119384 1668.442261 C673.717956 1667.464844 678.118774 1666.937378 682.911010 1669.759765 C685.892516 1671.515869 691.292785 1671.594726 694.473022 1670.066040 C700.637756 1667.102661 706.719726 1668.889160 712.787475 1668.485229 C715.122863 1668.329834 718.165954 1670.946777 719.846374 1670.138305 C728.271301 1666.085449 736.893981 1668.480591 745.457092 1668.276001 C762.850646 1667.860595 780.230285 1666.698120 797.623351 1666.485962 C806.336364 1666.379516 815.203308 1666.947143 823.754821 1668.534790 C834.830016 1670.591064 845.844543 1672.666748 857.123351 1672.268677 C862.310974 1672.085449 867.474059 1670.436767 872.636413 1670.495605 C879.365783 1670.572265 886.217346 1671.067627 892.775817 1672.490600 C903.588683 1674.836792 914.247497 1677.432251 925.318176 1674.362060 C925.627624 1674.276245 925.994567 1674.291137 926.313049 1674.359863 C938.377868 1676.965698 950.089416 1678.372558 962.891418 1676.977295 C980.003112 1675.112182 997.659118 1677.051269 1014.951965 1678.707153 C1020.728576 1679.260132 1026.043517 1678.976318 1031.685851 1678.609009 C1038.336974 1678.176025 1045.112975 1679.702392 1051.840148 1680.318725 C1052.403747 1680.370361 1053.039855 1680.025512 1053.590759 1679.758545 C1064.089294 1674.673706 1075.860168 1677.493408 1086.708923 1674.422729 C1090.639221 1673.310180 1094.794494 1672.969970 1098.860168 1672.364868 C1102.750671 1671.785888 1106.688049 1671.482178 1110.551818 1670.769897 C1117.957580 1669.404663 1125.272643 1667.426391 1132.723571 1666.458252 C1141.386291 1665.332519 1150.155334 1665.029907 1158.875427 1664.333862 C1159.801086 1664.259887 1160.943176 1664.228271 1161.586364 1663.695556 C1167.394958 1658.885742 1174.287414 1658.377441 1181.386169 1658.271606 C1183.162048 1658.245239 1185.970031 1657.719970 1186.500060 1656.583130 C1188.278869 1652.767700 1190.939025 1652.380371 1194.711974 1652.121460 C1197.902160 1651.902832 1200.868469 1649.405517 1204.085632 1648.404785 C1212.956848 1645.644897 1222.129455 1643.714111 1230.763244 1640.371582 C1239.033752 1637.169800 1247.330016 1633.750488 1254.663879 1628.434692 C1257.304626 1626.520630 1259.997009 1623.422485 1264.236877 1626.164428 C1265.099548 1626.722412 1267.596862 1625.038696 1269.183654 1624.118042 C1271.086608 1623.013794 1272.704040 1620.761108 1274.648376 1620.495605 C1284.605163 1619.136719 1292.068420 1612.502807 1300.866882 1608.868164 C1307.037414 1606.319092 1313.009460 1603.387085 1317.736266 1599.177246 C1322.598449 1594.846802 1327.883239 1591.573486 1333.333679 1588.303955 C1334.414733 1587.655273 1335.129821 1586.395508 1336.011657 1585.415893 C1342.032531 1578.727173 1348.222595 1572.351074 1353.508483 1564.834350 C1357.307067 1559.432861 1362.036437 1554.879516 1364.101867 1548.221924 C1365.646423 1543.243286 1367.509948 1538.214355 1370.195251 1533.793335 C1371.877136 1531.024292 1377.430602 1529.430664 1377.529846 1527.148071 C1377.683776 1523.605591 1377.382263 1520.680053 1379.680724 1517.484009 C1382.740905 1513.228637 1385.218200 1508.496216 1387.481140 1503.747314 C1388.795104 1500.989990 1389.589782 1497.841553 1389.922302 1494.793213 C1390.448303 1489.970215 1388.475280 1484.640259 1395.106628 1481.852417 C1396.830016 1481.127929 1397.384460 1476.971191 1397.955871 1474.280517 C1399.733093 1465.912720 1400.613830 1457.222290 1402.565490 1449.086426 C1404.663391 1440.341430 1407.028747 1431.605835 1408.648742 1422.708618 C1409.383483 1418.673828 1409.098693 1414.105469 1410.950256 1410.685547 C1417.122009 1399.286133 1416.337585 1386.347900 1419.578063 1374.306274 C1422.874572 1362.055664 1422.669860 1348.864258 1424.014465 1336.086670 C1425.336242 1323.525635 1427.587707 1310.974853 1427.700744 1298.404053 C1427.779724 1289.639038 1433.163024 1280.880493 1428.111144 1272.011841 C1427.665710 1271.229858 1428.788146 1269.666504 1428.888732 1268.442138 C1429.322692 1263.152099 1430.165832 1257.823730 1429.869079 1252.565307 C1429.559631 1247.082397 1430.938659 1241.757934 1430.201110 1236.192016 C1429.376525 1229.968994 1429.971740 1223.552124 1430.023864 1217.220337 C1430.071472 1211.439819 1428.397643 1205.419433 1430.189025 1199.938110 C1432.715637 1192.207886 1432.841491 1184.286865 1431.709045 1176.758178 C1430.359313 1167.785156 1430.074767 1159.358398 1431.674377 1150.314331 C1433.167541 1141.871704 1432.882507 1133.137329 1434.443176 1124.473999 C1435.927795 1116.232055 1433.933410 1107.418823 1434.117370 1098.870605 C1434.276550 1091.470337 1434.903503 1084.010376 1436.210266 1076.736084 C1436.807556 1073.411133 1434.990661 1070.849609 1435.553649 1067.285278 C1437.157165 1057.133178 1437.504455 1046.578857 1436.717834 1036.307495 C1435.846862 1024.934570 1434.772033 1013.562134 1434.008849 1002.170044 C1433.357482 992.446777 1433.761169 982.496887 1431.768249 973.054626 C1428.449523 957.330871 1427.858581 941.574768 1427.985534 925.667907 C1428.008849 922.736389 1428.262390 919.623901 1427.414489 916.905212 C1425.479431 910.699768 1424.377136 904.365112 1426.153015 898.198974 C1428.327331 890.649841 1426.392028 884.951050 1420.709533 879.997619 C1418.802795 878.335571 1417.996887 877.208252 1419.205749 873.656006 C1422.403381 864.260864 1419.326599 854.989441 1412.475768 848.203674 C1407.204284 842.982422 1400.510925 838.862549 1393.803039 835.570434 C1390.581115 833.989074 1385.860534 835.376648 1381.825500 835.565429 C1379.039489 835.695678 1376.811950 837.753296 1373.547546 837.097412 C1369.101745 836.204040 1364.073058 837.510437 1359.918273 836.071777 C1355.964782 834.702881 1352.359191 831.436584 1349.420104 828.248962 C1345.416198 823.906494 1339.932800 827.746521 1336.278381 825.304687 C1332.039855 822.472412 1328.258239 823.358764 1324.541320 824.966186 C1318.433410 827.607544 1311.995910 827.537353 1307.158386 824.035766 C1301.415588 819.878723 1297.031188 820.714844 1292.298156 824.398437 C1288.279724 827.525940 1283.598083 827.525268 1279.006042 828.688354 C1268.215392 831.421325 1259.036071 830.655029 1250.963806 822.477783 C1250.301940 821.807251 1248.396423 822.364441 1247.068786 822.351196 C1247.087829 823.017883 1246.845641 823.911438 1247.183776 824.301025 C1247.773010 824.979614 1248.720275 825.347473 1249.517394 825.845642 C1248.587341 826.014160 1247.473571 826.590027 1246.764099 826.269775 C1245.078185 825.508972 1242.173278 824.233276 1242.231750 823.324402 C1242.773620 814.893127 1234.004089 815.079223 1230.701965 810.351196 C1217.544006 808.360901 1214.779479 796.652893 1212.573058 787.299316 C1210.013488 776.448730 1212.676086 764.553589 1210.132507 753.238769 C1209.808776 751.798523 1210.629089 749.309326 1211.772399 748.474975 C1215.659606 745.638183 1218.178283 739.068908 1214.972350 736.669983 C1209.838561 732.828491 1210.566223 727.879028 1209.898742 722.772339 C1208.755798 714.030273 1208.168884 704.892273 1205.044616 696.811218 C1200.793762 685.815857 1196.793762 674.860840 1193.851867 663.437073 C1192.724426 659.058899 1189.813903 655.133972 1187.674255 651.024170 C1185.817321 647.457214 1182.298278 643.890625 1182.364562 640.377685 C1182.481872 634.148742 1178.103210 631.847473 1174.876769 628.404541 C1173.876159 627.336792 1171.253723 627.152466 1170.983581 626.135925 C1168.466735 616.664673 1157.809997 618.216491 1152.737609 612.351196 C1141.171569 610.921875 1132.302062 603.761657 1122.395446 598.635376 C1116.772521 595.725647 1110.202209 591.032715 1102.964050 596.251770 C1102.085998 596.884887 1100.032531 596.868469 1099.085021 596.267822 C1092.063415 591.816406 1084.852355 591.245178 1077.146667 594.270019 C1075.702819 594.836792 1073.327941 595.037170 1072.266418 594.235840 C1066.818176 590.122986 1060.211120 591.028503 1054.196838 589.468628 C1048.513732 587.994690 1042.921813 584.560913 1037.332702 584.650757 C1023.619323 584.871460 1009.798400 582.316772 996.094421 586.101745 C992.858703 586.995544 988.509826 587.802063 984.840515 584.522583 C982.995178 582.873413 979.573181 582.593200 976.819152 582.423218 C963.440612 581.597168 950.012390 581.414917 936.667663 580.249634 C920.357849 578.825439 904.472961 585.144775 888.141174 582.418457 C886.498474 582.144226 884.391052 581.473511 883.766052 584.748596 C883.487121 586.211303 880.568420 588.149353 878.807678 588.191223 C867.600768 588.457702 857.163513 592.485229 846.302673 594.352600 C835.308166 596.243042 824.243835 597.809692 813.345275 600.148498 C804.873840 601.966430 796.642516 604.877136 788.240173 607.054077 C784.282775 608.079345 779.217346 607.308349 776.383117 609.543640 C773.035827 612.183594 769.963928 612.069580 766.436950 612.421631 C763.014587 612.763366 759.646667 613.668457 756.261047 614.355896 C753.085632 615.000671 749.770568 615.295593 746.777892 616.431640 C740.450012 618.833862 734.335510 621.791992 728.055114 624.327514 C716.864929 628.845276 709.514037 638.041137 701.352050 646.206054 C700.230895 647.327514 700.300842 649.747192 700.040954 651.596985 C699.638671 654.459961 700.099975 657.636963 699.015441 660.177124 C694.893798 669.830505 696.027587 681.442871 688.054443 689.656555 C687.721313 689.999756 688.188293 691.008423 687.984741 691.605591 C685.785766 698.057983 686.963439 705.404480 682.333557 711.319092 C681.191711 712.777771 681.812011 715.840698 682.054138 718.120361 C683.355285 730.371887 682.198364 739.683288 676.622375 750.560791 C673.805663 756.055664 670.749572 761.150024 671.911865 767.677429 C672.086364 768.657287 671.212280 770.407226 670.327758 770.886474 C667.298034 772.528076 664.972350 774.154785 667.431579 777.931518 C662.222778 783.178528 661.266296 790.908081 656.756164 796.477478 C652.572753 801.643432 645.750366 802.642761 639.996642 804.059997 C626.065856 807.491455 612.863586 798.651184 598.807556 800.088562 C598.388793 800.131408 597.915466 799.154358 597.393127 798.748596 C593.572326 795.780456 589.839233 793.380371 584.362182 794.133301 C580.798034 794.623291 576.516113 793.834045 573.325927 792.154785 C568.839355 789.793030 564.499328 793.916687 561.046325 792.028015 C556.384887 789.478515 552.907287 790.309509 548.459106 792.154053 C544.868591 793.642761 540.523010 793.967590 536.565856 793.764770 C530.218139 793.439453 524.442993 786.327514 517.429748 792.247436 C516.910034 792.686096 515.121154 791.706665 513.959106 791.285095 C506.735961 788.665222 499.598693 786.237976 491.935912 790.213684 C490.534301 790.940918 487.886169 790.421570 486.365722 789.532776 C482.758911 787.424682 479.864074 787.834228 476.595397 790.254638 C474.948058 791.474426 472.598022 791.955749 470.488647 792.303833 C461.727783 793.749817 452.949951 795.111450 444.149047 796.284485 C441.986083 796.572693 440.795410 798.344238 437.439697 797.446411 C430.746887 795.655578 423.656127 796.089050 420.248718 788.376159 C420.089538 788.015869 418.986877 788.177307 418.531982 787.826050 C415.236511 785.281250 412.135131 782.458862 408.694152 780.136474 C405.568481 778.027038 406.010803 769.804870 398.959167 774.298523 C397.976745 772.705810 396.468627 771.221557 396.113159 769.499450 C395.151061 764.837402 394.678649 760.074219 393.011901 754.351196 M1319.011901 818.351196 C1317.718200 817.684509 1316.424377 817.017883 1315.130676 816.351196 C1314.757751 817.115539 1314.384826 817.879822 1314.011901 818.644104 C1315.208068 819.213135 1316.358215 820.002075 1317.618224 820.264953 C1318.322082 820.411804 1319.208068 819.684570 1319.011901 818.351196 M1282.011901 795.351196 C1282.192809 796.198852 1282.373718 797.046448 1282.554626 797.894043 C1283.554626 796.894043 1284.554626 795.894043 1285.554748 794.894104 C1284.707092 794.713135 1283.859558 794.532165 1282.011901 795.351196 M1102.011901 553.351196 C1101.835632 552.508301 1101.659484 551.665466 1101.483337 550.822571 C1101.051574 550.940002 1100.237121 551.131592 1100.243347 551.164245 C1100.450988 552.235962 1100.737243 553.292480 1102.011901 553.351196 M1098.011901 545.351135 C1098.678527 545.017822 1099.345153 544.684448 1100.011901 544.351196 C1099.345275 544.017883 1098.678527 543.684509 1098.011901 545.351135 M1478.011901 871.351135 C1477.611999 871.084472 1477.211974 870.817810 1476.811950 870.551208 C1476.878600 871.151184 1476.945251 871.751220 1478.011901 871.351135 M860.011901 577.351196 C860.411926 577.617859 860.811828 577.884521 861.211852 578.151184 C861.145202 577.551208 861.078552 576.951172 860.011901 577.351196 M1218.011901 641.351196 C1217.611877 641.084533 1217.211974 640.817871 1216.811950 640.551208 C1216.878600 641.151184 1216.945251 641.751220 1218.011901 641.351196 z"/><path class="selected"  fill="#000000" opacity="1.000000" stroke="none" 
 	d="
M1210.011901 308.351196 C1208.011901 314.855621 1204.350646 320.366241 1204.371154 325.863159 C1204.409362 336.064880 1195.579284 343.940033 1198.011901 354.376953 C1192.566589 363.449066 1192.606140 374.097687 1189.688659 383.906067 C1187.014709 392.895996 1185.778137 402.320648 1184.032165 411.577148 C1182.582336 419.264618 1182.672546 427.220398 1179.049377 434.527557 C1177.845764 436.954895 1178.662658 440.308319 1177.891784 443.051758 C1177.349548 444.981659 1175.675475 448.109680 1174.522277 448.102844 C1167.618957 448.061828 1163.173400 452.033935 1158.903625 456.491180 C1155.869079 459.658783 1153.047790 459.144745 1150.701354 455.943573 C1148.877258 453.455169 1146.743713 450.765136 1146.149230 447.876282 C1143.213928 433.612701 1144.771545 419.445526 1148.005920 405.391784 C1150.038024 396.561645 1151.995910 387.714447 1154.015808 378.881470 C1156.939269 366.096283 1159.698913 353.269531 1162.877990 340.547882 C1166.496642 326.066803 1171.531677 311.960113 1174.110534 297.188720 C1174.790466 293.293915 1176.932556 289.677826 1177.963073 285.816284 C1180.771789 275.292938 1183.158264 264.655243 1186.055114 254.157501 C1190.533752 237.927734 1191.162048 220.834106 1197.780944 205.023498 C1199.919250 199.916137 1199.365539 193.675583 1199.999084 187.948501 C1200.178039 186.330444 1199.673156 184.407562 1200.378600 183.113037 C1206.318054 172.212280 1205.647521 159.911758 1207.992126 148.262802 C1210.224914 137.168930 1212.629943 126.093796 1214.352233 114.916900 C1216.761657 99.280914 1219.590392 83.765449 1223.940002 68.537033 C1224.468078 66.688026 1223.995544 64.557716 1224.014465 62.558037 C1224.159973 47.146255 1223.267028 31.689216 1226.012390 16.389999 C1226.234924 15.149868 1226.021423 13.346771 1226.763610 12.763424 C1231.490295 9.047786 1236.390808 5.547813 1241.307067 2.080208 C1246.884948 -1.854180 1252.221740 0.592991 1257.540832 2.873329 C1259.804748 3.843986 1262.148742 4.645122 1264.356384 5.727325 C1272.220519 9.582485 1272.280700 17.726589 1273.761413 24.591564 C1274.871642 29.738457 1273.976379 34.846176 1270.413635 40.149353 C1266.626647 45.786522 1264.761779 53.492203 1264.415344 60.412643 C1264.147766 65.758713 1260.426696 71.176155 1263.835021 76.840690 C1264.419372 77.811676 1262.789367 80.234756 1261.993347 81.896545 C1257.783752 90.686142 1256.047668 100.195556 1253.332580 109.388763 C1250.207702 119.969162 1250.996520 131.025421 1246.553039 141.502105 C1242.834045 150.270691 1243.716369 160.906418 1241.927551 170.598404 C1239.369079 184.461471 1236.313415 198.235519 1233.310363 212.012771 C1231.718322 219.316437 1229.787536 226.546203 1228.012145 233.809936 C1225.136535 245.575622 1221.656921 257.270508 1219.063293 268.991119 C1216.834899 279.060638 1211.254211 288.401275 1211.888976 299.184387 C1212.046447 301.860565 1210.678527 304.626495 1210.011901 308.351196 M1178.011901 375.351196 C1177.394103 375.302368 1176.776183 375.253540 1176.158386 375.204712 C1176.776183 375.586853 1177.394103 375.969024 1178.011901 377.351166 C1178.678527 377.684509 1179.345275 378.017853 1180.011901 379.351196 C1180.629699 379.400024 1181.247619 379.448822 1181.865417 379.497619 C1181.247619 379.115478 1180.629699 378.733337 1180.011901 377.351227 C1179.345275 377.017883 1178.678527 376.684540 1178.011901 375.351196 M1233.011901 160.351181 C1232.678527 161.782684 1232.252746 163.202209 1232.064880 164.652557 C1232.004089 165.121551 1232.567199 165.671341 1232.844909 166.184158 C1233.233947 165.514908 1233.808410 164.886001 1233.964904 164.166214 C1234.160461 163.266968 1234.011901 162.292938 1233.011901 160.351181 M1166.011779 409.351227 C1165.835632 408.508362 1165.659362 407.665497 1165.483337 406.822571 C1165.051574 406.940033 1164.237243 407.131592 1164.243469 407.164245 C1164.450988 408.235962 1164.737365 409.292450 1166.011779 409.351227 M1185.011901 294.351196 C1185.278625 293.951202 1185.545226 293.551208 1185.811950 293.151184 C1185.211974 293.217865 1184.611877 293.284546 1185.011901 294.351196 z"/><path class="selected"  fill="#000000" opacity="1.000000" stroke="none" 
 	d="
M876.511901 399.851196 C869.980163 386.363189 864.024230 373.453247 854.990905 362.015869 C847.849914 352.974640 842.479675 342.556122 835.948303 333.005615 C830.754089 325.410339 824.041198 318.721588 819.678161 310.717071 C810.045471 293.044616 796.557433 278.276886 784.681457 262.329193 C776.167541 250.896179 765.882141 240.795807 756.641052 229.885681 C751.496032 223.811401 746.899841 217.274200 741.999694 210.989792 C739.627990 207.948181 737.448669 204.651809 734.620788 202.090759 C726.904968 195.102783 721.949401 186.137405 716.313659 177.646240 C711.112853 169.810348 706.073913 161.863495 700.730346 154.126709 C694.625427 145.287582 688.276611 136.616485 681.996765 127.899063 C681.054077 126.590469 679.868591 125.459671 678.864745 124.191665 C673.902892 117.923584 667.386718 112.301864 664.393310 105.198623 C660.079101 94.961014 652.611816 86.873680 647.979064 77.020019 C647.187316 75.336014 646.248901 73.533470 644.893615 72.332855 C637.070007 65.402191 636.119689 57.302307 639.952148 47.967949 C642.003173 42.972496 647.201232 38.374870 651.134765 40.625023 C658.447631 44.808326 667.451904 44.531509 673.955016 50.996185 C681.586486 58.582512 688.438903 66.622871 693.984374 75.776123 C700.104736 85.878143 705.898986 96.178467 712.067321 106.250320 C714.541198 110.289795 717.331848 114.222122 720.496276 117.737076 C734.733947 133.552322 744.119689 152.633087 756.103454 169.953628 C762.094421 178.612564 768.789489 186.826675 775.648864 194.828094 C780.584289 200.585220 787.424255 204.960083 791.381774 211.233825 C795.256652 217.376251 798.544860 223.657562 803.543151 229.197357 C810.332336 236.721985 815.971984 245.285949 822.077819 253.424316 C827.985778 261.298828 833.980773 269.111969 839.721496 277.107086 C849.477233 290.693939 859.117126 304.365112 868.666686 318.097442 C870.227477 320.341705 870.962097 323.142334 872.271911 325.582123 C879.297058 338.668915 886.480285 351.672210 893.368835 364.830047 C894.776306 367.518249 896.032043 370.802765 895.835632 373.709503 C895.382629 380.411499 897.457458 386.149566 900.463195 391.872497 C903.039489 396.777740 906.409362 401.703064 907.242126 406.965423 C908.091857 412.335693 906.731140 418.235718 905.433288 423.688507 C904.800598 426.347198 897.833068 426.783264 895.412292 424.703033 C893.648498 423.187439 891.188415 421.698089 890.607482 419.733246 C888.647399 413.103332 883.524352 409.131347 879.180969 404.433960 C878.169372 403.339844 877.719909 401.725952 876.511901 399.851196 z"/><path class="selected"  fill="#000000" opacity="1.000000" stroke="none" 
 	d="
M348.011901 562.351196 C353.125793 561.381531 356.501281 559.580932 361.552551 561.921875 C367.067077 564.477356 374.134338 564.257202 380.522888 564.245056 C400.594116 564.207031 420.445495 565.605896 440.067016 570.198913 C444.490783 571.234497 449.385986 570.071350 454.022949 570.439270 C457.769225 570.736633 461.594177 569.172729 465.404846 572.083313 C467.025939 573.321472 471.367919 573.822021 472.835021 568.886657 C473.618896 566.249695 476.648681 564.217346 480.704833 564.090820 C484.523315 563.971618 488.185119 561.165466 492.079833 560.497375 C495.965087 559.830871 500.141906 559.834411 504.028747 560.496399 C507.921935 561.159485 511.614684 557.920349 515.395263 560.351196 C521.175659 555.371582 526.822570 561.551636 532.773315 560.576172 C538.940307 559.565307 545.402038 560.323852 551.734313 560.374328 C552.998290 560.384399 554.650390 560.236450 555.461852 560.932678 C563.104308 567.489380 572.390869 565.454956 581.216735 566.579956 C593.522643 568.148620 606.038452 569.106628 617.299011 576.026733 C621.240905 578.449096 622.173889 580.477234 622.005309 584.194824 C621.517883 594.940002 614.202819 600.022949 603.643737 596.962341 C603.360290 596.880127 603.109313 596.346679 602.904174 596.381653 C590.071288 598.568420 578.148254 592.669678 565.564575 592.219848 C552.978759 591.769958 540.108886 588.060730 527.960571 589.845032 C516.622070 591.510437 507.437011 585.096740 496.681152 586.019531 C491.299865 586.481262 486.165466 588.577453 484.476623 591.822754 C481.936584 596.703796 478.780151 596.579651 475.031555 596.282287 C466.641845 595.616699 458.013488 598.273620 449.813598 594.444519 C448.915954 594.025268 447.422302 595.095581 446.194641 595.132812 C440.823730 595.295776 435.447753 595.428833 430.076293 595.362121 C428.219238 595.339111 426.150390 593.980957 424.551269 594.464905 C410.613769 598.682678 396.362060 596.236328 382.358337 595.941406 C374.862853 595.783569 367.653930 594.919189 359.953308 595.924255 C352.265441 596.927734 344.128845 594.432556 336.180786 593.545349 C334.157409 593.319519 332.095092 593.237793 330.065429 593.352295 C328.861328 593.420166 327.668884 594.352478 326.500854 594.294800 C318.149047 593.882385 309.784789 592.733703 301.466003 593.020935 C296.656005 593.187073 292.319579 593.891357 287.214111 592.739319 C278.136352 590.690918 268.515014 591.108825 259.136047 590.317444 C253.397338 589.833191 247.692565 588.961120 241.961730 588.367676 C236.557006 587.807922 231.231567 588.604614 225.666381 586.728699 C221.529540 585.334167 216.232849 587.454162 211.442138 587.893005 C209.220397 588.096496 206.324706 588.950622 204.849609 587.917541 C198.309020 583.336975 191.957885 578.422119 185.975494 573.133484 C182.677795 570.218323 183.185119 561.437195 186.430297 557.029358 C187.993194 554.906433 190.385650 553.399536 191.981201 551.294494 C195.356262 546.841614 198.879577 545.470337 203.892333 549.028564 C205.522643 550.185791 208.136108 550.258850 210.309631 550.298767 C220.914123 550.493652 231.356017 550.095947 241.770507 554.027710 C248.166931 556.442627 255.764892 555.648376 262.816589 556.362182 C268.878478 556.975830 274.953124 557.528869 280.981017 558.394958 C287.022094 559.262939 293.046691 557.050964 299.338928 559.957031 C302.703430 561.510864 307.997924 558.242615 312.308898 558.581665 C316.175598 558.885864 319.848998 558.753174 323.678344 558.614685 C328.949523 558.424072 334.290832 560.053161 339.594909 560.945129 C342.075927 561.362365 344.540099 561.879394 348.011901 562.351196 z"/><path class="selected"  fill="#000000" opacity="1.000000" stroke="none" 
 	d="
M1395.511901 625.851196 C1388.122009 623.221496 1379.859680 625.987671 1373.208068 620.912048 C1371.287292 619.446350 1367.468566 620.423645 1364.518127 620.360595 C1358.222473 620.226013 1351.115905 614.470032 1350.004943 608.600464 C1349.227111 604.490783 1352.334167 602.259826 1354.868835 600.725158 C1362.059265 596.371521 1369.803283 593.128113 1378.354553 592.341553 C1385.078308 591.723022 1391.783996 590.679626 1398.517272 590.478088 C1402.546935 590.357422 1404.902038 585.643860 1410.196349 587.943420 C1413.643859 589.440918 1418.774474 586.744690 1423.187072 586.426208 C1427.826599 586.091369 1432.892028 587.492859 1437.084045 586.086609 C1443.545837 583.918884 1449.909728 584.676697 1456.331603 584.352417 C1457.965759 584.269897 1460.174377 584.861023 1461.141540 584.019470 C1467.013244 578.909851 1474.007507 580.782287 1480.655090 580.310974 C1485.736755 579.950622 1491.122619 581.840515 1495.849914 578.393432 C1496.284850 578.076233 1497.199890 578.190857 1497.810729 578.374817 C1510.925598 582.325622 1523.957458 577.035644 1537.154357 578.106811 C1550.722839 579.208191 1564.450378 578.351196 1578.108215 578.351196 C1591.766052 578.351196 1605.424011 578.351196 1619.081848 578.351196 C1632.739684 578.351196 1646.460510 577.572815 1660.029846 578.668335 C1667.182556 579.245910 1674.250060 577.255981 1681.726257 579.858703 C1686.874084 581.650879 1693.965026 582.189819 1699.769348 578.436462 C1700.708923 577.828918 1702.666564 577.854919 1703.664245 578.432922 C1709.496887 581.811706 1715.797180 579.933655 1721.873474 580.309997 C1727.587341 580.663879 1733.485412 579.359314 1738.545104 583.654785 C1739.754821 584.681824 1742.275573 584.258789 1744.199401 584.327331 C1746.861266 584.422241 1749.549743 584.142883 1752.187438 584.411133 C1754.715026 584.668213 1760.842956 591.083984 1759.866149 592.339966 C1758.030944 594.699707 1755.475768 597.851135 1752.962341 598.102966 C1740.638366 599.338074 1729.197692 604.765808 1716.494567 604.625732 C1707.735290 604.529053 1698.974426 607.850769 1690.165466 608.136291 C1679.618957 608.478088 1669.132507 607.217834 1658.603820 610.071594 C1654.684875 611.133850 1649.912292 608.537597 1645.515197 608.467529 C1639.436340 608.370605 1633.301940 609.237915 1627.306701 609.729553 C1621.769225 610.183594 1615.804870 610.419800 1610.026550 610.383667 C1594.703674 610.287903 1579.346374 610.954468 1564.069763 610.108154 C1555.885192 609.654724 1547.494079 608.954223 1539.816345 610.725891 C1530.022521 612.985901 1519.804504 610.229919 1510.393005 614.319702 C1509.832580 614.563171 1508.936096 614.105224 1508.429626 614.389709 C1503.933288 616.916076 1500.053649 610.813293 1494.862853 613.991211 C1491.584777 615.998047 1486.294982 615.736267 1482.146301 615.049682 C1476.815856 614.167236 1472.277160 615.141845 1467.743224 617.580383 C1466.944274 618.010132 1465.975036 618.264587 1465.065856 618.326416 C1454.684875 619.031982 1444.272766 619.410827 1433.926208 620.447510 C1427.042785 621.137268 1420.279357 622.952575 1413.410461 623.880554 C1407.649841 624.658874 1401.814269 624.882080 1395.511901 625.851196 M1583.011901 594.351135 C1584.011901 593.586303 1585.011901 592.821472 1586.011901 592.056701 C1585.443420 591.488220 1584.874816 590.919739 1584.306335 590.351196 C1583.541564 591.351196 1582.776672 592.351196 1583.011901 594.351135 M1456.011901 597.351196 C1455.796447 596.469055 1455.580993 595.586914 1455.365417 594.704834 C1454.914245 595.253601 1453.997253 596.185119 1454.084655 596.291443 C1454.861633 597.237243 1451.998351 600.582397 1456.011901 597.351196 M1730.011901 589.351135 C1731.070617 589.625732 1732.127014 589.911987 1733.198669 590.119507 C1733.231262 590.125793 1733.422912 589.311523 1733.540466 588.879822 C1732.697570 588.703613 1731.854797 588.527405 1730.011901 589.351135 M1648.011901 591.351135 C1647.611999 591.084472 1647.211974 590.817810 1646.811950 590.551208 C1646.878600 591.151184 1646.945251 591.751220 1648.011901 591.351135 z"/><path class="selected"  fill="#000000" opacity="1.000000" stroke="none" 
 	d="
M1275.511901 447.851166 C1287.507018 436.522613 1298.917907 425.602264 1310.548889 414.921539 C1314.034362 411.720978 1318.148498 409.208404 1321.946227 406.342865 C1323.734435 404.993591 1325.591491 403.693847 1327.182556 402.132202 C1333.556091 395.875793 1338.954650 388.092926 1346.352477 383.533935 C1358.532409 376.028167 1366.349182 362.771545 1380.628600 358.351196 C1390.028503 347.660400 1402.092590 340.593109 1413.827697 332.863800 C1420.880065 328.218780 1427.261291 322.558624 1434.697570 318.175903 C1447.097473 310.867553 1458.904235 302.539306 1470.843566 294.467254 C1479.002502 288.951111 1488.631164 287.526397 1497.652282 284.434082 C1500.804748 283.353485 1502.892761 284.839752 1501.976989 288.530578 C1501.159362 291.826416 1500.967468 295.881744 1498.907165 298.165313 C1487.217224 311.122345 1476.245788 325.181762 1462.637634 335.800262 C1452.979919 343.336120 1444.139709 352.421448 1433.098693 358.094269 C1422.600524 363.488189 1415.466125 373.024383 1405.815978 379.139221 C1398.520690 383.761902 1394.333190 392.378723 1385.224426 394.439148 C1384.117858 394.689483 1383.280090 396.139923 1382.323791 397.040619 C1370.827819 407.868255 1359.251891 418.612854 1347.865051 429.554260 C1339.781677 437.321594 1331.968933 445.370300 1323.981628 453.238952 C1323.378356 453.833221 1322.377136 454.137817 1321.506408 454.329193 C1306.466979 457.635284 1295.425598 468.469452 1282.189391 475.162842 C1279.991149 476.274505 1277.750793 477.303894 1275.519103 478.348327 C1271.632873 480.167114 1268.076843 485.429748 1263.545837 478.988037 C1260.851867 475.158020 1260.057678 466.216034 1263.056335 462.396515 C1266.850036 457.564392 1271.009948 453.019775 1275.511901 447.851166 M1485.011901 298.351196 C1484.983947 299.656555 1484.955993 300.961883 1484.927917 302.267273 C1485.955871 301.883636 1486.983947 301.500000 1488.011901 301.116363 C1486.944152 300.074371 1490.298400 296.683471 1485.011901 298.351196 M1411.012023 344.351257 C1410.745300 344.751251 1410.478576 345.151245 1410.211852 345.551208 C1410.811828 345.484527 1411.411926 345.417846 1411.012023 344.351257 M1441.011901 326.351196 C1441.278625 325.951202 1441.545226 325.551178 1441.811950 325.151184 C1441.211974 325.217865 1440.611877 325.284546 1441.011901 326.351196 z"/><path class="selected"  fill="#000000" opacity="1.000000" stroke="none" 
 	d="
M632.511901 391.851196 C641.928100 401.934082 650.587280 411.775970 659.871887 420.987549 C664.329833 425.410492 669.502563 429.723938 675.177490 432.173858 C685.050475 436.436065 691.752014 445.415558 702.386230 448.635498 C708.450439 450.471710 714.613342 454.239929 719.001769 458.802276 C724.986877 465.024566 733.629089 466.457824 739.567687 472.313934 C741.602477 474.320495 744.205871 475.743347 746.294494 477.704345 C749.282775 480.509949 751.289733 488.324157 750.011901 491.142151 C749.151428 493.039734 740.295471 496.963867 737.306823 496.285949 C730.124084 494.656677 722.739440 494.528808 715.466491 493.025207 C705.913940 491.050476 698.465576 485.446716 689.573242 482.738220 C679.842834 479.774536 671.802551 473.013366 661.821411 470.010650 C656.082763 468.284240 651.401061 463.099212 646.192565 459.545868 C632.329711 450.088440 621.491271 437.164795 608.691406 426.635620 C597.253295 417.226745 587.951171 406.383026 579.523071 394.629425 C574.142211 387.125488 570.999389 378.441650 571.983703 368.779022 C572.445068 364.250519 578.743957 356.848266 581.401183 358.744262 C587.405883 363.028869 592.403198 355.907074 597.757507 359.016601 C604.315978 362.825439 611.617858 365.414795 616.483642 371.773895 C621.544494 378.387848 626.826537 384.832550 632.511901 391.851196 z"/><path class="selected"  fill="#000000" opacity="1.000000" stroke="none" 
 	d="
M1010.011901 230.351196 C1013.399230 231.017853 1015.970153 231.323028 1018.137145 232.423492 C1023.273376 235.031647 1029.934509 236.100586 1031.513610 242.953857 C1032.706359 248.130432 1039.071349 252.271667 1034.786437 258.576629 C1038.286315 267.118316 1032.834411 276.622192 1037.632629 285.073181 C1038.211364 286.092438 1037.929626 287.611755 1038.008361 288.901642 C1038.681335 299.944916 1039.310485 310.991058 1040.052307 322.029632 C1040.154479 323.550445 1040.662414 325.088440 1041.218566 326.527191 C1045.591735 337.837707 1045.598327 350.060882 1048.438171 361.561981 C1051.034728 372.077301 1047.311950 383.305420 1053.611266 393.360779 C1056.341491 397.719055 1051.898986 404.381470 1055.970397 409.309753 C1051.729308 414.610534 1055.047058 420.776336 1053.992126 426.438934 C1053.882873 427.025940 1053.619933 427.936920 1053.223693 428.065246 C1046.740539 430.164581 1041.746887 435.604614 1034.675109 436.332306 C1034.056335 436.396026 1033.178649 436.433624 1032.812560 436.079162 C1029.068786 432.454254 1024.630676 429.227081 1021.954284 424.915527 C1019.602111 421.126220 1018.948058 416.153015 1018.090392 411.599731 C1017.088073 406.279236 1018.090637 400.084045 1015.688293 395.638122 C1011.870056 388.571747 1012.147033 381.478180 1012.009460 374.147705 C1011.978454 372.502014 1012.370788 370.678039 1011.801696 369.239380 C1006.621887 356.145630 1005.999938 342.206756 1003.983947 328.524048 C1003.760436 327.007110 1003.528259 325.259460 1002.653015 324.112671 C999.644592 320.170868 1000.152770 315.677063 999.979186 311.200775 C999.460388 297.816803 997.387634 284.702789 994.608581 271.553802 C992.793640 262.966461 993.631530 253.690307 994.175353 244.777221 C994.545593 238.707550 1002.644103 231.630737 1010.011901 230.351196 z"/><path class="selected"  fill="#000000" opacity="1.000000" stroke="none" 
 	d="
M27.511901 1625.851196 C26.945251 1625.751220 26.878570 1625.151123 26.811889 1624.551147 C27.211883 1624.817871 27.611877 1625.084595 27.511901 1625.851196 z"/><path class="selected"  fill="#000000" opacity="1.000000" stroke="none" 
 	d="
M1121.511901 1569.851196 C1114.636291 1573.798218 1108.776794 1578.026367 1102.764587 1582.011474 C1094.665344 1587.380005 1085.124084 1590.734619 1075.936218 1594.261352 C1062.126525 1599.562134 1048.098693 1604.297607 1034.133727 1609.187988 C1031.502502 1610.109253 1028.757995 1610.762329 1026.020324 1611.313720 C1017.395446 1613.050537 1008.516540 1613.930542 1000.162902 1616.519653 C986.203063 1620.846313 971.990173 1619.844360 957.791320 1620.545654 C950.679504 1620.896850 943.457214 1622.676147 936.704528 1625.018921 C933.528747 1626.120727 931.710388 1625.142456 929.029601 1624.815796 C923.477844 1624.139282 917.210998 1624.601440 912.063049 1626.659179 C906.822692 1628.753662 901.750915 1628.712158 896.795715 1628.153930 C888.625060 1627.233520 880.741271 1629.989990 872.058166 1626.948486 C864.044250 1624.141479 854.079650 1627.482422 845.338195 1625.987549 C838.535339 1624.824341 831.877990 1624.582153 825.112121 1624.328613 C823.528015 1624.269287 821.639343 1624.415161 820.429260 1623.633301 C814.298644 1619.672729 807.482116 1620.622925 800.780822 1620.268066 C796.701232 1620.052002 792.185119 1617.523437 788.702209 1618.641601 C779.574523 1621.571777 771.873718 1613.593384 763.103332 1616.351196 C752.050842 1610.850342 738.566100 1611.298462 728.897033 1602.333008 C727.868835 1601.379761 725.965026 1600.336181 724.859558 1600.662597 C715.056701 1603.556885 707.424255 1599.975464 700.131835 1593.668457 C695.908813 1590.016113 690.930663 1587.132812 686.011169 1584.411621 C676.002929 1578.875854 664.260864 1575.343506 656.176147 1567.822143 C649.802551 1561.892700 641.807311 1558.677124 635.984680 1552.442383 C635.057311 1551.449585 633.875671 1550.514892 632.626525 1550.033325 C627.220275 1547.949463 621.958984 1545.803345 619.972717 1539.578979 C619.813232 1539.079101 619.146118 1538.479614 618.635009 1538.391968 C608.164001 1536.597168 602.893005 1526.973633 594.353454 1522.218261 C591.140685 1520.429077 587.498168 1517.631714 586.238708 1514.432739 C581.584411 1502.611084 571.479431 1495.208374 564.100707 1485.653320 C554.090698 1472.690674 544.930419 1459.482788 537.527282 1444.675537 C532.898986 1435.418335 530.567993 1425.542602 526.403625 1416.239136 C522.273864 1407.013061 519.571166 1396.395386 519.366882 1386.324707 C518.965942 1366.560303 513.777831 1347.081177 516.091369 1327.253174 C516.778991 1321.359863 518.424682 1315.578979 519.610717 1309.742431 C519.800414 1308.808960 520.275939 1307.679565 519.948852 1306.935547 C517.531616 1301.438476 520.220886 1296.020630 520.051147 1290.569214 C519.874938 1284.909912 519.853942 1279.235473 520.041320 1273.576904 C520.628112 1255.856201 520.274963 1238.006347 522.461059 1220.477783 C523.562499 1211.646118 522.186096 1201.983764 527.452331 1193.649658 C528.669250 1191.723877 527.823425 1188.525268 528.021972 1185.919555 C528.661315 1177.529785 529.256225 1169.134521 530.083312 1160.762695 C530.258361 1158.990845 531.302612 1157.291137 532.025146 1155.591675 C532.627624 1154.174316 534.242065 1152.469238 533.867004 1151.470459 C531.370422 1144.823974 535.478210 1139.006836 535.741149 1132.896484 C536.293640 1120.054565 540.611450 1108.255737 544.158691 1096.278076 C548.182311 1082.691894 552.222900 1069.049194 558.062805 1056.071411 C558.699829 1054.655639 559.975280 1053.496094 561.068542 1052.324096 C562.658569 1050.619385 565.328552 1049.268921 565.843139 1047.319946 C569.192199 1034.634033 578.875549 1025.540161 584.327453 1013.983764 C588.525573 1005.084961 593.817687 995.901489 604.449584 992.273315 C605.873229 991.787597 607.056579 990.358032 608.148193 989.177734 C615.489562 981.241089 623.361877 973.702026 629.906677 965.149841 C635.810424 957.435180 641.660827 951.290832 651.243774 947.230469 C659.010925 943.939453 664.699218 935.554077 672.029235 930.057983 C680.154846 923.965149 690.305908 920.886352 696.936828 912.582397 C701.336059 907.073364 708.026672 904.978088 714.332824 902.071411 C721.886047 898.589966 728.098083 892.258301 735.576843 888.541199 C745.195007 883.760681 755.552062 880.487060 765.470641 876.280761 C769.158874 874.716553 772.582824 872.471252 775.997131 870.328918 C786.974548 863.440979 799.234435 861.082336 811.861999 860.475097 C816.270812 860.263061 820.615173 857.368164 825.302917 860.169739 C826.278991 860.753113 829.066711 859.454895 830.283874 858.268860 C833.852111 854.791504 838.196594 854.957763 842.651672 854.089294 C851.094421 852.443359 860.424743 852.236084 866.715759 844.701294 C867.512756 843.746704 868.824645 842.345337 869.703796 842.474365 C876.879089 843.527038 882.131652 838.451172 888.388122 836.657226 C894.213317 834.986938 899.387512 831.127563 904.962829 828.472229 C908.010192 827.020996 911.226989 825.347107 914.486633 825.039428 C921.425231 824.384582 927.809265 823.168945 932.306335 817.162170 C932.749816 816.569763 934.019470 816.468994 934.930236 816.373108 C941.647521 815.665832 948.378600 815.082397 955.087829 814.308899 C956.916442 814.098022 959.458434 813.961059 960.355773 812.785095 C965.955749 805.445923 974.542175 807.053650 980.353332 809.060974 C985.012512 810.670349 987.491271 806.451294 990.937683 808.351196 C995.463073 801.280395 1003.435485 804.783752 1009.601867 802.849365 C1016.012634 800.838440 1023.602111 798.667358 1030.813537 802.287170 C1033.820129 803.796264 1038.027404 803.755127 1040.183776 805.918823 C1043.417907 809.163879 1047.746276 809.487915 1050.096130 808.038269 C1054.633972 805.238708 1057.933410 806.913391 1061.416320 808.843323 C1068.319641 812.668823 1076.432311 811.204284 1083.495910 814.309570 C1090.866760 817.549927 1100.392516 814.225647 1106.414123 821.739380 C1106.588195 821.956726 1107.005920 822.279663 1107.095031 822.221863 C1117.564636 815.435058 1125.595153 824.996704 1134.807311 826.499573 C1138.942932 827.174194 1142.026794 830.543152 1147.381042 829.083618 C1150.518737 828.228393 1155.296203 831.933655 1158.844177 834.318847 C1168.415222 840.753113 1176.988342 848.681396 1189.114562 850.724853 C1192.820251 851.349365 1196.494201 854.260864 1199.427551 856.948913 C1206.257629 863.207947 1212.628478 869.968078 1219.185729 876.525085 C1219.421325 876.760620 1219.626281 877.041443 1219.897033 877.225342 C1235.944763 888.125305 1240.814269 908.130798 1255.113220 920.452514 C1259.185241 931.424804 1266.918884 940.216736 1272.826232 950.095581 C1277.317321 957.606201 1280.942565 966.360351 1287.312927 971.794922 C1292.530822 976.246521 1293.836120 980.060241 1294.321716 986.117065 C1294.587097 989.426513 1298.583312 992.262817 1299.902404 995.694824 C1303.551818 1005.189087 1306.477966 1014.960327 1310.080505 1024.473999 C1312.585143 1031.088012 1315.739318 1037.455932 1318.593810 1043.938110 C1319.090026 1045.064697 1319.827941 1046.177612 1319.967101 1047.354492 C1321.238708 1058.106811 1325.276550 1067.706177 1331.170715 1076.750732 C1332.709167 1079.111450 1335.537414 1081.605102 1332.340515 1085.949096 C1330.033630 1089.083984 1330.423034 1093.894531 1332.811584 1098.745483 C1335.481750 1104.168457 1335.310363 1111.081787 1335.931091 1117.390259 C1336.353332 1121.680664 1336.546081 1126.133667 1335.855651 1130.352661 C1335.217346 1134.252441 1337.602599 1137.642456 1336.280456 1141.802490 C1335.030090 1145.737060 1336.136657 1150.385498 1335.982482 1154.711914 C1335.752380 1161.161377 1337.669738 1167.475952 1336.203063 1174.091797 C1335.120422 1178.975708 1336.851745 1184.459839 1332.739684 1188.714477 C1332.177429 1189.296264 1332.108947 1190.469970 1332.032287 1191.388183 C1331.331115 1199.772949 1330.557189 1208.154663 1330.051818 1216.552124 C1329.669616 1222.904785 1331.279113 1229.592163 1326.373229 1235.051758 C1326.015563 1235.449951 1325.936828 1236.296997 1326.039123 1236.880981 C1328.196960 1249.214966 1321.111755 1259.503052 1318.555847 1270.788330 C1318.491638 1271.072021 1318.015197 1271.321655 1318.038024 1271.557251 C1319.437805 1285.922973 1311.530578 1298.431396 1309.891296 1312.217651 C1309.312438 1317.086548 1308.158752 1322.233642 1305.846130 1326.479736 C1300.697814 1335.931885 1298.955139 1346.328979 1295.865417 1356.371826 C1294.618224 1360.425659 1292.298766 1364.493286 1289.431945 1367.598999 C1287.042541 1370.187744 1286.597228 1373.138183 1285.283508 1375.961181 C1281.508239 1384.072632 1277.340148 1392.000976 1273.356506 1400.016235 C1271.434875 1403.882446 1269.848083 1407.941162 1267.647521 1411.637573 C1260.475158 1423.685669 1253.089782 1435.606811 1245.786315 1447.576782 C1236.811828 1450.542969 1236.968444 1459.683471 1233.131530 1466.145752 C1231.041442 1469.666137 1228.558532 1472.986328 1225.981750 1476.177856 C1219.137390 1484.655517 1214.319030 1494.646728 1205.727966 1501.874023 C1201.335021 1505.569824 1198.362365 1510.903930 1194.237365 1514.981079 C1189.160339 1519.999023 1184.139465 1525.565796 1178.006286 1528.884277 C1171.909728 1532.182983 1168.395568 1537.554321 1163.481506 1541.687256 C1157.193786 1546.975464 1150.264465 1551.500732 1143.605529 1556.346435 C1143.101989 1556.712890 1142.401672 1556.897583 1142.043395 1557.360595 C1138.529724 1561.899658 1134.205993 1564.656860 1128.266784 1565.306396 C1126.060729 1565.547607 1124.089904 1567.939819 1121.511901 1569.851196 M1284.011901 1137.351196 C1280.253845 1134.904785 1285.792907 1132.405273 1283.996642 1130.023559 C1280.691100 1125.641235 1281.851379 1120.557007 1282.150451 1115.854736 C1282.667785 1107.722534 1280.236755 1100.999511 1275.459899 1094.516113 C1273.361511 1091.667969 1269.534240 1088.406006 1273.425353 1083.493530 C1274.557311 1082.064575 1273.114196 1078.126343 1272.165832 1075.595459 C1266.222473 1059.735840 1259.685119 1044.087646 1254.135925 1028.094848 C1249.534850 1014.834228 1244.216613 1002.090454 1236.092712 990.553467 C1233.800475 987.298157 1230.788879 984.067566 1231.866271 979.239563 C1232.122253 978.092956 1230.902404 975.842895 1229.778137 975.293335 C1224.269958 972.600647 1222.795104 967.008545 1220.079528 962.382934 C1217.429748 957.869629 1216.463317 951.668640 1212.769714 948.607971 C1204.067565 941.397339 1199.050353 931.415283 1192.504699 922.835327 C1185.159850 913.207886 1175.547058 907.121765 1166.329528 900.717163 C1156.331481 893.770080 1143.377624 891.024963 1133.536437 883.921020 C1125.862243 878.381408 1116.618713 879.374756 1109.378356 874.351196 C1096.056335 875.106201 1084.787902 867.288086 1072.090392 865.420959 C1062.164123 863.961426 1052.567199 859.798889 1042.081237 864.047363 C1038.858215 865.353088 1034.275817 865.155273 1030.074523 861.992004 C1026.352599 859.189514 1021.286559 856.334106 1015.209899 859.681213 C1012.387390 861.236023 1007.591857 860.172058 1004.003967 859.171264 C996.758849 857.150635 990.183776 860.140747 983.875427 862.102722 C980.910827 863.024780 978.058166 864.283508 974.858703 864.339294 C970.209045 864.420410 964.041808 862.577698 961.250915 864.873291 C956.685241 868.628784 952.291808 867.970764 947.531433 868.405578 C943.005309 868.819031 938.400695 869.253784 934.049133 870.464355 C929.029113 871.860657 924.391418 874.945862 919.332458 875.819397 C910.059020 877.420654 902.011413 883.796509 892.311950 882.931824 C886.979797 882.456421 882.180480 884.109619 878.687805 887.029419 C870.773742 893.645630 861.066955 896.294433 852.012390 900.052551 C844.163879 903.310058 835.324157 904.378601 826.744323 900.480407 C824.810974 899.601990 821.824767 899.625305 819.858581 900.473999 C810.207214 904.640075 799.309142 905.111450 790.192809 910.977478 C786.374206 913.434692 781.629211 914.402099 777.471008 916.392639 C769.121154 920.389526 760.177673 923.636902 752.747009 928.962585 C736.372131 940.698608 719.697814 951.915466 702.830139 962.918518 C696.357177 967.141052 689.055175 972.768982 686.586303 979.802734 C684.170349 986.685486 679.981079 988.262573 674.701415 990.432251 C671.570495 991.718872 668.227050 993.278930 665.919067 995.636352 C657.427734 1004.309448 649.894287 1013.991455 640.927245 1022.108398 C631.579345 1030.569946 627.694396 1041.916626 622.052551 1052.388794 C620.452819 1055.358276 618.270385 1058.577759 618.226318 1061.708984 C618.121276 1069.177124 614.738830 1075.680542 610.405334 1080.400757 C602.348815 1089.176391 602.470031 1100.585571 598.205871 1110.484131 C595.637878 1116.445190 591.401428 1122.838623 595.928222 1129.960571 C596.206542 1130.398437 595.293884 1131.609741 594.910095 1132.449585 C588.918823 1145.564209 587.931701 1159.754638 586.001708 1173.746094 C585.264831 1179.088257 584.594055 1184.449829 583.561889 1189.737915 C582.608947 1194.620239 579.419433 1199.829712 580.417297 1204.156494 C582.060119 1211.279541 580.766723 1218.386108 579.424133 1224.455078 C577.171874 1234.636230 578.339233 1244.860473 576.608642 1255.018066 C575.082275 1263.976318 573.596618 1273.799316 575.980163 1283.256592 C576.217040 1284.196411 576.305480 1285.362060 575.967651 1286.230224 C571.323913 1298.163574 574.797729 1310.326782 575.295654 1322.326416 C575.443847 1325.898315 574.915954 1328.804077 574.342651 1332.143677 C573.629882 1336.295654 576.257629 1340.972290 575.755248 1345.222900 C575.252807 1349.473755 576.001342 1353.551025 576.257629 1357.575683 C576.735229 1365.074829 578.310607 1372.572265 580.130737 1379.895996 C581.534973 1385.546631 583.585388 1391.134765 586.099914 1396.391235 C591.476501 1407.630127 589.313964 1421.386474 598.011901 1431.447998 C601.207885 1447.284546 611.806457 1459.190674 621.760375 1470.423950 C639.652038 1490.615356 658.863342 1509.882324 684.754150 1520.516723 C689.876403 1522.620727 694.009643 1527.040161 698.825805 1530.025879 C700.862365 1531.288452 703.499511 1531.563843 705.837341 1532.364746 C707.584045 1532.962890 709.667236 1533.264160 710.949096 1534.420044 C718.506164 1541.234741 727.799255 1545.208130 736.380798 1550.336792 C738.770690 1551.765014 741.212707 1554.055664 743.720519 1554.182739 C759.923400 1555.003906 774.460388 1563.114624 790.538879 1564.493042 C795.396545 1564.909424 800.037658 1567.701416 804.903015 1568.211181 C815.575378 1569.329590 826.401916 1570.797241 837.030334 1570.090942 C853.043762 1569.026855 868.586120 1573.793213 884.557678 1572.523071 C889.859558 1572.101318 895.333068 1574.318237 900.706725 1574.214844 C910.883239 1574.019043 921.079894 1573.342163 931.199157 1572.234741 C937.712219 1571.521728 944.081725 1569.572998 950.554138 1568.388428 C955.241149 1567.530517 959.991516 1566.460449 964.713317 1566.462280 C976.025329 1566.466553 987.054260 1565.451172 998.089172 1562.522705 C1009.791320 1559.417236 1021.202941 1555.745849 1032.377502 1551.120971 C1036.644225 1549.355102 1042.213806 1549.826172 1045.691467 1547.253052 C1052.915099 1541.907959 1061.364562 1539.881836 1069.241393 1536.345703 C1074.018737 1534.201172 1079.190612 1532.616211 1083.453430 1529.707519 C1094.394836 1522.241333 1104.550475 1513.582031 1115.717590 1506.499145 C1130.219665 1497.300903 1143.098937 1486.340942 1155.131286 1474.236450 C1159.554260 1469.787109 1163.695617 1464.989990 1168.519348 1461.025390 C1173.846740 1456.646606 1181.787780 1454.556396 1180.313293 1445.137207 C1180.222228 1444.555176 1181.559265 1443.658081 1182.340026 1443.045166 C1191.406310 1435.930053 1195.510192 1425.185669 1201.987121 1416.180420 C1204.187316 1413.121338 1206.898742 1410.405151 1206.208434 1405.829834 C1205.883727 1403.677856 1207.261047 1399.458374 1208.543151 1399.168823 C1216.754699 1397.314209 1217.050964 1388.959595 1220.588806 1383.937011 C1226.133972 1376.064575 1232.198181 1367.981933 1234.299865 1357.710449 C1235.812805 1350.316650 1238.917785 1342.692261 1243.306701 1336.609497 C1247.217590 1331.189575 1247.078430 1323.423218 1253.557433 1319.725097 C1253.925964 1319.514770 1254.045959 1318.543213 1253.986022 1317.956177 C1252.785339 1306.206054 1260.498474 1296.161865 1260.248718 1284.447021 C1260.147521 1279.698486 1262.285461 1274.739258 1264.091247 1270.145996 C1268.244689 1259.581787 1271.633239 1248.925903 1272.091369 1237.444946 C1272.271911 1232.922607 1272.837463 1228.287109 1274.105041 1223.960083 C1278.276061 1209.722046 1278.209167 1194.932007 1279.643981 1180.398803 C1280.225768 1174.506958 1278.857482 1168.270508 1279.925598 1162.084472 C1281.281799 1154.229980 1282.011901 1146.267212 1284.011901 1137.351196 M1246.011901 1437.351074 C1245.345153 1437.684448 1244.678527 1438.017700 1244.011901 1438.351318 C1244.678527 1438.684570 1245.345153 1439.017944 1246.011901 1437.351074 z"/><path class="selected"  fill="#000000" opacity="1.000000" stroke="none" 
 	d="
M819.511901 764.851196 C818.011901 761.434997 816.216247 758.535705 816.153869 755.599548 C815.920959 744.655639 815.148010 733.836914 812.011901 723.288879 C816.903747 714.686279 810.325378 703.242615 819.582702 695.277771 C822.913268 692.412170 823.458923 686.395080 825.489196 681.913086 C828.920593 674.338440 831.680602 666.268066 836.300475 659.479858 C840.502868 653.305359 846.680236 648.427795 852.218444 643.224853 C856.696594 639.017761 861.656066 635.323974 866.146789 631.129333 C869.957580 627.569824 873.542785 624.040893 879.352355 624.245483 C880.716247 624.293518 882.209167 623.148193 883.502624 622.330017 C892.046203 616.925598 902.055969 615.599914 911.428649 612.610412 C914.232360 611.716186 918.876403 612.927307 921.182922 614.911194 C925.792419 618.875854 929.760681 623.768493 933.259094 628.789856 C936.601867 633.587829 940.775329 636.898987 944.667297 634.096008 C952.216003 628.659424 960.282897 630.997192 968.173156 630.357178 C976.353210 629.693664 983.408019 632.093994 990.937805 635.755554 C1003.482971 641.855957 1015.188903 648.460571 1024.093444 659.399719 C1026.569274 662.441345 1030.081115 663.672241 1033.564514 665.389160 C1040.073791 668.597595 1042.172058 676.105652 1044.896301 682.419739 C1047.818420 689.192627 1049.504577 696.487304 1052.135803 703.399902 C1055.773864 712.957886 1053.537170 722.572754 1053.247009 732.234070 C1052.959289 741.810547 1047.056457 749.028564 1043.941833 757.399292 C1043.406555 758.837951 1042.272277 760.147522 1042.081725 761.604004 C1041.394470 766.855652 1039.762023 770.885559 1034.298278 773.400146 C1030.941955 774.944702 1028.638854 778.758606 1025.818298 781.507751 C1025.397766 781.917724 1024.669006 782.396728 1024.189514 782.302185 C1018.702453 781.220947 1014.075988 783.713562 1009.942443 786.487915 C1005.953430 789.165283 1000.089660 786.868042 997.048156 791.992981 C996.501525 792.914306 993.319641 792.337097 991.354186 792.340454 C979.031555 792.361572 966.702941 792.579223 954.388366 792.263244 C947.325134 792.082031 940.267639 791.157776 933.238708 790.309875 C926.841003 789.538086 920.481262 788.442749 914.114074 787.432312 C912.581115 787.188965 911.098449 786.479553 909.568664 786.388855 C897.193054 785.655151 884.804260 785.128235 872.436218 784.292114 C868.024841 783.993896 863.236266 781.516174 859.346130 782.611816 C842.681579 787.304992 833.015808 776.161560 822.141174 767.460022 C821.365539 766.839416 820.718688 766.057922 819.511901 764.851196 M945.011901 744.351196 C949.712951 745.135132 954.894958 742.516113 959.164855 746.351196 C966.296203 742.601501 975.634826 744.879516 981.685851 737.869140 C983.186218 736.130920 985.845153 735.023010 988.175231 734.441223 C994.686706 732.815429 1001.782409 724.466858 1002.042541 717.797241 C1002.177307 714.341614 1000.232726 709.279480 1007.101257 710.261902 C1007.002746 708.889587 1007.392639 707.172851 1006.713683 706.209717 C1004.706237 703.361877 1001.991638 701.000549 1000.072326 698.105163 C996.289611 692.398620 992.941589 686.405395 989.224670 680.652893 C988.164733 679.012573 986.333923 676.487121 985.061706 676.603760 C979.159484 677.145019 977.553771 671.857116 973.976745 669.329345 C970.636901 666.969360 967.551940 663.647888 963.825500 662.555420 C954.851013 659.924804 945.600524 658.172119 936.393127 656.425537 C931.673522 655.530273 927.407409 656.488708 924.274474 660.953552 C921.768859 664.524170 919.046935 665.715088 914.525817 662.286011 C910.518127 659.246277 903.867736 655.578491 900.358581 657.014221 C895.772033 658.890869 890.794006 658.469360 886.609802 660.795715 C879.712585 664.630615 873.011413 668.495727 866.916320 673.882202 C861.217956 678.918030 858.159973 685.085144 856.416320 691.466186 C855.040588 696.500732 854.372863 701.793030 852.617248 706.919494 C849.192321 716.920593 854.704162 729.532654 863.592590 730.003357 C874.166686 730.563415 883.931579 734.637512 894.444396 735.074096 C900.178039 735.312256 905.841857 737.209778 911.539123 738.349426 C914.923034 739.026245 918.285461 740.005737 921.702819 740.275574 C926.774841 740.676208 931.918884 739.734436 936.435974 743.500061 C937.868713 744.694458 940.778259 744.117492 945.011901 744.351196 z"/><path class="selected"  fill="#000000" opacity="1.000000" stroke="none" 
 	d="
M377.511901 985.851196 C376.595641 1000.473144 367.874999 1011.205932 362.011901 1023.104980 C352.719116 1026.971313 350.454040 1037.080688 343.954406 1043.441284 C337.133361 1050.116455 330.377319 1056.860840 323.707702 1063.687256 C315.454345 1072.134765 304.121337 1074.405761 293.709045 1078.095093 C285.755920 1080.912964 277.454406 1084.030395 268.465637 1082.416260 C262.809142 1081.400512 256.997497 1081.246338 251.342529 1080.224243 C249.428344 1079.878174 247.745849 1078.104858 246.024780 1076.888672 C244.949279 1076.128662 244.021484 1075.163330 242.989501 1074.337402 C239.096130 1071.222168 233.012206 1072.663452 230.205261 1066.165039 C228.259094 1061.659424 221.710998 1059.365478 218.193115 1055.250610 C214.813781 1051.297851 212.625060 1046.308838 210.029662 1041.709350 C207.445434 1037.129638 204.542968 1032.648193 202.652954 1027.784546 C201.197204 1024.038208 201.075042 1019.769653 200.392913 1015.727783 C198.921325 1007.008056 196.379150 998.292236 196.318450 989.560791 C196.257476 980.796570 198.470001 971.976196 200.097625 963.257263 C200.944183 958.722473 202.953002 954.413208 203.935729 949.893066 C204.945678 945.247619 206.190673 940.399292 205.805786 935.766662 C205.281555 929.457580 209.924011 925.555176 212.515991 921.557556 C218.512817 912.308288 225.562560 903.246032 236.216003 898.347839 C236.776550 898.090088 237.505065 897.924682 237.835388 897.479126 C244.958923 887.867676 255.934570 886.987976 266.308959 884.060730 C272.818603 882.223938 278.680114 877.530090 285.874511 878.461609 C292.052795 879.261657 298.127746 880.936218 304.191467 882.451721 C304.973327 882.647095 305.259582 884.370422 306.036132 885.113281 C312.764831 891.550476 317.999450 899.806335 327.522399 902.866211 C332.025756 904.313232 336.681518 904.247436 340.970641 907.719909 C344.637634 910.688659 348.361694 912.358581 348.141052 917.842895 C348.089172 919.133178 349.494506 920.625671 350.499755 921.792114 C358.543823 931.125854 365.752258 940.998596 369.958740 952.710388 C371.318298 956.495910 372.808471 960.486023 372.911437 964.417297 C373.106201 971.856689 379.625854 977.602966 377.511901 985.851196 M252.011901 959.351196 C250.678588 966.439758 248.455993 973.501831 248.244323 980.623718 C247.997741 988.921386 247.948852 997.842041 250.722656 1005.429077 C253.220336 1012.260742 259.223083 1018.056762 264.439269 1023.594116 C273.363586 1033.067993 284.098022 1032.467285 293.782836 1023.763550 C304.437927 1014.188110 310.693969 1001.504883 318.954833 990.247925 C319.954650 988.885620 320.339965 986.428406 319.910827 984.761596 C315.853881 969.002746 311.109252 953.420593 296.401672 943.959228 C291.743835 940.962951 287.948058 936.823242 282.097167 935.195068 C268.811767 931.497925 259.399474 935.677307 254.830322 948.551513 C253.800659 951.452698 252.946716 954.416321 252.011901 959.351196 z"/><path class="selected"  fill="#000000" opacity="1.000000" stroke="none" 
 	d="
M654.011901 1266.351196 C653.345214 1252.296631 652.446960 1239.247558 652.142089 1226.184570 C652.040283 1221.822632 650.326721 1217.023071 653.914550 1212.933349 C654.525329 1212.237182 653.945190 1210.404419 653.760436 1209.119140 C653.219482 1205.356933 651.024902 1200.910888 652.315795 1197.984497 C655.788879 1190.111328 654.445190 1181.454101 659.029724 1173.323242 C663.525512 1165.350097 667.278320 1155.991089 669.681884 1146.887939 C672.828552 1134.970093 679.214782 1124.770019 684.249694 1113.891968 C686.474426 1109.085571 689.683471 1105.140991 690.464477 1099.347412 C691.030456 1095.148926 694.768981 1090.989746 697.939514 1087.606689 C706.100097 1078.898681 714.670226 1070.569214 723.219421 1062.234863 C725.231384 1060.273437 727.968933 1059.072632 730.083679 1057.196045 C733.026794 1054.584350 735.828674 1051.782837 738.452941 1048.849609 C742.074157 1044.802124 744.694518 1039.188965 749.122253 1036.666748 C759.886047 1030.534912 766.202453 1019.173584 777.451476 1013.859131 C779.414855 1012.931762 781.391418 1010.273559 782.965270 1010.563965 C793.788513 1012.561279 799.820251 1004.077759 807.476135 999.539673 C810.872253 997.526367 814.453552 998.683594 818.130432 995.890625 C830.291564 986.652405 843.670471 979.016296 856.602355 970.797058 C857.099304 970.481201 857.815978 970.530151 858.410583 970.345520 C866.973327 967.687134 875.529113 965.006347 884.100280 962.375671 C884.709411 962.188659 885.632018 962.628723 886.061706 962.309753 C892.980651 957.173279 899.719665 957.894104 906.931701 962.029419 C909.603576 963.561462 921.212463 957.063171 921.807800 953.288635 C923.647277 941.625244 934.150817 940.192505 941.824523 936.734863 C950.993957 932.603454 962.080383 933.231689 970.673522 926.739502 C971.123962 926.399231 971.949890 926.236755 972.493347 926.385254 C988.554382 930.774231 1003.895202 921.717285 1020.072936 923.854553 C1024.758849 924.473572 1030.233825 920.757324 1035.347106 924.351196 C1045.242004 919.430237 1054.126891 928.575989 1063.861755 926.378052 C1070.597228 924.857300 1077.679382 926.845520 1084.396667 924.437439 C1085.816223 923.928589 1087.759826 924.147827 1089.237609 924.668396 C1094.171935 926.406860 1098.862853 929.246521 1103.915099 930.128235 C1109.220397 931.054077 1113.255432 935.973877 1119.228088 934.397461 C1123.984191 933.142151 1127.700134 939.394226 1132.810729 936.552368 C1142.071227 941.373840 1153.515441 941.414734 1161.093810 950.161072 C1163.624572 953.081787 1167.980407 954.352356 1171.289245 956.679382 C1187.346862 967.972717 1198.548522 983.854675 1207.509948 1000.533325 C1214.107849 1012.813232 1220.567565 1025.586792 1224.572326 1039.440674 C1227.696716 1050.249145 1234.248229 1060.043091 1238.967346 1070.428467 C1240.488464 1073.776001 1241.510192 1077.519775 1241.897033 1081.173706 C1242.465637 1086.542969 1240.996154 1092.269531 1245.410949 1096.750244 C1243.786559 1105.750366 1250.373229 1113.719726 1248.315124 1123.076904 C1247.364562 1127.398803 1247.935607 1132.340454 1249.490905 1137.353271 C1252.280212 1146.342895 1252.330016 1156.145386 1254.098083 1165.499756 C1255.884216 1174.949951 1253.058044 1183.963135 1252.694885 1193.052124 C1252.323547 1202.344116 1249.017272 1211.173828 1249.797546 1220.551269 C1250.118347 1224.408325 1247.308654 1228.462280 1247.304626 1232.428100 C1247.300720 1236.257446 1247.137390 1239.302734 1243.824890 1241.727905 C1243.278259 1242.128174 1243.786559 1243.975097 1243.814758 1245.153320 C1243.877990 1247.792114 1245.101745 1251.500244 1243.816833 1252.889282 C1237.406188 1259.818847 1238.705871 1269.519775 1234.325744 1277.053711 C1232.612975 1279.999634 1230.991393 1282.999511 1229.372619 1285.998779 C1226.537658 1291.252075 1222.772033 1296.243530 1224.032531 1302.769897 C1224.765197 1306.563598 1222.836730 1308.956909 1220.194885 1311.203003 C1215.395080 1315.283935 1213.312927 1320.493164 1211.733703 1326.727051 C1208.558898 1339.258789 1205.045715 1352.010864 1199.327819 1363.505859 C1193.636657 1374.946777 1184.985900 1384.900757 1177.803893 1395.621216 C1174.337341 1400.795654 1170.084899 1405.856811 1168.242492 1411.625244 C1163.536315 1426.359497 1153.369689 1436.283081 1141.899352 1445.607300 C1134.295349 1451.788330 1127.055358 1458.473633 1120.108703 1465.391601 C1112.796081 1472.674316 1105.215637 1479.249389 1095.138366 1482.471313 C1093.443664 1483.013183 1091.979186 1484.949341 1090.877868 1486.561889 C1084.535217 1495.847290 1074.541076 1496.846191 1064.735900 1498.357910 C1060.673156 1498.984131 1056.622131 1499.684326 1052.565734 1500.351196 C1048.509460 1501.017944 1044.474792 1501.981689 1040.391540 1502.279907 C1034.676940 1502.697265 1028.835510 1501.489013 1023.642272 1505.470215 C1022.118224 1506.638672 1019.291564 1506.293091 1017.058288 1506.317261 C1009.060851 1506.403686 1001.061706 1506.325683 993.063415 1506.363769 C989.851013 1506.379028 987.090026 1506.613525 983.989074 1508.814819 C981.301330 1510.722900 976.162414 1511.064941 972.900939 1509.891968 C965.741638 1507.316406 959.341857 1508.081543 952.516784 1510.654419 C949.453674 1511.808960 945.828430 1511.640381 942.448058 1511.745239 C937.511291 1511.898071 932.564269 1511.684692 927.623474 1511.756470 C920.054504 1511.866211 912.207702 1513.345093 905.032043 1511.751220 C901.185119 1510.896606 897.378234 1510.298218 893.719909 1510.498047 C879.413513 1511.279053 865.975891 1507.361694 852.447692 1503.759643 C851.268737 1503.445801 849.667541 1502.085815 849.111144 1502.463135 C841.506530 1507.621704 834.286071 1502.826050 828.892761 1499.627563 C814.610900 1491.157470 797.968933 1488.734985 783.805480 1480.375732 C782.224304 1479.442383 780.418884 1478.897827 778.760070 1478.085937 C772.374572 1474.961303 766.831237 1470.113281 758.967468 1470.123657 C756.226501 1470.127197 753.133117 1467.926147 750.801940 1466.002929 C742.272766 1458.966675 733.908996 1452.055664 723.217712 1448.011963 C718.670959 1446.292236 714.664733 1441.388061 711.923278 1436.989746 C704.623107 1425.277466 693.311523 1416.162964 689.176391 1402.460449 C685.731994 1391.046875 679.443420 1381.109497 673.634765 1370.892944 C672.740844 1369.320678 671.513305 1366.526489 672.177490 1365.708862 C676.535217 1360.345093 672.551574 1356.740722 669.724120 1353.214233 C666.689575 1349.429077 666.087890 1345.348999 665.914245 1340.725830 C665.585998 1331.991089 665.221069 1323.186645 663.773498 1314.596191 C663.092407 1310.554443 659.841857 1306.954834 657.801330 1303.130493 C655.502990 1298.822876 652.440673 1295.382812 655.442382 1289.262939 C657.398803 1285.274048 655.134094 1279.203125 654.718505 1274.068237 C654.536926 1271.824829 654.250671 1269.589966 654.011901 1266.351196 M894.011901 1455.351074 C901.267516 1455.017822 909.289245 1456.535400 915.601745 1453.923095 C925.391906 1449.871948 933.976257 1454.809082 943.089904 1454.765747 C949.919250 1454.733154 958.379699 1456.069458 964.876281 1454.545410 C966.447570 1454.176880 968.665222 1453.701172 969.719909 1454.466919 C975.646667 1458.769653 982.398254 1456.055908 988.303283 1455.880371 C998.524474 1455.576782 1008.628845 1452.165039 1018.856262 1450.516357 C1020.784606 1450.205200 1023.058044 1446.828979 1025.172180 1450.351196 C1033.161071 1448.478027 1040.920959 1445.332275 1049.366638 1445.996460 C1052.473083 1439.883301 1059.295593 1440.979736 1064.201476 1438.356567 C1066.108215 1437.336914 1069.366638 1436.734985 1069.747009 1435.330200 C1071.545104 1428.689209 1078.026672 1427.867065 1082.305358 1424.450439 C1085.923278 1421.561523 1090.811828 1420.144287 1094.106262 1416.996094 C1099.980163 1411.382812 1105.170471 1405.036133 1110.472350 1398.846802 C1117.363586 1390.802246 1124.107360 1382.630615 1130.857726 1374.466553 C1132.051452 1373.022827 1133.508361 1371.479004 1133.919738 1369.760132 C1135.856628 1361.667724 1140.337585 1355.071533 1144.770690 1348.183471 C1148.281188 1342.729004 1155.046203 1337.423950 1150.398132 1329.048218 C1149.941955 1328.226196 1151.950134 1325.827026 1153.109558 1324.399536 C1153.766906 1323.590332 1155.865417 1323.298828 1155.886047 1322.723022 C1156.206603 1313.774902 1162.029235 1307.209472 1165.694641 1299.744140 C1168.015075 1295.018188 1171.430114 1290.763672 1173.288879 1285.891357 C1176.588073 1277.243286 1180.214904 1268.444092 1181.471618 1259.397949 C1182.207946 1254.097900 1185.881530 1249.776123 1185.711608 1245.171509 C1185.250060 1232.654785 1190.622985 1221.875000 1193.991638 1210.470825 C1196.100402 1203.331909 1198.816100 1196.241821 1199.789001 1188.934082 C1200.792053 1181.401489 1201.103576 1173.423584 1199.693786 1166.026123 C1198.379943 1159.131592 1199.279846 1152.091186 1196.452453 1145.102661 C1194.250671 1139.660522 1196.011901 1132.615112 1196.011901 1126.282226 C1202.706359 1121.777710 1197.352599 1117.325683 1196.082946 1112.749145 C1195.323303 1110.010986 1196.314391 1105.786499 1194.697448 1104.474121 C1189.783508 1100.485595 1190.121032 1095.559204 1189.912170 1090.259765 C1189.685729 1084.519043 1189.283264 1078.654907 1187.872741 1073.120971 C1185.658508 1064.433594 1183.165710 1055.511352 1177.064147 1048.696899 C1173.370422 1044.571533 1170.299743 1040.328003 1168.006408 1035.376465 C1166.708923 1032.574951 1165.357482 1029.775757 1163.757751 1027.141235 C1156.972717 1015.966919 1144.604186 1008.936523 1140.452819 995.792114 C1131.861633 989.978515 1123.730651 983.247375 1114.536682 978.635681 C1106.910095 974.810241 1098.040099 973.449951 1089.698913 971.075317 C1088.187560 970.645019 1085.534484 969.909973 1085.165222 970.471313 C1082.405700 974.666199 1080.069274 970.814331 1077.662780 970.304992 C1075.558898 969.859619 1073.577575 968.628723 1071.475036 968.419616 C1063.101745 967.586853 1054.542541 967.800903 1046.356750 966.132690 C1038.041320 964.438049 1030.112731 967.752868 1021.956970 966.437378 C1018.708434 965.913391 1015.190002 965.793274 1011.992126 966.451111 C1000.309753 968.854370 988.566955 970.161133 976.633117 970.439636 C966.233459 970.682129 955.764953 971.111816 945.508605 972.661255 C941.911926 973.204651 938.847106 977.312744 935.554992 979.813843 C932.403503 982.207947 935.820983 984.615295 936.337341 986.239990 C938.167663 991.999023 936.818176 996.436645 932.916686 1000.385742 C928.239929 1005.119507 922.360290 1007.528808 915.762267 1007.012207 C906.621398 1006.296631 897.476989 1003.747680 888.660827 1008.630981 C887.070861 1009.511719 885.159362 1010.236206 883.378478 1010.278564 C872.478454 1010.537109 863.021179 1016.000244 852.868713 1018.858276 C846.783874 1020.571167 841.213195 1024.699219 835.898864 1028.434936 C825.557678 1035.704345 813.341369 1040.314941 804.878723 1050.311889 C803.834533 1051.545288 801.498840 1051.661743 799.787048 1052.357910 C794.510192 1054.503784 789.142639 1055.348266 785.403137 1061.346557 C781.810607 1067.109131 775.094787 1070.921264 769.763244 1075.604004 C765.170837 1079.637451 760.213317 1083.339111 756.100768 1087.815429 C749.820129 1094.651733 743.532775 1101.631103 738.398376 1109.317993 C735.039733 1114.346313 729.645202 1118.744873 730.021179 1125.788574 C730.273376 1130.512329 730.307678 1135.078979 725.491638 1137.955078 C724.783630 1138.377807 724.295349 1139.444458 724.042419 1140.311401 C721.177917 1150.130005 718.783508 1160.107300 715.451843 1169.762207 C711.939941 1179.939087 707.653015 1189.856201 703.498535 1199.800659 C701.534973 1204.500854 699.555663 1209.065674 699.979919 1214.358032 C700.758666 1224.072143 701.137634 1233.822265 702.097961 1243.516357 C702.590759 1248.490478 702.869262 1254.001953 705.214416 1258.159424 C709.025634 1264.915893 709.134643 1272.425903 709.528747 1279.236328 C710.128845 1289.607666 713.616943 1299.025635 715.591613 1308.900268 C716.940612 1315.645874 718.941467 1322.285400 719.899474 1329.078247 C720.915222 1336.279663 722.811340 1342.926880 725.772888 1349.680298 C731.335998 1362.366333 739.371154 1373.968994 742.581970 1387.735962 C743.179626 1390.297729 745.479553 1392.645263 747.427795 1394.675293 C753.427062 1400.926513 759.528991 1407.089721 765.821960 1413.042969 C768.071716 1415.171386 770.876891 1417.905761 773.608337 1418.125000 C785.309265 1419.064697 792.870178 1428.071289 802.610290 1432.705688 C807.810485 1435.179931 813.154357 1437.870849 818.500671 1440.291382 C822.139343 1441.938598 826.589782 1442.256958 829.693420 1444.519165 C835.136047 1448.486450 840.036559 1451.356933 847.484191 1451.264648 C854.154724 1451.181885 860.913146 1454.512207 868.014343 1454.385986 C876.344421 1454.237793 884.679138 1454.351196 894.011901 1455.351074 M1214.011901 1175.351196 C1215.345275 1175.341675 1216.680602 1175.355835 1218.004699 1175.240478 C1218.060729 1175.235595 1218.060729 1173.466675 1218.004699 1173.461792 C1216.680602 1173.346557 1215.345275 1173.360595 1214.011901 1175.351196 M1218.011901 1121.351196 C1218.776794 1122.351196 1219.541564 1123.351196 1220.306335 1124.351196 C1220.874938 1123.782715 1221.443420 1123.214233 1222.011901 1122.645630 C1221.011901 1121.880859 1220.011901 1121.115967 1218.011901 1121.351196 z"/><path class="selected"  fill="#000000" opacity="1.000000" stroke="none" 
 	d="
M1046.011901 1330.351196 C1048.365905 1324.997070 1050.756408 1320.661743 1053.026183 1316.264282 C1053.297058 1315.739502 1053.091003 1314.790283 1052.802062 1314.182495 C1050.136901 1308.577514 1053.042053 1303.037109 1055.091125 1298.823364 C1059.441100 1289.878174 1058.257751 1278.793701 1066.011901 1271.344970 C1065.359313 1264.178833 1067.762512 1257.483642 1070.163635 1251.075683 C1075.221984 1237.576294 1074.032165 1223.288574 1076.542297 1209.635742 C1079.456970 1193.782104 1073.478088 1178.697632 1075.782043 1163.197998 C1076.108947 1160.999389 1072.644958 1158.479126 1072.132385 1155.872314 C1069.838195 1144.205688 1064.013244 1133.895386 1059.972717 1122.910400 C1059.445373 1121.476806 1058.618224 1119.329223 1057.535339 1119.051636 C1046.805969 1116.301391 1044.743469 1103.279297 1034.618469 1099.957763 C1031.250183 1092.541382 1026.284362 1085.540649 1028.091125 1076.730591 C1028.383605 1075.304321 1029.677673 1074.059326 1030.590637 1072.789551 C1032.441589 1070.215332 1034.089782 1067.421997 1036.309631 1065.208496 C1038.278381 1063.245239 1040.718078 1061.366455 1043.300720 1060.519775 C1045.706481 1059.730713 1048.864074 1059.601440 1051.182922 1060.496826 C1057.262878 1062.844360 1064.523864 1058.822143 1069.928039 1064.332031 C1076.547058 1071.080566 1083.555847 1077.466430 1089.874450 1084.479004 C1091.989807 1086.826660 1092.990905 1089.895019 1096.108093 1091.822387 C1098.123596 1093.068603 1098.743835 1096.555053 1100.015563 1099.024048 C1101.571594 1102.045044 1103.136779 1105.061401 1104.730651 1108.062500 C1106.471618 1111.340698 1108.628234 1114.454956 1109.938049 1117.894165 C1113.337463 1126.818725 1116.421081 1135.865722 1119.502014 1144.907593 C1120.007018 1146.389648 1120.021301 1148.097900 1119.985168 1149.695434 C1119.766418 1159.363403 1123.195495 1168.739136 1123.544128 1178.033569 C1124.300231 1198.191894 1126.929016 1218.844482 1117.380676 1238.233642 C1114.554748 1243.972290 1113.753723 1250.706177 1112.004455 1256.978393 C1111.673156 1258.166504 1111.457946 1259.458496 1110.828430 1260.480469 C1105.838195 1268.581299 1104.499450 1277.884033 1101.990783 1286.806030 C1101.072448 1290.072021 1100.708312 1293.909790 1098.719299 1296.383056 C1091.929016 1304.826050 1089.005065 1315.118896 1085.007018 1324.733886 C1079.755676 1337.362427 1069.577453 1345.333984 1060.658508 1354.583008 C1057.848449 1357.496948 1054.402648 1357.189697 1051.177429 1354.546631 C1043.747619 1348.458130 1042.199157 1341.693970 1046.011901 1330.351196 z"/><path class="selected"  fill="#000000" opacity="1.000000" stroke="none" 
 	d="
M869.511901 1401.851196 C868.011901 1401.586059 867.011901 1400.820923 866.011901 1400.055664 C867.208923 1399.487427 868.426208 1398.397583 869.599182 1398.443481 C874.112121 1398.619995 870.746765 1400.232422 869.511901 1401.851196 z"/></svg>