<svg id="Lag_1" data-name="Lag 1" xmlns="http://www.w3.org/2000/svg" viewBox="0 0 840.13 182"><defs><style>.cls-1{fill:#010101;}</style></defs><g id="kontakt"><path class="cls-1" d="M437,71.84c-2.15,0-2.36,1.85-2.4,3.07a85.27,85.27,0,0,0,.37,9.85c.32,3.82.84,7.62,1.3,11.43.07.63.37,1.23.39,1.86.11,3.63,0,7.18,1.2,10.79,1.27,3.79,1.15,8.08,2.41,11.88,1.15,3.46,3.32,6.55,5.05,9.8a1.38,1.38,0,0,0,.61.63c2.58.81,5.15,1.61,7.75,2.35,1.44.41,2.45.65,1.53,2.77s-.92,4.57-1.67,6.75c-.47,1.36-1.66,2.43-2.38,3.72a3.82,3.82,0,0,1-4.11,2.19c-1.72-.19-3.47-.06-5.18-.3-3.1-.42-5.16-2.8-7.48-4.63-5-3.9-7.51-9.73-10.18-15.25a36.17,36.17,0,0,1-3.65-14c-.1-1.94-.88-3.84-1.24-5.78-.62-3.36-1.28-6.72-1.72-10.12s-.59-6.83-.9-10.25c-.42-4.72-.82-9.44-1.33-14.15-.14-1.29-.78-2.28-2.38-2-4,.65-7.92,1.16-11.87,1.86-1.37.24-2.66,1-4,1.3-2.72.68-5.46,1.73-8.18,1.69-2.39,0-4.8-1.24-7.13-2.12-4-1.51-7-7.91-5.41-12a8.87,8.87,0,0,1,7.25-5.58c6-1,12-1.93,18-2.7,2.23-.29,4.55.16,6.79-.1,2.41-.29,4.83-.24,6.83-2.59,2.78-3.27,6.85-3.53,10.79-3.17,2.16.2,4.27,1,6.43,1.25,3.34.43,6.7.64,10,.94s6.72.51,10.06.95c1.58.21,3.11,1.22,4.67,1.24,4.21.06,8.43-.11,12.63-.41,4.43-.32,8.76-.25,13,1.29a2.9,2.9,0,0,0,2.58-.89c1.78-2.34,3.39-4.84,4.95-7.35,2.33-3.72,5.94-5.71,9.39-8A21.72,21.72,0,0,1,511.47,34c1.84,0,3.72,1.07,5.57,1.71,4.46,1.54,7.78,5,11.38,7.84,2.32,1.84,3.79,4.89,5.48,7.51,2.89,4.48,4.37,9.57,5.68,14.74,1.51,6,3.19,11.9,4.74,17.86A2.62,2.62,0,0,0,546.94,86c5.4.39,10.82.63,16.15,1.48,1.76.28,3.26,2.26,4.89,3.45a6.32,6.32,0,0,0,.89.47,2.68,2.68,0,0,0,.2-1c-1.43-5.87-2.84-11.75-4.34-17.59-1.39-5.43-2.81-10.85-4.36-16.23A63.45,63.45,0,0,0,557.79,50c-.87-2-1.42-4-.21-6.14.54-1,.61-2.69,1.3-3,2.18-.87,3.87-3.44,6.62-2.42,1.7.63,3.3,1.57,5,2.12a11.06,11.06,0,0,1,7.67,9.64c.1,1.38,0,2.77,0,4.15,0,.52-.16,1.17.08,1.54,2.66,4.17,2.64,9.14,3.8,13.75.82,3.21,1.44,6.47,2.26,9.68,0,.19,1.39.36,1.5.16,2.23-4.06,6.25-6,9.7-8.35a67.83,67.83,0,0,1,13.86-7.66c4.68-1.83,9.31-4.13,14.42-4.72,1.44-.16,2.8-1.13,4.24-1.26a13.09,13.09,0,0,1,10.62,3.86c2.45,2.33,4.39,4.87,4.83,8.34.13,1,.06,2.59-.55,3.14-2.62,2.31-5.22,5-8.31,6.29a26.86,26.86,0,0,0-8.19,5.12c-.94.87-2.25,1.3-3.25,2.13A76,76,0,0,0,615.68,93a121.32,121.32,0,0,0-9,10.8c-1.47,2-.95,2.71,1.28,3.52s4.24,2.34,6.38,2.4c5,.12,8.85,3.78,13.55,4.18,4,.33,7.13,2.54,10.74,3.65,5.93,1.81,11.9,3.53,17.73,5.65s11.44,4.45,15.95,9c.81.82,2.52,1.33,2.62,2.15a33.65,33.65,0,0,1,0,8.27c-.17,1.36-5.35,2.21-7.31,2-4.62-.41-8-3.93-12.41-4.86-3.59-.76-6.8-2.88-10.67-2.77-1.53,0-3.06-1.32-4.64-1.85-2-.66-4.08-1-6.07-1.68s-3.71-1.62-5.63-2.21c-4.19-1.3-8.43-2.45-12.66-3.65-4-1.13-8.06-2.33-12.13-3.33-2-.49-4.76-2.09-5.92.84a19.41,19.41,0,0,0-1.3,8.62c.3,3.18.58,6.35-.74,9.13-.81,1.71-2.79,2.92-4.4,4.12a4.47,4.47,0,0,1-5.54.11,9.37,9.37,0,0,0-2.41-1c-4.71-1.44-6.17-6.23-9.07-9.53-.27-.3-.15-1-.15-1.5,0-4,.22-8.06-.07-12.07-.32-4.44-1.07-8.86-1.68-13.28-.55-4-1.15-7.95-1.73-11.92a3.28,3.28,0,0,0-.15-.85c-.27-.63-.6-1.25-.91-1.87a8.68,8.68,0,0,0-1.08,2.18c-.42,2.37-2.53,2.49-4,3.14a42.92,42.92,0,0,1-8.45,2.72c-2,.41-4.09.09-6.14.07-1.83,0-2.93.63-2.72,2.83.61,6.31,1.13,12.63,1.77,18.93.33,3.3,1.35,6.61,1.12,9.84-.18,2.44.2,5.6-2.27,7.29a14.12,14.12,0,0,1-5.17,2.22c-1.82.37-3.91.54-5.17-1.64-.17-.3-.69-.43-1.08-.52-3-.72-5.19-2.07-5.74-5.6a17.48,17.48,0,0,0-1.78-5.1c-1.76-3.4-.67-6.73-.16-10.12a52.36,52.36,0,0,0,.65-7c0-2.57-.3-5.15-.38-7.73-.09-3.14-.76-3.78-3.67-3.92-3.94-.19-7.87-.67-11.8-.85-3.13-.15-6.27-.07-9.41,0a11,11,0,0,0-3.07.46c-1.78.57-2.34,2-1.91,4,.35,1.6.47,3.26.77,4.87.21,1.1.57,2.17.86,3.25a4.75,4.75,0,0,1,.4,1.62,77.51,77.51,0,0,1-1.33,8.48c-.5,2-5.54,3-8.51,2.7-3.4-.37-5.76-2.41-8-4.51s-4.24-4.94-3.82-8.46c.66-5.54-1.78-9.68-5.18-13.39-2.61-2.86-3.26-6.29-3-10,0-.75.95-1.52,1.6-2.13,1.19-1.11,2.53-2,3.7-3.19a3.48,3.48,0,0,0,1.09-2c.25-3.2.3-6.42.52-9.62,0-.48.58-1,.93-1.39a7.9,7.9,0,0,1,.77-.76,6.83,6.83,0,0,0-1.17-.27q-9.42-.7-18.85-1.36a11.93,11.93,0,0,0-2.39,0c-4.94.58-10-1.31-14.87.44-2.1-1.36-3.51.76-5.38,1.24M523.5,85.31c2.08.29,2.75-.73,2.12-3.22-1.14-4.48-2.32-9-3.41-13.45a36.38,36.38,0,0,0-5.65-12.24c-1.7-2.45-3.81-3.08-6.13-1.21a40.85,40.85,0,0,0-7.73,8.08c-1.79,2.53-2.83,5.69-3.9,8.68-1,2.79-2.05,5.58-1.86,8.73.11,1.84.83,2.5,2.34,2.58,3.56.19,7.12.21,10.66.49C514.4,84.1,518.84,84.63,523.5,85.31Z"/><path class="cls-1" d="M369.05,108.51c2.1,5.36,4,10.64,6.13,15.84.52,1.28,1.76,2.24,2.36,3.51a11.14,11.14,0,0,1,.37,3c.47,3.36,2.82,6.12,2.41,9.87s-1.08,6.73-4.59,8.66a11.1,11.1,0,0,1-10.49.41,2.9,2.9,0,0,1-.88-.49c-4-3.88-8-7.84-12.1-11.66-5.84-5.45-11.79-10.77-17.65-16.19-3.3-3-6.5-6.2-9.79-9.26-1.94-1.81-4.07-3.4-5.89-5.32-2.23-2.36-4.2-5-6.34-7.43q-5.31-6.09-10.73-12.07a9.4,9.4,0,0,0-2.39-1.59.8.8,0,0,0-.73.3c-.24,1-.83,2.31-.49,3.12.87,2,.46,4,.44,6-.07,8.38-.05,16.79.45,25.15.24,4,1.6,7.87,2.53,11.78a3.29,3.29,0,0,0,1.09,1.76,28.54,28.54,0,0,0,5.05,3.12,3.08,3.08,0,0,1,2.06,3.1c0,1.72,0,3.3,1.86,4.21.33.16.46,1.49.22,2.08a28.69,28.69,0,0,1-2.27,4.23c-2.47,3.94-5.79,4.8-10.17,4-7-1.23-10.15-6.58-13.6-12-2.81-4.37-3.09-9.42-4.24-14.25-2-8.25-2-16.68-2.2-25.09q-.23-8.58-.89-17.13c-.23-3-.94-5.91-1.44-8.87,0-.27-.22-.52-.24-.79-.16-3.18-.35-6.37-.4-9.55a4.13,4.13,0,0,1,.69-2.39,23.22,23.22,0,0,0,3.87-7.17c1.24-4,6-5.85,10.49-4.49,1.76.54,3.57.86,5.36,1.26.14,0,.38,0,.42,0,1.35,2.22,4.47,2.39,5.3,5.46.53,1.95,2.19,3.6,3.48,5.27,3.33,4.31,6.75,8.55,10.11,12.84,2.47,3.15,4.89,6.35,7.38,9.48a55,55,0,0,0,4.13,4.74c3.61,3.58,7.33,7,11,10.59.65.64,1.08,1.52,1.71,2.19,2.46,2.62,5,5.18,7.45,7.81,1.13,1.21,2.1,2.58,3.25,3.78a6.54,6.54,0,0,0,1.8.94,7,7,0,0,0-.07-2.11c-1.66-4.57-3.52-9-5.07-13.65-.8-2.39-.93-5-1.61-7.46-1.29-4.56-2.9-9-4.1-13.61-1.08-4.17-1.72-8.46-2.67-12.67-.65-2.86-1.52-5.67-2.24-8.53a9.38,9.38,0,0,1,0-2,23.38,23.38,0,0,0-.06-3.93c-.6-3.39-.38-6.89,1.25-9.62,1-1.65,3.71-2.73,5.78-3,4.17-.54,5.44.67,7.46,4.43,3.05,5.69,3.78,11.89,4.83,18.08.55,3.29,1,6.61,1.87,9.83,1.49,5.67,3.15,11.3,4.9,16.89,1.84,5.91,3.86,11.76,5.8,17.64A7.36,7.36,0,0,0,369.05,108.51Z"/><path class="cls-1" d="M82.82,95a41.12,41.12,0,0,1,4.63-2.78c2.47-1.26,4.94-2.51,7.45-3.67a24,24,0,0,1,4.54-1.66c2.08-.47,2.83-1.94,2.89-3.83.09-3-.75-5.89-1-8.74-.36-3.84-1.83-7.22-2.4-10.89,0-.36.39-.78.36-1.16,0-.21-.72-.59-.76-.54-.9,1-1.21.63-1.37-.53a34.33,34.33,0,0,0-.9-5.27c-1-3.28.2-5.87,1.65-8.68,1.38-2.66,4.56-2.36,6-4.68.17-.27,1.3.09,2,.22.87.17,1.84.78,2.56.54,4.24-1.42,6.74,2.7,10.29,3.4.39.07.85.83,1,1.34.62,3,2.59,5.59,1.45,9.06-.57,1.73.41,3.95.2,5.89-.42,4,1.57,7.74.58,11.73-.4,1.64.23,2.43,2,1.71,4.8-1.94,9.65-3.77,14.45-5.7,3.43-1.38,6.86-2.77,10.23-4.31a15,15,0,0,0,4.86-2.95,15.61,15.61,0,0,1,7.42-4.35,7.68,7.68,0,0,1,3.59.12c4.33.92,8.37,2.51,11.11,6.42,1.89,2.7,1.29,6.71-1.21,9.22a6.16,6.16,0,0,0-.83,1.44,4.58,4.58,0,0,1-4.36,2.75,11.75,11.75,0,0,0-7.89,2.61,6.77,6.77,0,0,1-2,1c-3.25,1-6.56,1.67-9.75,2.79-2.21.77-4.19,2.22-6.38,3.06s-4.47,1.1-6.63,1.9c-3.71,1.38-7.36,3-11,4.54a2.17,2.17,0,0,0-1,1.53,29,29,0,0,0,0,5,2.46,2.46,0,0,0,1.2,1.69,14,14,0,0,0,5,1.57,27.2,27.2,0,0,1,7.5,1.42c3.51,1,7.09,1.81,10.63,2.76,4.9,1.32,9.8,2.62,14.65,4.11,1.84.57,3.48,1.8,5.3,2.49,6,2.26,9.5,6.93,11.83,12.82a1.6,1.6,0,0,1,.18.77,7.59,7.59,0,0,1-7.41,6.06c-2.64,0-5.33.19-7.7-1.38-.71-.47-1.23-1.24-1.92-1.73A37.52,37.52,0,0,0,146,125.77a81.78,81.78,0,0,1-8.36-1.87,7.94,7.94,0,0,0-2.25-.32,12,12,0,0,1-6.84-1.41c-2.28-1.25-3.11-.61-3.19,1.92,0,1.9-.56,3.84-.35,5.69.43,3.82,1.24,7.6,1.84,11.4a15.64,15.64,0,0,1,0,2.74c0,.57-.33,1.2-.18,1.71.45,1.57.68,3.16-.5,4.39-2.25,2.35-4.13,5.4-7.72,5.6-1,.06-2.17-.67-3.19-1.18-.73-.37-1.38-1.42-2-1.38-3.68.24-4.52-2.93-6.16-5.2-1.8-2.51-1.92-5.17-1.43-8.17a38.41,38.41,0,0,0,.13-7.2c-.06-2.2-.29-4.4-.42-6.6-.16-2.73-.15-5.48-.52-8.17-.11-.85-1.17-2.15-1.87-2.21-4.36-.34-7.82-3-11.64-4.64a15,15,0,0,1-6-5.4c-.34-.48-.88-1.15-1.33-1.14-2.44,0-2.28-1.69-2.1-3.33C82.18,99.08,82.53,97.18,82.82,95Z"/><path class="cls-1" d="M233.15,143.59a32.28,32.28,0,0,1-19.59,2.63c-1.6-.28-3.35.12-4.86-.38-3.17-1.05-6.21-2.56-9.35-3.74s-5.29-4.08-8-6.08a24.47,24.47,0,0,1-3.31-2.58,21.84,21.84,0,0,1-5.47-10.53c-.45-2-.86-4.06-1.41-6a18.29,18.29,0,0,1-.21-8.31,95.34,95.34,0,0,1,2.65-12.87,59.22,59.22,0,0,1,5.22-12.43c3.14-5.35,7-10.22,12.2-13.7a11.64,11.64,0,0,0,2.78-3.26c2.22-3.31,5.77-4.36,9-5.68,6.82-2.76,13.71-2.07,20.6.09,1.78.56,3.83.12,5.64.59,5.65,1.47,10.44,4.68,15.32,7.94,3.27,2.18,5.46,5.2,8,7.92,1.55,1.65,2.26,4.24,3.12,6.51s1.38,4.53,2,6.81c1.95,6.75,3,13.65.95,20.49a21.81,21.81,0,0,1-8,11.67,5.69,5.69,0,0,0-1.08,1.11,52.26,52.26,0,0,1-11.45,11c-3.17,2.13-6.5,4-9.79,5.94-1.63,1-3.32,1.82-5.1,2.84M205,125.37a32.84,32.84,0,0,0,4.88,3.56c4.31,2.11,8.91,1.15,13-.27a55.76,55.76,0,0,0,12.67-6.79c4-2.7,8-5.58,10.83-9.8a39.9,39.9,0,0,0,3.49-5.51c2.9-6.43,2.73-12.63-1.21-18.75-3.46-5.39-7.53-9.71-13.74-11.32-1.07-.28-2.16-.46-3.24-.69A15.61,15.61,0,0,0,233.62,79c1.42,1.47,1.16,3.22,1.15,4.95s.49,3.52-1.65,4.49a4.07,4.07,0,0,0-2.1,2.2c-.69,2.56-2.62,2.67-4.39,2.48a40.45,40.45,0,0,1-7.56-1.69A4.53,4.53,0,0,1,217,89.34c-1.58-2.82-4.65-5.17-7.52-1.63-2.11,2.61-4.33,5.14-5.11,8.65a29.57,29.57,0,0,1-1.65,4.71c-2.39,5.72-2.36,11.75-2.21,17.8a2.6,2.6,0,0,0,.5,1.36C202.25,121.89,203.55,123.51,205,125.37Z"/><path class="cls-1" d="M701.51,82.36c-.58-1.63-1.31-3-1.7-4.46-.49-1.83-1.69-2.83-3.28-2.72-4.12.28-8.25.71-12.34,1.34-3.28.52-6.5,1.48-9.77,2.13a5.92,5.92,0,0,1-3.26,0c-.9-.4-1.46-1.61-2.24-2.39a18.11,18.11,0,0,0-1.8-1.45c-2.52-2-3.74-4.94-5.21-7.71-.16-.3-.41-.72-.32-1,1.22-3.27,2-6.79,6-8,3.19-1,6.19-2.21,9.63-1.2,1.11.33,2.46-.24,3.7-.37a2.61,2.61,0,0,1,1.08,0c4.84,1.54,8.63-1.31,12.74-3.12,2.73-1.21,5.74-.86,8.63-.18,3.23.76,6.44,1.69,9.69,2.34a36.79,36.79,0,0,0,7.45.88c3.28,0,6.56-.79,9.83-.77a69,69,0,0,1,8.91,1,15.09,15.09,0,0,1,3.79.83c1.85.8,3.56,2,5.39,2.81a6.46,6.46,0,0,0,3.94.86c2.76-.4,5.66.39,8.47.24a53.31,53.31,0,0,0,10.32-1.33c5.77-1.46,9,.42,11.7,5.94,2,4.16.06,8-4.27,9.51-2.34.84-4.58,2.17-7,2.59s-5.22,0-7.84,0c-1.85,0-3.7.07-5.54,0-1.1,0-2.18-.33-3.28-.38-3.8-.18-7.59-.36-11.39-.45-3-.07-6,0-9,0-2.34,0-4.69.12-7,0s-4.52-.63-6.78-.92c-.53-.07-1.4-.21-1.56.06a2.45,2.45,0,0,0-.1,1.78c.76,2.68,1.69,5.31,2.42,8,1.9,7,3.81,14,5.58,21.12a151.57,151.57,0,0,1,3.25,14.87c.93,6.41,4,12.34,3.74,19-.1,2.87-1,4.69-3.76,6.05-5.58,2.71-9.19-.38-12.75-4.7-2.52-3.06-2.62-7-3.48-10.71-1-4.38-2.41-8.72-3-13.17-1.11-8.83-4-17.19-5.82-25.81C704.56,89.36,702.81,86,701.51,82.36Z"/><path class="cls-1" d="M370.13,100.36c-.33-.24-.74-.6-.71-.93a2.33,2.33,0,0,1,.68-1.19,1.83,1.83,0,0,1,.79.45A8.26,8.26,0,0,1,370.13,100.36Z"/><path class="cls-1" d="M725.06,51.92a2.42,2.42,0,0,1,.76-1.2c.12-.08.57.33.87.51A7,7,0,0,1,725.06,51.92Z"/></g></svg>