<?xml version="1.0" encoding="utf-8"?><!DOCTYPE svg PUBLIC "-//W3C//DTD SVG 1.1//EN" "http://www.w3.org/Graphics/SVG/1.1/DTD/svg11.dtd"><svg version="1.1" id="Contours" xmlns="http://www.w3.org/2000/svg" xmlns:xlink="http://www.w3.org/1999/xlink" x="0px" y="0px" width="1722.148804px" height="1722.148804px" viewBox="0.000000 -0.000001 1722.148804 459.704956" enable-background="new 0 0 1722.148804 1722.148804" xml:space="preserve" stroke="black" fill="none" stroke-linecap='round' stroke-linejoin='round'><path class="selected"  fill="#000000" opacity="1.000000" stroke="none" 
 	d="
M0.000000 154.014710 C6.360418 157.058198 6.303890 162.869355 6.023437 168.849671 C5.774704 174.153565 7.904063 180.327698 0.250000 182.764710 C0.000000 173.264710 0.000000 163.764710 0.000000 154.014710 z"/><path class="selected"  fill="#000000" opacity="1.000000" stroke="none" 
 	d="
M923.750000 83.514710 C918.800903 83.536500 918.307007 87.606324 918.222168 90.305298 C917.994690 97.544404 918.431763 104.833710 919.064331 112.062867 C919.802490 120.499390 921.006714 128.895905 922.061584 137.303193 C922.235474 138.688904 922.916382 140.032929 922.961121 141.409272 C923.221802 149.428254 922.918701 157.276490 925.717163 165.261597 C928.648865 173.626801 928.382996 183.107972 931.280090 191.491303 C933.922791 199.138276 938.918457 205.974366 942.914734 213.146790 C943.226807 213.706910 943.757446 214.362000 944.319946 214.532349 C950.249268 216.328003 956.186462 218.104767 962.162415 219.736817 C965.475525 220.641633 967.802429 221.159638 965.698730 225.850556 C963.630554 230.462372 963.581177 235.942994 961.848694 240.755372 C960.766174 243.762452 958.014587 246.126191 956.359985 248.980408 C954.182495 252.736634 951.211670 254.267701 946.887329 253.813935 C942.930908 253.398774 938.894836 253.672883 934.958069 253.154877 C927.832275 252.217255 923.080566 246.956605 917.724976 242.928956 C906.255188 234.303193 900.438660 221.426087 894.277588 209.230713 C889.477173 199.728882 886.434570 189.207734 885.872375 178.195160 C885.653259 173.903382 883.862976 169.711457 883.030396 165.427033 C881.587524 158.001526 880.071716 150.574189 879.073425 143.082764 C878.072510 135.571045 877.696594 127.977234 876.992737 120.424408 C876.021729 110.003846 875.109253 99.575623 873.928894 89.178223 C873.604309 86.319550 872.133057 84.139435 868.436035 84.727540 C859.340820 86.174470 850.192444 87.295929 841.114685 88.838379 C837.950745 89.376038 834.981079 90.973664 831.835571 91.720551 C825.590820 93.203339 819.270203 95.524079 813.009827 95.436280 C807.504578 95.359101 801.951843 92.708985 796.574768 90.766755 C787.302063 87.417328 780.452942 73.281800 784.126038 64.161423 C787.023193 56.967545 793.270935 53.034546 800.811829 51.825379 C814.614197 49.612198 828.451111 47.568406 842.324219 45.866715 C847.470032 45.235535 852.810303 46.224656 857.967224 45.639924 C863.517090 45.010651 869.095398 45.118485 873.688049 39.939469 C880.105774 32.702332 889.463196 32.129944 898.556030 32.926240 C903.531006 33.361924 908.382385 35.090424 913.355286 35.694260 C921.045837 36.628098 928.792603 37.098038 936.515564 37.764710 C944.238464 38.431367 951.988220 38.886078 959.672607 39.857209 C963.325989 40.318909 966.845154 42.566086 970.442200 42.610184 C980.130737 42.728913 989.846741 42.360993 999.517639 41.692673 C1009.719360 40.987702 1019.695740 41.154130 1029.523438 44.553422 C1031.134888 45.110840 1034.317383 43.981537 1035.445312 42.570084 C1039.566406 37.412781 1043.257935 31.892533 1046.864746 26.348572 C1052.212402 18.128556 1060.533447 13.724518 1068.474243 8.697053 C1076.726685 3.472260 1085.651489 0.163605 1095.287354 0.001542 C1099.544189 -0.070037 1103.865234 2.367875 1108.120605 3.777360 C1118.392090 7.179505 1126.041748 14.820557 1134.333130 21.114441 C1139.668457 25.164475 1143.060059 31.909424 1146.953613 37.694901 C1153.614136 47.591416 1157.027222 58.839936 1160.042603 70.263276 C1163.525635 83.457917 1167.385132 96.552826 1170.963135 109.723084 C1171.843140 112.962189 1173.499756 114.578583 1176.993774 114.819947 C1189.421143 115.678467 1201.919312 116.201020 1214.201416 118.084534 C1218.247437 118.704987 1221.710449 123.080506 1225.463135 125.705811 C1226.085693 126.141388 1226.827759 126.406373 1227.514526 126.750184 C1227.676392 125.983979 1228.129395 125.144257 1227.957153 124.462403 C1224.682007 111.496735 1221.427002 98.524567 1217.972656 85.606019 C1214.767944 73.620575 1211.506104 61.644364 1207.917969 49.770249 C1206.411133 44.783692 1204.088867 40.031052 1201.974121 35.244187 C1199.987061 30.746811 1198.721924 26.383179 1201.506348 21.677887 C1202.748413 19.579163 1202.904541 15.741776 1204.484009 15.141450 C1209.508789 13.231736 1213.405640 7.552582 1219.750244 9.802918 C1223.662598 11.190583 1227.346680 13.261750 1231.300537 14.485215 C1241.048096 17.501587 1248.169556 25.782532 1248.962769 35.777497 C1249.203857 38.815186 1248.988647 41.888215 1249.005859 44.944932 C1249.012329 46.094101 1248.650391 47.532410 1249.193726 48.347565 C1255.335693 57.561890 1255.269775 68.542496 1257.960083 78.723237 C1259.833008 85.810792 1261.273682 93.012604 1263.146973 100.100037 C1263.260254 100.528443 1266.358521 100.893220 1266.611328 100.452424 C1271.748535 91.493561 1281.002686 87.297638 1288.951538 82.003022 C1298.944092 75.347291 1309.668579 69.293961 1320.869019 65.090653 C1331.658569 61.041565 1342.314331 55.965638 1354.089600 54.667878 C1357.411377 54.301789 1360.552246 52.166764 1363.866089 51.878678 C1373.180176 51.068986 1381.250488 53.976059 1388.314453 60.412232 C1393.954102 65.550660 1398.421021 71.159913 1399.437622 78.825882 C1399.739990 81.105683 1399.590820 84.563843 1398.184570 85.757691 C1392.151367 90.879670 1386.150757 96.787537 1379.029541 99.669434 C1371.938843 102.538971 1365.772949 105.954560 1360.174927 110.963929 C1358.007690 112.903168 1354.981567 113.854065 1352.675903 115.672669 C1346.754272 120.343445 1340.566162 124.806183 1335.314331 130.165162 C1327.932983 137.697053 1320.956787 145.696137 1314.490112 154.025544 C1311.120483 158.365998 1312.316406 160.005524 1317.458008 161.798218 C1322.400146 163.521363 1327.210693 166.985596 1332.141113 167.104218 C1343.608887 167.380127 1352.533203 175.466828 1363.343994 176.332886 C1372.476196 177.064545 1379.779907 181.956696 1388.089600 184.397370 C1401.744995 188.408143 1415.488403 192.200501 1428.914917 196.886628 C1442.166138 201.511567 1455.275391 206.725617 1465.655273 216.846192 C1467.526245 218.670350 1471.474976 219.800263 1471.707153 221.605469 C1472.480835 227.619568 1472.543213 233.864777 1471.770630 239.879151 C1471.385376 242.877137 1459.454712 244.750214 1454.937378 244.363221 C1444.298218 243.451905 1436.416626 235.672852 1426.342407 233.629731 C1418.082275 231.954590 1410.682251 227.263733 1401.763794 227.508301 C1398.248657 227.604706 1394.732422 224.583527 1391.076782 223.423096 C1386.489014 221.966736 1381.693237 221.165497 1377.106323 219.706635 C1372.711792 218.308869 1368.557983 216.133454 1364.142578 214.825745 C1354.473389 211.961976 1344.712769 209.405366 1334.976074 206.772187 C1325.680298 204.258271 1316.414673 201.605866 1307.042725 199.411622 C1302.346924 198.312165 1296.082642 194.777283 1293.405518 201.270875 C1291.005127 207.093537 1289.791260 214.065400 1290.408569 220.297059 C1291.105957 227.338288 1291.751343 234.330628 1288.707397 240.468171 C1286.826660 244.260315 1282.283081 246.913910 1278.568481 249.565247 C1274.570068 252.419098 1270.188965 252.632783 1265.799683 249.815857 C1264.144897 248.753907 1262.164673 248.112977 1260.253052 247.551789 C1249.416992 244.370698 1246.052246 233.773560 1239.360474 226.495392 C1238.754639 225.836487 1239.015869 224.305573 1239.012939 223.179230 C1238.989624 214.289826 1239.517700 205.361908 1238.861694 196.521119 C1238.132568 186.696442 1236.385132 176.943726 1234.984619 167.173523 C1233.724365 158.383088 1232.333740 149.611329 1230.999023 140.831605 C1230.903931 140.206208 1230.920410 139.526795 1230.669434 138.969483 C1230.036011 137.562714 1229.279907 136.211213 1228.572876 134.837586 C1227.715210 136.433503 1226.400635 137.944489 1226.085205 139.641236 C1225.110107 144.884125 1220.250488 145.153351 1216.843994 146.586518 C1210.603149 149.212128 1204.010986 151.266236 1197.372192 152.591096 C1192.829834 153.497651 1187.960205 152.790375 1183.237061 152.757050 C1179.020020 152.727295 1176.480469 154.148255 1176.971802 158.993775 C1178.385132 172.931672 1179.567505 186.893464 1181.040649 200.824677 C1181.810181 208.100617 1184.160156 215.419800 1183.620605 222.554993 C1183.213745 227.938538 1184.076416 234.934662 1178.391113 238.667908 C1174.850098 240.993195 1170.642700 242.787812 1166.497925 243.574494 C1162.298462 244.371583 1157.487061 244.752228 1154.574341 239.938202 C1154.180664 239.287629 1152.984863 238.994538 1152.101562 238.788300 C1145.307617 237.202149 1140.141479 234.214661 1138.869507 226.416230 C1138.236450 222.533967 1136.646240 218.652924 1134.765381 215.161011 C1130.721558 207.653168 1133.238892 200.297394 1134.399292 192.805970 C1135.185791 187.728974 1135.835693 182.581147 1135.905884 177.456238 C1135.983765 171.767273 1135.207031 166.072236 1135.032349 160.372773 C1134.819702 153.431153 1133.281372 152.014771 1126.563354 151.703492 C1117.495850 151.283295 1108.457275 150.229310 1099.389404 149.828858 C1092.180420 149.510529 1084.944824 149.684083 1077.724121 149.810639 C1075.357300 149.852082 1072.909058 150.136078 1070.658081 150.829011 C1066.557373 152.091309 1065.250488 155.288971 1066.239502 159.566773 C1067.057495 163.106232 1067.327759 166.768952 1068.035278 170.338471 C1068.516357 172.765503 1069.333252 175.125947 1070.000000 177.516144 C1070.333252 178.711274 1071.084595 179.963318 1070.930542 181.092011 C1070.075195 187.363404 1069.419922 193.712006 1067.860840 199.820984 C1066.711182 204.325135 1055.091797 206.492035 1048.255371 205.782502 C1040.432861 204.970673 1034.989380 200.474122 1029.903076 195.818116 C1024.704102 191.058808 1020.130615 184.910431 1021.099548 177.134278 C1022.623718 164.901520 1017.005676 155.752320 1009.180969 147.550416 C1003.157471 141.236634 1001.658875 133.658204 1002.169006 125.509461 C1002.272400 123.858246 1004.366089 122.145295 1005.853943 120.807618 C1008.593689 118.344330 1011.690674 116.273285 1014.382019 113.763489 C1015.576599 112.649567 1016.768250 110.916596 1016.893555 109.377686 C1017.468750 102.312470 1017.580261 95.210267 1018.092102 88.138276 C1018.169922 87.063141 1019.432983 86.041260 1020.230835 85.062439 C1020.741638 84.435669 1021.404968 83.933228 1022.000000 83.375062 C1021.105957 83.171631 1020.220459 82.846894 1019.316528 82.782837 C1004.843811 81.757142 990.369629 80.751404 975.893066 79.781434 C974.068115 79.659165 972.207764 79.587327 970.398132 79.793641 C959.003723 81.092652 947.456421 76.905640 936.141602 80.764710 C931.305420 77.766129 928.053162 82.460328 923.750000 83.514710 M1123.000000 113.264710 C1127.793457 113.920502 1129.348755 111.667115 1127.887451 106.154297 C1125.263550 96.255463 1122.535400 86.383088 1120.026489 76.455277 C1117.519409 66.534943 1112.966553 57.591721 1107.021240 49.397828 C1103.103149 43.997605 1098.249146 42.611054 1092.895386 46.733735 C1086.270264 51.835480 1080.041504 57.883484 1075.088623 64.591187 C1070.972656 70.165543 1068.570312 77.144532 1066.110718 83.762147 C1063.822632 89.918183 1061.380737 96.074311 1061.829956 103.049378 C1062.090942 107.102997 1063.744751 108.563935 1067.227783 108.739441 C1075.408936 109.151642 1083.613281 109.209687 1091.777588 109.820710 C1102.034302 110.588257 1112.260620 111.764710 1123.000000 113.264710 z"/><path class="selected"  fill="#000000" opacity="1.000000" stroke="none" 
 	d="
M767.250000 164.514710 C772.095886 176.360627 776.547119 188.017518 781.390320 199.509186 C782.588135 202.351227 785.438416 204.470826 786.812073 207.273865 C787.741150 209.169709 787.339966 211.691437 787.665161 213.913971 C788.752136 221.342499 794.165039 227.427613 793.226624 235.725434 C792.300415 243.915284 790.738892 250.579590 782.638062 254.849457 C774.467590 259.155976 766.677368 259.218415 758.489929 255.757233 C757.780396 255.457276 756.995972 255.181061 756.447876 254.675446 C747.153503 246.099549 738.015625 237.349732 728.591614 228.919556 C715.139526 216.886017 701.439941 205.129578 687.930603 193.159485 C680.335388 186.429688 672.954834 179.458222 665.391357 172.691987 C660.928467 168.699433 656.011292 165.177735 651.814453 160.934022 C646.676331 155.738617 642.158020 149.936463 637.228210 144.527436 C629.065491 135.571198 620.845642 126.664826 612.504700 117.875153 C611.042053 116.333832 608.906067 115.398560 606.989807 114.350159 C606.637451 114.157349 605.414062 114.663941 605.326111 115.025879 C604.769226 117.318787 603.406494 120.109711 604.198792 121.900422 C606.196045 126.414216 605.237732 130.687501 605.200867 135.246918 C605.051147 153.771058 605.095886 172.337006 606.249390 190.813843 C606.796448 199.575806 609.930359 208.189210 612.068726 216.826264 C612.424744 218.264161 613.395508 219.905060 614.584412 220.715699 C618.308167 223.254670 622.075256 225.920563 626.203796 227.616517 C629.646973 229.030915 630.902649 231.281342 630.942505 234.458314 C630.990173 238.270691 630.982239 241.761628 635.234497 243.760651 C636.000366 244.120698 636.289551 247.066315 635.732727 248.359131 C634.329773 251.617158 632.473328 254.714753 630.521240 257.694977 C624.817932 266.402131 617.187195 268.305085 607.090698 266.603699 C591.045959 263.899933 583.723328 252.079194 575.755493 240.184022 C569.292969 230.536194 568.657166 219.370575 565.998413 208.701264 C561.458740 190.483796 561.466125 171.868256 560.940735 153.275361 C560.584106 140.652619 559.925110 128.024537 558.894165 115.440400 C558.355347 108.863251 556.729004 102.374512 555.571289 95.849824 C555.464539 95.248139 555.052673 94.682831 555.021606 94.088166 C554.654663 87.061554 554.212524 80.034730 554.084595 73.002610 C554.052368 71.233628 554.615173 69.094391 555.679504 67.729691 C559.466797 62.873520 562.652527 57.914795 564.595764 51.879166 C567.452759 43.005753 578.492920 38.959748 588.762695 41.970566 C592.804199 43.155457 596.989075 43.852662 601.112244 44.755539 C601.430298 44.825196 601.984863 44.633195 602.080078 44.783768 C605.184937 49.692917 612.365417 50.058518 614.286987 56.858231 C615.500610 61.152939 619.322388 64.805146 622.290222 68.491181 C629.962830 78.020478 637.833008 87.390442 645.581177 96.859345 C651.275635 103.818421 656.836670 110.887513 662.585205 117.801117 C665.595703 121.421753 668.677673 125.028077 672.083984 128.265656 C680.404541 136.174103 688.964661 143.829896 697.347656 151.673615 C698.851929 153.081086 699.839172 155.029511 701.289368 156.508271 C706.966980 162.297730 712.785828 167.948975 718.445557 173.755555 C721.054871 176.432557 723.301880 179.466370 725.950867 182.099244 C726.990784 183.132874 728.680786 183.512543 730.074707 184.190003 C730.049744 182.622559 730.454590 180.891877 729.931213 179.513733 C726.104614 169.436890 721.806885 159.530243 718.254761 149.361359 C716.410645 144.082154 716.111145 138.282075 714.531128 132.888001 C711.578430 122.808167 707.847900 112.948365 705.104309 102.817383 C702.611511 93.612855 701.142151 84.136231 698.950623 74.843445 C697.456665 68.508454 695.433655 62.299805 693.793701 55.996522 C693.433594 54.612336 693.683533 53.066666 693.671753 51.595185 C693.648560 48.692948 694.063660 45.711594 693.541443 42.903565 C692.150757 35.424500 692.646484 27.694855 696.420715 21.652710 C698.693115 18.014985 704.955811 15.634705 709.716675 15.046143 C719.328247 13.857941 722.262573 16.545212 726.905823 24.848374 C733.932617 37.413666 735.605591 51.113343 738.023315 64.777482 C739.309448 72.046555 740.404480 79.391251 742.349121 86.492768 C745.780457 99.023377 749.603516 111.456544 753.619690 123.814454 C757.862305 136.869019 762.526917 149.786377 766.980591 162.772767 C767.133850 163.219758 767.000000 163.765168 767.250000 164.514710 z"/><path class="selected"  fill="#000000" opacity="1.000000" stroke="none" 
 	d="
M108.000000 134.764710 C111.551949 132.379426 115.059235 130.403290 118.666115 128.629731 C124.337494 125.841034 130.023621 123.069886 135.806000 120.524079 C139.183167 119.037201 142.679703 117.636353 146.265961 116.854828 C151.060059 115.810059 152.784821 112.557465 152.922348 108.381135 C153.138123 101.828553 151.206726 95.377869 150.585785 89.070893 C149.752548 80.607621 146.366104 73.124085 145.061508 65.021088 C144.934677 64.233338 145.940659 63.290848 145.890152 62.452149 C145.862854 61.998902 144.227783 61.166184 144.138443 61.262848 C142.063034 63.508576 141.346817 62.650437 140.974838 60.107041 C140.403870 56.202973 140.102539 52.183182 138.907288 48.462922 C136.574966 41.203522 139.367432 35.481553 142.709946 29.278199 C145.874435 23.405243 153.201080 24.064652 156.594025 18.936280 C156.983475 18.347642 159.586639 19.135529 161.137238 19.425217 C163.131058 19.797700 165.370377 21.158845 167.032501 20.625321 C176.798325 17.490708 182.543045 26.584412 190.723267 28.124528 C191.635025 28.296189 192.679443 29.958283 192.928894 31.090745 C194.374985 37.655625 198.906326 43.444016 196.279602 51.097596 C194.965790 54.925644 197.220322 59.830811 196.739883 64.123337 C195.760223 72.876267 200.352432 81.216309 198.083862 90.033417 C197.150497 93.661164 198.596893 95.404999 202.725800 93.803864 C213.784500 89.515534 224.942932 85.484833 236.011642 81.221711 C243.913315 78.178376 251.808945 75.095444 259.559570 71.693650 C263.516388 69.956986 267.887817 68.186661 270.761505 65.179413 C275.616394 60.098893 281.480530 57.382203 287.863342 55.575348 C290.397980 54.857850 293.437347 55.285233 296.116669 55.830933 C306.099060 57.863999 315.401489 61.379700 321.702423 70.017838 C326.057526 75.988358 324.684296 84.842042 318.937897 90.391480 C318.074463 91.225312 317.605011 92.481904 317.005463 93.571595 C314.826355 97.532197 311.284546 99.899445 306.983826 99.633423 C300.026184 99.203034 294.284058 101.600648 288.808197 105.409333 C287.425629 106.370972 285.882019 107.265626 284.278931 107.717469 C276.804962 109.824097 269.166687 111.415070 261.820679 113.885071 C256.743866 115.592042 252.184433 118.802338 247.142761 120.659241 C242.207413 122.476990 236.826950 123.075013 231.868561 124.843873 C223.316467 127.894837 214.906830 131.358979 206.529465 134.869385 C205.411407 135.337891 204.209793 137.038971 204.115921 138.252015 C203.830826 141.936158 203.823563 145.688386 204.232910 149.355500 C204.385208 150.719758 205.727310 152.560212 206.982666 153.077637 C210.684265 154.603303 214.604462 156.510651 218.456436 156.549500 C224.504227 156.610535 230.043457 158.064484 235.731766 159.687043 C243.815140 161.992798 252.072998 163.678956 260.216034 165.785462 C271.493439 168.702759 282.792603 171.564637 293.959167 174.866944 C298.198212 176.120514 301.984161 178.835999 306.168640 180.356934 C319.939331 185.362244 328.044861 195.676697 333.409851 208.687287 C333.632416 209.227082 333.948303 209.868958 333.840271 210.383423 C332.212463 218.136048 324.990692 223.775788 316.759827 223.761048 C310.677399 223.750123 304.482422 224.190705 299.030029 220.724579 C297.401520 219.689271 296.200836 217.992280 294.595032 216.908204 C282.161621 208.514496 268.353424 204.236512 253.479187 202.642640 C246.990982 201.947419 240.651199 199.894166 234.231079 198.517975 C232.525314 198.152283 230.750610 197.703553 229.043930 197.821045 C223.484604 198.203797 218.340775 197.338898 213.303436 194.696625 C208.057556 191.944977 206.138763 193.353547 205.960587 198.942078 C205.826645 203.143220 204.654449 207.413666 205.141785 211.510834 C206.146118 219.954743 208.009705 228.293824 209.383163 236.698334 C209.705460 238.670441 209.551620 240.733460 209.488770 242.750641 C209.449295 244.017060 208.748032 245.401612 209.078537 246.515046 C210.111130 249.993928 210.652176 253.507203 207.924713 256.231537 C202.746552 261.403718 198.411972 268.153077 190.141632 268.605225 C187.741135 268.736481 185.156860 267.115082 182.805176 265.987671 C181.121170 265.180390 179.620361 262.840119 178.147751 262.932679 C169.678101 263.464997 167.741806 256.474762 163.967590 251.449280 C159.811035 245.914704 159.531815 240.023346 160.668365 233.401215 C161.555222 228.234040 161.094238 222.806000 160.956116 217.501038 C160.829391 212.634278 160.302872 207.779023 160.007736 202.915314 C159.642075 196.889344 159.657867 190.813599 158.808304 184.859314 C158.542862 182.998902 156.109970 180.118622 154.496033 179.996583 C144.455276 179.237580 136.472961 173.463624 127.678894 169.728058 C121.871437 167.261200 117.655128 162.818299 113.962982 157.806672 C113.180313 156.744294 111.923195 155.275391 110.889931 155.279633 C105.284691 155.302613 105.648628 151.545044 106.046371 147.943055 C106.515259 143.696808 107.333328 139.489106 108.000000 134.764710 z"/><path class="selected"  fill="#000000" opacity="1.000000" stroke="none" 
 	d="
M454.250000 242.014710 C439.584167 248.514405 424.660583 250.425751 409.118347 247.825654 C405.440125 247.210297 401.399506 248.097260 397.936218 246.998688 C390.617249 244.677094 383.632294 241.325654 376.392914 238.723450 C368.906433 236.032441 364.209503 229.704560 358.048676 225.301819 C355.468445 223.457917 352.644257 221.832062 350.446350 219.599671 C344.040863 213.093720 339.924316 205.375794 337.827057 196.340333 C336.801819 191.923432 335.861298 187.370240 334.598785 183.170075 C332.683136 176.796784 333.064545 170.857667 334.097260 164.817658 C335.732269 155.255066 337.244202 145.556763 340.209381 136.368043 C343.267090 126.892426 347.054504 117.378754 352.228058 108.925477 C359.460480 97.108124 368.305603 86.343903 380.325714 78.654099 C382.940125 76.981553 384.898651 74.075486 386.741333 71.444809 C391.850098 64.151352 400.023224 61.820008 407.562012 58.899094 C423.269958 52.813050 439.145599 54.334473 455.015503 59.108674 C459.103577 60.338486 463.825531 59.361832 468.005096 60.405137 C481.018097 63.653504 492.042969 70.756669 503.288544 77.940339 C510.824280 82.754212 515.851746 89.441651 521.724182 95.437745 C525.302673 99.091645 526.944092 104.814728 528.916260 109.820832 C530.837280 114.697022 532.090393 119.838044 533.603516 124.872834 C538.085205 139.785889 540.614746 155.031830 535.788940 170.134339 C532.516418 180.375702 526.665039 189.550294 517.393982 195.910492 C516.448669 196.559052 515.655334 197.475403 514.915344 198.369996 C507.230255 207.660828 498.660156 216.050232 488.535675 222.612488 C481.248077 227.335999 473.566193 231.457947 466.000000 235.741944 C462.236450 237.872834 458.337646 239.764741 454.250000 242.014710 M389.500000 201.764710 C393.225403 204.431367 396.656097 207.726075 400.734680 209.640137 C410.663483 214.299653 421.266357 212.176850 430.724426 209.040772 C441.000183 205.633606 450.741150 199.970856 459.908600 194.043915 C469.140808 188.075043 478.383057 181.701264 484.859802 172.385956 C487.636444 168.392457 490.854034 164.578064 492.896454 160.224946 C499.562622 146.017060 499.174774 132.308869 490.116547 118.789216 C482.148102 106.896088 472.768280 97.350586 458.453827 93.780732 C455.996124 93.167786 453.486084 92.764557 451.000214 92.264496 C452.412537 94.676972 453.415649 97.498963 455.328522 99.410645 C458.595062 102.675232 457.996399 106.525178 457.971344 110.347657 C457.946960 114.064545 459.103607 118.123261 454.175903 120.273682 C452.186707 121.141724 449.900177 123.182282 449.348572 125.139924 C447.754883 130.796326 443.305206 131.032898 439.223602 130.604523 C433.344910 129.987549 427.492920 128.570496 421.817108 126.869202 C419.899475 126.294343 418.129517 124.063355 417.021851 122.163697 C413.394775 115.943329 406.311859 110.744294 399.711975 118.567139 C394.840179 124.341736 389.731781 129.923951 387.924286 137.675324 C387.091522 141.246674 385.614380 144.702088 384.138458 148.083039 C378.623596 160.716065 378.707458 174.051941 379.047821 187.420289 C379.073639 188.433808 379.571289 189.592316 380.205322 190.406373 C383.066864 194.080353 386.056519 197.654542 389.500000 201.764710 z"/><path class="selected"  fill="#000000" opacity="1.000000" stroke="none" 
 	d="
M1533.000000 106.764710 C1531.666626 103.151856 1529.985718 100.135499 1529.088013 96.901703 C1527.963501 92.850739 1525.213257 90.656556 1521.538452 90.894105 C1512.041382 91.508027 1502.539062 92.452576 1493.128540 93.863190 C1485.563599 94.997132 1478.152100 97.122437 1470.625244 98.560242 C1468.169067 99.029389 1465.256104 99.453187 1463.114990 98.555237 C1461.030396 97.681122 1459.746948 95.005433 1457.958618 93.279236 C1456.707642 92.071625 1455.202271 91.126557 1453.805298 90.071168 C1447.989502 85.677704 1445.181274 79.160248 1441.805542 73.048325 C1441.437500 72.382157 1440.852539 71.449097 1441.062134 70.909043 C1443.868042 63.676804 1445.608643 55.904740 1454.825684 53.250825 C1462.157959 51.139618 1469.076538 48.373673 1476.985596 50.599122 C1479.549438 51.320572 1482.658081 50.077042 1485.522339 49.777894 C1486.346436 49.691819 1487.249023 49.562028 1488.010742 49.795167 C1499.162598 53.208680 1507.885742 46.915223 1517.338501 42.906571 C1523.645874 40.231736 1530.571899 41.013138 1537.221802 42.509278 C1544.675049 44.186188 1552.048950 46.253892 1559.546631 47.683701 C1565.189819 48.759858 1570.980103 49.681931 1576.693604 49.620545 C1584.253906 49.539292 1591.805542 47.890076 1599.356323 47.924851 C1606.196655 47.956345 1613.040161 49.270554 1619.863037 50.165909 C1622.811035 50.552796 1625.885254 50.883698 1628.592407 51.994752 C1632.862915 53.747468 1636.790649 56.320939 1641.020752 58.191529 C1643.817749 59.428422 1646.338013 60.616898 1650.080688 60.098618 C1656.438477 59.218171 1663.112671 60.958314 1669.605103 60.630127 C1677.563110 60.227860 1685.651978 59.575928 1693.359863 57.699067 C1706.655518 54.461548 1714.127441 58.626435 1720.310181 70.817963 C1724.966309 79.999283 1720.450562 88.365265 1710.473389 91.821076 C1705.089966 93.685700 1699.924683 96.619385 1694.406250 97.534455 C1688.542969 98.506745 1682.378296 97.638856 1676.345093 97.617432 C1672.090576 97.602326 1667.832520 97.770264 1663.582520 97.641388 C1661.059326 97.564850 1658.556152 96.911469 1656.031128 96.793580 C1647.286011 96.385346 1638.537598 95.998322 1629.785889 95.796601 C1622.901978 95.637909 1616.011597 95.764710 1609.124023 95.764710 C1603.735840 95.764710 1598.328979 96.043671 1592.964844 95.685212 C1587.738770 95.336030 1582.560791 94.299592 1577.351562 93.645356 C1576.117920 93.490418 1574.136353 93.192353 1573.749023 93.781708 C1573.116089 94.744752 1573.164307 96.484803 1573.529297 97.718262 C1575.282349 103.640564 1577.408081 109.454835 1579.088867 115.395875 C1583.479614 130.916138 1587.875000 146.438782 1591.942505 162.045502 C1594.774902 172.913117 1597.750000 183.817750 1599.431152 194.892609 C1601.581177 209.057160 1608.578979 222.166871 1608.051270 236.870942 C1607.823486 243.219697 1605.859741 247.231049 1599.393311 250.244294 C1586.544922 256.231293 1578.213989 249.390168 1570.026855 239.858460 C1564.221313 233.099488 1564.002075 224.319062 1562.010376 216.203950 C1559.633179 206.518982 1556.463501 196.928254 1555.183838 187.095398 C1552.646362 167.596009 1546.053345 149.125428 1541.794189 130.076203 C1540.035522 122.210145 1535.999878 114.853242 1533.000000 106.764710 z"/><path class="selected"  fill="#000000" opacity="1.000000" stroke="none" 
 	d="
M769.750000 146.514710 C769.000000 145.994599 768.051758 145.187287 768.111816 144.463654 C768.189453 143.529023 768.990112 142.584351 769.685852 141.835877 C769.810547 141.701691 771.546509 142.680268 771.500549 142.833191 C771.143921 144.020173 770.532593 145.130616 769.750000 146.514710 z"/><path class="selected"  fill="#000000" opacity="1.000000" stroke="none" 
 	d="
M1587.250000 39.514710 C1587.648438 38.431382 1588.182617 37.433915 1589.010376 36.858521 C1589.280640 36.670685 1590.315063 37.582306 1591.000000 37.991135 C1589.833374 38.582337 1588.666626 39.173523 1587.250000 39.514710 z"/><path class="selected"  fill="#000000" opacity="1.000000" stroke="none" 
 	d="
M1421.250122 456.014710 C1422.333374 456.872742 1423.166748 457.980835 1424.000000 459.088929 C1423.146729 459.294312 1422.293457 459.499634 1421.440186 459.704957 C1421.293579 458.558228 1421.146851 457.411439 1421.250122 456.014710 z"/></svg>