<svg id="Lag_1" data-name="Lag 1" xmlns="http://www.w3.org/2000/svg" viewBox="0 0 671.45 335.37"><defs><style>.cls-1{fill:#ff68aa;}.cls-2{fill:#ff6473;}.cls-3{fill:#d41749;}.cls-4{fill:none;stroke:#1d1d1b;stroke-miterlimit:10;stroke-width:2.67px;}.cls-5{fill:#fff;}</style></defs><path class="cls-1" d="M380.85,280.23c-1.64,13.66-3.68,15.64-6.2,24-3.81,12.6-14,48.73-21.23,47.21-8.62-1.81-4.81-41.23-20.77-61.19C322,276.94,315.09,274.32,310,261.5c-3.34-8.33-5.09-23.09,4.35-32.24,5.92-5.75,16.68-7,21.55-7.06h0a1.93,1.93,0,0,1,1.77,1.2c2.66,6.6,6.13,16.21,10.12,28.78,10.58,33.34,8.62,76.4,8.62,76.4s6.38-31.23-3.86-69.58a357.41,357.41,0,0,0-11.15-35.12,5.19,5.19,0,0,1,2.86-6.67,33.56,33.56,0,0,1,5.3-1.6c10.4-2.32,18.67,3.59,20.57,4.95,11.64,8.31,13,23,13.25,25.91C384.49,258.93,383.25,260.27,380.85,280.23Z" transform="translate(-63.79 -23)"/><path class="cls-1" d="M440.37,98.8c-15.74,19-15.08,26.73-34.42,48.46-14.64,16.46-21,18.81-25.91,19.58a32.41,32.41,0,0,1-16.77-2.05,4.28,4.28,0,0,1-2.6-5c2.19-9,7.49-25.53,19.77-44.93,18.7-29.56,60-41.54,60-41.54s-33.88,4.53-58.59,35.58C367,127.52,361,144.56,358.61,155.21a4.28,4.28,0,0,1-7.11,2.16,32.17,32.17,0,0,1-5.48-6.75c-9.69-16.06-.52-35.58,3.76-44.7,16.63-35.42,57-51.79,88.42-52.22,3.44-.05,30.05-.41,33,9.3C473.55,70.57,459,76.22,440.37,98.8Z" transform="translate(-63.79 -23)"/><path class="cls-1" d="M329.18,143.37a21.39,21.39,0,0,1-11.08,6.93c-2.81.75-2.53-2.1-2.48-2.46v-.09c-.8-8.54-1.05-16.92-3.67-30.8-7.25-38.39-26.05-63.6-26.63-64.37.61,1.16,20.47,38.48,25.29,72.58,1.46,10.37,1.76,17.12,2.31,23.6a1.65,1.65,0,0,1-1.76,1.79c-10.16-.73-17.81-8.73-20.16-10.94-9.46-8.9-12.63-22.08-18.59-48.06a287.76,287.76,0,0,1-6.13-44.7c-1.43-22.94,4.43-22,6.19-23,7.91-4.44,22.4,10.15,28.62,16.49,9.66,9.85,25.28,26.18,32,53C335.71,103.54,342.15,129.1,329.18,143.37Z" transform="translate(-63.79 -23)"/><path class="cls-1" d="M290.51,166.89v0A2.12,2.12,0,0,1,287,168.3c-7.61-6.42-24.3-17.8-51.45-23-38.36-7.4-66.75,10.51-67.63,11.07.93-.42,39.52-17.6,72.55-7.44,25.57,7.87,41.36,18.89,47.37,23.64a2.15,2.15,0,0,1,.64,2.49c-4.69,11.71-15.57,18-17,18.77-16,8.91-34.23,3-45.89-.79-25.79-8.37-26.08-20.22-47.67-22.94-12.79-1.61-26.24.84-27.69-3.76-.82-2.58,1-5.58,4.15-10.29a57.31,57.31,0,0,1,14.5-14.9c10.39-7.41,20.14-10.31,26.9-12.27a114.53,114.53,0,0,1,25.66-4.28c19.72-1.07,38.52-1.75,53.6,10.29C277.08,136.44,292.28,149,290.51,166.89Z" transform="translate(-63.79 -23)"/><path class="cls-1" d="M299.29,240.36c-10.64,15.79-16.76,15.2-33.27,31.81-11.29,11.36-24.2,21.43-32.4,38.61-5.44,11.39-7.61,17.92-11.08,17.8-5.8-.2-11.3-18.88-12.06-34-1.95-38.78,25.92-80.85,62.11-92.57,4.43-1.44,15.5-5,23.93-2.84a2.09,2.09,0,0,1,.19,4C286.37,207,272,214.42,257.07,228.52c-28.89,27.21-30.58,61.35-30.58,61.35s8.51-42.12,36.4-63.22a157.15,157.15,0,0,1,39.56-22.18,2.07,2.07,0,0,1,2.52.89C310,214.16,306.33,229.92,299.29,240.36Z" transform="translate(-63.79 -23)"/><path class="cls-1" d="M483.58,242.5c-.15,13.31-6.48,30-10.49,29.67-1.64-.12-2.63-3.06-3.16-4.55-5.43-15.08-19.69-34.86-31.45-41.74-12.23-7.16-16.79,2.54-39-2.77-2.86-.68-34.43-8.57-36-25.12a14.42,14.42,0,0,1,.3-4.49,6.54,6.54,0,0,1,5.7-5.1c9-.92,26.49.2,46.57,5.2,33.41,8.34,57.53,42.77,58.27,43.84-.52-1.06-15.6-30.95-52.18-44.41-22-8.1-39.89-8.51-50.81-7.5a1.74,1.74,0,0,1-1.42-2.92,43.56,43.56,0,0,1,12-9.15c28-14.33,64.18,12.62,69.62,16.82C458.29,195.49,483.88,215.22,483.58,242.5Z" transform="translate(-63.79 -23)"/><circle class="cls-2" cx="269.67" cy="175.46" r="3.56"/><circle class="cls-2" cx="251.8" cy="173.5" r="3.56"/><circle class="cls-2" cx="262.11" cy="161.13" r="4.15"/><circle class="cls-2" cx="258.92" cy="146.3" r="3.56"/><circle class="cls-2" cx="245.17" cy="156.45" r="2.59"/><circle class="cls-2" cx="281.07" cy="165.28" r="2.88"/><circle class="cls-2" cx="274.11" cy="151.37" r="2.53"/><path class="cls-3" d="M147.6,212c0,.66-.66,1.8-1.48,1.8a6.57,6.57,0,0,0-3.47,1.31c-5,3.1-9.07,9.8-11.22,17.8,4.62,6.21,7.26,12.74,7.26,16.17,0,7.52-4.62,11-6.76,11s-6.27-3.43-6.27-14.54a40.82,40.82,0,0,1,1.81-12.25c-5.44-5.88-12.86-10.78-21.61-10.78-7.42,0-13,7.51-13,15.68,0,17.64,22.11,37.57,46.69,43,7.92-13.56,16.33-28.42,26.56-41.16,15.67-19.44,28.54-21.57,42.23-27.94,0,0,5.94-8.65,10.07-8.65a2.63,2.63,0,0,1,2.8,2.61c0,5.88-9.4,7-10.56,8.17-1.81,1.79-18.8,31.85-27.38,60.93,5.61-2.94,8.91-5.56,9.24-5.56a1.87,1.87,0,0,1,1.15,1.31c0,1.14-4.45,4.25-11.22,7.19-2.47,9-4,17.8-4,25.48,0,7,5.28,9.15,5.28,9.8a1.44,1.44,0,0,1-1.48,1.31c-6.6,0-12.87-6.05-12.87-13.73a67.21,67.21,0,0,1,3.3-19.27,69.89,69.89,0,0,1-20.62,3.27,48.16,48.16,0,0,1-4.95-.17c-13.7,22.22-29,41.49-49.5,41.49-.49,0-1-.16-1.48-.16-5.61,9.47-12.7,15.19-13.86,15.19-.33,0-.82-.82-.82-1.14,0-.49,6.43-5.39,11-14.54-13.36-3.43-28.71-19-28.71-41.49,0-13.23,5.12-20.74,13.7-20.74,11.71,0,25.24,17.64,25.24,39.85a43.82,43.82,0,0,1-5.45,20.58h.33c16.17,0,27.72-18.29,40.59-40.18-27.72-5.06-50.82-24.18-50.82-43.45,0-13.23,12.54-21.24,21-21.24,8.08,0,15.17,4.9,20.45,10.79a38.59,38.59,0,0,1,12.71-15.85c2.14-1.47,4.12-2.45,5.44-2.45A.6.6,0,0,1,147.6,212ZM93.49,323.25a41.47,41.47,0,0,0,3.63-17.31c0-20.26-11.06-39.21-21.61-39.21-4.79,0-8.58,6.38-8.58,16.18C66.93,305,81.28,320.31,93.49,323.25Zm37.12-86.08a48,48,0,0,0-.5,6.86c0,9.64,1.82,12.9,3.3,12.9,1.65,0,2.81-2.12,2.81-6.37C136.22,247.3,134.07,242.23,130.61,237.17Zm40.25,7.19c-7.26,11.59-14.51,25.15-22.27,37.89a28.43,28.43,0,0,0,3.8.17A68.22,68.22,0,0,0,173.67,279c9.07-28.1,30-60.61,30-62.24C196.93,220,180.93,228.51,170.86,244.36Z" transform="translate(-63.79 -23)"/><path class="cls-3" d="M244,285.68c1.15-.81,1.48-1.14,2-1.14a.71.71,0,0,1,.66.65c0,.49-.17.82-1.16,1.64-12,9.63-17,10.94-21.61,10.94-8.74,0-7.76-9.8-10.23-9.8s-13.2,14.7-22.44,14.7c-2.47,0-5.11-2-5.11-4.08,0-13.23,21.28-32.51,33.32-32.51,2.81,0,5.12,2.78,5.12,5.72,0,1.63-2.31,5.55-3.47,5.55a1.4,1.4,0,0,1-1.15-1.3c0-1.15,2.8-2.13,2.8-5.07,0-1.3-1.32-2.45-3.13-2.45-7.75,0-26.56,18.62-26.56,29.24a1.6,1.6,0,0,0,1.65,1.8c3.3,0,11.22-7.52,15.84-12.42,4.29-4.57,5.44-6.53,7.91-6.53,5.61,0,3.63,13.72,10.23,13.72C231.24,294.34,233.06,294.18,244,285.68Z" transform="translate(-63.79 -23)"/><path class="cls-3" d="M259.78,312.14c4.62-10.45,7.76-20.41,7.76-27.76-1.32,1.47-12.71,14.86-21.28,14.86A5.28,5.28,0,0,1,241,294c0-13.06,21-29.07,32.5-29.07a5.74,5.74,0,0,1,5.94,5.72c0,2.12-1.32,3.92-1.82,3.92s-1.81-1.15-1.81-1.64c0-1,1-1.63,1-3.43,0-1.3-1-2.45-3.3-2.45-9.41,0-25.74,17.48-25.74,26.79,0,1.47.83,2.45,2,2.45,3,0,10.23-7.19,15.67-12.58,2.64-2.61,4.95-3.92,6.77-3.92,2.8,0,4.12,2.13,4.12,5.23,0,5.23-1.81,12.25-4.78,19.6a292,292,0,0,0,24.08-18.95c1.16-1,1.49-1.14,2-1.14a.71.71,0,0,1,.66.65c0,.49-.16.82-1.15,1.64a241.06,241.06,0,0,1-26.89,20.9c-10.4,23.36-32.17,50.64-51.31,50.64a7.55,7.55,0,0,1-7.59-7.68C211.28,338.61,235.53,327,259.78,312.14Zm-1.32,3.11c-23.75,14.7-44.71,25-44.71,34.46,0,4.09,3,6.05,6.44,6.05C232.89,355.76,248.57,335.5,258.46,315.25Z" transform="translate(-63.79 -23)"/><path class="cls-3" d="M347.22,285.68c1.16-.81,1.49-1.14,2-1.14a.71.71,0,0,1,.66.65c0,.49-.16.82-1.15,1.64-12,9.63-17,10.94-21.62,10.94-8.74,0-7.75-9.8-10.22-9.8s-13.2,14.7-22.44,14.7c-2.48,0-5.12-2-5.12-4.08,0-13.23,21.29-32.51,33.33-32.51,2.8,0,5.11,2.78,5.11,5.72,0,1.63-2.31,5.55-3.46,5.55a1.4,1.4,0,0,1-1.16-1.3c0-1.15,2.81-2.13,2.81-5.07,0-1.3-1.32-2.45-3.14-2.45-7.75,0-26.56,18.62-26.56,29.24a1.6,1.6,0,0,0,1.65,1.8c3.3,0,11.22-7.52,15.84-12.42,4.29-4.57,5.44-6.53,7.92-6.53,5.61,0,3.63,13.72,10.23,13.72C334.52,294.34,336.33,294.18,347.22,285.68Z" transform="translate(-63.79 -23)"/><path class="cls-3" d="M398.69,285.68c1.16-.81,1.49-1.14,2-1.14a.71.71,0,0,1,.66.65c0,.49-.16.82-1.15,1.64-12,9.63-17,10.94-21.61,10.94-8.75,0-7.76-9.8-10.23-9.8s-13.2,14.7-22.44,14.7c-2.47,0-5.11-2-5.11-4.08,0-13.23,21.28-32.51,33.32-32.51,2.81,0,5.12,2.78,5.12,5.72,0,1.63-2.31,5.55-3.47,5.55a1.4,1.4,0,0,1-1.15-1.3c0-1.15,2.8-2.13,2.8-5.07,0-1.3-1.32-2.45-3.13-2.45-7.76,0-26.56,18.62-26.56,29.24a1.6,1.6,0,0,0,1.65,1.8c3.3,0,11.21-7.52,15.83-12.42,4.29-4.57,5.45-6.53,7.92-6.53,5.61,0,3.63,13.72,10.23,13.72C386,294.34,387.81,294.18,398.69,285.68Z" transform="translate(-63.79 -23)"/><path class="cls-3" d="M443.4,284.54a.71.71,0,0,1,.66.65c0,.49-.16.82-1.15,1.64-12.05,9.63-20.79,16.82-28.87,16.82-4.13,0-9.08-1.47-9.08-7.35,0-8.82,14.36-16.17,14.36-18.13,0-.82-2.15-2.12-4.29-4.25a133.7,133.7,0,0,1-15.35,13.23c-.82.66-1.15.82-1.48.82a.78.78,0,0,1-.83-.82c0-.32.33-.65,1.32-1.47A148.61,148.61,0,0,0,414,272.78a12.28,12.28,0,0,1-3.63-8.5c0-6.69,8.25-12.74,12.54-12.74,2,0,3.62,2.13,3.62,4.41,0,4.09-3.29,9-8.08,14.38,1.49,4.08,4.29,5.72,4.29,7.68,0,4.41-10.39,11.59-10.39,19.76,0,2.45,1.48,3.59,3.79,3.59,5.44,0,14.35-7.18,25.24-15.68C442.58,284.87,442.91,284.54,443.4,284.54Zm-25.24-16.33c3.63-4.25,5.94-8.34,5.94-11.44,0-1.63-.49-2.61-2.14-2.61-1.82,0-4.13,2.77-4.13,10.78A18.87,18.87,0,0,0,418.16,268.21Z" transform="translate(-63.79 -23)"/><path class="cls-3" d="M444.06,304.14c-2.8,0-6.27-3.1-6.27-7.19,0-10.29,17.32-28.42,27.22-28.42a7.42,7.42,0,0,1,6.44,3.6,60.1,60.1,0,0,1,1.81-7c7.59-22.87,22.27-46.23,33.82-46.23,2.15,0,3.8,2,3.8,4.58,0,7.19-19.8,35.44-33.33,49.49a70.15,70.15,0,0,0-1.15,13.23c0,4.74,1.81,10.29,4.78,10.29,2.15,0,6.93-2.28,17.82-10.78,1.15-.81,1.48-1.14,2-1.14a.71.71,0,0,1,.66.65c0,.49-.17.82-1.16,1.64-12,9.63-18.64,12.57-21.77,12.57-6.27,0-8.25-7.84-8.25-15.84C462,291.89,451.81,304.14,444.06,304.14ZM471,275.23c-.49,0-.49.65-1.48.65-.83,0-.66-1.3-.66-1.63,0-2.45-1-3.11-3-3.11-9.41,0-21.45,19.28-21.45,28.75a1.6,1.6,0,0,0,1.65,1.8c4.78,0,25.24-20.91,25.24-25.64C471.28,275.88,471.28,275.23,471,275.23Zm7.92-5.88.5-.66Zm30.19-45.9c0-1.31-.66-2-1.81-2-7.59,0-26.73,40.83-26.73,45.08C485.14,261.83,509.06,230.31,509.06,223.45Z" transform="translate(-63.79 -23)"/><path class="cls-3" d="M533.15,285.68c1.15-.81,1.48-1.14,2-1.14a.71.71,0,0,1,.66.65c0,.49-.17.82-1.16,1.64-8.74,7.18-22.93,16.66-31,16.66-4,0-7.76-2.78-7.76-8.17,0-18,41.25-75.14,57.91-75.14,2.48,0,4.29,1.47,4.29,4.09,0,18.29-42.07,52.76-50.32,58.31-2.47,2.94-4.12,9.47-4.12,14.05,0,2.77,1.32,3.92,3.3,3.92C510.22,300.55,522.26,294.18,533.15,285.68Zm-24.42-6.53c14.52-11.11,46.2-40.51,46.2-53.74,0-1.8-.66-2.13-1.82-2.13C546.51,223.28,513.85,267.22,508.73,279.15Z" transform="translate(-63.79 -23)"/><path class="cls-3" d="M561,285.68c1.15-.81,1.48-1.14,2-1.14a.71.71,0,0,1,.66.65c0,.49-.17.82-1.16,1.64-12,9.63-20,14-25.07,14-3.63,0-6.6-2.12-6.6-6.53,0-9.47,16.49-28.58,20.12-28.58,2.64,0,4,.81,4,1.63s-.82,1.47-2.31,3.1c-7.91,9.15-15.5,19.11-15.5,25a2.46,2.46,0,0,0,2.64,2.78C544,298.26,550.14,294.18,561,285.68Zm4-36.26c0,2.94-4.13,6.53-7.59,6.53a2.61,2.61,0,0,1-2.81-2.28c0-3.43,4.79-6.54,6.44-6.54C562.51,247.13,565,248.28,565,249.42Z" transform="translate(-63.79 -23)"/><path class="cls-3" d="M581.32,281.93c5.61-6.86,11.38-14.54,11.38-21.08,0-1.47,3-3.92,4.46-3.92.82,0,1.15.49,1.15,1.31,0,13.23-29.69,43-39.26,43-1.65,0-4-1.63-4-2.94,0-2.29,15.5-22.54,15.5-31.2,0-3.1-1.15-3.43-1.15-4.08a.71.71,0,0,1,.66-.66c1.32,0,5.61,3.92,5.61,7.85,0,7-13.2,25.15-13.2,27.6C564.49,297.77,573.89,290.91,581.32,281.93Z" transform="translate(-63.79 -23)"/><path class="cls-3" d="M623.22,285.68c1.16-.81,1.49-1.14,2-1.14a.71.71,0,0,1,.66.65c0,.49-.16.82-1.15,1.64-12.05,9.63-20,14-25.08,14-3.63,0-6.6-2.12-6.6-6.53,0-9.47,16.5-28.58,20.13-28.58,2.64,0,4,.81,4,1.63s-.83,1.47-2.31,3.1c-7.92,9.15-15.51,19.11-15.51,25a2.46,2.46,0,0,0,2.64,2.78C606.23,298.26,612.33,294.18,623.22,285.68Zm4-36.26c0,2.94-4.12,6.53-7.59,6.53a2.6,2.6,0,0,1-2.8-2.28c0-3.43,4.78-6.54,6.43-6.54C624.71,247.13,627.18,248.28,627.18,249.42Z" transform="translate(-63.79 -23)"/><path class="cls-3" d="M660.84,268c2,0,4.78,2.13,4.78,3.76,0,6.37-10.39,15.19-10.39,26.13,0,1.8.66,2.94,2.14,2.94,3.14,0,12.7-6.86,23.59-15.35,1.16-.82,1.49-1.14,2-1.14a.7.7,0,0,1,.66.65c0,.49-.16.82-1.15,1.63-12.05,9.64-22.44,16.83-28.87,16.83-2.48,0-6.44-1.31-6.44-6.54,0-11.92,12.71-20.58,12.71-25.64a.7.7,0,0,0-.66-.65c-5.94,0-33.33,27.44-38.94,27.44-.82,0-2.31-2.13-2.31-3.27,0-2.94,8.25-18.95,16.66-27.93,3.47-3.76,7.92-6.21,10.4-6.21.33,0,.82.65.82,1a49.44,49.44,0,0,0-5.77,6.86,154.26,154.26,0,0,0-10.89,21.56C631.8,288.13,654.4,268,660.84,268Z" transform="translate(-63.79 -23)"/><path class="cls-3" d="M696.8,312.14c4.62-10.45,7.75-20.41,7.75-27.76-1.32,1.47-12.7,14.86-21.28,14.86A5.29,5.29,0,0,1,678,294c0-13.06,21-29.07,32.5-29.07a5.74,5.74,0,0,1,5.94,5.72c0,2.12-1.32,3.92-1.81,3.92s-1.82-1.15-1.82-1.64c0-1,1-1.63,1-3.43,0-1.3-1-2.45-3.3-2.45-9.4,0-25.73,17.48-25.73,26.79,0,1.47.82,2.45,2,2.45,3,0,10.22-7.19,15.67-12.58,2.64-2.61,5-3.92,6.76-3.92,2.81,0,4.13,2.13,4.13,5.23,0,5.23-1.82,12.25-4.79,19.6a294,294,0,0,0,24.09-18.95c1.15-1,1.48-1.14,2-1.14a.71.71,0,0,1,.66.65c0,.49-.17.82-1.16,1.64a240.15,240.15,0,0,1-26.89,20.9c-10.39,23.36-32.17,50.64-51.31,50.64a7.55,7.55,0,0,1-7.59-7.68C648.29,338.61,672.55,327,696.8,312.14Zm-1.32,3.11c-23.76,14.7-44.71,25-44.71,34.46,0,4.09,3,6.05,6.43,6.05C669.91,355.76,685.58,335.5,695.48,315.25Z" transform="translate(-63.79 -23)"/><path class="cls-4" d="M577.05,55.81h0" transform="translate(-63.79 -23)"/><circle class="cls-2" cx="432.74" cy="133.01" r="2.51"/><circle class="cls-2" cx="408.94" cy="136.89" r="2.51"/><circle class="cls-2" cx="419.44" cy="111.4" r="4.15"/><circle class="cls-2" cx="438.44" cy="91.93" r="3.56"/><circle class="cls-2" cx="388.12" cy="144.19" r="2.59"/><circle class="cls-2" cx="488.87" cy="107.68" r="2.03"/><circle class="cls-2" cx="456" cy="115.55" r="2.53"/><circle class="cls-5" cx="356.16" cy="177.74" r="3.56"/><circle class="cls-5" cx="329.29" cy="187.23" r="3.56"/><circle class="cls-5" cx="347.16" cy="153.35" r="4.15"/><circle class="cls-2" cx="366.15" cy="133.89" r="3.56"/><circle class="cls-5" cx="315.83" cy="171.9" r="2.59"/><circle class="cls-2" cx="404.05" cy="174.86" r="2.88"/><circle class="cls-5" cx="368.68" cy="157.5" r="2.53"/><circle class="cls-2" cx="476.89" cy="135.76" r="2.51"/><circle class="cls-2" cx="539.74" cy="120.97" r="3.56"/><circle class="cls-2" cx="493.83" cy="143.97" r="2.92"/><circle class="cls-2" cx="546.87" cy="174.18" r="3.56"/><circle class="cls-2" cx="513.86" cy="145.85" r="1.83"/><circle class="cls-2" cx="470.03" cy="150.66" r="2.88"/><circle class="cls-2" cx="508.49" cy="159.17" r="2.53"/></svg>