<?xml version="1.0" encoding="utf-8"?>
<!-- Generator: Adobe Illustrator 24.0.0, SVG Export Plug-In . SVG Version: 6.00 Build 0)  -->
<svg version="1.1" id="Lag_1" xmlns="http://www.w3.org/2000/svg" xmlns:xlink="http://www.w3.org/1999/xlink" x="0px" y="0px"
	 viewBox="0 0 780.92 456.52" style="enable-background:new 0 0 780.92 456.52;" xml:space="preserve">
<style type="text/css">
	.st0{fill:#0042FF;}
	.st1{fill:#F04F00;}
	.st2{fill:none;stroke:#F04F00;stroke-width:9;stroke-miterlimit:10;}
</style>
<path class="st0" d="M386.95,391.07c-0.24-0.51-0.71-0.97-1.43-1.35c-0.72-0.39-1.69-0.59-2.89-0.59h-5.88
	c-1.25,0-2.26,0.21-3.02,0.63c-0.55,0.28-0.98,0.76-1.3,1.43c-0.23,0.48-0.35,1.73-0.35,3.76v11.45h15.22v-11.45
	C387.3,392.88,387.18,391.59,386.95,391.07z M372.08,409.03v12.52c0,2.07,0.12,3.36,0.37,3.88c0.24,0.52,0.72,0.97,1.42,1.36
	c0.71,0.39,1.67,0.58,2.88,0.58h1.43v1.1h3.05v-1.1h1.4c1.27,0,2.27-0.21,3.02-0.63c0.55-0.28,0.98-0.75,1.3-1.43
	c0.23-0.48,0.35-1.73,0.35-3.76v-12.52H372.08z M466.16,396.64c-1.06-2.66-2.41-4.53-4.05-5.63c-1.43-0.95-3.06-1.49-4.88-1.61
	c-0.26-0.02-0.52-0.03-0.79-0.03c-0.11,0-0.22,0-0.33,0.01c-3.78,0.1-6.67,1.99-8.66,5.66c-1.68,3.1-2.51,7.56-2.51,13.36
	c0,6.9,1.29,12,3.87,15.3c1.69,2.17,4.01,3.31,6.96,3.45c0.09,0.01,0.19,0.01,0.28,0.01h0.32c2.18,0,4.01-0.5,5.47-1.49
	c1.86-1.27,3.31-3.31,4.35-6.1c1.04-2.79,1.56-6.44,1.56-10.93C467.75,403.29,467.22,399.29,466.16,396.64z M466.16,396.64
	c-1.06-2.66-2.41-4.53-4.05-5.63c-1.43-0.95-3.06-1.49-4.88-1.61c-0.26-0.02-0.52-0.03-0.79-0.03c-0.11,0-0.22,0-0.33,0.01
	c-3.78,0.1-6.67,1.99-8.66,5.66c-1.68,3.1-2.51,7.56-2.51,13.36c0,6.9,1.29,12,3.87,15.3c1.69,2.17,4.01,3.31,6.96,3.45
	c0.09,0.01,0.19,0.01,0.28,0.01h0.32c2.18,0,4.01-0.5,5.47-1.49c1.86-1.27,3.31-3.31,4.35-6.1c1.04-2.79,1.56-6.44,1.56-10.93
	C467.75,403.29,467.22,399.29,466.16,396.64z M386.95,391.07c-0.24-0.51-0.71-0.97-1.43-1.35c-0.72-0.39-1.69-0.59-2.89-0.59h-5.88
	c-1.25,0-2.26,0.21-3.02,0.63c-0.55,0.28-0.98,0.76-1.3,1.43c-0.23,0.48-0.35,1.73-0.35,3.76v11.45h15.22v-11.45
	C387.3,392.88,387.18,391.59,386.95,391.07z M372.08,409.03v12.52c0,2.07,0.12,3.36,0.37,3.88c0.24,0.52,0.72,0.97,1.42,1.36
	c0.71,0.39,1.67,0.58,2.88,0.58h1.43v1.1h3.05v-1.1h1.4c1.27,0,2.27-0.21,3.02-0.63c0.55-0.28,0.98-0.75,1.3-1.43
	c0.23-0.48,0.35-1.73,0.35-3.76v-12.52H372.08z M466.16,396.64c-1.06-2.66-2.41-4.53-4.05-5.63c-1.43-0.95-3.06-1.49-4.88-1.61
	c-0.26-0.02-0.52-0.03-0.79-0.03c-0.11,0-0.22,0-0.33,0.01c-3.78,0.1-6.67,1.99-8.66,5.66c-1.68,3.1-2.51,7.56-2.51,13.36
	c0,6.9,1.29,12,3.87,15.3c1.69,2.17,4.01,3.31,6.96,3.45c0.09,0.01,0.19,0.01,0.28,0.01h0.32c2.18,0,4.01-0.5,5.47-1.49
	c1.86-1.27,3.31-3.31,4.35-6.1c1.04-2.79,1.56-6.44,1.56-10.93C467.75,403.29,467.22,399.29,466.16,396.64z M607.17,396.17
	c-1.38-2.42-3.15-4.07-5.31-4.95c-1.47-0.59-3.89-0.89-7.26-0.89h-0.33v31.55c0,1.67,0.08,2.7,0.25,3.07
	c0.17,0.38,0.46,0.67,0.86,0.87c0.57,0.3,1.4,0.45,2.48,0.45c3.54,0,6.24-1.14,8.1-3.4c2.54-3.07,3.81-7.82,3.81-14.26
	C609.77,403.42,608.91,399.27,607.17,396.17z M466.16,396.64c-1.06-2.66-2.41-4.53-4.05-5.63c-1.43-0.95-3.06-1.49-4.88-1.61
	c-0.26-0.02-0.52-0.03-0.79-0.03c-0.11,0-0.22,0-0.33,0.01c-3.78,0.1-6.67,1.99-8.66,5.66c-1.68,3.1-2.51,7.56-2.51,13.36
	c0,6.9,1.29,12,3.87,15.3c1.69,2.17,4.01,3.31,6.96,3.45c0.09,0.01,0.19,0.01,0.28,0.01h0.32c2.18,0,4.01-0.5,5.47-1.49
	c1.86-1.27,3.31-3.31,4.35-6.1c1.04-2.79,1.56-6.44,1.56-10.93C467.75,403.29,467.22,399.29,466.16,396.64z M386.95,391.07
	c-0.24-0.51-0.71-0.97-1.43-1.35c-0.72-0.39-1.69-0.59-2.89-0.59h-5.88c-1.25,0-2.26,0.21-3.02,0.63c-0.55,0.28-0.98,0.76-1.3,1.43
	c-0.23,0.48-0.35,1.73-0.35,3.76v11.45h15.22v-11.45C387.3,392.88,387.18,391.59,386.95,391.07z M372.08,409.03v12.52
	c0,2.07,0.12,3.36,0.37,3.88c0.24,0.52,0.72,0.97,1.42,1.36c0.71,0.39,1.67,0.58,2.88,0.58h1.43v1.1h3.05v-1.1h1.4
	c1.27,0,2.27-0.21,3.02-0.63c0.55-0.28,0.98-0.75,1.3-1.43c0.23-0.48,0.35-1.73,0.35-3.76v-12.52H372.08z M607.17,396.17
	c-1.38-2.42-3.15-4.07-5.31-4.95c-1.47-0.59-3.89-0.89-7.26-0.89h-0.33v31.55c0,1.67,0.08,2.7,0.25,3.07
	c0.17,0.38,0.46,0.67,0.86,0.87c0.57,0.3,1.4,0.45,2.48,0.45c3.54,0,6.24-1.14,8.1-3.4c2.54-3.07,3.81-7.82,3.81-14.26
	C609.77,403.42,608.91,399.27,607.17,396.17z M466.16,396.64c-1.06-2.66-2.41-4.53-4.05-5.63c-1.43-0.95-3.06-1.49-4.88-1.61
	c-0.26-0.02-0.52-0.03-0.79-0.03c-0.11,0-0.22,0-0.33,0.01c-3.78,0.1-6.67,1.99-8.66,5.66c-1.68,3.1-2.51,7.56-2.51,13.36
	c0,6.9,1.29,12,3.87,15.3c1.69,2.17,4.01,3.31,6.96,3.45c0.09,0.01,0.19,0.01,0.28,0.01h0.32c2.18,0,4.01-0.5,5.47-1.49
	c1.86-1.27,3.31-3.31,4.35-6.1c1.04-2.79,1.56-6.44,1.56-10.93C467.75,403.29,467.22,399.29,466.16,396.64z M607.17,396.17
	c-1.38-2.42-3.15-4.07-5.31-4.95c-1.47-0.59-3.89-0.89-7.26-0.89h-0.33v31.55c0,1.67,0.08,2.7,0.25,3.07
	c0.17,0.38,0.46,0.67,0.86,0.87c0.57,0.3,1.4,0.45,2.48,0.45c3.54,0,6.24-1.14,8.1-3.4c2.54-3.07,3.81-7.82,3.81-14.26
	C609.77,403.42,608.91,399.27,607.17,396.17z M466.16,396.64c-1.06-2.66-2.41-4.53-4.05-5.63c-1.43-0.95-3.06-1.49-4.88-1.61
	c-0.26-0.02-0.52-0.03-0.79-0.03c-0.11,0-0.22,0-0.33,0.01c-3.78,0.1-6.67,1.99-8.66,5.66c-1.68,3.1-2.51,7.56-2.51,13.36
	c0,6.9,1.29,12,3.87,15.3c1.69,2.17,4.01,3.31,6.96,3.45c0.09,0.01,0.19,0.01,0.28,0.01h0.32c2.18,0,4.01-0.5,5.47-1.49
	c1.86-1.27,3.31-3.31,4.35-6.1c1.04-2.79,1.56-6.44,1.56-10.93C467.75,403.29,467.22,399.29,466.16,396.64z M386.95,391.07
	c-0.24-0.51-0.71-0.97-1.43-1.35c-0.72-0.39-1.69-0.59-2.89-0.59h-5.88c-1.25,0-2.26,0.21-3.02,0.63c-0.55,0.28-0.98,0.76-1.3,1.43
	c-0.23,0.48-0.35,1.73-0.35,3.76v11.45h15.22v-11.45C387.3,392.88,387.18,391.59,386.95,391.07z M372.08,409.03v12.52
	c0,2.07,0.12,3.36,0.37,3.88c0.24,0.52,0.72,0.97,1.42,1.36c0.71,0.39,1.67,0.58,2.88,0.58h1.43v1.1h3.05v-1.1h1.4
	c1.27,0,2.27-0.21,3.02-0.63c0.55-0.28,0.98-0.75,1.3-1.43c0.23-0.48,0.35-1.73,0.35-3.76v-12.52H372.08z M607.17,396.17
	c-1.38-2.42-3.15-4.07-5.31-4.95c-1.47-0.59-3.89-0.89-7.26-0.89h-0.33v31.55c0,1.67,0.08,2.7,0.25,3.07
	c0.17,0.38,0.46,0.67,0.86,0.87c0.57,0.3,1.4,0.45,2.48,0.45c3.54,0,6.24-1.14,8.1-3.4c2.54-3.07,3.81-7.82,3.81-14.26
	C609.77,403.42,608.91,399.27,607.17,396.17z M466.16,396.64c-1.06-2.66-2.41-4.53-4.05-5.63c-1.43-0.95-3.06-1.49-4.88-1.61
	c-0.26-0.02-0.52-0.03-0.79-0.03c-0.11,0-0.22,0-0.33,0.01c-3.78,0.1-6.67,1.99-8.66,5.66c-1.68,3.1-2.51,7.56-2.51,13.36
	c0,6.9,1.29,12,3.87,15.3c1.69,2.17,4.01,3.31,6.96,3.45c0.09,0.01,0.19,0.01,0.28,0.01h0.32c2.18,0,4.01-0.5,5.47-1.49
	c1.86-1.27,3.31-3.31,4.35-6.1c1.04-2.79,1.56-6.44,1.56-10.93C467.75,403.29,467.22,399.29,466.16,396.64z M75.28,116.45
	c-4.96,0-7.01,5.89-7.01,12.78v173.69c0,7.87,1.46,12.78,7.01,12.78c5.83,0,7.29-5.24,7.29-12.78V129.23
	C82.57,122.34,81.11,116.45,75.28,116.45z M607.17,396.17c-1.38-2.42-3.15-4.07-5.31-4.95c-1.47-0.59-3.89-0.89-7.26-0.89h-0.33
	v31.55c0,1.67,0.08,2.7,0.25,3.07c0.17,0.38,0.46,0.67,0.86,0.87c0.57,0.3,1.4,0.45,2.48,0.45c3.54,0,6.24-1.14,8.1-3.4
	c2.54-3.07,3.81-7.82,3.81-14.26C609.77,403.42,608.91,399.27,607.17,396.17z M466.16,396.64c-1.06-2.66-2.41-4.53-4.05-5.63
	c-1.43-0.95-3.06-1.49-4.88-1.61c-0.26-0.02-0.52-0.03-0.79-0.03c-0.11,0-0.22,0-0.33,0.01c-3.78,0.1-6.67,1.99-8.66,5.66
	c-1.68,3.1-2.51,7.56-2.51,13.36c0,6.9,1.29,12,3.87,15.3c1.69,2.17,4.01,3.31,6.96,3.45c0.09,0.01,0.19,0.01,0.28,0.01h0.32
	c2.18,0,4.01-0.5,5.47-1.49c1.86-1.27,3.31-3.31,4.35-6.1c1.04-2.79,1.56-6.44,1.56-10.93
	C467.75,403.29,467.22,399.29,466.16,396.64z M386.95,391.07c-0.24-0.51-0.71-0.97-1.43-1.35c-0.72-0.39-1.69-0.59-2.89-0.59h-5.88
	c-1.25,0-2.26,0.21-3.02,0.63c-0.55,0.28-0.98,0.76-1.3,1.43c-0.23,0.48-0.35,1.73-0.35,3.76v11.45h15.22v-11.45
	C387.3,392.88,387.18,391.59,386.95,391.07z M372.08,409.03v12.52c0,2.07,0.12,3.36,0.37,3.88c0.24,0.52,0.72,0.97,1.42,1.36
	c0.71,0.39,1.67,0.58,2.88,0.58h1.43v1.1h3.05v-1.1h1.4c1.27,0,2.27-0.21,3.02-0.63c0.55-0.28,0.98-0.75,1.3-1.43
	c0.23-0.48,0.35-1.73,0.35-3.76v-12.52H372.08z M75.28,116.45c-4.96,0-7.01,5.89-7.01,12.78v173.69c0,7.87,1.46,12.78,7.01,12.78
	c5.83,0,7.29-5.24,7.29-12.78V129.23C82.57,122.34,81.11,116.45,75.28,116.45z M607.17,396.17c-1.38-2.42-3.15-4.07-5.31-4.95
	c-1.47-0.59-3.89-0.89-7.26-0.89h-0.33v31.55c0,1.67,0.08,2.7,0.25,3.07c0.17,0.38,0.46,0.67,0.86,0.87c0.57,0.3,1.4,0.45,2.48,0.45
	c3.54,0,6.24-1.14,8.1-3.4c2.54-3.07,3.81-7.82,3.81-14.26C609.77,403.42,608.91,399.27,607.17,396.17z M466.16,396.64
	c-1.06-2.66-2.41-4.53-4.05-5.63c-1.43-0.95-3.06-1.49-4.88-1.61c-0.26-0.02-0.52-0.03-0.79-0.03c-0.11,0-0.22,0-0.33,0.01
	c-3.78,0.1-6.67,1.99-8.66,5.66c-1.68,3.1-2.51,7.56-2.51,13.36c0,6.9,1.29,12,3.87,15.3c1.69,2.17,4.01,3.31,6.96,3.45
	c0.09,0.01,0.19,0.01,0.28,0.01h0.32c2.18,0,4.01-0.5,5.47-1.49c1.86-1.27,3.31-3.31,4.35-6.1c1.04-2.79,1.56-6.44,1.56-10.93
	C467.75,403.29,467.22,399.29,466.16,396.64z M75.28,116.45c-4.96,0-7.01,5.89-7.01,12.78v173.69c0,7.87,1.46,12.78,7.01,12.78
	c5.83,0,7.29-5.24,7.29-12.78V129.23C82.57,122.34,81.11,116.45,75.28,116.45z M607.17,396.17c-1.38-2.42-3.15-4.07-5.31-4.95
	c-1.47-0.59-3.89-0.89-7.26-0.89h-0.33v31.55c0,1.67,0.08,2.7,0.25,3.07c0.17,0.38,0.46,0.67,0.86,0.87c0.57,0.3,1.4,0.45,2.48,0.45
	c3.54,0,6.24-1.14,8.1-3.4c2.54-3.07,3.81-7.82,3.81-14.26C609.77,403.42,608.91,399.27,607.17,396.17z M466.16,396.64
	c-1.06-2.66-2.41-4.53-4.05-5.63c-1.43-0.95-3.06-1.49-4.88-1.61c-0.26-0.02-0.52-0.03-0.79-0.03c-0.11,0-0.22,0-0.33,0.01
	c-3.78,0.1-6.67,1.99-8.66,5.66c-1.68,3.1-2.51,7.56-2.51,13.36c0,6.9,1.29,12,3.87,15.3c1.69,2.17,4.01,3.31,6.96,3.45
	c0.09,0.01,0.19,0.01,0.28,0.01h0.32c2.18,0,4.01-0.5,5.47-1.49c1.86-1.27,3.31-3.31,4.35-6.1c1.04-2.79,1.56-6.44,1.56-10.93
	C467.75,403.29,467.22,399.29,466.16,396.64z M386.95,391.07c-0.24-0.51-0.71-0.97-1.43-1.35c-0.72-0.39-1.69-0.59-2.89-0.59h-5.88
	c-1.25,0-2.26,0.21-3.02,0.63c-0.55,0.28-0.98,0.76-1.3,1.43c-0.23,0.48-0.35,1.73-0.35,3.76v11.45h15.22v-11.45
	C387.3,392.88,387.18,391.59,386.95,391.07z M372.08,409.03v12.52c0,2.07,0.12,3.36,0.37,3.88c0.24,0.52,0.72,0.97,1.42,1.36
	c0.71,0.39,1.67,0.58,2.88,0.58h1.43v1.1h3.05v-1.1h1.4c1.27,0,2.27-0.21,3.02-0.63c0.55-0.28,0.98-0.75,1.3-1.43
	c0.23-0.48,0.35-1.73,0.35-3.76v-12.52H372.08z M75.28,116.45c-4.96,0-7.01,5.89-7.01,12.78v173.69c0,7.87,1.46,12.78,7.01,12.78
	c5.83,0,7.29-5.24,7.29-12.78V129.23C82.57,122.34,81.11,116.45,75.28,116.45z M607.17,396.17c-1.38-2.42-3.15-4.07-5.31-4.95
	c-1.47-0.59-3.89-0.89-7.26-0.89h-0.33v31.55c0,1.67,0.08,2.7,0.25,3.07c0.17,0.38,0.46,0.67,0.86,0.87c0.57,0.3,1.4,0.45,2.48,0.45
	c3.54,0,6.24-1.14,8.1-3.4c2.54-3.07,3.81-7.82,3.81-14.26C609.77,403.42,608.91,399.27,607.17,396.17z M457.56,116.12v81.6
	c13.72,0,14.3-0.33,14.3-13.43v-54.74C471.86,116.45,471.57,116.12,457.56,116.12z M466.16,396.64c-1.06-2.66-2.41-4.53-4.05-5.63
	c-1.43-0.95-3.06-1.49-4.88-1.61c-0.26-0.02-0.52-0.03-0.79-0.03c-0.11,0-0.22,0-0.33,0.01c-3.78,0.1-6.67,1.99-8.66,5.66
	c-1.68,3.1-2.51,7.56-2.51,13.36c0,6.9,1.29,12,3.87,15.3c1.69,2.17,4.01,3.31,6.96,3.45c0.09,0.01,0.19,0.01,0.28,0.01h0.32
	c2.18,0,4.01-0.5,5.47-1.49c1.86-1.27,3.31-3.31,4.35-6.1c1.04-2.79,1.56-6.44,1.56-10.93
	C467.75,403.29,467.22,399.29,466.16,396.64z M75.28,116.45c-4.96,0-7.01,5.89-7.01,12.78v173.69c0,7.87,1.46,12.78,7.01,12.78
	c5.83,0,7.29-5.24,7.29-12.78V129.23C82.57,122.34,81.11,116.45,75.28,116.45z M607.17,396.17c-1.38-2.42-3.15-4.07-5.31-4.95
	c-1.47-0.59-3.89-0.89-7.26-0.89h-0.33v31.55c0,1.67,0.08,2.7,0.25,3.07c0.17,0.38,0.46,0.67,0.86,0.87c0.57,0.3,1.4,0.45,2.48,0.45
	c3.54,0,6.24-1.14,8.1-3.4c2.54-3.07,3.81-7.82,3.81-14.26C609.77,403.42,608.91,399.27,607.17,396.17z M466.16,396.64
	c-1.06-2.66-2.41-4.53-4.05-5.63c-1.43-0.95-3.06-1.49-4.88-1.61c-0.26-0.02-0.52-0.03-0.79-0.03c-0.11,0-0.22,0-0.33,0.01
	c-3.78,0.1-6.67,1.99-8.66,5.66c-1.68,3.1-2.51,7.56-2.51,13.36c0,6.9,1.29,12,3.87,15.3c1.69,2.17,4.01,3.31,6.96,3.45
	c0.09,0.01,0.19,0.01,0.28,0.01h0.32c2.18,0,4.01-0.5,5.47-1.49c1.86-1.27,3.31-3.31,4.35-6.1c1.04-2.79,1.56-6.44,1.56-10.93
	C467.75,403.29,467.22,399.29,466.16,396.64z M457.56,116.12v81.6c13.72,0,14.3-0.33,14.3-13.43v-54.74
	C471.86,116.45,471.57,116.12,457.56,116.12z M386.95,391.07c-0.24-0.51-0.71-0.97-1.43-1.35c-0.72-0.39-1.69-0.59-2.89-0.59h-5.88
	c-1.25,0-2.26,0.21-3.02,0.63c-0.55,0.28-0.98,0.76-1.3,1.43c-0.23,0.48-0.35,1.73-0.35,3.76v11.45h15.22v-11.45
	C387.3,392.88,387.18,391.59,386.95,391.07z M372.08,409.03v12.52c0,2.07,0.12,3.36,0.37,3.88c0.24,0.52,0.72,0.97,1.42,1.36
	c0.71,0.39,1.67,0.58,2.88,0.58h1.43v1.1h3.05v-1.1h1.4c1.27,0,2.27-0.21,3.02-0.63c0.55-0.28,0.98-0.75,1.3-1.43
	c0.23-0.48,0.35-1.73,0.35-3.76v-12.52H372.08z M75.28,116.45c-4.96,0-7.01,5.89-7.01,12.78v173.69c0,7.87,1.46,12.78,7.01,12.78
	c5.83,0,7.29-5.24,7.29-12.78V129.23C82.57,122.34,81.11,116.45,75.28,116.45z M704.44,116.12v103.56c13.72,0,14.3-0.33,14.3-13.44
	v-76.69C718.74,116.45,718.45,116.12,704.44,116.12z M607.17,396.17c-1.38-2.42-3.15-4.07-5.31-4.95c-1.47-0.59-3.89-0.89-7.26-0.89
	h-0.33v31.55c0,1.67,0.08,2.7,0.25,3.07c0.17,0.38,0.46,0.67,0.86,0.87c0.57,0.3,1.4,0.45,2.48,0.45c3.54,0,6.24-1.14,8.1-3.4
	c2.54-3.07,3.81-7.82,3.81-14.26C609.77,403.42,608.91,399.27,607.17,396.17z M457.56,116.12v81.6c13.72,0,14.3-0.33,14.3-13.43
	v-54.74C471.86,116.45,471.57,116.12,457.56,116.12z M466.16,396.64c-1.06-2.66-2.41-4.53-4.05-5.63c-1.43-0.95-3.06-1.49-4.88-1.61
	c-0.26-0.02-0.52-0.03-0.79-0.03c-0.11,0-0.22,0-0.33,0.01c-3.78,0.1-6.67,1.99-8.66,5.66c-1.68,3.1-2.51,7.56-2.51,13.36
	c0,6.9,1.29,12,3.87,15.3c1.69,2.17,4.01,3.31,6.96,3.45c0.09,0.01,0.19,0.01,0.28,0.01h0.32c2.18,0,4.01-0.5,5.47-1.49
	c1.86-1.27,3.31-3.31,4.35-6.1c1.04-2.79,1.56-6.44,1.56-10.93C467.75,403.29,467.22,399.29,466.16,396.64z M75.28,116.45
	c-4.96,0-7.01,5.89-7.01,12.78v173.69c0,7.87,1.46,12.78,7.01,12.78c5.83,0,7.29-5.24,7.29-12.78V129.23
	C82.57,122.34,81.11,116.45,75.28,116.45z M704.44,116.12v103.56c13.72,0,14.3-0.33,14.3-13.44v-76.69
	C718.74,116.45,718.45,116.12,704.44,116.12z M607.17,396.17c-1.38-2.42-3.15-4.07-5.31-4.95c-1.47-0.59-3.89-0.89-7.26-0.89h-0.33
	v31.55c0,1.67,0.08,2.7,0.25,3.07c0.17,0.38,0.46,0.67,0.86,0.87c0.57,0.3,1.4,0.45,2.48,0.45c3.54,0,6.24-1.14,8.1-3.4
	c2.54-3.07,3.81-7.82,3.81-14.26C609.77,403.42,608.91,399.27,607.17,396.17z M466.16,396.64c-1.06-2.66-2.41-4.53-4.05-5.63
	c-1.43-0.95-3.06-1.49-4.88-1.61c-0.26-0.02-0.52-0.03-0.79-0.03c-0.11,0-0.22,0-0.33,0.01c-3.78,0.1-6.67,1.99-8.66,5.66
	c-1.68,3.1-2.51,7.56-2.51,13.36c0,6.9,1.29,12,3.87,15.3c1.69,2.17,4.01,3.31,6.96,3.45c0.09,0.01,0.19,0.01,0.28,0.01h0.32
	c2.18,0,4.01-0.5,5.47-1.49c1.86-1.27,3.31-3.31,4.35-6.1c1.04-2.79,1.56-6.44,1.56-10.93
	C467.75,403.29,467.22,399.29,466.16,396.64z M457.56,116.12v81.6c13.72,0,14.3-0.33,14.3-13.43v-54.74
	C471.86,116.45,471.57,116.12,457.56,116.12z M386.95,391.07c-0.24-0.51-0.71-0.97-1.43-1.35c-0.72-0.39-1.69-0.59-2.89-0.59h-5.88
	c-1.25,0-2.26,0.21-3.02,0.63c-0.55,0.28-0.98,0.76-1.3,1.43c-0.23,0.48-0.35,1.73-0.35,3.76v11.45h15.22v-11.45
	C387.3,392.88,387.18,391.59,386.95,391.07z M372.08,409.03v12.52c0,2.07,0.12,3.36,0.37,3.88c0.24,0.52,0.72,0.97,1.42,1.36
	c0.71,0.39,1.67,0.58,2.88,0.58h1.43v1.1h3.05v-1.1h1.4c1.27,0,2.27-0.21,3.02-0.63c0.55-0.28,0.98-0.75,1.3-1.43
	c0.23-0.48,0.35-1.73,0.35-3.76v-12.52H372.08z M75.28,116.45c-4.96,0-7.01,5.89-7.01,12.78v173.69c0,7.87,1.46,12.78,7.01,12.78
	c5.83,0,7.29-5.24,7.29-12.78V129.23C82.57,122.34,81.11,116.45,75.28,116.45z M704.44,116.12v103.56c13.72,0,14.3-0.33,14.3-13.44
	v-76.69C718.74,116.45,718.45,116.12,704.44,116.12z M607.17,396.17c-1.38-2.42-3.15-4.07-5.31-4.95c-1.47-0.59-3.89-0.89-7.26-0.89
	h-0.33v31.55c0,1.67,0.08,2.7,0.25,3.07c0.17,0.38,0.46,0.67,0.86,0.87c0.57,0.3,1.4,0.45,2.48,0.45c3.54,0,6.24-1.14,8.1-3.4
	c2.54-3.07,3.81-7.82,3.81-14.26C609.77,403.42,608.91,399.27,607.17,396.17z M457.56,116.12v81.6c13.72,0,14.3-0.33,14.3-13.43
	v-54.74C471.86,116.45,471.57,116.12,457.56,116.12z M466.16,396.64c-1.06-2.66-2.41-4.53-4.05-5.63c-1.43-0.95-3.06-1.49-4.88-1.61
	c-0.26-0.02-0.52-0.03-0.79-0.03c-0.11,0-0.22,0-0.33,0.01c-3.78,0.1-6.67,1.99-8.66,5.66c-1.68,3.1-2.51,7.56-2.51,13.36
	c0,6.9,1.29,12,3.87,15.3c1.69,2.17,4.01,3.31,6.96,3.45c0.09,0.01,0.19,0.01,0.28,0.01h0.32c2.18,0,4.01-0.5,5.47-1.49
	c1.86-1.27,3.31-3.31,4.35-6.1c1.04-2.79,1.56-6.44,1.56-10.93C467.75,403.29,467.22,399.29,466.16,396.64z M75.28,116.45
	c-4.96,0-7.01,5.89-7.01,12.78v173.69c0,7.87,1.46,12.78,7.01,12.78c5.83,0,7.29-5.24,7.29-12.78V129.23
	C82.57,122.34,81.11,116.45,75.28,116.45z M704.44,116.12v103.56c13.72,0,14.3-0.33,14.3-13.44v-76.69
	C718.74,116.45,718.45,116.12,704.44,116.12z M607.17,396.17c-1.38-2.42-3.15-4.07-5.31-4.95c-1.47-0.59-3.89-0.89-7.26-0.89h-0.33
	v31.55c0,1.67,0.08,2.7,0.25,3.07c0.17,0.38,0.46,0.67,0.86,0.87c0.57,0.3,1.4,0.45,2.48,0.45c3.54,0,6.24-1.14,8.1-3.4
	c2.54-3.07,3.81-7.82,3.81-14.26C609.77,403.42,608.91,399.27,607.17,396.17z M466.16,396.64c-1.06-2.66-2.41-4.53-4.05-5.63
	c-1.43-0.95-3.06-1.49-4.88-1.61c-0.26-0.02-0.52-0.03-0.79-0.03c-0.11,0-0.22,0-0.33,0.01c-3.78,0.1-6.67,1.99-8.66,5.66
	c-1.68,3.1-2.51,7.56-2.51,13.36c0,6.9,1.29,12,3.87,15.3c1.69,2.17,4.01,3.31,6.96,3.45c0.09,0.01,0.19,0.01,0.28,0.01h0.32
	c2.18,0,4.01-0.5,5.47-1.49c1.86-1.27,3.31-3.31,4.35-6.1c1.04-2.79,1.56-6.44,1.56-10.93
	C467.75,403.29,467.22,399.29,466.16,396.64z M457.56,116.12v81.6c13.72,0,14.3-0.33,14.3-13.43v-54.74
	C471.86,116.45,471.57,116.12,457.56,116.12z M386.95,391.07c-0.24-0.51-0.71-0.97-1.43-1.35c-0.72-0.39-1.69-0.59-2.89-0.59h-5.88
	c-1.25,0-2.26,0.21-3.02,0.63c-0.55,0.28-0.98,0.76-1.3,1.43c-0.23,0.48-0.35,1.73-0.35,3.76v11.45h15.22v-11.45
	C387.3,392.88,387.18,391.59,386.95,391.07z M372.08,409.03v12.52c0,2.07,0.12,3.36,0.37,3.88c0.24,0.52,0.72,0.97,1.42,1.36
	c0.71,0.39,1.67,0.58,2.88,0.58h1.43v1.1h3.05v-1.1h1.4c1.27,0,2.27-0.21,3.02-0.63c0.55-0.28,0.98-0.75,1.3-1.43
	c0.23-0.48,0.35-1.73,0.35-3.76v-12.52H372.08z M75.28,116.45c-4.96,0-7.01,5.89-7.01,12.78v173.69c0,7.87,1.46,12.78,7.01,12.78
	c5.83,0,7.29-5.24,7.29-12.78V129.23C82.57,122.34,81.11,116.45,75.28,116.45z M704.44,116.12v103.56c13.72,0,14.3-0.33,14.3-13.44
	v-76.69C718.74,116.45,718.45,116.12,704.44,116.12z M607.17,396.17c-1.38-2.42-3.15-4.07-5.31-4.95c-1.47-0.59-3.89-0.89-7.26-0.89
	h-0.33v31.55c0,1.67,0.08,2.7,0.25,3.07c0.17,0.38,0.46,0.67,0.86,0.87c0.57,0.3,1.4,0.45,2.48,0.45c3.54,0,6.24-1.14,8.1-3.4
	c2.54-3.07,3.81-7.82,3.81-14.26C609.77,403.42,608.91,399.27,607.17,396.17z M457.56,116.12v81.6c13.72,0,14.3-0.33,14.3-13.43
	v-54.74C471.86,116.45,471.57,116.12,457.56,116.12z M466.16,396.64c-1.06-2.66-2.41-4.53-4.05-5.63c-1.43-0.95-3.06-1.49-4.88-1.61
	c-0.26-0.02-0.52-0.03-0.79-0.03c-0.11,0-0.22,0-0.33,0.01c-3.78,0.1-6.67,1.99-8.66,5.66c-1.68,3.1-2.51,7.56-2.51,13.36
	c0,6.9,1.29,12,3.87,15.3c1.69,2.17,4.01,3.31,6.96,3.45c0.09,0.01,0.19,0.01,0.28,0.01h0.32c2.18,0,4.01-0.5,5.47-1.49
	c1.86-1.27,3.31-3.31,4.35-6.1c1.04-2.79,1.56-6.44,1.56-10.93C467.75,403.29,467.22,399.29,466.16,396.64z M75.28,116.45
	c-4.96,0-7.01,5.89-7.01,12.78v173.69c0,7.87,1.46,12.78,7.01,12.78c5.83,0,7.29-5.24,7.29-12.78V129.23
	C82.57,122.34,81.11,116.45,75.28,116.45z M704.44,116.12v103.56c13.72,0,14.3-0.33,14.3-13.44v-76.69
	C718.74,116.45,718.45,116.12,704.44,116.12z M607.17,396.17c-1.38-2.42-3.15-4.07-5.31-4.95c-1.47-0.59-3.89-0.89-7.26-0.89h-0.33
	v31.55c0,1.67,0.08,2.7,0.25,3.07c0.17,0.38,0.46,0.67,0.86,0.87c0.57,0.3,1.4,0.45,2.48,0.45c3.54,0,6.24-1.14,8.1-3.4
	c2.54-3.07,3.81-7.82,3.81-14.26C609.77,403.42,608.91,399.27,607.17,396.17z M466.16,396.64c-1.06-2.66-2.41-4.53-4.05-5.63
	c-1.43-0.95-3.06-1.49-4.88-1.61c-0.26-0.02-0.52-0.03-0.79-0.03c-0.11,0-0.22,0-0.33,0.01c-3.78,0.1-6.67,1.99-8.66,5.66
	c-1.68,3.1-2.51,7.56-2.51,13.36c0,6.9,1.29,12,3.87,15.3c1.69,2.17,4.01,3.31,6.96,3.45c0.09,0.01,0.19,0.01,0.28,0.01h0.32
	c2.18,0,4.01-0.5,5.47-1.49c1.86-1.27,3.31-3.31,4.35-6.1c1.04-2.79,1.56-6.44,1.56-10.93
	C467.75,403.29,467.22,399.29,466.16,396.64z M457.56,116.12v81.6c13.72,0,14.3-0.33,14.3-13.43v-54.74
	C471.86,116.45,471.57,116.12,457.56,116.12z M386.95,391.07c-0.24-0.51-0.71-0.97-1.43-1.35c-0.72-0.39-1.69-0.59-2.89-0.59h-5.88
	c-1.25,0-2.26,0.21-3.02,0.63c-0.55,0.28-0.98,0.76-1.3,1.43c-0.23,0.48-0.35,1.73-0.35,3.76v11.45h15.22v-11.45
	C387.3,392.88,387.18,391.59,386.95,391.07z M372.08,409.03v12.52c0,2.07,0.12,3.36,0.37,3.88c0.24,0.52,0.72,0.97,1.42,1.36
	c0.71,0.39,1.67,0.58,2.88,0.58h1.43v1.1h3.05v-1.1h1.4c1.27,0,2.27-0.21,3.02-0.63c0.55-0.28,0.98-0.75,1.3-1.43
	c0.23-0.48,0.35-1.73,0.35-3.76v-12.52H372.08z M75.28,116.45c-4.96,0-7.01,5.89-7.01,12.78v173.69c0,7.87,1.46,12.78,7.01,12.78
	c5.83,0,7.29-5.24,7.29-12.78V129.23C82.57,122.34,81.11,116.45,75.28,116.45z M704.44,116.12v103.56c13.72,0,14.3-0.33,14.3-13.44
	v-76.69C718.74,116.45,718.45,116.12,704.44,116.12z M607.17,396.17c-1.38-2.42-3.15-4.07-5.31-4.95c-1.47-0.59-3.89-0.89-7.26-0.89
	h-0.33v31.55c0,1.67,0.08,2.7,0.25,3.07c0.17,0.38,0.46,0.67,0.86,0.87c0.57,0.3,1.4,0.45,2.48,0.45c3.54,0,6.24-1.14,8.1-3.4
	c2.54-3.07,3.81-7.82,3.81-14.26C609.77,403.42,608.91,399.27,607.17,396.17z M457.56,116.12v81.6c13.72,0,14.3-0.33,14.3-13.43
	v-54.74C471.86,116.45,471.57,116.12,457.56,116.12z M466.16,396.64c-1.06-2.66-2.41-4.53-4.05-5.63c-1.43-0.95-3.06-1.49-4.88-1.61
	c-0.26-0.02-0.52-0.03-0.79-0.03c-0.11,0-0.22,0-0.33,0.01c-3.78,0.1-6.67,1.99-8.66,5.66c-1.68,3.1-2.51,7.56-2.51,13.36
	c0,6.9,1.29,12,3.87,15.3c1.69,2.17,4.01,3.31,6.96,3.45c0.09,0.01,0.19,0.01,0.28,0.01h0.32c2.18,0,4.01-0.5,5.47-1.49
	c1.86-1.27,3.31-3.31,4.35-6.1c1.04-2.79,1.56-6.44,1.56-10.93C467.75,403.29,467.22,399.29,466.16,396.64z M75.28,116.45
	c-4.96,0-7.01,5.89-7.01,12.78v173.69c0,7.87,1.46,12.78,7.01,12.78c5.83,0,7.29-5.24,7.29-12.78V129.23
	C82.57,122.34,81.11,116.45,75.28,116.45z M75.28,116.45c-4.96,0-7.01,5.89-7.01,12.78v173.69c0,7.87,1.46,12.78,7.01,12.78
	c5.83,0,7.29-5.24,7.29-12.78V129.23C82.57,122.34,81.11,116.45,75.28,116.45z M386.95,391.07c-0.24-0.51-0.71-0.97-1.43-1.35
	c-0.72-0.39-1.69-0.59-2.89-0.59h-5.88c-1.25,0-2.26,0.21-3.02,0.63c-0.55,0.28-0.98,0.76-1.3,1.43c-0.23,0.48-0.35,1.73-0.35,3.76
	v11.45h15.22v-11.45C387.3,392.88,387.18,391.59,386.95,391.07z M372.08,409.03v12.52c0,2.07,0.12,3.36,0.37,3.88
	c0.24,0.52,0.72,0.97,1.42,1.36c0.71,0.39,1.67,0.58,2.88,0.58h1.43v1.1h3.05v-1.1h1.4c1.27,0,2.27-0.21,3.02-0.63
	c0.55-0.28,0.98-0.75,1.3-1.43c0.23-0.48,0.35-1.73,0.35-3.76v-12.52H372.08z M466.16,396.64c-1.06-2.66-2.41-4.53-4.05-5.63
	c-1.43-0.95-3.06-1.49-4.88-1.61c-0.26-0.02-0.52-0.03-0.79-0.03c-0.11,0-0.22,0-0.33,0.01c-3.78,0.1-6.67,1.99-8.66,5.66
	c-1.68,3.1-2.51,7.56-2.51,13.36c0,6.9,1.29,12,3.87,15.3c1.69,2.17,4.01,3.31,6.96,3.45c0.09,0.01,0.19,0.01,0.28,0.01h0.32
	c2.18,0,4.01-0.5,5.47-1.49c1.86-1.27,3.31-3.31,4.35-6.1c1.04-2.79,1.56-6.44,1.56-10.93
	C467.75,403.29,467.22,399.29,466.16,396.64z M457.56,116.12v81.6c13.72,0,14.3-0.33,14.3-13.43v-54.74
	C471.86,116.45,471.57,116.12,457.56,116.12z M607.17,396.17c-1.38-2.42-3.15-4.07-5.31-4.95c-1.47-0.59-3.89-0.89-7.26-0.89h-0.33
	v31.55c0,1.67,0.08,2.7,0.25,3.07c0.17,0.38,0.46,0.67,0.86,0.87c0.57,0.3,1.4,0.45,2.48,0.45c3.54,0,6.24-1.14,8.1-3.4
	c2.54-3.07,3.81-7.82,3.81-14.26C609.77,403.42,608.91,399.27,607.17,396.17z M704.44,116.12v103.56c13.72,0,14.3-0.33,14.3-13.44
	v-76.69C718.74,116.45,718.45,116.12,704.44,116.12z M704.44,116.12v103.56c13.72,0,14.3-0.33,14.3-13.44v-76.69
	C718.74,116.45,718.45,116.12,704.44,116.12z M607.17,396.17c-1.38-2.42-3.15-4.07-5.31-4.95c-1.47-0.59-3.89-0.89-7.26-0.89h-0.33
	v31.55c0,1.67,0.08,2.7,0.25,3.07c0.17,0.38,0.46,0.67,0.86,0.87c0.57,0.3,1.4,0.45,2.48,0.45c3.54,0,6.24-1.14,8.1-3.4
	c2.54-3.07,3.81-7.82,3.81-14.26C609.77,403.42,608.91,399.27,607.17,396.17z M457.56,116.12v81.6c13.72,0,14.3-0.33,14.3-13.43
	v-54.74C471.86,116.45,471.57,116.12,457.56,116.12z M466.16,396.64c-1.06-2.66-2.41-4.53-4.05-5.63c-1.43-0.95-3.06-1.49-4.88-1.61
	c-0.26-0.02-0.52-0.03-0.79-0.03c-0.11,0-0.22,0-0.33,0.01c-3.78,0.1-6.67,1.99-8.66,5.66c-1.68,3.1-2.51,7.56-2.51,13.36
	c0,6.9,1.29,12,3.87,15.3c1.69,2.17,4.01,3.31,6.96,3.45c0.09,0.01,0.19,0.01,0.28,0.01h0.32c2.18,0,4.01-0.5,5.47-1.49
	c1.86-1.27,3.31-3.31,4.35-6.1c1.04-2.79,1.56-6.44,1.56-10.93C467.75,403.29,467.22,399.29,466.16,396.64z M75.28,116.45
	c-4.96,0-7.01,5.89-7.01,12.78v173.69c0,7.87,1.46,12.78,7.01,12.78c5.83,0,7.29-5.24,7.29-12.78V129.23
	C82.57,122.34,81.11,116.45,75.28,116.45z M704.44,116.12v103.56c13.72,0,14.3-0.33,14.3-13.44v-76.69
	C718.74,116.45,718.45,116.12,704.44,116.12z M607.17,396.17c-1.38-2.42-3.15-4.07-5.31-4.95c-1.47-0.59-3.89-0.89-7.26-0.89h-0.33
	v31.55c0,1.67,0.08,2.7,0.25,3.07c0.17,0.38,0.46,0.67,0.86,0.87c0.57,0.3,1.4,0.45,2.48,0.45c3.54,0,6.24-1.14,8.1-3.4
	c2.54-3.07,3.81-7.82,3.81-14.26C609.77,403.42,608.91,399.27,607.17,396.17z M466.16,396.64c-1.06-2.66-2.41-4.53-4.05-5.63
	c-1.43-0.95-3.06-1.49-4.88-1.61c-0.26-0.02-0.52-0.03-0.79-0.03c-0.11,0-0.22,0-0.33,0.01c-3.78,0.1-6.67,1.99-8.66,5.66
	c-1.68,3.1-2.51,7.56-2.51,13.36c0,6.9,1.29,12,3.87,15.3c1.69,2.17,4.01,3.31,6.96,3.45c0.09,0.01,0.19,0.01,0.28,0.01h0.32
	c2.18,0,4.01-0.5,5.47-1.49c1.86-1.27,3.31-3.31,4.35-6.1c1.04-2.79,1.56-6.44,1.56-10.93
	C467.75,403.29,467.22,399.29,466.16,396.64z M457.56,116.12v81.6c13.72,0,14.3-0.33,14.3-13.43v-54.74
	C471.86,116.45,471.57,116.12,457.56,116.12z M386.95,391.07c-0.24-0.51-0.71-0.97-1.43-1.35c-0.72-0.39-1.69-0.59-2.89-0.59h-5.88
	c-1.25,0-2.26,0.21-3.02,0.63c-0.55,0.28-0.98,0.76-1.3,1.43c-0.23,0.48-0.35,1.73-0.35,3.76v11.45h15.22v-11.45
	C387.3,392.88,387.18,391.59,386.95,391.07z M372.08,421.55c0,2.07,0.12,3.36,0.37,3.88c0.24,0.52,0.72,0.97,1.42,1.36
	c0.71,0.39,1.67,0.58,2.88,0.58h1.43v1.1h3.05v-1.1h1.4c1.27,0,2.27-0.21,3.02-0.63c0.55-0.28,0.98-0.75,1.3-1.43
	c0.23-0.48,0.35-1.73,0.35-3.76v-12.52h-15.22V421.55z M75.28,116.45c-4.96,0-7.01,5.89-7.01,12.78v173.69
	c0,7.87,1.46,12.78,7.01,12.78c5.83,0,7.29-5.24,7.29-12.78V129.23C82.57,122.34,81.11,116.45,75.28,116.45z M704.44,116.12v103.56
	c13.72,0,14.3-0.33,14.3-13.44v-76.69C718.74,116.45,718.45,116.12,704.44,116.12z M601.86,391.22c-1.47-0.59-3.89-0.89-7.26-0.89
	h-0.33v31.55c0,1.67,0.08,2.7,0.25,3.07c0.17,0.38,0.46,0.67,0.86,0.87c0.57,0.3,1.4,0.45,2.48,0.45c3.54,0,6.24-1.14,8.1-3.4
	c2.54-3.07,3.81-7.82,3.81-14.26c0-5.19-0.86-9.34-2.6-12.44C605.79,393.75,604.02,392.1,601.86,391.22z M471.86,184.29v-54.74
	c0-13.1-0.29-13.43-14.3-13.43v81.6C471.28,197.72,471.86,197.39,471.86,184.29z M462.11,391.01c-1.43-0.95-3.06-1.49-4.88-1.61
	c-0.26-0.02-0.52-0.03-0.79-0.03c-0.11,0-0.22,0-0.33,0.01c-3.78,0.1-6.67,1.99-8.66,5.66c-1.68,3.1-2.51,7.56-2.51,13.36
	c0,6.9,1.29,12,3.87,15.3c1.69,2.17,4.01,3.31,6.96,3.45c0.09,0.01,0.19,0.01,0.28,0.01h0.32c2.18,0,4.01-0.5,5.47-1.49
	c1.86-1.27,3.31-3.31,4.35-6.1c1.04-2.79,1.56-6.44,1.56-10.93c0-5.35-0.53-9.35-1.59-12C465.1,393.98,463.75,392.11,462.11,391.01z
	 M0,0v456.52h780.92V0H0z M323.03,80.72h70.04v37.69h-28.31v64.24h28.31v37.36h-28.31v93.73h28.31v37.69h-70.04V80.72z
	 M236.65,80.72h41.73V315.7h23.06v35.73h-64.79V80.72z M63.78,428.47H26.54v-1.1h1.43c1.25,0,2.26-0.21,3.02-0.63
	c0.55-0.28,0.98-0.75,1.27-1.43c0.24-0.48,0.35-1.73,0.35-3.76v-26.6c0-1.83-0.05-2.95-0.16-3.37c-0.21-0.7-0.6-1.23-1.17-1.61
	c-0.81-0.56-1.91-0.84-3.31-0.84h-1.43v-1.1H62.6v11.96h-1.2c-0.62-2.92-1.48-5.02-2.59-6.29c-1.12-1.27-2.69-2.21-4.72-2.81
	c-1.19-0.35-3.41-0.53-6.67-0.53h-4.45v16.46h0.86c2.73,0,4.71-0.8,5.94-2.42c1.23-1.61,2.01-3.98,2.35-7.12h1.21v21.17h-1.21
	c-0.26-2.3-0.79-4.19-1.61-5.66c-0.81-1.48-1.76-2.47-2.84-2.97c-1.08-0.51-2.65-0.76-4.7-0.76v11.39c0,2.23,0.1,3.59,0.3,4.09
	c0.2,0.49,0.58,0.9,1.13,1.22s1.44,0.48,2.67,0.48h2.57c4.02,0,7.25-0.88,9.67-2.63c2.43-1.75,4.17-4.41,5.23-7.99h1.18
	L63.78,428.47z M64.48,351.43c-33.85,0-37.94-12.46-37.94-45.56V126.28c0-33.1,4.09-45.56,37.94-45.56h21.89
	c34.14,0,37.93,13.11,37.93,45.56v179.59c0,32.45-3.79,45.56-37.93,45.56H64.48z M134.12,428.47H95.87v-1.1h1.43
	c1.25,0,2.26-0.21,3.02-0.63c0.55-0.28,0.97-0.75,1.27-1.43c0.23-0.48,0.35-1.73,0.35-3.76v-26.6c0-2.07-0.12-3.36-0.35-3.88
	c-0.23-0.51-0.7-0.97-1.41-1.35c-0.71-0.39-1.67-0.59-2.88-0.59h-1.43v-1.1h22.97v1.1h-1.87c-1.25,0-2.26,0.21-3.02,0.63
	c-0.55,0.28-0.98,0.76-1.3,1.43c-0.24,0.48-0.35,1.73-0.35,3.76v25.77c0,2.07,0.13,3.38,0.38,3.95s0.75,0.99,1.49,1.27
	c0.53,0.18,1.81,0.27,3.85,0.27h3.59c2.28,0,4.19-0.38,5.72-1.14c1.52-0.75,2.84-1.95,3.95-3.58s2.17-4.03,3.16-7.21h1.31
	L134.12,428.47z M187.92,389.13h-1.43c-1.25,0-2.26,0.21-3.02,0.63c-0.55,0.28-0.98,0.76-1.3,1.43c-0.23,0.48-0.35,1.73-0.35,3.76
	v26.6c0,2.07,0.12,3.36,0.36,3.88c0.25,0.52,0.72,0.97,1.43,1.36c0.71,0.39,1.67,0.58,2.88,0.58h1.43v1.1h-22.53v-1.1h1.43
	c1.25,0,2.26-0.21,3.02-0.63c0.55-0.28,0.98-0.75,1.27-1.43c0.24-0.48,0.35-1.73,0.35-3.76v-26.6c0-2.07-0.11-3.36-0.35-3.88
	c-0.23-0.51-0.7-0.97-1.41-1.35c-0.71-0.39-1.67-0.59-2.88-0.59h-1.43v-1.1h22.53V389.13z M215.06,351.43h-64.78V80.72h41.73V315.7
	h23.05V351.43z M256.49,398.98h-1.15c-0.68-2.53-1.43-4.34-2.25-5.45c-0.83-1.1-1.96-1.98-3.4-2.64c-0.81-0.35-2.22-0.53-4.23-0.53
	h-3.21v31.19c0,2.07,0.12,3.36,0.37,3.88c0.24,0.52,0.72,0.97,1.43,1.36c0.71,0.39,1.68,0.58,2.9,0.58h1.43v1.1h-22.55v-1.1h1.43
	c1.25,0,2.25-0.21,3.02-0.63c0.55-0.28,0.98-0.75,1.3-1.43c0.23-0.48,0.35-1.73,0.35-3.76v-31.19h-3.12c-2.9,0-5.01,0.57-6.32,1.73
	c-1.84,1.61-3.01,3.9-3.49,6.89h-1.21v-10.95h38.7V398.98z M323.4,428.47h-37.23v-1.1h1.43c1.25,0,2.25-0.21,3.01-0.63
	c0.55-0.28,0.98-0.75,1.27-1.43c0.24-0.48,0.35-1.73,0.35-3.76v-26.6c0-1.83-0.05-2.95-0.15-3.37c-0.22-0.7-0.61-1.23-1.18-1.61
	c-0.81-0.56-1.91-0.84-3.3-0.84h-1.43v-1.1h36.06v11.96h-1.21c-0.62-2.92-1.48-5.02-2.59-6.29c-1.11-1.27-2.69-2.21-4.72-2.81
	c-1.19-0.35-3.41-0.53-6.67-0.53h-4.45v16.46h0.86c2.73,0,4.71-0.8,5.94-2.42c1.23-1.61,2.01-3.98,2.35-7.12h1.21v21.17h-1.21
	c-0.25-2.3-0.79-4.19-1.6-5.66c-0.82-1.48-1.77-2.47-2.85-2.97c-1.08-0.51-2.64-0.76-4.7-0.76v11.39c0,2.23,0.1,3.59,0.3,4.09
	c0.2,0.49,0.58,0.9,1.13,1.22s1.44,0.48,2.67,0.48h2.57c4.03,0,7.25-0.88,9.68-2.63c2.42-1.75,4.16-4.41,5.22-7.99h1.18
	L323.4,428.47z M403.72,389.13h-1.4c-1.27,0-2.27,0.21-3.01,0.63c-0.55,0.28-0.99,0.76-1.31,1.43c-0.23,0.48-0.35,1.73-0.35,3.76
	v26.6c0,2.07,0.12,3.36,0.35,3.88c0.24,0.52,0.71,0.97,1.43,1.36c0.72,0.39,1.69,0.58,2.89,0.58h1.4v1.1h-22.49v-1.1h1.4
	c1.27,0,2.27-0.21,3.02-0.63c0.55-0.28,0.98-0.75,1.3-1.43c0.23-0.48,0.35-1.73,0.35-3.76v-12.52h-15.22v12.52
	c0,2.07,0.12,3.36,0.37,3.88c0.24,0.52,0.72,0.97,1.42,1.36c0.71,0.39,1.67,0.58,2.88,0.58h1.43v1.1h-22.53v-1.1h1.43
	c1.25,0,2.26-0.21,3.02-0.63c0.55-0.28,0.98-0.75,1.27-1.43c0.24-0.48,0.35-1.73,0.35-3.76v-26.6c0-2.07-0.11-3.36-0.35-3.88
	c-0.23-0.51-0.7-0.97-1.41-1.35c-0.71-0.39-1.67-0.59-2.88-0.59h-1.43v-1.1h22.53v1.1h-1.43c-1.25,0-2.26,0.21-3.02,0.63
	c-0.55,0.28-0.98,0.76-1.3,1.43c-0.23,0.48-0.35,1.73-0.35,3.76v11.45h15.22v-11.45c0-2.07-0.12-3.36-0.35-3.88
	c-0.24-0.51-0.71-0.97-1.43-1.35c-0.72-0.39-1.69-0.59-2.89-0.59h-1.4v-1.1h22.49V389.13z M415.83,80.72h59.82
	c33.86,0,37.94,13.11,37.94,45.56v53.74c0,18.69,0,23.6-14.88,36.71c16.34,13.76,14.88,28.51,14.88,46.21v88.49h-41.73V247.86
	c0-12.78-5.84-13.1-14.3-13.1v116.67h-41.73V80.72z M474.42,421.64c-4.24,5.17-10.22,7.76-17.95,7.76c-0.13,0-0.25,0-0.37-0.01
	h-0.11c-0.1,0-0.19,0-0.27-0.01c-7.39-0.14-13.14-2.61-17.23-7.38c-3.35-3.9-5.02-8.52-5.02-13.87c0-6,2.17-11.01,6.53-15.01
	c4.35-4.01,9.7-5.89,16.06-5.66c0.12,0,0.23-0.01,0.35-0.01h0.01c0.26-0.01,0.53-0.01,0.79-0.01h0.05
	c6.32,0.01,11.48,1.9,15.52,5.66c4.29,4,6.44,9,6.44,15C479.22,413.23,477.62,417.75,474.42,421.64z M547.02,428.47h-38.25v-1.1
	h1.43c1.25,0,2.25-0.21,3.02-0.63c0.55-0.28,0.97-0.75,1.27-1.43c0.23-0.48,0.35-1.73,0.35-3.76v-26.6c0-2.07-0.12-3.36-0.35-3.88
	c-0.24-0.51-0.71-0.97-1.42-1.35c-0.71-0.39-1.66-0.59-2.87-0.59h-1.43v-1.1h22.97v1.1h-1.88c-1.25,0-2.25,0.21-3.01,0.63
	c-0.55,0.28-0.99,0.76-1.31,1.43c-0.23,0.48-0.35,1.73-0.35,3.76v25.77c0,2.07,0.13,3.38,0.39,3.95c0.25,0.57,0.75,0.99,1.49,1.27
	c0.53,0.18,1.81,0.27,3.84,0.27h3.59c2.29,0,4.2-0.38,5.72-1.14c1.53-0.75,2.85-1.95,3.96-3.58c1.11-1.63,2.16-4.03,3.16-7.21h1.3
	L547.02,428.47z M619.78,416.23c-0.97,2.4-2.23,4.37-3.78,5.94c-1.54,1.56-3.33,2.81-5.35,3.75c-2.03,0.95-4.5,1.68-7.42,2.19
	c-1.17,0.22-2.96,0.34-5.35,0.35c-0.24,0.01-0.49,0.01-0.75,0.01h-19.29v-1.1h1.43c1.25,0,2.21-0.18,2.88-0.55s1.16-0.87,1.48-1.51
	c0.19-0.42,0.28-1.67,0.28-3.76v-26.6c0-2.07-0.11-3.36-0.35-3.88c-0.23-0.51-0.7-0.97-1.41-1.35c-0.71-0.39-1.67-0.59-2.88-0.59
	h-1.43v-1.1h19.29c5.15,0,9.29,0.66,12.42,1.97c3.83,1.61,6.74,4.05,8.72,7.31s2.97,6.95,2.97,11.06
	C621.24,411.22,620.76,413.83,619.78,416.23z M636.16,305.87c0,32.45-4.09,45.56-37.94,45.56h-21.89
	c-34.14,0-37.93-12.46-37.93-45.56V80.72h41.73v222.2c0,7.87,1.17,12.78,7,12.78c5.55,0,7.3-5.24,7.3-12.78V80.72h41.73V305.87z
	 M688.54,428.47H651.3v-1.1h1.43c1.25,0,2.26-0.21,3.02-0.63c0.55-0.28,0.98-0.75,1.27-1.43c0.24-0.48,0.35-1.73,0.35-3.76v-26.6
	c0-1.83-0.05-2.95-0.16-3.37c-0.21-0.7-0.6-1.23-1.17-1.61c-0.81-0.56-1.91-0.84-3.31-0.84h-1.43v-1.1h36.06v11.96h-1.2
	c-0.62-2.92-1.48-5.02-2.59-6.29c-1.12-1.27-2.69-2.21-4.72-2.81c-1.19-0.35-3.41-0.53-6.67-0.53h-4.45v16.46h0.86
	c2.73,0,4.71-0.8,5.94-2.42c1.23-1.61,2.01-3.98,2.35-7.12h1.21v21.17h-1.21c-0.25-2.3-0.79-4.19-1.61-5.66
	c-0.81-1.48-1.76-2.47-2.84-2.97c-1.08-0.51-2.65-0.76-4.7-0.76v11.39c0,2.23,0.1,3.59,0.3,4.09c0.2,0.49,0.58,0.9,1.13,1.22
	c0.55,0.32,1.44,0.48,2.67,0.48h2.57c4.02,0,7.25-0.88,9.68-2.63c2.42-1.75,4.16-4.41,5.22-7.99h1.18L688.54,428.47z M760.47,398.98
	h-1.14c-0.68-2.53-1.43-4.34-2.25-5.45c-0.83-1.1-1.96-1.98-3.4-2.64c-0.81-0.35-2.22-0.53-4.23-0.53h-3.21v31.19
	c0,2.07,0.12,3.36,0.37,3.88c0.24,0.52,0.72,0.97,1.43,1.36c0.71,0.39,1.68,0.58,2.9,0.58h1.43v1.1h-22.55v-1.1h1.42
	c1.25,0,2.26-0.21,3.02-0.63c0.55-0.28,0.99-0.75,1.31-1.43c0.23-0.48,0.35-1.73,0.35-3.76v-31.19h-3.12c-2.9,0-5.01,0.57-6.32,1.73
	c-1.84,1.61-3.01,3.9-3.49,6.89h-1.21v-10.95h38.69V398.98z M760.47,209.52c0,32.45-4.08,45.55-37.93,45.55c0,0-15.18,0-18.1,0
	v96.36h-41.73V80.72h59.83c33.85,0,37.93,13.11,37.93,45.56V209.52z M75.28,116.45c-4.96,0-7.01,5.89-7.01,12.78v173.69
	c0,7.87,1.46,12.78,7.01,12.78c5.83,0,7.29-5.24,7.29-12.78V129.23C82.57,122.34,81.11,116.45,75.28,116.45z M466.16,396.64
	c-1.06-2.66-2.41-4.53-4.05-5.63c-1.43-0.95-3.06-1.49-4.88-1.61c-0.26-0.02-0.52-0.03-0.79-0.03c-0.11,0-0.22,0-0.33,0.01
	c-3.78,0.1-6.67,1.99-8.66,5.66c-1.68,3.1-2.51,7.56-2.51,13.36c0,6.9,1.29,12,3.87,15.3c1.69,2.17,4.01,3.31,6.96,3.45
	c0.09,0.01,0.19,0.01,0.28,0.01h0.32c2.18,0,4.01-0.5,5.47-1.49c1.86-1.27,3.31-3.31,4.35-6.1c1.04-2.79,1.56-6.44,1.56-10.93
	C467.75,403.29,467.22,399.29,466.16,396.64z M457.56,116.12v81.6c13.72,0,14.3-0.33,14.3-13.43v-54.74
	C471.86,116.45,471.57,116.12,457.56,116.12z M607.17,396.17c-1.38-2.42-3.15-4.07-5.31-4.95c-1.47-0.59-3.89-0.89-7.26-0.89h-0.33
	v31.55c0,1.67,0.08,2.7,0.25,3.07c0.17,0.38,0.46,0.67,0.86,0.87c0.57,0.3,1.4,0.45,2.48,0.45c3.54,0,6.24-1.14,8.1-3.4
	c2.54-3.07,3.81-7.82,3.81-14.26C609.77,403.42,608.91,399.27,607.17,396.17z M704.44,116.12v103.56c13.72,0,14.3-0.33,14.3-13.44
	v-76.69C718.74,116.45,718.45,116.12,704.44,116.12z M704.44,116.12v103.56c13.72,0,14.3-0.33,14.3-13.44v-76.69
	C718.74,116.45,718.45,116.12,704.44,116.12z M607.17,396.17c-1.38-2.42-3.15-4.07-5.31-4.95c-1.47-0.59-3.89-0.89-7.26-0.89h-0.33
	v31.55c0,1.67,0.08,2.7,0.25,3.07c0.17,0.38,0.46,0.67,0.86,0.87c0.57,0.3,1.4,0.45,2.48,0.45c3.54,0,6.24-1.14,8.1-3.4
	c2.54-3.07,3.81-7.82,3.81-14.26C609.77,403.42,608.91,399.27,607.17,396.17z M457.56,116.12v81.6c13.72,0,14.3-0.33,14.3-13.43
	v-54.74C471.86,116.45,471.57,116.12,457.56,116.12z M466.16,396.64c-1.06-2.66-2.41-4.53-4.05-5.63c-1.43-0.95-3.06-1.49-4.88-1.61
	c-0.26-0.02-0.52-0.03-0.79-0.03c-0.11,0-0.22,0-0.33,0.01c-3.78,0.1-6.67,1.99-8.66,5.66c-1.68,3.1-2.51,7.56-2.51,13.36
	c0,6.9,1.29,12,3.87,15.3c1.69,2.17,4.01,3.31,6.96,3.45c0.09,0.01,0.19,0.01,0.28,0.01h0.32c2.18,0,4.01-0.5,5.47-1.49
	c1.86-1.27,3.31-3.31,4.35-6.1c1.04-2.79,1.56-6.44,1.56-10.93C467.75,403.29,467.22,399.29,466.16,396.64z M372.08,409.03v12.52
	c0,2.07,0.12,3.36,0.37,3.88c0.24,0.52,0.72,0.97,1.42,1.36c0.71,0.39,1.67,0.58,2.88,0.58h1.43v1.1h3.05v-1.1h1.4
	c1.27,0,2.27-0.21,3.02-0.63c0.55-0.28,0.98-0.75,1.3-1.43c0.23-0.48,0.35-1.73,0.35-3.76v-12.52H372.08z M386.95,391.07
	c-0.24-0.51-0.71-0.97-1.43-1.35c-0.72-0.39-1.69-0.59-2.89-0.59h-5.88c-1.25,0-2.26,0.21-3.02,0.63c-0.55,0.28-0.98,0.76-1.3,1.43
	c-0.23,0.48-0.35,1.73-0.35,3.76v11.45h15.22v-11.45C387.3,392.88,387.18,391.59,386.95,391.07z M75.28,116.45
	c-4.96,0-7.01,5.89-7.01,12.78v173.69c0,7.87,1.46,12.78,7.01,12.78c5.83,0,7.29-5.24,7.29-12.78V129.23
	C82.57,122.34,81.11,116.45,75.28,116.45z M75.28,116.45c-4.96,0-7.01,5.89-7.01,12.78v173.69c0,7.87,1.46,12.78,7.01,12.78
	c5.83,0,7.29-5.24,7.29-12.78V129.23C82.57,122.34,81.11,116.45,75.28,116.45z M466.16,396.64c-1.06-2.66-2.41-4.53-4.05-5.63
	c-1.43-0.95-3.06-1.49-4.88-1.61c-0.26-0.02-0.52-0.03-0.79-0.03c-0.11,0-0.22,0-0.33,0.01c-3.78,0.1-6.67,1.99-8.66,5.66
	c-1.68,3.1-2.51,7.56-2.51,13.36c0,6.9,1.29,12,3.87,15.3c1.69,2.17,4.01,3.31,6.96,3.45c0.09,0.01,0.19,0.01,0.28,0.01h0.32
	c2.18,0,4.01-0.5,5.47-1.49c1.86-1.27,3.31-3.31,4.35-6.1c1.04-2.79,1.56-6.44,1.56-10.93
	C467.75,403.29,467.22,399.29,466.16,396.64z M457.56,116.12v81.6c13.72,0,14.3-0.33,14.3-13.43v-54.74
	C471.86,116.45,471.57,116.12,457.56,116.12z M607.17,396.17c-1.38-2.42-3.15-4.07-5.31-4.95c-1.47-0.59-3.89-0.89-7.26-0.89h-0.33
	v31.55c0,1.67,0.08,2.7,0.25,3.07c0.17,0.38,0.46,0.67,0.86,0.87c0.57,0.3,1.4,0.45,2.48,0.45c3.54,0,6.24-1.14,8.1-3.4
	c2.54-3.07,3.81-7.82,3.81-14.26C609.77,403.42,608.91,399.27,607.17,396.17z M704.44,116.12v103.56c13.72,0,14.3-0.33,14.3-13.44
	v-76.69C718.74,116.45,718.45,116.12,704.44,116.12z M75.28,116.45c-4.96,0-7.01,5.89-7.01,12.78v173.69
	c0,7.87,1.46,12.78,7.01,12.78c5.83,0,7.29-5.24,7.29-12.78V129.23C82.57,122.34,81.11,116.45,75.28,116.45z M372.08,409.03v12.52
	c0,2.07,0.12,3.36,0.37,3.88c0.24,0.52,0.72,0.97,1.42,1.36c0.71,0.39,1.67,0.58,2.88,0.58h1.43v1.1h3.05v-1.1h1.4
	c1.27,0,2.27-0.21,3.02-0.63c0.55-0.28,0.98-0.75,1.3-1.43c0.23-0.48,0.35-1.73,0.35-3.76v-12.52H372.08z M386.95,391.07
	c-0.24-0.51-0.71-0.97-1.43-1.35c-0.72-0.39-1.69-0.59-2.89-0.59h-5.88c-1.25,0-2.26,0.21-3.02,0.63c-0.55,0.28-0.98,0.76-1.3,1.43
	c-0.23,0.48-0.35,1.73-0.35,3.76v11.45h15.22v-11.45C387.3,392.88,387.18,391.59,386.95,391.07z M457.56,116.12v81.6
	c13.72,0,14.3-0.33,14.3-13.43v-54.74C471.86,116.45,471.57,116.12,457.56,116.12z M466.16,396.64c-1.06-2.66-2.41-4.53-4.05-5.63
	c-1.43-0.95-3.06-1.49-4.88-1.61c-0.26-0.02-0.52-0.03-0.79-0.03c-0.11,0-0.22,0-0.33,0.01c-3.78,0.1-6.67,1.99-8.66,5.66
	c-1.68,3.1-2.51,7.56-2.51,13.36c0,6.9,1.29,12,3.87,15.3c1.69,2.17,4.01,3.31,6.96,3.45c0.09,0.01,0.19,0.01,0.28,0.01h0.32
	c2.18,0,4.01-0.5,5.47-1.49c1.86-1.27,3.31-3.31,4.35-6.1c1.04-2.79,1.56-6.44,1.56-10.93
	C467.75,403.29,467.22,399.29,466.16,396.64z M607.17,396.17c-1.38-2.42-3.15-4.07-5.31-4.95c-1.47-0.59-3.89-0.89-7.26-0.89h-0.33
	v31.55c0,1.67,0.08,2.7,0.25,3.07c0.17,0.38,0.46,0.67,0.86,0.87c0.57,0.3,1.4,0.45,2.48,0.45c3.54,0,6.24-1.14,8.1-3.4
	c2.54-3.07,3.81-7.82,3.81-14.26C609.77,403.42,608.91,399.27,607.17,396.17z M704.44,116.12v103.56c13.72,0,14.3-0.33,14.3-13.44
	v-76.69C718.74,116.45,718.45,116.12,704.44,116.12z M75.28,116.45c-4.96,0-7.01,5.89-7.01,12.78v173.69
	c0,7.87,1.46,12.78,7.01,12.78c5.83,0,7.29-5.24,7.29-12.78V129.23C82.57,122.34,81.11,116.45,75.28,116.45z M466.16,396.64
	c-1.06-2.66-2.41-4.53-4.05-5.63c-1.43-0.95-3.06-1.49-4.88-1.61c-0.26-0.02-0.52-0.03-0.79-0.03c-0.11,0-0.22,0-0.33,0.01
	c-3.78,0.1-6.67,1.99-8.66,5.66c-1.68,3.1-2.51,7.56-2.51,13.36c0,6.9,1.29,12,3.87,15.3c1.69,2.17,4.01,3.31,6.96,3.45
	c0.09,0.01,0.19,0.01,0.28,0.01h0.32c2.18,0,4.01-0.5,5.47-1.49c1.86-1.27,3.31-3.31,4.35-6.1c1.04-2.79,1.56-6.44,1.56-10.93
	C467.75,403.29,467.22,399.29,466.16,396.64z M457.56,116.12v81.6c13.72,0,14.3-0.33,14.3-13.43v-54.74
	C471.86,116.45,471.57,116.12,457.56,116.12z M607.17,396.17c-1.38-2.42-3.15-4.07-5.31-4.95c-1.47-0.59-3.89-0.89-7.26-0.89h-0.33
	v31.55c0,1.67,0.08,2.7,0.25,3.07c0.17,0.38,0.46,0.67,0.86,0.87c0.57,0.3,1.4,0.45,2.48,0.45c3.54,0,6.24-1.14,8.1-3.4
	c2.54-3.07,3.81-7.82,3.81-14.26C609.77,403.42,608.91,399.27,607.17,396.17z M704.44,116.12v103.56c13.72,0,14.3-0.33,14.3-13.44
	v-76.69C718.74,116.45,718.45,116.12,704.44,116.12z M75.28,116.45c-4.96,0-7.01,5.89-7.01,12.78v173.69
	c0,7.87,1.46,12.78,7.01,12.78c5.83,0,7.29-5.24,7.29-12.78V129.23C82.57,122.34,81.11,116.45,75.28,116.45z M372.08,409.03v12.52
	c0,2.07,0.12,3.36,0.37,3.88c0.24,0.52,0.72,0.97,1.42,1.36c0.71,0.39,1.67,0.58,2.88,0.58h1.43v1.1h3.05v-1.1h1.4
	c1.27,0,2.27-0.21,3.02-0.63c0.55-0.28,0.98-0.75,1.3-1.43c0.23-0.48,0.35-1.73,0.35-3.76v-12.52H372.08z M386.95,391.07
	c-0.24-0.51-0.71-0.97-1.43-1.35c-0.72-0.39-1.69-0.59-2.89-0.59h-5.88c-1.25,0-2.26,0.21-3.02,0.63c-0.55,0.28-0.98,0.76-1.3,1.43
	c-0.23,0.48-0.35,1.73-0.35,3.76v11.45h15.22v-11.45C387.3,392.88,387.18,391.59,386.95,391.07z M457.56,116.12v81.6
	c13.72,0,14.3-0.33,14.3-13.43v-54.74C471.86,116.45,471.57,116.12,457.56,116.12z M466.16,396.64c-1.06-2.66-2.41-4.53-4.05-5.63
	c-1.43-0.95-3.06-1.49-4.88-1.61c-0.26-0.02-0.52-0.03-0.79-0.03c-0.11,0-0.22,0-0.33,0.01c-3.78,0.1-6.67,1.99-8.66,5.66
	c-1.68,3.1-2.51,7.56-2.51,13.36c0,6.9,1.29,12,3.87,15.3c1.69,2.17,4.01,3.31,6.96,3.45c0.09,0.01,0.19,0.01,0.28,0.01h0.32
	c2.18,0,4.01-0.5,5.47-1.49c1.86-1.27,3.31-3.31,4.35-6.1c1.04-2.79,1.56-6.44,1.56-10.93
	C467.75,403.29,467.22,399.29,466.16,396.64z M607.17,396.17c-1.38-2.42-3.15-4.07-5.31-4.95c-1.47-0.59-3.89-0.89-7.26-0.89h-0.33
	v31.55c0,1.67,0.08,2.7,0.25,3.07c0.17,0.38,0.46,0.67,0.86,0.87c0.57,0.3,1.4,0.45,2.48,0.45c3.54,0,6.24-1.14,8.1-3.4
	c2.54-3.07,3.81-7.82,3.81-14.26C609.77,403.42,608.91,399.27,607.17,396.17z M704.44,116.12v103.56c13.72,0,14.3-0.33,14.3-13.44
	v-76.69C718.74,116.45,718.45,116.12,704.44,116.12z M75.28,116.45c-4.96,0-7.01,5.89-7.01,12.78v173.69
	c0,7.87,1.46,12.78,7.01,12.78c5.83,0,7.29-5.24,7.29-12.78V129.23C82.57,122.34,81.11,116.45,75.28,116.45z M466.16,396.64
	c-1.06-2.66-2.41-4.53-4.05-5.63c-1.43-0.95-3.06-1.49-4.88-1.61c-0.26-0.02-0.52-0.03-0.79-0.03c-0.11,0-0.22,0-0.33,0.01
	c-3.78,0.1-6.67,1.99-8.66,5.66c-1.68,3.1-2.51,7.56-2.51,13.36c0,6.9,1.29,12,3.87,15.3c1.69,2.17,4.01,3.31,6.96,3.45
	c0.09,0.01,0.19,0.01,0.28,0.01h0.32c2.18,0,4.01-0.5,5.47-1.49c1.86-1.27,3.31-3.31,4.35-6.1c1.04-2.79,1.56-6.44,1.56-10.93
	C467.75,403.29,467.22,399.29,466.16,396.64z M457.56,116.12v81.6c13.72,0,14.3-0.33,14.3-13.43v-54.74
	C471.86,116.45,471.57,116.12,457.56,116.12z M607.17,396.17c-1.38-2.42-3.15-4.07-5.31-4.95c-1.47-0.59-3.89-0.89-7.26-0.89h-0.33
	v31.55c0,1.67,0.08,2.7,0.25,3.07c0.17,0.38,0.46,0.67,0.86,0.87c0.57,0.3,1.4,0.45,2.48,0.45c3.54,0,6.24-1.14,8.1-3.4
	c2.54-3.07,3.81-7.82,3.81-14.26C609.77,403.42,608.91,399.27,607.17,396.17z M704.44,116.12v103.56c13.72,0,14.3-0.33,14.3-13.44
	v-76.69C718.74,116.45,718.45,116.12,704.44,116.12z M75.28,116.45c-4.96,0-7.01,5.89-7.01,12.78v173.69
	c0,7.87,1.46,12.78,7.01,12.78c5.83,0,7.29-5.24,7.29-12.78V129.23C82.57,122.34,81.11,116.45,75.28,116.45z M372.08,409.03v12.52
	c0,2.07,0.12,3.36,0.37,3.88c0.24,0.52,0.72,0.97,1.42,1.36c0.71,0.39,1.67,0.58,2.88,0.58h1.43v1.1h3.05v-1.1h1.4
	c1.27,0,2.27-0.21,3.02-0.63c0.55-0.28,0.98-0.75,1.3-1.43c0.23-0.48,0.35-1.73,0.35-3.76v-12.52H372.08z M386.95,391.07
	c-0.24-0.51-0.71-0.97-1.43-1.35c-0.72-0.39-1.69-0.59-2.89-0.59h-5.88c-1.25,0-2.26,0.21-3.02,0.63c-0.55,0.28-0.98,0.76-1.3,1.43
	c-0.23,0.48-0.35,1.73-0.35,3.76v11.45h15.22v-11.45C387.3,392.88,387.18,391.59,386.95,391.07z M457.56,116.12v81.6
	c13.72,0,14.3-0.33,14.3-13.43v-54.74C471.86,116.45,471.57,116.12,457.56,116.12z M466.16,396.64c-1.06-2.66-2.41-4.53-4.05-5.63
	c-1.43-0.95-3.06-1.49-4.88-1.61c-0.26-0.02-0.52-0.03-0.79-0.03c-0.11,0-0.22,0-0.33,0.01c-3.78,0.1-6.67,1.99-8.66,5.66
	c-1.68,3.1-2.51,7.56-2.51,13.36c0,6.9,1.29,12,3.87,15.3c1.69,2.17,4.01,3.31,6.96,3.45c0.09,0.01,0.19,0.01,0.28,0.01h0.32
	c2.18,0,4.01-0.5,5.47-1.49c1.86-1.27,3.31-3.31,4.35-6.1c1.04-2.79,1.56-6.44,1.56-10.93
	C467.75,403.29,467.22,399.29,466.16,396.64z M607.17,396.17c-1.38-2.42-3.15-4.07-5.31-4.95c-1.47-0.59-3.89-0.89-7.26-0.89h-0.33
	v31.55c0,1.67,0.08,2.7,0.25,3.07c0.17,0.38,0.46,0.67,0.86,0.87c0.57,0.3,1.4,0.45,2.48,0.45c3.54,0,6.24-1.14,8.1-3.4
	c2.54-3.07,3.81-7.82,3.81-14.26C609.77,403.42,608.91,399.27,607.17,396.17z M704.44,116.12v103.56c13.72,0,14.3-0.33,14.3-13.44
	v-76.69C718.74,116.45,718.45,116.12,704.44,116.12z M75.28,116.45c-4.96,0-7.01,5.89-7.01,12.78v173.69
	c0,7.87,1.46,12.78,7.01,12.78c5.83,0,7.29-5.24,7.29-12.78V129.23C82.57,122.34,81.11,116.45,75.28,116.45z M466.16,396.64
	c-1.06-2.66-2.41-4.53-4.05-5.63c-1.43-0.95-3.06-1.49-4.88-1.61c-0.26-0.02-0.52-0.03-0.79-0.03c-0.11,0-0.22,0-0.33,0.01
	c-3.78,0.1-6.67,1.99-8.66,5.66c-1.68,3.1-2.51,7.56-2.51,13.36c0,6.9,1.29,12,3.87,15.3c1.69,2.17,4.01,3.31,6.96,3.45
	c0.09,0.01,0.19,0.01,0.28,0.01h0.32c2.18,0,4.01-0.5,5.47-1.49c1.86-1.27,3.31-3.31,4.35-6.1c1.04-2.79,1.56-6.44,1.56-10.93
	C467.75,403.29,467.22,399.29,466.16,396.64z M457.56,116.12v81.6c13.72,0,14.3-0.33,14.3-13.43v-54.74
	C471.86,116.45,471.57,116.12,457.56,116.12z M607.17,396.17c-1.38-2.42-3.15-4.07-5.31-4.95c-1.47-0.59-3.89-0.89-7.26-0.89h-0.33
	v31.55c0,1.67,0.08,2.7,0.25,3.07c0.17,0.38,0.46,0.67,0.86,0.87c0.57,0.3,1.4,0.45,2.48,0.45c3.54,0,6.24-1.14,8.1-3.4
	c2.54-3.07,3.81-7.82,3.81-14.26C609.77,403.42,608.91,399.27,607.17,396.17z M704.44,116.12v103.56c13.72,0,14.3-0.33,14.3-13.44
	v-76.69C718.74,116.45,718.45,116.12,704.44,116.12z M75.28,116.45c-4.96,0-7.01,5.89-7.01,12.78v173.69
	c0,7.87,1.46,12.78,7.01,12.78c5.83,0,7.29-5.24,7.29-12.78V129.23C82.57,122.34,81.11,116.45,75.28,116.45z M372.08,409.03v12.52
	c0,2.07,0.12,3.36,0.37,3.88c0.24,0.52,0.72,0.97,1.42,1.36c0.71,0.39,1.67,0.58,2.88,0.58h1.43v1.1h3.05v-1.1h1.4
	c1.27,0,2.27-0.21,3.02-0.63c0.55-0.28,0.98-0.75,1.3-1.43c0.23-0.48,0.35-1.73,0.35-3.76v-12.52H372.08z M386.95,391.07
	c-0.24-0.51-0.71-0.97-1.43-1.35c-0.72-0.39-1.69-0.59-2.89-0.59h-5.88c-1.25,0-2.26,0.21-3.02,0.63c-0.55,0.28-0.98,0.76-1.3,1.43
	c-0.23,0.48-0.35,1.73-0.35,3.76v11.45h15.22v-11.45C387.3,392.88,387.18,391.59,386.95,391.07z M457.56,116.12v81.6
	c13.72,0,14.3-0.33,14.3-13.43v-54.74C471.86,116.45,471.57,116.12,457.56,116.12z M466.16,396.64c-1.06-2.66-2.41-4.53-4.05-5.63
	c-1.43-0.95-3.06-1.49-4.88-1.61c-0.26-0.02-0.52-0.03-0.79-0.03c-0.11,0-0.22,0-0.33,0.01c-3.78,0.1-6.67,1.99-8.66,5.66
	c-1.68,3.1-2.51,7.56-2.51,13.36c0,6.9,1.29,12,3.87,15.3c1.69,2.17,4.01,3.31,6.96,3.45c0.09,0.01,0.19,0.01,0.28,0.01h0.32
	c2.18,0,4.01-0.5,5.47-1.49c1.86-1.27,3.31-3.31,4.35-6.1c1.04-2.79,1.56-6.44,1.56-10.93
	C467.75,403.29,467.22,399.29,466.16,396.64z M607.17,396.17c-1.38-2.42-3.15-4.07-5.31-4.95c-1.47-0.59-3.89-0.89-7.26-0.89h-0.33
	v31.55c0,1.67,0.08,2.7,0.25,3.07c0.17,0.38,0.46,0.67,0.86,0.87c0.57,0.3,1.4,0.45,2.48,0.45c3.54,0,6.24-1.14,8.1-3.4
	c2.54-3.07,3.81-7.82,3.81-14.26C609.77,403.42,608.91,399.27,607.17,396.17z M704.44,116.12v103.56c13.72,0,14.3-0.33,14.3-13.44
	v-76.69C718.74,116.45,718.45,116.12,704.44,116.12z M75.28,116.45c-4.96,0-7.01,5.89-7.01,12.78v173.69
	c0,7.87,1.46,12.78,7.01,12.78c5.83,0,7.29-5.24,7.29-12.78V129.23C82.57,122.34,81.11,116.45,75.28,116.45z M466.16,396.64
	c-1.06-2.66-2.41-4.53-4.05-5.63c-1.43-0.95-3.06-1.49-4.88-1.61c-0.26-0.02-0.52-0.03-0.79-0.03c-0.11,0-0.22,0-0.33,0.01
	c-3.78,0.1-6.67,1.99-8.66,5.66c-1.68,3.1-2.51,7.56-2.51,13.36c0,6.9,1.29,12,3.87,15.3c1.69,2.17,4.01,3.31,6.96,3.45
	c0.09,0.01,0.19,0.01,0.28,0.01h0.32c2.18,0,4.01-0.5,5.47-1.49c1.86-1.27,3.31-3.31,4.35-6.1c1.04-2.79,1.56-6.44,1.56-10.93
	C467.75,403.29,467.22,399.29,466.16,396.64z M457.56,116.12v81.6c13.72,0,14.3-0.33,14.3-13.43v-54.74
	C471.86,116.45,471.57,116.12,457.56,116.12z M607.17,396.17c-1.38-2.42-3.15-4.07-5.31-4.95c-1.47-0.59-3.89-0.89-7.26-0.89h-0.33
	v31.55c0,1.67,0.08,2.7,0.25,3.07c0.17,0.38,0.46,0.67,0.86,0.87c0.57,0.3,1.4,0.45,2.48,0.45c3.54,0,6.24-1.14,8.1-3.4
	c2.54-3.07,3.81-7.82,3.81-14.26C609.77,403.42,608.91,399.27,607.17,396.17z M75.28,116.45c-4.96,0-7.01,5.89-7.01,12.78v173.69
	c0,7.87,1.46,12.78,7.01,12.78c5.83,0,7.29-5.24,7.29-12.78V129.23C82.57,122.34,81.11,116.45,75.28,116.45z M372.08,409.03v12.52
	c0,2.07,0.12,3.36,0.37,3.88c0.24,0.52,0.72,0.97,1.42,1.36c0.71,0.39,1.67,0.58,2.88,0.58h1.43v1.1h3.05v-1.1h1.4
	c1.27,0,2.27-0.21,3.02-0.63c0.55-0.28,0.98-0.75,1.3-1.43c0.23-0.48,0.35-1.73,0.35-3.76v-12.52H372.08z M386.95,391.07
	c-0.24-0.51-0.71-0.97-1.43-1.35c-0.72-0.39-1.69-0.59-2.89-0.59h-5.88c-1.25,0-2.26,0.21-3.02,0.63c-0.55,0.28-0.98,0.76-1.3,1.43
	c-0.23,0.48-0.35,1.73-0.35,3.76v11.45h15.22v-11.45C387.3,392.88,387.18,391.59,386.95,391.07z M457.56,116.12v81.6
	c13.72,0,14.3-0.33,14.3-13.43v-54.74C471.86,116.45,471.57,116.12,457.56,116.12z M466.16,396.64c-1.06-2.66-2.41-4.53-4.05-5.63
	c-1.43-0.95-3.06-1.49-4.88-1.61c-0.26-0.02-0.52-0.03-0.79-0.03c-0.11,0-0.22,0-0.33,0.01c-3.78,0.1-6.67,1.99-8.66,5.66
	c-1.68,3.1-2.51,7.56-2.51,13.36c0,6.9,1.29,12,3.87,15.3c1.69,2.17,4.01,3.31,6.96,3.45c0.09,0.01,0.19,0.01,0.28,0.01h0.32
	c2.18,0,4.01-0.5,5.47-1.49c1.86-1.27,3.31-3.31,4.35-6.1c1.04-2.79,1.56-6.44,1.56-10.93
	C467.75,403.29,467.22,399.29,466.16,396.64z M607.17,396.17c-1.38-2.42-3.15-4.07-5.31-4.95c-1.47-0.59-3.89-0.89-7.26-0.89h-0.33
	v31.55c0,1.67,0.08,2.7,0.25,3.07c0.17,0.38,0.46,0.67,0.86,0.87c0.57,0.3,1.4,0.45,2.48,0.45c3.54,0,6.24-1.14,8.1-3.4
	c2.54-3.07,3.81-7.82,3.81-14.26C609.77,403.42,608.91,399.27,607.17,396.17z M75.28,116.45c-4.96,0-7.01,5.89-7.01,12.78v173.69
	c0,7.87,1.46,12.78,7.01,12.78c5.83,0,7.29-5.24,7.29-12.78V129.23C82.57,122.34,81.11,116.45,75.28,116.45z M466.16,396.64
	c-1.06-2.66-2.41-4.53-4.05-5.63c-1.43-0.95-3.06-1.49-4.88-1.61c-0.26-0.02-0.52-0.03-0.79-0.03c-0.11,0-0.22,0-0.33,0.01
	c-3.78,0.1-6.67,1.99-8.66,5.66c-1.68,3.1-2.51,7.56-2.51,13.36c0,6.9,1.29,12,3.87,15.3c1.69,2.17,4.01,3.31,6.96,3.45
	c0.09,0.01,0.19,0.01,0.28,0.01h0.32c2.18,0,4.01-0.5,5.47-1.49c1.86-1.27,3.31-3.31,4.35-6.1c1.04-2.79,1.56-6.44,1.56-10.93
	C467.75,403.29,467.22,399.29,466.16,396.64z M607.17,396.17c-1.38-2.42-3.15-4.07-5.31-4.95c-1.47-0.59-3.89-0.89-7.26-0.89h-0.33
	v31.55c0,1.67,0.08,2.7,0.25,3.07c0.17,0.38,0.46,0.67,0.86,0.87c0.57,0.3,1.4,0.45,2.48,0.45c3.54,0,6.24-1.14,8.1-3.4
	c2.54-3.07,3.81-7.82,3.81-14.26C609.77,403.42,608.91,399.27,607.17,396.17z M75.28,116.45c-4.96,0-7.01,5.89-7.01,12.78v173.69
	c0,7.87,1.46,12.78,7.01,12.78c5.83,0,7.29-5.24,7.29-12.78V129.23C82.57,122.34,81.11,116.45,75.28,116.45z M372.08,409.03v12.52
	c0,2.07,0.12,3.36,0.37,3.88c0.24,0.52,0.72,0.97,1.42,1.36c0.71,0.39,1.67,0.58,2.88,0.58h1.43v1.1h3.05v-1.1h1.4
	c1.27,0,2.27-0.21,3.02-0.63c0.55-0.28,0.98-0.75,1.3-1.43c0.23-0.48,0.35-1.73,0.35-3.76v-12.52H372.08z M386.95,391.07
	c-0.24-0.51-0.71-0.97-1.43-1.35c-0.72-0.39-1.69-0.59-2.89-0.59h-5.88c-1.25,0-2.26,0.21-3.02,0.63c-0.55,0.28-0.98,0.76-1.3,1.43
	c-0.23,0.48-0.35,1.73-0.35,3.76v11.45h15.22v-11.45C387.3,392.88,387.18,391.59,386.95,391.07z M466.16,396.64
	c-1.06-2.66-2.41-4.53-4.05-5.63c-1.43-0.95-3.06-1.49-4.88-1.61c-0.26-0.02-0.52-0.03-0.79-0.03c-0.11,0-0.22,0-0.33,0.01
	c-3.78,0.1-6.67,1.99-8.66,5.66c-1.68,3.1-2.51,7.56-2.51,13.36c0,6.9,1.29,12,3.87,15.3c1.69,2.17,4.01,3.31,6.96,3.45
	c0.09,0.01,0.19,0.01,0.28,0.01h0.32c2.18,0,4.01-0.5,5.47-1.49c1.86-1.27,3.31-3.31,4.35-6.1c1.04-2.79,1.56-6.44,1.56-10.93
	C467.75,403.29,467.22,399.29,466.16,396.64z M607.17,396.17c-1.38-2.42-3.15-4.07-5.31-4.95c-1.47-0.59-3.89-0.89-7.26-0.89h-0.33
	v31.55c0,1.67,0.08,2.7,0.25,3.07c0.17,0.38,0.46,0.67,0.86,0.87c0.57,0.3,1.4,0.45,2.48,0.45c3.54,0,6.24-1.14,8.1-3.4
	c2.54-3.07,3.81-7.82,3.81-14.26C609.77,403.42,608.91,399.27,607.17,396.17z M75.28,116.45c-4.96,0-7.01,5.89-7.01,12.78v173.69
	c0,7.87,1.46,12.78,7.01,12.78c5.83,0,7.29-5.24,7.29-12.78V129.23C82.57,122.34,81.11,116.45,75.28,116.45z M466.16,396.64
	c-1.06-2.66-2.41-4.53-4.05-5.63c-1.43-0.95-3.06-1.49-4.88-1.61c-0.26-0.02-0.52-0.03-0.79-0.03c-0.11,0-0.22,0-0.33,0.01
	c-3.78,0.1-6.67,1.99-8.66,5.66c-1.68,3.1-2.51,7.56-2.51,13.36c0,6.9,1.29,12,3.87,15.3c1.69,2.17,4.01,3.31,6.96,3.45
	c0.09,0.01,0.19,0.01,0.28,0.01h0.32c2.18,0,4.01-0.5,5.47-1.49c1.86-1.27,3.31-3.31,4.35-6.1c1.04-2.79,1.56-6.44,1.56-10.93
	C467.75,403.29,467.22,399.29,466.16,396.64z M607.17,396.17c-1.38-2.42-3.15-4.07-5.31-4.95c-1.47-0.59-3.89-0.89-7.26-0.89h-0.33
	v31.55c0,1.67,0.08,2.7,0.25,3.07c0.17,0.38,0.46,0.67,0.86,0.87c0.57,0.3,1.4,0.45,2.48,0.45c3.54,0,6.24-1.14,8.1-3.4
	c2.54-3.07,3.81-7.82,3.81-14.26C609.77,403.42,608.91,399.27,607.17,396.17z M75.28,116.45c-4.96,0-7.01,5.89-7.01,12.78v173.69
	c0,7.87,1.46,12.78,7.01,12.78c5.83,0,7.29-5.24,7.29-12.78V129.23C82.57,122.34,81.11,116.45,75.28,116.45z M372.08,409.03v12.52
	c0,2.07,0.12,3.36,0.37,3.88c0.24,0.52,0.72,0.97,1.42,1.36c0.71,0.39,1.67,0.58,2.88,0.58h1.43v1.1h3.05v-1.1h1.4
	c1.27,0,2.27-0.21,3.02-0.63c0.55-0.28,0.98-0.75,1.3-1.43c0.23-0.48,0.35-1.73,0.35-3.76v-12.52H372.08z M386.95,391.07
	c-0.24-0.51-0.71-0.97-1.43-1.35c-0.72-0.39-1.69-0.59-2.89-0.59h-5.88c-1.25,0-2.26,0.21-3.02,0.63c-0.55,0.28-0.98,0.76-1.3,1.43
	c-0.23,0.48-0.35,1.73-0.35,3.76v11.45h15.22v-11.45C387.3,392.88,387.18,391.59,386.95,391.07z M466.16,396.64
	c-1.06-2.66-2.41-4.53-4.05-5.63c-1.43-0.95-3.06-1.49-4.88-1.61c-0.26-0.02-0.52-0.03-0.79-0.03c-0.11,0-0.22,0-0.33,0.01
	c-3.78,0.1-6.67,1.99-8.66,5.66c-1.68,3.1-2.51,7.56-2.51,13.36c0,6.9,1.29,12,3.87,15.3c1.69,2.17,4.01,3.31,6.96,3.45
	c0.09,0.01,0.19,0.01,0.28,0.01h0.32c2.18,0,4.01-0.5,5.47-1.49c1.86-1.27,3.31-3.31,4.35-6.1c1.04-2.79,1.56-6.44,1.56-10.93
	C467.75,403.29,467.22,399.29,466.16,396.64z M607.17,396.17c-1.38-2.42-3.15-4.07-5.31-4.95c-1.47-0.59-3.89-0.89-7.26-0.89h-0.33
	v31.55c0,1.67,0.08,2.7,0.25,3.07c0.17,0.38,0.46,0.67,0.86,0.87c0.57,0.3,1.4,0.45,2.48,0.45c3.54,0,6.24-1.14,8.1-3.4
	c2.54-3.07,3.81-7.82,3.81-14.26C609.77,403.42,608.91,399.27,607.17,396.17z M75.28,116.45c-4.96,0-7.01,5.89-7.01,12.78v173.69
	c0,7.87,1.46,12.78,7.01,12.78c5.83,0,7.29-5.24,7.29-12.78V129.23C82.57,122.34,81.11,116.45,75.28,116.45z M466.16,396.64
	c-1.06-2.66-2.41-4.53-4.05-5.63c-1.43-0.95-3.06-1.49-4.88-1.61c-0.26-0.02-0.52-0.03-0.79-0.03c-0.11,0-0.22,0-0.33,0.01
	c-3.78,0.1-6.67,1.99-8.66,5.66c-1.68,3.1-2.51,7.56-2.51,13.36c0,6.9,1.29,12,3.87,15.3c1.69,2.17,4.01,3.31,6.96,3.45
	c0.09,0.01,0.19,0.01,0.28,0.01h0.32c2.18,0,4.01-0.5,5.47-1.49c1.86-1.27,3.31-3.31,4.35-6.1c1.04-2.79,1.56-6.44,1.56-10.93
	C467.75,403.29,467.22,399.29,466.16,396.64z M607.17,396.17c-1.38-2.42-3.15-4.07-5.31-4.95c-1.47-0.59-3.89-0.89-7.26-0.89h-0.33
	v31.55c0,1.67,0.08,2.7,0.25,3.07c0.17,0.38,0.46,0.67,0.86,0.87c0.57,0.3,1.4,0.45,2.48,0.45c3.54,0,6.24-1.14,8.1-3.4
	c2.54-3.07,3.81-7.82,3.81-14.26C609.77,403.42,608.91,399.27,607.17,396.17z M372.08,409.03v12.52c0,2.07,0.12,3.36,0.37,3.88
	c0.24,0.52,0.72,0.97,1.42,1.36c0.71,0.39,1.67,0.58,2.88,0.58h1.43v1.1h3.05v-1.1h1.4c1.27,0,2.27-0.21,3.02-0.63
	c0.55-0.28,0.98-0.75,1.3-1.43c0.23-0.48,0.35-1.73,0.35-3.76v-12.52H372.08z M386.95,391.07c-0.24-0.51-0.71-0.97-1.43-1.35
	c-0.72-0.39-1.69-0.59-2.89-0.59h-5.88c-1.25,0-2.26,0.21-3.02,0.63c-0.55,0.28-0.98,0.76-1.3,1.43c-0.23,0.48-0.35,1.73-0.35,3.76
	v11.45h15.22v-11.45C387.3,392.88,387.18,391.59,386.95,391.07z M466.16,396.64c-1.06-2.66-2.41-4.53-4.05-5.63
	c-1.43-0.95-3.06-1.49-4.88-1.61c-0.26-0.02-0.52-0.03-0.79-0.03c-0.11,0-0.22,0-0.33,0.01c-3.78,0.1-6.67,1.99-8.66,5.66
	c-1.68,3.1-2.51,7.56-2.51,13.36c0,6.9,1.29,12,3.87,15.3c1.69,2.17,4.01,3.31,6.96,3.45c0.09,0.01,0.19,0.01,0.28,0.01h0.32
	c2.18,0,4.01-0.5,5.47-1.49c1.86-1.27,3.31-3.31,4.35-6.1c1.04-2.79,1.56-6.44,1.56-10.93
	C467.75,403.29,467.22,399.29,466.16,396.64z M607.17,396.17c-1.38-2.42-3.15-4.07-5.31-4.95c-1.47-0.59-3.89-0.89-7.26-0.89h-0.33
	v31.55c0,1.67,0.08,2.7,0.25,3.07c0.17,0.38,0.46,0.67,0.86,0.87c0.57,0.3,1.4,0.45,2.48,0.45c3.54,0,6.24-1.14,8.1-3.4
	c2.54-3.07,3.81-7.82,3.81-14.26C609.77,403.42,608.91,399.27,607.17,396.17z M466.16,396.64c-1.06-2.66-2.41-4.53-4.05-5.63
	c-1.43-0.95-3.06-1.49-4.88-1.61c-0.26-0.02-0.52-0.03-0.79-0.03c-0.11,0-0.22,0-0.33,0.01c-3.78,0.1-6.67,1.99-8.66,5.66
	c-1.68,3.1-2.51,7.56-2.51,13.36c0,6.9,1.29,12,3.87,15.3c1.69,2.17,4.01,3.31,6.96,3.45c0.09,0.01,0.19,0.01,0.28,0.01h0.32
	c2.18,0,4.01-0.5,5.47-1.49c1.86-1.27,3.31-3.31,4.35-6.1c1.04-2.79,1.56-6.44,1.56-10.93
	C467.75,403.29,467.22,399.29,466.16,396.64z M607.17,396.17c-1.38-2.42-3.15-4.07-5.31-4.95c-1.47-0.59-3.89-0.89-7.26-0.89h-0.33
	v31.55c0,1.67,0.08,2.7,0.25,3.07c0.17,0.38,0.46,0.67,0.86,0.87c0.57,0.3,1.4,0.45,2.48,0.45c3.54,0,6.24-1.14,8.1-3.4
	c2.54-3.07,3.81-7.82,3.81-14.26C609.77,403.42,608.91,399.27,607.17,396.17z M372.08,409.03v12.52c0,2.07,0.12,3.36,0.37,3.88
	c0.24,0.52,0.72,0.97,1.42,1.36c0.71,0.39,1.67,0.58,2.88,0.58h1.43v1.1h3.05v-1.1h1.4c1.27,0,2.27-0.21,3.02-0.63
	c0.55-0.28,0.98-0.75,1.3-1.43c0.23-0.48,0.35-1.73,0.35-3.76v-12.52H372.08z M386.95,391.07c-0.24-0.51-0.71-0.97-1.43-1.35
	c-0.72-0.39-1.69-0.59-2.89-0.59h-5.88c-1.25,0-2.26,0.21-3.02,0.63c-0.55,0.28-0.98,0.76-1.3,1.43c-0.23,0.48-0.35,1.73-0.35,3.76
	v11.45h15.22v-11.45C387.3,392.88,387.18,391.59,386.95,391.07z M466.16,396.64c-1.06-2.66-2.41-4.53-4.05-5.63
	c-1.43-0.95-3.06-1.49-4.88-1.61c-0.26-0.02-0.52-0.03-0.79-0.03c-0.11,0-0.22,0-0.33,0.01c-3.78,0.1-6.67,1.99-8.66,5.66
	c-1.68,3.1-2.51,7.56-2.51,13.36c0,6.9,1.29,12,3.87,15.3c1.69,2.17,4.01,3.31,6.96,3.45c0.09,0.01,0.19,0.01,0.28,0.01h0.32
	c2.18,0,4.01-0.5,5.47-1.49c1.86-1.27,3.31-3.31,4.35-6.1c1.04-2.79,1.56-6.44,1.56-10.93
	C467.75,403.29,467.22,399.29,466.16,396.64z M466.16,396.64c-1.06-2.66-2.41-4.53-4.05-5.63c-1.43-0.95-3.06-1.49-4.88-1.61
	c-0.26-0.02-0.52-0.03-0.79-0.03c-0.11,0-0.22,0-0.33,0.01c-3.78,0.1-6.67,1.99-8.66,5.66c-1.68,3.1-2.51,7.56-2.51,13.36
	c0,6.9,1.29,12,3.87,15.3c1.69,2.17,4.01,3.31,6.96,3.45c0.09,0.01,0.19,0.01,0.28,0.01h0.32c2.18,0,4.01-0.5,5.47-1.49
	c1.86-1.27,3.31-3.31,4.35-6.1c1.04-2.79,1.56-6.44,1.56-10.93C467.75,403.29,467.22,399.29,466.16,396.64z M372.08,409.03v12.52
	c0,2.07,0.12,3.36,0.37,3.88c0.24,0.52,0.72,0.97,1.42,1.36c0.71,0.39,1.67,0.58,2.88,0.58h1.43v1.1h3.05v-1.1h1.4
	c1.27,0,2.27-0.21,3.02-0.63c0.55-0.28,0.98-0.75,1.3-1.43c0.23-0.48,0.35-1.73,0.35-3.76v-12.52H372.08z M386.95,391.07
	c-0.24-0.51-0.71-0.97-1.43-1.35c-0.72-0.39-1.69-0.59-2.89-0.59h-5.88c-1.25,0-2.26,0.21-3.02,0.63c-0.55,0.28-0.98,0.76-1.3,1.43
	c-0.23,0.48-0.35,1.73-0.35,3.76v11.45h15.22v-11.45C387.3,392.88,387.18,391.59,386.95,391.07z M466.16,396.64
	c-1.06-2.66-2.41-4.53-4.05-5.63c-1.43-0.95-3.06-1.49-4.88-1.61c-0.26-0.02-0.52-0.03-0.79-0.03c-0.11,0-0.22,0-0.33,0.01
	c-3.78,0.1-6.67,1.99-8.66,5.66c-1.68,3.1-2.51,7.56-2.51,13.36c0,6.9,1.29,12,3.87,15.3c1.69,2.17,4.01,3.31,6.96,3.45
	c0.09,0.01,0.19,0.01,0.28,0.01h0.32c2.18,0,4.01-0.5,5.47-1.49c1.86-1.27,3.31-3.31,4.35-6.1c1.04-2.79,1.56-6.44,1.56-10.93
	C467.75,403.29,467.22,399.29,466.16,396.64z M372.08,409.03v12.52c0,2.07,0.12,3.36,0.37,3.88c0.24,0.52,0.72,0.97,1.42,1.36
	c0.71,0.39,1.67,0.58,2.88,0.58h1.43v1.1h3.05v-1.1h1.4c1.27,0,2.27-0.21,3.02-0.63c0.55-0.28,0.98-0.75,1.3-1.43
	c0.23-0.48,0.35-1.73,0.35-3.76v-12.52H372.08z M386.95,391.07c-0.24-0.51-0.71-0.97-1.43-1.35c-0.72-0.39-1.69-0.59-2.89-0.59
	h-5.88c-1.25,0-2.26,0.21-3.02,0.63c-0.55,0.28-0.98,0.76-1.3,1.43c-0.23,0.48-0.35,1.73-0.35,3.76v11.45h15.22v-11.45
	C387.3,392.88,387.18,391.59,386.95,391.07z"/>
<g>
	<path class="st1" d="M68.97,29.24v8.95h-0.99c-1.2-2.45-3-4.31-5.4-5.58c-2.4-1.27-5.02-1.91-7.87-1.91c-2.72,0-4.99,0.53-6.8,1.6
		c-1.81,1.07-3.09,2.56-3.84,4.47s-1.13,3.87-1.13,5.88c0,2.43,0.41,4.57,1.24,6.41c0.82,1.84,2.15,3.18,3.99,4.05
		c1.84,0.86,4.02,1.29,6.54,1.29c0.88,0,1.78-0.07,2.7-0.2c0.92-0.13,1.87-0.32,2.83-0.57v-5.28c0-1-0.1-1.65-0.3-1.94
		c-0.2-0.29-0.6-0.56-1.22-0.8c-0.62-0.24-1.37-0.36-2.24-0.36h-0.94v-0.69h17.71v0.69c-1.34,0.06-2.28,0.19-2.81,0.38
		c-0.53,0.19-0.94,0.52-1.22,0.96c-0.16,0.24-0.24,0.82-0.24,1.74v5.28c-2.33,0.72-4.75,1.27-7.27,1.64
		c-2.52,0.37-5.13,0.55-7.83,0.55c-3.46,0-6.33-0.33-8.61-0.98c-2.28-0.66-4.3-1.52-6.05-2.58c-1.75-1.07-3.11-2.27-4.1-3.61
		c-1.25-1.72-1.88-3.65-1.88-5.79c0-3.82,1.93-7.05,5.78-9.68c3.85-2.63,8.7-3.95,14.54-3.95c1.81,0,3.44,0.1,4.89,0.3
		c0.79,0.1,2.06,0.38,3.83,0.85c1.76,0.47,2.81,0.7,3.13,0.7c0.5,0,0.97-0.13,1.4-0.38c0.43-0.26,0.82-0.74,1.18-1.45H68.97z"/>
	<path class="st1" d="M112.93,29.82v0.69c-1.2,0.11-2.12,0.36-2.77,0.73c-0.9,0.52-2.31,1.95-4.25,4.29l-7.9,9.2v6.14
		c0,1.31,0.1,2.13,0.3,2.44c0.2,0.32,0.59,0.6,1.17,0.84c0.58,0.24,1.36,0.37,2.32,0.37h2.04v0.69H83.4v-0.69h1.91
		c1.07,0,1.93-0.13,2.55-0.39c0.47-0.17,0.83-0.47,1.1-0.9c0.2-0.3,0.3-1.09,0.3-2.36v-5.09L80.69,34.9c-1.7-2.15-2.9-3.41-3.6-3.79
		c-0.7-0.38-1.63-0.58-2.79-0.59v-0.69h17.47v0.69h-0.78c-1.06,0-1.8,0.11-2.22,0.32c-0.42,0.21-0.63,0.44-0.63,0.67
		c0,0.45,0.72,1.58,2.15,3.39l6.58,8.41l6.56-7.66c1.63-1.87,2.45-3.12,2.45-3.73c0-0.34-0.23-0.62-0.7-0.84
		c-0.61-0.31-1.73-0.5-3.36-0.56v-0.69H112.93z"/>
	<path class="st1" d="M139.78,46.56l9.89-16.74h14.83v0.69h-1.18c-1.07,0-1.93,0.13-2.58,0.39c-0.45,0.18-0.81,0.47-1.07,0.88
		c-0.2,0.3-0.3,1.08-0.3,2.34v16.74c0,1.3,0.1,2.11,0.3,2.43c0.2,0.33,0.6,0.61,1.21,0.85c0.61,0.24,1.42,0.37,2.45,0.37h1.18v0.69
		h-19.02v-0.69h1.18c1.07,0,1.93-0.13,2.58-0.39c0.45-0.17,0.81-0.47,1.07-0.9c0.2-0.3,0.3-1.09,0.3-2.36V32.05l-13.97,23.17h-0.64
		l-14.19-23V50.1c0,1.25,0.04,2.02,0.13,2.3c0.23,0.62,0.74,1.13,1.52,1.53c0.78,0.39,2,0.59,3.67,0.59v0.69h-12.47v-0.69h0.38
		c0.81,0.01,1.56-0.08,2.26-0.27c0.7-0.19,1.23-0.45,1.59-0.78c0.36-0.32,0.64-0.78,0.83-1.37c0.04-0.14,0.05-0.77,0.05-1.91V34.13
		c0-1.29-0.1-2.09-0.3-2.41c-0.2-0.32-0.6-0.6-1.21-0.84c-0.61-0.24-1.42-0.37-2.44-0.37h-1.16v-0.69h14.89L139.78,46.56z"/>
	<path class="st1" d="M179.2,29.82l17.98,15.75V34.65c0-1.52-0.31-2.55-0.94-3.09c-0.86-0.72-2.3-1.07-4.33-1.05v-0.69h12.04v0.69
		c-1.54,0.14-2.58,0.32-3.1,0.53c-0.53,0.22-0.94,0.57-1.24,1.07c-0.3,0.49-0.44,1.34-0.44,2.54V55.8h-0.91l-24.64-21.15V50.8
		c0,1.46,0.48,2.45,1.44,2.96c0.96,0.51,2.06,0.77,3.29,0.77h0.86v0.69h-12.92v-0.69c2.01-0.01,3.4-0.3,4.19-0.86
		c0.79-0.56,1.18-1.52,1.18-2.87V32.87l-0.78-0.67c-0.77-0.67-1.45-1.12-2.04-1.33c-0.59-0.21-1.44-0.33-2.55-0.36v-0.69H179.2z"/>
	<path class="st1" d="M228.13,47.99h-12.87l-1.53,2.47c-0.5,0.82-0.75,1.5-0.75,2.04c0,0.71,0.41,1.24,1.24,1.57
		c0.48,0.2,1.67,0.35,3.57,0.45v0.69h-12.12v-0.69c1.31-0.14,2.38-0.52,3.22-1.13c0.84-0.62,1.88-1.89,3.12-3.83l13.03-20.27h0.51
		l13.14,20.83c1.25,1.97,2.28,3.22,3.09,3.73c0.61,0.39,1.47,0.61,2.58,0.67v0.69h-17.63v-0.69h0.73c1.42,0,2.41-0.14,2.98-0.41
		c0.39-0.2,0.59-0.49,0.59-0.86c0-0.22-0.05-0.46-0.16-0.69c-0.04-0.11-0.3-0.58-0.81-1.4L228.13,47.99z M227.21,46.6l-5.43-8.75
		l-5.59,8.75H227.21z"/>
	<path class="st1" d="M270.83,29.24l0.3,8.47h-1.1c-0.52-2.12-1.8-3.83-3.83-5.12c-2.03-1.29-4.23-1.94-6.6-1.94
		c-1.83,0-3.27,0.34-4.34,1.02c-1.07,0.68-1.6,1.46-1.6,2.35c0,0.56,0.19,1.06,0.56,1.5c0.52,0.59,1.35,1.17,2.5,1.74
		c0.84,0.41,2.79,1.14,5.83,2.19c4.26,1.46,7.14,2.84,8.63,4.14c1.47,1.3,2.2,2.78,2.2,4.46c0,2.12-1.19,3.95-3.56,5.48
		c-2.37,1.53-5.39,2.29-9.04,2.29c-1.15,0-2.23-0.08-3.25-0.24c-1.02-0.16-2.3-0.47-3.84-0.92c-0.86-0.25-1.57-0.37-2.12-0.37
		c-0.47,0-0.96,0.12-1.48,0.37c-0.52,0.25-0.94,0.63-1.26,1.14h-0.99v-9.59h0.99c0.79,2.7,2.31,4.75,4.55,6.17
		c2.25,1.42,4.67,2.13,7.27,2.13c2.01,0,3.6-0.38,4.8-1.14c1.19-0.76,1.79-1.65,1.79-2.66c0-0.6-0.23-1.18-0.69-1.74
		c-0.46-0.56-1.15-1.1-2.08-1.6c-0.93-0.51-2.58-1.16-4.94-1.98c-3.31-1.14-5.7-2.1-7.15-2.9c-1.45-0.8-2.57-1.69-3.35-2.68
		c-0.78-0.99-1.17-2.07-1.17-3.26c0-2.02,1.07-3.75,3.2-5.17c2.13-1.42,4.82-2.14,8.06-2.14c1.18,0,2.33,0.1,3.44,0.3
		c0.84,0.15,1.87,0.43,3.08,0.83c1.21,0.41,2.06,0.61,2.54,0.61c0.47,0,0.83-0.1,1.1-0.3c0.27-0.2,0.52-0.68,0.75-1.44H270.83z"/>
	<path class="st1" d="M310.3,29.82v6.87h-0.97c-0.57-1.59-1.21-2.72-1.91-3.42c-0.7-0.69-1.66-1.25-2.88-1.66
		c-0.68-0.23-1.87-0.34-3.57-0.34h-2.71v19.59c0,1.3,0.1,2.11,0.31,2.43c0.21,0.33,0.61,0.61,1.21,0.85
		c0.6,0.24,1.42,0.37,2.46,0.37h1.21v0.69h-19.08v-0.69h1.21c1.06,0,1.91-0.13,2.55-0.39c0.47-0.17,0.83-0.47,1.1-0.9
		c0.2-0.3,0.3-1.09,0.3-2.36V31.28h-2.63c-2.45,0-4.24,0.36-5.35,1.09c-1.56,1.01-2.54,2.45-2.96,4.33h-1.02v-6.87H310.3z"/>
	<path class="st1" d="M332.44,54.52v0.69h-19.05v-0.69h1.21c1.06,0,1.91-0.13,2.55-0.39c0.47-0.17,0.82-0.47,1.07-0.9
		c0.2-0.3,0.3-1.09,0.3-2.36V34.16c0-1.3-0.1-2.11-0.3-2.43c-0.2-0.32-0.6-0.61-1.2-0.85c-0.6-0.24-1.41-0.37-2.43-0.37h-1.21v-0.69
		h19.05v0.69h-1.21c-1.06,0-1.91,0.13-2.55,0.39c-0.47,0.18-0.83,0.47-1.1,0.9c-0.2,0.3-0.3,1.09-0.3,2.36v16.71
		c0,1.3,0.1,2.11,0.31,2.43c0.21,0.33,0.61,0.61,1.21,0.85c0.6,0.24,1.41,0.37,2.43,0.37H332.44z"/>
	<path class="st1" d="M356.62,39.54l12.82,11.18c1.81,1.57,3.37,2.64,4.68,3.2c0.95,0.4,1.95,0.6,3.01,0.6v0.69h-18.97v-0.69
		c1.2-0.08,1.98-0.21,2.32-0.39c0.35-0.19,0.52-0.42,0.52-0.69c0-0.52-0.82-1.51-2.47-2.96l-8.36-7.32l-1.34,0.79v6.93
		c0,1.32,0.11,2.15,0.32,2.47c0.21,0.32,0.63,0.6,1.24,0.83c0.61,0.23,1.59,0.35,2.93,0.35v0.69h-18.38v-0.69h1.21
		c1.06,0,1.91-0.13,2.55-0.39c0.47-0.17,0.82-0.47,1.07-0.9c0.2-0.3,0.3-1.09,0.3-2.36V34.16c0-1.3-0.1-2.11-0.3-2.43
		c-0.2-0.32-0.6-0.61-1.2-0.85c-0.6-0.24-1.41-0.37-2.43-0.37h-1.21v-0.69h18.14v0.69c-1.24,0-2.18,0.12-2.82,0.37
		c-0.47,0.18-0.83,0.47-1.1,0.88c-0.22,0.31-0.32,1.11-0.32,2.4v7.9l13.52-7.62c1.88-1.06,2.82-1.91,2.82-2.55
		c0-0.47-0.39-0.85-1.16-1.12c-0.39-0.14-1.37-0.23-2.93-0.26v-0.69h14.21v0.69c-1.27,0.06-2.27,0.22-3,0.48
		c-0.73,0.26-2.4,1.12-5.01,2.59L356.62,39.54z"/>
	<path class="st1" d="M391.55,43v7.87c0,1.3,0.1,2.11,0.31,2.43c0.21,0.33,0.61,0.61,1.21,0.85c0.6,0.24,1.41,0.37,2.43,0.37h1.21
		v0.69h-19.05v-0.69h1.21c1.06,0,1.91-0.13,2.55-0.39c0.47-0.17,0.82-0.47,1.07-0.9c0.2-0.3,0.3-1.09,0.3-2.36V34.16
		c0-1.3-0.1-2.11-0.3-2.43c-0.2-0.32-0.6-0.61-1.2-0.85c-0.6-0.24-1.41-0.37-2.43-0.37h-1.21v-0.69h19.05v0.69h-1.21
		c-1.06,0-1.91,0.13-2.55,0.39c-0.47,0.18-0.83,0.47-1.1,0.9c-0.2,0.3-0.29,1.09-0.29,2.36v7.19h12.87v-7.19
		c0-1.3-0.1-2.11-0.29-2.43c-0.2-0.32-0.6-0.61-1.21-0.85c-0.61-0.24-1.42-0.37-2.45-0.37h-1.18v-0.69h19.02v0.69h-1.18
		c-1.07,0-1.93,0.13-2.55,0.39c-0.47,0.18-0.83,0.47-1.1,0.9c-0.2,0.3-0.3,1.09-0.3,2.36v16.71c0,1.3,0.1,2.11,0.3,2.43
		c0.2,0.33,0.6,0.61,1.21,0.85c0.61,0.24,1.42,0.37,2.45,0.37h1.18v0.69h-19.02v-0.69h1.18c1.07,0,1.92-0.13,2.55-0.39
		c0.46-0.17,0.83-0.47,1.1-0.9c0.2-0.3,0.29-1.09,0.29-2.36V43H391.55z"/>
	<path class="st1" d="M458.54,29.54l-4.14,3.33c3.82,2.6,5.72,5.8,5.72,9.61c0,2.56-0.86,4.88-2.59,6.97
		c-1.73,2.09-4.13,3.66-7.19,4.74c-3.06,1.07-6.18,1.61-9.35,1.61c-1.92,0-3.97-0.21-6.17-0.64c-2.19-0.42-4.15-1.04-5.87-1.85
		l-4.22,3.35l-1.48-0.92l4.19-3.35c-1.95-1.26-3.44-2.77-4.45-4.53c-1.01-1.76-1.52-3.56-1.52-5.41c0-2.4,0.84-4.64,2.51-6.71
		c1.67-2.08,4.03-3.68,7.05-4.8c3.03-1.12,6.31-1.69,9.86-1.69c4.64,0,8.63,0.91,11.96,2.72l4.14-3.33L458.54,29.54z M448.9,35.14
		c-0.95-1.59-1.96-2.67-3.04-3.26c-1.43-0.79-3.12-1.18-5.05-1.18c-2.69,0-4.86,0.78-6.53,2.34c-2.06,1.94-3.09,5.16-3.09,9.68
		c0,1.99,0.3,3.96,0.91,5.94L448.9,35.14z M432.85,50.2c1.06,1.56,2.19,2.65,3.41,3.28c1.22,0.62,2.74,0.94,4.57,0.94
		c1.93,0,3.6-0.4,5.01-1.19c1.41-0.79,2.58-2.21,3.51-4.26c0.7-1.52,1.05-3.54,1.05-6.05c0-1.39-0.06-2.54-0.19-3.46
		c-0.09-0.66-0.29-1.56-0.59-2.7L432.85,50.2z"/>
	<path class="st1" d="M469.94,30.51v-0.69h19.37v0.69h-1.18c-1.08,0-1.93,0.13-2.58,0.39c-0.45,0.18-0.81,0.47-1.07,0.9
		c-0.2,0.3-0.3,1.09-0.3,2.36V46.6c0,2.43-0.35,4.2-1.05,5.31s-1.94,2.03-3.72,2.77c-1.78,0.74-3.93,1.11-6.44,1.11
		c-3.06,0-5.54-0.56-7.43-1.69s-2.83-2.37-2.83-3.73c0-0.87,0.39-1.58,1.16-2.13c0.77-0.54,1.71-0.81,2.82-0.81
		c1.09,0,2.01,0.24,2.75,0.73s1.12,1.09,1.12,1.8c0,0.35-0.06,0.66-0.19,0.92c-0.07,0.12-0.35,0.44-0.85,0.95
		c-0.49,0.51-0.74,0.87-0.74,1.08c0,0.32,0.23,0.61,0.7,0.84c0.68,0.35,1.57,0.52,2.66,0.52c0.77,0,1.41-0.14,1.91-0.41
		c0.5-0.27,0.86-0.7,1.06-1.28c0.21-0.58,0.31-2.19,0.31-4.84V34.16c0-1.3-0.1-2.11-0.31-2.43c-0.21-0.32-0.61-0.61-1.21-0.85
		c-0.6-0.24-1.41-0.37-2.43-0.37H469.94z"/>
	<path class="st1" d="M515.48,29.24l0.29,8.47h-1.1c-0.52-2.12-1.8-3.83-3.83-5.12c-2.03-1.29-4.23-1.94-6.6-1.94
		c-1.83,0-3.27,0.34-4.34,1.02c-1.07,0.68-1.6,1.46-1.6,2.35c0,0.56,0.19,1.06,0.56,1.5c0.52,0.59,1.35,1.17,2.5,1.74
		c0.84,0.41,2.79,1.14,5.83,2.19c4.26,1.46,7.14,2.84,8.63,4.14c1.47,1.3,2.2,2.78,2.2,4.46c0,2.12-1.19,3.95-3.56,5.48
		c-2.37,1.53-5.39,2.29-9.04,2.29c-1.15,0-2.23-0.08-3.25-0.24c-1.02-0.16-2.3-0.47-3.84-0.92c-0.86-0.25-1.57-0.37-2.12-0.37
		c-0.47,0-0.96,0.12-1.48,0.37c-0.52,0.25-0.94,0.63-1.26,1.14h-0.99v-9.59h0.99c0.79,2.7,2.31,4.75,4.55,6.17
		c2.25,1.42,4.67,2.13,7.27,2.13c2.01,0,3.61-0.38,4.8-1.14c1.19-0.76,1.79-1.65,1.79-2.66c0-0.6-0.23-1.18-0.69-1.74
		s-1.15-1.1-2.08-1.6c-0.93-0.51-2.58-1.16-4.94-1.98c-3.31-1.14-5.7-2.1-7.15-2.9c-1.45-0.8-2.57-1.69-3.35-2.68
		c-0.78-0.99-1.17-2.07-1.17-3.26c0-2.02,1.07-3.75,3.2-5.17c2.13-1.42,4.82-2.14,8.06-2.14c1.18,0,2.33,0.1,3.44,0.3
		c0.84,0.15,1.87,0.43,3.08,0.83c1.21,0.41,2.05,0.61,2.54,0.61c0.47,0,0.83-0.1,1.1-0.3s0.52-0.68,0.75-1.44H515.48z"/>
	<path class="st1" d="M543.16,39.54l12.82,11.18c1.81,1.57,3.37,2.64,4.68,3.2c0.95,0.4,1.95,0.6,3.01,0.6v0.69h-18.97v-0.69
		c1.2-0.08,1.97-0.21,2.32-0.39c0.35-0.19,0.52-0.42,0.52-0.69c0-0.52-0.82-1.51-2.47-2.96l-8.36-7.32l-1.34,0.79v6.93
		c0,1.32,0.11,2.15,0.32,2.47s0.63,0.6,1.24,0.83c0.61,0.23,1.58,0.35,2.93,0.35v0.69h-18.38v-0.69h1.21c1.06,0,1.91-0.13,2.55-0.39
		c0.47-0.17,0.82-0.47,1.07-0.9c0.2-0.3,0.3-1.09,0.3-2.36V34.16c0-1.3-0.1-2.11-0.3-2.43c-0.2-0.32-0.6-0.61-1.2-0.85
		c-0.6-0.24-1.41-0.37-2.43-0.37h-1.21v-0.69h18.14v0.69c-1.24,0-2.18,0.12-2.82,0.37c-0.47,0.18-0.83,0.47-1.1,0.88
		c-0.21,0.31-0.32,1.11-0.32,2.4v7.9l13.52-7.62c1.88-1.06,2.82-1.91,2.82-2.55c0-0.47-0.38-0.85-1.16-1.12
		c-0.39-0.14-1.37-0.23-2.93-0.26v-0.69h14.21v0.69c-1.27,0.06-2.27,0.22-3,0.48c-0.73,0.26-2.4,1.12-5.01,2.59L543.16,39.54z"/>
	<path class="st1" d="M584.3,29.46c5.8-0.15,10.52,1.03,14.15,3.54c3.63,2.51,5.44,5.65,5.44,9.42c0,3.22-1.35,6.06-4.06,8.5
		c-3.58,3.25-8.64,4.87-15.18,4.87c-6.56,0-11.63-1.55-15.21-4.65c-2.83-2.45-4.25-5.35-4.25-8.71c0-3.77,1.84-6.91,5.52-9.43
		C574.39,30.5,578.92,29.31,584.3,29.46z M584.62,30.66c-3.33,0-5.87,1.19-7.6,3.56c-1.42,1.95-2.12,4.75-2.12,8.39
		c0,4.33,1.09,7.54,3.28,9.61c1.52,1.45,3.65,2.17,6.4,2.17c1.84,0,3.39-0.31,4.62-0.94c1.58-0.8,2.8-2.08,3.68-3.83
		c0.88-1.75,1.32-4.04,1.32-6.86c0-3.36-0.45-5.87-1.34-7.54c-0.9-1.67-2.04-2.84-3.43-3.53C588.03,31.01,586.43,30.66,584.62,30.66
		z"/>
	<path class="st1" d="M640.59,46.3l-1.37,8.92h-32.35v-0.69h1.21c1.06,0,1.91-0.13,2.55-0.39c0.47-0.17,0.82-0.47,1.07-0.9
		c0.2-0.3,0.3-1.09,0.3-2.36V34.16c0-1.3-0.1-2.11-0.3-2.43c-0.2-0.32-0.6-0.61-1.2-0.85c-0.6-0.24-1.41-0.37-2.43-0.37h-1.21v-0.69
		h19.43v0.69h-1.58c-1.06,0-1.91,0.13-2.55,0.39c-0.47,0.18-0.83,0.47-1.1,0.9c-0.2,0.3-0.3,1.09-0.3,2.36v16.18
		c0,1.3,0.11,2.13,0.32,2.48c0.21,0.36,0.64,0.62,1.26,0.8c0.45,0.11,1.53,0.17,3.25,0.17h3.04c1.93,0,3.55-0.24,4.84-0.71
		c1.29-0.47,2.4-1.22,3.34-2.25c0.94-1.02,1.83-2.53,2.67-4.53H640.59z"/>
	<path class="st1" d="M657.55,31.28v10.34h0.72c2.31,0,3.99-0.51,5.03-1.52c1.04-1.01,1.7-2.5,1.99-4.48h1.02v13.3h-1.02
		c-0.21-1.45-0.67-2.63-1.36-3.56c-0.69-0.92-1.49-1.55-2.4-1.86c-0.91-0.32-2.24-0.48-3.98-0.48v7.15c0,1.4,0.08,2.25,0.25,2.57
		c0.17,0.31,0.49,0.57,0.95,0.77s1.22,0.3,2.26,0.3h2.18c3.4,0,6.13-0.55,8.18-1.65c2.05-1.1,3.52-2.77,4.42-5.02h0.99l-1.64,8.07
		h-31.49v-0.69h1.21c1.06,0,1.91-0.13,2.55-0.39c0.47-0.17,0.82-0.47,1.08-0.9c0.2-0.3,0.3-1.09,0.3-2.36V34.16
		c0-1.15-0.04-1.85-0.13-2.12c-0.18-0.44-0.51-0.77-0.99-1.01c-0.68-0.35-1.61-0.52-2.79-0.52h-1.21v-0.69h30.5v7.51h-1.02
		c-0.52-1.84-1.25-3.15-2.19-3.95c-0.94-0.8-2.27-1.39-3.99-1.76c-1-0.23-2.88-0.34-5.64-0.34H657.55z"/>
	<path class="st1" d="M692.96,29.82l17.98,15.75V34.65c0-1.52-0.31-2.55-0.94-3.09c-0.86-0.72-2.3-1.07-4.33-1.05v-0.69h12.04v0.69
		c-1.54,0.14-2.58,0.32-3.1,0.53c-0.53,0.22-0.94,0.57-1.24,1.07c-0.3,0.49-0.44,1.34-0.44,2.54V55.8h-0.91l-24.64-21.15V50.8
		c0,1.46,0.48,2.45,1.44,2.96c0.96,0.51,2.06,0.77,3.29,0.77h0.86v0.69h-12.92v-0.69c2.01-0.01,3.4-0.3,4.19-0.86
		c0.79-0.56,1.18-1.52,1.18-2.87V32.87l-0.78-0.67c-0.77-0.67-1.45-1.12-2.04-1.33c-0.59-0.21-1.44-0.33-2.55-0.36v-0.69H692.96z"/>
	<path class="st1" d="M752.91,54.52v0.69h-19.05v-0.69h1.21c1.06,0,1.91-0.13,2.55-0.39c0.47-0.17,0.82-0.47,1.08-0.9
		c0.2-0.3,0.3-1.09,0.3-2.36V34.16c0-1.3-0.1-2.11-0.3-2.43c-0.2-0.32-0.6-0.61-1.2-0.85c-0.6-0.24-1.41-0.37-2.43-0.37h-1.21v-0.69
		h19.05v0.69h-1.21c-1.06,0-1.91,0.13-2.55,0.39c-0.47,0.18-0.83,0.47-1.1,0.9c-0.2,0.3-0.29,1.09-0.29,2.36v16.71
		c0,1.3,0.1,2.11,0.31,2.43c0.21,0.33,0.61,0.61,1.21,0.85c0.6,0.24,1.41,0.37,2.43,0.37H752.91z"/>
</g>
<g>
	<g>
		<path class="st1" d="M62.61,388.03v11.96H61.4c-0.61-2.92-1.48-5.02-2.59-6.29c-1.11-1.27-2.68-2.21-4.72-2.8
			c-1.19-0.36-3.41-0.54-6.67-0.54h-4.45v16.46h0.86c2.73,0,4.71-0.8,5.94-2.42c1.23-1.61,2.01-3.99,2.35-7.13h1.21v21.18h-1.21
			c-0.25-2.31-0.79-4.19-1.6-5.67c-0.82-1.47-1.76-2.46-2.84-2.97c-1.08-0.51-2.65-0.76-4.7-0.76v11.39c0,2.23,0.1,3.59,0.3,4.09
			c0.2,0.5,0.58,0.91,1.13,1.22c0.55,0.32,1.44,0.48,2.67,0.48h2.57c4.02,0,7.25-0.87,9.67-2.62c2.43-1.75,4.17-4.41,5.23-7.99h1.18
			l-1.94,12.85H26.55v-1.1h1.43c1.25,0,2.26-0.21,3.02-0.63c0.55-0.28,0.97-0.76,1.27-1.43c0.23-0.48,0.35-1.73,0.35-3.76v-26.6
			c0-1.83-0.05-2.95-0.16-3.37c-0.21-0.7-0.6-1.23-1.18-1.61c-0.81-0.56-1.91-0.83-3.3-0.83h-1.43v-1.1H62.61 M64.61,386.03h-2
			H26.55h-2v2v1.1v2h2h1.43c0.96,0,1.71,0.17,2.17,0.48c0.16,0.1,0.28,0.22,0.38,0.48c0.02,0.14,0.09,0.77,0.09,2.85v26.6
			c0,2.17-0.14,2.82-0.18,2.94l-0.01,0.01c-0.1,0.24-0.22,0.39-0.34,0.45l-0.03,0.01l-0.03,0.02c-0.32,0.17-0.93,0.38-2.06,0.38
			h-1.43h-2v2v1.1v2h2h37.24h1.72l0.26-1.7l1.94-12.85l0.35-2.3h-2.32h-1.18h-1.49l-0.42,1.43c-0.93,3.13-2.43,5.46-4.48,6.94
			c-2.07,1.49-4.93,2.25-8.5,2.25h-2.57c-1.29,0-1.66-0.21-1.67-0.21c-0.08-0.05-0.21-0.13-0.26-0.22c-0.04-0.16-0.17-0.9-0.17-3.36
			v-9.28c0.93,0.11,1.5,0.3,1.85,0.46c0.69,0.32,1.34,1.04,1.95,2.13c0.68,1.23,1.14,2.89,1.37,4.92l0.2,1.78h1.79h1.21h2v-2v-21.18
			v-2h-2h-1.21h-1.8l-0.19,1.79c-0.3,2.76-0.95,4.82-1.95,6.13c-0.67,0.88-1.73,1.4-3.21,1.57v-12.4h2.45c4,0,5.53,0.28,6.09,0.45
			c1.67,0.49,2.94,1.23,3.79,2.2c0.6,0.69,1.46,2.19,2.14,5.39l0.33,1.59h1.62h1.21h2v-2v-11.96V386.03L64.61,386.03z"/>
	</g>
	<g>
		<path class="st1" d="M118.85,388.03v1.1h-1.87c-1.25,0-2.26,0.21-3.02,0.63c-0.55,0.28-0.98,0.76-1.3,1.43
			c-0.23,0.48-0.35,1.73-0.35,3.76v25.77c0,2.07,0.13,3.39,0.38,3.95c0.25,0.57,0.75,0.99,1.49,1.27c0.53,0.18,1.81,0.27,3.84,0.27
			h3.59c2.29,0,4.19-0.38,5.72-1.13c1.52-0.76,2.84-1.95,3.96-3.58c1.11-1.63,2.17-4.04,3.16-7.22h1.3l-1.62,14.2H95.88v-1.1h1.43
			c1.25,0,2.26-0.21,3.02-0.63c0.55-0.28,0.97-0.76,1.27-1.43c0.23-0.48,0.35-1.73,0.35-3.76v-26.6c0-2.07-0.12-3.36-0.35-3.88
			c-0.23-0.52-0.7-0.97-1.41-1.36c-0.71-0.39-1.67-0.58-2.88-0.58h-1.43v-1.1H118.85 M120.85,386.03h-2H95.88h-2v2v1.1v2h2h1.43
			c1.07,0,1.64,0.18,1.92,0.34c0.37,0.2,0.5,0.36,0.54,0.41c0.04,0.16,0.18,0.86,0.18,3.07v26.6c0,2.17-0.14,2.82-0.18,2.94l0,0.01
			c-0.1,0.24-0.22,0.39-0.34,0.45l-0.03,0.01l-0.03,0.02c-0.32,0.17-0.93,0.38-2.06,0.38h-1.43h-2v2v1.1v2h2h38.25h1.78l0.2-1.77
			l1.62-14.2l0.25-2.23h-2.24h-1.3h-1.47l-0.44,1.4c-0.93,2.98-1.91,5.23-2.9,6.69c-0.91,1.34-1.98,2.32-3.19,2.91
			c-1.24,0.61-2.87,0.93-4.83,0.93h-3.59c-2.37,0-3.06-0.13-3.19-0.16c-0.23-0.09-0.31-0.18-0.32-0.19
			c-0.01-0.04-0.21-0.65-0.21-3.13v-25.77c0-2.14,0.14-2.8,0.17-2.94c0.13-0.25,0.25-0.4,0.38-0.47l0.03-0.02l0.03-0.02
			c0.32-0.17,0.93-0.38,2.06-0.38h1.87h2v-2v-1.1V386.03L120.85,386.03z"/>
	</g>
	<g>
		<path class="st1" d="M187.92,388.03v1.1h-1.43c-1.25,0-2.26,0.21-3.02,0.63c-0.55,0.28-0.98,0.76-1.3,1.43
			c-0.23,0.48-0.35,1.73-0.35,3.76v26.6c0,2.07,0.12,3.36,0.37,3.88c0.24,0.52,0.72,0.97,1.43,1.36c0.71,0.39,1.67,0.58,2.88,0.58
			h1.43v1.1H165.4v-1.1h1.43c1.25,0,2.26-0.21,3.02-0.63c0.55-0.28,0.97-0.76,1.27-1.43c0.23-0.48,0.35-1.73,0.35-3.76v-26.6
			c0-2.07-0.12-3.36-0.35-3.88c-0.23-0.52-0.7-0.97-1.41-1.36c-0.71-0.39-1.67-0.58-2.88-0.58h-1.43v-1.1H187.92 M189.92,386.03h-2
			H165.4h-2v2v1.1v2h2h1.43c1.07,0,1.64,0.18,1.92,0.34c0.38,0.21,0.5,0.36,0.54,0.41c0.04,0.16,0.18,0.86,0.18,3.07v26.6
			c0,2.17-0.14,2.82-0.18,2.94l-0.01,0.01c-0.1,0.24-0.22,0.39-0.34,0.45l-0.03,0.01l-0.03,0.02c-0.32,0.17-0.93,0.38-2.06,0.38
			h-1.43h-2v2v1.1v2h2h22.53h2v-2v-1.1v-2h-2h-1.43c-1.07,0-1.63-0.18-1.92-0.34c-0.39-0.21-0.53-0.38-0.57-0.43
			c-0.04-0.16-0.19-0.85-0.19-3.05v-26.6c0-2.14,0.14-2.8,0.17-2.94c0.13-0.25,0.25-0.4,0.38-0.47l0.03-0.02l0.03-0.02
			c0.32-0.17,0.93-0.38,2.06-0.38h1.43h2v-2v-1.1V386.03L189.92,386.03z"/>
	</g>
	<g>
		<path class="st1" d="M256.49,388.03v10.95h-1.14c-0.68-2.53-1.43-4.34-2.26-5.44c-0.83-1.1-1.96-1.98-3.4-2.64
			c-0.8-0.36-2.21-0.54-4.23-0.54h-3.21v31.2c0,2.07,0.12,3.36,0.37,3.88c0.24,0.52,0.72,0.97,1.43,1.36
			c0.71,0.39,1.68,0.58,2.91,0.58h1.43v1.1h-22.56v-1.1h1.43c1.25,0,2.26-0.21,3.02-0.63c0.55-0.28,0.98-0.76,1.3-1.43
			c0.23-0.48,0.35-1.73,0.35-3.76v-31.2h-3.11c-2.9,0-5.01,0.58-6.32,1.73c-1.84,1.61-3.01,3.91-3.49,6.89h-1.21v-10.95H256.49
			 M258.49,386.03h-2h-38.7h-2v2v10.95v2h2H219h1.7l0.27-1.68c0.41-2.53,1.34-4.4,2.84-5.7c0.92-0.81,2.65-1.24,5.01-1.24h1.11v29.2
			c0,2.14-0.14,2.8-0.17,2.94c-0.12,0.25-0.25,0.4-0.38,0.47l-0.03,0.01l-0.03,0.02c-0.32,0.17-0.93,0.38-2.06,0.38h-1.43h-2v2v1.1
			v2h2h22.56h2v-2v-1.1v-2h-2h-1.43c-1.16,0-1.72-0.21-1.95-0.34c-0.39-0.21-0.53-0.38-0.57-0.43c-0.04-0.16-0.19-0.85-0.19-3.05
			v-29.2h1.21c2.41,0,3.22,0.28,3.41,0.36c1.12,0.51,1.98,1.17,2.61,2.01c0.46,0.61,1.17,1.94,1.93,4.76l0.4,1.48h1.53h1.14h2v-2
			v-10.95V386.03L258.49,386.03z"/>
	</g>
	<g>
		<path class="st1" d="M322.23,388.03v11.96h-1.21c-0.61-2.92-1.48-5.02-2.59-6.29c-1.11-1.27-2.68-2.21-4.72-2.8
			c-1.19-0.36-3.41-0.54-6.67-0.54h-4.45v16.46h0.86c2.73,0,4.71-0.8,5.94-2.42s2.01-3.99,2.35-7.13h1.21v21.18h-1.21
			c-0.25-2.31-0.79-4.19-1.6-5.67c-0.82-1.47-1.76-2.46-2.84-2.97c-1.08-0.51-2.65-0.76-4.7-0.76v11.39c0,2.23,0.1,3.59,0.3,4.09
			c0.2,0.5,0.58,0.91,1.13,1.22c0.55,0.32,1.44,0.48,2.67,0.48h2.57c4.02,0,7.25-0.87,9.67-2.62c2.43-1.75,4.17-4.41,5.23-7.99h1.18
			l-1.94,12.85h-37.24v-1.1h1.43c1.25,0,2.26-0.21,3.02-0.63c0.55-0.28,0.97-0.76,1.27-1.43c0.23-0.48,0.35-1.73,0.35-3.76v-26.6
			c0-1.83-0.05-2.95-0.16-3.37c-0.21-0.7-0.6-1.23-1.18-1.61c-0.81-0.56-1.91-0.83-3.3-0.83h-1.43v-1.1H322.23 M324.23,386.03h-2
			h-36.06h-2v2v1.1v2h2h1.43c0.96,0,1.71,0.17,2.17,0.48c0.16,0.1,0.28,0.22,0.38,0.48c0.02,0.14,0.09,0.77,0.09,2.85v26.6
			c0,2.17-0.14,2.82-0.18,2.94l-0.01,0.01c-0.1,0.24-0.22,0.39-0.34,0.45l-0.03,0.01l-0.03,0.02c-0.32,0.17-0.93,0.38-2.06,0.38
			h-1.43h-2v2v1.1v2h2h37.24h1.72l0.26-1.7l1.94-12.85l0.35-2.3h-2.32h-1.18h-1.49l-0.42,1.43c-0.93,3.13-2.43,5.46-4.48,6.94
			c-2.07,1.49-4.93,2.25-8.5,2.25h-2.57c-1.29,0-1.66-0.21-1.67-0.21c-0.08-0.05-0.21-0.13-0.26-0.22c-0.04-0.16-0.17-0.9-0.17-3.36
			v-9.28c0.93,0.11,1.5,0.3,1.85,0.46c0.69,0.32,1.34,1.04,1.95,2.13c0.68,1.23,1.14,2.89,1.37,4.92l0.2,1.78h1.79h1.21h2v-2v-21.18
			v-2h-2h-1.21h-1.8l-0.19,1.79c-0.3,2.76-0.95,4.82-1.95,6.13c-0.67,0.88-1.73,1.4-3.21,1.57v-12.4h2.45c4,0,5.53,0.28,6.09,0.45
			c1.67,0.49,2.94,1.23,3.79,2.2c0.6,0.69,1.46,2.19,2.14,5.39l0.33,1.59h1.62h1.21h2v-2v-11.96V386.03L324.23,386.03z"/>
	</g>
	<g>
		<path class="st1" d="M403.73,388.03v1.1h-1.4c-1.27,0-2.28,0.21-3.02,0.63c-0.55,0.28-0.98,0.76-1.3,1.43
			c-0.23,0.48-0.35,1.73-0.35,3.76v26.6c0,2.07,0.12,3.36,0.35,3.88s0.71,0.97,1.43,1.36c0.72,0.39,1.68,0.58,2.89,0.58h1.4v1.1
			h-22.49v-1.1h1.4c1.27,0,2.28-0.21,3.02-0.63c0.55-0.28,0.98-0.76,1.3-1.43c0.23-0.48,0.35-1.73,0.35-3.76v-12.53h-15.22v12.53
			c0,2.07,0.12,3.36,0.37,3.88c0.24,0.52,0.72,0.97,1.43,1.36c0.71,0.39,1.67,0.58,2.88,0.58h1.43v1.1h-22.53v-1.1h1.43
			c1.25,0,2.26-0.21,3.02-0.63c0.55-0.28,0.97-0.76,1.27-1.43c0.23-0.48,0.35-1.73,0.35-3.76v-26.6c0-2.07-0.12-3.36-0.35-3.88
			s-0.7-0.97-1.41-1.36c-0.71-0.39-1.67-0.58-2.88-0.58h-1.43v-1.1h22.53v1.1h-1.43c-1.25,0-2.26,0.21-3.02,0.63
			c-0.55,0.28-0.98,0.76-1.3,1.43c-0.23,0.48-0.35,1.73-0.35,3.76v11.45h15.22v-11.45c0-2.07-0.12-3.36-0.35-3.88
			c-0.23-0.52-0.71-0.97-1.43-1.36c-0.72-0.39-1.68-0.58-2.89-0.58h-1.4v-1.1H403.73 M405.73,386.03h-2h-22.49h-1.05h-2h-22.53h-2v2
			v1.1v2h2h1.43c1.07,0,1.64,0.18,1.92,0.34c0.38,0.21,0.5,0.36,0.54,0.41c0.04,0.16,0.18,0.86,0.18,3.07v26.6
			c0,2.17-0.14,2.82-0.18,2.94l-0.01,0.01c-0.1,0.24-0.22,0.39-0.34,0.45l-0.03,0.01l-0.03,0.02c-0.32,0.17-0.93,0.38-2.06,0.38
			h-1.43h-2v2v1.1v2h2h22.53h2h1.05h22.49h2v-2v-1.1v-2h-2h-1.4c-1.08,0-1.65-0.19-1.94-0.34c-0.38-0.2-0.51-0.36-0.54-0.4
			c-0.04-0.16-0.18-0.86-0.18-3.07v-26.6c0-2.14,0.14-2.8,0.17-2.94c0.13-0.25,0.25-0.4,0.38-0.47l0.04-0.02l0.04-0.02
			c0.3-0.17,0.89-0.37,2.04-0.37h1.4h2v-2v-1.1V386.03L405.73,386.03z M379.23,391.14h2h1.4c1.08,0,1.65,0.19,1.94,0.34
			c0.37,0.2,0.51,0.36,0.54,0.4c0.04,0.16,0.18,0.87,0.18,3.07v9.45h-11.22v-9.45c0-2.14,0.14-2.8,0.17-2.94
			c0.13-0.25,0.25-0.4,0.38-0.47l0.03-0.02l0.03-0.02c0.45-0.25,1.16-0.38,2.06-0.38h1.43H379.23L379.23,391.14z M374.08,411.03
			h11.22v10.53c0,2.14-0.14,2.8-0.17,2.94c-0.12,0.25-0.25,0.4-0.38,0.47l-0.04,0.02l-0.04,0.02c-0.3,0.17-0.9,0.37-2.04,0.37h-1.4
			h-2h-1.05h-1.43c-1.07,0-1.63-0.18-1.92-0.34c-0.39-0.21-0.53-0.38-0.57-0.43c-0.04-0.16-0.19-0.85-0.19-3.05V411.03
			L374.08,411.03z"/>
	</g>
	<g>
		<path class="st1" d="M457.21,387.45c6.34,0,11.53,1.89,15.58,5.66c4.29,4,6.43,9,6.43,15c0,5.13-1.6,9.64-4.8,13.54
			c-4.24,5.17-10.22,7.75-17.95,7.75c-7.75,0-13.75-2.47-17.98-7.4c-3.35-3.9-5.02-8.52-5.02-13.87c0-6,2.18-11.01,6.53-15.02
			c4.11-3.78,9.11-5.67,15-5.67c0.35,0,0.7,0.01,1.06,0.02C456.44,387.46,456.83,387.45,457.21,387.45 M456.38,427.17
			c2.18,0,4-0.5,5.46-1.49c1.86-1.27,3.31-3.31,4.35-6.1c1.04-2.79,1.56-6.44,1.56-10.93c0-5.35-0.53-9.35-1.59-12
			c-1.06-2.65-2.41-4.53-4.05-5.62c-1.64-1.09-3.53-1.64-5.67-1.64c-3.94,0-6.94,1.89-8.99,5.67c-1.67,3.1-2.51,7.56-2.51,13.36
			c0,6.9,1.29,12,3.88,15.3C450.61,426.01,453.14,427.17,456.38,427.17 M457.21,385.45c-0.38,0-0.76,0.01-1.14,0.02
			c-0.36-0.01-0.71-0.02-1.06-0.02c-6.38,0-11.89,2.09-16.35,6.2c-4.76,4.38-7.17,9.93-7.17,16.49c0,5.82,1.85,10.92,5.5,15.17
			c4.61,5.37,11.17,8.09,19.5,8.09c8.32,0,14.88-2.86,19.5-8.49c3.48-4.25,5.25-9.23,5.25-14.81c0-6.55-2.38-12.09-7.07-16.46
			C469.74,387.53,464.04,385.45,457.21,385.45L457.21,385.45z M456.38,425.17c-2.61,0-4.57-0.88-5.98-2.69
			c-2.29-2.93-3.45-7.66-3.45-14.07c0-5.44,0.76-9.62,2.27-12.41c1.71-3.15,4.01-4.62,7.23-4.62c1.75,0,3.24,0.43,4.56,1.31
			c1.29,0.86,2.4,2.44,3.3,4.7c0.96,2.4,1.45,6.19,1.45,11.26c0,4.23-0.48,7.68-1.43,10.23c-0.89,2.38-2.1,4.12-3.61,5.14
			C459.6,424.78,458.14,425.17,456.38,425.17L456.38,425.17z"/>
	</g>
	<g>
		<path class="st1" d="M531.74,388.03v1.1h-1.87c-1.25,0-2.26,0.21-3.02,0.63c-0.55,0.28-0.98,0.76-1.3,1.43
			c-0.23,0.48-0.35,1.73-0.35,3.76v25.77c0,2.07,0.13,3.39,0.38,3.95c0.25,0.57,0.75,0.99,1.49,1.27c0.53,0.18,1.81,0.27,3.84,0.27
			h3.59c2.29,0,4.19-0.38,5.72-1.13c1.52-0.76,2.84-1.95,3.96-3.58c1.11-1.63,2.16-4.04,3.16-7.22h1.3l-1.62,14.2h-38.25v-1.1h1.43
			c1.25,0,2.26-0.21,3.02-0.63c0.55-0.28,0.97-0.76,1.27-1.43c0.23-0.48,0.35-1.73,0.35-3.76v-26.6c0-2.07-0.12-3.36-0.35-3.88
			s-0.7-0.97-1.41-1.36c-0.71-0.39-1.67-0.58-2.88-0.58h-1.43v-1.1H531.74 M533.74,386.03h-2h-22.97h-2v2v1.1v2h2h1.43
			c1.07,0,1.64,0.18,1.92,0.34c0.37,0.21,0.5,0.36,0.54,0.41c0.04,0.16,0.18,0.86,0.18,3.07v26.6c0,2.17-0.14,2.82-0.18,2.94l0,0.01
			c-0.1,0.24-0.22,0.39-0.34,0.45l-0.03,0.01l-0.03,0.02c-0.32,0.17-0.93,0.38-2.06,0.38h-1.43h-2v2v1.1v2h2h38.25h1.78l0.2-1.77
			l1.62-14.2l0.25-2.23h-2.24h-1.3h-1.47l-0.44,1.4c-0.93,2.98-1.91,5.23-2.9,6.69c-0.91,1.34-1.98,2.32-3.19,2.91
			c-1.24,0.61-2.86,0.93-4.83,0.93h-3.59c-2.37,0-3.06-0.13-3.19-0.16c-0.23-0.09-0.31-0.18-0.32-0.19
			c-0.01-0.04-0.21-0.65-0.21-3.13v-25.77c0-2.14,0.14-2.8,0.17-2.94c0.13-0.25,0.25-0.4,0.38-0.47l0.03-0.02l0.03-0.02
			c0.32-0.17,0.93-0.38,2.06-0.38h1.87h2v-2v-1.1V386.03L533.74,386.03z"/>
	</g>
	<g>
		<path class="st1" d="M597.13,388.03c5.15,0,9.29,0.66,12.42,1.97c3.83,1.61,6.74,4.05,8.72,7.31c1.98,3.26,2.97,6.95,2.97,11.06
			c0,2.84-0.49,5.46-1.46,7.86s-2.23,4.37-3.78,5.93c-1.55,1.56-3.33,2.81-5.35,3.76c-2.02,0.94-4.49,1.68-7.42,2.19
			c-1.29,0.24-3.33,0.36-6.1,0.36h-19.29v-1.1h1.43c1.25,0,2.21-0.18,2.88-0.55c0.67-0.37,1.16-0.87,1.48-1.51
			c0.19-0.42,0.29-1.67,0.29-3.76v-26.6c0-2.07-0.12-3.36-0.35-3.88c-0.23-0.52-0.7-0.97-1.41-1.36c-0.71-0.39-1.67-0.58-2.88-0.58
			h-1.43v-1.1H597.13 M597.86,426.27c3.54,0,6.24-1.13,8.1-3.4c2.54-3.06,3.81-7.81,3.81-14.26c0-5.19-0.87-9.34-2.61-12.44
			c-1.38-2.42-3.15-4.08-5.31-4.95c-1.48-0.6-3.9-0.9-7.27-0.9c-0.11,0-0.22,0-0.33,0v31.55c0,1.67,0.08,2.7,0.25,3.07
			c0.17,0.38,0.46,0.67,0.86,0.86C595.96,426.12,596.78,426.27,597.86,426.27 M597.13,386.03h-19.29h-2v2v1.1v2h2h1.43
			c1.08,0,1.64,0.18,1.92,0.34c0.37,0.2,0.5,0.36,0.54,0.41c0.04,0.16,0.18,0.87,0.18,3.07v26.6c0,2.03-0.1,2.76-0.14,2.97
			c-0.13,0.22-0.33,0.39-0.59,0.54c-0.17,0.09-0.68,0.3-1.91,0.3h-1.43h-2v2v1.1v2h2h19.29c2.93,0,5.04-0.13,6.46-0.39
			c3.06-0.54,5.73-1.33,7.9-2.35c2.23-1.04,4.22-2.44,5.93-4.16c1.73-1.74,3.14-3.96,4.21-6.59c1.07-2.62,1.61-5.52,1.61-8.61
			c0-4.47-1.1-8.54-3.26-12.1c-2.2-3.61-5.44-6.34-9.66-8.11C606.96,386.75,602.52,386.03,597.13,386.03L597.13,386.03z
			 M596.36,424.07c-0.04-0.27-0.09-0.89-0.09-2.19v-29.53c2.73,0.1,4.13,0.43,4.84,0.72c1.74,0.71,3.16,2.04,4.32,4.08
			c1.55,2.77,2.34,6.63,2.34,11.45c0,5.93-1.13,10.3-3.35,12.98c-1.48,1.8-3.63,2.68-6.56,2.68
			C596.95,424.27,596.53,424.14,596.36,424.07L596.36,424.07z"/>
	</g>
	<g>
		<path class="st1" d="M687.37,388.03v11.96h-1.21c-0.61-2.92-1.48-5.02-2.59-6.29c-1.11-1.27-2.68-2.21-4.72-2.8
			c-1.19-0.36-3.41-0.54-6.67-0.54h-4.45v16.46h0.86c2.73,0,4.71-0.8,5.94-2.42s2.01-3.99,2.35-7.13h1.21v21.18h-1.21
			c-0.25-2.31-0.79-4.19-1.6-5.67c-0.82-1.47-1.76-2.46-2.84-2.97c-1.08-0.51-2.65-0.76-4.7-0.76v11.39c0,2.23,0.1,3.59,0.3,4.09
			c0.2,0.5,0.58,0.91,1.13,1.22c0.55,0.32,1.44,0.48,2.67,0.48h2.57c4.02,0,7.25-0.87,9.67-2.62c2.43-1.75,4.17-4.41,5.23-7.99h1.18
			l-1.94,12.85h-37.24v-1.1h1.43c1.25,0,2.26-0.21,3.02-0.63c0.55-0.28,0.97-0.76,1.27-1.43c0.23-0.48,0.35-1.73,0.35-3.76v-26.6
			c0-1.83-0.05-2.95-0.16-3.37c-0.21-0.7-0.6-1.23-1.18-1.61c-0.81-0.56-1.91-0.83-3.3-0.83h-1.43v-1.1H687.37 M689.37,386.03h-2
			h-36.06h-2v2v1.1v2h2h1.43c0.96,0,1.71,0.17,2.17,0.48c0.15,0.1,0.28,0.22,0.38,0.48c0.02,0.14,0.09,0.78,0.09,2.85v26.6
			c0,2.16-0.14,2.82-0.18,2.94l-0.01,0.01c-0.1,0.24-0.22,0.39-0.34,0.45l-0.03,0.01l-0.03,0.02c-0.32,0.17-0.93,0.38-2.06,0.38
			h-1.43h-2v2v1.1v2h2h37.24h1.72l0.26-1.7l1.94-12.85l0.35-2.3h-2.32h-1.18h-1.49l-0.42,1.43c-0.93,3.13-2.43,5.46-4.48,6.94
			c-2.07,1.49-4.93,2.25-8.5,2.25h-2.57c-1.29,0-1.67-0.21-1.67-0.21c-0.08-0.04-0.21-0.13-0.26-0.22
			c-0.04-0.16-0.17-0.89-0.17-3.36v-9.28c0.93,0.11,1.5,0.3,1.85,0.46c0.69,0.32,1.34,1.04,1.95,2.13c0.68,1.23,1.14,2.89,1.37,4.92
			l0.2,1.78h1.79h1.21h2v-2v-21.18v-2h-2h-1.21h-1.8l-0.19,1.79c-0.3,2.76-0.95,4.82-1.95,6.13c-0.67,0.88-1.73,1.4-3.21,1.57v-12.4
			h2.45c4,0,5.53,0.28,6.09,0.45c1.67,0.49,2.94,1.23,3.79,2.2c0.6,0.69,1.46,2.19,2.14,5.39l0.33,1.59h1.62h1.21h2v-2v-11.96
			V386.03L689.37,386.03z"/>
	</g>
	<g>
		<path class="st1" d="M760.48,388.03v10.95h-1.14c-0.68-2.53-1.43-4.34-2.26-5.44c-0.83-1.1-1.96-1.98-3.4-2.64
			c-0.81-0.36-2.21-0.54-4.23-0.54h-3.21v31.2c0,2.07,0.12,3.36,0.37,3.88c0.24,0.52,0.72,0.97,1.43,1.36
			c0.71,0.39,1.68,0.58,2.91,0.58h1.43v1.1h-22.56v-1.1h1.43c1.25,0,2.26-0.21,3.02-0.63c0.55-0.28,0.99-0.76,1.3-1.43
			c0.23-0.48,0.35-1.73,0.35-3.76v-31.2h-3.11c-2.9,0-5.01,0.58-6.32,1.73c-1.84,1.61-3.01,3.91-3.49,6.89h-1.21v-10.95H760.48
			 M762.48,386.03h-2h-38.7h-2v2v10.95v2h2h1.21h1.7l0.27-1.68c0.41-2.53,1.34-4.4,2.84-5.71c0.92-0.81,2.65-1.24,5.01-1.24h1.11
			v29.2c0,2.14-0.14,2.8-0.18,2.94c-0.13,0.25-0.25,0.4-0.38,0.47l-0.03,0.01l-0.03,0.02c-0.32,0.17-0.93,0.38-2.06,0.38h-1.43h-2v2
			v1.1v2h2h22.56h2v-2v-1.1v-2h-2h-1.43c-1.16,0-1.72-0.21-1.95-0.34c-0.39-0.21-0.53-0.38-0.57-0.43
			c-0.04-0.16-0.19-0.85-0.19-3.05v-29.2h1.21c2.41,0,3.22,0.28,3.41,0.36c1.12,0.51,1.98,1.17,2.61,2.01
			c0.46,0.61,1.17,1.94,1.92,4.76l0.4,1.48h1.53h1.14h2v-2v-10.95V386.03L762.48,386.03z"/>
	</g>
</g>
<g>
	<path class="st2" d="M85.93,351.43H64.04c-33.85,0-37.94-12.45-37.94-45.55V126.28c0-33.1,4.09-45.55,37.94-45.55h21.89
		c34.14,0,37.94,13.11,37.94,45.55v179.59C123.87,338.32,120.07,351.43,85.93,351.43z M74.84,315.71c5.84,0,7.3-5.24,7.3-12.78
		v-173.7c0-6.88-1.46-12.78-7.3-12.78c-4.96,0-7,5.9-7,12.78v173.7C67.84,310.79,69.3,315.71,74.84,315.71z"/>
	<path class="st2" d="M191.57,315.71h23.05v35.72h-64.78V80.73h41.73V315.71z"/>
	<path class="st2" d="M277.95,315.71H301v35.72h-64.78V80.73h41.73V315.71z"/>
	<path class="st2" d="M392.63,118.42h-28.31v64.23h28.31v37.36h-28.31v93.73h28.31v37.69H322.6V80.73h70.04V118.42z"/>
	<path class="st2" d="M513.15,126.28v53.75c0,18.68,0,23.6-14.88,36.71c16.34,13.76,14.88,28.51,14.88,46.21v88.49h-41.73V247.87
		c0-12.78-5.84-13.11-14.3-13.11v116.67h-41.73V80.73h59.82C509.07,80.73,513.15,93.84,513.15,126.28z M457.12,116.12v81.6
		c13.72,0,14.3-0.33,14.3-13.44v-54.73C471.42,116.45,471.13,116.12,457.12,116.12z"/>
	<path class="st2" d="M597.78,351.43H575.9c-34.14,0-37.94-12.45-37.94-45.55V80.73h41.73v222.2c0,7.87,1.17,12.78,7,12.78
		c5.54,0,7.3-5.24,7.3-12.78V80.73h41.73v225.15C635.72,338.32,631.64,351.43,597.78,351.43z"/>
	<path class="st2" d="M704.01,351.43h-41.73V80.73h59.82c33.85,0,37.94,13.11,37.94,45.55v83.24c0,32.44-4.08,45.55-37.94,45.55
		c0,0-15.17,0-18.09,0V351.43z M704.01,116.12v103.56c13.72,0,14.3-0.33,14.3-13.44v-76.69
		C718.31,116.45,718.02,116.12,704.01,116.12z"/>
</g>
</svg>
