<svg id="Lag_1" data-name="Lag 1" xmlns="http://www.w3.org/2000/svg" viewBox="0 0 840.13 182"><defs><style>.cls-1{stroke:#000;stroke-miterlimit:10;stroke-width:4px;}.cls-2{fill:#010101;}</style></defs><g id="om-mig"><path class="cls-1" d="M520.33,60.91a13.77,13.77,0,0,1,.77,1.31c1.18,2.48,2.38,5,3.53,7.46a21,21,0,0,1,.7,2.07c.85,2.53,1.81,5,2.53,7.59.6,2.14,1.75,4.2,1.33,6.56a.92.92,0,0,0,.19.74c1.35.94,1,2.35,1.24,3.69.28,2.06.88,4.08,1.3,6.13a35.88,35.88,0,0,1,.85,4.79,22.64,22.64,0,0,0,1.29,6.86c.19.5-.18,1.19-.13,1.78.14,1.51.43,3,.53,4.51.15,2.32.18,4.66.3,7,.17,3.5.36,7,.55,10.5.08,1.37.18,2.74.28,4.11,0,.09,0,.23,0,.27,2,1.75,1.11,4.15,1.39,6.28s.48,4.06.86,6.06-1.15,5.11-3,5.67c-2,.62-4.06,1-6.11,1.41-.34.07-.75-.19-1.13-.26-1.72-.31-3.45-.61-5.17-.94-.19,0-.5-.3-.49-.42a2.48,2.48,0,0,0-1.32-2.45c-.46-.33-.3-1.53-.37-2.34-.08-1,.49-2.07-.26-3.07-.18-.24,0-.72,0-1.09-.08-1.47-.16-2.93-.28-4.39-.05-.71-.23-1.41-.26-2.12-.12-2.7-.13-5.4-.31-8.1-.22-3.47-.81-6.9-1.35-10.34a29.3,29.3,0,0,1,0-3.25,53.21,53.21,0,0,0-1.66-12.68,2,2,0,0,1,0-.69c.19-2-.55-3.73-1-5.57s-.78-3.67-1.23-5.48c-.16-.61-.63-1.14-.8-1.75-1-3.5-1.85-7-2.95-10.49a29.19,29.19,0,0,0-2.25-4.77c-.28-.53-.85-1-1.41-.24-.86,1.17-1.67,2.37-2.46,3.58a32.85,32.85,0,0,0-1.77,2.89c-1.38,2.63-2.72,5.28-4,7.94a3.6,3.6,0,0,0-.44,1.61c.15,2.8-1.89,4.81-2.56,7.31-.79,2.91-1.82,5.74-2.76,8.61-.57,1.76-1.24,3.49-1.71,5.27-.39,1.49-.5,3-.8,4.55s-.79,3.12-1.09,4.7c-.19,1-.15,2.06-.31,3.08a9.76,9.76,0,0,1-.61,2.39c-.34.79-1,1.45-1.3,2.25-.85,2.68-3.06,3.4-5.4,3.66a23.73,23.73,0,0,1-6.3,0,6.51,6.51,0,0,1-4.77-3.29c-.23-.39-.63-.66-.89-1a4,4,0,0,1-.75-1.36c-.51-2.39-1-4.8-1.4-7.22a3.27,3.27,0,0,1,.09-.92c0-.2.09-.54,0-.56-2.37-1-1.09-3.43-2.08-5a4.48,4.48,0,0,1-.44-1.21,24.64,24.64,0,0,1-.94-3.64c-.39-3.4-1.9-6.49-2.57-9.82a3,3,0,0,0-.94-1.54c-1.47-1.31-1.3-3.28-2.1-4.85a4.08,4.08,0,0,0-.86-1.43c-.51-.4-1.18-.58-.56-1.38A10.33,10.33,0,0,0,455,88.62c-.17-.08-.92.51-.95.84-.26,2.56-.27,5.16-.63,7.7-.52,3.61-1.3,7.17-1.9,10.76a34.49,34.49,0,0,0-.55,5.06,118,118,0,0,1-.72,13.81c-.16,1.28.44,2.65.71,4,0,.25.3.51.24.72-.58,2.22.26,4.15,1,6.19a9.68,9.68,0,0,1,.48,5.18c-.69,3.94-3.5,5.83-6.58,7.5a7.37,7.37,0,0,1-3.23.57,13.72,13.72,0,0,1-4.68-.34c-1.37-.47-3.11-.64-3.92-2.23a21.63,21.63,0,0,1-1.53-3,5.51,5.51,0,0,1,.18-2.14c.05-.46.18-.91.19-1.36,0-1.69-.38-3.51.13-5a24.46,24.46,0,0,0,1.12-3.71,3,3,0,0,1,.14-.34c-1.33-.76-.87-1.92-.71-3,.09-.59.1-1.19.16-1.78.09-.86.18-1.72.28-2.58a16.9,16.9,0,0,1,.3-2.25,2.51,2.51,0,0,0-.48-2.63c-.32-.34,0-.69.57-1.09a1.29,1.29,0,0,0,.4-1.16c-.43-.83-.08-1.33.26-2.08s1.55-1.78-.19-2.43a.81.81,0,0,1-.29-.54c1.21-1.15.51-2.69.74-4,.7-4,.73-8.11,1.59-12,.45-2.06.46-4.2,1.17-6.23a18.84,18.84,0,0,0,.4-3.88,72.18,72.18,0,0,0,1-8.36c0-1.66.47-3.18.55-4.75.07-1.29.77-2.1,1.06-3.11a23.53,23.53,0,0,1,1.53-3.42,11.27,11.27,0,0,1,3.81-4.53,6.41,6.41,0,0,0,1.25-1c1.58-1.95,3.73-1.64,5.76-1.37,1.35.18,2.84.17,3.83,1.52,2.33,3.19,4.74,6.31,7.1,9.46a37.47,37.47,0,0,1,3.57,4.94c1.39,2.72,3.48,5,4.4,8.07s1.84,6,3.88,8.57c.69.86.82,2.15,1.26,3.22a1.51,1.51,0,0,0,.67.81c.26.11.93,0,.95-.17.4-2.44,2-4.27,3.08-6.4a13.8,13.8,0,0,0,1.37-4c.26-1.88,1.65-3.13,2.27-4.78a17.83,17.83,0,0,1,1.12-2c1.3-2.43,2.51-4.91,3.92-7.28,2-3.28,4.07-6.48,6.11-9.71.14-.22.24-.51.44-.64a4.28,4.28,0,0,0,2.08-4.29.61.61,0,0,1,.17-.47c2-1.62,3.77-3.62,6-4.7,1.5-.72,3.2-2.18,5.29-1.14,2.89,1.44,5.81,2.85,7.64,5.66a14.22,14.22,0,0,1,1,2.66A6.53,6.53,0,0,0,520.33,60.91Z"/><path class="cls-1" d="M340.29,114.19c1.18,1.18,1.15,1.55-.08,2.53-.18.14-.21.57-.16.84s.39.2.58.33a2.44,2.44,0,0,1,.75.62c.15.25.07.62.12.93s.16.83.24,1.24a7.3,7.3,0,0,0-.6-.75,4.4,4.4,0,0,0-.65-.45c-.06.15-.21.33-.17.43.19.43.4,1.16.66,1.18.8.07,1.06.39,1,1.13a11.28,11.28,0,0,0,.82,6.12c.11.23-.09.6-.13.9s-.14.67,0,.73c1.54,1,.46,2.22.43,3.35,0,.2,0,.48.14.58a3.11,3.11,0,0,1,1.13,2.21,1.85,1.85,0,0,0,1.06,1.79c1,.46,1,3.56.58,4.58a3.39,3.39,0,0,0,.25,2.39c.51,1.07.11,1.13-.77,1.09-.52,0-1.4-.25-.68.82a.4.4,0,0,1-.18.32c-1.18.34-1.9,1.68-3.4,1.4-.56-.1-1.22.35-1.85.51a12.13,12.13,0,0,1-1.46.28,11.65,11.65,0,0,1-5-.27c-.22-.07-.51,0-.68-.16-2.21-1.68-3-4.16-3.62-6.7s-1.2-5.19-1.68-7.8c-.38-2.05-.53-4.14-.86-6.2a1.72,1.72,0,0,0-.76-1.12c-.8-.4-.7-.85-.41-1.52a3.46,3.46,0,0,0,.33-1.66c-.21-2-.52-4-.81-6.06-.17-1.23-.47-2.44-.53-3.67-.09-1.82,0-3.65-.05-5.48a8.06,8.06,0,0,0-.47-2.58,6.84,6.84,0,0,1-.19-4.44.65.65,0,0,0,0-.47c-1.32-2.33-.78-5-1.27-7.45-.35-1.75-.31-3.57-.62-5.33a29.36,29.36,0,0,0-1.19-3.95,1.8,1.8,0,0,0-2.88-.52q-1.28,1.82-2.37,3.75c-.69,1.24-1.21,2.57-1.92,3.8-.24.42-.81.65-1.19,1s-1,.52,0,.88c.14.05.22.63.12.88-.71,1.75-1.46,3.48-2.23,5.2a3.71,3.71,0,0,1-.66.83c0-.34-.09-.68-.11-1a4.5,4.5,0,0,1,.07-.63c-.13.18-.34.34-.38.53a14.34,14.34,0,0,1-.26,1.76c-.68,1.85-1.46,3.67-2.14,5.52-.46,1.25-.78,2.55-1.26,3.79a7.38,7.38,0,0,1-1.1,1.77c-1.07,1.37-1,3.08-1.34,4.64-.37,1.81-.28,3.71-.65,5.51a23.55,23.55,0,0,0-.3,3.33c0,.64-.75,1.25-1.21,1.84s-1.19,1.34-1.74,2-.83,1.25-1.32,1.81c-.12.14-.76.11-.81,0-.63-1.38-1.61-.47-2.2-.18a6.75,6.75,0,0,1-4.46.57c-1.32-.26-2.71-.12-4-.37-2.23-.42-3.18-2.33-4.19-4.06a9.07,9.07,0,0,1-.91-2.54,39.41,39.41,0,0,0-2.06-5.43,10.81,10.81,0,0,1-.76-4.5c0-.84-.88-1.71-1.35-2.58a3.33,3.33,0,0,1-.49-1.18c-.25-3.15-2.21-5.62-3.48-8.31-1-2.11-2.08-4.41-4.15-6-.68-.51-.82-1.68-1.33-2.47a12.86,12.86,0,0,0-1.45-1.61,15.69,15.69,0,0,1-1.3-1.53c-.66-1-1.34-1-2,0-.23.36-.56.67-.79,1a4.75,4.75,0,0,0-.3.85c.21,0,.48-.15.63-.06s.74.49.71.67c-.31,1.58-.83,3.12-1,4.71s-.19,3.37-.25,5.06c0,.92-.05,1.84-.06,2.76,0,.71,0,1.43,0,2.14.1,2.69-1,5.35-.08,8.1a4.2,4.2,0,0,1-.61,2.62,6.62,6.62,0,0,0-.21,3.89,33.51,33.51,0,0,1-.17,4.35c0,1.39.11,2.78.17,4.17,0,.18.12.41,0,.52-1,1.33-.59,2.85-.52,4.28.11,2,.46,4,.71,6a3.55,3.55,0,0,1,.09.79c0,.46,0,.38.4.61a.93.93,0,0,1,.17.89,75.93,75.93,0,0,1-5.36,6.22c-.57.55-1.56,1.5-2.78,1a.61.61,0,0,0-.46,0c-1.86,1.22-3.92.92-5.87.54a5.56,5.56,0,0,1-4.19-4,22.06,22.06,0,0,1-.94-2.81c-.13-.61-.2-1.54.15-1.9,1.11-1.18.21-2.61.73-3.88a16.57,16.57,0,0,0,.87-4.23c.17-1.55.12-3.12.24-4.68q.28-3.75.66-7.49c.12-1.1.4-2.17.5-3.27.23-2.47.51-5,.53-7.43,0-1.87-.47-3.74-.47-5.62a47.88,47.88,0,0,1,.57-4.89c.06-.67-.09-1.35,0-2,.16-2.72.36-5.44.55-8.17a3.49,3.49,0,0,0,0-.56c-.28-2.08-.63-4.16-.81-6.25-.08-1.06.23-2.14.24-3.22,0-2-.05-4-.1-6,0-1.65-.12-3.29-.13-4.94,0-.61.27-1.23.22-1.84a3.28,3.28,0,0,1,1.23-2.71,34.84,34.84,0,0,0,3.23-3.65,8.44,8.44,0,0,1,4.8-3,1.31,1.31,0,0,1,.87.22c3.51,2,7.08,3.81,10.47,6,1,.67,2.66,1.28,2.56,3.09,0,0,.33.08.42.19.52.62,1,1.24,1.51,1.88.11.16.1.6.15.6,1.88.08,1.68,1.85,2.35,2.89.45.7,1.6,1,1.29,2.16,0,.06.24.28.29.25,1.41-.76,1.57.72,1.66,1.24.29,1.65,1.91,2.11,2.64,3.35,1,1.73,2.19,3.37,3.33,5,1.66,2.43,3.38,4.81,5,7.27a11.56,11.56,0,0,1,1.63,3.35c.28,1.08.92,1.16,1.73,1.23.28,0,.66-.12.82,0,1.28,1.12,1.43-.21,1.8-.85A70.27,70.27,0,0,0,298.91,85a32,32,0,0,1,2.51-4.53,7.21,7.21,0,0,1,.44-.93c.81-1,1.69-2.06,2.49-3.12a13.86,13.86,0,0,0,2-2.92,79.73,79.73,0,0,0,3.72-10A12.22,12.22,0,0,1,313.46,58c1.18-1.21,2.89-1.9,4.37-2.82.63-.39,1.3-1.14,1.89-1.08,1.93.2,4-.13,5.63,1.52,1.18,1.22,2.58,2.23,3.85,3.36a2.62,2.62,0,0,1,.5.88c.12.27.1.67.3.84,1.56,1.41,1.12,3.45,1.65,5.18.05.17-.06.39,0,.55.77,1.63,1.56,3.25,2.35,4.87.06.12.16.26.13.36-.69,2.22,1.81,3.68,1.41,5.83,1.3,1,.76,2.73,1.34,4,.23.52-.17,1.28-.18,1.94,0,3.09,1.53,5.89,1.66,9,.07,1.58.63,3.13.77,4.71s0,3.29.05,4.93a4,4,0,0,0,.45,2.06c.56.8.12,1.35-.23,1.84a1.72,1.72,0,0,0,.32,2.51c.16.17.46.32.47.49.05,1.69.06,3.39,0,5.15l-.76.73.18.17.65-.83M309,97.75a1.77,1.77,0,0,0,.57,0c.07,0,0-.3.05-.45a1.09,1.09,0,0,0-.62.49m30.65,14.49c0,.28,0,.56,0,.83a1,1,0,0,0,.25,0A1,1,0,0,0,339.6,112.24Z"/><path class="cls-1" d="M143.26,139.33a31,31,0,0,1-2.13-3.53,31.87,31.87,0,0,1-1.75-4.85,15,15,0,0,1-.23-3.16c-.1-2.39-.2-4.78-.28-7.17,0-.85,0-1.71,0-2.56-.06-1.35-.3-2.71-.24-4.06.11-2.61.37-5.21.61-7.82a15.05,15.05,0,0,0,.35-2.34c-.2-2.43,1.18-4.47,1.58-6.76a68.63,68.63,0,0,1,2.19-8.69c1.22-4,3.25-7.57,5.06-11.28a22.74,22.74,0,0,1,3.66-6c2.44-2.54,5.21-4.78,7.88-7.08a32.68,32.68,0,0,1,3.11-2.24A89,89,0,0,1,171,56.69a80.14,80.14,0,0,1,8.57-3.5c1.85-.71,3.75-1.28,5.59-2a7.6,7.6,0,0,0,1.78-1.09,7.47,7.47,0,0,1,5.09-2,33.06,33.06,0,0,1,7.87.9c2.08.59,4.25.84,6.23,1.9a48.92,48.92,0,0,0,4.71,1.74A29.73,29.73,0,0,1,214,54.35c1.13.63,2.24,1.32,3.37,2a25.84,25.84,0,0,1,3.7,2.11,34.77,34.77,0,0,1,3.87,3.9c2.62,2.91,3.68,6.78,6,9.9.81,1.09,1,2.62,1.53,3.94a2.75,2.75,0,0,0,.5.77,4.22,4.22,0,0,1,1.23,3.47c-.09.6.69,1.28.81,2a34.74,34.74,0,0,1,.37,3.68c0,.07-.14.2-.12.22,1.52,1.72.28,3.94,1.09,5.87.5,1.19.24,2.72.27,4.09s0,2.56,0,3.84c0,.31.14.76,0,.91-.65.61-.52,1.32-.52,2.09a34.2,34.2,0,0,1-.27,4.29c-.15,1.12-.51,2.2-.77,3.3-.48,2-.93,4.07-1.46,6.09a6.58,6.58,0,0,1-.82,1.74,4.47,4.47,0,0,0-.84,3.14,1.87,1.87,0,0,1-.13.64c-1.43-.42-1.07,1.06-1.45,1.58A22.11,22.11,0,0,0,228,128.3c-.56,1.3-.85,2.71-1.41,4a20,20,0,0,1-1.66,2.91c-.29.45-.8.77-1.09,1.22a18.18,18.18,0,0,1-4.31,5.16c-1.34,1-2.36,2.48-3.82,3.43-1.95,1.25-3.81,2.64-5.81,3.81s-4.21,2.16-6.32,3.24a37,37,0,0,1-8.45,2.78c-1.28.31-2.75.34-3.78,1a4.4,4.4,0,0,1-2.07,1.05c-.49,0-1-.15-1.5-.11-2.33.16-4.67.37-7,.55-.29,0-.59,0-.88,0a21.7,21.7,0,0,1-2.42,0c-3.12-.39-6.23-.94-9.37-1.22-2.87-.25-4.76-2.4-7.25-3.38-.12,0-.25-.14-.36-.12-2.05.44-3.69-.81-5.35-1.54-1.42-.62-2.5-2-3.75-3-.78-.64-1.62-1.23-2.39-1.89a23.6,23.6,0,0,1-3.1-2.88c-1-1.21-2.68-2-2.65-4m24.86-66.79c-1.12,1.39-2.26,2.77-3.34,4.19a36.9,36.9,0,0,0-2.72,3.87c-.8,1.41-1.21,3-2.05,4.43a22.5,22.5,0,0,0-2.51,7.88c-.35,1.92-.15,4-1.24,5.76a7,7,0,0,0-.92,2.94c-.28,3-.43,6-.57,9,0,.7.32,1.43.21,2.1a9.32,9.32,0,0,0,.37,5.64,8.65,8.65,0,0,1,.79,4.87c0,.14-.23.33-.19.4,1.06,2,2.12,4,3.25,6a10.79,10.79,0,0,0,1.65,2.21,40,40,0,0,0,4.41,4,25.94,25.94,0,0,0,4.36,2.23,8,8,0,0,0,2.14.86c2.27.35,4.46,1,6.76,1.3a25.2,25.2,0,0,0,7-.14,26.46,26.46,0,0,1,3.93-.52c1.36,0,2.69.23,3.92-.6.4-.27,1.09-.63,1.38-.47.93.53,1.29-.15,1.86-.56a17.92,17.92,0,0,1,2.45-1.48c1.52-.79,3.14-1.43,4.6-2.31a15.86,15.86,0,0,0,3-2.46,10.53,10.53,0,0,0,1.81-2.58c.68-1.38.91-3.06,1.83-4.23a27.64,27.64,0,0,0,2.93-4.38c1.54-3,3.08-5.91,2.81-9.43a12.42,12.42,0,0,1,.26-2.25c.11-1,.16-2,.34-2.93s.6-2.18.74-3.3c.09-.72-.33-1.52-.2-2.23.66-3.58,0-7.07-.61-10.56-.32-1.83-.1-3.79-1.36-5.43a5.1,5.1,0,0,1-1.1-2.31,21.29,21.29,0,0,0-2.27-7.61c-.3-.57-.56-1.16-.83-1.75-1-2-1.86-4.15-3.88-5.47s-4-2.71-6-4a5,5,0,0,0-1.51-.47c-.47-.12-1-.05-1.41-.3-.66-.45-1.05-1.17-2.16-.76a5.18,5.18,0,0,1-2.56-.19c-1.71-.31-3.4-.87-5.12,0a5.07,5.07,0,0,1-1.85.55c-2.83.24-5.2,1.57-7.56,3a5.13,5.13,0,0,1-1.11.67,13,13,0,0,0-6.63,4.23,14.15,14.15,0,0,1-2.36,1.65A6.19,6.19,0,0,0,168.12,72.54Z"/><path class="cls-1" d="M651.48,118.93a67.75,67.75,0,0,1,6-6.08c2.86-2.38,4.56-5.61,6.68-8.53.38-.52,0-1.6,0-2.42,0-.45,0-.91,0-1.36,0-.1-.14-.28-.19-.27-1,.17-2.08.35-3.11.55-.29.06-.57.24-.86.27-2.15.2-4.31.32-6.45.58-1.88.23-3.73.67-5.6.9a13.34,13.34,0,0,1-2.6-.09c-.29,0-.57-.24-.86-.26-3-.26-6.47-3.18-6.79-5.73-.29-2.22-.32-4.64,1.61-6.43l3.24-3c.06-.07.15-.2.19-.19,1.73.43,2.2-1.14,3-2a4.12,4.12,0,0,1,3.65-1.18,31.24,31.24,0,0,0,5.06-.47c.71-.07,1.42,0,2.13,0,1.41-.07,2.81-.13,4.21-.29,2.07-.23,4.12-.59,6.2-.81,3.92-.41,7.86-.75,11.79-1.13,1.83-.17,3.66-.32,5.48-.56,2.5-.33,5-.83,7.49-1,1.18-.11,2.5-.53,3.6.67a11.48,11.48,0,0,0,2.45,1.42,5.06,5.06,0,0,1,1.32,1.1c.85,1.12,1.67,2.27,2.4,3.46a6.38,6.38,0,0,1,.46,5.38,5.74,5.74,0,0,1-3.69,3.68c-1.22.52-2.35,1.28-3.59,1.76-2.81,1.09-5.72.77-8.57.2-2.05-.41-2.86,0-2.83,2.17a10,10,0,0,1-1.43,5.27c-.05.08-.16.14-.17.21-.15,2.77-2.25,4.55-3.4,6.81-.86,1.68-1.55,3.43-3.3,4.3-2.31,1.15-3.09,3.51-4.56,5.32a3.93,3.93,0,0,1-.55.53c-1.48,1.25-3.07,2.39-4.41,3.77-1.52,1.57-2.69,3.51-4.26,5-1.83,1.75-3.93,3.22-5.91,4.82-.66.53-1.25,1.15-1.94,1.64-1.54,1.08-3.13,2.09-4.68,3.14a44.68,44.68,0,0,1-4,2.74,15.78,15.78,0,0,1-4.14,1.39,14.57,14.57,0,0,0-3.16.82,23.55,23.55,0,0,1-10.86,2,65.69,65.69,0,0,1-7.47-1.12c-.73-.13-1.33-.88-2.06-1-2.78-.61-4.16-3-5.88-4.81-1.19-1.26-1.7-3.25-2.32-5a53,53,0,0,1-2.08-6.93c-.66-3.21-1.73-6.3-2.1-9.62a82.7,82.7,0,0,1-.94-10.27c.07-3.6.69-7.18,1-10.78a9.52,9.52,0,0,1,.05-2.21c.69-2-.09-4.35,1.61-6.08.26-.26.22-.82.3-1.25.28-1.69,1.06-3.51.7-5.06-.44-1.81.66-3.06.8-4.61a51.54,51.54,0,0,1,1.9-8.8,29.9,29.9,0,0,1,1.88-3.81c.62-1.37,1.06-2.81,1.7-4.17.5-1.05,1.19-2,1.79-3a18.57,18.57,0,0,0,1.17-2c1.4-3.15,3.9-5.42,6.35-7.65a34,34,0,0,1,6.1-4.42,34.56,34.56,0,0,1,8-3.64,39.24,39.24,0,0,1,7.53-1c1.53-.13,3-.76,4.59,0,2.47,1.09,4.77,2.28,6.29,4.64.32.49,1,.77,1.37,1.23,1.79,2,1.27,4.34.78,6.68-.68,3.28-3.34,4.27-6,4.69a9.87,9.87,0,0,1-6.81-1.39,2.48,2.48,0,0,0-2.23-.1c-.77.56-1.34.27-2.07.24a8.46,8.46,0,0,0-6.64,2.72c-1,1.07-2.11,2.07-3.12,3.14a16,16,0,0,0-3.77,6.8c-.3,1.1-1.29,2-1.58,3.1a61.68,61.68,0,0,0-1.14,6.21c-.1.61,0,1.14-.76,1.51-1,.48-1.07,1.64-1.22,2.67-.33,2.27-.78,4.52-1,6.8-.15,1.31,0,2.66,0,4a13.08,13.08,0,0,1-.17,2.26c-.17.89-.57,1.73-.7,2.62-.25,1.77-.41,3.56-.57,5.34a10.17,10.17,0,0,0,0,2c.14,1.14.42,2.26.52,3.4.23,2.84.17,5.73.62,8.53a52,52,0,0,0,2.26,9.23c.75,2.09,2,4.25,4.6,4.63a14.61,14.61,0,0,0,3.57-.35c.2,0,.4-.25.59-.23,2.69.32,4.76-1.21,7-2.32s4.3-2,6.38-3.09a14.13,14.13,0,0,0,2.71-2.13C649.19,121.42,650.32,120.23,651.48,118.93Z"/><path class="cls-1" d="M550.35,62.37a23.72,23.72,0,0,1-.23-3.36,2.79,2.79,0,0,1,.88-1.82,47.68,47.68,0,0,1,6.7-4.68,4.49,4.49,0,0,1,4.69.69,71.74,71.74,0,0,1,6.66,6.62c1.11,1.22.14,2.79.14,4.2,0,1.84,0,3.69.13,5.52.09,1.42.36,2.82.53,4.23s.42,3.09.55,4.64.14,3.31.3,5c.34,3.52.77,7,1.09,10.54.18,2,.14,4,.31,6,.21,2.4.58,4.78.81,7.18.15,1.64.2,3.29.29,4.94.19,3.7.32,7.4.57,11.1.19,2.72.52,5.43.84,8.15a13.3,13.3,0,0,0,.54,2.13,44.63,44.63,0,0,1,1.8,6.48c.33,2.67.61,5.47-.44,8.07-1,2.44-4.31,3.64-7,2.85a8.63,8.63,0,0,0-2.35.14,6.59,6.59,0,0,1-5.32-2.15c-1.4-1.72-2.74-3.52-3-6.11a67.26,67.26,0,0,0-.83-7.43c-.46-2.12-.2-4.15-.42-6.21-.17-1.62-.33-3.24-.45-4.87-.15-1.86-.27-3.73-.39-5.6-.19-3.14-.37-6.28-.56-9.43s-.3-6.53-.58-9.79c-.18-2.2-.59-4.39-.9-6.58-.07-.44-.15-.87-.19-1.32-.19-2.1-.4-4.2-.54-6.31-.08-1.13.11-2.28,0-3.39-.23-1.58-.74-3.13-1-4.72-.16-.89,0-1.85-.1-2.75-.3-2-.33-4.08-1.2-5.76A12.42,12.42,0,0,1,550.35,62.37Z"/></g><g id="kontakt"><path class="cls-2" d="M653,38.7a7.22,7.22,0,0,1,1.19,1.39l-1.11.28A8.1,8.1,0,0,1,653,38.7Z"/></g><g id="portfolio"><path class="cls-2" d="M806.46,176.74a10.58,10.58,0,0,1-2.2-.78l1.9-1.26A10.31,10.31,0,0,1,806.46,176.74Z"/></g></svg>