<?xml version="1.0" encoding="utf-8"?><!DOCTYPE svg PUBLIC "-//W3C//DTD SVG 1.1//EN" "http://www.w3.org/Graphics/SVG/1.1/DTD/svg11.dtd"><svg version="1.1" id="Contours" xmlns="http://www.w3.org/2000/svg" xmlns:xlink="http://www.w3.org/1999/xlink" x="0px" y="0px" width="1368.628418px" height="1368.628418px" viewBox="-0.000004 0.000001 1368.628418 238.190948" enable-background="new 0 0 1368.628418 1368.628418" xml:space="preserve" stroke="black" fill="none" stroke-linecap='round' stroke-linejoin='round'><path class="selected"  fill="#000000" opacity="1.000000" stroke="none" 
 	d="
M611.878468 154.083037 C613.526844 141.601348 615.210316 129.624297 616.802540 117.635131 C617.289784 113.966124 617.517933 110.262999 617.880482 106.577056 C618.462879 100.655089 619.146900 94.741011 619.590687 88.808852 C619.713001 87.174010 618.882923 85.481322 618.918934 83.824523 C619.176563 71.963012 619.493092 60.102095 619.911060 48.245208 C620.031788 44.819258 620.611317 41.412062 620.865955 37.987761 C621.600941 28.104750 628.437855 22.979537 636.043446 18.472014 C636.675709 18.097304 637.611927 18.024199 638.372608 18.111266 C644.085133 18.765181 649.923084 18.956404 655.462147 20.335112 C662.547962 22.098799 667.059620 27.410140 670.954151 33.432692 C674.367420 38.711196 674.980946 44.800841 677.057850 50.426757 C681.638355 62.834349 684.832447 75.873778 692.329640 87.094710 C693.428516 88.739455 694.241688 90.645369 694.844227 92.539489 C697.703968 101.529830 704.468800 107.954604 709.714710 115.369689 C711.294727 117.603011 712.868214 120.199919 715.102711 121.494445 C716.799915 122.477690 720.738514 122.602538 721.613453 121.487670 C726.057362 115.825316 730.260548 109.873366 733.739185 103.576033 C740.085926 92.086547 746.214039 80.446135 751.759632 68.554503 C755.683582 60.140090 759.698902 51.799163 760.190846 41.944442 C760.541248 34.926177 765.926930 29.811492 772.689503 27.107482 C786.693897 21.507842 799.259083 27.458068 806.424732 36.564208 C811.414356 42.904860 812.474171 51.313796 811.977833 59.715987 C811.513477 67.577666 811.489796 75.513243 811.993336 83.370101 C812.449635 90.489440 814.032642 97.528899 814.841480 104.635146 C815.987232 114.702513 816.456104 124.864394 818.006886 134.862944 C819.343433 143.480773 821.756275 151.934264 823.755421 160.445769 C825.072804 166.054778 826.008473 171.822356 828.017262 177.180663 C830.009815 182.495940 832.667408 187.726897 835.996754 192.292235 C837.269703 194.037810 841.190846 194.235015 843.948414 194.395812 C846.213795 194.527922 848.700001 192.816344 850.807301 193.259215 C853.908131 193.910857 857.862354 194.036925 858.363209 198.934264 C858.603199 201.281920 859.822193 203.693785 861.130909 205.734771 C864.171925 210.478087 863.048878 214.161711 859.490162 218.168242 C856.839893 221.152068 855.231861 225.042510 852.979908 228.408843 C852.086598 229.744109 850.889454 231.070769 849.518726 231.859252 C842.293629 236.015532 834.235035 237.194060 826.110645 238.091124 C817.270191 239.067290 812.077320 232.688994 807.124195 227.466521 C798.920948 218.817076 793.928028 207.879882 789.948902 196.690825 C786.120777 185.926207 782.428272 175.072997 779.506397 164.038848 C777.017445 154.639922 775.777943 144.914366 773.845509 135.361724 C773.044666 131.403044 771.917042 127.507567 770.835255 123.611922 C770.679859 123.052306 769.943775 122.653945 769.476429 122.180999 C768.943775 122.728255 768.244068 123.188430 767.905994 123.837096 C765.908680 127.669677 763.918995 131.510253 762.086231 135.422881 C761.174976 137.368254 760.603993 139.472991 759.878346 141.505370 C759.308216 143.102172 758.711598 144.690123 758.172291 146.297271 C757.386280 148.639739 756.591908 150.981261 755.886952 153.348723 C752.326038 165.306762 748.245106 176.798217 734.047840 180.106444 C730.426380 180.950316 726.906483 182.235350 723.280201 183.052489 C714.742481 184.976287 708.597340 180.592711 703.220570 174.856231 C698.010059 169.296996 693.671742 162.780577 687.919788 157.898864 C677.384632 148.957640 671.406483 136.924651 664.072498 125.772948 C663.988880 125.645781 663.972157 125.467437 663.873951 125.358107 C662.648609 123.993804 661.413990 122.637847 660.181751 121.279784 C659.413990 123.294692 657.582447 125.612014 658.055042 127.274352 C660.671009 136.477050 657.466602 145.281829 656.896534 154.249633 C656.471363 160.937865 656.094227 167.633300 655.905262 174.331481 C655.600758 185.122649 651.721363 194.791137 646.366627 203.858824 C645.045460 206.095977 642.104908 207.982299 639.525745 208.760466 C630.930958 211.353728 622.110279 213.251860 613.662952 208.252166 C611.742054 207.115233 610.053944 205.271788 608.795338 203.393859 C606.113392 199.392241 603.945362 195.046141 601.264454 191.043669 C598.473805 186.877349 600.578663 183.209868 602.010181 179.490721 C605.218006 171.156737 608.579578 162.881957 611.878468 154.083037 z"/><path class="selected"  fill="#000000" opacity="1.000000" stroke="none" 
 	d="
M234.878468 184.083037 C234.800739 180.327422 234.654987 177.071624 234.662098 173.816191 C234.671528 169.515410 233.901173 164.950133 235.072254 160.971312 C237.275135 153.486815 231.783344 147.346068 232.678516 140.049254 C233.584889 132.661345 232.995167 125.073088 232.834950 117.577407 C232.738056 113.044310 232.331410 108.507720 231.852772 103.995085 C230.941273 95.400969 231.609028 86.109404 228.438404 78.419661 C224.516041 68.906585 227.597279 58.940718 223.897633 49.805159 C221.007099 42.667647 220.653431 35.181365 220.817951 27.557036 C221.054798 16.581038 227.413868 10.083037 238.464619 10.083037 C239.964436 10.083037 241.699482 10.581862 242.926441 10.003264 C251.869404 5.786116 256.938465 12.518615 262.876453 16.819274 C268.948170 21.216796 267.379017 28.305205 268.791218 34.263655 C271.428272 45.390380 272.965443 56.802108 276.031910 67.796324 C279.505848 80.251250 284.062183 92.458144 289.981190 103.982390 C295.266041 114.271956 301.853382 124.156295 312.858692 128.824645 C319.784473 131.762481 327.693470 131.000060 335.124867 128.380614 C346.174915 124.485656 352.838062 116.189879 358.175160 106.337889 C361.650623 99.922469 365.889881 93.888961 368.982044 87.306243 C372.437855 79.949218 375.341236 72.386763 373.074390 63.707091 C372.188770 60.316176 373.719044 56.352523 373.746327 52.646743 C373.768543 49.629851 372.714832 46.559600 373.019093 43.603667 C373.294727 40.925353 374.699452 38.344985 375.732472 35.772048 C376.133228 34.773909 377.177113 33.986480 377.420155 32.980376 C378.788685 27.314788 383.261219 24.995055 388.129688 24.238631 C394.391468 23.265746 400.825367 23.324111 407.190907 23.151946 C408.668018 23.112014 410.811817 23.451613 411.556202 24.439727 C417.379261 32.169463 427.382130 37.569838 425.016956 49.909728 C423.880177 55.840743 423.728626 62.072905 423.975697 68.134246 C424.549732 82.215163 424.607838 96.266204 428.551502 110.154753 C430.619618 117.437926 429.569874 125.641814 432.886585 132.898436 C435.513050 138.644774 438.387257 144.283965 440.842701 150.101104 C446.290943 163.008330 451.398182 176.060973 456.957142 188.919127 C458.936268 193.497008 459.265431 197.114104 455.017384 200.569609 C452.802540 202.371245 451.522266 205.398497 449.213123 206.994200 C439.563465 213.662444 433.626453 213.033599 424.701466 205.882415 C417.992848 200.506987 413.303333 192.562194 407.901234 185.616362 C397.808521 172.639464 395.415882 156.113219 388.098194 141.812102 C386.217823 138.137297 385.819080 139.626921 384.227772 141.226439 C380.016712 145.459166 375.557362 149.470305 371.609974 153.934935 C360.810841 166.149047 346.535755 169.919768 331.142140 172.322112 C321.575794 173.815062 312.550037 172.685302 303.837391 169.860167 C296.135304 167.362761 289.050404 162.961241 281.694813 159.396819 C280.883961 159.003936 280.084644 158.587188 279.280018 158.181517 C279.146168 159.125945 278.839283 160.083495 278.909535 161.012481 C279.164112 164.379943 279.774342 167.734099 279.829334 171.100158 C279.933888 177.501616 279.156971 183.904753 275.184315 189.122039 C271.739430 193.646178 268.241810 199.336272 263.456684 201.274016 C259.188801 203.002257 252.835651 205.597167 247.701557 200.563994 C245.644795 198.547637 242.691639 197.459471 240.189838 195.880126 C236.031971 193.255370 236.104603 188.606231 234.878468 184.083037 z"/><path class="selected"  fill="#000000" opacity="1.000000" stroke="none" 
 	d="
M1071.878468 20.083037 C1078.243336 21.614516 1084.101978 23.169860 1089.974415 24.671874 C1098.780201 26.924163 1103.868458 33.511367 1108.962086 40.352004 C1112.190479 44.687575 1115.551685 48.538314 1112.919727 54.445250 C1111.543629 57.534056 1110.566334 60.803603 1109.461720 64.009658 C1107.996021 68.263533 1104.076344 68.995040 1100.544361 70.035338 C1093.580494 72.086409 1086.397266 70.898650 1079.304859 71.114119 C1074.207325 71.268981 1072.311085 66.815825 1070.569508 63.871352 C1066.861012 57.601653 1061.655323 58.325972 1056.287281 59.142119 C1043.887135 61.027404 1032.823902 66.636214 1024.934376 75.970595 C1015.599903 87.014479 1008.847828 99.932631 1005.835621 114.458983 C1004.230030 122.201018 1001.072193 129.537261 1001.777271 137.816466 C1003.215992 154.709685 1009.908375 168.765197 1024.391285 177.715880 C1031.514576 182.118132 1039.825245 183.658843 1048.954762 183.729522 C1056.699146 183.789550 1062.810108 181.210784 1069.457935 179.041320 C1077.077808 176.554686 1084.665333 173.931426 1092.116749 170.987151 C1094.827931 169.915892 1096.964405 167.465056 1099.612598 166.143828 C1104.707813 163.601775 1110.009571 161.476622 1115.160572 159.041075 C1116.463062 158.425292 1117.520435 157.291014 1118.690479 156.395049 C1117.176563 155.624358 1115.707325 154.319426 1114.140064 154.188658 C1110.276905 153.866332 1106.366139 154.178221 1102.479542 154.064086 C1093.116993 153.789183 1083.759205 153.318602 1074.395557 153.157164 C1072.264576 153.120452 1070.137379 154.180449 1067.972950 154.443816 C1065.018360 154.803344 1062.030445 154.894530 1059.055470 155.078551 C1057.421925 155.179564 1055.742115 155.021849 1054.157887 155.345977 C1045.107960 157.197509 1036.145069 159.990020 1027.015675 160.700042 C1023.006641 161.011840 1018.339771 157.651458 1014.549732 155.099639 C1002.903248 147.258178 1004.282642 126.833647 1012.132496 119.075652 C1016.482349 114.776625 1025.282765 111.405974 1030.864185 112.729857 C1040.237110 114.953048 1048.395313 111.961760 1057.070606 111.391509 C1058.694264 111.284774 1060.317799 111.172087 1061.942555 111.085433 C1068.303272 110.746245 1074.662159 110.242186 1081.026661 110.151778 C1084.549366 110.101714 1088.085987 111.059706 1091.609181 111.013259 C1097.473805 110.935958 1103.389698 109.748107 1109.179859 110.243636 C1117.347462 110.942595 1126.013111 111.317199 1133.410938 114.379241 C1149.132740 120.886824 1163.439503 129.830992 1168.211475 148.018523 C1168.680714 149.806639 1168.285694 151.957671 1167.830006 153.827727 C1166.208912 160.480315 1164.287281 166.881865 1158.293507 171.354613 C1155.358326 173.545043 1153.365406 176.960448 1150.771168 179.652983 C1143.201099 187.509551 1134.280567 193.189086 1124.179127 197.494872 C1114.257496 201.724059 1104.946705 207.364714 1095.179859 211.989165 C1091.167652 213.888915 1086.344532 214.142943 1082.441700 216.194426 C1069.698170 222.893096 1056.038624 222.430449 1042.374561 222.050841 C1023.287891 221.520659 1006.345753 214.344268 991.153614 203.479277 C985.102711 199.151763 978.769093 194.254821 975.766651 186.594634 C974.816578 184.171080 972.244801 182.433104 970.937794 180.089782 C967.703053 174.289885 964.651905 168.377532 961.811451 162.375701 C961.210743 161.106261 961.926563 159.257811 961.860890 157.683440 C961.567921 150.654082 961.193165 143.628112 960.890553 136.599120 C960.809376 134.712371 960.642262 132.783965 960.917652 130.934722 C962.504200 120.281264 963.831959 109.565398 966.059864 99.042693 C966.989918 94.649596 969.829151 90.632247 971.961842 86.527999 C976.881519 77.061064 980.914478 66.924605 987.146534 58.405150 C993.813282 49.291533 1002.178150 41.459807 1011.758228 34.837157 C1018.706959 30.033461 1026.137867 26.764876 1033.777882 23.876570 C1041.424122 20.985961 1049.308155 18.291686 1057.795460 19.068755 C1062.316090 19.482665 1066.850391 19.749694 1071.878468 20.083037 z"/><path class="selected"  fill="#000000" opacity="1.000000" stroke="none" 
 	d="
M164.128468 57.833037 C176.837147 66.208373 189.405537 74.173857 201.666493 82.587310 C204.272663 84.375655 205.992756 87.655043 207.709675 90.496077 C210.833057 95.664458 214.788685 100.719695 216.274891 106.379409 C217.799366 112.184767 217.527119 118.764144 216.659931 124.806533 C215.862751 130.361144 214.131672 136.214324 211.197254 140.931426 C206.422779 148.606505 200.821034 155.919554 194.648853 162.526305 C189.296375 168.255645 182.740711 172.883178 176.588123 177.837889 C165.426991 186.825927 152.990681 193.306670 139.116383 197.165770 C132.453632 199.019011 126.078510 201.883910 119.486591 204.024199 C116.376179 205.034117 113.085560 205.825011 109.836048 206.012542 C95.463276 206.842101 81.063801 208.103240 66.697651 207.852233 C56.359150 207.671599 46.887043 202.722808 38.105824 197.546630 C30.895405 193.296447 23.769642 188.333373 17.997913 182.345061 C9.327457 173.349211 3.102558 162.603331 1.856480 149.646575 C1.321125 144.080077 -0.182156 138.510344 0.018269 132.987944 C0.564259 117.945388 4.445026 103.844359 11.648060 90.357451 C16.487629 81.295836 21.965656 72.865050 29.047077 65.689543 C34.641285 60.021025 39.874653 54.147292 48.489430 51.406020 C58.043629 48.365859 66.087818 40.674392 75.614124 37.427901 C86.829090 33.605910 98.524677 29.550429 111.023884 32.957518 C115.166309 34.086699 119.846180 33.187682 124.035450 34.214858 C130.308613 35.753005 136.638050 37.623214 142.388874 40.471968 C144.921406 41.726485 146.467579 45.567092 147.777607 48.535430 C149.230579 51.827666 150.437733 54.199797 154.826038 54.294707 C157.865803 54.360442 160.862507 56.416365 164.128468 57.833037 M45.878468 155.583037 C48.880756 157.585326 51.669178 160.078917 54.925861 161.496917 C64.342823 165.597197 73.763416 170.285277 84.345234 169.939055 C89.621754 169.766356 94.813038 167.786956 100.105976 167.146453 C110.255695 165.918212 119.910664 163.818450 129.411976 159.402648 C144.289814 152.488005 157.364460 143.535094 168.050709 131.223601 C170.835804 128.014952 172.793171 123.892607 174.330219 119.883055 C175.040058 118.031462 174.451038 115.060317 173.356403 113.263594 C170.806843 109.078734 167.686756 105.223342 164.605457 101.389067 C163.291950 99.754637 161.728352 97.982222 159.883320 97.170378 C149.879719 92.768599 140.480335 87.422271 129.526356 84.630751 C116.028736 81.191024 102.684315 80.054869 89.004627 80.070891 C87.375172 80.072798 85.510059 80.392806 84.157215 79.735656 C78.638661 77.054869 73.959156 76.664183 67.843617 79.770537 C59.200764 84.160613 52.408955 90.071303 46.953999 97.663573 C41.951222 104.626387 38.475361 112.334624 36.784351 120.934127 C34.252705 133.808532 36.325123 145.255309 45.878468 155.583037 z"/><path class="selected"  fill="#000000" opacity="1.000000" stroke="none" 
 	d="
M883.628468 103.333037 C882.545216 94.101058 881.890797 85.097853 880.827931 76.143142 C879.780689 67.318312 877.751881 58.578841 877.187916 49.735945 C876.518238 39.236022 875.295704 28.403762 881.880421 18.906874 C884.307911 15.405867 887.358082 13.542693 891.781788 15.047179 C892.528248 15.301055 893.449146 15.182814 894.265797 15.068190 C908.379200 13.087172 921.190601 25.801268 923.717579 38.640792 C924.436329 42.292998 922.996510 46.323622 922.923512 50.187804 C922.773731 58.127043 922.878468 66.071105 922.878468 74.013182 C922.878468 79.399947 922.323292 84.860396 923.025684 90.153960 C923.820118 96.140944 925.755299 101.975310 927.169727 107.881957 C927.679127 110.009597 928.251515 112.134993 928.562794 114.294890 C929.720265 122.326110 930.764942 130.373473 931.885792 138.410064 C932.389210 142.020385 933.029469 145.612212 933.496265 149.226805 C933.745899 151.159087 933.969166 153.135680 933.843678 155.068816 C933.144215 165.837218 933.909107 176.289580 939.875172 185.736907 C940.289234 186.392668 940.501148 187.464354 941.068409 187.692382 C950.895802 191.643065 949.705128 202.453185 954.454762 209.566924 C955.513111 211.152129 954.080860 215.153380 952.734791 217.409362 C950.852100 220.564299 948.005177 223.153319 945.512989 225.932524 C942.792530 228.966246 939.843678 229.641478 935.688038 228.253936 C931.390553 226.819030 926.437428 227.357512 922.129566 225.941893 C915.516651 223.768737 910.981617 219.121703 908.476124 212.313048 C906.355763 206.550780 902.975391 201.247832 900.909473 195.470946 C898.298512 188.169799 895.299366 181.006743 894.715992 172.991515 C894.145557 165.154814 892.111988 157.434539 890.961109 149.627715 C889.475147 139.547301 888.323902 129.417571 886.839161 119.336974 C886.061207 114.054885 884.878468 108.832412 883.628468 103.333037 z"/><path class="selected"  fill="#000000" opacity="1.000000" stroke="none" 
 	d="
M1368.628468 2.833037 C1366.574757 2.945998 1364.771046 2.808944 1362.967335 2.671874 C1363.369679 1.876937 1363.624195 0.542678 1364.201099 0.384551 C1366.221241 -0.169191 1368.507740 -0.635408 1368.628468 2.833037 z"/><path class="selected"  fill="#000000" opacity="1.000000" stroke="none" 
 	d="
M1315.128468 1.833037 C1314.249683 2.620940 1313.121021 3.158858 1311.992237 3.696776 C1311.820240 2.792983 1311.648121 1.889205 1311.476124 0.985411 C1312.610279 1.184615 1313.744312 1.383818 1315.128468 1.833037 z"/></svg>