<?xml version="1.0" encoding="utf-8"?><!DOCTYPE svg PUBLIC "-//W3C//DTD SVG 1.1//EN" "http://www.w3.org/Graphics/SVG/1.1/DTD/svg11.dtd"><svg version="1.1" id="Contours" xmlns="http://www.w3.org/2000/svg" xmlns:xlink="http://www.w3.org/1999/xlink" x="0px" y="0px" width="1525.860229px" height="1525.860229px" viewBox="0.000003 0.000000 1525.860229 357.233490" enable-background="new 0 0 1525.860229 1525.860229" xml:space="preserve" stroke="black" fill="none" stroke-linecap='round' stroke-linejoin='round'><path class="selected"  fill="#000000" opacity="1.000000" stroke="none" 
 	d="
M869.110196 152.999982 C874.195340 153.999997 878.807217 154.892377 883.359646 156.024060 C891.051907 157.936292 898.892422 159.504239 906.275357 162.271451 C908.826016 163.227506 911.833889 167.382276 911.742886 169.974469 C911.590664 174.311414 909.399563 178.741590 904.819119 181.004209 C897.676358 184.532605 890.373806 186.246945 882.362881 184.106153 C879.820889 183.426847 876.931729 184.169354 874.223172 183.967832 C866.493557 183.392667 858.784268 182.300000 851.049649 182.107953 C843.977444 181.932324 836.877102 183.003018 829.799710 182.886594 C824.733548 182.803250 819.699917 181.339597 814.623440 181.104291 C810.619412 180.918683 806.577176 181.768033 802.542508 181.967877 C799.326992 182.127149 795.980435 181.498624 792.923001 182.210858 C791.386868 182.568677 789.146878 185.277677 789.312649 186.675900 C790.221341 194.339566 791.781277 201.925794 793.107266 209.540402 C793.459866 211.565381 794.007840 213.589566 794.069363 215.626111 C794.311123 223.625653 800.961514 228.849439 808.714810 227.014585 C809.188198 226.902524 809.711575 227.012494 810.211087 226.998151 C821.738247 226.667188 833.293301 225.687009 844.784451 226.184522 C855.934170 226.667233 867.057034 228.409101 878.119534 230.077024 C887.931302 231.556378 891.622708 229.084119 894.170926 219.276013 C898.452664 202.795270 905.099331 187.169095 918.138455 175.849286 C928.213467 167.102597 940.047573 160.717008 953.188565 156.846967 C962.864834 153.997281 972.133511 155.153012 981.583096 156.977155 C985.745083 157.780576 990.002163 158.285474 994.037564 159.512570 C1004.755825 162.771787 1013.465298 169.499234 1022.030728 176.407346 C1023.264492 177.402417 1024.503384 178.426206 1025.866177 179.219769 C1030.582364 181.966168 1034.673184 184.842191 1035.781582 190.991834 C1036.819058 196.747617 1040.940518 200.315152 1045.962490 203.724851 C1054.980557 209.847974 1063.866299 216.544309 1067.175259 228.025083 C1069.438321 235.877133 1072.558926 243.483457 1074.780850 251.345258 C1075.532559 254.004743 1075.393887 257.351575 1074.480313 259.972333 C1069.962613 272.931287 1065.810635 286.141644 1055.521206 296.113294 C1050.875210 300.615827 1046.830532 305.897443 1041.668667 309.670575 C1034.528897 314.889264 1026.975186 319.899365 1018.905972 323.403272 C1007.251553 328.463910 995.627407 334.287244 982.304043 334.034436 C972.918057 333.856366 963.460049 334.661298 954.163418 333.733624 C949.174893 333.235852 944.597989 329.506055 939.590664 328.116315 C929.787930 325.395673 921.446377 319.611676 914.402432 313.214215 C902.464871 302.372144 892.459805 289.455457 889.186490 272.871015 C888.345486 268.609845 888.155178 264.160443 888.198880 259.802869 C888.235684 256.136548 886.400418 255.603192 883.558987 256.067700 C875.764859 257.341870 868.013638 258.954175 860.179898 259.875714 C856.738614 260.280530 853.092007 258.796643 849.618435 259.096173 C836.984768 260.185773 824.341763 261.360242 811.789090 263.121472 C804.894192 264.088910 803.601895 266.372663 805.212246 274.537641 C807.475186 286.011121 810.067349 297.452130 813.255948 308.697980 C815.072964 315.106580 818.198574 321.077374 817.179348 328.089795 C816.708767 331.327558 815.652554 333.528455 812.557034 335.162885 C798.077237 342.808331 785.795498 338.626019 777.182522 322.586896 C775.672696 319.775342 775.091092 316.461041 774.115445 313.368054 C773.091946 310.123456 772.057644 306.880750 771.121670 303.610425 C769.414700 297.646497 767.875027 291.632947 766.068509 285.700055 C765.174405 282.763806 763.778897 279.984082 762.723416 277.092267 C761.264981 273.096356 758.397488 271.323743 754.434475 269.720166 C751.144314 268.388837 748.883023 264.565778 746.103482 261.912061 C737.928311 254.107465 741.946133 246.290662 746.182095 238.590238 C746.984951 237.130795 748.533108 235.585996 750.058010 235.111859 C754.664761 233.679425 756.432217 230.536359 755.424832 225.747739 C753.482388 216.515012 752.406460 207.064420 749.905423 197.998197 C748.417202 192.603391 744.933804 187.749539 742.210720 182.726590 C742.034817 182.402204 740.485318 182.418500 739.920803 182.794995 C738.833218 183.520352 737.797390 184.488675 737.081936 185.580304 C732.063321 193.237790 724.376858 195.766431 715.885342 197.046079 C710.928738 197.792996 706.049649 199.770612 701.121182 199.822721 C693.371792 199.904599 685.610012 198.830777 677.853848 198.240750 C677.052700 198.179791 676.254605 198.011746 675.454861 198.010510 C665.232327 197.994550 655.009793 197.982816 644.787320 198.007047 C639.491665 198.019605 638.436612 199.809232 639.599270 205.070432 C641.027127 211.532132 641.889431 218.116620 643.126980 224.623151 C645.063687 234.805356 646.962918 244.998487 649.152005 255.127820 C651.292996 265.034833 653.690884 274.889264 656.152798 284.722547 C657.126004 288.609632 658.345547 292.472547 659.873379 296.172864 C661.450894 299.993299 664.072659 302.681104 668.824734 302.039472 C670.625027 301.796430 672.826138 301.374280 674.240384 302.143872 C676.465603 303.354810 679.565091 305.301465 679.857937 307.294599 C680.851773 314.058637 681.239712 321.005048 680.865445 327.827252 C680.729885 330.297223 678.305081 333.639417 676.023770 334.777875 C671.797329 336.887067 666.953640 337.866254 662.282437 338.952405 C655.555630 340.516492 649.879666 337.188794 645.216702 333.315595 C638.495266 327.732648 631.295376 321.911389 626.832241 314.637799 C621.681485 306.243360 617.870266 296.859174 615.802761 286.718060 C613.698147 276.394849 613.043118 265.693067 608.659817 255.740155 C606.623745 251.117169 607.213650 245.406018 606.042630 240.319516 C603.599392 229.707456 600.870083 219.157865 598.061428 208.635144 C597.030789 204.773862 595.862942 200.824185 593.921292 197.387372 C593.039395 195.826322 590.066006 194.523313 588.137417 194.643598 C581.293545 195.070462 574.456326 195.950620 567.683865 197.067014 C562.337674 197.948285 556.207119 196.990964 552.404141 202.294293 C551.634488 203.367642 550.772732 205.333814 551.239712 206.169812 C553.303921 209.864911 550.920865 211.893186 549.134304 214.614285 C543.179226 223.684598 535.433377 230.779309 526.222195 236.301129 C523.068997 238.191342 519.653775 239.826703 516.151089 240.905866 C511.686612 242.281339 510.552090 244.649915 513.104336 248.654157 C523.073208 264.294538 536.222866 277.180554 550.154568 289.034925 C555.902371 293.925702 564.239346 295.777020 571.404507 298.997602 C576.564480 301.316907 582.857388 301.672528 585.628323 307.968793 C589.866909 317.600019 585.750943 324.124249 576.830227 326.890576 C569.925320 329.031842 563.003872 327.646985 555.789273 326.594098 C539.098355 324.158338 527.217801 314.153607 514.909329 304.337384 C511.191006 301.371961 507.056302 298.903150 503.497891 295.769177 C499.275845 292.050794 495.594021 287.725110 491.450711 283.909528 C486.824246 279.649030 481.875882 275.739820 477.196804 271.534009 C474.371487 268.994519 472.199978 265.450513 469.004055 263.667188 C464.482632 261.144238 459.337063 259.651319 454.312405 258.235883 C453.711331 258.066602 451.354824 261.089856 451.278286 262.702893 C451.093533 266.596936 451.433255 270.598798 452.178616 274.437390 C453.967068 283.648755 455.718228 292.901044 458.245266 301.923749 C459.988614 308.148114 460.645962 314.283673 459.008389 320.360425 C456.605740 329.276410 446.917263 334.291333 437.886563 333.133100 C426.188870 331.632825 421.472195 322.250379 415.361905 314.468946 C414.223050 313.018628 415.151455 309.952832 415.108303 307.632886 C414.987454 301.128827 415.141995 294.602338 414.629239 288.128980 C414.298062 283.948438 412.461087 279.872357 412.249173 275.701215 C412.011502 271.020825 409.718777 268.352368 405.957486 266.340955 C400.180142 263.251386 394.669674 260.229383 390.140469 254.919599 C383.601345 247.253583 387.476895 234.936032 395.482113 232.916654 C399.483639 231.907239 403.485928 223.772412 403.123349 218.800763 C402.761563 213.839826 402.855740 208.828809 399.182431 204.724469 C398.357479 203.802732 398.447964 202.064542 398.109341 200.704114 C396.981503 196.172284 395.813717 191.649899 394.741574 187.104962 C394.401760 185.664426 393.732907 183.933972 394.210354 182.731580 C396.311551 177.440030 398.319424 172.018949 401.228238 167.164395 C404.712521 161.349423 408.947598 155.959867 413.147122 150.613584 C414.321316 149.118756 416.430386 148.236524 418.260220 147.400968 C424.142666 144.714826 429.950222 141.755658 436.051785 139.681714 C447.442593 135.809903 459.179959 136.347547 471.122830 136.581662 C480.868191 136.772687 489.592129 140.086392 498.413296 142.468564 C507.583157 144.944882 515.883084 150.918790 524.295498 155.822827 C529.589383 158.908856 534.460904 160.267621 540.191067 157.049085 C548.954312 152.126904 557.664944 152.901410 567.478421 155.273480 C576.965786 157.566709 587.413662 156.190305 597.425259 155.909741 C604.827603 155.702329 612.203152 154.617642 619.600796 154.058438 C620.590176 153.983655 621.934048 154.408460 622.614895 155.095990 C628.953457 161.496488 637.305447 161.309964 645.284207 161.932691 C657.152920 162.859021 669.051663 163.471112 680.948819 163.923139 C684.958462 164.075482 689.232754 162.348203 692.977261 163.225385 C698.947415 164.623960 703.380215 161.591352 708.517117 160.227201 C712.384854 159.200070 716.911282 159.695203 720.949307 160.496518 C726.684231 161.634595 727.904568 160.930127 729.218716 155.460965 C730.364163 150.693448 731.887539 145.819180 734.364956 141.659757 C735.462368 139.817121 739.303006 138.891416 741.936184 138.812589 C750.416409 138.558713 759.277127 137.394986 767.321621 139.344647 C779.962002 142.408124 792.294278 145.916974 805.497342 146.164624 C818.095791 146.400952 830.693997 147.760343 843.244046 149.083463 C851.742581 149.979444 860.157742 151.666654 869.110196 152.999982 M986.610196 298.000012 C989.415371 296.333325 992.064663 294.280835 995.054776 293.071576 C1004.406826 289.289472 1012.704800 283.967481 1019.758999 276.803174 C1027.128750 269.318433 1033.906704 261.215711 1036.515713 250.836926 C1037.559536 246.684735 1037.812588 241.032193 1035.766323 237.691586 C1032.158657 231.802030 1026.817471 226.824216 1021.621670 222.103650 C1017.209439 218.095075 1012.038052 214.901013 1007.091153 211.508893 C1003.251553 208.875989 999.512906 205.580609 995.216397 204.297269 C991.949063 203.321362 990.984707 202.528363 991.048184 199.326108 C991.183438 192.517728 988.773404 191.054517 981.804409 192.718427 C978.407315 193.529492 974.825650 193.544629 971.340176 194.014539 C967.889859 194.479733 963.729214 194.015775 961.155606 195.799603 C954.434781 200.457959 947.185635 205.214353 942.434170 211.626416 C937.031948 218.916593 933.426968 227.801373 930.341519 236.456677 C928.148770 242.607572 927.832730 249.500287 927.210415 256.111951 C926.813198 260.331861 926.823452 264.755536 927.649746 268.888104 C929.035611 275.818952 932.504483 281.512128 937.834195 286.658124 C942.442105 291.107160 946.414517 295.276288 952.845791 297.548474 C963.940396 301.468305 974.647183 301.064008 986.610196 298.000012 M501.110196 181.499982 C498.366909 180.090039 495.596219 178.730557 492.885830 177.259992 C486.554287 173.824765 479.727871 172.099271 472.603482 172.067761 C464.493863 172.031888 456.811306 172.586652 449.421658 177.683743 C443.372525 181.856229 443.281826 180.618787 443.926297 187.273633 C444.703274 195.297177 443.937344 203.459546 444.224820 211.548108 C444.302151 213.724286 445.778958 215.850720 446.613369 217.999982 C447.778958 216.681043 449.115261 215.474500 450.073880 214.019223 C451.951809 211.168393 454.044949 209.480817 457.713711 210.927442 C458.854397 211.377240 460.469876 211.329770 461.635098 210.891187 C467.508084 208.680585 472.977871 210.100446 477.933743 213.090924 C482.903531 216.089810 487.109768 215.474896 491.472195 212.179639 C494.354214 210.002637 497.424282 208.076200 500.378689 205.992871 C503.090115 204.080792 506.176846 202.483731 508.344021 200.070584 C511.219265 196.869000 510.602200 189.542447 507.904019 187.290845 C505.799710 185.534833 503.707730 183.764127 501.110196 181.499982 z"/><path class="selected"  fill="#000000" opacity="1.000000" stroke="none" 
 	d="
M57.110196 226.999982 C56.110196 216.749585 55.207638 206.987729 54.065121 197.254071 C53.565930 193.001203 48.145687 191.408536 42.763501 193.881146 C38.139386 196.005475 33.675152 198.483136 29.024563 200.543485 C17.193516 205.785047 1.704251 196.709394 0.110203 183.704328 C-0.836719 175.978864 4.432263 169.259534 11.546345 165.811978 C21.734265 160.874768 32.646176 159.432645 43.376065 156.888989 C45.986950 156.270047 48.612317 154.652066 50.641446 152.835050 C57.106808 147.045575 64.690762 147.986005 71.561413 150.306363 C78.003399 152.481931 84.233471 153.803723 90.997525 154.172269 C97.727948 154.538983 104.381115 156.311719 111.070446 157.454587 C112.323086 157.668591 113.631558 158.127011 114.837582 157.950055 C122.577130 156.814389 129.649731 159.756452 136.961743 161.311917 C143.422467 162.686292 149.976788 163.627469 156.423001 165.060422 C160.025937 165.861356 163.573849 167.072965 167.003750 168.454175 C173.481656 171.062863 179.947781 173.433209 187.119107 173.062757 C188.616238 172.985410 190.227261 173.529737 191.656643 174.107266 C193.653592 174.914090 195.481198 176.741590 197.465023 176.873517 C205.451443 177.404675 210.199124 182.986157 215.345791 187.842710 C219.125607 191.409451 222.507992 195.413312 225.911526 199.356961 C228.011563 201.790265 229.447567 201.135724 231.525235 199.186841 C237.689541 193.404614 243.758328 187.439603 250.471005 182.345349 C257.416256 177.074597 265.859372 175.290952 274.445065 173.860654 C282.556271 172.509412 290.971493 171.083325 298.341275 167.702664 C306.085263 164.150327 312.956173 166.318753 320.158810 167.621213 C327.757138 168.995221 334.252743 172.678128 340.954434 176.664075 C349.184414 181.558988 356.605771 187.109036 363.241818 193.797650 C365.368985 195.941663 366.672787 198.978818 368.079312 201.746610 C371.643307 208.759885 375.075131 215.840894 378.502896 222.922360 C379.170865 224.302304 379.955136 225.783673 380.047238 227.258130 C380.516842 234.776670 380.282315 242.370893 381.225338 249.820752 C382.664669 261.191358 378.220120 270.936170 372.893338 280.059613 C368.513058 287.561810 362.542569 294.235944 356.690976 300.750806 C350.692410 307.429273 344.257443 313.469159 335.700833 317.475659 C331.335629 319.519605 327.364132 322.935040 322.441800 324.118573 C313.064267 326.373364 303.912625 328.929090 293.984066 329.424481 C282.872769 329.978894 272.986355 327.207929 262.865445 324.012097 C262.562375 323.916394 262.117978 324.132123 261.881802 323.980695 C255.952694 320.178388 249.716031 316.762921 244.195492 312.434979 C231.575863 302.541577 223.593045 289.037152 216.625760 274.916272 C215.343838 272.318097 214.324887 269.314404 214.224881 266.461408 C213.943661 258.437055 214.220272 250.393720 214.233639 242.357770 C214.235379 241.317746 213.982296 240.277310 213.847256 239.237073 C212.827206 239.432416 211.503445 239.282880 210.832058 239.874143 C198.136532 251.054334 184.205899 260.199597 168.218533 265.977612 C165.022854 267.132611 161.719052 267.986951 158.475247 269.011945 C157.893185 269.195844 157.235562 269.411572 156.824002 269.823590 C150.353726 276.300763 141.976834 275.628278 133.876416 275.997998 C133.543835 276.013196 133.067440 275.854413 132.897320 276.021008 C126.763455 282.027295 118.277737 280.113538 111.085125 282.526990 C110.647000 282.673993 110.227902 282.917188 109.779690 282.988873 C100.140164 284.529950 98.500515 287.188855 100.019207 297.060010 C100.785946 302.043653 101.078930 307.204602 100.752621 312.231275 C99.968792 324.305463 105.588955 336.669477 99.138089 348.476056 C94.013058 357.856061 80.645230 359.910230 73.097775 352.531079 C71.259396 350.733747 68.828061 349.469800 67.252118 347.495465 C65.230175 344.962354 62.598706 342.057721 62.358929 339.138288 C61.855114 333.004071 62.908764 326.758679 63.016919 320.553601 C63.183300 311.008435 63.424496 301.438764 62.849514 291.926862 C62.723904 289.848767 59.160748 286.187482 57.411099 286.319043 C50.990368 286.801862 46.926617 282.433759 42.629269 279.558270 C37.491436 276.120404 32.053906 272.520642 31.638897 264.228467 C31.377774 259.011334 33.453686 256.304120 36.445355 254.475507 C42.057721 251.045087 48.345395 248.703382 54.406765 246.032697 C56.396954 245.155774 58.358990 241.796384 58.114071 239.084256 C57.765515 235.224088 57.443524 231.361524 57.110196 226.999982 M258.110196 276.499982 C259.642025 279.031812 260.971585 281.716077 262.742886 284.067487 C268.522976 291.740491 276.799527 295.721601 285.882748 296.772748 C294.386929 297.756818 303.294064 297.847669 310.743435 291.893933 C314.975918 288.511151 319.149380 285.005292 323.667782 282.039960 C332.304623 276.371747 338.300320 268.017682 341.632504 259.048871 C344.579647 251.116437 344.139920 241.642957 343.838864 232.896558 C343.668820 227.956098 342.658657 222.027265 336.204190 219.962644 C332.100735 218.650052 328.098996 217.011731 324.077145 215.453641 C319.482876 213.673856 315.003231 210.572858 310.321469 210.249097 C299.152646 209.476758 287.894009 209.965482 276.672329 210.044812 C275.310574 210.054440 273.712124 210.327420 272.631375 211.071179 C262.883145 217.779706 256.748715 227.432385 252.245419 237.998639 C249.119656 245.332837 250.074490 253.385297 251.763424 260.955243 C252.921597 266.146558 255.607327 270.997113 258.110196 276.499982 M149.610196 194.999982 C137.837963 191.652204 125.903378 189.319440 113.620510 188.963040 C110.753201 188.879834 107.874569 188.473569 105.043896 187.973767 C96.463726 186.458798 91.628369 191.049054 93.052105 199.118299 C94.022503 204.618253 94.451229 210.214231 95.108059 215.768949 C95.784329 221.487912 97.277356 227.267850 96.878384 232.912641 C96.470013 238.690366 101.917767 243.391507 99.110196 249.260938 C99.857998 249.592816 100.716549 250.351941 101.336667 250.191205 C108.383511 248.364667 115.989102 248.513165 122.380581 244.297406 C122.975537 243.904965 123.969540 244.172925 124.742474 243.986173 C131.082821 242.454282 138.111782 243.775067 143.709164 239.056348 C145.945813 237.170758 148.546978 235.467435 151.270077 234.456494 C159.037869 231.572675 166.802792 228.856839 173.035244 223.025128 C177.407101 218.934369 182.071103 215.156323 186.456417 211.079190 C188.186276 209.470929 189.527798 207.441098 191.013333 205.577054 C191.341153 205.165738 191.822598 204.302548 191.735348 204.227674 C191.155850 203.730313 190.483181 203.190625 189.761868 203.038251 C187.750271 202.613263 185.580258 202.696836 183.685238 202.001081 C172.986081 198.073056 162.156979 194.876111 149.610196 194.999982 z"/><path class="selected"  fill="#000000" opacity="1.000000" stroke="none" 
 	d="
M1083.110196 275.999982 C1083.110196 266.945294 1083.221890 258.388532 1083.065884 249.836713 C1082.980069 245.138257 1082.287930 240.452664 1082.150113 235.753018 C1081.982388 230.035779 1081.983242 224.306149 1082.150723 218.588895 C1082.283413 214.055753 1083.100796 209.529172 1083.045132 205.006665 C1082.915127 194.421491 1082.700528 183.823728 1082.011319 173.264279 C1081.613491 167.171933 1085.211880 161.945233 1090.901577 158.462384 C1101.278042 152.110562 1109.047451 158.047894 1117.297207 162.701856 C1119.060879 163.696897 1120.844082 164.693997 1122.467617 165.894132 C1128.746670 170.535474 1128.889370 177.163007 1127.666836 183.867688 C1125.698452 194.660459 1122.640469 205.297101 1121.344204 216.155072 C1120.456143 223.592755 1121.870938 231.291959 1122.051236 238.879117 C1122.103238 241.064572 1121.165371 243.268201 1121.175381 245.461225 C1121.190518 248.741559 1121.866055 252.020856 1121.851162 255.298749 C1121.833706 259.132916 1121.098721 262.969800 1121.162930 266.797284 C1121.346157 277.715741 1121.582364 288.641522 1122.227627 299.539014 C1122.423916 302.854688 1123.625943 306.273450 1125.071133 309.310132 C1126.748379 312.834180 1129.923794 311.129773 1132.358487 310.170758 C1138.801602 307.632855 1145.023770 304.504773 1151.537198 302.181653 C1159.103360 299.483014 1166.864834 297.319562 1174.579434 295.052838 C1185.404263 291.872296 1195.396695 286.085553 1206.819912 284.786847 C1211.906704 284.208539 1216.990200 283.602277 1222.074063 282.997754 C1224.769986 282.677167 1227.486660 282.446088 1230.135830 281.895001 C1230.607022 281.796948 1231.236660 280.200513 1231.040860 279.508801 C1229.272427 273.258801 1226.036221 267.110486 1225.774014 260.826184 C1225.434536 252.693067 1220.786465 246.282300 1219.346524 238.926312 C1216.434170 224.046597 1211.925015 209.652570 1205.677334 196.070172 C1203.191372 190.666074 1203.009365 184.561261 1199.467984 179.579373 C1198.394253 178.068723 1198.082852 175.158017 1201.609097 173.748075 C1204.289273 172.676404 1206.258267 169.893643 1208.654019 168.012708 C1209.733242 167.165357 1211.239102 165.902829 1212.282193 166.120282 C1220.354824 167.803159 1229.364102 165.736905 1236.322842 171.990750 C1239.582241 174.920041 1243.502285 177.330228 1246.035733 180.775235 C1247.721890 183.068128 1247.359097 186.807065 1248.135220 189.842023 C1250.058926 197.364057 1252.146328 204.844129 1254.101406 212.358350 C1256.802945 222.741483 1259.246670 233.196332 1262.175503 243.514081 C1264.322720 251.078778 1267.121670 258.456800 1269.510830 265.956006 C1269.987515 267.452527 1269.979702 269.117078 1270.094815 270.711408 C1270.213223 272.352246 1269.549527 274.511884 1270.364590 275.565289 C1275.789883 282.577893 1276.063687 291.548108 1279.692715 299.238019 C1281.718350 303.530225 1283.039517 308.251294 1284.014615 312.917768 C1285.156582 318.383588 1286.919033 320.607862 1292.141079 320.987592 C1303.380948 321.804944 1310.042324 328.734174 1306.194058 339.032331 C1305.593106 340.640607 1305.463833 343.014112 1306.228115 344.436048 C1308.790982 349.203839 1306.264370 350.251019 1302.305630 351.398969 C1291.898404 354.416852 1281.802334 352.652265 1271.753994 349.910474 C1270.489956 349.565564 1269.616665 347.927350 1268.464444 347.011334 C1258.691494 339.241406 1249.196499 331.374799 1245.002896 318.815717 C1242.956021 312.685529 1239.198941 311.656232 1233.165005 313.980145 C1229.857266 315.254102 1226.464077 316.304700 1223.122769 317.493634 C1216.879361 319.715375 1210.574917 321.787305 1204.424893 324.244824 C1195.706631 327.728650 1187.150479 331.617902 1178.436367 335.112836 C1173.432705 337.119641 1168.133389 338.407605 1163.183316 340.524793 C1156.386074 343.432111 1149.258877 346.047223 1143.259243 350.209332 C1136.797573 354.691815 1129.582364 355.695691 1122.493130 356.831281 C1105.514370 359.551007 1087.789151 348.170026 1082.690152 332.009961 C1082.121426 330.207288 1082.089444 328.167829 1082.143521 326.247571 C1082.402676 317.052838 1082.889981 307.863324 1083.048428 298.667676 C1083.103238 295.480054 1082.152066 292.277356 1082.182217 289.086469 C1082.221890 284.888410 1082.776822 280.695264 1083.110196 275.999982 z"/><path class="selected"  fill="#000000" opacity="1.000000" stroke="none" 
 	d="
M1331.360196 185.249967 C1332.179165 184.764279 1332.955899 184.691113 1333.286465 184.268842 C1339.311734 176.570859 1347.786465 172.497266 1356.523770 169.107144 C1362.279995 166.873700 1368.440640 165.688443 1374.407193 163.988126 C1376.485562 163.395856 1378.480557 162.418500 1380.589444 162.040738 C1393.139737 159.792768 1404.947598 163.676129 1416.624356 167.172437 C1431.045865 171.490613 1443.700650 179.235501 1454.964566 189.289639 C1460.858975 194.550931 1467.504971 199.027356 1473.040127 204.621594 C1482.696011 214.380475 1489.922207 225.685040 1492.151577 239.659543 C1493.136807 245.835340 1496.935635 251.185987 1496.280850 258.025189 C1495.190884 269.411603 1493.990200 280.797406 1489.882290 291.434827 C1487.897183 296.575452 1483.707852 300.953443 1480.126919 305.360211 C1477.426602 308.683179 1474.313687 311.751721 1471.017544 314.491986 C1465.251919 319.285108 1459.273281 323.832379 1453.237271 328.284101 C1451.146450 329.826245 1448.647061 330.832532 1446.288906 331.991223 C1432.484341 338.773999 1417.606533 342.315503 1402.629361 344.686048 C1395.359951 345.836621 1387.452115 344.254285 1380.040371 342.831006 C1372.945401 341.468518 1365.800381 339.398938 1359.259976 336.378583 C1352.092373 333.068616 1345.080532 328.958936 1338.904385 324.058759 C1325.124844 313.126081 1315.923916 298.667981 1309.933072 282.237226 C1307.181485 274.690076 1303.769864 267.117291 1305.145108 258.738080 C1306.829922 248.472638 1309.018765 238.285810 1310.534878 227.997983 C1312.152188 217.022199 1317.477871 207.514859 1322.075528 197.770215 C1324.202237 193.262647 1328.045254 189.564862 1331.360196 185.249967 M1346.110196 277.499982 C1349.295498 285.764325 1353.738858 293.085858 1360.542202 299.027081 C1372.562588 309.524365 1386.437954 312.521832 1401.529873 308.882276 C1418.606533 304.764050 1434.724575 298.604596 1446.937710 284.805921 C1459.002285 271.175031 1465.712613 256.434674 1460.147183 237.930707 C1456.770962 226.705777 1450.377407 220.135617 1438.840664 220.883542 C1430.691494 221.411847 1419.302823 212.880261 1415.918423 205.534619 C1414.867764 203.254331 1412.162075 200.584683 1409.894619 200.248685 C1404.625698 199.467938 1399.145962 199.741574 1393.782437 200.077420 C1389.040615 200.374326 1383.835415 200.274640 1379.731778 202.231229 C1372.320279 205.765119 1364.789273 209.830029 1358.760220 215.279569 C1351.567837 221.780637 1349.356289 231.867368 1347.495938 240.860898 C1345.211514 251.904645 1345.762783 263.537122 1345.156338 274.918744 C1345.129116 275.427411 1345.776822 275.972058 1346.110196 277.499982 z"/><path class="selected"  fill="#000000" opacity="1.000000" stroke="none" 
 	d="
M1525.860196 3.749991 C1524.173672 3.436445 1522.737271 2.872917 1521.300747 2.309398 C1522.615445 1.539601 1523.930264 0.769795 1525.244961 0.000000 C1525.533291 1.166677 1525.821621 2.333344 1525.860196 3.749991 z"/><path class="selected"  fill="#000000" opacity="1.000000" stroke="none" 
 	d="
M1482.860196 60.749990 C1481.957119 59.986409 1481.304043 58.972821 1480.650967 57.959241 C1481.457119 57.459241 1482.263272 56.959241 1483.069424 56.459226 C1483.082974 57.806142 1483.096646 59.153058 1482.860196 60.749990 z"/></svg>