<svg id="Lag_1" data-name="Lag 1" xmlns="http://www.w3.org/2000/svg" viewBox="0 0 840.13 182"><defs><style>.cls-1{fill:#010101;}</style></defs><g id="portfolio"><path class="cls-1" d="M489.71,44.44c2.46.54,4.68,1,6.88,1.64a92.23,92.23,0,0,1,11.05,3.41,5.53,5.53,0,0,1,2.63,4.2,7,7,0,0,1-3.33,6c-3.45,1.93-7,2.86-10.84,1.69-1.22-.37-2.61,0-3.92-.07-3.73-.31-7.45-.91-11.18-1-3.41-.1-6.83.48-10.25.42-2.44,0-4.87-.84-7.32-1a54.54,54.54,0,0,0-5.82.47c-1.55.09-3.17-.26-4.64.13a3.19,3.19,0,0,0-1.74,2.43c.44,4.18,1.19,8.31,1.83,12.46a27,27,0,0,1,.46,3.32c.12,4.36,3.33,7.2,7.06,6.2a3.55,3.55,0,0,1,.73,0c5.56-.18,11.13-.71,16.67-.44a135.1,135.1,0,0,1,16.08,2.12c4.73.81,6.51-.54,7.74-5.88,2.06-9,5.27-17.5,11.56-23.66a43.71,43.71,0,0,1,16.9-10.36c4.67-1.55,9.14-.92,13.7.07A55,55,0,0,1,550,48c5.17,1.78,9.37,5.45,13.51,9.21a14.87,14.87,0,0,0,1.85,1.53c2.27,1.5,4.24,3.07,4.78,6.42.5,3.13,2.49,5.08,4.91,6.93,4.35,3.34,8.63,7,10.23,13.24,1.09,4.28,2.6,8.43,3.67,12.71a9.36,9.36,0,0,1-.15,4.7c-2.18,7.06-4.18,14.26-9.14,19.69-2.24,2.45-4.19,5.33-6.68,7.39a58.08,58.08,0,0,1-11,7.48c-5.62,2.76-11.23,5.93-17.65,5.79-4.53-.09-9.09.34-13.58-.16-2.4-.27-4.61-2.3-7-3.06-4.73-1.48-8.76-4.64-12.15-8.12-5.76-5.91-10.59-12.95-12.16-22a39.34,39.34,0,0,1-.48-7.12c0-2-.87-2.29-2.24-2-3.76.7-7.5,1.58-11.27,2.08-1.66.22-3.42-.59-5.1-.43-6.09.6-12.19,1.24-18.24,2.2-3.33.52-3.95,1.77-3.17,6.22,1.09,6.25,2.34,12.48,3.88,18.61.87,3.49,2.38,6.74,1.89,10.56a4.61,4.61,0,0,1-2.23,3.86c-7,4.16-12.91,1.88-17.06-6.85a31.46,31.46,0,0,1-1.48-5c-.5-1.77-1-3.53-1.45-5.31-.82-3.25-1.56-6.53-2.43-9.76-.43-1.6-1.11-3.12-1.62-4.69-.7-2.18-2.08-3.15-4-4-1.59-.72-2.68-2.81-4-4.25-3.95-4.26-2-8.51,0-12.71a3.84,3.84,0,0,1,1.87-1.9c2.22-.78,3.07-2.49,2.58-5.1-.93-5-1.45-10.18-2.66-15.12-.72-2.94-2.4-5.58-3.71-8.32-.08-.17-.83-.16-1.1,0A5.13,5.13,0,0,0,426,62.19c-2.42,4.17-6.13,5.55-10.23,6.24-2.39.41-4.74,1.49-7.12,1.52-3.73,0-7.48-.54-11.22-.86a11.43,11.43,0,0,0-1.16-.13H381.52c-2.55,0-3.06,1-2.5,3.85.69,3.52,1.11,7.11,1.7,10.65.94,5.55,1.85,11.1,2.91,16.62s2.19,10.77,3.38,16.13a47.26,47.26,0,0,0,1.79,6.23c.76,2.09,2,3.55,4.32,3.2a4.2,4.2,0,0,1,2.61.06c1.07.66,2.57,1.72,2.71,2.8a63.42,63.42,0,0,1,.48,11.19,5.44,5.44,0,0,1-2.33,3.79,27.49,27.49,0,0,1-6.63,2.27c-3.24.85-6-1-8.23-3.07-3.24-3-6.71-6.21-8.87-10.18a50.8,50.8,0,0,1-5.32-15.21c-1-5.62-1.33-11.45-3.44-16.88-1-2.51-.7-5.63-1.26-8.4-1.18-5.78-2.5-11.53-3.85-17.26a28.39,28.39,0,0,0-2-6.13,3.37,3.37,0,0,0-2.79-1.49,86.44,86.44,0,0,0-9.86,1.32c-2.58.48-5.54,0-7.37,2.84-.37.59-.79,1.66-.56,2.12,1,2-.16,3.11-1,4.6a35.83,35.83,0,0,1-11.05,11.81,21.35,21.35,0,0,1-4.86,2.51c-2.15.75-2.7,2-1.47,4.22,4.81,8.52,11.15,15.55,17.87,22,2.77,2.67,6.8,3.68,10.25,5.43,2.49,1.27,5.53,1.46,6.86,4.89,2.05,5.25.06,8.8-4.24,10.31-3.33,1.17-6.67.41-10.15-.16-8.05-1.33-13.78-6.78-19.72-12.13-1.79-1.61-3.78-3-5.5-4.67-2-2-3.81-4.38-5.81-6.46-2.23-2.32-4.62-4.45-6.87-6.74-1.37-1.38-2.41-3.32-4-4.29a30.94,30.94,0,0,0-7.08-3c-.29-.09-1.43,1.56-1.46,2.44a30.4,30.4,0,0,0,.43,6.39c.86,5,1.71,10.06,2.93,15a21,21,0,0,1,.36,10,9.19,9.19,0,0,1-10.18,7c-5.65-.82-7.92-5.93-10.87-10.17-.55-.79-.1-2.46-.12-3.72-.06-3.55,0-7.1-.23-10.63-.16-2.28-1-4.5-1.15-6.77a5.73,5.73,0,0,0-3-5.1c-2.79-1.68-5.45-3.33-7.63-6.22-3.15-4.18-1.29-10.89,2.58-12,1.93-.55,3.86-5,3.68-7.69s-.13-5.44-1.9-7.67c-.4-.5-.35-1.45-.52-2.19-.54-2.47-1.1-4.94-1.62-7.41a5.05,5.05,0,0,1-.26-2.38,61.82,61.82,0,0,1,3.39-8.49,90.42,90.42,0,0,1,5.74-9,6.44,6.44,0,0,1,2.47-1.75,87.23,87.23,0,0,1,8.58-4.21c5.5-2.11,11.16-1.82,16.92-1.69,4.7.11,8.9,1.91,13.16,3.21,4.42,1.35,8.42,4.6,12.48,7.27,2.55,1.69,4.9,2.43,7.67.67,4.22-2.68,8.42-2.26,13.16-1,4.57,1.24,9.61.49,14.44.34,3.57-.11,7.13-.7,10.7-1a1.91,1.91,0,0,1,1.45.57c3.06,3.49,7.09,3.38,10.93,3.72,5.73.51,11.47.84,17.2,1.09,1.94.08,4-.86,5.81-.38,2.87.76,5-.89,7.49-1.64a12.22,12.22,0,0,1,6,.15c2.76.62,3.35.24,4-2.74a29.41,29.41,0,0,1,2.49-7.52c.53-1,2.38-1.51,3.65-1.55,4.09-.14,8.36-.78,12.24.29,6.1,1.67,12.05,3.58,18.41,3.71,6.08.13,12.16.87,18.21,1.59,4.1.49,8.16,1.41,12.47,2.14m56.67,79a30.87,30.87,0,0,1,4.08-2.69,34.74,34.74,0,0,0,11.91-8.86c3.55-4.08,6.82-8.49,8.08-14.15.51-2.26.63-5.34-.36-7.16a40,40,0,0,0-6.82-8.49,64.41,64.41,0,0,0-7-5.78c-1.85-1.43-3.65-3.23-5.73-3.92-1.57-.54-2-1-2-2.71.07-3.71-1.09-4.51-4.46-3.6a44.28,44.28,0,0,1-5,.7c-1.67.26-3.67,0-4.91,1-3.25,2.53-6.74,5.13-9,8.62-2.61,4-4.35,8.81-5.84,13.53-1,3.35-1.21,7.1-1.51,10.71a27.45,27.45,0,0,0,.22,7,18.73,18.73,0,0,0,4.91,9.68c2.22,2.42,4.14,4.7,7.24,5.93,5.35,2.14,10.51,1.92,16.28.25M312.23,60c-1.32-.76-2.66-1.5-4-2.31a18.57,18.57,0,0,0-9.78-2.82c-3.91,0-7.62.28-11.18,3.06-2.92,2.27-3,1.59-2.65,5.22.37,4.37,0,8.82.14,13.23A12.91,12.91,0,0,0,286,79.85a19.46,19.46,0,0,0,1.66-2.17c.91-1.55,1.92-2.47,3.69-1.68a2.57,2.57,0,0,0,1.89,0c2.83-1.21,5.47-.43,7.86,1.2s4.43,1.3,6.53-.5c1.39-1.19,2.87-2.24,4.3-3.37a22.44,22.44,0,0,0,3.84-3.23c1.38-1.74,1.09-5.73-.21-7C314.49,62.16,313.48,61.2,312.23,60Z"/><path class="cls-1" d="M98.09,84.76c-.48-5.59-.92-10.91-1.47-16.21-.24-2.32-2.85-3.19-5.45-1.84-2.23,1.16-4.38,2.51-6.63,3.63-5.7,2.86-13.17-2.09-13.94-9.17a10.06,10.06,0,0,1,5.52-9.75c4.91-2.69,10.17-3.48,15.35-4.86A8.3,8.3,0,0,0,95,44.35c3.12-3.16,6.78-2.65,10.09-1.38a31.58,31.58,0,0,0,9.37,2.11c3.25.2,6.46,1.16,9.68,1.78a5.33,5.33,0,0,0,1.82.27c3.73-.62,7.15,1,10.67,1.84,3.12.74,6.28,1.26,9.39,2a28.84,28.84,0,0,1,5.1,1.85c3.13,1.42,6.24,2.71,9.7,2.51a4.86,4.86,0,0,1,2.19.57c1,.44,1.85,1.43,2.8,1.5,3.85.29,6.14,3.33,8.63,6,1.82,1.94,3.45,4.13,5.09,6.27,1,1.33,1.71,1,2.71-.09a121.69,121.69,0,0,1,9.14-9.17c3.35-2.88,7.42-3.85,11.56-4.63,3.91-.73,8-1.51,11.52-3.35,3.74-1.94,7-.76,10.53-.05,3.66.75,6.79,2.76,10,4.93a54.82,54.82,0,0,1,10.75,9.33A17.65,17.65,0,0,1,248.07,71c1.72,3.82,3.37,7.68,5,11.53a7.33,7.33,0,0,1,.74,2.37c.23,4.09.11,8.23.57,12.29.69,6.19-1.45,11.5-4,16.47a70.58,70.58,0,0,1-7.81,11.28c-2.9,3.64-6,6.93-10.13,9.11-2.1,1.11-4,3-6.39,3.62-4.52,1.23-8.94,2.62-13.73,2.89-5.36.3-10.12-1.21-15-2.95-.14-.05-.36.07-.47,0-2.86-2.07-5.87-3.93-8.53-6.29-6.09-5.39-9.94-12.74-13.3-20.44a12.88,12.88,0,0,1-1.15-4.6c-.14-4.38,0-8.76,0-13.14a14.26,14.26,0,0,0-.19-1.7c-.49.11-1.13,0-1.45.35-6.12,6.09-12.84,11.07-20.55,14.22-1.54.63-3.14,1.1-4.7,1.66a1.85,1.85,0,0,0-.8.44c-3.12,3.53-7.16,3.16-11.07,3.36-.16,0-.39-.08-.47,0-3,3.28-7,2.23-10.52,3.55a3.75,3.75,0,0,1-.63.25c-4.65.84-5.44,2.29-4.7,7.67a43.84,43.84,0,0,1,.35,8.26c-.38,6.58,2.33,13.32-.78,19.75-2.47,5.11-8.92,6.23-12.56,2.21a33.25,33.25,0,0,1-2.82-2.74c-1-1.38-2.24-3-2.36-4.56-.24-3.34.27-6.74.32-10.12.08-5.2.2-10.42-.08-15.6-.06-1.13-1.78-3.13-2.62-3.06-3.1.27-5.06-2.11-7.13-3.68-2.48-1.87-5.1-3.83-5.3-8.35-.13-2.84.87-4.32,2.31-5.31a67.81,67.81,0,0,1,8.67-4.6,4.41,4.41,0,0,0,1.78-3.79c-.16-2.1-.32-4.21-.48-6.58m96.94,27c.74,1.37,1.38,2.84,2.24,4.12a15.42,15.42,0,0,0,11.16,6.92c4.1.54,8.39.59,12-2.66,2-1.84,4.05-3.75,6.23-5.37a25.27,25.27,0,0,0,8.66-12.52c1.43-4.33,1.21-9.49,1.07-14.25-.08-2.69-.57-5.92-3.68-7-2-.71-3.91-1.61-5.85-2.46-2.22-1-4.38-2.66-6.64-2.83-5.38-.42-10.81-.16-16.23-.11a3.29,3.29,0,0,0-1.95.56c-4.7,3.65-7.66,8.91-9.83,14.67-1.5,4-1,8.38-.23,12.51.56,2.82,1.85,5.47,3.06,8.47M142.7,67.32A63.83,63.83,0,0,0,125.34,64a25.11,25.11,0,0,1-4.13-.54c-4.14-.82-6.47,1.68-5.79,6.07.47,3,.68,6,1,9.08s1,6.26.85,9.34,2.43,5.71,1.08,8.9c.36.18.77.6,1.07.51,3.4-1,7.07-.91,10.15-3.21.29-.21.77-.07,1.14-.17,3.06-.83,6.45-.11,9.15-2.69a12.65,12.65,0,0,1,3.64-2.5c3.75-1.57,7.49-3,10.5-6.23,2.11-2.23,4.36-4.29,6.47-6.51a25.72,25.72,0,0,0,2.2-3,2,2,0,0,0,.35-.73,2.28,2.28,0,0,0-1-.65,18.74,18.74,0,0,1-2.93-.57C154,69,148.75,67.25,142.7,67.32Z"/><path class="cls-1" d="M592.92,111.45c0-4.93.06-9.59,0-14.25,0-2.56-.37-5.12-.44-7.68q-.12-4.67,0-9.35c.07-2.47.46-4.93.43-7.4-.06-5.77-.16-11.54-.5-17.29a9.17,9.17,0,0,1,4.29-8.07c5-3.46,8.75-.22,12.73,2.31a24.85,24.85,0,0,1,2.5,1.74c3,2.53,3.09,6.14,2.5,9.79-.95,5.89-2.42,11.68-3,17.6-.42,4.05.26,8.24.35,12.38,0,1.19-.43,2.39-.43,3.58,0,1.79.34,3.58.33,5.36,0,2.09-.36,4.18-.33,6.27.09,6,.2,11.9.51,17.84a16.13,16.13,0,0,0,1.37,5.32c.81,1.92,2.34,1,3.52.47,3.1-1.38,6.1-3.09,9.25-4.35,3.65-1.47,7.39-2.65,11.11-3.89,5.22-1.73,10-4.88,15.55-5.59,2.45-.31,4.9-.65,7.36-1,1.3-.18,2.61-.31,3.88-.61.23,0,.53-.92.44-1.3-.85-3.4-2.41-6.75-2.54-10.17-.16-4.44-2.41-7.93-3.1-11.94A113.11,113.11,0,0,0,652,67.9c-1.2-2.94-1.29-6.27-3-9a2.13,2.13,0,0,1,1-3.18c1.29-.58,2.24-2.1,3.39-3.12.52-.47,1.25-1.15,1.75-1,3.9.91,8.24-.21,11.6,3.19,1.57,1.6,3.46,2.91,4.68,4.79.82,1.25.64,3.29,1,4.94.93,4.1,1.94,8.17,2.88,12.27,1.31,5.65,2.48,11.35,3.9,17,1,4.12,2.38,8.14,3.53,12.23a13,13,0,0,1,.29,2.59c0,.9-.27,2.07.13,2.65,2.61,3.82,2.74,8.7,4.49,12.89a36.63,36.63,0,0,1,2.09,7.46c.55,3,1.4,4.19,3.92,4.39,5.42.45,8.63,4.22,6.78,9.84a4.48,4.48,0,0,0,0,2.94c1.24,2.6,0,3.17-1.89,3.79-5,1.65-9.89.69-14.73-.81-.61-.19-1-1.08-1.59-1.58-4.71-4.23-9.29-8.52-11.32-15.36-1-3.34-2.8-3.9-5.71-2.63-1.59.69-3.23,1.26-4.84,1.91-3,1.21-6.05,2.34-9,3.68-4.2,1.9-8.33,4-12.53,5.92-2.41,1.09-5,1.8-7.36,3-3.28,1.58-6.71,3-9.61,5.28-3.11,2.44-6.59,3-10,3.6-8.19,1.49-16.74-4.72-19.2-13.52a10.91,10.91,0,0,1-.26-3.14c.12-5,.36-10,.43-15,0-1.73-.43-3.48-.41-5.22C592.5,116.3,592.76,114,592.92,111.45Z"/><path class="cls-1" d="M712.65,62c.4-.27.77-.31.93-.54,2.91-4.19,7-6.41,11.21-8.26,2.78-1.21,5.75-1.86,8.63-2.79a30.24,30.24,0,0,1,3-1.06c6.05-1.22,11.74.89,17.38,2.8a47.74,47.74,0,0,1,18.49,12c2.84,2.87,6.05,5.3,8.72,8.35,4.65,5.32,8.14,11.48,9.21,19.09.48,3.37,2.31,6.28,2,10-.52,6.2-1.1,12.41-3.08,18.2-1,2.8-3,5.19-4.71,7.59a34.23,34.23,0,0,1-4.39,5c-2.78,2.62-5.66,5.09-8.58,7.52a20.28,20.28,0,0,1-3.35,2c-6.65,3.69-13.83,5.62-21.05,6.92-3.51.62-7.32-.24-10.9-1a40.23,40.23,0,0,1-10-3.52,47.85,47.85,0,0,1-9.82-6.71c-6.64-6-11.08-13.84-14-22.79-1.33-4.11-3-8.24-2.31-12.8.81-5.6,1.87-11.15,2.6-16.75.78-6,3.35-11.16,5.57-16.47,1-2.46,2.87-4.47,4.47-6.82m7.12,50.26a29.27,29.27,0,0,0,7,11.73c5.8,5.72,12.49,7.35,19.77,5.37,8.23-2.25,16-5.6,21.9-13.12s9.05-15.46,6.37-25.54c-1.63-6.12-4.71-9.69-10.28-9.29-3.93.29-9.42-4.36-11-8.36-.51-1.24-1.82-2.7-2.91-2.88a32.55,32.55,0,0,0-7.77-.09c-2.29.16-4.8.1-6.78,1.17a41.62,41.62,0,0,0-10.11,7.11c-3.47,3.54-4.54,9-5.43,13.94-1.11,6-.84,12.35-1.13,18.55C719.29,111.14,719.61,111.44,719.77,112.27Z"/></g></svg>