<?xml version="1.0" encoding="utf-8"?><!DOCTYPE svg PUBLIC "-//W3C//DTD SVG 1.1//EN" "http://www.w3.org/Graphics/SVG/1.1/DTD/svg11.dtd"><svg version="1.1" id="Contours" xmlns="http://www.w3.org/2000/svg" xmlns:xlink="http://www.w3.org/1999/xlink" x="0px" y="0px" width="2657.916992px" height="2657.916992px" viewBox="-0.000000 0.000001 2657.916992 530.091797" enable-background="new 0 0 2657.916992 2657.916992" xml:space="preserve" stroke="black" fill="none" stroke-linecap='round' stroke-linejoin='round'><path class="selected"  fill="#000000" opacity="1.000000" stroke="none" 
 	d="
M871.527749 381.028323 C877.687722 375.522372 877.203653 368.687472 876.884073 361.673251 C876.663553 356.836642 877.326455 351.942844 877.800454 347.094760 C879.067056 334.140689 880.704019 321.216617 881.662027 308.241366 C882.103738 302.258212 882.699136 296.198550 878.051309 290.714603 C874.859964 286.949161 872.979043 281.871371 871.277261 277.106998 C869.828958 273.052157 870.684671 268.875308 873.945657 265.622745 C882.669778 256.921298 892.698098 249.973758 904.437051 246.340915 C913.527261 243.527774 923.037393 241.917941 932.460183 240.382876 C939.765359 239.192782 947.224527 238.398715 954.614297 238.406253 C965.717141 238.417636 976.710672 240.348514 986.802835 245.044681 C992.431375 247.663791 997.506387 251.667850 1002.438699 255.546451 C1012.184243 263.209903 1020.499185 272.276614 1027.544839 282.515536 C1035.442544 293.992557 1042.124551 306.002841 1044.773599 319.882480 C1046.130532 326.992251 1048.679849 334.139560 1048.512002 341.218265 C1048.195230 354.581027 1045.965127 367.715854 1038.296304 379.403384 C1032.877481 387.661838 1025.381265 393.218326 1016.898721 397.515567 C1009.494302 401.266666 1001.681924 404.213077 994.044412 407.502566 C993.337930 407.806888 992.609720 408.098605 991.862222 408.261569 C990.512429 408.555759 989.140481 408.748141 987.777749 408.983035 C988.533120 410.336764 989.062722 411.899661 990.086526 413.004733 C993.029275 416.181186 996.400064 418.979068 999.192727 422.273288 C1007.211282 431.731875 1014.915445 441.457767 1022.967447 450.887027 C1027.537271 456.238528 1032.890054 460.939334 1037.281411 466.420901 C1044.634439 475.599246 1052.118325 484.775699 1058.402993 494.678958 C1065.089395 505.215335 1063.953775 517.293216 1055.693155 527.902896 C1052.923379 531.460391 1043.405069 530.283023 1037.902505 527.214725 C1028.677407 522.070621 1025.053018 512.587588 1018.906045 505.134585 C1009.904336 494.220279 1000.895303 483.518558 989.298990 475.146426 C982.661538 470.354373 976.773721 464.538028 970.362161 459.415958 C959.749429 450.937625 948.973794 442.663547 938.292032 434.271274 C933.272378 430.327579 928.253518 426.378635 923.350869 422.292178 C921.227151 420.522067 919.528421 418.236178 917.377237 416.507327 C916.374612 415.701541 914.281839 414.928409 913.508706 415.425204 C911.670022 416.606814 909.012307 418.528720 908.980142 420.195773 C908.650064 437.303592 908.468057 454.429141 908.961404 471.529056 C909.114785 476.844058 911.599282 482.062991 912.744912 487.384341 C914.995523 497.838199 908.919046 505.431644 898.118142 505.135379 C894.341165 505.031741 890.613809 502.482669 886.855996 502.461978 C880.996438 502.429568 877.085550 499.469058 873.714395 495.533084 C872.190225 493.753482 870.874551 491.041873 870.942605 488.797977 C871.121682 482.892764 872.313455 477.025760 872.713540 471.117313 C873.031961 466.415042 872.615213 461.667422 872.808206 456.951480 C873.390542 442.724399 874.058511 428.500125 874.814798 414.281253 C875.003152 410.740512 874.112161 407.828677 872.040445 404.886996 C869.648355 401.490634 867.384195 397.797824 866.076211 393.894656 C864.298074 388.588656 868.056070 384.890964 871.527749 381.028323 M990.277749 304.278323 C977.339334 295.975101 963.029458 292.506503 947.814126 292.289523 C942.822122 292.218326 937.779580 292.718326 932.846841 292.172702 C925.868875 291.400851 922.722818 296.145724 921.833902 302.924258 C920.914224 309.938052 920.720620 317.050296 919.720865 324.049686 C917.572976 339.087375 915.321023 354.117831 912.638711 369.066440 C911.916238 373.092715 914.141397 372.691684 916.018716 372.180057 C920.766763 370.886233 925.434243 369.240085 930.037393 367.481906 C943.686746 362.268619 957.153665 356.540713 970.951150 351.762698 C983.213784 347.516238 994.998819 343.256473 1002.404947 331.394809 C1005.030923 327.189059 1006.125100 323.052188 1003.604409 319.398776 C999.947427 314.098483 995.111062 309.611941 990.277749 304.278323 M1003.777749 361.778323 C1001.377725 364.621371 1003.689309 365.396976 1005.687173 365.134708 C1007.549356 364.890262 1009.339456 363.571902 1010.983743 362.462985 C1011.602151 362.045932 1011.721170 360.888370 1012.067788 360.068362 C1011.052530 359.890231 1009.974038 359.407077 1009.036111 359.601626 C1007.404275 359.940127 1005.859170 360.696872 1003.777749 361.778323 M971.277749 262.278323 C969.284219 261.944980 967.298135 261.491336 965.291665 261.367618 C964.822427 261.338718 964.284219 262.428287 963.777749 263.003238 C964.270181 263.428287 964.705850 264.107211 965.265359 264.232455 C967.236612 264.673801 969.241311 265.063876 971.251443 265.195163 C972.408792 265.270785 973.601175 264.811038 974.777749 264.592258 C973.944436 263.820956 973.111062 263.049625 971.277749 262.278323 z"/><path class="selected"  fill="#000000" opacity="1.000000" stroke="none" 
 	d="
M690.527749 277.028323 C700.098123 271.124667 709.164102 264.977237 718.831277 259.996829 C724.929849 256.854953 731.882547 255.307071 738.537637 253.332187 C742.870095 252.046542 747.403909 250.291904 751.762552 250.502811 C758.813150 250.843997 765.760537 253.302157 772.811685 253.651492 C784.199197 254.215671 793.268899 260.411868 802.252603 265.811008 C809.787881 270.339633 817.984597 275.147830 822.142740 284.038425 C825.805276 291.869388 831.120523 299.064792 833.839761 307.167178 C837.881692 319.210788 840.754861 331.811832 839.647317 344.700259 C839.045205 351.707919 837.310220 358.647006 835.723855 365.533542 C834.016336 372.945865 831.979165 380.287082 829.915384 387.611301 C827.107583 397.575839 823.406350 407.199893 818.806314 416.496158 C813.337014 427.549106 808.436013 438.899753 802.570901 449.732730 C800.011026 454.460879 796.026468 458.605350 792.054666 462.340457 C784.730935 469.227725 777.368936 476.226138 769.190347 481.998904 C763.774209 485.821780 757.020791 487.903750 750.660012 490.192203 C743.972024 492.598392 737.154947 495.205997 730.183328 496.124881 C721.043252 497.329593 711.604348 497.891788 702.468606 496.980105 C695.400064 496.274783 688.586404 492.921329 681.691507 490.647830 C680.242715 490.170047 678.717324 489.513492 677.593972 488.523318 C665.904336 478.219485 654.156472 468.305057 648.291665 452.776309 C645.218606 444.639407 640.601480 436.987460 638.404763 428.396487 C635.839273 418.363345 634.472512 408.190860 633.542703 397.845553 C632.739480 388.908481 633.721963 380.251895 634.934915 371.599673 C635.788308 365.511905 638.118753 359.632266 639.771829 353.654727 C640.145181 352.304477 640.704019 350.939700 640.735757 349.571353 C640.944803 340.567691 645.074319 333.071994 649.771219 325.811923 C654.370340 318.702945 659.015115 311.619754 663.818521 304.648288 C665.908365 301.615176 668.224588 298.670199 670.821267 296.067538 C677.188089 289.686099 683.777749 283.526919 690.527749 277.028323 M775.777749 291.778323 C771.322976 289.656894 766.586160 287.973605 762.471292 285.324252 C753.479898 279.535220 744.127542 278.558749 735.018594 283.780826 C726.843728 288.467319 719.300149 294.304019 711.721231 299.959262 C708.115091 302.650119 704.545816 305.703342 701.872476 309.275363 C692.140603 322.279330 689.643411 337.733737 688.982400 353.324588 C688.558023 363.334750 689.388650 373.543338 690.961526 383.455936 C692.904886 395.702823 694.547464 408.159640 700.738992 419.361362 C706.586526 429.940585 711.247049 441.264651 720.558023 449.557559 C726.960244 455.259646 732.637552 455.147037 738.773416 448.712405 C746.464822 440.646487 754.067422 432.480899 761.369424 424.064242 C765.733255 419.034366 770.039224 413.775851 773.299661 408.013766 C777.073098 401.345004 779.488565 393.923556 782.815408 386.983127 C789.865701 372.274783 793.423135 356.718234 793.607339 340.523440 C793.672647 334.783572 791.300027 329.056308 790.876504 323.262179 C789.977517 310.963199 784.859048 300.855105 775.777749 291.778323 z"/><path class="selected"  fill="#000000" opacity="1.000000" stroke="none" 
 	d="
M2161.027749 450.028323 C2154.287027 440.853854 2149.114907 431.423831 2147.647866 420.180789 C2147.140298 416.289249 2144.822183 412.669253 2143.873697 408.792453 C2141.976724 401.040988 2140.287027 393.229037 2138.828775 385.383121 C2137.581949 378.676700 2136.564615 371.910708 2135.841958 365.128879 C2135.203286 359.132938 2134.874429 353.079745 2134.850747 347.050052 C2134.830484 341.965762 2134.914956 336.775088 2135.888833 331.815097 C2137.870767 321.717258 2139.042154 311.097842 2143.173013 301.868411 C2149.495034 287.743594 2159.795327 276.398501 2173.323648 267.996005 C2182.727700 262.155124 2191.010415 254.529941 2200.297281 248.473605 C2207.787759 243.588870 2215.613199 238.491824 2224.032632 235.918490 C2238.690103 231.438479 2253.609781 230.089938 2269.400796 232.765933 C2283.164468 235.098453 2293.817056 241.863162 2304.841470 248.887118 C2312.599038 253.829745 2316.866128 261.751742 2321.847085 269.132632 C2330.102456 281.365878 2333.099038 295.289584 2335.768228 309.381198 C2336.560952 313.566653 2337.548013 317.747043 2337.913736 321.975802 C2339.137368 336.122958 2342.027749 350.136447 2340.845132 364.484195 C2340.058023 374.036777 2336.353433 382.600864 2332.375161 390.989719 C2329.123208 397.847354 2324.744546 404.172916 2320.831949 410.714328 C2318.272134 414.993442 2315.915445 419.428378 2312.989175 423.444491 C2309.763101 427.871890 2305.950113 431.867953 2302.460855 436.108218 C2291.652017 449.244449 2278.226968 459.343143 2263.248941 466.847354 C2255.833413 470.562686 2248.243325 474.466312 2239.353189 475.830264 C2233.287515 476.760928 2227.246988 477.997867 2221.014566 478.337283 C2206.988443 479.101077 2194.110269 476.238528 2181.788247 469.086856 C2173.392251 464.213931 2166.730874 458.057742 2161.027749 450.028323 M2188.777749 403.778293 C2193.016519 408.683719 2196.904214 413.955356 2201.564370 418.421268 C2212.559976 428.958865 2225.878579 431.522281 2240.151529 427.225375 C2250.327798 424.161838 2259.277017 418.387454 2266.757974 410.738742 C2278.675943 398.553012 2288.348062 385.047397 2294.941079 368.978274 C2301.685220 352.540622 2302.997720 336.042026 2297.370279 319.834659 C2292.830972 306.761447 2285.308267 295.226047 2271.247476 288.828281 C2260.399820 283.892581 2250.057779 279.359408 2237.803384 280.153018 C2229.477212 280.692233 2222.338784 283.323825 2216.519937 289.117831 C2210.238199 295.372562 2204.627603 302.336001 2198.075845 308.275241 C2191.319253 314.400119 2188.524575 322.807040 2185.117837 330.459964 C2179.706949 342.614169 2177.500894 355.763736 2178.596353 369.469852 C2179.556802 381.480838 2182.846841 392.450198 2188.777749 403.778293 M2178.777749 325.778323 C2177.777749 320.235843 2176.825601 314.683993 2175.743325 309.157657 C2175.482583 307.827304 2174.790200 306.581607 2174.296304 305.296939 C2173.123452 306.949710 2170.697183 308.876163 2170.988199 310.209323 C2172.494790 317.108005 2174.662271 323.865054 2176.693765 330.643313 C2176.974771 331.580905 2177.778970 332.361636 2178.341226 333.214908 C2178.717447 331.966647 2179.270913 330.737491 2179.408120 329.463504 C2179.500894 328.601108 2179.008462 327.675601 2178.777749 325.778323 M2300.777749 262.778323 C2300.777749 260.627170 2300.918130 258.462710 2300.716226 256.330722 C2300.621255 255.326602 2299.868570 254.384799 2299.414224 253.414737 C2298.535318 254.283572 2296.975015 255.102054 2296.906411 256.030704 C2296.705728 258.750491 2296.677163 261.630069 2297.389566 264.224979 C2297.988199 266.404574 2299.721841 268.272403 2300.952798 270.278323 C2300.894449 268.111667 2300.836099 265.944980 2300.777749 262.778323 M2321.777749 281.778354 C2321.355386 281.278354 2320.933267 280.778354 2320.511148 280.278323 C2320.275796 280.787356 2319.783120 281.335361 2319.853433 281.798129 C2320.059976 283.161075 2320.552652 284.478305 2320.809732 285.836825 C2320.978189 286.728244 2320.932046 287.660342 2320.981851 288.574283 C2320.068032 288.463077 2319.156411 288.298129 2318.239419 288.258212 C2317.543618 288.227908 2316.716714 288.150821 2316.177407 288.475345 C2315.680581 288.774325 2315.489419 289.580997 2315.163491 290.164065 C2318.645425 290.424869 2322.127359 290.688541 2325.611978 290.907992 C2325.648355 290.910312 2325.870034 290.254184 2325.755044 290.038669 C2324.457681 287.603427 2323.111001 285.194400 2321.777749 281.778354 M2256.277749 256.278323 C2256.570230 254.237582 2256.957681 252.200534 2257.037271 250.151553 C2257.047281 249.892612 2254.766763 249.194858 2254.687661 249.336642 C2253.912515 250.725284 2252.822671 252.301761 2252.956704 253.717685 C2253.060708 254.817020 2254.777749 255.763797 2256.277749 256.278323 M2170.777749 318.778354 C2170.210366 317.012363 2169.365884 313.675296 2169.117837 313.718997 C2166.031656 314.263400 2165.037515 316.639346 2165.836099 319.397098 C2167.279947 324.382388 2168.729898 317.737948 2170.777749 318.778354 M2323.777749 308.778293 C2324.564126 309.944949 2325.350259 311.111636 2326.136392 312.278323 C2326.350259 310.900516 2326.892984 309.468509 2326.677896 308.161410 C2326.491616 307.030459 2325.382974 306.074069 2324.797525 304.978946 C2324.342691 304.128024 2324.164712 303.116244 2323.638589 302.325992 C2323.512124 302.136233 2322.491372 302.542117 2321.881997 302.674045 C2322.280191 303.808322 2322.668130 304.946231 2323.080484 306.075412 C2323.290689 306.651187 2323.543863 307.211185 2323.777749 308.778293 M2318.277505 356.278323 C2318.444253 358.052737 2318.633706 359.825412 2318.769449 361.602176 C2318.862954 362.824588 2318.881509 364.052737 2318.933511 365.278293 C2319.548257 363.948917 2320.434488 362.672366 2320.706216 361.276218 C2321.015786 359.685245 2320.863199 357.978458 2320.688150 356.345950 C2320.660806 356.091312 2319.444497 355.964297 2318.277505 356.278323 M2184.777749 274.778323 C2184.777749 274.445254 2184.777749 274.112155 2184.777749 273.779086 C2183.640542 273.916019 2182.503335 274.052951 2181.366128 274.189883 C2181.836587 275.997531 2182.209146 277.839847 2182.830484 279.594089 C2183.051187 280.216128 2183.877359 280.623538 2184.427163 281.128940 C2184.544107 279.845035 2184.673501 278.562076 2184.771646 277.276706 C2184.809488 276.780002 2184.777749 276.277957 2184.777749 274.778323 M2310.277749 300.278354 C2309.111001 299.445682 2307.944497 298.613010 2306.777749 297.780307 C2307.476236 298.811435 2308.289468 299.785586 2308.838540 300.890964 C2309.308999 301.837619 2309.411782 302.959506 2309.794839 303.958713 C2310.226724 305.085330 2310.790445 306.161288 2311.296548 307.259189 C2311.790200 305.978152 2312.653726 304.696139 2312.650552 303.416415 C2312.648355 302.535464 2311.444497 301.657565 2310.277749 300.278354 M2189.777749 301.778293 C2188.494546 300.728274 2187.211099 299.678256 2185.927896 298.628238 C2186.051675 300.185397 2185.948892 301.808353 2186.374917 303.277774 C2186.684488 304.345065 2187.694497 305.209292 2188.392007 306.164065 C2188.853921 305.035464 2189.315835 303.906894 2189.777749 301.778293 M2244.777749 239.778323 C2246.021157 240.868228 2247.264566 241.958133 2248.507974 243.048038 C2249.220620 241.914279 2249.933267 240.780521 2250.646157 239.646792 C2248.856607 239.523959 2247.067300 239.401126 2244.777749 239.778323 M2161.777749 382.778293 C2162.248697 382.307284 2162.818277 381.899112 2163.168374 381.350986 C2163.722574 380.483127 2164.129800 379.521518 2164.599038 378.599612 C2163.644204 378.492526 2162.203286 377.948672 2161.829995 378.364169 C2160.889566 379.410861 2160.285074 380.848392 2159.888833 382.227817 C2159.799722 382.538211 2161.111001 383.250888 2161.777749 382.778293 M2200.777749 459.778323 C2199.444497 459.794559 2198.111001 459.810794 2196.777749 459.827029 C2197.252847 460.952518 2197.457193 462.706607 2198.267007 463.055362 C2199.462075 463.570132 2201.088052 463.085025 2202.530435 463.025699 C2202.112954 462.109927 2201.695230 461.194095 2200.777749 459.778323 M2166.777749 373.778323 C2167.039224 373.945010 2167.300943 374.111667 2167.562417 374.278354 C2167.962075 372.439365 2168.456949 370.611423 2168.672281 368.751193 C2168.710855 368.419040 2167.591958 367.952853 2167.007730 367.548465 C2166.597818 369.031589 2166.135659 370.503512 2165.814615 372.005679 C2165.734536 372.379794 2166.111001 372.851504 2166.777749 373.778323 M2175.777749 397.778262 C2175.444497 397.418979 2175.101968 397.067813 2174.779458 396.698917 C2174.169595 396.000644 2173.571206 395.292209 2172.967691 394.588046 C2172.904458 395.611911 2172.716958 396.649264 2172.826333 397.654361 C2172.886636 398.209140 2173.506021 398.681430 2173.764077 399.241122 C2174.221841 400.233340 2174.596597 401.263827 2175.006021 402.278354 C2175.263345 401.111697 2175.520669 399.945010 2175.777749 397.778262 M2300.277749 390.278323 C2300.766275 390.278323 2301.308999 390.415195 2301.731118 390.247867 C2302.453286 389.961795 2303.099527 389.485080 2303.777749 389.088412 C2303.111001 388.485049 2302.411538 387.350192 2301.784585 387.389041 C2300.481363 387.469729 2299.216958 388.172580 2297.936441 388.619723 C2298.383462 389.172580 2298.830728 389.725436 2300.277749 390.278323 M2197.777749 299.778293 C2197.330972 298.664737 2196.962075 297.509433 2196.399575 296.457828 C2196.166665 296.022891 2195.518960 295.810214 2195.059732 295.496463 C2194.965738 297.567874 2194.871743 299.639316 2194.777749 301.710696 C2195.777749 301.399875 2196.777749 301.089084 2197.777749 299.778293 M2231.277749 470.278323 C2233.069009 470.278323 2234.861490 470.314395 2236.650552 470.249698 C2237.033120 470.235843 2237.629068 469.925479 2237.719156 469.628299 C2237.826577 469.273318 2237.424722 468.400210 2237.365396 468.411258 C2235.160806 468.819461 2232.970132 469.304080 2231.277749 470.278323 M2278.277749 264.278323 C2278.160806 264.395389 2277.920083 264.559390 2277.944497 264.622745 C2278.637613 266.445956 2279.357339 268.258945 2280.072915 270.073642 C2280.424234 269.858951 2281.107095 269.539493 2281.077310 269.445071 C2280.528238 267.706760 2279.893960 265.995395 2278.277749 264.278323 M2258.277749 457.278323 C2257.584634 461.567996 2262.398599 457.596927 2262.777749 460.278323 C2263.111001 460.025455 2263.444497 459.772586 2263.777749 459.519717 C2262.836099 458.997500 2261.905679 458.453006 2260.948159 457.961795 C2260.414712 457.688174 2259.836099 457.503238 2258.277749 457.278323 M2169.777749 446.778323 C2170.553384 447.611667 2171.329019 448.445010 2172.104654 449.278323 C2172.329019 448.582522 2172.914956 447.438144 2172.711099 447.273715 C2172.057290 446.746677 2171.111001 446.582522 2169.777749 446.778323 M2275.777993 283.778354 C2275.976480 282.976871 2276.174966 282.175357 2276.373208 281.373813 C2275.174722 281.555179 2273.976236 281.736545 2272.777749 281.917911 C2273.611001 282.704715 2274.444497 283.491519 2275.777993 283.778354 M2286.777749 246.778293 C2287.681558 247.207828 2288.585366 247.637393 2289.489175 248.066958 C2289.013589 247.398868 2288.578042 246.696658 2288.050699 246.072421 C2287.527017 245.452487 2286.979898 244.793582 2286.300699 244.392673 C2286.026773 244.230990 2285.375406 244.709292 2284.895669 244.896304 C2285.356363 245.356967 2285.817056 245.817630 2286.777749 246.778293 M2195.277749 261.278354 C2194.522866 261.856906 2193.768228 262.435489 2193.013345 263.014011 C2194.139322 263.397677 2195.265054 263.781344 2196.391031 264.165042 C2196.186441 263.369479 2195.982095 262.573917 2195.277749 261.278354 M2243.277749 250.278415 C2242.500161 250.833957 2241.722329 251.389529 2240.944497 251.944949 C2241.559732 252.389407 2242.174722 252.833835 2242.789956 253.278354 C2243.286050 252.278354 2243.781900 251.278354 2243.277749 250.278415 M2181.277749 308.278354 C2181.777749 308.156680 2182.277749 308.035007 2182.777749 307.913333 C2182.342447 306.766391 2181.907144 305.619449 2181.471841 304.472507 C2181.240396 305.574435 2181.008950 306.676364 2181.277749 308.278354 M2308.277749 285.278323 C2307.591470 284.631167 2306.905435 283.984042 2306.219156 283.336948 C2305.834390 283.913150 2305.449624 284.489322 2305.064859 285.065463 C2305.969156 285.303104 2306.873452 285.540713 2308.277749 285.278323 M2259.777749 440.778384 C2260.508706 441.611728 2261.239663 442.445071 2261.970620 443.278293 C2262.239663 442.813998 2262.798501 441.992801 2262.733560 441.939975 C2261.969156 441.319461 2261.111001 440.813998 2259.777749 440.778384 M2200.277749 429.278384 C2201.111001 428.901614 2201.944497 428.524814 2202.777749 428.147983 C2202.154458 427.524783 2201.531411 426.901553 2200.908120 426.278323 C2200.531411 427.111667 2200.154458 427.945010 2200.277749 429.278384 M2309.777749 326.778323 C2308.444497 326.781192 2307.111001 326.781589 2305.779214 326.827548 C2305.767984 326.827945 2305.767984 327.728702 2305.779214 327.729129 C2307.111001 327.775058 2308.444497 327.775485 2309.777749 326.778323 M2327.777749 335.778323 C2328.444497 335.754367 2329.111001 335.730441 2329.777749 335.706515 C2328.968423 334.897128 2328.158853 334.087741 2327.349282 333.278323 C2327.325357 333.944980 2327.301431 334.611667 2327.777749 335.778323 M2297.277993 305.278293 C2297.045572 304.045901 2296.813150 302.813510 2296.580484 301.581180 C2296.119546 301.840243 2295.658609 302.099307 2295.197671 302.358371 C2295.724282 303.165042 2296.250894 303.971683 2297.277993 305.278293 M2164.277749 404.278354 C2163.960122 404.960635 2163.642495 405.642917 2163.324624 406.325137 C2164.125406 406.493136 2164.926187 406.661105 2165.726968 406.829104 C2165.410562 406.145511 2165.094156 405.461917 2164.277749 404.278354 M2213.777749 454.778262 C2213.022866 454.278262 2212.268228 453.778262 2211.513589 453.278384 C2211.268228 453.772037 2211.023111 454.265689 2210.777749 454.759280 C2211.777749 455.098941 2212.777749 455.438602 2213.777749 454.778262 M2289.777749 270.778323 C2288.777749 270.781894 2287.777505 270.780917 2286.779702 270.829715 C2286.763833 270.830478 2286.763833 271.726169 2286.779702 271.726962 C2287.777505 271.775760 2288.777749 271.774753 2289.777749 270.778323 M2200.777749 293.778323 C2201.444497 293.604526 2202.111001 293.430698 2202.777749 293.256839 C2202.524331 292.597323 2202.270669 291.937808 2202.017007 291.278323 C2201.603921 291.778323 2201.190835 292.278323 2200.777749 293.778323 M2303.777749 400.778323 C2303.806802 401.474124 2303.679605 402.238681 2303.940591 402.832614 C2304.048501 403.078769 2304.987954 402.959567 2305.549234 403.006534 C2305.125406 402.097140 2304.701577 401.187778 2303.777749 400.778323 M2212.777749 440.778323 C2213.344156 440.878573 2213.910562 440.978824 2214.476968 441.079104 C2213.767740 440.145511 2213.058755 439.211917 2212.349282 438.278323 C2212.325357 438.944980 2212.301431 439.611636 2212.777749 440.778323 M2153.277749 358.278293 C2153.964761 359.258060 2154.651529 360.237826 2155.338296 361.217715 C2155.484781 360.957767 2155.822427 360.587955 2155.746499 360.455783 C2155.311197 359.698703 2154.777749 358.998141 2153.277749 358.278293 M2191.277749 450.278384 C2190.907876 449.648196 2190.538003 449.018008 2190.168130 448.387820 C2190.255532 449.633914 2190.342691 450.879947 2190.430093 452.125979 C2190.545816 451.676761 2190.661782 451.227542 2191.277749 450.278384 M2258.777749 429.778293 C2259.346841 430.209262 2259.915689 430.640231 2260.484536 431.071200 C2260.582193 430.467868 2260.961099 429.545444 2260.716958 429.330020 C2260.262124 428.928927 2259.444497 428.939273 2258.777749 429.778293 M2288.277749 253.278323 C2287.965249 253.965823 2287.652749 254.653323 2287.340249 255.340823 C2287.798501 255.507510 2288.256997 255.674167 2288.715249 255.840823 C2288.736001 255.153323 2288.756997 254.465823 2288.277749 253.278323 M2318.777749 401.778293 C2318.395181 401.278293 2318.012613 400.778293 2317.630044 400.278323 C2317.402017 401.167636 2317.173745 402.056949 2316.945718 402.946261 C2317.389810 402.723605 2317.833657 402.500979 2318.777749 401.778293 M2150.777749 306.778293 C2151.346841 307.209262 2151.915689 307.640231 2152.484536 308.071200 C2152.582193 307.467837 2152.961343 306.545352 2152.717202 306.329928 C2152.262124 305.928836 2151.444497 305.939273 2150.777749 306.778293 M2201.777749 468.778323 C2202.465249 469.090823 2203.152749 469.403323 2203.840005 469.715762 C2204.006753 469.257449 2204.173501 468.799075 2204.340249 468.340884 C2203.652749 468.320010 2202.965249 468.299197 2201.777749 468.778323 M2216.277749 265.278323 C2216.050210 264.384036 2215.832681 263.486728 2215.567544 262.603702 C2215.553384 262.555850 2215.139566 262.627841 2214.911782 262.644046 C2215.033853 263.522128 2215.155679 264.400241 2216.277749 265.278323 z"/><path class="selected"  fill="#000000" opacity="1.000000" stroke="none" 
 	d="
M628.777749 338.278323 C629.242898 358.444247 620.616616 373.145907 606.047220 386.152133 C597.256204 394.000003 586.856179 398.144809 577.311502 404.138156 C574.289895 406.035434 570.269204 406.468021 566.634256 407.229953 C562.149820 408.169955 557.594705 408.778903 553.063089 409.485873 C546.952859 410.439181 540.862771 411.647494 534.714883 412.201236 C527.383828 412.861575 519.992349 413.330020 512.642740 413.167911 C505.575662 413.012057 498.398477 412.536777 491.528512 411.025363 C488.160470 410.284396 487.775247 410.773593 487.776925 413.546451 C487.779886 418.436008 487.702676 423.326938 487.791482 428.214877 C488.088693 444.574344 488.480081 460.932132 488.759866 477.291873 C488.869119 483.679263 488.501474 490.085025 488.844705 496.455813 C489.319131 505.263003 483.888376 510.975101 478.674844 516.731387 C476.417398 519.223819 470.463144 517.535342 466.725076 514.921268 C463.750314 512.840945 459.946389 510.312808 456.704293 510.556888 C447.258523 511.267886 442.433175 504.463687 438.800241 498.110660 C436.301858 493.741702 435.801919 489.124637 437.762582 484.362735 C437.879892 484.077762 437.761544 483.701541 437.780099 483.369327 C438.443948 471.480960 438.842630 459.569827 439.854532 447.711032 C440.833719 436.235324 443.032144 424.841128 443.571237 413.358371 C443.930825 405.699069 445.800790 397.605472 439.749154 390.477359 C435.277627 385.210422 437.419412 376.478396 441.149911 371.026584 C444.369638 366.321200 446.522989 360.442355 447.537179 354.793155 C448.609475 348.820163 447.527353 342.491763 447.860269 336.344272 C448.108224 331.765323 449.429757 327.244266 449.674325 322.665439 C449.861245 319.165347 448.943734 315.621066 448.818887 312.085788 C448.652322 307.368747 448.997018 302.629001 448.730600 297.921146 C448.227090 289.023135 447.108804 280.150271 446.860177 271.249820 C446.527200 259.327487 454.977029 253.585239 466.695718 257.264682 C470.436746 258.439242 473.856546 259.287265 477.307473 255.644382 C478.679178 254.196445 482.318032 254.847232 484.932168 254.633700 C496.741372 253.669131 507.426858 248.677035 518.637429 245.584354 C530.034036 242.440463 542.006021 241.784671 553.930764 245.130252 C560.449319 246.959109 567.788430 246.218783 574.037088 248.559817 C581.063455 251.192203 587.580545 255.562808 593.778604 259.942355 C604.290323 267.370029 611.467202 277.902438 617.613076 288.932498 C620.568643 294.237033 621.987954 300.453219 623.718057 306.369113 C625.421914 312.195438 626.953714 318.110751 627.966348 324.087771 C628.725564 328.568484 628.541726 333.208957 628.777749 338.278323 M570.777749 351.778323 C572.444375 348.303775 574.517007 344.961642 575.701516 341.329806 C579.230691 330.508609 581.361184 319.363986 580.647744 307.950473 C580.386575 303.771457 580.077066 299.118411 574.974527 296.889957 C567.352395 293.561130 560.030374 289.525271 552.338235 286.383853 C546.921060 284.171481 541.198282 282.352176 535.439676 281.410312 C525.565347 279.795322 515.950906 282.505862 506.702615 285.495608 C502.341409 286.905429 496.909890 289.794559 495.200876 293.504733 C492.587808 299.177646 492.535440 306.115817 491.847482 312.565036 C491.190652 318.722812 491.198831 324.948398 490.759622 331.133182 C489.818704 344.383426 488.692575 357.621036 487.830941 370.876071 C487.580880 374.722934 490.221017 377.125705 493.536447 378.172946 C496.233224 379.024753 499.325509 379.589358 502.065957 379.158572 C510.589395 377.818851 519.093179 376.213656 527.482583 374.202304 C535.761941 372.217227 544.258706 370.441806 551.981302 367.035525 C559.130288 363.882266 565.735757 359.122897 570.777749 351.778323 M454.777749 287.778323 C454.090249 287.465823 453.402749 287.153323 452.715280 286.840823 C452.548593 287.299167 452.381936 287.757510 452.215249 288.215823 C452.902749 288.236667 453.590249 288.257510 454.777749 287.778323 z"/><path class="selected"  fill="#000000" opacity="1.000000" stroke="none" 
 	d="
M1545.027749 307.528323 C1547.682046 298.726901 1552.378213 291.743136 1559.331460 286.181216 C1565.371377 281.349795 1570.993814 275.953616 1577.298501 271.513980 C1580.458047 269.289096 1584.712686 268.597629 1588.498574 267.289493 C1592.873452 265.777804 1597.280435 264.358890 1601.668496 262.885074 C1609.711709 260.183658 1617.715249 257.356113 1625.811929 254.826205 C1628.649820 253.939487 1631.696084 253.586215 1634.676675 253.319308 C1640.023111 252.840640 1645.387857 252.449313 1650.752359 252.313815 C1660.411905 252.069827 1669.369546 254.921664 1677.786172 259.377902 C1679.788003 260.437747 1681.121377 262.750674 1682.780069 264.470004 C1685.298501 267.080691 1687.429605 270.339542 1690.430093 272.163516 C1703.355996 280.021060 1709.915445 292.591281 1715.671060 305.654147 C1718.706704 312.543918 1721.297891 319.774081 1722.913491 327.109592 C1725.105996 337.063510 1726.789468 347.027347 1725.095742 357.577121 C1723.888345 365.097140 1724.326211 372.886966 1722.212442 380.442569 C1719.122232 391.488467 1714.026773 401.440646 1707.717324 410.949588 C1702.905435 418.201724 1699.256875 426.271152 1694.079263 433.223575 C1688.005288 441.379367 1680.870279 448.749637 1674.121133 456.394839 C1672.159219 458.617129 1669.925454 460.597598 1667.844644 462.716739 C1659.066079 471.656985 1648.105874 477.154788 1636.703653 481.645389 C1631.532022 483.682010 1625.772500 484.431766 1620.201333 485.188968 C1614.730874 485.932437 1609.116983 486.558780 1603.643228 486.164920 C1586.218667 484.911319 1570.152627 479.903995 1557.782998 466.715945 C1548.760782 457.097049 1542.869668 445.497317 1538.893228 433.087558 C1535.344278 422.011600 1532.566446 410.670444 1529.904458 399.339145 C1529.088418 395.865756 1529.880777 392.035281 1529.756387 388.374454 C1529.493081 380.623202 1528.461343 372.833743 1528.960977 365.138980 C1529.458657 357.473910 1531.075723 349.816775 1532.879312 342.319095 C1534.756997 334.513064 1537.293618 326.851565 1539.840127 319.226352 C1541.151773 315.298740 1543.111123 311.587436 1545.027749 307.528323 M1570.777749 406.778323 C1571.215249 418.033633 1577.012368 426.983890 1583.558633 435.444461 C1588.886880 442.331088 1597.062906 444.128085 1604.992837 446.349551 C1612.136758 448.350833 1619.705728 448.114017 1625.403604 444.592898 C1633.056924 439.863345 1639.955117 433.328372 1645.807412 426.409488 C1653.832315 416.922183 1661.969644 407.482852 1667.748819 396.118411 C1673.918008 383.987002 1678.460733 371.710391 1679.867349 358.114505 C1681.631021 341.067508 1672.827676 327.972568 1663.910928 315.264438 C1657.722940 306.445315 1648.599649 300.248538 1638.670449 295.720462 C1632.901529 293.089572 1627.065225 290.840640 1620.438882 293.068790 C1599.611123 300.072360 1584.976114 314.195193 1574.892617 333.181583 C1570.563028 341.333652 1568.125161 350.017398 1567.286782 359.662173 C1566.474649 369.007205 1567.001382 378.222598 1567.027261 387.445499 C1567.044473 393.559878 1569.444497 399.667605 1570.777749 406.778323 M1691.277749 300.278354 C1690.444375 301.034305 1689.187295 301.659976 1688.902871 302.584720 C1688.644571 303.424930 1689.491861 304.577914 1689.766519 305.615542 C1690.175210 307.159396 1690.508706 308.723086 1690.874307 310.278354 C1691.508828 308.631015 1692.483682 307.021945 1692.674600 305.324740 C1692.839273 303.861392 1692.111123 302.297641 1691.277749 300.278354 M1679.777871 301.778354 C1679.111123 303.661502 1678.417154 305.536746 1677.864053 307.452670 C1677.838052 307.542422 1679.067666 307.994815 1679.712808 308.278354 C1680.067788 306.873996 1680.506387 305.483157 1680.736123 304.058597 C1680.825479 303.504275 1680.444375 302.873996 1679.777871 301.778354 M1628.777749 261.778323 C1629.111123 263.113895 1629.321573 264.499148 1629.833169 265.762546 C1630.064737 266.334415 1630.894082 266.664157 1631.452310 267.103763 C1631.761270 266.195682 1632.587564 264.994937 1632.273111 264.439334 C1631.579751 263.213199 1630.311441 262.312076 1628.777749 261.778323 M1662.777749 303.778323 C1662.777749 303.280246 1662.915078 302.730197 1662.750039 302.294650 C1662.370523 301.292758 1661.898599 300.312106 1661.328042 299.408847 C1661.222451 299.241550 1660.477578 299.478152 1660.027749 299.528323 C1660.277749 300.683932 1660.408365 301.885531 1660.828531 302.975558 C1661.036782 303.515750 1661.777749 303.850619 1662.777749 303.778323 M1643.277749 262.278323 C1643.377603 262.044833 1643.585977 261.619845 1643.561319 261.605929 C1642.998330 261.286868 1642.409829 261.012576 1641.826089 260.729983 C1641.476602 262.401370 1641.102700 264.068851 1640.833902 265.753116 C1640.816568 265.862216 1641.607461 266.100253 1642.022378 266.278323 C1642.274087 265.111636 1642.525918 263.944980 1643.277749 262.278323 M1543.777749 369.778293 C1543.220865 369.335208 1542.663980 368.892093 1542.107095 368.449039 C1542.107095 369.668552 1542.107095 370.888095 1542.107095 372.107608 C1542.663980 371.664493 1543.220865 371.221408 1543.777749 369.778293 M1654.277627 426.278354 C1654.467324 426.945010 1654.657022 427.611697 1654.846841 428.278293 C1655.490518 427.995639 1656.134073 427.712985 1656.777749 427.430331 C1656.111123 426.879672 1655.444375 426.328982 1654.277627 426.278354 M1617.777749 266.778354 C1618.532510 267.278354 1619.287271 267.778354 1620.042032 268.278323 C1620.287271 267.784671 1620.532510 267.291019 1620.777749 266.797366 C1619.777749 266.457675 1618.777749 266.117984 1617.777749 266.778354 z"/><path class="selected"  fill="#000000" opacity="1.000000" stroke="none" 
 	d="
M1275.527749 297.028323 C1272.031045 300.168033 1268.210733 300.683688 1264.019449 300.365695 C1262.398233 300.242679 1260.397622 300.669040 1259.091592 301.587192 C1251.790445 306.719699 1244.290323 304.380038 1236.675454 302.729678 C1228.255777 300.904971 1219.817666 299.144839 1211.096719 301.228274 C1205.608804 302.539371 1205.399087 307.201816 1204.907388 311.093722 C1203.534585 321.960544 1202.855508 332.913211 1201.737466 343.815066 C1201.319009 347.895724 1199.975625 351.916141 1199.858560 355.987155 C1199.338784 374.059146 1199.792154 392.187320 1198.528726 410.199466 C1197.739785 421.448001 1198.275796 432.389896 1199.645303 443.474917 C1200.137246 447.456698 1198.720498 451.642093 1198.887490 455.705264 C1199.054849 459.781009 1199.558145 464.015628 1200.906167 467.830020 C1202.973184 473.678653 1202.824990 479.263858 1199.285440 484.050906 C1195.752481 488.829104 1193.182657 493.806827 1191.993936 499.563174 C1190.814981 505.272952 1187.107705 509.398440 1182.725625 512.640933 C1178.644937 515.660403 1174.076333 518.253726 1169.351724 520.069156 C1167.066201 520.947330 1163.413858 520.446048 1161.275064 519.123050 C1154.686807 515.047549 1149.444619 509.892093 1149.680093 501.036929 C1149.848916 494.691348 1148.371865 488.253177 1148.952798 481.978824 C1149.801431 472.811832 1148.445840 464.458560 1145.249185 455.781375 C1143.339883 450.599002 1144.820230 444.167697 1144.778482 438.297793 C1144.773721 437.631473 1144.755532 436.964206 1144.781167 436.298831 C1145.109292 427.773990 1145.601602 419.251437 1145.710733 410.723910 C1145.764322 406.535556 1144.786294 402.333865 1144.842080 398.145755 C1144.977700 387.952579 1145.425576 377.763125 1145.783487 367.573459 C1146.088907 358.881229 1146.482949 350.192050 1146.768106 341.499209 C1147.140664 330.143802 1147.493325 318.787265 1147.755532 307.428927 C1147.871011 302.423617 1144.828042 299.336795 1139.798867 299.297671 C1130.913003 299.228580 1122.024331 299.397525 1113.140420 299.250857 C1099.226114 299.021121 1085.288491 299.009830 1071.414224 298.095279 C1065.301187 297.692294 1058.905069 296.344791 1054.295694 291.306583 C1049.296914 285.842624 1047.627603 276.288516 1051.972818 271.520633 C1054.411172 268.845035 1058.692788 267.560886 1062.379312 266.391757 C1066.104654 265.210269 1070.101968 264.549289 1074.013345 264.366153 C1080.776162 264.049472 1087.566324 264.373874 1094.341714 264.248508 C1099.905435 264.145572 1105.462320 263.717593 1111.025674 263.550082 C1115.805825 263.406100 1120.590982 263.425448 1125.373941 263.374881 C1128.609414 263.340671 1131.851114 263.418643 1135.078164 263.236941 C1136.952066 263.131412 1138.800088 262.339786 1140.663980 262.323337 C1151.215493 262.230289 1161.770059 262.402804 1172.319741 262.236789 C1180.014688 262.115695 1187.710855 261.726230 1195.393472 261.247714 C1203.954995 260.714480 1212.495645 259.509921 1221.056558 259.390658 C1231.297403 259.247928 1241.548013 260.080813 1251.798257 260.240909 C1262.514444 260.408267 1273.268472 260.782657 1283.941446 260.083499 C1290.050576 259.683292 1295.301065 259.997226 1299.032388 265.173923 C1300.425821 267.107181 1301.590127 269.691592 1301.652017 272.011325 C1301.876260 280.410892 1294.605508 289.127994 1287.616128 288.048129 C1281.987100 287.178500 1278.657022 287.226657 1278.480264 293.945254 C1278.454751 294.912692 1276.720987 295.835116 1275.527749 297.028323 z"/><path class="selected"  fill="#000000" opacity="1.000000" stroke="none" 
 	d="
M1480.527749 379.028323 C1480.830606 387.843539 1475.652749 393.084872 1468.800699 395.996615 C1465.081826 397.576907 1459.906045 397.172366 1455.796182 396.098605 C1446.217813 393.596133 1436.990884 392.514957 1427.803018 397.243503 C1426.037149 398.152347 1424.076089 399.035831 1422.142862 399.200442 C1415.798623 399.740909 1409.420938 399.870669 1403.065347 400.296298 C1394.170327 400.891910 1385.273843 401.507022 1376.397500 402.324893 C1372.293130 402.703067 1368.939859 409.401645 1369.730142 414.391849 C1370.605142 419.915927 1371.005655 425.513614 1371.804239 431.051669 C1372.820718 438.100925 1373.779214 445.174289 1375.222574 452.141971 C1376.800699 459.760135 1379.236123 467.207217 1380.670938 474.846561 C1381.787515 480.791751 1379.402993 486.354922 1374.616128 489.651919 C1369.301919 493.312137 1363.254922 496.807437 1356.391885 492.302981 C1355.114297 491.464358 1353.580606 490.286624 1352.244058 490.381351 C1340.320474 491.226199 1335.921548 483.298648 1333.050454 473.900882 C1332.244546 471.262393 1332.799234 468.198855 1332.784585 465.329959 C1332.759683 460.439761 1332.777749 455.549197 1332.777749 450.658816 C1332.777749 441.101871 1332.713296 431.544162 1332.823404 421.988467 C1332.850625 419.623080 1333.538125 417.273013 1333.761026 414.900760 C1334.620034 405.760745 1331.990884 397.381930 1328.246255 389.192538 C1325.771402 383.779788 1325.026284 378.423129 1328.707925 372.913089 C1333.122964 366.305484 1332.027627 358.733096 1331.335733 351.374728 C1331.009927 347.908816 1330.023355 344.493869 1329.833169 341.028537 C1329.335244 331.951999 1329.263223 322.850314 1328.658975 313.782809 C1328.525918 311.786349 1327.232095 309.603274 1325.885171 307.999545 C1321.224771 302.450290 1318.907876 296.013461 1320.079751 289.054324 C1320.455728 286.821384 1324.130166 284.104892 1326.738443 283.491092 C1333.287149 281.949954 1334.345132 280.705997 1332.842935 273.717959 C1332.259439 271.003604 1331.167642 267.075564 1332.472085 265.542026 C1335.593789 261.872470 1339.587198 258.083621 1343.991983 256.582156 C1349.622110 254.663089 1355.994546 254.858066 1362.061197 254.295474 C1377.003701 252.909640 1391.953164 251.599429 1406.902261 250.285953 C1411.259805 249.903079 1415.620034 249.473117 1419.988321 249.305636 C1430.846719 248.889255 1441.718545 248.768710 1452.568643 248.209079 C1457.646646 247.947146 1462.671182 246.763675 1467.748452 246.338809 C1471.446328 246.029391 1475.196817 246.408420 1478.913125 246.241641 C1482.615762 246.075534 1486.361856 245.033023 1489.989419 245.388675 C1500.162393 246.386081 1509.497476 242.182071 1519.328775 241.288180 C1521.452188 241.095096 1523.946328 241.015536 1525.729043 241.933566 C1528.654947 243.440097 1531.328897 245.602908 1533.748697 247.873141 C1535.700967 249.704837 1538.713540 252.328891 1538.448159 254.204043 C1537.885904 258.176303 1535.903726 262.143313 1533.746377 265.645938 C1530.851846 270.345798 1525.455606 270.315097 1520.661538 271.308993 C1514.853799 272.513003 1509.086709 273.917575 1503.323159 275.322055 C1502.768594 275.457248 1502.206460 276.122043 1501.911660 276.680270 C1497.010904 285.958194 1488.136880 285.851321 1479.455850 286.287479 C1466.897134 286.918429 1454.253335 286.904971 1441.807168 288.458469 C1426.484658 290.371005 1411.330972 293.629428 1396.098062 296.269565 C1390.021524 297.322787 1383.874551 298.034915 1377.861367 299.363193 C1373.802530 300.259738 1367.687539 308.425784 1367.854043 312.689242 C1368.151284 320.297397 1369.204263 327.879947 1369.398111 335.487033 C1369.571450 342.297885 1368.929727 349.125766 1368.803140 355.949039 C1368.694009 361.831607 1369.682534 362.226260 1375.510293 361.361240 C1384.382241 360.044375 1393.334878 359.271091 1402.256021 358.290408 C1403.079385 358.199863 1404.306802 358.639377 1404.696328 358.223605 C1409.811441 352.762912 1416.482217 356.331302 1422.228189 355.670230 C1431.815225 354.567325 1441.740396 355.441409 1451.420938 356.457248 C1457.763223 357.122714 1463.894082 359.408755 1468.576822 364.475253 C1471.330117 367.454196 1474.295572 370.492892 1477.752603 372.486880 C1480.652505 374.159579 1481.039712 376.073001 1480.527749 379.028323 M1501.277749 257.278354 C1502.111123 257.019626 1502.944375 256.760898 1503.777749 256.502139 C1503.362466 255.845523 1502.947061 255.188876 1502.531656 254.532229 C1501.946939 255.280917 1501.362344 256.029605 1501.277749 257.278354 z"/><path class="selected"  fill="#000000" opacity="1.000000" stroke="none" 
 	d="
M1763.777749 367.278323 C1764.111123 365.083682 1764.705240 363.394046 1764.738076 361.693576 C1765.132852 341.282474 1765.334390 320.866946 1765.857583 300.459537 C1765.983316 295.555667 1767.506997 290.689792 1767.658853 285.783877 C1767.819253 280.606784 1766.692544 275.385104 1766.911782 270.216128 C1767.082071 266.203738 1767.960122 262.051578 1769.400064 258.297763 C1772.511392 250.186343 1778.991616 247.215671 1787.367837 249.346347 C1789.043374 249.772586 1790.776162 250.232455 1792.482705 250.233401 C1799.813638 250.237521 1805.718545 253.792087 1810.406900 258.686618 C1814.796304 263.269198 1814.035806 269.781344 1813.736367 275.704654 C1813.219156 285.932620 1812.647989 296.165988 1811.725503 306.363254 C1810.613076 318.660068 1808.701333 330.895663 1807.920083 343.207522 C1807.389444 351.568423 1808.342202 360.014346 1808.374795 368.423251 C1808.395913 373.892367 1807.905557 379.361758 1807.742471 384.833926 C1807.651162 387.894351 1807.788858 390.960879 1807.771402 394.024386 C1807.735513 400.332339 1807.648111 406.640018 1807.618448 412.948001 C1807.609414 414.860904 1807.854043 416.781558 1807.751382 418.686221 C1807.498208 423.384189 1806.915078 428.071078 1806.821573 432.769534 C1806.662149 440.785586 1811.171792 445.388309 1819.068277 445.248538 C1831.594644 445.026858 1844.124185 444.763949 1856.640054 444.230228 C1866.704019 443.801059 1876.757608 442.340304 1886.800943 442.471408 C1894.703042 442.574588 1902.588540 444.366885 1910.470376 445.486087 C1916.590249 446.355014 1922.667886 447.821231 1928.810586 448.145511 C1935.109048 448.477969 1940.518594 450.482486 1945.275674 454.335147 C1950.635537 458.676028 1950.925332 469.145511 1946.140176 474.440677 C1940.918985 480.218509 1935.810830 486.098208 1930.633584 491.915896 C1926.900308 496.110904 1922.123208 494.512881 1917.839029 493.674197 C1913.964273 492.915713 1910.391397 490.711063 1906.540200 489.694522 C1904.740518 489.219424 1902.600381 490.218936 1900.610269 490.246036 C1894.223184 490.333072 1887.826699 490.081241 1881.447183 490.318179 C1866.890176 490.858707 1852.330362 491.437930 1837.792032 492.332522 C1825.860635 493.066714 1813.950967 494.198794 1802.049234 495.337833 C1799.287759 495.602115 1796.543740 497.332583 1793.885782 497.133121 C1787.734170 496.671451 1781.627359 495.517032 1775.526040 494.501529 C1769.626382 493.519534 1763.717569 492.527225 1757.893716 491.187503 C1755.859903 490.719546 1753.442910 489.663089 1752.277505 488.081973 C1748.190835 482.537784 1744.216958 476.845645 1740.878579 470.833011 C1737.576822 464.886844 1740.604165 458.845767 1743.132364 453.714236 C1747.714151 444.414889 1751.723184 435.240634 1752.973672 424.728335 C1754.018350 415.946231 1757.024820 407.415561 1758.700723 398.684878 C1760.078408 391.507449 1760.708047 384.189181 1761.810464 376.954867 C1762.280923 373.867770 1763.111123 370.835513 1763.777749 367.278323 M1927.277749 486.278323 C1925.806680 485.749454 1924.335611 485.220523 1922.864541 484.691592 C1923.048501 485.220462 1923.232461 485.749393 1923.416299 486.278323 C1925.026651 485.079959 1925.841958 490.815494 1927.277749 486.278323 M1769.277749 405.278323 C1768.939126 403.945010 1768.606363 402.609927 1768.208047 401.294681 C1768.201699 401.274234 1767.384805 401.499301 1766.946206 401.609805 C1767.390054 402.832645 1767.833902 404.055484 1769.277749 405.278323 M1784.277871 454.278384 C1783.777871 454.990665 1783.277871 455.703006 1782.777749 456.415347 C1783.224649 456.703006 1783.671548 456.990665 1784.118448 457.278323 C1784.338174 456.445010 1784.558023 455.611636 1784.277871 454.278384 z"/><path class="selected"  fill="#000000" opacity="1.000000" stroke="none" 
 	d="
M2048.777749 379.278323 C2049.444497 391.994845 2049.730142 404.247012 2050.870034 416.419223 C2052.451577 433.306399 2054.007974 450.141971 2053.966470 467.155093 C2053.941324 477.398807 2055.646157 487.662234 2056.832925 497.886783 C2057.427407 503.008670 2050.428872 516.302920 2045.428384 516.884280 C2039.500650 517.573550 2033.458780 515.774295 2028.906900 511.691409 C2025.681070 508.797916 2022.573404 507.500796 2018.204385 507.093936 C2008.770425 506.215457 2000.230020 496.452823 1999.822549 486.882083 C1999.517740 479.726626 2000.403482 472.732425 1998.169595 465.434390 C1996.512002 460.018802 1998.764810 453.501529 1998.710977 447.480044 C1998.599893 435.066440 1997.994302 422.658084 1997.801919 410.244327 C1997.389810 383.675632 1996.999429 357.105563 1996.839273 330.534610 C1996.784585 321.456729 1997.462075 312.375125 1997.741250 303.293246 C1997.761636 302.629794 1997.260904 301.950320 1997.002359 301.278323 C1996.594156 301.633975 1996.060830 301.917087 1995.803506 302.360385 C1995.265420 303.288333 1994.872598 304.300693 1994.420083 305.278323 C1993.927530 303.390170 1992.402017 300.492496 1993.105264 299.773166 C1998.847696 293.898440 1997.677774 286.631686 1997.751382 279.629550 C1997.855264 269.746097 1997.760904 259.860721 1997.784707 249.976230 C1997.797403 244.658053 2001.111123 241.286777 2006.276040 240.198428 C2011.878457 239.017917 2017.310586 237.051456 2022.886758 235.719729 C2029.892129 234.046573 2037.079995 231.950412 2043.492593 237.335757 C2044.900796 238.518283 2046.672036 240.457187 2046.624917 241.997378 C2046.225991 255.054935 2045.206216 268.094821 2044.880044 281.152713 C2044.722818 287.452365 2045.632730 293.780887 2046.113443 300.092227 C2046.195962 301.174838 2046.741616 302.235660 2046.747720 303.308414 C2046.800210 312.526340 2046.519204 321.754184 2046.854898 330.960208 C2047.155191 339.192416 2048.251870 347.393069 2048.699868 355.623843 C2048.854165 358.457461 2047.799722 361.345126 2047.847329 364.198917 C2047.928140 369.062564 2048.444253 373.918918 2048.777749 379.278323 M2006.777749 393.778323 C2006.777749 390.754764 2006.837564 387.728793 2006.717691 384.709994 C2006.698159 384.216617 2005.885537 383.754733 2005.439370 383.278323 C2005.218789 383.815341 2004.818032 384.348880 2004.807534 384.889987 C2004.746621 388.023532 2004.483438 391.196872 2004.881753 394.280124 C2005.145913 396.324405 2006.382119 398.249423 2007.264932 400.190738 C2007.314737 400.300204 2008.108682 400.071200 2008.556314 399.999728 C2008.130044 398.092593 2007.703897 396.185458 2006.777749 393.778323 M2012.777749 357.778323 C2013.592813 359.260104 2014.407998 360.741885 2015.223062 362.223636 C2015.074624 360.655368 2014.885415 359.089542 2014.791299 357.518008 C2014.722207 356.364352 2014.810952 355.201968 2014.766519 354.045871 C2014.734048 353.198947 2014.599527 352.355929 2014.510659 351.511203 C2013.933023 352.274509 2013.120279 352.961978 2012.842691 353.822085 C2012.552652 354.720920 2012.777749 355.785922 2012.777749 357.778323 M2036.777749 283.778323 C2036.777749 285.234775 2036.662759 286.706241 2036.849527 288.138400 C2036.903726 288.554996 2037.819986 288.859195 2038.341226 289.214938 C2038.820230 287.633151 2039.425699 286.069339 2039.654458 284.452151 C2039.693277 284.178500 2038.111001 283.675418 2036.777749 283.778323 M2026.277749 470.278323 C2026.953775 470.602359 2027.629678 470.926333 2028.305703 471.250369 C2028.046426 470.343021 2028.039834 469.182864 2027.456582 468.599490 C2026.873208 468.016177 2025.713052 468.009708 2024.805703 467.750369 C2025.129800 468.426333 2025.453775 469.102298 2026.277749 470.278323 M2023.277749 247.278323 C2023.147012 245.944980 2023.016275 244.611667 2022.885537 243.278293 C2022.182901 243.474429 2021.480386 243.670566 2020.777749 243.866733 C2021.444375 244.837253 2022.111001 245.807803 2023.277749 247.278323 M2036.277749 355.278323 C2036.165200 354.165805 2036.090738 353.046512 2035.895913 351.948520 C2035.868814 351.794772 2035.252237 351.745456 2034.908242 351.647830 C2035.031411 352.858005 2035.154580 354.068179 2036.277749 355.278323 M2037.777749 341.778293 C2038.777749 341.774722 2039.777993 341.775699 2040.775796 341.726932 C2040.791665 341.726169 2040.791665 340.830478 2040.775796 340.829684 C2039.777993 340.780887 2038.777749 340.781894 2037.777749 341.778293 M2010.777749 287.778323 C2011.444375 287.617374 2012.262490 287.627841 2012.716836 287.226535 C2012.961465 287.010745 2012.582437 286.088779 2012.484903 285.485416 C2011.915811 285.916385 2011.346841 286.347354 2010.777749 287.778323 z"/><path class="selected"  fill="#000000" opacity="1.000000" stroke="none" 
 	d="
M393.777749 203.278323 C386.676980 204.115848 380.342965 203.611087 373.877023 201.475741 C369.535714 200.042056 367.562814 197.385684 365.717721 193.756015 C363.608682 189.607013 361.462014 185.356021 358.585458 181.743579 C352.632852 174.268283 346.517770 166.857150 339.796945 160.087359 C336.622476 156.889819 332.105233 154.709186 327.823068 153.006900 C322.372689 150.840243 320.644143 145.960940 317.654886 141.815158 C314.164621 136.974567 310.033761 132.585925 306.070718 128.098468 C300.236398 121.492160 294.129495 115.118747 288.470102 108.368289 C283.981332 103.014209 279.958413 97.266574 275.787484 91.649997 C272.295419 86.947604 268.242624 82.517062 265.575509 77.376056 C259.654031 65.962100 252.147317 55.088183 252.667733 41.201770 C252.951089 33.641994 252.146585 26.038341 251.766641 18.457789 C251.452676 12.193233 253.748056 6.207553 258.247995 2.865413 C262.528390 -0.313672 268.639932 -1.258393 274.303781 2.157374 C276.979867 3.771258 279.857705 4.242526 283.539102 3.533946 C293.764199 1.565890 296.481118 3.837512 302.775857 12.048038 C311.063638 22.858211 316.063424 35.614009 323.291238 46.993564 C330.812600 58.835292 338.226449 70.715442 344.201120 83.362750 C351.159982 98.093249 360.115152 111.516757 368.917947 125.129245 C377.515847 138.424930 385.025003 152.422504 393.094369 166.063281 C396.271066 171.433230 399.596078 176.719592 402.985849 181.958423 C408.446115 190.397159 405.109414 199.390872 395.374612 202.304721 C394.949899 202.431857 394.640725 202.944980 393.777749 203.278323 z"/><path class="selected"  fill="#000000" opacity="1.000000" stroke="none" 
 	d="
M101.527749 416.028323 C106.751809 408.323184 114.374597 411.809451 120.910516 411.388492 C129.072839 410.862765 137.288766 411.219699 145.478372 411.046054 C149.760034 410.955295 154.037545 410.580539 158.312066 410.267612 C162.175714 409.984805 166.158731 410.084231 169.845559 409.101413 C172.063791 408.510135 173.920297 406.283938 175.754235 404.591830 C178.783105 401.797183 181.488443 398.622195 184.695688 396.066165 C185.868860 395.131198 188.167733 395.059634 189.805063 395.371432 C193.121469 396.002994 193.851571 399.377322 191.628732 401.994601 C190.599145 403.206882 189.959588 404.750430 189.143197 406.143771 C190.849603 406.193729 192.592401 406.494479 194.256524 406.253024 C205.236352 404.659854 216.155999 402.530093 227.179635 401.394015 C238.677560 400.209018 250.294595 400.220950 261.815896 399.211551 C277.807260 397.810489 293.777230 396.103824 309.712777 394.169192 C313.811807 393.671542 317.504800 391.377963 322.015329 393.181766 C329.468759 396.162387 333.295144 403.930575 330.225961 411.302066 C328.451181 415.564670 326.895669 420.004886 324.476297 423.888492 C322.074228 427.744327 317.879190 429.353915 313.303445 429.255893 C300.779702 428.987674 288.244241 428.109927 275.740945 428.458713 C267.709329 428.682712 259.594400 430.090396 251.747201 431.943301 C231.314325 436.767856 211.096826 442.525058 190.614572 447.111667 C180.386605 449.402042 169.776437 450.022281 159.322335 451.255374 C149.920907 452.364261 140.344720 452.563968 131.133798 454.520999 C124.629556 455.902957 118.362054 459.098941 112.434816 462.308597 C105.939126 465.826053 96.247010 464.993899 92.720132 459.720828 C88.183389 452.937869 90.106286 445.515475 97.526338 442.342136 C101.484620 440.649203 105.733323 439.641574 109.828126 438.257175 C110.841508 437.914584 111.766038 437.309207 112.731424 436.824649 C111.809724 436.309207 110.911340 435.745517 109.962159 435.286929 C106.354440 433.543826 102.261438 432.418735 99.220910 429.977634 C94.524400 426.207004 94.690438 423.907382 98.466775 419.121341 C99.287118 418.081607 100.334794 417.221286 101.527749 416.028323 z"/><path class="selected"  fill="#000000" opacity="1.000000" stroke="none" 
 	d="
M2428.027749 287.528354 C2441.180825 283.527286 2454.220132 281.467532 2467.772622 280.955234 C2479.334390 280.518161 2490.801187 277.339633 2502.287027 275.247500 C2506.739663 274.436404 2511.138345 272.487460 2515.544351 272.538699 C2518.829263 272.576907 2522.707437 274.302737 2525.199868 276.531314 C2528.353189 279.350741 2531.125161 279.487125 2534.910074 278.771487 C2541.172281 277.587466 2547.578042 277.185245 2553.893716 276.254336 C2565.494302 274.544437 2577.069009 272.664493 2588.662271 270.905459 C2594.791177 269.975528 2600.913003 268.868075 2607.080484 268.365390 C2612.268960 267.942447 2617.522378 268.179568 2622.739175 268.357364 C2623.850259 268.395297 2625.320962 269.164706 2625.951333 270.067813 C2628.665445 273.956149 2632.356118 274.652896 2636.757730 274.336001 C2642.400064 273.929813 2647.783609 274.339389 2652.670572 278.180118 C2657.641763 282.087192 2659.318277 286.216617 2656.667886 293.772433 C2655.097818 298.249118 2651.328775 299.339145 2646.611490 299.396884 C2634.635415 299.543490 2622.861001 301.467990 2611.158853 304.151218 C2605.101724 305.540103 2598.646890 305.139712 2592.540445 306.379123 C2580.758950 308.770358 2568.663003 308.485812 2556.921304 311.972507 C2548.300454 314.532474 2538.828042 314.153323 2529.764322 315.311954 C2519.834146 316.581271 2509.926675 318.041019 2500.031167 319.560123 C2495.217935 320.299014 2490.467447 321.439639 2485.664224 322.255832 C2481.125650 323.027103 2476.542886 323.538638 2472.007974 324.328403 C2470.839273 324.531955 2469.142740 325.075748 2468.769449 325.933505 C2466.202798 331.830386 2459.911538 330.546390 2455.494790 332.532107 C2453.365884 333.489139 2449.449868 330.690005 2446.428872 329.391971 C2441.900796 327.446292 2437.594156 324.829501 2432.912515 323.452579 C2429.792642 322.534915 2425.927163 324.089480 2422.846841 323.112857 C2416.018228 320.947818 2412.810220 314.561587 2411.146157 308.545901 C2409.994302 304.381930 2413.456216 300.327701 2417.768716 297.509524 C2421.592202 295.011081 2424.478189 291.078128 2428.027749 287.528354 M2624.777993 291.778293 C2625.041421 292.944949 2625.304849 294.111606 2625.568032 295.278293 C2626.304605 294.222995 2627.581216 293.213901 2627.676187 292.103732 C2627.958902 288.796847 2627.977212 285.432040 2627.675699 282.128390 C2627.562173 280.880038 2626.462320 278.940158 2625.505777 278.733493 C2624.072671 278.423923 2622.249429 279.149448 2620.860757 279.919162 C2620.488931 280.125308 2620.922525 283.042392 2621.272866 283.104800 C2626.303628 284.000278 2626.046792 287.121585 2624.777993 291.778293 M2590.277749 290.278323 C2592.254800 293.574985 2594.206949 296.905887 2598.791665 296.790011 C2599.454019 296.773288 2600.115640 296.728213 2600.777749 296.696200 C2600.410318 296.022830 2600.167154 295.230014 2599.654214 294.696597 C2597.293130 292.241031 2594.945230 289.758060 2592.398111 287.504672 C2591.554361 286.757968 2590.130044 286.384708 2588.969644 286.381717 C2588.240396 286.379825 2587.508462 287.384067 2586.777749 287.936862 C2587.611001 288.717349 2588.444497 289.497836 2590.277749 290.278323 M2547.777749 283.778323 C2548.254800 284.611636 2548.652993 286.095065 2549.222818 286.164065 C2551.505532 286.440555 2553.861245 286.460635 2556.149087 286.205905 C2557.401040 286.066470 2558.570962 285.188144 2559.777749 284.643008 C2558.453286 283.854800 2557.157388 282.473147 2555.798013 282.407443 C2553.311197 282.287234 2550.786538 282.944980 2547.777749 283.778323 M2507.777749 283.778293 C2505.488687 282.944980 2503.210366 282.080020 2500.897134 281.319919 C2500.619790 281.228763 2499.923745 281.638980 2499.837320 281.937198 C2499.733072 282.297397 2500.170083 283.173129 2500.204507 283.164371 C2505.359781 281.853854 2506.149820 287.065066 2509.076089 289.048984 C2509.579995 289.390689 2510.574136 289.855868 2510.745523 289.680636 C2511.230874 289.184268 2511.847818 288.051364 2511.629312 287.763309 C2510.662271 286.487826 2509.420327 285.420810 2507.777749 283.778293 M2535.777749 286.778293 C2537.029947 288.363711 2538.302407 289.933780 2539.527505 291.539798 C2540.459878 292.762302 2541.332437 294.030490 2542.231363 295.278323 C2542.143716 293.175174 2542.199380 291.053836 2541.936685 288.972812 C2541.469400 285.276553 2538.512613 286.460147 2535.777749 286.778293 M2644.277749 280.278354 C2642.582437 280.973758 2640.886880 281.669162 2639.191568 282.364474 C2640.178140 283.960300 2641.131265 285.579196 2642.194497 287.122134 C2642.324624 287.310702 2643.398355 287.195560 2643.444009 287.044284 C2644.114175 284.806583 2644.683999 282.538882 2644.277749 280.278354 M2518.777749 282.778323 C2518.970865 278.000125 2515.353921 281.066440 2513.591714 280.348514 C2513.170327 280.176852 2512.392007 280.881717 2511.777749 281.183505 C2513.198159 282.215091 2514.530191 283.424655 2516.080240 284.195193 C2516.746011 284.525943 2517.864907 283.945010 2518.777749 282.778323 M2550.277749 305.278323 C2550.776040 305.278323 2551.310220 305.395450 2551.765786 305.256015 C2553.086831 304.851962 2554.390542 304.378390 2555.654214 303.825290 C2555.777749 303.771304 2555.578775 302.585513 2555.527505 302.585361 C2553.962564 302.580539 2552.365884 302.503696 2550.851236 302.815036 C2550.378824 302.912173 2550.129312 304.093356 2550.277749 305.278323 M2570.277749 282.278323 C2571.761636 282.278323 2573.253335 282.360873 2574.724038 282.222446 C2575.108804 282.186252 2575.428384 281.462924 2575.777749 281.055118 C2574.620034 280.796176 2573.369790 280.143344 2572.330240 280.387363 C2571.256021 280.639346 2568.230630 278.499911 2570.277749 282.278323 M2529.277749 299.278323 C2528.617349 299.278323 2527.909829 299.126803 2527.307779 299.314120 C2526.424722 299.588748 2525.617349 300.105868 2524.777749 300.519656 C2526.135415 301.105868 2527.493081 301.692111 2528.850747 302.278323 C2529.159829 301.444980 2529.468667 300.611667 2529.277749 299.278323 M2587.277749 299.278354 C2586.506509 299.383029 2585.735025 299.487674 2584.963784 299.592288 C2585.421548 300.154300 2585.868814 301.175967 2586.339517 301.186984 C2587.479654 301.213687 2588.631021 300.769595 2589.777749 300.515262 C2589.277749 300.102939 2588.777749 299.690646 2587.277749 299.278354 M2590.777749 276.778384 C2592.000650 277.222201 2593.223306 277.666049 2594.446206 278.109836 C2594.556802 277.671207 2594.782144 276.854159 2594.761392 276.847934 C2593.446206 276.449374 2592.111001 276.116824 2590.777749 276.778384 M2458.777749 304.778323 C2459.677896 305.211398 2460.578286 305.644504 2461.478433 306.077609 C2461.578286 305.470309 2461.677896 304.863040 2461.777749 304.255771 C2460.777749 304.096622 2459.777749 303.937472 2458.777749 304.778323 M2453.277749 324.278262 C2454.055337 323.722690 2454.833169 323.167148 2455.611001 322.611728 C2455.045816 322.288028 2454.057534 321.606967 2453.981851 321.696628 C2453.320962 322.478854 2452.823648 323.399112 2453.277749 324.278262 M2540.277749 305.278323 C2541.111001 305.058566 2541.944497 304.838840 2542.777749 304.619144 C2542.489907 304.172214 2542.202310 303.725284 2541.914712 303.278354 C2541.202310 303.778354 2540.490152 304.278354 2540.277749 305.278323 M2652.777749 286.778323 C2651.805337 286.750644 2650.833169 286.722964 2649.860513 286.695285 C2649.902505 287.125949 2649.944497 287.556613 2649.986734 287.987216 C2650.750406 287.750888 2651.514077 287.514590 2652.777749 286.778323 z"/><path class="selected"  fill="#000000" opacity="1.000000" stroke="none" 
 	d="
M2488.527749 152.028323 C2499.863443 146.910708 2509.629312 139.897281 2519.545816 133.087009 C2527.932534 127.327258 2536.728433 122.161014 2545.088540 116.365085 C2552.143960 111.473697 2559.309488 106.565280 2565.559488 100.734988 C2572.617105 94.151340 2582.401284 94.029910 2589.393472 98.718173 C2591.641763 100.225665 2592.508218 103.952228 2593.718667 106.786731 C2594.382241 108.340839 2594.660074 110.142383 2594.734781 111.848865 C2594.915689 115.980350 2593.967447 119.550845 2589.858072 121.748340 C2580.979165 126.496356 2572.056802 131.189609 2563.410562 136.339282 C2553.213296 142.412875 2543.219400 148.837955 2533.273111 155.319247 C2527.456949 159.109180 2521.945230 163.363849 2516.207193 167.278537 C2514.836831 168.213580 2512.675454 168.240542 2511.663980 169.381930 C2510.559243 170.628772 2510.367349 172.684405 2509.777749 174.387485 C2510.941568 174.354037 2512.104898 174.301791 2513.268960 174.291278 C2515.267740 174.273212 2517.417154 173.820682 2519.221353 174.411578 C2520.928628 174.970676 2522.397866 176.525699 2523.650064 177.929568 C2523.847574 178.151156 2522.412271 179.942966 2521.619302 180.917010 C2515.883950 187.962604 2507.537027 190.709003 2499.673257 194.301944 C2485.497232 200.778934 2470.665933 205.762240 2457.589273 214.714053 C2448.927163 220.644015 2439.008462 224.712985 2430.159341 230.403720 C2422.025064 235.634860 2414.900796 242.449557 2406.718179 247.589786 C2398.915445 252.491336 2391.593667 258.967532 2381.592691 259.217929 C2380.101236 259.255252 2378.161294 258.944217 2377.159585 258.010440 C2372.111001 253.303927 2366.135171 248.810886 2365.103433 241.641025 C2364.685220 238.734988 2367.263589 234.729312 2369.577554 232.249240 C2373.397866 228.154483 2377.899575 224.595096 2382.489175 221.338931 C2392.620279 214.151431 2402.968179 207.267734 2413.259439 200.307559 C2426.510904 191.345264 2439.670572 182.239184 2453.109048 173.565173 C2461.058755 168.433765 2469.507974 164.081470 2477.655191 159.248630 C2481.293863 157.090320 2484.742837 154.611651 2488.527749 152.028323 M2577.777749 117.778339 C2580.038736 117.850619 2582.299966 117.927615 2584.561197 117.939288 C2584.588540 117.939441 2584.620034 117.098453 2584.649575 116.650104 C2582.758462 116.626636 2580.866616 116.562411 2578.977212 116.612002 C2578.571939 116.622653 2578.177163 117.045367 2577.777993 116.778247 C2577.444497 116.089969 2577.045327 115.425281 2576.788980 114.709384 C2575.706704 111.685504 2574.855386 108.554797 2573.461343 105.685901 C2573.163247 105.072772 2570.951089 105.389773 2569.620767 105.278323 C2569.672525 106.444491 2569.517495 107.668552 2569.823648 108.763599 C2570.314370 110.519794 2571.550210 112.154834 2571.692788 113.904498 C2572.069986 118.536975 2573.162271 119.259326 2577.777749 117.778339 M2557.277749 122.278339 C2558.444497 121.123584 2559.611001 119.968829 2560.777749 118.814059 C2559.163491 118.302142 2556.898843 116.859912 2556.054849 117.449939 C2553.346597 119.343158 2549.650064 121.729159 2549.191324 124.413180 C2548.704507 127.262683 2551.448404 130.685443 2552.892495 133.806674 C2553.015786 134.073459 2554.087564 134.190372 2554.521157 133.976398 C2556.879068 132.813159 2559.192300 131.554828 2561.487954 130.270770 C2564.467935 128.603656 2567.459634 120.908496 2566.147378 118.191455 C2565.796792 117.465732 2565.091714 116.911288 2564.549234 116.278293 C2564.291909 117.118777 2563.773111 117.975253 2563.823404 118.796954 C2564.034097 122.247089 2560.591226 126.263614 2557.036294 126.197543 C2555.941079 126.177188 2554.863443 125.197406 2553.777749 124.656924 C2554.611001 123.864078 2555.444497 123.071216 2557.277749 122.278339 M2508.277993 147.278415 C2507.551675 148.218890 2506.825601 149.159366 2506.099282 150.099765 C2507.432779 150.492633 2508.770181 151.191333 2510.098550 151.174853 C2511.043130 151.163104 2511.922281 150.041385 2512.925699 149.676089 C2514.520425 149.095676 2516.255044 148.199954 2517.823404 148.378329 C2522.517984 148.912143 2523.858316 147.619021 2523.113687 142.999347 C2522.985025 142.199649 2524.138589 141.180194 2524.729654 140.281787 C2525.195962 139.572513 2525.708413 138.893375 2526.200357 138.200900 C2525.279702 138.173068 2524.131021 137.773791 2523.475259 138.176807 C2518.687173 141.120227 2513.997964 144.224643 2508.277993 147.278415 M2485.777749 160.778308 C2483.233072 162.611636 2480.675210 164.426852 2478.152505 166.289813 C2477.422281 166.829089 2476.793618 167.505359 2476.118325 168.118838 C2477.114663 168.505328 2478.275064 169.418872 2479.073159 169.169864 C2480.797036 168.632190 2482.626382 167.793964 2483.889077 166.547977 C2486.758218 163.716617 2489.515298 162.937808 2492.797281 165.742847 C2493.175943 166.066424 2493.908853 166.071139 2494.461099 166.024875 C2494.590493 166.014026 2494.837320 164.860721 2494.717691 164.794131 C2491.930581 163.241977 2489.100015 161.767352 2485.777749 160.778308 M2546.777749 125.778339 C2546.306558 125.307025 2545.468179 124.386294 2545.416421 124.428622 C2542.162759 127.084903 2539.160318 130.089450 2535.725747 132.472644 C2532.194009 134.923511 2536.768472 136.754626 2535.835366 138.914004 C2535.714273 139.194614 2536.380044 139.815250 2536.681070 140.278400 C2537.046792 139.713183 2537.491372 139.183444 2537.763833 138.576373 C2538.850259 136.156772 2539.564859 133.496554 2541.030191 131.342258 C2542.368081 129.374652 2544.497232 127.945056 2546.777749 125.778339 M2483.777749 185.778293 C2485.111001 186.070102 2486.444497 186.361926 2487.777749 186.653766 C2487.001382 182.496387 2490.963540 181.341815 2492.738931 178.799838 C2493.029947 178.383365 2493.186685 177.873111 2493.405435 177.406116 C2492.840738 177.552219 2492.136880 177.532580 2491.734048 177.871249 C2489.046060 180.130862 2486.422281 182.467059 2483.777749 185.778293 M2505.777993 157.778262 C2506.111245 158.464191 2506.385171 159.187961 2506.792398 159.826785 C2507.335122 160.678592 2507.981851 161.464221 2508.583657 162.278369 C2508.981851 161.425128 2509.642495 160.597888 2509.730142 159.713901 C2510.031656 156.668002 2510.483560 153.328128 2505.431070 155.224078 C2504.686441 155.503436 2503.668863 155.055698 2502.777749 154.944369 C2503.611001 155.722354 2504.444497 156.500339 2505.777993 157.778262 M2504.277749 177.278293 C2504.571206 176.238406 2504.864663 175.198505 2505.158120 174.158649 C2504.020669 174.042636 2502.854654 173.727496 2501.755777 173.883395 C2501.070230 173.980701 2500.554605 175.001910 2499.840738 175.235416 C2498.192544 175.774585 2496.470132 176.086520 2494.777749 176.490634 C2496.778238 176.753207 2498.775308 177.046329 2500.780923 177.263583 C2501.603921 177.352740 2502.444986 177.278323 2504.277749 177.278293 M2417.277749 206.278354 C2418.137124 207.278354 2418.996743 208.278354 2419.856118 209.278293 C2420.163247 208.182132 2420.545816 207.100314 2420.757241 205.985965 C2420.988687 204.765750 2421.061929 203.515506 2421.203775 202.278262 C2420.190103 202.983279 2419.153726 203.658450 2418.172281 204.405856 C2417.657632 204.797916 2417.239419 205.316684 2417.277749 206.278354 M2381.277749 235.278293 C2381.936685 236.611636 2382.595376 237.944980 2383.254312 239.278323 C2383.762124 238.676425 2384.799478 237.923129 2384.678628 237.500949 C2384.311685 236.217807 2383.554849 235.021976 2382.774820 233.915408 C2382.689370 233.794009 2381.470865 234.471408 2381.277749 235.278293 M2483.777749 193.778323 C2482.338052 193.611667 2480.899575 193.382724 2479.456704 193.349887 C2479.255777 193.345340 2479.032632 194.306277 2478.819741 194.820315 C2480.054605 194.972995 2481.286538 195.178165 2482.526040 195.248508 C2482.933023 195.271640 2483.360025 194.945010 2483.777749 193.778323 M2433.277749 196.278384 C2434.444497 195.529483 2435.611001 194.780582 2436.777749 194.031650 C2436.119790 193.780551 2435.130288 193.128818 2434.863443 193.349917 C2433.872720 194.170474 2433.119790 195.278293 2433.277749 196.278384 M2530.777749 142.778308 C2531.896402 143.611636 2533.015054 144.444980 2534.133706 145.278323 C2534.348306 144.897708 2534.563150 144.517078 2534.777749 144.136478 C2533.611001 143.517108 2532.444497 142.897723 2530.777749 142.778308 M2463.777749 205.778323 C2462.745523 205.143954 2461.713052 204.509585 2460.680825 203.875186 C2460.531167 204.661014 2460.381753 205.446841 2460.232095 206.232638 C2461.247232 206.247867 2462.262613 206.263095 2463.777749 205.778323 M2402.777749 240.778293 C2403.305581 239.972934 2404.323892 239.103030 2404.228433 238.379825 C2404.126626 237.607730 2402.973794 236.974185 2402.279702 236.280154 C2402.278970 237.612887 2402.278482 238.945590 2402.777749 240.778293 M2400.777749 214.778323 C2400.917886 215.584964 2401.057779 216.391635 2401.197671 217.198306 C2401.986734 216.795932 2402.775796 216.393558 2403.564859 215.991214 C2402.802407 215.420261 2402.040200 214.849307 2400.777749 214.778323 M2498.277749 185.278339 C2499.073404 185.482761 2499.868814 185.687182 2500.664468 185.891574 C2500.280679 184.765719 2499.897134 183.639865 2499.513345 182.513980 C2498.934732 183.268756 2498.356118 184.023517 2498.277749 185.278339 M2426.277749 206.278293 C2425.938150 205.278293 2425.598550 204.278293 2425.258706 203.278323 C2424.765054 203.523532 2424.271402 203.768771 2423.777749 204.013980 C2424.277749 204.768771 2424.777749 205.523532 2426.277749 206.278293 M2468.777505 197.778354 C2468.931314 198.598697 2469.084878 199.419070 2469.238687 200.239383 C2469.751626 200.010165 2470.264810 199.780917 2470.777749 199.551639 C2470.277749 198.793857 2469.777749 198.036075 2468.777505 197.778354 M2488.277505 193.278262 C2488.595376 192.595981 2488.913003 191.913699 2489.230874 191.231494 C2488.430093 191.063510 2487.629312 190.895526 2486.828775 190.727466 C2487.145181 191.411059 2487.461587 192.094668 2488.277505 193.278262 M2561.777749 113.778323 C2562.407876 113.075152 2563.038247 112.371997 2563.668374 111.668841 C2563.059243 111.538669 2562.450357 111.408496 2561.841226 111.278308 C2561.653238 112.278308 2561.465493 113.278308 2561.777749 113.778323 z"/><path class="selected"  fill="#000000" opacity="1.000000" stroke="none" 
 	d="
M340.777749 255.278323 C340.466256 260.995090 342.213784 266.581515 336.935495 270.710269 C329.402688 276.602420 314.535348 280.405948 304.476175 273.945926 C298.708261 270.241733 291.151376 269.213473 284.304361 267.327304 C275.906656 265.014011 267.376626 263.184207 258.963723 260.922366 C249.990701 258.510013 241.097482 255.802127 232.148294 253.298831 C229.296472 252.501102 226.072442 252.492343 223.583688 251.107364 C221.546212 249.973514 219.507486 247.542331 218.949060 245.315250 C217.706781 240.360843 215.549142 236.979129 210.193689 236.123569 C208.727197 235.889346 207.373925 234.924960 205.977563 234.276553 C194.790704 229.081973 193.246148 220.642581 201.224405 211.053866 C202.638574 209.354220 202.519876 205.968936 202.321420 203.423434 C201.911615 198.166873 200.503442 193.174563 204.618753 188.299304 C207.163125 185.285083 217.249749 182.123675 220.999078 183.885882 C239.394204 192.531772 258.102792 200.532291 276.299875 209.567935 C284.108987 213.445499 290.980874 219.230289 298.215860 224.239200 C306.124521 229.714480 313.784799 235.571750 321.898935 240.717624 C326.274881 243.492801 331.581613 244.775607 336.063119 247.418887 C338.508859 248.861453 341.586282 250.825534 340.777749 255.278323 z"/><path class="selected"  fill="#000000" opacity="1.000000" stroke="none" 
 	d="
M2518.777749 362.278323 C2518.934732 364.601962 2518.908853 366.463901 2519.281656 368.242313 C2520.631265 374.683505 2524.638345 376.879611 2532.793130 378.422214 C2545.806802 380.883975 2558.802896 383.745151 2571.480142 387.530765 C2576.834146 389.129581 2582.090738 392.617160 2584.048501 398.997165 C2586.174234 405.923648 2579.731363 413.531863 2572.660562 412.290652 C2561.007974 410.245181 2549.221841 408.799899 2537.706704 406.163730 C2517.238443 401.477908 2495.895181 401.968539 2475.764077 395.371005 C2473.658853 394.681094 2471.119546 395.122714 2468.802407 395.304263 C2456.267251 396.286594 2447.365884 390.373782 2440.536782 380.520022 C2437.766763 376.522861 2434.891519 372.568057 2432.536294 368.331637 C2431.812417 367.029544 2431.950601 364.046023 2432.899331 363.224521 C2436.974038 359.696109 2440.561441 355.263797 2446.850015 355.212619 C2455.373208 355.143344 2463.896402 354.289218 2472.412515 354.385440 C2478.657388 354.456027 2484.882974 355.630984 2491.134927 356.055240 C2492.904947 356.175387 2494.917154 355.748935 2496.509683 354.954532 C2504.353677 351.041293 2510.550699 354.046329 2516.299478 359.310275 C2517.158609 360.096896 2517.953286 360.953860 2518.777749 362.278323 M2549.777749 399.778293 C2546.680093 397.347415 2543.595620 394.899356 2540.443277 392.541446 C2540.301431 392.435306 2539.100259 393.326175 2539.149087 393.447146 C2539.945230 395.420047 2540.368814 398.192081 2541.875406 399.069949 C2543.892740 400.245303 2546.769937 399.945010 2549.777749 399.778293 M2480.777749 363.778384 C2478.961343 362.945041 2477.165689 362.051944 2475.286294 361.401156 C2475.148355 361.353335 2473.823648 363.265292 2474.054605 363.902011 C2474.669351 365.596652 2475.739175 367.160617 2476.818277 368.637393 C2477.336343 369.346469 2478.284585 369.741214 2479.038003 370.278323 C2479.284585 369.429599 2479.590982 368.592807 2479.763101 367.729220 C2479.989663 366.589938 2480.111001 365.429599 2480.777749 363.778384 M2516.277993 393.278323 C2516.359048 390.026156 2516.454263 386.773898 2516.442300 383.522098 C2516.442056 383.438632 2515.198648 383.159427 2514.663247 383.343906 C2514.261148 383.482425 2513.746743 384.286166 2513.829263 384.679172 C2514.398599 387.395724 2515.111001 390.082187 2516.277993 393.278323 M2471.777749 381.778293 C2471.438882 380.772586 2471.310220 379.608737 2470.704995 378.803104 C2470.020425 377.892367 2468.908120 377.303226 2467.981607 376.574100 C2467.580240 377.226535 2466.755532 377.961063 2466.862954 378.514957 C2467.115152 379.815372 2467.581216 381.233554 2468.427163 382.192996 C2468.856851 382.680362 2470.295327 382.278323 2471.777749 381.778293 M2566.277749 403.278323 C2564.913736 406.793063 2567.900552 404.815372 2568.875406 405.198520 C2569.337320 405.380069 2570.133218 404.711856 2570.777749 404.428653 C2569.444497 403.878543 2568.111001 403.328464 2566.277749 403.278323 M2443.777749 370.778323 C2443.679116 371.944980 2443.580728 373.111636 2443.482339 374.278323 C2444.224038 374.135074 2444.965738 373.991824 2445.707437 373.848544 C2445.230874 372.658481 2444.754312 371.468387 2443.777749 370.778323 M2533.277749 400.278262 C2534.444497 399.658877 2535.611001 399.039493 2536.777749 398.420169 C2536.563150 398.039554 2536.348550 397.658938 2536.133706 397.278262 C2535.015054 398.111606 2533.896402 398.944919 2533.277749 400.278262 M2491.277749 384.278323 C2491.617349 385.278323 2491.957193 386.278323 2492.296792 387.278354 C2492.790445 387.033115 2493.284097 386.787875 2493.777749 386.542667 C2493.277749 385.787906 2492.777749 385.033145 2491.277749 384.278323 M2549.277749 393.278323 C2550.003335 394.219302 2550.729165 395.160281 2551.454751 396.101321 C2551.807779 395.748324 2552.160806 395.395328 2552.513833 395.042239 C2551.768472 394.454257 2551.023111 393.866275 2549.277749 393.278323 M2493.277749 376.278262 C2492.777749 376.990573 2492.277749 377.702914 2491.777749 378.415256 C2492.224771 378.702945 2492.671548 378.990634 2493.118570 379.278323 C2493.338296 378.444980 2493.558023 377.611667 2493.277749 376.278262 z"/><path class="selected"  fill="#000000" opacity="1.000000" stroke="none" 
 	d="
M2350.527749 141.028354 C2351.852456 134.151660 2356.622476 130.441699 2361.647866 126.885867 C2366.552163 123.416034 2371.605142 120.105701 2376.182290 116.239398 C2380.960366 112.203677 2388.321939 112.557239 2393.349282 116.068851 C2399.421792 120.310275 2402.033120 125.384524 2400.717202 132.482745 C2400.360513 134.407168 2399.440835 136.293140 2398.466958 138.020526 C2397.237466 140.201160 2395.459146 142.083194 2394.314126 144.298892 C2387.303384 157.862811 2380.393716 171.478870 2373.486001 185.095782 C2372.793618 186.461139 2372.429605 187.991183 2371.760659 189.370807 C2369.962075 193.080783 2367.560952 195.588626 2363.025796 196.529147 C2360.245767 197.105685 2357.268960 199.680392 2355.629068 202.177768 C2352.477700 206.976565 2348.137368 207.293399 2343.240152 207.334445 C2339.179605 207.368503 2336.846597 205.371738 2334.970132 202.048312 C2333.202554 198.917911 2331.054605 195.998263 2329.013833 193.027103 C2325.537515 187.965823 2326.204995 184.292300 2329.709146 179.650668 C2334.178140 173.731082 2339.142740 167.920795 2339.899331 159.906375 C2340.071939 158.079089 2341.787515 156.401996 2342.775796 154.646167 C2345.281656 150.193164 2347.777749 145.734653 2350.527749 141.028354 M2372.777749 174.778354 C2373.363687 172.859149 2374.288736 170.964038 2374.427407 169.012942 C2374.537271 167.470370 2373.681070 165.859073 2373.253824 164.278308 C2372.428384 165.408816 2371.432779 166.455051 2370.821450 167.691470 C2370.077066 169.197620 2369.361490 170.833484 2369.193277 172.470798 C2369.069497 173.673083 2369.845865 174.967929 2370.220865 176.221606 C2370.906411 175.907199 2371.592202 175.592792 2372.777749 174.778354 M2344.277749 201.278384 C2345.444497 199.840854 2346.697427 198.461459 2347.728433 196.932468 C2348.063150 196.435733 2348.109048 195.280551 2347.765054 194.906863 C2347.334146 194.438724 2346.365640 194.465304 2345.629312 194.278323 C2345.113443 196.473819 2340.707437 197.561252 2344.277749 201.278384 M2379.277749 130.278339 C2379.444497 129.364947 2379.793374 128.437167 2379.722818 127.542453 C2379.661538 126.768176 2379.124429 126.031528 2378.797525 125.278354 C2378.124185 126.044177 2377.101968 126.714633 2376.860513 127.598437 C2376.509439 128.882968 2376.721841 130.321460 2376.693765 131.694263 C2377.388345 131.388934 2378.083169 131.083606 2379.277749 130.278339 M2386.777505 129.778400 C2387.365640 130.856967 2387.953775 131.935535 2388.542154 133.014041 C2388.895913 131.543918 2389.249673 130.073794 2389.603189 128.603656 C2388.661294 128.661868 2387.719644 128.720096 2386.777505 129.778400 M2361.777749 180.778323 C2360.642984 179.611651 2359.507974 178.444995 2358.373208 177.278323 C2358.174722 177.836902 2357.670327 178.764972 2357.827066 178.894610 C2358.899820 179.782794 2360.111001 180.503543 2361.777749 180.778323 M2364.277749 157.278339 C2364.853677 157.369174 2365.429361 157.460010 2366.005288 157.550815 C2365.489175 156.186359 2365.014322 154.802920 2364.406900 153.480456 C2364.326089 153.304446 2363.570718 153.438190 2363.127603 153.428561 C2363.344400 154.545138 2363.560952 155.661731 2364.277749 157.278339 M2380.777749 119.778323 C2381.777749 119.774737 2382.777993 119.775699 2383.775796 119.726886 C2383.791665 119.726123 2383.791665 118.830524 2383.775796 118.829761 C2382.777993 118.780948 2381.777749 118.781909 2380.777749 119.778323 z"/><path class="selected"  fill="#000000" opacity="1.000000" stroke="none" 
 	d="
M346.777749 317.278323 C349.826394 323.539188 348.751626 329.769717 347.403054 335.430820 C346.819040 337.882449 342.332010 340.566470 339.286721 341.047275 C330.841989 342.380466 322.231668 342.758975 313.671457 343.244876 C299.742654 344.035525 285.801706 345.040103 271.865915 345.039554 C267.161599 345.039371 262.147592 342.851565 257.840249 340.588077 C253.524362 338.320071 253.499093 330.742862 257.529275 326.177341 C259.599405 323.832248 262.363412 322.001254 265.052072 320.318606 C273.926858 314.764377 283.833017 313.231601 294.101144 313.273074 C300.928750 313.300662 307.759408 313.397586 314.583261 313.235263 C318.946969 313.131503 323.318368 312.198337 327.654550 312.383090 C333.058999 312.613315 338.449502 313.497226 343.801126 314.373080 C344.895242 314.552127 345.790689 315.945010 346.777749 317.278323 z"/><path class="selected"  fill="#000000" opacity="1.000000" stroke="none" 
 	d="
M21.777749 173.278323 C20.514192 174.514758 19.250640 175.251208 17.987088 175.987659 C17.917308 174.643848 17.840793 173.300326 17.781274 171.956058 C17.759414 171.462359 17.657571 170.929645 17.797441 170.478335 C18.647672 167.734805 19.557124 165.009631 20.446813 162.278323 C20.877717 162.432254 21.680421 162.576633 21.684659 162.741504 C21.770597 166.085696 21.765004 169.432254 21.777749 173.278323 z"/><path class="selected"  fill="#000000" opacity="1.000000" stroke="none" 
 	d="
M16.027753 225.528323 C14.725898 226.393130 13.387904 227.758243 12.674304 227.486087 C10.257943 226.564578 8.052459 225.080325 5.812278 223.734775 C5.696311 223.665103 5.889320 222.584872 6.136804 222.489444 C7.422158 221.993777 9.828391 221.137912 9.938524 221.358554 C11.283656 224.053775 17.065776 219.546603 16.027753 225.528323 z"/><path class="selected"  fill="#000000" opacity="1.000000" stroke="none" 
 	d="
M1982.777749 306.278323 C1981.618203 305.604556 1980.285440 304.565311 1980.417764 304.321414 C1980.944864 303.350558 1981.809365 302.165774 1982.770425 301.917422 C1984.341226 301.511508 1986.088174 301.715915 1987.753335 301.804507 C1988.102945 301.823123 1988.420083 302.454837 1988.752115 302.804019 C1987.447671 303.628818 1986.142740 304.452823 1984.839151 305.278934 C1984.317178 305.609622 1983.798135 305.945010 1982.777749 306.278323 z"/><path class="selected"  fill="#000000" opacity="1.000000" stroke="none" 
 	d="
M1536.777749 449.278323 C1536.111123 447.909152 1535.316934 447.103763 1534.836343 446.141727 C1534.623819 445.716373 1535.046670 444.973544 1535.181192 444.374820 C1536.667154 445.463077 1538.280313 446.422031 1539.578531 447.700870 C1540.126016 448.240329 1540.009073 449.454410 1540.194253 450.361819 C1539.055459 450.167361 1537.916543 449.972842 1536.777749 449.278323 z"/><path class="selected"  fill="#000000" opacity="1.000000" stroke="none" 
 	d="
M1542.027749 457.028323 C1542.510049 457.510562 1542.762490 457.726016 1542.971109 457.977847 C1544.120157 459.365542 1545.258584 460.762027 1546.400552 462.155521 C1545.760537 462.196475 1544.816079 462.529605 1544.529702 462.231204 C1542.561929 460.180850 1540.731973 457.998294 1538.857583 455.858218 C1539.830972 456.164920 1540.804361 456.471622 1542.027749 457.028323 z"/><path class="selected"  fill="#000000" opacity="1.000000" stroke="none" 
 	d="
M4.027751 216.528323 C2.522326 217.522891 1.266898 218.267490 0.011472 219.012057 C0.078930 218.122104 -0.173344 216.709506 0.271904 216.437137 C1.800588 215.501987 3.573596 214.966281 5.253480 214.278323 C4.928239 214.944980 4.602994 215.611667 4.027751 216.528323 z"/><path class="selected"  fill="#000000" opacity="1.000000" stroke="none" 
 	d="
M1522.777749 394.278323 C1522.358682 395.278323 1521.939615 395.778323 1521.520547 396.278323 C1521.272866 394.949771 1520.939737 393.627444 1520.842447 392.287936 C1520.820230 391.981662 1521.611001 391.616366 1522.027749 391.278293 C1522.277749 392.111667 1522.527749 392.944980 1522.777749 394.278323 z"/><path class="selected"  fill="#000000" opacity="1.000000" stroke="none" 
 	d="
M2235.527749 369.028354 C2233.428872 369.611636 2231.575601 370.184115 2229.733072 370.151584 C2229.068032 370.139834 2227.936929 368.690585 2227.913491 367.871524 C2227.888833 367.023410 2228.787759 365.609714 2229.565347 365.373172 C2232.529458 364.471469 2235.586343 363.642886 2238.653970 363.423617 C2239.921548 363.333011 2241.304361 364.849643 2242.634683 365.635257 C2241.632241 366.182864 2240.657876 366.792453 2239.620279 367.262332 C2238.367349 367.829684 2237.060952 368.278384 2235.527749 369.028354 z"/><path class="selected"  fill="#000000" opacity="1.000000" stroke="none" 
 	d="
M2230.527749 387.028323 C2228.041421 386.278354 2225.781167 385.326785 2223.582925 384.249209 C2222.911050 383.919803 2222.408853 383.244113 2221.829263 382.726901 C2222.623208 382.243991 2223.364175 381.492374 2224.219888 381.323367 C2228.616861 380.455325 2231.818521 383.180728 2230.527749 387.028323 z"/><path class="selected"  fill="#000000" opacity="1.000000" stroke="none" 
 	d="
M2239.777749 372.278323 C2241.303872 372.971194 2242.442300 373.552981 2243.296792 374.415835 C2243.604409 374.726474 2243.402261 375.813754 2243.091226 376.347629 C2242.939126 376.608615 2241.893960 376.623508 2241.444497 376.386539 C2239.882974 375.563693 2238.405191 374.581912 2236.895669 373.660464 C2237.689615 373.199802 2238.483804 372.739078 2239.777749 372.278323 z"/></svg>