<?xml version="1.0" encoding="utf-8"?><!DOCTYPE svg PUBLIC "-//W3C//DTD SVG 1.1//EN" "http://www.w3.org/Graphics/SVG/1.1/DTD/svg11.dtd"><svg version="1.1" id="Contours" xmlns="http://www.w3.org/2000/svg" xmlns:xlink="http://www.w3.org/1999/xlink" x="0px" y="0px" width="2541.210449px" height="2541.210449px" viewBox="-0.000003 0.000000 2541.210449 613.307312" enable-background="new 0 0 2541.210449 2541.210449" xml:space="preserve" stroke="black" fill="none" stroke-linecap='round' stroke-linejoin='round'><path class="selected"  fill="#000000" opacity="1.000000" stroke="none" 
 	d="
M321.082889 175.843942 C322.999576 171.119195 323.937717 166.168146 326.486301 162.269968 C331.607212 154.437128 337.079624 146.700479 343.354679 139.783929 C355.960727 125.889169 372.454837 118.705560 390.570651 115.248651 C394.395145 114.518869 398.590518 115.915536 402.624546 116.054147 C407.507755 116.221918 412.401126 116.093942 417.290103 116.093942 C419.513187 116.093942 421.829288 115.692483 423.939273 116.180933 C427.841556 117.084268 431.726993 118.254922 435.433231 119.769800 C442.802982 122.782083 445.475284 129.214197 443.201236 137.720789 C441.275333 144.924997 434.678409 150.277933 427.093204 150.235528 C421.200199 150.202585 415.789981 149.238718 410.465824 146.790399 C403.444766 143.561807 396.643802 143.289835 389.249820 146.921716 C380.235141 151.349649 369.979953 153.461313 363.636844 162.288049 C361.052127 165.884805 358.104434 169.274408 355.937992 173.106576 C351.834629 180.364893 347.924625 187.757318 344.398563 195.310770 C340.287204 204.117960 339.958225 213.233408 342.163822 222.824670 C343.946292 230.576135 344.366947 238.654504 348.368534 245.772806 C349.599582 247.962686 350.822086 250.594919 352.795627 251.847726 C358.670078 255.576883 364.679050 259.316782 371.104984 261.871408 C374.984897 263.413858 379.780887 263.305551 384.087955 262.963907 C390.269321 262.473611 396.388584 261.141428 402.512607 260.046823 C403.525180 259.865823 404.902866 259.302072 405.301456 258.508279 C407.721042 253.689340 413.261600 250.504892 412.487125 243.914804 C412.243350 241.840082 414.017948 239.591089 414.475528 237.341852 C414.674686 236.363214 414.035037 234.314935 413.516605 234.223367 C404.937046 232.708154 396.345157 231.160135 387.690677 230.222040 C384.100803 229.832925 380.272312 230.492288 376.701755 231.319742 C369.378452 233.016885 365.270633 230.382669 364.313236 222.912500 C364.176212 221.843500 364.029239 220.636240 363.453556 219.786554 C360.591648 215.562463 362.398136 212.481363 365.912143 210.083612 C370.579074 206.899271 375.152774 203.901239 381.414371 203.890359 C386.666873 203.881235 391.886203 201.525384 397.175022 201.245920 C403.048801 200.935541 409.200565 200.946390 414.838993 202.370538 C421.911869 204.157007 428.226749 204.030588 434.559452 200.405160 C441.896183 196.204965 446.860050 201.634256 451.892826 205.326654 C456.304813 208.563547 457.022708 213.574487 456.117557 218.821756 C455.471561 222.566186 454.779544 226.311700 454.364139 230.084924 C453.588687 237.127939 452.832096 244.181558 452.415225 251.251291 C452.248233 254.082803 453.217411 256.963144 453.287723 259.830637 C453.436099 265.882303 453.462467 271.943613 453.298343 277.994455 C453.116641 284.691782 452.854434 291.400308 452.199466 298.061899 C452.037296 299.711832 450.573856 301.892496 449.103885 302.639963 C443.070804 305.707712 436.982974 308.869516 430.573856 310.939401 C424.079105 313.036874 415.572757 304.958658 417.443973 296.021829 C418.640445 290.307352 420.922245 284.821298 422.676090 279.219888 C422.806095 278.804697 422.750308 277.983957 422.523563 277.871713 C421.921756 277.573801 420.878726 277.208353 420.543094 277.494241 C418.899295 278.894174 417.117557 280.292490 415.950077 282.064065 C410.120975 290.909494 400.893222 292.918741 391.480014 294.011697 C375.475894 295.870004 360.917942 290.762399 346.596927 284.201974 C338.046268 280.284952 332.428806 273.540964 327.476871 266.238596 C323.964054 261.058420 320.184238 255.193826 319.349430 249.238626 C317.458560 235.749780 310.866275 223.128030 312.282352 209.063425 C313.263004 199.323587 314.662540 189.769800 319.293582 180.956674 C320.072055 179.475198 320.332889 177.721735 321.082889 175.843942 z"/><path class="selected"  fill="#000000" opacity="1.000000" stroke="none" 
 	d="
M2425.332889 441.093942 C2424.973758 421.270547 2434.428592 406.457254 2448.537235 394.930612 C2454.980350 389.666757 2463.926883 387.311258 2471.960330 384.212961 C2476.285770 382.544656 2481.042362 381.534738 2485.672489 381.214883 C2494.283817 380.620096 2500.897098 385.463510 2507.243778 390.519662 C2512.515995 394.719797 2518.396610 398.401132 2522.807743 403.376382 C2528.764041 410.094308 2533.580692 417.824380 2538.846317 425.148874 C2539.184452 425.619028 2539.289920 426.331644 2539.316287 426.939706 C2540.003543 442.654550 2541.054569 458.366647 2541.208621 474.087442 C2541.329715 486.440439 2535.359745 497.104593 2530.099491 507.918039 C2523.651004 521.174387 2514.664188 532.289621 2504.462284 542.890329 C2496.981571 550.663522 2488.646366 555.799509 2478.678104 559.187875 C2473.163211 561.062448 2468.184940 565.031442 2462.595829 566.070566 C2447.478885 568.880991 2441.017948 567.671213 2432.099491 555.159982 C2431.259403 553.981515 2431.567996 551.445138 2432.182010 549.865060 C2434.571659 543.715158 2439.028446 540.143869 2445.880985 540.094247 C2446.214237 540.091806 2446.592655 540.199655 2446.873905 540.078683 C2460.471073 534.230722 2476.488162 532.173593 2485.224491 518.389169 C2489.619266 511.455392 2492.109012 503.289316 2495.105106 495.543130 C2495.331668 494.957468 2492.803104 492.434976 2491.389041 492.274637 C2488.766727 491.977304 2485.933475 493.359262 2483.345340 492.977060 C2476.682743 491.993112 2470.093387 490.488992 2463.498905 489.078928 C2454.446414 487.143259 2445.795536 484.395120 2439.576541 476.851419 C2432.332157 468.063882 2424.914188 459.358285 2424.390506 447.178140 C2424.311161 445.333658 2424.999637 443.456186 2425.332889 441.093942 M2464.332889 440.594003 C2465.448856 441.427347 2466.564823 442.260690 2467.681034 443.093912 C2468.231571 440.535623 2469.088993 437.988931 2469.186405 435.413461 C2469.227176 434.338449 2467.860233 432.768991 2466.744266 432.230173 C2465.840457 431.794015 2464.223514 432.339304 2463.203739 432.932321 C2462.882694 433.118906 2463.461551 434.871133 2463.645633 435.903665 C2463.864871 437.135507 2464.102909 438.363992 2464.332889 440.594003 M2444.332889 467.593912 C2443.999637 466.750345 2443.556522 465.930887 2443.364383 465.056314 C2443.183475 464.233255 2443.267704 463.351938 2443.235477 462.496377 C2442.897098 463.233224 2442.632450 464.017648 2442.196903 464.691782 C2441.849491 465.229196 2440.839237 465.731119 2440.914432 466.077127 C2441.171756 467.262735 2441.777713 468.372720 2442.250614 469.511575 C2442.944705 469.205698 2443.638797 468.899820 2444.332889 467.593912 M2530.832889 471.093942 C2533.727176 469.266672 2531.493045 467.561624 2530.588504 465.953775 C2530.340213 465.512186 2529.282596 465.525796 2528.596317 465.330545 C2528.841922 466.821176 2529.066776 468.315683 2529.345829 469.800058 C2529.429813 470.246042 2529.666141 470.663461 2530.832889 471.093942 M2492.333133 398.593942 C2492.224002 397.151498 2492.350467 395.628854 2491.899051 394.302835 C2491.693729 393.699411 2490.369754 393.407907 2489.502323 393.137643 C2489.217655 393.048990 2488.773075 393.473184 2488.401737 393.662729 C2489.545536 395.473123 2490.689334 397.283517 2492.333133 398.593942 M2528.332889 451.593942 C2529.227420 452.366006 2530.122196 453.138071 2531.016727 453.910196 C2530.672489 452.355142 2530.328250 450.800119 2529.984012 449.245065 C2529.433719 449.694681 2528.883182 450.144327 2528.332889 451.593942 M2517.832889 514.093820 C2518.601200 513.529001 2519.369754 512.964120 2520.138309 512.399362 C2518.604129 512.396555 2517.031375 512.202158 2515.557498 512.499216 C2515.067996 512.597909 2514.832889 513.958688 2514.481327 514.742441 C2515.265262 514.526254 2516.048954 514.310068 2517.832889 514.093820 M2527.832889 463.093942 C2527.829471 462.093942 2527.830448 461.093729 2527.781375 460.095926 C2527.780887 460.079996 2526.885135 460.080057 2526.884159 460.095926 C2526.835575 461.093729 2526.836551 462.093942 2527.832889 463.093942 z"/><path class="selected"  fill="#000000" opacity="1.000000" stroke="none" 
 	d="
M2353.332889 387.093912 C2363.760135 391.687814 2374.008182 395.707620 2383.529422 401.028055 C2394.247440 407.017435 2399.612674 417.424509 2402.218143 429.052408 C2403.541873 434.960641 2403.605106 441.145212 2404.352909 447.190622 C2404.918338 451.759042 2405.768436 456.292764 2406.309452 460.863534 C2407.200077 468.383951 2404.299686 475.206735 2401.833377 481.994516 C2398.259647 491.829965 2394.512332 501.629831 2390.231082 511.172128 C2386.820194 518.774301 2382.490116 525.963327 2378.587772 533.346139 C2377.144412 536.077158 2376.438114 539.698556 2374.232547 541.445200 C2359.489627 553.119943 2344.748661 564.923654 2326.647098 571.247507 C2320.932987 573.243600 2315.825565 577.103464 2309.145877 576.184885 C2304.202518 575.504953 2298.783329 571.093881 2297.420291 567.001352 C2295.714725 561.880807 2298.384891 557.402353 2303.615604 554.148386 C2305.554080 552.942392 2306.553836 550.313242 2308.381961 548.825326 C2311.783329 546.057626 2315.228641 542.026010 2319.103153 541.430246 C2327.315555 540.167306 2331.705936 534.076669 2337.197635 529.510751 C2344.480350 523.455514 2349.917850 515.778696 2353.395389 506.804636 C2354.226200 504.660715 2355.846073 502.824594 2357.084598 500.835519 C2357.662235 499.907968 2358.195682 498.953012 2358.749393 498.010477 C2357.543094 497.704996 2356.233280 496.929452 2355.146610 497.168405 C2346.457889 499.079477 2338.181766 496.717783 2329.786014 495.137765 C2320.684207 493.424844 2313.869266 487.596353 2306.510623 482.738473 C2298.973758 477.762826 2294.692996 469.683969 2290.753543 462.322336 C2286.236454 453.881570 2287.865360 444.007089 2291.954715 434.881998 C2298.100711 421.166849 2305.529911 408.360818 2316.790653 398.207864 C2326.567996 389.392526 2337.354129 383.142557 2351.334110 387.077371 C2351.798465 387.208108 2352.331668 387.093942 2353.332889 387.093912 M2318.332889 447.593942 C2316.384647 447.093942 2314.441532 446.569009 2312.477909 446.140054 C2312.317264 446.104959 2311.745487 446.824533 2311.819950 447.021188 C2312.297489 448.282968 2312.680301 449.683969 2313.520145 450.679941 C2314.625858 451.991098 2315.979373 453.444589 2317.508914 453.912210 C2318.392948 454.182504 2320.727664 452.720102 2320.808475 451.883310 C2320.922733 450.694589 2319.562870 449.363931 2318.332889 447.593942 M2391.832889 419.094003 C2390.585086 417.760690 2389.337284 416.427347 2388.089481 415.093973 C2388.549442 416.639627 2388.878787 418.240915 2389.505741 419.715677 C2390.167606 421.272317 2390.963748 422.820932 2391.976444 424.165903 C2393.057254 425.601419 2394.459598 426.794900 2395.721561 428.093973 C2395.061161 426.396493 2394.409061 424.695688 2393.737186 423.002786 C2393.284061 421.860635 2392.802127 420.729776 2391.832889 419.094003 M2318.332889 480.593912 C2317.790897 481.051828 2317.248661 481.509744 2316.706668 481.967721 C2318.384403 482.676462 2320.036502 483.459116 2321.751590 484.061227 C2322.548465 484.340982 2323.468631 484.270090 2324.332889 484.358163 C2323.649539 483.270090 2323.190799 481.836221 2322.213016 481.201273 C2321.404422 480.676004 2319.982791 481.093942 2318.332889 480.593912 M2389.332645 427.594003 C2388.666141 425.901620 2388.053348 424.184793 2387.302616 422.530466 C2387.048709 421.970193 2386.445682 421.568185 2386.002323 421.094003 C2385.779178 421.788766 2385.182010 422.643808 2385.399051 423.149850 C2386.235721 425.102212 2387.313114 426.953836 2388.342166 428.820230 C2388.776248 429.607156 2389.312381 430.337717 2389.802127 431.093942 C2389.812381 430.093942 2389.822635 429.093942 2389.332645 427.594003 M2381.832889 414.093942 C2383.268436 413.862772 2384.703983 413.631631 2386.139530 413.400430 C2384.963748 412.631570 2383.787967 411.862711 2382.612430 411.094034 C2382.185916 411.927377 2381.759403 412.760721 2381.832889 414.093942 M2385.832889 440.093942 C2384.706912 439.886453 2383.581180 439.678995 2382.455204 439.471475 C2382.603397 440.034402 2382.777957 441.090158 2382.895145 441.083841 C2384.046512 441.021616 2385.188358 440.782693 2385.832889 440.093942 M2341.832889 535.093942 C2341.933475 534.861276 2342.070438 534.635019 2342.113407 534.392099 C2342.127079 534.315622 2341.821414 534.082651 2341.776248 534.110178 C2340.063602 535.147653 2338.358768 536.198862 2336.677127 537.285959 C2336.580204 537.348825 2336.688358 537.729257 2336.700809 537.961923 C2338.078250 537.005930 2339.455448 536.049936 2341.832889 535.093942 M2350.332889 528.593881 C2350.977909 527.905649 2351.622928 527.217477 2352.268192 526.529367 C2352.004032 526.384225 2351.547733 526.068918 2351.503543 526.118784 C2350.460819 527.294443 2349.462772 528.509592 2348.456424 529.717538 C2348.915164 529.509653 2349.374149 529.301828 2350.332889 528.593881 M2371.332889 404.593942 C2370.458133 404.135294 2369.583621 403.676645 2368.708866 403.218027 C2368.583621 403.637094 2368.458133 404.056161 2368.332889 404.475229 C2369.166141 404.681467 2369.999637 404.887704 2371.332889 404.593942 z"/><path class="selected"  fill="#000000" opacity="1.000000" stroke="none" 
 	d="
M2199.332889 340.093942 C2198.666385 346.816568 2197.675418 353.027048 2197.442020 359.265878 C2197.274051 363.748086 2198.167362 368.264566 2198.496463 372.772378 C2198.832889 377.377176 2198.808475 382.022104 2199.393436 386.591653 C2200.215457 393.014749 2200.924686 399.529092 2202.620975 405.748331 C2206.775272 420.978799 2211.482303 436.058206 2215.937870 451.206827 C2218.313114 459.282114 2212.749881 467.328165 2204.498905 468.144083 C2200.746707 468.515146 2197.069461 469.617960 2193.318729 470.039133 C2189.730594 470.442026 2187.234745 469.083932 2185.187381 465.616617 C2176.660770 451.176675 2163.789676 440.685403 2151.458133 429.766183 C2141.869510 421.275766 2131.983036 413.121225 2122.417850 404.605356 C2115.895145 398.798440 2109.710819 392.612436 2103.332157 386.641733 C2102.801639 386.145029 2101.941776 386.000284 2101.234745 385.692117 C2100.934207 386.567392 2100.199832 387.557901 2100.397342 388.300882 C2104.006229 401.886087 2104.065555 415.884531 2105.742313 429.688852 C2107.108280 440.932565 2106.183475 452.759256 2111.951541 463.514108 C2115.379520 469.906076 2109.608524 480.672006 2102.605594 483.050516 C2098.937381 484.296396 2095.138553 485.190836 2091.350711 486.027444 C2090.376590 486.242624 2088.885135 485.994119 2088.204227 485.351633 C2084.127567 481.503793 2080.144901 477.547037 2076.315067 473.454141 C2075.570438 472.658182 2075.350955 471.094522 2075.377323 469.895669 C2075.636844 458.034402 2076.528202 446.160287 2076.189334 434.319894 C2075.827274 421.661233 2074.596073 409.006998 2073.258670 396.402383 C2071.931278 383.892618 2070.827030 371.256387 2068.015262 359.046335 C2066.387821 351.978067 2067.869510 345.971323 2069.297977 339.540597 C2069.545047 338.428995 2069.328739 337.215433 2069.333377 336.049020 C2069.361698 328.955270 2074.126102 323.678873 2081.269657 323.126291 C2086.512088 322.720804 2090.991825 322.917734 2094.615360 328.488840 C2098.919803 335.106668 2105.081424 340.496683 2110.265506 346.566415 C2119.180057 357.003732 2127.553592 367.938486 2136.944217 377.921060 C2142.976688 384.333749 2150.401981 389.441629 2157.250614 395.076791 C2159.079959 396.582162 2161.057498 397.913278 2163.012088 399.258737 C2165.972049 401.296121 2167.503055 399.721200 2167.244754 396.893625 C2166.504032 388.782785 2165.171024 380.725503 2164.455448 372.613260 C2164.192996 369.640848 2165.327030 366.567270 2165.269657 363.550333 C2165.129764 356.186166 2164.125614 348.802774 2164.469852 341.474100 C2164.898075 332.363229 2166.313846 323.297525 2167.362430 314.219186 C2167.465457 313.328256 2167.727176 312.167429 2168.347049 311.669626 C2173.660037 307.403360 2179.892215 304.124246 2186.546268 305.378885 C2192.285526 306.461069 2198.821903 308.771890 2200.350467 315.798837 C2201.160770 319.523508 2200.496952 323.597452 2200.303348 327.504068 C2200.102909 331.540109 2199.666141 335.564462 2199.332889 340.093942 M2176.332889 340.593942 C2175.557498 340.093942 2174.782352 339.593942 2174.006961 339.093942 C2173.913700 340.058633 2173.664432 341.042093 2173.777957 341.981882 C2173.863407 342.689493 2174.366336 343.370706 2174.769901 344.009225 C2175.168094 344.639566 2175.674442 345.201456 2176.133426 345.793344 C2176.533329 345.140268 2177.190799 344.516122 2177.268192 343.826913 C2177.367313 342.943338 2176.999393 342.007364 2176.332889 340.593942 M2081.332889 402.593973 C2082.153202 403.747812 2082.836551 405.054422 2083.864383 405.977579 C2084.254764 406.328287 2085.437381 405.797128 2086.258914 405.667947 C2084.783573 404.476633 2083.308231 403.285287 2081.332889 402.593973 M2179.332889 389.593942 C2179.758670 391.019754 2180.184452 392.445535 2180.610233 393.871286 C2180.851200 393.638834 2181.339481 393.328165 2181.294559 393.186014 C2180.858280 391.805917 2180.332889 390.453928 2179.332889 389.593942 z"/><path class="selected"  fill="#000000" opacity="1.000000" stroke="none" 
 	d="
M228.582889 35.343938 C224.466190 39.127294 220.261661 42.360834 216.803958 46.257150 C209.851688 54.091325 203.263370 62.251703 196.655918 70.383997 C195.941440 71.263368 196.089969 72.843927 195.838169 74.099237 C196.995853 73.938028 198.172458 73.859628 199.307682 73.600183 C202.800327 72.801981 206.295169 71.165491 209.756504 71.246667 C218.153049 71.443590 226.727909 71.561273 234.845767 73.405962 C240.041904 74.586748 244.437717 79.005945 249.396244 81.580713 C257.328830 85.699831 260.777439 93.404451 265.126193 100.422281 C265.355625 100.792497 265.363162 101.365869 265.319370 101.830080 C264.336978 112.244615 264.437900 122.924417 262.002841 132.990121 C259.836429 141.945383 255.794162 151.145181 248.408664 157.150629 C240.831546 163.311853 232.325077 168.677667 223.497562 172.852808 C215.207492 176.773752 206.087741 179.283212 196.614963 179.052484 C194.747165 179.006967 192.680454 178.844659 191.066562 178.025140 C181.697269 173.267557 172.198795 168.682748 163.267917 163.187997 C160.183200 161.290140 157.872806 157.237665 156.463993 153.673273 C151.431705 140.941003 146.318775 128.217233 147.241977 113.972223 C147.942005 103.170503 150.470355 92.989915 154.189334 82.844591 C158.418094 71.308496 162.533054 59.697588 170.131259 50.007921 C178.944065 38.769296 188.160800 27.833456 201.317081 20.978796 C209.677921 16.622657 216.799655 9.742635 226.305271 7.727678 C235.920322 5.689533 245.764377 4.039732 255.246189 8.216690 C257.618686 9.261827 261.332981 12.746309 260.975070 13.528413 C259.625583 16.477394 257.293033 19.521165 254.519412 21.160677 C248.704502 24.597940 242.318271 27.053560 236.286899 30.146799 C233.650058 31.499116 231.308536 33.427270 228.582889 35.343938 z"/><path class="selected"  fill="#000000" opacity="1.000000" stroke="none" 
 	d="
M1488.582889 343.843942 C1497.469486 351.792154 1500.449588 361.848459 1502.607791 372.933481 C1505.087039 385.666696 1500.349124 395.230905 1492.633426 404.070718 C1490.601932 406.398019 1487.046512 407.351083 1484.322025 409.135568 C1482.867923 410.087961 1481.694095 411.467935 1480.393802 412.654855 C1481.861087 413.134531 1483.302005 413.910745 1484.800052 414.043344 C1491.800052 414.663034 1497.451053 418.151132 1502.987796 422.072214 C1510.679203 427.519357 1517.332645 433.818735 1522.414920 441.920602 C1528.736087 451.997537 1528.439823 461.973550 1523.623538 472.351327 C1522.460575 474.857278 1521.807865 477.595102 1520.746097 480.153848 C1517.665653 487.577280 1510.187503 490.347848 1504.555545 495.001321 C1497.507205 500.825265 1488.604251 502.439889 1479.867679 504.068430 C1475.506473 504.881418 1471.115482 505.642953 1466.703128 506.052560 C1454.633914 507.172800 1442.561161 508.468027 1430.460208 508.949960 C1423.494754 509.227304 1416.860599 506.942575 1411.213382 502.480905 C1407.455326 499.511972 1407.244998 495.403177 1407.304569 491.091104 C1407.406742 483.705362 1407.332889 476.317148 1407.332889 468.929971 C1407.332889 468.263589 1407.366214 467.595315 1407.328006 466.931131 C1406.334232 449.686044 1405.257205 432.445352 1404.355960 415.195444 C1403.578495 400.317300 1403.032108 385.427225 1402.309207 370.546060 C1402.134769 366.954294 1401.177371 363.341714 1401.431644 359.799875 C1402.017093 351.644449 1408.182620 346.119546 1412.485233 340.022073 C1414.778446 336.771921 1420.405033 335.185556 1424.820560 334.281168 C1431.561771 332.900369 1438.544925 332.541940 1445.448123 332.160837 C1451.318119 331.836801 1457.458744 331.051401 1463.053714 332.331522 C1472.068363 334.394022 1481.013187 337.372720 1488.582889 343.843942 M1436.332889 474.593942 C1435.666263 476.481454 1434.656620 478.339120 1434.488651 480.270059 C1434.413211 481.135782 1435.994510 482.936563 1436.872440 482.968088 C1443.355228 483.200723 1450.206302 484.426736 1456.264286 482.806955 C1467.668094 479.757913 1479.385135 476.970010 1489.273319 469.741403 C1492.935794 467.064035 1496.401737 464.482614 1495.280399 459.331796 C1494.560184 456.023447 1493.643314 452.682748 1492.235721 449.622781 C1491.081058 447.112314 1489.492069 444.458139 1487.368778 442.796396 C1478.511966 435.865030 1468.394412 431.625192 1457.211673 430.108591 C1451.673831 429.357584 1446.128665 428.379861 1440.562992 428.186227 C1432.872196 427.918619 1432.203250 428.725229 1432.368167 436.303751 C1432.546268 444.490884 1432.728763 452.695810 1433.443119 460.846200 C1433.820072 465.146829 1435.333011 469.347909 1436.332889 474.593942 M1446.832889 365.093942 C1439.096805 364.692789 1434.603275 369.583047 1429.912601 374.774698 C1427.155399 377.826334 1427.983890 380.593545 1428.274417 383.828226 C1428.812503 389.820413 1428.738651 395.875528 1429.454837 401.840158 C1429.763065 404.405649 1429.293582 408.731943 1434.020145 408.024545 C1441.151981 406.957193 1448.252567 405.600381 1455.297855 404.053751 C1466.089237 401.684732 1473.032840 390.240457 1470.297122 379.579263 C1468.957645 374.359384 1467.398441 369.091409 1461.265140 367.590646 C1456.848514 366.509897 1452.314579 365.908914 1446.832889 365.093942 z"/><path class="selected"  fill="#000000" opacity="1.000000" stroke="none" 
 	d="
M1800.582889 365.343942 C1795.277591 374.527658 1789.443607 382.847665 1781.994144 390.014658 C1778.346073 393.524271 1775.332645 397.698495 1771.649295 401.165292 C1767.186161 405.366128 1762.302738 409.118845 1757.645633 413.117288 C1757.068241 413.613107 1756.763797 414.426858 1756.332889 415.093301 C1756.930057 415.426858 1757.516849 415.781045 1758.126224 416.090494 C1761.291995 417.698038 1765.002567 418.697946 1767.542728 420.994363 C1780.683841 432.874338 1796.057376 442.502237 1802.742191 460.593301 C1806.243900 470.070200 1807.888065 479.479715 1808.204959 489.260355 C1808.369998 494.357736 1799.204471 500.544931 1792.617313 501.158578 C1783.733402 501.986337 1777.779422 497.452096 1775.089115 487.968881 C1771.893070 476.702798 1767.586307 465.411447 1759.757450 456.472787 C1756.543949 452.803384 1750.766361 451.197183 1745.929203 449.199228 C1742.940677 447.964883 1739.546390 447.630716 1736.297000 447.137857 C1733.976932 446.785898 1731.917118 446.612161 1732.241703 450.421945 C1733.167972 461.287485 1733.788700 472.183908 1734.284427 483.079324 C1734.556156 489.053812 1727.343143 496.542642 1721.291507 497.107614 C1718.589359 497.359872 1715.848758 497.531869 1713.216434 498.136545 C1705.123050 499.995615 1695.625492 492.502267 1695.269901 484.240793 C1694.879764 475.174112 1693.663089 466.136850 1693.438114 457.071085 C1693.254276 449.666818 1693.871707 442.230905 1694.369022 434.824808 C1694.865726 427.424722 1693.153079 419.969949 1696.087528 412.559549 C1697.249759 409.624155 1695.722293 405.595010 1695.319828 402.075265 C1694.702762 396.680521 1694.124881 391.276498 1693.306156 385.910654 C1691.731327 375.589822 1690.210330 365.252878 1688.261356 354.999734 C1686.883182 347.748453 1688.651493 342.848764 1695.364383 340.182687 C1701.529178 337.734293 1712.699954 338.538797 1718.540042 343.678079 C1723.916385 348.409372 1723.801761 354.803567 1724.204837 360.823709 C1724.978641 372.376901 1724.994632 383.980691 1725.344242 395.562906 C1725.368045 396.352914 1725.553836 397.137979 1725.664310 397.925302 C1726.233158 397.802133 1727.163211 397.852548 1727.318119 397.530313 C1731.006839 389.859567 1740.018924 388.703805 1745.190067 382.802286 C1754.197025 372.523294 1764.090457 362.959634 1770.883792 350.928781 C1771.991703 348.966440 1772.086307 346.445200 1772.731327 344.205911 C1776.047000 332.698007 1787.272464 325.993997 1798.750125 329.214609 C1803.293827 330.489633 1808.644290 329.271097 1812.244022 334.254892 C1815.226932 338.384714 1816.706424 341.873910 1815.535037 347.232095 C1813.617313 356.003305 1806.334354 359.666299 1800.582889 365.343942 z"/><path class="selected"  fill="#000000" opacity="1.000000" stroke="none" 
 	d="
M107.582889 132.343942 C102.493991 140.862115 99.063465 149.985315 91.483478 156.532312 C81.601612 165.067453 70.873966 171.816675 57.442737 172.000726 C40.576557 172.231836 24.673549 169.037607 12.571979 155.809778 C4.847530 147.366434 0.803684 137.152673 0.495334 125.912256 C0.224552 116.041345 -1.155423 105.955125 2.342205 96.275743 C4.958278 89.035959 6.965503 81.466081 10.488765 74.690546 C15.505397 65.043138 20.939456 55.430589 27.558353 46.855318 C32.999210 39.806287 40.215717 34.045633 47.043537 28.177400 C51.813434 24.077871 56.962635 20.225439 62.463108 17.213615 C71.781345 12.111368 81.506732 7.751695 91.069614 3.097677 C95.896717 0.748444 100.570575 -1.904553 106.079441 1.954208 C107.419925 2.893182 109.978336 2.069235 111.976108 2.098775 C117.078723 2.174222 119.400623 6.062887 116.190769 10.165132 C113.715412 13.328668 110.187747 15.864505 106.710071 17.998378 C102.391956 20.647943 97.063022 21.881971 93.214176 25.010965 C87.195682 29.903795 81.780582 35.631868 76.610141 41.450643 C70.538562 48.283563 64.983554 55.577043 59.255893 62.712045 C58.528736 63.617876 58.112018 64.772935 57.551486 65.812532 C58.706699 66.239664 59.876468 67.060838 61.014362 67.018838 C64.214603 66.900713 67.396610 66.210702 70.594974 66.135530 C79.345783 65.929864 86.834415 68.109293 92.634830 75.632425 C97.089756 81.410448 102.366550 86.407159 104.552021 93.735620 C107.769016 104.523073 109.864307 115.425394 109.276004 126.714181 C109.181507 128.527582 108.332889 130.301675 107.582889 132.343942 z"/><path class="selected"  fill="#000000" opacity="1.000000" stroke="none" 
 	d="
M824.582889 511.843942 C818.126163 510.093942 811.962345 508.368784 805.697330 507.174631 C801.656925 506.404489 800.355960 503.807077 800.403507 500.432199 C800.497806 493.738840 801.173038 487.053598 801.264286 480.360300 C801.314456 476.673257 800.635379 472.979013 800.349308 469.283060 C800.246829 467.958688 800.332889 466.619760 800.332889 465.287454 C800.332889 461.233591 800.400272 457.178445 800.320926 453.126138 C800.017154 437.609079 798.339298 421.970041 799.760807 406.616037 C800.859561 394.748270 795.568729 385.931894 791.303897 376.258005 C789.738529 372.707284 789.698673 369.373453 792.431705 366.553812 C800.014408 358.730661 810.223758 356.041757 820.288455 354.490305 C824.731327 353.805398 829.830692 357.449075 834.645206 359.088998 C842.527469 361.773904 850.900394 363.501169 858.208316 367.288187 C873.071537 374.990579 887.766544 383.181497 901.752933 392.356912 C911.820865 398.961618 919.576114 409.560800 921.773441 420.762765 C925.621707 440.381021 924.936771 460.309976 909.610538 476.578104 C906.444583 479.938669 905.035526 484.941354 902.760135 489.156625 C897.222049 499.416269 888.333621 504.789072 877.381351 508.322580 C868.640140 511.142770 860.041385 512.397470 850.984561 512.146249 C842.273563 511.904489 833.550601 512.093942 824.582889 511.843942 M835.332889 433.593942 C835.666202 439.614694 836.236209 445.634531 836.260135 451.656503 C836.280338 456.733926 835.377201 461.815469 835.405216 466.892313 C835.441165 473.414133 835.872440 479.944711 836.470401 486.440530 C836.559818 487.411722 838.717105 489.135171 839.524478 488.933786 C842.937992 488.082284 846.264408 486.775919 849.503299 485.362253 C852.326541 484.129983 854.838870 481.949197 857.749637 481.194528 C870.424625 477.908273 879.443729 470.892343 883.042667 457.880838 C885.034854 450.678445 886.771488 443.551034 883.400943 436.156259 C881.364627 431.688516 880.390689 426.723398 878.238346 422.324869 C875.246829 416.211679 872.903751 408.771249 867.948551 404.846628 C858.648868 397.481241 847.149906 393.801858 835.000980 393.062051 C831.687076 392.860239 831.030216 394.584482 831.336002 397.297281 C832.662052 409.063547 833.999576 420.828500 835.332889 433.593942 z"/><path class="selected"  fill="#000000" opacity="1.000000" stroke="none" 
 	d="
M665.332889 178.093942 C663.787235 168.456277 664.487796 158.898706 660.071414 150.293756 C658.494815 147.221811 658.809818 144.307046 661.804508 142.140939 C665.125003 139.739145 668.320987 137.055566 671.939884 135.222803 C673.707523 134.327570 676.319095 135.204187 678.536563 135.073633 C689.088016 134.452386 699.705509 132.665155 710.168582 133.335718 C728.535892 134.512903 745.686832 139.610269 759.266544 153.399637 C768.692874 162.971521 772.742923 174.899591 776.442325 187.302743 C779.467838 197.446313 781.696170 207.847269 780.094364 218.116006 C777.074222 237.477472 773.838382 257.093973 760.843814 273.016824 C751.205692 284.826730 739.309635 293.463968 723.948978 296.009256 C713.249637 297.782175 702.427066 298.834634 691.643436 300.068552 C684.141910 300.926950 678.705142 295.996744 672.662662 292.863260 C671.131839 292.069406 669.813663 290.834665 668.470829 289.714853 C663.966678 285.958902 661.771121 281.344369 662.260440 275.270761 C662.891361 267.439004 663.087955 259.567728 663.313480 251.708932 C663.715702 237.693338 663.966922 223.673486 664.343692 209.657098 C664.622013 199.301324 664.999515 188.948236 665.332889 178.093942 M697.332828 170.593942 C696.999515 182.166666 696.721927 193.741403 696.305789 205.311151 C696.136905 210.007089 695.361759 214.694864 695.403568 219.381525 C695.467716 226.571207 696.029056 233.755487 696.325382 240.944299 C696.690189 249.795145 696.816471 258.662424 697.498783 267.487588 C697.624088 269.108652 699.826114 271.802408 701.209476 271.894235 C710.722537 272.525919 719.421146 270.275766 726.575199 263.397409 C734.307010 255.963693 736.821109 246.793619 738.757511 236.367227 C741.289554 222.733820 741.814884 209.202753 742.576358 195.504983 C743.176334 184.711999 738.106449 176.924097 731.104740 170.834940 C723.095523 163.869745 715.074222 156.263895 702.879642 155.713602 C698.119632 155.498804 697.426212 156.417520 697.346988 160.104578 C697.278995 163.266336 697.332889 166.430719 697.332828 170.593942 z"/><path class="selected"  fill="#000000" opacity="1.000000" stroke="none" 
 	d="
M1698.332889 228.093942 C1698.332889 235.093561 1698.332889 241.593164 1698.332889 248.092783 C1698.332889 249.092721 1698.727420 250.705362 1698.272220 250.998422 C1693.377323 254.150003 1688.649295 258.000162 1683.255374 259.790018 C1679.358280 261.083108 1672.821292 254.561624 1672.424808 250.216440 C1672.228885 248.069620 1673.279666 245.835733 1673.288822 243.639291 C1673.366092 225.083551 1673.236576 206.526605 1673.378543 187.971628 C1673.438724 180.108087 1674.533451 172.226968 1674.219242 164.391489 C1673.606937 149.124429 1672.487064 133.871545 1671.266483 118.637704 C1670.673221 111.232530 1671.998783 108.758668 1681.886722 104.155214 C1686.563968 101.977563 1690.506961 104.255945 1693.463504 107.804307 C1700.551151 116.311334 1707.400638 125.016428 1714.373050 133.619867 C1716.205936 135.881341 1718.156497 138.046960 1720.017948 140.285760 C1726.508914 148.092493 1732.721317 156.151010 1739.541141 163.658258 C1746.125858 170.906824 1753.318851 177.604028 1760.287113 184.500665 C1760.813724 185.022028 1761.677616 185.202920 1762.384647 185.542154 C1762.700809 184.673166 1763.443119 183.705987 1763.268924 182.949884 C1760.765384 172.078928 1762.388187 161.084009 1762.472782 150.180856 C1762.597171 134.120447 1763.633670 118.065881 1764.359134 102.012323 C1764.511478 98.642427 1764.455936 95.115236 1765.455326 91.964807 C1767.116947 86.726160 1771.577884 83.546609 1776.528202 82.286768 C1781.330326 81.064661 1786.570316 80.891290 1791.556156 81.214082 C1799.952152 81.757654 1805.862552 94.403253 1801.209110 102.488573 C1796.653812 110.403650 1794.963993 118.901865 1794.427860 127.664468 C1793.710453 139.392694 1793.227054 151.170160 1793.442386 162.911813 C1793.720218 178.056695 1795.489139 193.052331 1797.951053 208.074029 C1799.568851 217.945459 1801.910648 227.327936 1805.268680 236.633264 C1806.690311 240.572855 1803.439090 245.559396 1799.195072 247.130533 C1797.469486 247.769327 1795.351078 248.404092 1794.339359 249.742258 C1787.709720 258.510812 1776.001224 253.367044 1772.440067 245.899576 C1768.338504 237.298486 1761.623661 230.917902 1755.653568 223.845026 C1748.400272 215.251825 1741.486087 206.373315 1734.314334 197.710077 C1728.537601 190.732141 1722.443973 184.012949 1716.772220 176.952905 C1711.496952 170.386209 1706.623416 163.497705 1701.485721 156.818002 C1700.879764 156.030313 1699.721317 155.667581 1698.818973 155.107828 C1698.323612 156.235864 1697.343143 157.393335 1697.409549 158.487344 C1697.938602 167.219003 1698.959598 175.929483 1699.232303 184.665094 C1699.421756 190.734170 1698.497440 196.829324 1698.374271 202.918985 C1698.207889 211.140878 1698.332889 219.368677 1698.332889 228.093942 z"/><path class="selected"  fill="#000000" opacity="1.000000" stroke="none" 
 	d="
M1616.582889 113.843942 C1624.119632 120.593729 1626.178836 129.785593 1629.290164 138.421243 C1629.608890 139.306039 1629.592533 140.492975 1629.289066 141.389963 C1627.725589 146.011316 1619.461551 150.232889 1612.549930 150.098260 C1606.629276 149.982919 1606.062992 145.098779 1604.293827 141.111581 C1601.128543 133.977258 1598.289188 126.363306 1589.659305 123.979776 C1583.688480 122.330667 1577.533817 118.148309 1571.622562 124.118280 C1570.038455 125.718301 1568.555912 127.491266 1567.364261 129.395975 C1557.750614 144.762613 1551.142459 161.242029 1547.079471 179.013696 C1544.733158 189.276697 1544.791629 199.129053 1547.482547 208.862253 C1551.126712 222.043024 1557.638675 233.839990 1569.463870 241.565607 C1575.457523 245.481424 1581.219242 242.557596 1586.720462 239.262796 C1594.784793 234.433023 1600.651493 227.626276 1605.324588 219.626581 C1606.038700 218.404077 1607.012943 217.335809 1607.764530 216.132318 C1608.303470 215.269098 1608.671634 214.299249 1609.115970 213.376962 C1607.978275 212.992700 1606.762210 212.128030 1605.714847 212.298593 C1595.441165 213.971536 1585.250980 214.140466 1575.108890 211.397012 C1571.795291 210.500680 1568.444950 209.632791 1565.054569 209.158456 C1561.884525 208.714960 1560.298099 207.002771 1559.834476 204.074350 C1559.053836 199.143426 1557.201053 194.008264 1557.939823 189.294534 C1559.185550 181.346475 1569.967044 176.306238 1578.166385 178.358697 C1587.868167 180.787317 1597.515506 181.525445 1607.508914 178.694055 C1613.313724 177.049402 1619.968021 176.289529 1625.809696 177.398523 C1634.031253 178.959329 1638.582279 185.953851 1641.194095 193.490442 C1642.925785 198.487314 1643.862064 203.907342 1644.221073 209.201257 C1644.933109 219.700403 1645.188114 230.241983 1645.263065 240.768655 C1645.308719 247.182657 1644.729740 253.605661 1644.312870 260.016946 C1643.976932 265.181345 1632.068485 274.603433 1626.578372 273.157938 C1618.029422 270.906961 1613.406375 263.159830 1615.334842 254.488870 C1616.438602 249.525278 1616.753543 244.378213 1617.188724 239.293649 C1617.215213 238.984613 1614.419803 237.905786 1614.197635 238.185495 C1611.980716 240.978342 1609.337894 243.727426 1608.142826 246.977090 C1605.501102 254.160776 1599.987552 258.151834 1593.645023 261.130106 C1589.066776 263.279916 1584.051029 264.509012 1579.210208 266.086313 C1570.252445 269.005044 1562.888309 264.200906 1556.131351 259.988626 C1549.453739 255.825754 1543.344364 250.225442 1538.230716 244.199289 C1529.943973 234.433984 1521.728519 224.223550 1518.481082 211.494485 C1517.003055 205.700449 1517.259891 199.352716 1517.439823 193.277154 C1517.629398 186.874872 1519.241458 180.491830 1519.176761 174.111078 C1519.107059 167.231851 1522.438724 161.659753 1525.133304 156.029596 C1533.007450 139.577096 1541.519412 123.277902 1555.864139 111.384187 C1560.478519 107.558221 1566.640384 105.362459 1572.382572 103.179117 C1587.183963 97.551363 1600.036380 103.422472 1612.489871 110.781122 C1613.849979 111.584817 1615.055667 112.650034 1616.582889 113.843942 z"/><path class="selected"  fill="#000000" opacity="1.000000" stroke="none" 
 	d="
M1196.582889 189.843927 C1197.999637 201.943582 1199.761600 213.773904 1200.147220 225.648920 C1200.463138 235.376413 1197.107669 244.450876 1189.640140 251.176370 C1180.989017 258.967783 1172.604373 267.361307 1162.869632 273.552316 C1154.065189 279.151559 1143.733646 282.540597 1132.892093 283.106302 C1121.165897 283.718240 1109.451175 284.612039 1097.718997 285.031900 C1089.257816 285.334756 1081.737064 277.228708 1081.232059 268.838480 C1080.673465 259.559763 1078.981327 250.347971 1078.458866 241.068964 C1078.121585 235.078348 1079.165775 229.023050 1079.302005 222.990213 C1079.720340 204.464197 1080.567630 185.921732 1080.134403 167.411722 C1079.842533 154.940088 1077.707157 142.507944 1076.305179 130.068414 C1075.938480 126.814676 1076.740970 124.029077 1079.563724 122.443185 C1086.753299 118.403818 1094.263553 115.790414 1102.609378 118.855386 C1103.046756 119.016031 1103.560916 119.142297 1104.008304 119.075784 C1115.058963 117.432291 1124.682987 123.251642 1135.057743 124.882593 C1145.026126 126.449609 1154.188358 129.877893 1162.233036 135.313455 C1169.992801 140.556543 1177.978031 146.605096 1183.203372 154.144022 C1188.586185 161.910059 1190.851810 171.866724 1194.275394 180.942651 C1195.313114 183.693674 1195.666263 186.702936 1196.582889 189.843927 M1140.332889 151.593942 C1137.149906 150.427270 1134.046268 148.895776 1130.764774 148.181497 C1126.116703 147.169702 1121.347904 146.420129 1116.608646 146.273279 C1114.882694 146.219781 1111.702518 148.058603 1111.562259 149.302042 C1110.757328 156.443155 1110.123661 163.689874 1110.455081 170.853433 C1111.007450 182.791666 1112.705692 194.678567 1113.203861 206.617013 C1113.544437 214.783075 1112.556522 222.997430 1112.366458 231.194940 C1112.204227 238.190271 1112.657840 245.212900 1112.216800 252.184061 C1111.930912 256.702432 1112.710208 258.914041 1117.066776 259.020090 C1126.783573 259.256509 1136.536258 259.534586 1146.224735 258.960458 C1154.609867 258.463541 1160.915164 254.154336 1164.363407 246.059671 C1169.998783 232.830759 1172.525516 219.432535 1170.574588 204.833871 C1168.800907 191.560510 1162.779178 180.575113 1155.568851 170.016809 C1151.224369 163.654993 1145.781864 158.042932 1140.332889 151.593942 z"/><path class="selected"  fill="#000000" opacity="1.000000" stroke="none" 
 	d="
M572.332889 283.093942 C566.357913 284.760629 560.978092 287.145303 555.380558 287.886758 C550.058841 288.591684 544.504215 287.655191 539.063480 287.276071 C537.379703 287.158700 535.752689 286.269144 534.066959 286.129983 C516.558353 284.684305 503.118473 275.631082 492.581607 262.481729 C487.641239 256.316446 483.823123 248.774301 481.321964 241.249368 C477.982242 231.201334 478.033878 220.656061 479.000125 209.858713 C480.099063 197.577661 484.570926 186.393732 487.623294 174.787088 C488.864322 170.068353 493.638919 166.378061 496.265567 161.902765 C500.914493 153.981882 505.827640 146.483774 513.640140 141.141412 C518.261722 137.981073 521.997196 133.502710 526.677310 130.456171 C531.692325 127.191675 537.138065 124.237634 542.807804 122.469232 C545.931461 121.494943 550.628482 122.145380 553.351016 123.960702 C560.812808 128.935876 568.831912 126.621164 576.604495 127.019296 C586.203739 127.511011 595.284366 130.001398 602.027408 136.656122 C608.078617 142.628122 612.840030 149.992792 617.694705 157.069482 C623.539005 165.588678 626.411014 175.466684 627.100162 185.567560 C627.597904 192.862833 626.185916 200.339197 625.165103 207.670679 C624.390079 213.237634 623.451358 218.902734 621.583866 224.168985 C618.604434 232.570779 614.772953 240.669183 611.339786 248.911722 C609.026615 254.465402 606.334842 259.547647 602.078006 264.151376 C593.840885 273.059549 584.031864 279.021677 572.332889 283.093942 M592.332889 167.593942 C589.534854 163.760599 587.507633 158.689569 583.771427 156.362726 C576.905887 152.087060 569.163639 149.069711 561.509037 146.294000 C558.939334 145.362176 554.691471 145.693277 552.647769 147.288385 C545.733036 152.685342 537.369388 156.759805 533.949466 165.854394 C532.872135 168.719522 530.835269 171.253610 529.071781 173.825555 C523.042606 182.618906 517.802677 192.053720 516.580509 202.581583 C515.179203 214.652551 515.586185 226.941278 515.362796 239.138254 C515.227542 246.522440 516.788578 253.318124 523.505191 257.741006 C525.975101 259.367349 528.818668 260.514474 531.046634 262.404733 C541.086551 270.922617 552.783145 270.266885 564.334293 267.857645 C569.651065 266.748727 575.788944 265.516428 578.689579 259.300302 C584.102115 247.701456 590.236331 236.416772 595.168399 224.624185 C598.433109 216.818246 597.832279 208.339929 596.427982 199.920419 C594.696598 189.539362 593.666202 179.041391 592.332889 167.593942 z"/><path class="selected"  fill="#000000" opacity="1.000000" stroke="none" 
 	d="
M1659.582889 390.843942 C1662.332889 400.883890 1666.355350 410.597665 1666.849979 420.487863 C1667.243900 428.366617 1664.091068 436.752359 1661.153446 444.390237 C1656.850589 455.577859 1652.052249 466.712259 1646.086917 477.076120 C1641.917972 484.319009 1637.218021 491.559183 1629.183109 496.094522 C1623.380130 499.370065 1617.212162 499.622507 1611.206058 500.965707 C1599.225955 503.644846 1587.663333 500.077890 1576.504764 496.417398 C1571.490726 494.772501 1567.178226 490.562570 1562.960941 487.023782 C1557.856327 482.740427 1551.851322 478.706186 1548.660282 473.167429 C1544.343753 465.675455 1539.717411 456.774820 1539.967655 448.624185 C1540.312747 437.391031 1536.412479 426.939767 1537.101322 415.772317 C1538.052738 400.347055 1543.792728 387.151163 1551.545780 374.185861 C1560.672977 358.922647 1575.298465 352.188730 1591.199832 348.426828 C1601.497074 345.990701 1612.613040 345.746377 1623.251834 346.377939 C1633.989017 347.015359 1642.250614 353.663309 1647.201541 363.154703 C1651.816898 372.002939 1655.332889 381.424692 1659.582889 390.843942 M1586.832889 382.093942 C1582.383304 381.491678 1579.458377 384.424478 1577.666751 387.471384 C1571.375003 398.170908 1567.165775 409.659189 1566.302005 422.231058 C1565.414920 435.143350 1567.500980 447.255746 1574.883182 458.176187 C1577.334232 461.802255 1579.708255 465.399972 1584.524295 466.094583 C1591.440067 467.092050 1598.383060 469.005960 1605.261356 468.795572 C1610.447513 468.636880 1615.890995 466.378274 1620.537357 463.816263 C1622.652713 462.649820 1623.100833 458.484201 1624.343997 455.696329 C1624.721073 454.850748 1625.265750 454.081430 1625.671146 453.246805 C1628.567508 447.284341 1632.675418 441.578897 1634.034183 435.281686 C1635.895755 426.653726 1635.974124 417.584238 1636.253665 408.686288 C1636.589359 397.997263 1630.087772 389.241373 1620.208988 386.089883 C1619.475955 385.855997 1618.694828 385.674142 1618.048221 385.282754 C1608.360111 379.418252 1598.027225 379.023172 1586.832889 382.093942 z"/><path class="selected"  fill="#000000" opacity="1.000000" stroke="none" 
 	d="
M1979.582889 390.843942 C1989.522098 390.760629 1999.224491 390.624643 2008.892704 389.976236 C2011.878299 389.775980 2014.807254 388.279001 2017.695682 387.198099 C2021.758670 385.677805 2025.912967 385.023202 2029.468387 387.862588 C2033.223758 390.861551 2035.660037 394.463602 2033.476444 399.932352 C2032.330692 402.801187 2033.058963 406.365213 2032.248905 409.432474 C2030.703495 415.283456 2024.104129 420.045145 2018.005252 420.078592 C2007.788211 420.134653 1997.570438 420.086404 1987.353153 420.097024 C1982.005985 420.102579 1979.737430 422.257791 1980.402469 427.607675 C1981.476444 436.248605 1983.242313 444.806741 1984.207645 453.456522 C1984.568485 456.692697 1985.857303 457.135049 1988.555789 457.133005 C2003.137577 457.121896 2017.378299 455.336710 2031.077274 449.975168 C2033.176639 449.153451 2035.773563 449.232217 2038.092411 449.438364 C2040.880496 449.686258 2043.597782 450.641336 2046.380496 451.061807 C2049.743289 451.569894 2051.799442 453.238321 2052.342166 456.679575 C2052.907840 460.265390 2054.103885 463.851236 2054.026737 467.415475 C2053.912235 472.705240 2050.560672 476.410593 2046.187137 479.077127 C2039.450321 483.184366 2032.130008 484.767282 2024.207645 485.253427 C2012.562870 485.968057 2001.004032 487.985483 1989.370243 489.017465 C1981.158329 489.745889 1972.875858 490.128030 1964.637821 489.972177 C1958.565555 489.857309 1954.587528 484.800546 1954.274784 478.603159 C1954.182498 476.779672 1953.726932 474.811685 1952.866092 473.219034 C1949.800907 467.547494 1950.203983 461.847299 1951.127567 455.656045 C1952.059696 449.408700 1951.712772 442.885385 1951.237430 436.534555 C1950.630252 428.424570 1949.371707 420.361276 1948.322879 412.287027 C1947.031131 402.340402 1945.651737 392.405160 1944.337528 382.461374 C1943.314090 374.717050 1942.399417 366.957681 1941.302005 359.224069 C1940.817508 355.809976 1940.113651 352.415842 1939.310794 349.060159 C1937.216312 340.305704 1949.740116 329.552103 1956.178104 329.121957 C1963.027469 328.664255 1969.901493 328.009164 1976.746952 328.176340 C1993.799686 328.592783 2010.847293 329.318277 2027.885379 330.158609 C2033.175907 330.419595 2037.748661 333.175211 2040.730838 337.344522 C2041.961307 339.065012 2041.456912 342.557504 2040.809452 344.996561 C2038.244510 354.657663 2029.702518 354.407785 2022.339481 354.966074 C2007.824344 356.066629 1993.249393 356.361703 1978.712528 357.216898 C1977.533573 357.286233 1975.478153 359.103921 1975.486209 360.095895 C1975.557743 369.011301 1975.883670 377.931284 1976.460086 386.828928 C1976.545047 388.140482 1978.332889 389.341684 1979.582889 390.843942 M1970.332889 458.593942 C1972.883670 459.043100 1975.433963 459.498025 1977.996463 459.864603 C1978.024051 459.868539 1978.409793 458.666330 1978.270145 458.118448 C1978.163944 457.701730 1977.479862 457.132120 1977.067264 457.143533 C1974.819950 457.205881 1972.577274 457.427225 1970.332889 458.593942 M1995.832889 347.093942 C1994.000858 346.760599 1992.178104 346.335733 1990.331424 346.144266 C1989.696170 346.078409 1989.000858 346.595224 1988.332889 346.845834 C1988.834598 347.263620 1989.290409 347.959573 1989.846073 348.051828 C1992.482303 348.489450 1995.145633 348.762399 1997.799442 349.093973 C1997.477176 348.427286 1997.155155 347.760629 1995.832889 347.093942 M2002.332889 396.593942 C2002.793338 397.427286 2003.076297 398.634897 2003.774784 398.966135 C2004.264041 399.198099 2005.320682 398.233255 2006.123905 397.802927 C2005.026981 397.233255 2003.929813 396.663614 2002.332889 396.593942 z"/><path class="selected"  fill="#000000" opacity="1.000000" stroke="none" 
 	d="
M646.582889 466.843942 C645.666263 459.372476 645.024723 452.148569 644.327518 444.930063 C643.012882 431.318399 641.120670 417.734476 640.503543 404.092203 C639.998905 392.938455 640.202030 381.616983 641.583499 370.556253 C642.702152 361.600442 649.997745 358.221445 658.371646 361.099680 C661.724002 362.251962 665.013858 363.601633 668.402469 364.629678 C677.131839 367.278116 678.539249 373.010171 676.167118 382.711954 C672.971622 395.780984 674.023685 408.882242 675.326969 422.019174 C676.026554 429.070749 676.438602 436.158823 677.379215 443.176950 C679.484439 458.884347 682.135013 474.544229 692.462711 487.349161 C695.034427 490.537698 699.116336 492.589304 702.726016 494.801340 C703.605167 495.340066 705.714054 494.889780 706.657779 494.139658 C712.645694 489.380014 717.461612 483.955942 719.467044 476.065744 C722.244327 465.138864 727.029178 454.641153 728.998722 443.610483 C731.500919 429.596262 732.757633 415.305673 730.482242 400.918405 C729.573673 395.173563 730.489383 389.158731 730.258182 383.279275 C730.161563 380.821847 729.170352 378.410165 728.708621 375.954538 C727.068851 367.233621 730.895206 359.795572 740.613224 360.229898 C744.567752 360.406625 748.469974 362.039316 752.366153 363.117136 C754.292972 363.650186 756.107242 364.633005 758.049991 365.057626 C765.691532 366.727945 768.669803 374.373056 764.374027 380.735117 C763.331912 382.278574 763.049625 384.854990 763.429630 386.754037 C765.829410 398.746164 762.969364 410.311441 760.954166 421.952127 C760.528202 424.412485 759.632389 426.808908 759.378849 429.278513 C758.587223 436.986978 758.530887 444.807504 757.225833 452.419382 C754.204227 470.043924 750.808048 487.657541 737.647281 501.260080 C733.844608 505.190378 730.266544 509.448129 725.981510 512.778574 C717.495365 519.374216 707.314517 519.870615 697.147830 519.018503 C687.510257 518.210702 678.125797 515.580087 670.946537 508.928598 C666.270145 504.596017 662.501834 498.991098 659.351932 493.380502 C655.752262 486.968759 653.345523 479.893350 650.299991 473.160776 C649.344303 471.048013 647.999515 469.111276 646.582889 466.843942 z"/><path class="selected"  fill="#000000" opacity="1.000000" stroke="none" 
 	d="
M1817.332889 458.093942 C1813.691532 455.285959 1810.674564 452.320413 1807.372440 449.716287 C1804.336307 447.321756 1805.644046 444.754892 1807.226932 442.848978 C1812.308109 436.730356 1818.223514 431.181985 1826.531009 430.579507 C1833.028934 430.108255 1838.430789 433.906930 1842.952640 438.315500 C1847.752201 442.994821 1852.577274 447.760934 1856.611576 453.080331 C1860.710819 458.485086 1866.134403 461.310403 1871.899295 464.396707 C1886.796268 472.371713 1898.181766 461.072641 1902.275150 449.700113 C1903.325809 446.781351 1904.128055 443.624673 1904.246097 440.546701 C1904.597904 431.370279 1897.727054 422.474191 1888.537845 421.215524 C1874.603641 419.306924 1861.795902 414.448770 1849.457279 408.065469 C1843.678836 405.076059 1837.856693 402.092355 1832.409793 398.558176 C1822.836551 392.346567 1819.530399 382.296304 1822.581424 371.305917 C1826.041995 358.840036 1832.573490 348.124948 1841.807743 339.335519 C1849.126224 332.369516 1858.508914 329.018320 1868.592899 328.133523 C1874.826175 327.586618 1881.107669 327.592691 1887.341678 327.052316 C1895.240726 326.367654 1901.889530 328.852182 1907.233646 334.555673 C1912.413089 340.083139 1918.850467 344.490579 1921.847171 351.985696 C1923.813724 356.904214 1924.851810 361.987863 1921.571537 366.078928 C1917.046878 371.721811 1911.919437 378.114969 1903.394290 375.831277 C1900.335575 375.011911 1897.756839 371.440469 1895.545169 368.659006 C1892.731815 365.120401 1890.615604 361.037210 1888.015384 357.317087 C1884.129642 351.757822 1877.120731 352.047891 1872.786624 354.286233 C1868.630496 356.432657 1864.281986 358.792429 1861.092655 362.095926 C1855.467533 367.922403 1856.902713 374.874368 1863.519046 382.935678 C1867.578128 387.881174 1872.728641 389.326425 1878.602298 390.143442 C1894.481327 392.352212 1909.526615 397.255472 1921.532108 408.153024 C1927.405033 413.483774 1930.216190 421.370950 1931.329837 429.474313 C1933.165409 442.830484 1926.670291 453.607492 1920.457767 464.466165 C1917.759159 469.183054 1915.420780 474.164590 1912.247806 478.539346 C1905.977909 487.184305 1897.191043 491.462137 1886.511600 492.162210 C1882.926395 492.397256 1879.418704 493.721078 1875.830936 494.032571 C1868.447025 494.673563 1861.706790 492.851205 1855.807743 488.113260 C1848.077396 481.904733 1839.733280 476.356943 1832.623050 469.516672 C1828.025638 465.093820 1823.523807 460.930795 1817.332889 458.093942 z"/><path class="selected"  fill="#000000" opacity="1.000000" stroke="none" 
 	d="
M1048.082889 437.843942 C1051.743534 426.849863 1054.967411 416.041849 1058.614994 405.378854 C1062.652103 393.577798 1066.815921 381.805460 1071.430789 370.222208 C1074.197391 363.277719 1081.307010 360.666910 1087.805789 361.526407 C1096.038578 362.615182 1101.010868 366.919351 1105.965091 372.260385 C1112.747928 379.572732 1120.114994 386.489664 1125.910648 394.528390 C1131.281986 401.978403 1135.148929 410.483713 1137.437137 419.683359 C1141.742069 436.991495 1146.593509 454.165933 1151.399784 471.344980 C1152.260745 474.422037 1154.261478 477.165842 1155.281864 480.215402 C1157.928104 488.124094 1160.713138 496.023233 1162.658939 504.114633 C1163.712039 508.494394 1163.498661 513.288583 1163.113040 517.832712 C1163.006717 519.087228 1160.287235 520.204050 1158.669925 521.231699 C1151.457889 525.814462 1144.364994 524.803842 1138.438602 519.344980 C1136.090946 517.182626 1135.059818 513.058786 1134.459476 509.646799 C1133.349613 503.339609 1133.261966 496.855020 1132.207157 490.534708 C1131.768436 487.906076 1129.860721 485.543985 1128.762577 482.999551 C1126.567874 477.914499 1124.603641 472.726480 1122.298709 467.693338 C1119.488285 461.556161 1115.875003 460.349832 1109.280521 460.938730 C1103.027713 461.497079 1096.638431 461.032022 1090.348392 460.526956 C1084.338260 460.044412 1078.394290 458.742563 1072.384525 458.245523 C1071.115970 458.140604 1068.787845 459.733591 1068.474735 460.940408 C1065.890384 470.899881 1064.847537 481.440286 1060.972782 490.828683 C1057.654178 498.869333 1057.177005 508.367807 1050.159915 514.854257 C1046.725101 518.029306 1043.298831 519.242380 1038.860599 517.191782 C1036.775150 516.228281 1034.383670 515.938303 1032.265995 515.028635 C1031.139408 514.544748 1029.564456 513.473642 1029.456424 512.523752 C1028.889652 507.542001 1027.349369 502.109445 1028.680667 497.577707 C1032.802005 483.548837 1038.183597 469.894937 1042.838870 456.015848 C1044.808353 450.144144 1046.186161 444.073953 1048.082889 437.843942 M1084.832889 409.093973 C1082.999637 414.308450 1080.972293 419.466104 1079.420780 424.763132 C1078.726444 427.134317 1079.328006 429.270578 1082.826297 429.147287 C1088.461307 428.948679 1094.108768 429.059640 1099.750370 429.105661 C1103.699222 429.137857 1104.078128 427.034830 1102.773197 424.064828 C1101.107059 420.272348 1099.233036 416.571542 1097.546146 412.787759 C1095.423587 408.026742 1093.430667 403.207925 1091.310916 398.445566 C1090.785892 397.266031 1089.988040 396.207895 1089.315677 395.093973 C1088.654788 396.385355 1087.741580 397.610849 1087.383792 398.981393 C1086.557010 402.148172 1085.999637 405.385324 1084.832889 409.093973 z"/><path class="selected"  fill="#000000" opacity="1.000000" stroke="none" 
 	d="
M1282.082889 180.343942 C1283.844120 182.105173 1285.622440 183.434717 1286.803348 185.170633 C1288.537235 187.719339 1291.157108 190.621652 1291.030277 193.259302 C1290.831790 197.382806 1286.633304 199.196664 1282.919071 200.019220 C1274.331668 201.920999 1265.604007 203.210855 1257.065067 205.290506 C1255.501224 205.671381 1253.666629 208.527078 1253.489871 210.386179 C1252.777591 217.875894 1252.684452 225.423624 1252.312503 232.947427 C1252.258670 234.037637 1251.889041 235.108530 1251.737918 236.198389 C1251.370365 238.851587 1249.917362 241.957498 1255.287357 240.266107 C1258.318729 239.311334 1261.931644 240.402750 1265.223026 240.037042 C1275.850223 238.856241 1286.437259 237.309747 1297.069217 236.181772 C1299.533695 235.920282 1302.187137 236.498224 1304.622684 237.166772 C1307.124637 237.853586 1309.448856 239.168390 1311.881839 240.129861 C1316.744144 242.051263 1320.682376 248.956461 1320.332889 255.044260 C1320.061283 259.774423 1315.263797 265.250650 1309.985477 266.025461 C1301.440433 267.279855 1292.852298 268.383493 1284.243167 269.025247 C1271.710697 269.959482 1259.141727 270.394632 1246.592533 271.117532 C1243.555912 271.292398 1240.539310 272.013132 1237.508426 272.048074 C1227.125370 272.167673 1222.144901 267.267007 1219.102664 257.285501 C1217.004154 250.400522 1216.778324 243.952768 1217.106449 236.869943 C1218.073978 215.988214 1218.478275 195.051263 1218.176029 174.149347 C1217.948978 158.456201 1216.725467 142.748346 1212.389041 127.463586 C1210.240604 119.890405 1215.108768 113.771890 1223.153568 114.229623 C1228.436893 114.530252 1233.662723 116.055017 1238.885623 117.165887 C1249.931644 119.515207 1260.754886 122.925348 1272.333133 122.175516 C1283.333011 121.463159 1294.374759 121.304742 1305.401737 121.132501 C1314.320194 120.993173 1319.395999 128.754419 1316.039066 136.924585 C1315.044559 139.345453 1315.102420 142.881143 1313.379398 144.171213 C1310.267215 146.501276 1306.228031 148.717554 1302.485843 148.877985 C1289.457523 149.436548 1276.390750 149.093942 1263.338504 149.093942 C1260.006473 149.093942 1256.648319 148.860086 1253.356937 149.225626 C1252.261112 149.347330 1250.389896 151.109857 1250.481937 151.944910 C1251.246341 158.878900 1252.265995 165.794168 1253.551151 172.650857 C1253.736576 173.640451 1255.683719 174.857980 1256.923099 174.994546 C1262.090335 175.563959 1267.304691 176.084146 1272.489994 175.988748 C1276.442386 175.916009 1279.420291 177.123422 1282.082889 180.343942 z"/><path class="selected"  fill="#000000" opacity="1.000000" stroke="none" 
 	d="
M1391.332889 106.093927 C1400.977787 103.722978 1408.421024 106.078577 1416.228885 111.800493 C1424.784427 118.070428 1433.002567 123.829965 1437.430789 133.976968 C1441.651615 143.648752 1438.363651 150.821268 1427.847415 153.093896 C1419.416629 154.915826 1416.939334 153.836328 1414.460697 145.267725 C1412.488285 138.448679 1408.557254 134.802988 1401.653812 134.096063 C1401.488895 134.079187 1401.303470 134.140985 1401.156742 134.087030 C1397.247806 132.650842 1393.569828 128.611307 1389.127079 132.830164 C1386.007205 135.792749 1382.748294 138.676034 1380.050785 141.999857 C1376.474124 146.406992 1373.051761 151.019952 1370.254398 155.937585 C1369.184818 157.817697 1369.131473 161.280206 1370.174076 163.154108 C1372.546878 167.418359 1375.787723 171.225381 1378.910037 175.025735 C1379.555301 175.811212 1381.227176 176.074747 1382.412845 176.045724 C1395.775272 175.718729 1408.760990 177.866937 1420.960330 183.199411 C1432.660648 188.313730 1444.379398 194.393014 1448.157230 207.801492 C1449.811893 213.673852 1450.104007 221.313974 1447.698734 226.659372 C1442.625370 237.934640 1435.902835 248.607584 1428.718631 258.719003 C1426.144779 262.341684 1420.481571 265.056467 1415.892704 265.667978 C1408.444095 266.660501 1400.718875 265.586038 1393.110843 265.366312 C1391.148563 265.309671 1389.164432 265.348276 1387.231327 265.064188 C1380.968387 264.143899 1374.484012 263.832529 1368.537967 261.895639 C1361.998783 259.765512 1355.790531 256.393442 1349.782108 252.960489 C1347.010868 251.377054 1344.700321 248.614419 1342.809452 245.941721 C1339.021121 240.586755 1335.282718 235.123727 1332.277103 229.315439 C1330.537479 225.953561 1330.008548 221.871606 1329.420169 218.039178 C1329.004886 215.333932 1334.110843 209.422143 1337.186649 209.190668 C1341.636600 208.855752 1346.192752 208.401956 1349.943363 212.126031 C1356.121463 218.260232 1362.253787 224.501108 1368.955081 230.030588 C1375.518314 235.446054 1382.585208 240.326898 1389.835575 244.784311 C1391.838260 246.015482 1396.222415 246.034799 1397.899417 244.652017 C1403.758670 239.820871 1409.710941 234.706216 1414.090946 228.597284 C1417.889774 223.299036 1418.299808 215.993677 1413.341556 210.937936 C1408.225467 205.721094 1401.630985 202.176202 1394.029056 201.061761 C1383.536014 199.523477 1372.933353 198.338953 1362.672122 195.808801 C1358.577396 194.799127 1354.513553 191.199136 1351.777347 187.722467 C1347.675052 182.509775 1343.390872 176.753091 1341.628787 170.534921 C1338.377567 159.062051 1339.441898 147.430414 1346.037967 136.905374 C1348.448978 133.058237 1350.912479 129.240671 1353.462772 125.484842 C1360.094364 115.718652 1370.160160 111.710748 1381.064456 109.063242 C1384.366214 108.261552 1387.579227 107.093912 1391.332889 106.093927 z"/><path class="selected"  fill="#000000" opacity="1.000000" stroke="none" 
 	d="
M850.332889 265.093942 C850.666202 251.399759 851.206180 238.206430 851.261600 225.011072 C851.299747 215.927621 850.536624 206.843729 850.369388 197.755655 C850.202762 188.702280 850.359928 179.643350 850.323184 170.587060 C850.299381 164.723016 848.210514 163.221826 842.485599 164.352106 C840.643070 164.715906 838.623844 164.250635 836.692081 164.086450 C825.105960 163.101572 813.511356 162.200510 801.940433 161.059503 C793.025333 160.180383 789.932559 153.346033 787.325687 146.137659 C786.124454 142.815988 785.901798 139.840417 788.792789 137.040643 C791.701175 134.224115 793.925785 132.327447 798.858890 133.812738 C810.236087 137.238397 822.143558 137.750284 834.022342 137.072946 C843.917911 136.508707 853.807254 135.818002 863.691593 135.079523 C876.280765 134.138986 888.875736 133.237482 901.443058 132.052850 C913.574283 130.909311 925.682743 129.503213 937.781497 128.048563 C941.504154 127.600961 945.321903 125.256265 948.592655 128.920877 C949.717655 130.181284 951.009037 131.726022 951.231693 133.282877 C952.140995 139.638162 953.079471 146.040857 953.196292 152.440866 C953.282474 157.163919 948.067630 160.175577 940.768558 160.055658 C929.238651 159.866235 917.714298 159.308786 906.184207 159.156488 C901.994449 159.101144 897.730472 159.421732 893.621891 160.207040 C890.630069 160.778924 888.031620 162.273248 888.255741 166.380228 C888.564029 172.029611 888.509525 177.715005 888.298831 183.373376 C887.731815 198.599695 887.044254 213.822000 886.318973 229.041818 C885.720462 241.601205 884.965702 254.153146 884.356388 266.712076 C884.200321 269.928079 883.960575 273.210001 884.401554 276.372079 C885.818973 286.536020 870.145877 293.888711 861.010745 287.667795 C852.679203 281.994180 849.427982 275.115457 850.332889 265.093942 z"/><path class="selected"  fill="#000000" opacity="1.000000" stroke="none" 
 	d="
M1231.332889 354.093942 C1239.780277 353.427286 1247.749881 352.045633 1255.668949 352.291330 C1263.890140 352.546335 1272.309818 353.509378 1280.187137 355.758523 C1288.216922 358.051126 1290.092166 365.089548 1286.925174 375.001749 C1284.764896 381.763223 1278.859134 386.091196 1271.777835 386.093179 C1261.111576 386.096170 1250.437259 385.834421 1239.781620 386.169717 C1229.880252 386.481271 1219.983524 387.275064 1210.126224 388.267587 C1208.741214 388.407022 1206.506961 390.886484 1206.507328 392.282236 C1206.510013 401.977151 1207.036136 411.670908 1207.317020 421.367319 C1207.451908 426.022531 1208.522953 426.486734 1213.161869 426.191965 C1224.529422 425.469583 1235.948001 425.022012 1244.572025 434.782938 C1248.376834 439.089334 1248.195438 443.199838 1244.538211 447.525644 C1240.274662 452.568613 1235.317508 454.660409 1228.702884 454.221658 C1223.884403 453.902078 1218.975467 454.640695 1214.130496 455.136362 C1210.926029 455.464181 1208.850467 456.859842 1209.276248 460.770944 C1210.133060 468.640420 1211.212772 476.546976 1211.186649 484.434885 C1211.157718 493.159372 1210.864017 502.067941 1209.033939 510.539560 C1207.702396 516.704050 1202.375614 521.532846 1195.744876 521.827951 C1190.466312 522.062997 1184.326786 520.024789 1181.996707 514.840036 C1180.125492 510.675973 1180.218753 505.323068 1180.515506 500.564767 C1180.928958 493.938180 1182.960819 487.394601 1183.180545 480.778329 C1183.468631 472.104074 1182.334842 463.390909 1182.404178 454.699228 C1182.535037 438.287424 1180.207889 422.181039 1177.392826 406.089731 C1176.751590 402.424722 1176.966556 398.617990 1176.608524 394.893686 C1175.917362 387.704050 1173.854373 380.380197 1174.677616 373.384744 C1175.525882 366.177377 1180.604129 360.572061 1186.726810 355.972208 C1193.933109 350.558328 1201.440921 351.642892 1209.248416 353.082315 C1209.731937 353.171487 1210.247318 353.072671 1210.746097 353.097147 C1217.441898 353.425699 1224.137332 353.760599 1231.332889 354.093942 z"/><path class="selected"  fill="#000000" opacity="1.000000" stroke="none" 
 	d="
M1498.582889 175.843942 C1499.332767 180.382486 1500.005252 184.659235 1500.299442 188.961847 C1501.065921 200.167734 1501.473270 211.400934 1502.397464 222.592386 C1503.066776 230.697259 1504.470829 238.739130 1505.274662 246.836191 C1505.673831 250.858408 1505.520267 254.938211 1502.013187 257.958841 C1501.314945 258.560251 1500.388065 259.489358 1500.410770 260.241952 C1500.611209 266.901071 1495.362918 269.404092 1490.788455 270.765970 C1485.829593 272.242319 1480.457645 271.379861 1475.924076 267.337961 C1468.124271 260.383737 1465.145389 250.488992 1468.274173 240.187631 C1469.004764 237.782266 1469.241703 235.158502 1469.294437 232.626627 C1469.698001 213.285043 1470.484622 193.933694 1470.180179 174.600702 C1469.934818 159.018518 1468.663700 143.426614 1467.204715 127.899438 C1466.373661 119.056085 1481.384037 108.745966 1489.324954 114.992349 C1493.224124 118.059549 1494.674808 121.799051 1494.519290 126.804910 C1494.299198 133.895120 1495.285037 141.032007 1495.914066 148.134912 C1496.178104 151.117105 1497.057865 154.047113 1497.288944 157.029398 C1497.767704 163.207452 1497.999637 169.404626 1498.582889 175.843942 z"/><path class="selected"  fill="#000000" opacity="1.000000" stroke="none" 
 	d="
M428.582889 509.843942 C434.802799 515.196786 433.883975 519.191049 426.268436 522.200876 C425.327640 522.572702 425.006473 524.431039 424.319339 525.552194 C423.776432 526.437936 423.112491 527.249460 422.502323 528.093942 C422.086856 527.234994 421.678104 526.372629 421.249454 525.520334 C421.178653 525.379526 420.904483 525.262338 420.920597 525.167795 C421.841678 519.773447 420.360843 515.218332 416.502567 511.289194 C416.360721 511.144784 418.753299 507.305490 419.900943 507.339487 C422.731388 507.423532 425.524662 508.760629 428.582889 509.843942 z"/><path class="selected"  fill="#000000" opacity="1.000000" stroke="none" 
 	d="
M1307.082889 606.843942 C1309.971561 604.739206 1312.768924 604.413400 1314.727909 607.179330 C1315.769657 608.649911 1315.666263 610.931589 1316.079715 612.847177 C1314.564945 612.929391 1313.051029 613.043283 1311.535160 613.084970 C1310.043094 613.126047 1308.263797 613.618173 1307.112064 612.991098 C1304.189823 611.400217 1304.646976 609.177988 1307.082889 606.843942 z"/></svg>