<?xml version="1.0" encoding="utf-8"?><!DOCTYPE svg PUBLIC "-//W3C//DTD SVG 1.1//EN" "http://www.w3.org/Graphics/SVG/1.1/DTD/svg11.dtd"><svg version="1.1" id="Contours" xmlns="http://www.w3.org/2000/svg" xmlns:xlink="http://www.w3.org/1999/xlink" x="0px" y="0px" width="2313.270996px" height="2313.270996px" viewBox="0.000000 0.000000 2313.270996 977.900757" enable-background="new 0 0 2313.270996 2313.270996" xml:space="preserve" stroke="black" fill="none" stroke-linecap='round' stroke-linejoin='round'><path class="selected"  fill="#000000" opacity="1.000000" stroke="none" 
 	d="
M946.619738 487.750000 C949.619677 481.159729 952.620287 475.069763 955.618212 468.978485 C955.817247 468.574219 955.889391 467.924194 956.199022 467.784637 C962.989183 464.724548 964.708055 457.991699 967.625048 452.125336 C967.969957 451.431732 968.231981 450.379089 968.793627 450.158875 C976.659227 447.074188 981.928270 439.108856 990.591478 437.924835 C995.319262 437.278748 1000.287951 438.480438 1005.154589 438.705170 C1006.373156 438.761414 1008.248522 438.687286 1008.744432 437.949127 C1011.385668 434.017609 1015.244860 434.731812 1018.994738 434.742981 C1026.827623 434.766235 1034.663195 434.879761 1042.492418 434.712067 C1049.748400 434.556641 1057.021227 433.545685 1064.244249 433.866577 C1077.571154 434.458618 1091.081896 434.623444 1104.107286 437.108612 C1114.416246 439.075531 1124.516222 438.272583 1134.692369 438.649353 C1146.399401 439.082825 1158.136705 438.878479 1169.857409 438.710571 C1179.778673 438.568451 1189.693590 437.861938 1199.613756 437.795349 C1221.392565 437.649139 1243.173449 437.667511 1264.952501 437.795929 C1272.315660 437.839325 1279.673204 438.608459 1287.037828 438.706573 C1299.092028 438.867188 1311.151476 438.645233 1323.205919 438.795044 C1329.070787 438.867950 1334.932238 439.727692 1340.790636 439.680389 C1350.711290 439.600372 1360.629381 439.112274 1370.546495 438.740662 C1378.190783 438.454193 1385.829088 437.976257 1393.475084 437.783112 C1399.861071 437.621796 1406.264269 437.976410 1412.642443 437.700195 C1423.930529 437.211304 1435.200548 436.304810 1446.488756 435.821625 C1449.663805 435.685730 1452.900255 436.842072 1456.065783 436.660675 C1462.473131 436.293518 1468.845690 434.935974 1475.242662 434.863464 C1484.656237 434.756744 1494.076403 435.549561 1503.497911 435.685638 C1507.353991 435.741333 1511.214464 434.965240 1515.083239 434.774353 C1523.440783 434.361969 1531.803209 433.892181 1540.166857 433.820190 C1545.358507 433.775452 1550.586657 434.944794 1555.745104 434.647125 C1569.125719 433.875000 1582.611193 434.162537 1595.796862 430.885101 C1598.257067 430.273621 1601.179918 431.833160 1603.843248 431.664337 C1609.594103 431.299896 1615.303820 430.315521 1621.052599 429.873138 C1624.912096 429.576141 1628.809435 429.759979 1632.689928 429.753052 C1639.080065 429.741669 1645.473619 429.880066 1651.859362 429.713348 C1658.225328 429.547211 1664.581408 428.889526 1670.945787 428.820435 C1674.970079 428.776764 1679.011461 429.791321 1683.028429 429.686951 C1703.421251 429.157166 1723.806505 428.336365 1744.198961 427.788239 C1752.749498 427.558411 1761.332750 427.381104 1769.860704 427.876129 C1775.817369 428.221863 1781.799791 429.377533 1787.600084 430.845459 C1794.639513 432.627106 1800.198595 440.891174 1800.724474 447.895966 C1801.246569 454.850525 1803.203966 461.719971 1803.456163 468.665833 C1803.709826 475.659149 1803.615343 482.945984 1801.925890 489.664795 C1799.224230 500.409424 1795.600328 511.003296 1791.417589 521.274597 C1785.611437 535.531738 1778.676500 549.325989 1772.706408 563.520935 C1768.588732 573.311707 1765.445787 583.508179 1761.554308 593.400269 C1759.527452 598.552673 1756.701281 603.384583 1754.454576 608.458008 C1751.400133 615.355530 1748.655382 622.390442 1745.590075 629.282959 C1742.772081 635.619507 1739.435534 641.736389 1736.840807 648.157471 C1734.992907 652.729858 1734.037462 657.658691 1732.598497 662.402588 C1732.063463 664.166321 1731.384264 665.902344 1730.603136 667.572510 C1726.554186 676.230042 1722.585558 684.929077 1718.330065 693.484802 C1713.799669 702.592651 1708.901232 711.517029 1704.343859 720.611877 C1703.251207 722.792236 1703.016344 725.385071 1702.139757 727.694336 C1699.024035 735.900940 1695.687731 744.025208 1692.666246 752.265442 C1691.070665 756.616699 1690.143053 761.212280 1688.560534 765.569214 C1687.258898 769.153015 1685.394396 772.529297 1683.852526 776.029724 C1680.748522 783.076050 1677.264635 789.992859 1674.711290 797.235962 C1669.732653 811.358704 1665.478991 825.736084 1660.565294 839.882935 C1655.712267 853.855103 1650.496080 867.703613 1645.262194 881.539490 C1643.685289 885.707825 1641.164293 889.530457 1639.711168 893.731262 C1637.988634 898.710693 1637.088366 903.967712 1635.591784 909.033630 C1632.348742 920.012146 1628.828478 930.910156 1625.700548 941.920410 C1624.835680 944.964478 1624.493883 948.318481 1624.706285 951.476868 C1625.335558 960.835083 1620.411730 963.687073 1613.090929 965.785400 C1605.809801 967.872314 1598.707750 970.669617 1591.343859 972.354980 C1585.847033 973.613098 1580.163195 976.937195 1574.352037 973.017090 C1573.993883 972.775330 1573.347765 972.626282 1572.980944 972.780273 C1564.165148 976.482300 1555.811388 969.712524 1547.030138 971.702454 C1540.993273 973.070374 1534.644884 973.348572 1528.811632 975.260864 C1520.411608 978.014587 1512.270861 978.700684 1503.567492 976.908081 C1497.878649 975.736450 1491.880236 975.999084 1486.014635 975.768677 C1475.822618 975.368225 1465.627916 974.960144 1455.430529 974.813110 C1451.574327 974.757568 1447.639879 976.041321 1443.859484 975.629272 C1433.749987 974.527283 1423.971422 977.300110 1414.035509 977.535706 C1402.676744 977.804993 1391.292223 977.103699 1379.921862 976.733337 C1372.390856 976.488037 1364.867540 976.001892 1357.336168 975.773560 C1350.243395 975.558533 1343.220812 976.016357 1336.039537 975.059509 C1328.275133 974.024963 1320.270494 974.712158 1312.300646 974.037109 C1299.611437 972.962280 1286.763170 973.638245 1273.984728 973.794312 C1266.953600 973.880188 1259.902330 974.958740 1252.905382 974.628662 C1241.075670 974.070679 1228.862902 974.301819 1217.604723 971.261963 C1208.499743 968.803650 1199.660021 970.947144 1190.726061 969.128540 C1184.400377 967.840881 1177.367540 970.286499 1170.627794 970.661743 C1167.404161 970.841248 1164.131212 969.835999 1160.875353 969.795898 C1150.710924 969.670776 1140.541735 969.620483 1130.378405 969.784668 C1119.124254 969.966492 1107.875719 970.578064 1096.621935 970.682678 C1090.930529 970.735535 1085.219469 969.662598 1079.540514 969.841125 C1069.075914 970.170166 1058.633898 971.165894 1048.170885 971.624634 C1044.946276 971.766052 1041.659655 970.649231 1038.445299 970.841797 C1032.811632 971.179321 1027.225206 972.283813 1021.591906 972.662231 C1018.931200 972.841003 1016.190844 971.699646 1013.515368 971.816162 C1001.728380 972.329529 989.956102 973.525513 978.170458 973.637390 C963.647264 973.775391 949.025316 973.957581 934.618273 972.461731 C923.898119 971.348816 913.642809 973.627686 903.161242 973.734558 C895.438707 973.813354 887.713732 973.686829 879.991930 973.795654 C878.125780 973.821960 876.269945 974.688477 874.405443 974.704529 C864.631212 974.788818 854.837328 975.084412 845.086962 974.587585 C838.296862 974.241577 831.557299 972.791687 824.810228 971.738098 C812.206774 969.770020 799.145739 971.720581 786.824572 966.896240 C783.507555 965.597473 779.486864 966.127258 775.800219 965.718384 C774.905870 965.619263 773.633532 965.389709 773.249132 964.774170 C769.097094 958.126038 762.659472 952.992065 760.913622 944.700867 C759.816271 939.489319 763.191698 936.119446 764.713366 932.041626 C768.426134 922.091980 772.772570 912.379333 776.518053 902.440979 C777.522814 899.775085 777.276598 896.640320 777.622667 893.722900 C777.942492 891.026184 778.094042 888.290710 778.665758 885.647217 C779.485582 881.856079 780.538805 878.108765 781.645617 874.388367 C782.516893 871.459778 783.800219 868.648193 784.586229 865.700806 C787.018785 856.579041 789.101915 847.422607 793.686144 838.947510 C796.141832 834.407593 796.753405 828.907532 798.715075 824.049927 C800.039354 820.770569 802.628160 818.008667 804.008104 814.743408 C806.164904 809.639709 806.861071 803.703674 809.821154 799.202026 C815.076525 791.209778 815.660692 781.396484 821.763842 773.578979 C826.859362 767.052185 829.686449 758.637695 832.945360 750.820435 C838.148546 738.339172 842.763475 725.613647 847.879686 713.094604 C849.276659 709.676208 851.074083 706.146973 853.581224 703.521851 C857.220385 699.711365 858.624437 694.986633 860.611437 690.455933 C866.301744 677.481079 871.966356 664.494934 877.613817 651.501343 C880.314379 645.287781 882.784227 638.967773 885.667589 632.841553 C888.495104 626.833984 891.985704 621.132568 894.700487 615.079468 C899.036242 605.412537 903.088732 595.613220 907.044115 585.782654 C911.690233 574.234985 916.247667 562.646912 920.556993 550.970520 C922.589525 545.463013 923.484179 539.514648 925.720018 534.107361 C930.014757 523.720642 934.875780 513.567017 939.546373 503.337036 C941.853075 498.284668 944.258837 493.277588 946.619738 487.750000 M1313.119738 734.750000 C1306.600084 737.810120 1300.866564 734.289490 1295.763414 731.544373 C1286.582872 726.605774 1278.013048 720.510010 1269.301989 714.726135 C1258.718493 707.699036 1248.291613 700.436340 1237.714952 693.398560 C1234.097033 690.991211 1230.132433 689.106445 1226.499620 686.719116 C1218.535509 681.485535 1210.492052 676.340515 1202.838366 670.676331 C1195.459337 665.215271 1186.757189 661.696777 1180.539660 654.435974 C1177.415148 650.787109 1172.747789 648.478699 1168.856066 645.463379 C1162.556993 640.582947 1156.262438 635.692993 1150.084337 630.661682 C1146.692614 627.899475 1143.653917 624.702759 1140.254259 621.951355 C1136.558336 618.960388 1132.544909 616.364258 1128.816637 613.410645 C1118.680285 605.380127 1109.322252 596.058899 1098.288683 589.576050 C1090.770250 585.158691 1085.639635 579.084900 1079.730700 573.393188 C1074.998034 568.834412 1069.161119 565.070557 1065.586168 559.760925 C1062.044054 554.499756 1057.347887 550.634033 1053.361925 545.981445 C1052.741442 545.257080 1052.274767 544.390747 1051.608019 543.717773 C1044.668566 536.713501 1037.717028 529.721130 1030.730089 522.764221 C1029.592150 521.631287 1028.235949 520.721191 1027.031481 519.650818 C1021.831408 515.028809 1016.771837 510.238953 1011.420763 505.799866 C1007.655931 502.676697 1003.376268 500.177979 999.571337 497.097900 C997.169359 495.153503 995.802965 494.903870 994.583361 498.126526 C993.068102 502.130676 991.232347 506.012207 989.630480 509.985229 C985.772997 519.552551 982.087206 529.190735 978.107653 538.706543 C975.266466 545.500427 971.989061 552.110657 969.040331 558.861328 C966.575792 564.503540 964.605333 570.378479 961.887621 575.889709 C956.081041 587.664734 949.756517 599.185242 943.997362 610.982361 C941.100389 616.916504 939.019396 623.245850 936.482042 629.360229 C935.301867 632.204224 932.749376 635.004761 932.850451 637.750244 C933.097765 644.469116 927.789415 648.328613 925.709154 653.815918 C922.170580 663.149780 916.928514 671.825256 912.658129 680.897766 C908.329882 690.093201 904.342394 699.448486 900.148485 708.707886 C896.345568 717.103943 892.455309 725.460449 888.631090 733.846985 C888.057177 735.105591 887.725328 736.476929 887.126390 737.721497 C882.980577 746.337585 878.601122 754.847351 874.678026 763.562866 C871.267870 771.138794 868.439867 778.974487 865.201281 786.630554 C862.801561 792.303284 860.054064 797.828674 857.643236 803.496948 C853.847155 812.421814 850.318834 821.461365 846.464830 830.360474 C842.241747 840.111755 837.714891 849.731140 833.438829 859.460022 C830.155931 866.929382 827.431932 874.667603 823.783861 881.947754 C818.872850 891.748413 813.308397 901.221375 808.033800 910.840210 C806.545641 913.554199 803.419481 916.721619 803.990709 918.913086 C804.976976 922.697205 809.814562 920.842163 812.790636 921.895508 C826.304308 926.678894 840.672960 925.854004 854.535570 928.140015 C869.059313 930.534973 884.388170 928.243408 899.353319 927.683105 C906.923510 927.399658 914.475817 925.828186 922.020678 925.935181 C928.118273 926.021667 934.158617 928.161072 940.284044 928.668823 C955.346605 929.917297 970.434740 930.925720 985.530199 931.678894 C993.565905 932.079895 1001.663561 931.360657 1009.685167 931.883545 C1015.262865 932.247131 1020.777575 933.776306 1026.284533 934.952759 C1029.928453 935.731201 1033.466906 937.039612 1037.126696 937.699036 C1043.678698 938.879822 1050.259264 940.090027 1056.881334 940.625732 C1061.021837 940.960632 1065.257921 939.869873 1069.455675 939.821655 C1072.479479 939.786926 1075.516954 940.740540 1078.537828 940.684998 C1085.626085 940.554749 1092.709093 940.105469 1099.792101 939.743164 C1105.654772 939.443359 1111.511339 938.876343 1117.375841 938.794556 C1128.428820 938.640198 1139.493517 939.008911 1150.538561 938.673157 C1160.495592 938.370483 1170.433702 936.877380 1180.378405 936.896240 C1191.101549 936.916504 1201.821032 938.108765 1212.544786 938.743164 C1224.322008 939.439819 1236.097765 940.182434 1247.882555 940.720398 C1258.293322 941.195557 1268.729723 941.192871 1279.127306 941.841797 C1284.545641 942.180115 1290.112291 939.913025 1295.406847 942.713135 C1295.927599 942.988586 1296.724840 942.799927 1297.386217 942.741699 C1300.972887 942.425903 1304.562243 941.756897 1308.141344 941.811218 C1318.894518 941.974670 1329.641954 942.483765 1340.394518 942.724365 C1346.671251 942.864929 1353.202868 941.648438 1359.176867 943.000305 C1368.874132 945.194763 1378.407091 943.185669 1387.988512 943.696350 C1393.528917 943.991638 1399.099474 943.832581 1404.653917 943.734497 C1421.070910 943.444641 1437.486559 943.085999 1453.902697 942.744324 C1455.042467 942.720642 1456.180285 942.565247 1457.319445 942.558655 C1464.163805 942.519104 1471.013048 942.333862 1477.850939 942.534180 C1483.848742 942.709839 1489.925890 944.180725 1495.802111 943.545227 C1504.112535 942.646240 1512.126451 940.112488 1520.758165 940.565979 C1529.965929 941.049866 1539.356066 940.834351 1548.472277 939.547791 C1558.442247 938.140808 1568.279284 936.265625 1578.429796 936.549194 C1579.787584 936.587097 1581.723619 934.134583 1582.503527 932.429138 C1583.713488 929.783081 1583.627672 926.486511 1585.035997 924.001038 C1588.334581 918.179626 1592.646349 912.910645 1595.716906 906.987122 C1600.035753 898.656006 1603.636339 889.950073 1607.455187 881.364807 C1608.078112 879.964050 1608.075670 878.292786 1608.646471 876.859802 C1612.577501 866.990845 1616.674181 857.186707 1620.495714 847.276306 C1621.331530 845.109131 1620.820665 842.409851 1621.703844 840.276001 C1625.648180 830.745117 1629.604967 821.201233 1634.077623 811.912598 C1637.962999 803.843140 1638.283434 794.668884 1644.265612 787.009705 C1649.727037 780.017517 1652.716417 770.969177 1656.190172 762.576599 C1662.892199 746.384460 1669.033678 729.960938 1675.678087 713.744202 C1678.828112 706.055786 1680.564684 697.929199 1685.356554 690.692749 C1689.611071 684.267639 1691.544909 676.323059 1694.645494 669.110474 C1696.764147 664.182190 1699.227404 659.402161 1701.347643 654.474548 C1702.928942 650.799622 1704.078722 646.938843 1705.666368 643.267029 C1706.767931 640.719604 1708.515612 638.447632 1709.578478 635.888184 C1713.416124 626.646423 1717.132677 617.353333 1720.796373 608.040894 C1722.206652 604.456055 1722.845079 600.471497 1724.750597 597.202454 C1727.038439 593.277283 1727.170519 589.237366 1727.840929 584.992004 C1728.996202 577.676514 1731.588243 570.594177 1733.464708 563.384705 C1735.581285 555.252136 1738.447130 547.182007 1739.344591 538.906616 C1740.068224 532.233459 1742.227160 526.472656 1745.133654 520.723083 C1745.474840 520.048096 1745.698351 519.313477 1745.976305 518.606506 C1744.956163 518.388916 1743.597399 517.641479 1742.971910 518.041321 C1739.382799 520.335815 1735.420153 522.399780 1732.597643 525.472778 C1724.766466 533.998779 1713.927599 537.676697 1704.534777 543.631897 C1695.610460 549.289917 1685.904894 553.701904 1676.839952 559.155640 C1668.647081 564.084778 1660.983141 569.888611 1652.838732 574.905457 C1647.948961 577.917542 1642.423937 579.886108 1637.468493 582.805969 C1626.459581 589.292847 1615.706285 596.213135 1604.700670 602.705750 C1596.966051 607.268799 1588.964098 611.376648 1581.124376 615.764404 C1574.083117 619.705261 1567.060656 623.683472 1560.106188 627.774780 C1555.800035 630.308228 1551.843737 633.516235 1547.367052 635.664246 C1536.399645 640.926636 1525.221422 645.749939 1514.128160 650.749878 C1503.034777 655.749939 1491.860582 660.580200 1480.875719 665.808105 C1473.204332 669.458984 1465.804552 673.678406 1458.253771 677.586609 C1456.618395 678.433105 1454.878527 679.094177 1453.148546 679.738403 C1448.960680 681.298035 1444.541246 682.386902 1440.588976 684.399597 C1429.699816 689.945007 1419.244493 696.394653 1408.156237 701.480652 C1398.522692 705.899414 1388.280748 709.005737 1378.264025 712.569519 C1373.413683 714.295227 1368.371813 715.504700 1363.581285 717.370789 C1357.560167 719.716370 1351.791491 722.715820 1345.752550 725.008118 C1341.852037 726.488708 1336.749132 726.089294 1333.794298 728.502686 C1327.822374 733.380188 1321.763536 736.044189 1313.119738 734.750000 M1562.119738 587.750000 C1568.012926 585.083374 1574.144030 582.835083 1579.744127 579.652649 C1588.289782 574.796448 1596.516344 569.369019 1604.790270 564.046997 C1614.149523 558.027039 1623.253771 551.595215 1632.767931 545.836243 C1639.763170 541.602051 1647.116930 537.900146 1654.532579 534.435730 C1663.591417 530.203674 1670.294298 522.004333 1680.334826 519.458252 C1682.384874 518.938416 1684.310534 517.760193 1686.164415 516.666809 C1691.310045 513.631958 1696.492907 510.639832 1701.461046 507.330627 C1705.946154 504.343201 1709.790148 500.150757 1714.582140 497.916809 C1724.850328 493.129883 1732.097399 484.655457 1740.815538 478.004639 C1741.460802 477.512360 1741.799791 476.618530 1742.281237 475.911438 C1741.441637 475.524292 1740.620714 474.849731 1739.759508 474.793549 C1728.540026 474.061279 1717.321398 473.033142 1706.089464 472.836914 C1687.704699 472.515686 1669.309801 472.801758 1650.919909 472.704803 C1647.389635 472.686218 1643.822863 471.576202 1640.341661 471.848877 C1631.342394 472.553833 1622.400133 474.005524 1613.398912 474.662292 C1607.151110 475.118134 1600.840197 474.626068 1594.562975 474.779907 C1585.807604 474.994476 1577.055651 475.374756 1568.305651 475.764923 C1562.607042 476.019012 1556.916857 476.469482 1551.218004 476.720642 C1549.293932 476.805450 1547.353991 476.450256 1545.422594 476.464111 C1536.740343 476.526398 1528.058458 476.652466 1519.376451 476.745728 C1518.311144 476.757172 1517.241198 476.638794 1516.180651 476.701752 C1510.658800 477.029572 1505.108385 477.944336 1499.625963 477.632751 C1489.126818 477.036041 1478.672228 475.686768 1468.188341 474.775787 C1462.672472 474.296509 1457.131456 473.784241 1451.605333 473.821411 C1443.684435 473.874664 1435.768419 474.611053 1427.847033 474.679596 C1422.821764 474.723083 1417.786974 473.761078 1412.762682 473.815979 C1401.731798 473.936584 1390.706530 474.554413 1379.675646 474.685059 C1374.984972 474.740601 1370.290148 473.904541 1365.589708 473.792358 C1358.703112 473.627960 1351.806627 473.620483 1344.920031 473.784760 C1337.330675 473.965790 1329.746202 474.385651 1322.162340 474.756836 C1309.046862 475.398773 1295.936632 476.165863 1282.816515 476.684845 C1279.972155 476.797363 1277.077623 475.690948 1274.236559 475.819458 C1263.281115 476.314880 1252.345446 477.357574 1241.387804 477.651703 C1234.316149 477.841553 1227.219469 477.073853 1220.133165 476.752289 C1210.114000 476.297607 1200.439684 473.100922 1190.079821 474.451447 C1183.541002 475.303864 1176.615953 473.318756 1169.878649 472.488739 C1163.082628 471.651520 1156.322008 470.073029 1149.514879 469.874237 C1135.412706 469.462372 1121.288927 469.844055 1107.176134 469.704315 C1101.420885 469.647369 1095.670275 469.090820 1089.918444 468.747803 C1084.498766 468.424652 1079.079576 467.809875 1073.661242 467.822998 C1067.631945 467.837585 1061.605700 468.630646 1055.574816 468.678284 C1051.215807 468.712708 1046.851671 467.823181 1042.489733 467.823181 C1038.127794 467.823181 1033.768908 468.466827 1029.402208 468.718262 C1028.152697 468.790192 1026.881212 468.479553 1025.619738 468.344330 C1026.639269 469.479553 1027.539171 470.758209 1028.698351 471.726257 C1035.100695 477.072937 1041.613146 482.288208 1047.995714 487.658142 C1053.192614 492.030457 1058.340441 496.468384 1063.363512 501.038086 C1069.168322 506.319031 1074.787218 511.803894 1080.541979 517.140503 C1082.308702 518.778870 1084.114367 520.451477 1086.146593 521.714966 C1097.531969 528.793213 1107.604601 537.435059 1117.235460 546.720764 C1122.510973 551.807251 1128.417223 556.262634 1134.211779 560.781067 C1139.941759 565.249146 1146.108385 569.173950 1151.696520 573.804138 C1164.012804 584.009338 1176.098009 594.493774 1188.251574 604.894836 C1193.412096 609.311157 1198.084215 614.452698 1203.720201 618.126526 C1215.337877 625.699768 1225.391466 634.963135 1235.084093 644.721130 C1243.382677 653.075745 1252.346056 660.587769 1262.269884 666.978333 C1266.400499 669.638367 1270.137194 672.901733 1274.151232 675.752747 C1281.864611 681.231445 1290.586535 685.673279 1297.174547 692.260864 C1306.218859 701.304688 1315.584703 703.549133 1327.069323 698.798950 C1336.175646 695.032471 1345.213488 691.089050 1354.401842 687.534607 C1363.362535 684.068176 1372.528551 681.133606 1381.498766 677.690186 C1385.803698 676.037659 1389.871935 673.764771 1394.034899 671.747314 C1407.776964 665.087769 1421.531359 658.453857 1435.246325 651.738953 C1447.720324 645.631592 1460.108507 639.347412 1472.615587 633.309326 C1478.436632 630.499023 1484.429308 628.038696 1490.383043 625.511353 C1494.209337 623.887207 1498.261827 622.731567 1501.940050 620.836182 C1510.060045 616.651794 1517.753771 611.552856 1526.091784 607.901001 C1535.861681 603.622070 1543.777575 596.143921 1553.954576 592.664734 C1556.692736 591.728638 1559.074450 589.750061 1562.119738 587.750000 z"/><path class="selected"  fill="#000000" opacity="1.000000" stroke="none" 
 	d="
M1948.619738 97.750000 C1948.953112 93.555603 1949.730455 89.833099 1949.499010 86.174438 C1949.250841 82.251816 1950.477037 79.371368 1953.586290 77.334648 C1958.779528 73.932640 1964.544420 71.144501 1970.737535 71.935410 C1977.420397 72.788841 1983.052721 78.132645 1983.546740 86.455772 C1984.300524 99.153748 1987.082262 111.299530 1990.195299 123.649933 C1994.135973 139.284088 2000.581652 153.755035 2006.844713 168.307129 C2012.024523 180.342834 2019.640734 191.308350 2025.301622 203.166107 C2029.213366 211.359818 2034.594957 217.790283 2041.539782 223.434998 C2044.202379 225.599182 2044.793566 228.855164 2044.097033 233.305634 C2043.119127 239.554901 2040.395617 243.743195 2036.204210 247.650635 C2032.345079 251.248535 2026.367785 249.884735 2022.591417 247.375549 C2020.955309 246.288544 2018.926867 245.808929 2017.219591 244.809113 C2011.333117 241.361694 2005.615953 237.612244 1999.636095 234.340240 C1991.642443 229.966309 1983.359850 226.117462 1975.394518 221.695297 C1968.044909 217.614883 1960.159044 217.019363 1952.033434 216.616913 C1947.765245 216.405487 1945.312853 218.610107 1943.723986 221.533310 C1939.096788 230.047668 1935.159410 238.936859 1930.534166 247.452423 C1928.154772 251.833099 1925.583849 256.571991 1921.861925 259.655060 C1915.978991 264.528290 1901.873522 261.942810 1897.356432 255.798615 C1896.250109 254.293488 1896.465075 251.802429 1896.121935 249.756378 C1895.932726 248.628021 1895.960192 247.448914 1895.641100 246.366058 C1895.552111 246.063843 1894.135118 245.787659 1894.075914 245.898804 C1893.499498 246.979523 1892.630602 248.177094 1892.708971 249.280182 C1892.902575 252.013245 1891.651720 252.867401 1889.249620 253.855896 C1881.436998 257.070801 1873.822863 254.620178 1866.875841 248.899048 C1860.528673 243.671906 1856.753771 237.429443 1854.464220 229.997253 C1853.132311 225.673370 1852.191881 221.158676 1851.704943 216.661667 C1851.032091 210.447479 1851.133165 204.152664 1850.568224 197.922714 C1850.021471 191.894135 1849.014025 185.908493 1848.284044 179.894867 C1847.965807 177.273468 1847.773546 174.632599 1847.631701 171.994766 C1847.262804 165.136337 1846.933702 158.275558 1846.632311 151.413803 C1846.549547 149.527390 1846.777330 147.615646 1846.556871 145.751663 C1846.437120 144.739288 1845.674547 143.802933 1845.202013 142.832275 C1844.674547 143.558731 1843.954821 144.212585 1843.649035 145.022736 C1840.108385 154.406128 1833.916979 162.409363 1830.927843 172.302261 C1828.965441 178.796829 1824.355455 184.838303 1822.660631 191.810638 C1820.813707 199.407944 1819.585192 207.164276 1817.532946 214.700363 C1815.605822 221.777496 1807.089098 225.539917 1799.980944 225.007355 C1793.787096 224.543335 1789.646227 221.701843 1786.063829 217.514267 C1784.433336 215.608551 1783.612413 212.884262 1782.826036 210.403931 C1778.979845 198.273895 1773.126085 187.092346 1767.365831 175.800720 C1761.892321 165.071381 1757.484484 153.797913 1752.624498 142.756516 C1751.259996 139.656647 1750.116564 136.441422 1748.490465 133.489075 C1748.138048 132.849274 1745.837023 132.587967 1744.988634 133.090302 C1743.904406 133.732269 1743.145617 135.236755 1742.664293 136.525513 C1741.207750 140.426239 1739.646105 144.329956 1738.694567 148.366623 C1737.395128 153.880493 1736.348375 159.485886 1735.685289 165.110062 C1734.759020 172.968109 1733.486681 180.915298 1733.836046 188.758743 C1734.214098 197.246964 1736.286974 205.659668 1737.619493 214.105484 C1739.204943 224.156830 1741.971910 234.112885 1739.647326 244.447601 C1738.614977 249.037384 1732.255968 253.384186 1727.124620 252.750336 C1711.029772 250.762299 1709.568956 244.705719 1707.631945 230.610382 C1706.235826 220.449921 1704.329088 210.306213 1703.799791 200.095428 C1703.296618 190.388626 1704.003405 180.583710 1704.715075 170.861237 C1705.223986 163.907837 1706.363268 156.969803 1707.687609 150.114975 C1709.196032 142.306458 1710.349352 134.255264 1713.226305 126.925522 C1717.655382 115.641724 1723.405626 104.875183 1728.646593 93.913681 C1729.117174 92.929428 1729.784777 91.629524 1730.661974 91.314400 C1737.495958 88.859032 1743.928453 84.769592 1751.894518 87.643860 C1758.082018 89.876419 1761.015612 94.961731 1764.080797 99.877747 C1766.588121 103.899063 1768.106554 108.525970 1770.207750 112.813660 C1775.300402 123.205261 1780.583239 133.504715 1785.583605 143.939972 C1789.109606 151.298599 1792.258898 158.837128 1795.683825 166.245743 C1796.138903 167.230377 1797.176134 168.498230 1798.037706 168.574539 C1798.776598 168.639954 1799.926744 167.331696 1800.422838 166.383759 C1808.374376 151.188019 1816.311022 135.983612 1824.116686 120.712509 C1827.765368 113.574295 1831.189196 106.318680 1834.603624 99.063904 C1838.563829 90.649078 1846.636705 86.577774 1855.222643 88.874023 C1857.157824 89.391548 1859.038805 90.113441 1860.941271 90.750992 C1867.890856 93.079620 1869.638781 95.361984 1869.800158 102.285736 C1869.946276 108.556580 1871.693346 114.781189 1872.600695 121.045547 C1873.681627 128.508316 1874.935656 135.965744 1875.553331 143.471680 C1876.778917 158.368790 1877.555773 173.302246 1878.648424 188.211121 C1879.146105 195.002899 1879.502672 201.855667 1880.741808 208.528748 C1882.081041 215.739624 1883.913439 222.944855 1886.463366 229.805908 C1887.608995 232.888428 1891.039293 237.243591 1893.402941 237.224915 C1896.492296 237.200470 1900.312975 233.984375 1902.459337 231.121887 C1906.431749 225.824219 1909.446764 219.803375 1912.756090 214.024017 C1913.019274 213.564606 1912.708483 212.295731 1912.264513 211.996567 C1910.470446 210.787918 1908.452868 209.913864 1906.641710 208.726974 C1903.658922 206.772156 1901.171740 204.439163 1901.471666 200.392395 C1901.867662 195.048431 1903.674425 190.784210 1909.638048 189.760910 C1913.851183 189.037964 1918.149889 188.680771 1922.271105 187.619675 C1923.913683 187.196716 1925.994127 185.583466 1926.491564 184.060181 C1930.524035 171.713608 1934.638048 159.366394 1937.906115 146.805756 C1940.706652 136.042007 1942.352404 124.981247 1944.660875 114.084030 C1945.396837 110.609848 1946.683825 107.255737 1947.593737 103.813675 C1948.074327 101.995758 1948.286364 100.106842 1948.619738 97.750000 M1978.119738 175.750000 C1974.964586 167.684189 1969.526964 160.419067 1969.534899 151.225372 C1969.535265 150.756256 1968.702379 149.997452 1968.171373 149.912674 C1967.779650 149.850128 1967.006578 150.580948 1966.819689 151.106415 C1966.003405 153.400681 1965.232042 155.722351 1964.643541 158.083710 C1963.665392 162.009079 1962.960314 166.004562 1961.919420 169.911697 C1960.649523 174.678589 1958.960924 179.341583 1957.873644 184.144623 C1957.564684 185.509644 1958.686022 188.523651 1959.205919 188.536240 C1962.599718 188.618546 1966.002184 187.968323 1969.414049 187.784363 C1972.449083 187.620728 1975.564074 188.107437 1978.512682 187.577530 C1979.725328 187.359619 1981.586412 185.081375 1981.423571 184.000916 C1981.022081 181.336914 1979.619738 178.823776 1978.119738 175.750000 z"/><path class="selected"  fill="#000000" opacity="1.000000" stroke="none" 
 	d="
M805.369738 227.500000 C801.124010 231.650208 797.974962 236.286835 791.895678 237.917358 C785.696154 239.580200 780.016161 243.164032 773.823290 244.871582 C764.932604 247.322937 755.548571 248.108917 746.802843 250.931183 C735.461473 254.591003 723.681749 254.977692 712.255602 255.156158 C699.195910 255.360077 685.824022 255.436279 672.859118 250.895325 C666.006029 248.495056 659.970568 245.034760 653.735643 241.716644 C648.092577 238.713593 644.867540 231.073822 646.135485 224.681519 C646.282274 223.941315 645.823900 223.081024 645.646105 222.276398 C644.970690 222.812164 644.055101 223.213318 643.665148 223.909088 C642.536730 225.922485 641.913195 228.284088 640.520922 230.062317 C639.523546 231.336273 637.561266 231.821289 636.115465 232.787048 C634.661913 233.757996 633.000414 234.646729 631.970873 235.986908 C623.877062 246.522430 611.667284 249.832672 600.267321 254.862823 C592.378466 258.343750 584.034472 256.170288 576.163744 258.615509 C572.548021 259.738800 568.422106 260.017120 564.633837 259.632385 C554.985338 258.652405 545.387255 257.147003 535.786547 255.733093 C524.968126 254.139862 514.097399 252.775269 503.382311 250.643341 C493.784319 248.733612 484.315752 246.098389 474.883867 243.449463 C465.208330 240.732147 455.404894 238.209503 446.114916 234.466370 C439.270098 231.708435 432.498796 227.901398 426.909624 223.136688 C421.276567 218.334641 416.856188 211.983170 412.430010 205.926529 C407.588549 199.301743 409.816973 194.584656 418.085588 193.800797 C423.254717 193.310760 428.545397 193.397339 433.709215 193.928314 C435.588488 194.121552 437.939531 195.974747 438.906328 197.718689 C443.244616 205.544067 451.245928 207.809387 458.567980 210.593872 C468.951159 214.542496 479.673326 217.665405 490.383928 220.665207 C497.902483 222.770966 505.640856 224.094360 513.285387 225.747162 C522.590685 227.759033 531.849840 230.048828 541.227343 231.637543 C546.817675 232.584595 552.593004 232.571381 558.292040 232.710236 C565.177233 232.878052 572.161425 233.457672 578.936693 232.578705 C588.328844 231.360229 597.685167 229.305359 605.553392 223.328369 C610.207140 219.793228 610.740526 214.234039 606.985521 208.599777 C603.166674 202.869644 597.680101 199.263901 592.063280 195.433136 C579.323900 186.744598 564.873583 185.994003 550.541002 186.012619 C539.536425 186.026917 528.546984 188.534790 517.522753 189.658600 C515.074999 189.908112 512.487413 189.110321 510.002977 188.604370 C505.716906 187.731552 501.275988 187.189682 497.238115 185.632416 C491.789751 183.531189 486.423723 180.988037 481.449327 177.938110 C473.289232 172.935013 467.111315 165.904709 461.997240 157.754150 C456.694963 149.303589 457.692553 137.089981 465.249926 130.801849 C472.362505 124.883835 479.377794 118.633087 487.267382 113.920868 C496.493364 108.410492 506.245806 103.133942 516.467760 100.134232 C525.385790 97.517181 535.120775 96.361923 544.807482 98.626801 C550.539476 99.967026 557.025499 98.909500 562.336718 101.026733 C570.188585 104.156754 577.698900 108.596390 584.566881 113.566879 C588.497057 116.411209 587.250536 126.483337 583.605333 127.089355 C576.677477 128.241104 569.694750 132.260056 562.630541 125.975510 C559.946642 123.587830 555.023058 123.612808 551.068041 122.788284 C547.047472 121.950027 542.914171 123.780411 538.714586 121.044922 C536.624071 119.683151 532.461779 121.152069 529.335070 121.809052 C524.009996 122.927963 518.726366 124.289124 513.490587 125.778030 C504.184313 128.424454 498.960588 136.639557 492.036455 142.433945 C490.735735 143.522461 491.998369 149.546844 493.786974 152.093201 C498.601732 158.947876 505.704332 162.600052 514.233873 162.717514 C524.287401 162.855972 534.360460 163.092819 544.393419 162.618195 C550.179186 162.344452 555.895250 159.989395 561.655565 159.935120 C569.537645 159.860840 577.439257 161.012466 585.313829 161.820923 C586.601671 161.953125 587.893663 162.882904 589.011766 163.684082 C593.630297 166.993607 599.176073 167.331406 604.379442 168.878815 C614.410570 171.861877 622.934618 177.501022 629.623217 185.705032 C632.268908 188.950165 635.400011 191.899002 637.508959 195.457550 C640.273058 200.121460 642.229662 205.262238 644.575792 210.177750 C644.856676 210.766174 645.400805 211.228973 645.822924 211.750000 C646.088549 211.251434 646.671434 210.675827 646.571886 210.265900 C645.185167 204.555420 648.294115 199.747131 649.615892 194.584747 C650.966600 189.309143 651.197435 183.385620 653.846239 178.878754 C659.376024 169.470032 659.749071 158.034027 667.060045 149.176193 C670.020006 145.589859 672.847399 140.094223 670.913744 133.538193 C668.974840 126.964630 675.287401 123.297928 679.711473 119.848099 C686.211046 114.779877 693.710741 115.620712 701.146349 117.747208 C713.782824 121.361115 726.356737 124.256790 739.817797 122.269653 C749.435900 120.849823 759.318529 121.266388 769.073961 120.704254 C771.899706 120.541428 774.692797 119.822571 777.502489 119.368439 C787.428637 117.764084 796.533983 119.023514 804.020739 126.577698 C805.936571 128.510803 806.223131 129.882233 804.100328 131.823730 C798.583422 136.869598 792.710802 140.369415 784.690905 139.968857 C781.404222 139.804703 778.040575 142.226059 774.629686 143.175797 C771.910021 143.933060 768.841845 145.175827 766.319201 144.571533 C759.294359 142.888702 753.272264 147.557785 746.423632 146.887100 C742.244677 146.477859 737.936022 147.449646 733.681566 147.741684 C728.322924 148.109528 722.961657 148.642303 717.598742 148.677673 C713.406603 148.705322 709.210863 148.074524 705.015429 147.753311 C702.493700 147.560257 700.223497 147.719559 700.617296 151.231796 C700.635790 151.396362 700.690966 151.653290 700.609545 151.718781 C694.476610 156.653656 693.572069 164.478165 690.067003 170.861343 C689.337816 172.189362 689.092333 173.782990 688.623888 175.254196 C690.115282 175.426666 691.613329 175.790741 693.097033 175.739639 C701.014025 175.466980 708.928148 175.105240 716.841967 174.745514 C723.703661 174.433640 730.694933 173.130798 737.382555 174.052963 C742.682360 174.783783 747.348253 174.060349 752.164965 172.700607 C754.068834 172.163132 756.099291 171.411804 757.585009 170.173401 C763.001451 165.658493 768.608568 166.443741 774.409044 169.046722 C775.112719 169.362488 775.783251 169.751724 776.471910 170.101471 C784.395800 174.125504 784.482103 182.152130 777.760363 188.361908 C769.971849 195.557205 760.869249 197.887482 750.835436 198.806046 C738.868090 199.901611 726.956347 201.616318 714.984362 202.640671 C710.848619 202.994537 706.608873 201.929321 702.408434 201.816757 C700.390612 201.762695 698.355089 202.425003 696.325243 202.748245 C692.103075 203.420685 687.899950 204.364853 683.650805 204.675003 C678.898851 205.021881 676.133226 207.099350 676.782640 211.738800 C677.237047 214.985077 678.484484 218.725052 680.673998 220.993073 C684.751757 225.217010 689.751574 228.106384 696.281359 227.873871 C702.788683 227.642120 709.340075 228.783936 715.856737 228.637939 C721.425097 228.513123 726.981005 227.485657 732.525438 226.732422 C739.343798 225.806091 746.280260 225.291718 752.921984 223.627045 C763.745775 220.914185 775.038744 219.403503 784.490831 212.518082 C787.309191 210.465027 790.689989 208.846146 794.058153 207.961472 C799.695421 206.480789 804.569994 208.777878 808.272448 213.007309 C811.343859 216.515915 809.582933 220.160034 807.623278 223.595032 C806.934862 224.801636 806.286425 226.031006 805.369738 227.500000 z"/><path class="selected"  fill="#000000" opacity="1.000000" stroke="none" 
 	d="
M236.869738 562.500000 C252.673113 563.416687 268.234819 563.933228 283.777452 564.794006 C298.094957 565.586975 312.392076 566.748474 326.697985 567.750488 C340.947039 568.748474 355.185595 569.954651 369.448717 570.672546 C377.872942 571.096497 386.337908 570.860474 394.780626 570.705566 C399.312700 570.622375 403.838060 569.796448 408.363451 569.822510 C414.059069 569.855347 419.753313 570.711243 425.445055 570.678101 C433.197222 570.632935 440.944750 570.035278 448.697344 569.761536 C459.445482 569.382019 470.194475 568.950928 480.946795 568.786865 C491.889208 568.619934 502.836168 568.750000 513.781115 568.750000 C522.726549 568.750000 531.688768 568.400574 540.613634 568.828674 C555.433397 569.539612 570.227526 570.776245 585.036669 571.725830 C587.691820 571.896057 590.375231 571.615723 593.031847 571.773682 C603.256639 572.381775 613.469286 573.222168 623.699083 573.711609 C634.273973 574.217529 644.864916 574.379272 655.446215 574.762817 C662.808764 575.029663 670.183519 575.210815 677.523058 575.800232 C687.455919 576.597900 697.341722 578.118164 707.283495 578.621582 C714.000109 578.961670 720.776232 578.010864 727.530870 577.805542 C729.048143 577.759399 730.596544 578.374939 732.112108 578.759094 C733.157518 579.024170 734.169176 579.699707 735.199022 579.706238 C746.252977 579.776489 757.432970 580.764404 768.321276 579.419495 C776.593554 578.397766 784.003710 580.166321 791.695360 581.768799 C794.981249 582.453430 797.798876 583.584900 797.666857 587.878845 C797.529955 592.327148 796.216845 596.362793 791.818712 597.605713 C786.178453 599.199707 780.231798 599.688171 774.438829 600.769287 C769.663988 601.660278 764.945116 602.872986 760.153002 603.640503 C757.840685 604.010803 755.411913 603.580750 753.044481 603.693848 C746.780260 603.993286 740.523119 604.618530 734.258715 604.684387 C728.306505 604.747009 722.350084 604.206909 716.392321 604.065002 C714.908495 604.029663 713.401842 604.769226 711.923632 604.709656 C697.034044 604.109253 682.147203 603.438843 667.261889 602.738586 C661.674181 602.475769 656.096849 601.948608 650.507555 601.776794 C636.984728 601.360962 623.450853 601.243958 609.936205 600.662659 C605.224657 600.460083 600.560717 599.221008 595.865465 598.519348 C594.748339 598.352478 593.592516 598.452332 592.455004 598.413086 C588.045885 598.260864 583.530077 600.316772 579.220629 597.122009 C578.163622 596.338379 575.665636 597.752502 573.842516 597.702576 C567.298510 597.523254 560.759996 597.145264 554.218920 596.853149 C552.900805 596.794250 551.580492 596.754944 550.261217 596.754333 C534.541246 596.747620 518.819872 596.874756 503.101641 596.708618 C491.573626 596.586731 480.042650 595.661011 468.525469 595.850525 C451.908739 596.124023 435.307848 597.257202 418.691484 597.690857 C406.978502 597.996643 395.100786 598.862000 383.590166 597.306030 C377.333818 596.460266 371.375902 596.794067 365.277391 596.758850 C358.555468 596.720093 351.806017 597.138306 345.116350 596.671997 C329.488848 595.582764 313.899584 593.950073 298.274462 592.818726 C292.416124 592.394531 286.485979 593.018433 280.616137 592.682922 C273.061968 592.251099 265.542192 591.250366 257.994921 590.655640 C252.462084 590.219543 246.909960 590.017700 241.364046 589.763672 C239.477999 589.677246 237.580126 589.834900 235.695528 589.733887 C230.332460 589.446594 224.976534 588.873779 219.612185 588.794739 C209.226488 588.641724 198.835238 588.861633 188.449633 588.705688 C182.752047 588.620178 177.058275 587.764648 171.367998 587.817505 C160.116228 587.922180 148.849230 588.957703 137.624804 588.566772 C129.650957 588.289062 122.053888 590.004944 114.275599 590.684875 C110.084841 591.051208 105.827898 590.583252 101.614443 590.781494 C89.332300 591.359436 77.001200 593.071899 64.799784 592.382996 C57.356779 591.962708 49.478785 589.227295 43.462580 583.954163 C38.512194 579.615234 38.551298 573.045044 39.996977 567.699402 C41.046106 563.820068 45.304499 561.297058 50.516973 560.402283 C55.286142 559.583618 59.111860 560.451843 63.278811 561.869995 C66.501162 562.966614 69.794794 564.532227 73.088762 564.614990 C83.727320 564.882385 94.388262 565.855164 104.966745 562.916626 C109.274271 561.720032 114.109964 562.053894 118.680513 562.255310 C127.256014 562.633179 135.656954 559.039429 144.387651 561.584595 C146.935198 562.327209 150.067232 560.769958 152.921862 560.819031 C157.953463 560.905457 162.979113 561.701538 168.004763 561.677429 C174.199953 561.647766 180.392885 560.816467 186.586260 560.823120 C193.113604 560.830139 199.636889 561.542664 206.168108 561.720825 C216.315905 561.997742 226.468935 562.083313 236.869738 562.500000 z"/><path class="selected"  fill="#000000" opacity="1.000000" stroke="none" 
 	d="
M1446.619738 167.750000 C1445.677233 160.307526 1443.705431 153.306976 1444.092882 146.439499 C1444.452868 140.058121 1442.133165 134.795868 1440.798693 129.024918 C1439.725939 124.385391 1441.252794 120.194077 1446.908312 118.639679 C1449.369616 117.963196 1451.350817 115.447571 1453.809313 114.869400 C1461.143053 113.144653 1471.972155 115.662842 1475.235704 124.642120 C1477.880114 131.917786 1482.318712 138.309769 1488.056627 143.880417 C1494.347277 149.987671 1499.630968 157.124603 1505.840807 163.324783 C1512.286852 169.761063 1519.302477 175.628601 1526.094713 181.716278 C1532.122057 187.118500 1538.182970 192.483368 1544.232286 197.861008 C1547.154039 200.458282 1550.062365 203.071442 1553.033312 205.611298 C1553.448351 205.966156 1554.187609 205.941727 1554.776842 206.092865 C1554.749498 205.503647 1554.841661 204.878525 1554.677111 204.330551 C1552.228380 196.181671 1549.502916 188.107086 1547.332018 179.885818 C1544.532579 169.284897 1541.523668 158.670258 1539.824816 147.869659 C1538.473497 139.277924 1538.132189 130.332047 1538.830675 121.663300 C1539.673571 111.202469 1539.288805 100.282211 1544.670397 90.661980 C1547.420031 85.746529 1549.785631 80.114708 1556.541979 79.346939 C1562.467882 78.673546 1568.576769 80.325493 1572.461779 83.887962 C1574.719835 85.958641 1573.516588 92.204353 1573.205065 96.523346 C1573.023912 99.033600 1571.013292 101.388458 1570.715075 103.918091 C1569.788195 111.777451 1568.916124 119.679520 1568.759020 127.579681 C1568.665270 132.288101 1570.797716 137.088394 1570.443468 141.734116 C1569.711657 151.334946 1572.251085 160.253983 1574.653673 169.251312 C1576.825670 177.384521 1580.241198 185.310638 1581.364855 193.565399 C1582.615465 202.753052 1587.989244 209.695053 1591.720079 217.510452 C1595.583971 225.604523 1600.205065 233.340698 1604.583605 241.184021 C1606.697863 244.971466 1606.222887 253.057617 1602.939684 256.780792 C1600.874987 259.122223 1598.230822 262.088959 1595.510607 262.488983 C1589.063341 263.436981 1582.270494 263.466278 1576.640245 259.103882 C1569.674913 253.707336 1562.754015 248.243011 1556.005236 242.580048 C1546.364000 234.489960 1536.833971 226.264191 1527.368761 217.968155 C1512.919909 205.304031 1498.559923 192.538254 1484.183580 179.791473 C1482.711290 178.486069 1481.522570 176.820648 1479.934435 175.702820 C1479.121691 175.130783 1477.715441 175.402115 1476.577379 175.292328 C1476.528185 176.214859 1476.256578 177.191605 1476.465929 178.051102 C1477.791246 183.489578 1479.606066 188.838455 1480.520617 194.339737 C1481.608507 200.883652 1481.768053 207.576355 1482.666246 214.158722 C1483.807482 222.522583 1485.562609 230.809082 1486.512316 239.190247 C1487.051134 243.944733 1481.633532 252.042267 1478.299425 252.749969 C1470.977404 254.304047 1459.760607 250.284363 1457.717638 244.999878 C1456.804796 242.638336 1457.001818 239.859131 1456.610094 237.282410 C1455.705675 231.332184 1454.699572 225.397125 1453.825182 219.442642 C1452.385607 209.637970 1451.005480 199.824509 1449.623888 190.011429 C1448.603014 182.760376 1447.619738 175.504013 1446.619738 167.750000 z"/><path class="selected"  fill="#000000" opacity="1.000000" stroke="none" 
 	d="
M1332.619738 129.749985 C1328.860460 131.675858 1325.016222 133.026794 1322.452379 135.636017 C1314.938585 143.282715 1313.769274 153.264740 1313.637682 163.413193 C1313.593737 166.795776 1315.687365 168.253296 1318.737413 167.699005 C1331.012438 165.468170 1343.381212 163.971008 1355.636583 161.301315 C1365.371569 159.180603 1372.865831 153.248459 1382.001207 150.601562 C1384.721422 149.813385 1386.726793 146.813965 1389.406481 145.581329 C1397.890368 141.678543 1405.156481 144.843063 1407.808336 153.497604 C1409.273180 158.278442 1406.912951 162.254028 1404.048815 165.758362 C1397.658068 173.577515 1389.133165 177.463608 1379.413439 179.925888 C1370.332506 182.226318 1361.702013 186.247650 1352.724718 189.033340 C1346.334215 191.016388 1339.726427 193.279831 1333.162828 193.455963 C1326.235582 193.641876 1319.717028 194.647812 1313.245348 196.756683 C1310.163683 197.760864 1308.441271 199.679688 1308.586168 203.177780 C1308.853014 209.621017 1307.947741 216.148254 1311.453600 222.183472 C1313.589220 225.859894 1316.352648 228.115082 1320.604479 227.701355 C1327.182970 227.061218 1333.881701 229.541443 1340.371569 226.764191 C1349.997179 222.644958 1359.712023 218.730865 1369.292711 214.510986 C1374.138903 212.376328 1378.954210 210.053650 1383.448107 207.273834 C1387.103136 205.012863 1390.188097 201.849121 1393.664171 199.272369 C1395.522692 197.894653 1397.557726 196.593613 1399.713610 195.808701 C1406.615343 193.295853 1412.827501 194.887634 1416.854479 200.745483 C1418.097521 202.553665 1418.614855 206.338348 1417.552355 207.982132 C1414.088976 213.340042 1410.406725 218.934952 1405.559923 222.919708 C1400.081163 227.424103 1393.319201 230.410706 1386.993273 233.831665 C1377.201281 239.126923 1367.562853 244.832550 1357.358629 249.192169 C1351.141588 251.848297 1344.042589 253.035645 1337.236559 253.571106 C1328.070055 254.292297 1318.683092 254.651428 1309.622667 253.437103 C1303.452745 252.610199 1297.801744 248.448822 1291.697618 246.455414 C1284.331163 244.049835 1282.463243 238.044708 1280.584459 231.729919 C1279.796373 229.081268 1278.098742 226.624115 1277.708971 223.949585 C1275.906237 211.575546 1279.142199 199.410904 1279.575914 187.120071 C1279.697863 183.671478 1278.829332 180.151489 1279.217882 176.756165 C1280.082384 169.204803 1281.428209 161.707382 1282.628893 154.196121 C1283.460192 148.995514 1284.581530 143.831497 1285.167223 138.605606 C1285.457384 136.017181 1284.706163 133.328201 1284.660875 130.680710 C1284.626940 128.699448 1284.476671 126.496735 1285.233385 124.766510 C1287.700548 119.124435 1290.270739 113.281876 1296.366930 110.609421 C1300.731554 108.696060 1305.347765 107.295105 1309.942003 105.981766 C1316.568590 104.087479 1323.244249 102.334244 1329.966173 100.818588 C1332.832872 100.172195 1335.880236 100.371918 1338.825914 100.021637 C1344.683702 99.325058 1350.514513 98.378830 1356.381945 97.790237 C1361.614977 97.265289 1366.896593 96.659470 1372.131456 96.837372 C1383.364244 97.219116 1394.583971 98.035156 1405.802111 98.777023 C1409.551744 99.024994 1416.425646 106.273331 1416.619493 109.912460 C1416.852526 114.284210 1414.197863 116.833389 1408.320543 117.740448 C1401.574816 118.781555 1394.842760 119.996674 1388.058825 120.679337 C1381.506212 121.338730 1374.898302 121.516388 1368.308947 121.728424 C1356.047838 122.123001 1344.175524 124.117737 1332.619738 129.749985 z"/><path class="selected"  fill="#000000" opacity="1.000000" stroke="none" 
 	d="
M934.619738 179.750000 C932.853014 173.149994 930.747728 167.123291 929.407030 160.931030 C927.803270 153.523880 925.339403 145.828506 926.046862 138.529266 C926.749987 131.274414 929.590563 123.331940 933.985033 117.601395 C937.773119 112.661575 945.409044 110.891266 952.208422 112.012024 C957.153795 112.827194 961.684313 121.915665 959.471239 127.150665 C955.230944 137.181229 957.625536 146.771286 959.889574 156.522888 C961.478197 163.365494 962.841234 170.268295 964.674547 177.044205 C966.666491 184.406403 969.324694 191.590454 971.254442 198.966766 C973.310106 206.824097 974.858446 214.814377 976.606066 222.751526 C976.711046 223.228271 976.413866 223.895386 976.650316 224.226318 C980.931322 230.217773 978.995836 237.154175 979.566271 243.676971 C980.345079 252.580872 975.433092 259.074921 970.321093 265.773468 C964.222704 273.764465 956.391283 276.690033 946.974657 275.608093 C942.599352 275.105316 938.185472 273.535431 934.168383 271.643768 C928.014330 268.745911 921.963793 265.492920 916.284594 261.759064 C910.355761 257.861115 904.757311 253.408051 899.308092 248.846771 C892.828905 243.423340 886.429430 237.861328 880.433031 231.917847 C875.464159 226.992859 871.190477 221.372238 866.466661 216.189407 C865.463182 215.088333 863.843920 214.548447 862.508348 213.750000 C862.212145 215.051086 861.522020 216.402527 861.680895 217.645477 C863.196276 229.504364 860.243029 240.740234 856.478563 251.697021 C854.328356 257.955597 849.878649 262.823547 843.055834 264.720856 C842.282518 264.935913 841.242296 265.046143 840.588976 264.703369 C835.106188 261.827026 829.623278 258.936127 824.316637 255.755676 C823.588366 255.319214 823.339464 253.113983 823.693773 251.987091 C828.238024 237.534821 833.842516 223.494049 832.862658 207.687393 C832.233934 197.546188 834.123949 187.266327 834.536852 177.034576 C834.705248 172.860535 834.066698 168.636475 833.594286 164.457901 C832.795275 157.389587 836.125658 150.335068 832.832506 143.105774 C831.285143 139.708939 835.890612 133.212402 839.590075 131.249908 C841.376757 130.302109 842.960924 128.486786 844.800951 128.227036 C848.559923 127.696411 852.764757 126.950012 856.184923 128.092163 C863.411486 130.505478 867.072252 134.792389 867.792711 143.900696 C868.307726 150.411362 869.346849 157.023468 872.395678 163.107498 C875.013842 168.332153 877.520922 173.667526 879.436632 179.176636 C882.555101 188.144272 888.292528 195.397263 894.070238 202.590271 C900.159838 210.171722 906.259264 217.858032 913.245348 224.571350 C918.905626 230.010620 925.861925 234.109985 932.293444 238.733948 C935.073534 240.732727 937.969225 242.572205 940.831285 244.455231 C944.893847 247.128052 948.787035 245.724945 948.449144 241.126312 C947.846117 232.917908 946.278612 224.773560 944.960314 216.627365 C944.276293 212.400162 943.551561 208.139740 942.326036 204.049911 C940.736071 198.743622 938.551561 193.618393 936.776415 188.363403 C935.882799 185.717972 935.327868 182.958099 934.619738 179.750000 z"/><path class="selected"  fill="#000000" opacity="1.000000" stroke="none" 
 	d="
M1125.619738 248.750000 C1116.282457 250.083313 1107.462511 251.548615 1098.602404 252.707062 C1091.850451 253.589874 1085.044542 254.055969 1078.267931 254.758148 C1072.207384 255.386078 1066.067369 255.673279 1060.135118 256.927948 C1057.289415 257.529816 1054.391710 259.581329 1052.300280 261.736145 C1046.024889 268.201660 1039.130358 270.035828 1031.872911 265.300446 C1024.444689 260.453827 1017.411669 254.910858 1010.672655 249.128418 C1005.553637 244.735962 1006.687426 236.859558 1012.391893 233.555267 C1013.421312 232.958984 1014.816332 232.812408 1016.050646 232.781616 C1022.805651 232.612976 1023.990831 231.880219 1024.508898 225.262421 C1024.794420 221.615997 1023.728991 217.883591 1023.691881 214.185760 C1023.663195 211.327774 1024.672594 208.446960 1024.552721 205.604446 C1024.044176 193.541840 1023.223253 181.492752 1022.652941 169.432266 C1022.445787 165.052017 1022.934435 160.623871 1022.521227 156.273056 C1022.185167 152.734283 1021.641222 148.931076 1020.031054 145.850632 C1015.169420 136.549576 1018.010729 129.225494 1026.444323 123.780838 C1032.869982 119.632446 1039.519274 119.086365 1046.449572 122.954178 C1048.418322 124.052963 1050.911974 124.575974 1053.196520 124.681900 C1063.716784 125.169678 1074.533922 124.033417 1084.697130 126.131348 C1095.278551 128.315613 1106.414171 128.760605 1116.409655 133.891678 C1122.275133 136.902649 1128.909777 138.439957 1134.702745 141.560410 C1139.928087 144.375031 1144.380724 148.588226 1149.348742 151.924530 C1157.729601 157.552673 1160.929918 167.289169 1167.358629 174.523178 C1170.480944 178.036636 1172.148180 183.626450 1170.803453 189.266022 C1170.413195 190.902924 1172.763414 193.134598 1172.477404 194.865646 C1171.383043 201.490631 1170.195177 208.174774 1168.129381 214.540558 C1166.527941 219.475586 1164.283800 224.546082 1161.067247 228.544098 C1153.422594 238.045959 1142.959703 243.509003 1131.300035 246.773712 C1129.527819 247.269989 1127.844347 248.083313 1125.619738 248.750000 M1140.619738 179.250000 C1138.147326 176.444305 1135.929918 173.351471 1133.154039 170.887650 C1125.363390 163.972733 1116.358019 158.852112 1106.442736 155.883484 C1097.637926 153.247375 1088.574327 151.080597 1079.470690 149.963531 C1072.293444 149.082840 1064.871691 149.944687 1057.578722 150.374496 C1054.424913 150.560349 1052.286119 152.234070 1052.559069 156.067444 C1052.834337 159.934280 1052.171251 163.898743 1052.704821 167.710480 C1054.230211 178.608521 1053.496080 189.530869 1053.663439 200.445648 C1053.712511 203.641998 1054.603136 206.835419 1054.551622 210.021164 C1054.453844 216.047501 1053.784166 222.066040 1053.738878 228.090729 C1053.727526 229.590729 1054.904894 232.093048 1056.032091 232.419067 C1059.214830 233.339600 1062.727282 234.005341 1065.981310 233.636780 C1078.200548 232.252716 1090.521227 231.113586 1102.498522 228.488861 C1109.693712 226.912079 1116.939074 228.267578 1124.447741 224.355682 C1132.952623 219.924774 1138.595079 214.192474 1142.478991 206.373383 C1146.867418 197.538589 1144.597765 188.480423 1140.619738 179.250000 z"/><path class="selected"  fill="#000000" opacity="1.000000" stroke="none" 
 	d="
M508.869738 435.000000 C517.831347 431.832947 525.986254 426.055725 536.026476 430.609253 C538.800707 431.867432 542.347887 431.679718 545.543932 431.704407 C559.317186 431.811005 573.092577 431.669189 586.865526 431.795929 C591.394579 431.837616 595.913866 432.522278 600.446032 432.727692 C609.466784 433.136414 618.495287 433.371826 627.516771 433.766479 C633.103563 434.010895 638.680040 434.553070 644.267687 434.685211 C646.619188 434.740814 648.994005 433.759583 651.347277 433.805908 C661.706713 434.009796 672.080614 434.134460 682.414721 434.814362 C699.036547 435.907898 715.639208 437.325012 732.234728 438.778595 C745.854540 439.971588 759.445177 441.495850 773.062365 442.722046 C782.101793 443.536011 791.162828 444.118378 800.218737 444.737427 C806.073168 445.137604 811.938585 445.730499 817.794359 445.681030 C828.210314 445.593079 838.637682 445.324310 849.032518 444.683136 C859.705309 444.024872 870.332628 442.484039 881.007433 442.104523 C883.816515 442.004639 887.736864 444.102875 889.278368 446.429626 C890.554552 448.356049 889.611498 452.277802 888.724718 455.015259 C885.847338 463.897339 876.997423 464.024200 870.126513 466.600616 C863.038378 469.258514 855.526293 470.819275 848.145433 472.640015 C846.263292 473.104340 844.175768 472.745575 842.182604 472.748108 C837.461168 472.754089 832.421679 471.684265 828.086168 472.977783 C819.742846 475.467041 811.811266 473.250244 803.682604 472.854156 C798.850817 472.618713 793.967943 473.689056 789.109301 473.676941 C783.749254 473.663574 778.392870 472.883698 773.030443 472.820831 C769.507982 472.779480 765.933641 473.936615 762.459887 473.642792 C755.006639 473.012329 747.609728 471.739594 740.177965 470.825745 C733.974901 470.062958 727.760668 469.380432 721.541491 468.761566 C707.771044 467.391235 693.996508 466.060394 680.217882 464.775574 C678.236071 464.590790 676.220385 464.805084 674.223436 464.740631 C664.532274 464.428009 654.843065 464.051971 645.151354 463.757965 C633.072557 463.391510 620.984606 463.245911 608.915270 462.687134 C602.012072 462.367584 595.144823 460.963806 588.249498 460.862976 C579.341661 460.732758 570.424181 461.516998 561.506578 461.718018 C554.456530 461.876953 547.292101 460.974335 540.372423 461.937195 C530.700975 463.282959 522.260302 460.455811 513.748949 456.775757 C505.778887 453.329712 502.796190 441.119934 508.869738 435.000000 z"/><path class="selected"  fill="#000000" opacity="1.000000" stroke="none" 
 	d="
M561.619738 677.750000 C565.707811 677.161926 569.282335 676.192749 572.886705 676.065247 C580.366625 675.800720 587.862230 675.981628 595.351427 675.982117 C601.861071 675.982544 608.382006 675.751587 614.877001 676.061462 C620.383837 676.324219 626.234240 673.574707 631.393480 677.707153 C631.799364 678.032288 632.692125 677.736267 633.358141 677.752014 C647.380541 678.082642 661.417650 678.129456 675.420092 678.849304 C685.023302 679.342896 694.572802 680.830200 704.157152 681.760986 C708.898668 682.221497 713.667040 682.398926 718.419359 682.756470 C726.974352 683.400269 735.536791 683.975525 744.075243 684.796448 C748.213366 685.194336 752.293566 686.162537 756.420092 686.725159 C759.763720 687.181030 763.176744 687.891785 766.486864 687.617920 C769.879747 687.337341 772.704332 688.874817 773.229174 691.270508 C773.626085 693.081909 771.422167 696.145325 769.563463 697.644226 C763.314928 702.682922 755.736925 704.087646 747.895372 704.829468 C741.442430 705.440002 735.075670 706.927124 728.628832 707.655151 C726.334948 707.914185 723.924913 706.861267 721.555956 706.786926 C708.478563 706.376404 695.382860 706.350525 682.323717 705.638245 C675.706163 705.277283 669.175829 703.525146 662.561022 702.831726 C658.385057 702.393921 654.117296 702.923645 649.905626 702.716797 C638.291857 702.146362 626.692125 701.055542 615.075121 700.857483 C604.669542 700.680115 594.229174 701.135254 583.840136 701.841003 C575.836657 702.384705 567.905687 703.936890 559.907824 704.653015 C556.934313 704.919312 553.826403 703.620972 550.842760 703.851196 C545.470934 704.265686 540.159166 705.405701 534.796679 706.017578 C532.359606 706.295593 529.856615 705.935425 527.391832 706.047424 C524.563402 706.175903 521.748461 706.628296 518.920275 706.728455 C508.008013 707.114807 497.091814 707.387817 486.179003 707.759338 C477.762194 708.045837 469.350389 708.496216 460.932268 708.721802 C455.381670 708.870605 449.810900 708.509277 444.272203 708.806030 C435.817003 709.258972 427.343676 710.926941 418.947069 710.548218 C406.969103 710.007996 395.027452 708.277588 383.121508 706.675049 C376.288042 705.755188 369.552691 704.098816 362.781755 702.731445 C361.885790 702.550537 360.875383 702.320984 360.198473 701.769592 C355.476274 697.923096 356.363909 689.557251 361.057726 685.647766 C369.492113 678.622742 378.767870 679.202759 388.558031 681.123901 C396.008043 682.585815 403.531267 684.353638 411.062365 684.568542 C423.123278 684.912720 435.233690 684.360352 447.293047 683.664795 C457.455095 683.078735 467.558245 681.489685 477.719408 680.861267 C482.706041 680.552917 487.780382 681.841248 492.788286 681.661621 C503.241625 681.286743 513.677050 679.900269 524.120043 679.898193 C534.153551 679.896240 544.070848 679.505493 553.959398 677.808960 C556.281176 677.410645 558.729601 677.750000 561.619738 677.750000 z"/><path class="selected"  fill="#000000" opacity="1.000000" stroke="none" 
 	d="
M2310.369738 236.500000 C2307.339220 238.083344 2304.412706 239.182648 2301.811876 240.804169 C2297.775011 243.320770 2293.260851 243.153107 2288.854845 243.771576 C2284.944445 244.320496 2281.081163 245.338989 2277.158312 245.630859 C2272.631945 245.967651 2268.063585 245.744293 2263.513292 245.748047 C2255.124132 245.754913 2246.733019 245.630432 2238.346544 245.777649 C2225.318224 246.006348 2212.262072 247.112793 2199.276232 246.534576 C2188.457628 246.052887 2178.149035 248.624725 2167.722765 250.106750 C2161.959093 250.925964 2156.847033 255.417084 2150.237902 254.846741 C2144.192980 254.325134 2129.752062 245.437073 2128.310411 239.641083 C2127.580187 236.706787 2128.246935 232.018127 2130.212267 230.094055 C2135.312120 225.101288 2137.406603 219.713379 2137.807482 212.631378 C2138.428087 201.673843 2140.408800 190.799057 2141.540880 179.861038 C2141.854113 176.834641 2141.143175 173.711212 2141.013781 170.627655 C2140.853868 166.805923 2140.649767 162.975159 2140.750597 159.155853 C2140.923204 152.611847 2141.171495 146.062668 2141.661486 139.536194 C2142.134386 133.241730 2144.149035 126.817963 2143.358263 120.727295 C2141.933458 109.752411 2148.391466 100.563705 2148.849230 90.108467 C2148.938585 88.070496 2151.842882 86.008179 2153.705431 84.225159 C2157.979357 80.133537 2169.803820 79.520294 2174.786486 82.297905 C2183.977160 87.420799 2183.604357 100.816330 2179.152941 106.329727 C2174.327990 112.305801 2174.292589 118.919876 2173.673937 125.623352 C2172.794054 135.159225 2172.100451 144.721313 2171.680773 154.287689 C2171.369493 161.387131 2171.741320 168.513794 2171.591173 175.623718 C2171.368517 186.152878 2171.053820 196.682907 2170.538439 207.200806 C2170.429796 209.422928 2168.797472 211.575470 2168.711535 213.792770 C2168.455919 220.390274 2171.870958 222.399384 2178.320421 221.744308 C2185.496935 221.015350 2192.812365 221.662262 2200.067492 221.695404 C2206.392443 221.724304 2212.717638 221.733963 2219.042589 221.749222 C2221.099474 221.754181 2223.164660 221.869232 2225.211046 221.722504 C2228.413195 221.492859 2231.607042 220.772675 2234.796251 220.819656 C2240.160997 220.898636 2245.520861 221.707794 2250.879747 221.677856 C2257.908800 221.638611 2264.937120 221.120148 2271.961779 220.737411 C2276.883654 220.469254 2281.820665 220.268707 2286.710558 219.694077 C2290.979601 219.192368 2295.280626 218.522568 2299.404894 217.352997 C2303.595079 216.164642 2308.722521 216.346466 2310.247179 219.420273 C2312.728624 224.422638 2315.525988 230.577301 2310.369738 236.500000 z"/><path class="selected"  fill="#000000" opacity="1.000000" stroke="none" 
 	d="
M572.619738 896.750000 C580.744371 898.086792 588.092943 896.373901 595.461535 894.778320 C596.416430 894.571594 597.455980 894.782654 598.454271 894.744873 C607.037584 894.420410 615.672167 893.352295 624.188890 893.955383 C632.707384 894.558594 640.509081 891.780273 648.652025 891.071472 C651.549608 890.819275 653.581347 889.727783 656.053698 889.010925 C663.473253 886.859436 670.647692 887.826477 677.020739 892.638000 C678.852526 894.021057 681.933702 895.012817 682.368822 896.714111 C683.222338 900.051819 683.177294 903.889954 682.401964 907.267944 C681.965746 909.167969 679.586840 911.035706 677.636522 912.097839 C671.533434 915.421509 666.095446 920.587402 658.324327 919.752808 C648.909472 918.741516 639.510790 917.235046 630.071093 916.900940 C621.375170 916.593201 612.636156 917.604065 603.912218 917.928467 C601.000780 918.036804 598.077013 917.824158 595.159105 917.749023 C582.301256 917.417847 569.444384 917.016541 556.584398 916.820984 C554.624559 916.791199 552.521959 917.422913 550.706652 918.240234 C545.148302 920.742676 540.020861 920.619873 535.039476 916.786743 C534.025499 916.006470 532.362474 915.809875 530.993395 915.793701 C523.330126 915.702881 515.665331 915.750000 508.001055 915.750000 C500.612932 915.750000 493.220781 915.898376 485.838030 915.698792 C480.751390 915.561340 475.672472 918.072266 470.456957 914.963867 C468.738359 913.939514 465.535326 915.614563 462.999407 915.696716 C460.234728 915.786316 457.442095 915.588928 454.687822 915.281921 C451.223192 914.895813 447.670092 913.439209 444.356035 913.897461 C431.617327 915.658752 420.126329 910.950684 408.351915 907.681702 C406.469011 907.158875 404.771593 905.827881 403.103045 904.700867 C399.049578 901.962891 398.979296 898.067566 403.208910 895.818176 C407.548449 893.510376 412.261003 891.911804 416.651720 889.689392 C419.293810 888.352173 421.421984 885.710327 424.151598 884.894714 C430.113390 883.113403 435.512163 885.285828 439.750963 889.529419 C442.561419 892.343018 445.669695 892.612793 448.597094 891.112549 C454.395189 888.141113 460.223864 888.849243 466.182726 889.812805 C473.919603 891.063782 481.302752 893.062744 489.584826 892.100220 C501.421190 890.724609 513.538256 891.630188 525.532274 891.792908 C533.285265 891.898071 541.040453 892.303223 548.777147 892.829956 C550.703417 892.961121 552.515551 894.411072 554.460863 894.688599 C560.325853 895.525330 566.230516 896.083313 572.619738 896.750000 z"/><path class="selected"  fill="#000000" opacity="1.000000" stroke="none" 
 	d="
M2079.619738 198.750000 C2079.286242 194.224731 2078.770861 190.203156 2078.689074 186.172760 C2078.641222 183.820541 2079.600206 181.447647 2079.550646 179.095795 C2079.462267 174.898849 2078.930529 170.712387 2078.625109 166.518524 C2078.267199 161.605438 2078.064806 156.678360 2077.590197 151.777161 C2077.051378 146.212234 2075.984484 140.683472 2075.721544 135.111877 C2075.532579 131.111221 2076.661730 127.052185 2076.512804 123.044785 C2076.367540 119.126785 2075.000109 115.259750 2074.790880 111.337143 C2074.460558 105.147049 2073.876329 98.784378 2074.998156 92.794037 C2075.451281 90.373482 2079.871691 88.180801 2082.911730 86.870338 C2088.677355 84.384850 2094.524523 85.127190 2100.252550 87.806137 C2104.621447 89.849365 2107.964464 96.011948 2107.708605 100.702576 C2107.133165 111.246643 2106.829210 121.816483 2106.809679 132.376556 C2106.792833 141.362045 2107.156603 150.358658 2107.683947 159.330872 C2108.001574 164.737396 2109.007921 170.100754 2109.588732 175.496002 C2109.783800 177.306900 2109.546007 179.159943 2109.633165 180.987656 C2109.931505 187.236465 2110.483019 193.480499 2110.549181 199.730469 C2110.591906 203.751770 2109.706652 207.777771 2109.665636 211.806030 C2109.539660 224.185181 2109.929796 236.578857 2109.435167 248.939484 C2109.282335 252.761719 2107.488390 256.821655 2105.484972 260.203644 C2101.231066 267.385498 2094.458361 263.761871 2088.609728 263.132935 C2085.173937 262.763489 2081.616808 262.624054 2079.474230 258.462097 C2076.751329 253.172333 2075.893419 247.704254 2076.810900 242.194183 C2078.796251 230.269531 2081.090441 218.460800 2078.781359 206.287064 C2078.361437 204.074036 2079.305285 201.602295 2079.619738 198.750000 z"/><path class="selected"  fill="#000000" opacity="1.000000" stroke="none" 
 	d="
M673.869738 786.000000 C681.165331 785.750000 688.222338 785.497070 695.253710 785.813232 C704.307909 786.220276 713.442858 786.505615 722.328722 788.064697 C725.420519 788.607239 728.331408 792.455444 730.466539 795.413452 C732.009203 797.550659 728.169847 801.690430 724.456713 802.779175 C717.048204 804.951477 709.735582 807.466187 702.282640 809.463623 C699.754381 810.141235 696.920946 809.645386 694.230089 809.758057 C686.822374 810.068237 679.399706 810.210938 672.013597 810.802002 C662.741747 811.544128 653.440966 813.798706 644.261766 813.318054 C634.292162 812.796021 623.210985 814.455933 615.152330 805.778564 C611.020494 801.329529 612.886400 796.694519 616.847277 792.564209 C623.162889 785.978394 630.397081 787.700806 637.627977 787.801147 C643.317553 787.880005 649.022326 788.884888 654.681139 788.625305 C661.017015 788.334778 667.308764 787.083313 673.869738 786.000000 z"/><path class="selected"  fill="#000000" opacity="1.000000" stroke="none" 
 	d="
M98.869738 952.000000 C95.829958 951.793579 92.989397 951.511536 90.295137 950.727051 C89.783457 950.578064 89.851297 948.438904 89.651743 947.218018 C90.659006 947.246521 91.669008 947.238098 92.672892 947.312317 C94.254129 947.429016 95.851160 947.494141 97.404093 947.782593 C98.741770 948.031006 100.027216 948.560669 101.335756 948.966003 C100.597086 949.893982 99.858416 950.822021 98.869738 952.000000 z"/><path class="selected"  fill="#000000" opacity="1.000000" stroke="none" 
 	d="
M861.869738 428.000000 C863.269701 427.750000 864.481798 427.526947 865.549120 427.823853 C866.337084 428.043060 866.936388 428.940430 867.619738 429.535645 C866.915026 430.273804 866.300341 431.148621 865.469835 431.695862 C865.011583 431.997803 864.184252 431.688965 863.535509 431.762909 C862.249376 431.909515 860.971666 432.130524 859.690477 432.320740 C860.333544 430.963837 860.976671 429.606903 861.869738 428.000000 z"/><path class="selected"  fill="#000000" opacity="1.000000" stroke="none" 
 	d="
M934.619738 404.750000 C933.490709 406.454315 931.861620 408.158600 930.232592 409.862885 C929.694994 409.103912 929.157396 408.344940 928.619738 407.585999 C930.453051 406.640656 932.286425 405.695343 934.619738 404.750000 z"/><path class="selected"  fill="#000000" opacity="1.000000" stroke="none" 
 	d="
M473.619738 86.750000 C473.272661 87.597054 472.980761 88.041695 472.569109 88.274498 C470.659868 89.354179 468.717363 90.375092 466.786791 91.417046 C466.731096 91.112892 466.531176 90.614891 466.641008 90.533218 C468.837816 88.898941 469.518816 84.760025 473.619738 86.750000 z"/><path class="selected"  fill="#000000" opacity="1.000000" stroke="none" 
 	d="
M134.619738 686.750000 C137.661013 686.032410 137.679766 686.040344 136.846498 688.010803 C136.486803 688.861450 135.969881 689.647888 135.638964 690.507568 C135.368059 691.211487 135.267061 691.980713 135.090746 692.721008 C134.600405 691.924927 133.751070 691.146423 133.711168 690.328369 C133.661974 689.319458 134.286409 688.277588 134.619738 686.750000 z"/><path class="selected"  fill="#000000" opacity="1.000000" stroke="none" 
 	d="
M341.869738 475.000000 C344.066454 477.710999 340.825090 479.658203 340.662645 482.207092 C340.314989 481.896912 339.617937 481.487244 339.673571 481.291931 C340.252855 479.258179 340.953081 477.258881 341.869738 475.000000 z"/><path class="selected"  fill="#000000" opacity="1.000000" stroke="none" 
 	d="
M203.869738 468.500000 C203.578859 469.750000 203.037996 470.750000 202.497118 471.750000 C201.871325 470.764099 201.245531 469.778198 200.619738 468.792236 C201.619738 468.611481 202.619738 468.430725 203.869738 468.500000 z"/><path class="selected"  fill="#000000" opacity="1.000000" stroke="none" 
 	d="
M1001.869738 418.000000 C1002.286425 419.201843 1002.506456 420.652161 1002.546923 422.107513 C1002.551561 422.274231 1001.553453 422.468842 1001.020311 422.650513 C1001.220140 421.183685 1001.419970 419.716858 1001.869738 418.000000 z"/><path class="selected"  fill="#000000" opacity="1.000000" stroke="none" 
 	d="
M460.869738 437.000000 C461.414019 438.083344 461.815874 439.409546 461.904802 440.756470 C461.921099 441.003082 460.664476 441.333771 459.995470 441.625732 C460.203600 440.167175 460.411699 438.708588 460.869738 437.000000 z"/><path class="selected"  fill="#000000" opacity="1.000000" stroke="none" 
 	d="
M109.369738 605.500000 C107.953066 605.498230 106.786394 605.246460 105.619722 604.994629 C105.797785 604.579773 105.900591 603.865723 106.166193 603.798828 C107.813173 603.384583 109.496698 603.115601 111.168085 602.798340 C110.651964 603.615540 110.135851 604.432800 109.369738 605.500000 z"/><path class="selected"  fill="#000000" opacity="1.000000" stroke="none" 
 	d="
M465.619738 508.750000 C465.864977 507.083313 466.110216 505.916687 466.355455 504.750000 C466.776873 505.411865 467.653185 506.187866 467.521959 506.711182 C467.274401 507.698059 469.035875 510.598999 465.619738 508.750000 z"/><path class="selected"  fill="#000000" opacity="1.000000" stroke="none" 
 	d="
M480.369738 467.000000 C479.524279 468.083282 478.428881 468.916626 477.333452 469.750000 C477.341204 469.337677 477.180498 468.713318 477.386034 468.550079 C478.237017 467.874146 479.198717 467.337708 480.369738 467.000000 z"/><path class="selected"  fill="#000000" opacity="1.000000" stroke="none" 
 	d="
M941.869738 406.000000 C942.771166 406.431885 943.422655 407.113770 944.074083 407.795654 C943.271166 408.295624 942.468248 408.795624 941.665392 409.295654 C941.650133 408.280426 941.634935 407.265228 941.869738 406.000000 z"/><path class="selected"  fill="#000000" opacity="1.000000" stroke="none" 
 	d="
M481.869738 418.000000 C481.203997 417.665741 480.788256 417.081482 480.372515 416.497253 C481.387743 416.014313 482.402971 415.531372 483.418139 415.048462 C482.985338 415.948944 482.552538 416.849457 481.869738 418.000000 z"/><path class="selected"  fill="#000000" opacity="1.000000" stroke="none" 
 	d="
M990.869738 406.000000 C991.953051 406.165833 992.786425 406.581696 993.619738 406.997559 C992.767382 407.562653 991.914965 408.127747 991.062487 408.692810 C990.914904 407.878540 990.767321 407.064270 990.869738 406.000000 z"/><path class="selected"  fill="#000000" opacity="1.000000" stroke="none" 
 	d="
M152.619753 206.750015 C152.064196 208.027786 151.508638 208.805557 150.953081 209.583344 C150.508623 208.968124 150.064180 208.352936 149.619738 207.737762 C150.619753 207.241852 151.619753 206.745926 152.619753 206.750015 z"/><path class="selected"  fill="#000000" opacity="1.000000" stroke="none" 
 	d="
M713.369738 163.000000 C713.361498 164.416656 713.103319 165.583328 712.845140 166.750000 C712.423449 166.236786 711.565111 165.603271 711.666796 165.234238 C711.913012 164.340561 712.606493 163.570114 713.369738 163.000000 z"/><path class="selected"  fill="#000000" opacity="1.000000" stroke="none" 
 	d="
M809.619738 178.750000 C809.332323 177.537399 809.544909 176.324814 809.757494 175.112213 C810.096605 175.209839 810.737535 175.350815 810.730639 175.398758 C810.569384 176.521927 810.338060 177.635025 809.619738 178.750000 z"/><path class="selected"  fill="#000000" opacity="1.000000" stroke="none" 
 	d="
M264.369738 505.500000 C263.299395 505.596313 262.479021 505.442627 261.658678 505.288940 C261.887926 504.775940 262.117144 504.263000 262.346392 503.750000 C263.104174 504.250000 263.861956 504.750000 264.369738 505.500000 z"/><path class="selected"  fill="#000000" opacity="1.000000" stroke="none" 
 	d="
M1481.869738 428.000000 C1482.953112 427.969727 1483.786364 428.189484 1484.619738 428.409241 C1484.332140 428.856171 1484.044420 429.303101 1483.756701 429.750000 C1483.044420 429.250000 1482.332018 428.750000 1481.869738 428.000000 z"/><path class="selected"  fill="#000000" opacity="1.000000" stroke="none" 
 	d="
M1420.369738 399.000000 C1420.043688 400.007294 1419.467638 400.764587 1418.891588 401.521851 C1418.543688 401.173981 1418.195787 400.826080 1417.847887 400.478149 C1418.605211 399.902069 1419.362413 399.326019 1420.369738 399.000000 z"/><path class="selected"  fill="#000000" opacity="1.000000" stroke="none" 
 	d="
M469.369738 250.500000 C470.257280 250.612457 470.894823 250.974915 471.532366 251.337341 C470.743395 251.808228 469.954454 252.279114 469.165514 252.750000 C469.150255 252.083344 469.134996 251.416656 469.369738 250.500000 z"/><path class="selected"  fill="#000000" opacity="1.000000" stroke="none" 
 	d="
M0.869737 6.500000 C0.413158 5.456577 0.206579 4.663158 0.000000 3.869736 C0.561491 4.018070 1.610857 4.187565 1.605491 4.311310 C1.569998 5.129692 1.307982 5.938244 0.869737 6.500000 z"/><path class="selected"  fill="#000000" opacity="1.000000" stroke="none" 
 	d="
M271.869738 0.000000 C272.591753 0.277977 273.063768 0.805962 273.535784 1.333946 C272.980730 1.722935 272.425707 2.111927 271.870653 2.500919 C271.787004 1.750614 271.703356 1.000309 271.869738 0.000000 z"/><path class="selected"  fill="#000000" opacity="1.000000" stroke="none" 
 	d="
M354.369738 762.500000 C353.432238 762.729126 352.744738 762.708313 352.057238 762.687500 C352.223925 762.229187 352.390581 761.770813 352.557238 761.312500 C353.244738 761.625000 353.932238 761.937500 354.369738 762.500000 z"/><path class="selected"  fill="#000000" opacity="1.000000" stroke="none" 
 	d="
M842.369738 857.500000 C841.953051 856.672852 841.381578 855.445312 841.713182 854.553345 C842.228930 853.165710 843.358446 852.006226 844.227770 850.750000 C844.493883 851.447815 845.054430 852.195740 844.946581 852.829956 C844.830126 853.514343 844.005785 854.048096 843.641344 854.728516 C843.215624 855.523376 842.953173 856.405701 842.369738 857.500000 z"/><path class="selected"  fill="#000000" opacity="1.000000" stroke="none" 
 	d="
M1378.369738 531.500000 C1381.987780 532.525024 1380.634386 534.839661 1379.822618 536.982178 C1379.765368 537.133423 1378.676378 537.076599 1378.671495 537.038818 C1378.445421 535.281311 1378.286486 533.515137 1378.369738 531.500000 z"/><path class="selected"  fill="#000000" opacity="1.000000" stroke="none" 
 	d="
M1106.869738 220.000000 C1108.463366 220.093597 1109.806871 220.437210 1111.150499 220.780792 C1110.996202 221.247772 1110.921618 222.067566 1110.674669 222.123230 C1109.294786 222.434296 1107.873034 222.560577 1106.465563 222.750000 C1106.516954 221.916656 1106.568346 221.083328 1106.869738 220.000000 z"/></svg>