<?xml version="1.0" encoding="utf-8"?><!DOCTYPE svg PUBLIC "-//W3C//DTD SVG 1.1//EN" "http://www.w3.org/Graphics/SVG/1.1/DTD/svg11.dtd"><svg version="1.1" id="Contours" xmlns="http://www.w3.org/2000/svg" xmlns:xlink="http://www.w3.org/1999/xlink" x="0px" y="0px" width="2049.040771px" height="2049.040771px" viewBox="0.000000 0.000003 2049.040771 300.098938" enable-background="new 0 0 2049.040771 2049.040771" xml:space="preserve" stroke="black" fill="none" stroke-linecap='round' stroke-linejoin='round'><path class="selected"  fill="#000000" opacity="1.000000" stroke="none" 
 	d="
M0.000000 183.535832 C0.666667 183.218999 1.333333 183.152165 2.000001 183.085332 C1.500002 183.818822 1.000002 184.552342 0.250001 185.285832 C-0.000000 184.785832 -0.000000 184.285832 0.000000 183.535832 z"/><path class="selected"  fill="#000000" opacity="1.000000" stroke="none" 
 	d="
M1094.750000 93.035832 C1090.387573 94.619176 1086.273071 95.946736 1082.165771 97.295491 C1081.785156 97.420476 1081.448608 97.680302 1081.091675 97.877537 C1081.535156 98.013631 1082.023193 98.071965 1082.415527 98.297139 C1094.262207 105.096028 1105.842895 112.421803 1118.027832 118.545674 C1126.233032 122.669407 1135.298218 125.075505 1143.960937 128.297886 C1147.160522 129.488072 1149.829468 131.158360 1149.000244 135.297505 C1148.280517 138.890202 1145.934936 139.722783 1142.470825 140.427357 C1124.439209 144.094929 1109.870361 135.194722 1095.028931 127.665684 C1084.664184 122.407658 1074.793335 116.180501 1064.635498 110.504872 C1063.384155 109.805730 1061.723633 109.839192 1060.252685 109.533177 C1060.168457 110.997685 1059.785278 112.518300 1060.047851 113.917729 C1061.958862 124.101491 1064.122925 134.239339 1065.912353 144.443349 C1066.350708 146.943287 1066.235962 149.812474 1065.443481 152.202809 C1063.396362 158.377354 1058.110718 159.700673 1051.853882 156.773808 C1046.224121 154.140294 1046.005005 148.820469 1045.157226 144.188603 C1043.604858 135.707585 1043.084595 127.042256 1041.979858 118.473622 C1040.392212 106.159093 1038.339355 93.894948 1037.109375 81.547093 C1036.216064 72.578007 1036.452637 63.501103 1035.911377 54.488728 C1035.785156 52.386830 1034.547974 50.351674 1033.821899 48.285832 C1032.881225 50.332310 1031.002685 52.450307 1031.152344 54.413670 C1032.126831 67.193791 1023.157104 74.111836 1015.183411 81.160191 C1004.902222 90.248280 992.029114 93.701573 978.612854 95.302952 C968.159424 96.550694 957.732910 98.025502 947.277099 99.251576 C942.803223 99.776204 941.400818 101.418645 942.015259 106.462819 C942.611694 111.359791 943.648804 116.223256 943.933105 121.133809 C944.493469 130.811925 944.793823 140.510350 944.953125 150.204457 C945.051575 156.189290 941.427368 158.707158 935.449036 157.301213 C933.611145 156.868977 931.705688 156.719166 929.874084 156.266438 C925.068664 155.078694 924.225037 151.042576 924.082214 147.107167 C923.802368 139.396733 924.243408 131.659474 923.942627 123.950612 C923.497925 112.556172 922.744873 101.171528 921.972839 89.792912 C921.448364 82.062657 920.697815 74.346943 919.971008 66.632008 C919.841003 65.251546 919.372070 63.895650 918.990356 62.548054 C918.490662 60.783772 917.922119 59.039006 917.383240 57.285832 C916.119141 58.922139 914.976074 60.672749 913.562988 62.168248 C911.394470 64.463277 912.418945 69.831700 908.076111 69.498967 C904.556763 69.229375 901.030456 67.232564 897.807373 65.457005 C894.943787 63.879521 894.929260 60.990910 895.995911 58.103993 C900.061645 47.099415 907.637695 38.760075 917.671142 33.426602 C927.411438 28.248936 937.711914 23.232182 948.368896 20.912053 C960.054870 18.367932 972.120300 17.444974 984.599060 19.862713 C997.045349 22.274182 1008.578186 26.129101 1019.869812 31.482983 C1021.388122 32.202908 1024.171875 32.052884 1025.502685 31.097653 C1043.749756 18.000348 1063.502563 17.261174 1083.701538 24.720296 C1095.920044 29.232327 1107.888306 34.610196 1117.902222 43.565053 C1130.162598 54.528920 1126.252197 66.320058 1117.860840 76.847554 C1111.866333 84.368062 1103.449951 88.658757 1094.750000 93.035832 M946.500000 39.285832 C939.675171 40.685246 935.380859 45.082158 935.946106 49.507863 C937.124390 58.733906 938.287414 67.980839 938.859985 77.256032 C939.092468 81.021824 939.799805 82.273839 943.833008 82.404439 C960.799866 82.953862 977.197571 80.373982 992.984863 74.238423 C1001.325989 70.996724 1008.060120 65.729024 1011.639038 57.149480 C1013.975464 51.548298 1013.248596 47.002431 1008.663879 44.583302 C999.250305 39.616185 989.458557 35.617139 978.538696 35.257275 C967.838684 34.904660 957.265564 35.393040 946.500000 39.285832 M1056.500000 82.285847 C1057.361572 82.619176 1058.249145 83.295552 1059.080566 83.232289 C1066.641601 82.656895 1074.384643 82.779072 1081.699219 81.080678 C1091.262451 78.860142 1099.647095 73.675084 1104.672607 64.900258 C1107.802978 59.434361 1106.634155 56.490925 1102.238647 53.041447 C1090.635498 43.935490 1077.338135 38.967526 1062.781982 37.326077 C1056.425781 36.609303 1052.671020 40.032239 1053.076050 46.538136 C1053.808105 58.302464 1055.000000 70.038182 1056.500000 82.285847 z"/><path class="selected"  fill="#000000" opacity="1.000000" stroke="none" 
 	d="
M2016.250000 64.535832 C2009.485107 71.365697 2000.870239 73.317937 1992.341797 75.237095 C1979.657104 78.091649 1966.888672 80.573048 1954.185669 83.349278 C1952.741577 83.664860 1951.488647 84.854481 1950.147095 85.638783 C1950.873901 86.796925 1951.455078 88.083943 1952.348877 89.094273 C1971.548340 110.796178 1996.619385 122.399632 2023.785889 130.201466 C2030.403320 132.101796 2037.325317 132.935292 2044.100220 134.294667 C2046.636963 134.803670 2049.162598 135.265126 2049.036133 138.852635 C2048.915527 142.278599 2046.657471 142.378880 2044.043701 143.461247 C2026.879272 150.569386 2011.070557 143.471379 1995.278808 138.854115 C1971.847412 132.003041 1952.916260 117.700581 1936.376953 100.104848 C1931.957031 95.402623 1927.921509 90.340077 1923.656860 85.489262 C1923.169556 84.934743 1922.341431 84.679692 1921.671387 84.285802 C1921.447510 84.992848 1921.017822 85.703419 1921.029907 86.406422 C1921.324951 103.600178 1921.687622 120.792729 1921.988403 137.986363 C1922.091797 143.887578 1922.648315 149.867467 1921.893555 155.667729 C1921.359375 159.772450 1917.272827 160.927312 1913.510498 160.209752 C1906.971435 158.962681 1904.001343 155.026066 1904.000366 148.476430 C1903.999145 140.144154 1904.460571 131.780598 1903.897217 123.486577 C1902.937012 109.348714 1901.399170 95.247914 1899.975708 81.144490 C1899.107788 72.546513 1897.958984 63.977284 1897.010376 55.386967 C1895.835937 44.753224 1892.909790 34.618321 1888.199463 25.040646 C1885.370483 19.288579 1887.658325 15.130879 1893.441406 13.482937 C1906.495117 9.763196 1919.619141 5.159474 1933.469849 6.402493 C1946.890991 7.606953 1960.281494 10.081608 1972.601684 15.622891 C1985.687378 21.508572 1998.302612 28.483327 2010.894043 35.400174 C2014.843262 37.569600 2018.616821 40.217717 2021.117554 44.566533 C2025.426636 52.060429 2025.384521 55.401341 2019.330932 61.454915 C2018.387329 62.398533 2017.443603 63.342198 2016.250000 64.535832 M1979.500000 63.285817 C1979.861816 62.952473 1980.168457 62.449940 1980.593750 62.311253 C1986.909302 60.251896 1993.292602 58.383381 1999.525391 56.101948 C2000.829956 55.624440 2002.680176 53.239415 2002.381225 52.478047 C2001.730957 50.820805 2000.090088 49.195225 1998.446533 48.342885 C1987.896606 42.872120 1977.410156 37.225766 1966.570923 32.379117 C1951.291992 25.547314 1934.908691 25.709599 1918.613281 26.411946 C1915.725220 26.536420 1912.773315 28.270596 1913.032349 32.138356 C1913.191284 34.511471 1913.652588 36.865491 1914.002563 39.224454 C1915.329712 48.171239 1916.527954 57.142430 1918.184326 66.028050 C1918.380371 67.080174 1919.288818 70.010594 1922.831787 68.502324 C1926.647095 66.878102 1931.185547 66.432164 1935.408447 66.432164 C1939.631470 66.432164 1943.955444 68.548726 1948.057495 68.102559 C1958.258911 66.992970 1968.359131 64.952504 1979.500000 63.285817 z"/><path class="selected"  fill="#000000" opacity="1.000000" stroke="none" 
 	d="
M1820.000000 0.285824 C1828.329346 0.285832 1836.250244 -0.467265 1843.965332 0.471387 C1854.222778 1.719349 1864.385864 4.016682 1874.435913 6.487683 C1876.755005 7.057881 1879.497192 10.239728 1877.800537 13.203053 C1876.695923 15.132298 1873.750244 16.897664 1871.492065 17.085408 C1867.189941 17.443081 1862.787598 16.316960 1858.430298 16.344823 C1847.204468 16.416615 1835.959473 16.445996 1824.762939 17.145611 C1817.012573 17.629902 1809.336182 19.248875 1801.614136 20.264058 C1798.104126 20.725468 1794.505127 20.659474 1791.049560 21.349255 C1784.636719 22.629346 1777.738891 29.877385 1776.868286 36.369191 C1775.340088 47.764424 1773.010132 59.052571 1770.991699 70.381276 C1770.560913 72.800267 1771.455444 73.829091 1773.884888 73.276829 C1778.142212 72.309025 1782.351684 71.086018 1786.644165 70.325795 C1796.759521 68.534382 1806.943725 67.123463 1817.041138 65.242085 C1829.373901 62.944234 1841.652588 60.353047 1853.941894 57.826878 C1859.298706 56.725773 1864.587646 55.253132 1869.975464 54.359364 C1873.815674 53.722340 1875.486938 56.106862 1874.947021 59.700947 C1874.324585 63.843312 1872.266479 66.889134 1868.540649 69.436177 C1855.906128 78.073369 1841.331543 79.822392 1826.867798 82.348591 C1815.286499 84.371327 1803.790893 86.896443 1792.282471 89.317708 C1788.489624 90.115681 1784.791870 91.970540 1781.019287 92.062855 C1778.151733 92.133015 1775.260254 90.094563 1772.318970 89.191090 C1771.677978 88.994160 1770.183838 89.495854 1770.087158 89.910176 C1767.721069 100.050084 1768.264648 110.436360 1771.297974 120.036824 C1774.468506 130.071309 1783.068359 135.425099 1794.610596 132.460805 C1819.035644 126.187855 1839.532226 112.925419 1859.550781 98.454472 C1860.884643 97.490315 1864.722900 97.568486 1865.348144 98.514882 C1867.009888 101.030675 1867.761719 104.242329 1868.401855 107.277165 C1868.581665 108.130177 1867.215088 109.406285 1866.403442 110.356541 C1857.695190 120.550801 1847.161255 128.732533 1835.850342 135.601628 C1828.299194 140.187352 1819.326782 142.363072 1811.392456 146.406438 C1803.407593 150.475484 1794.915649 151.475590 1786.325073 152.224324 C1777.590698 152.985615 1770.597656 148.631993 1763.897583 143.699299 C1753.559814 136.088505 1749.870117 125.512776 1749.984863 113.140233 C1750.064087 104.588338 1749.388428 95.980565 1750.145019 87.495412 C1751.246704 75.142094 1753.167969 62.851140 1755.054932 50.582112 C1756.441284 41.567677 1758.450928 32.649991 1759.906128 23.644505 C1760.216919 21.721135 1759.456421 19.574956 1758.974975 17.583279 C1757.872070 13.021016 1760.671265 11.340161 1764.272339 10.555607 C1777.275513 7.722653 1790.284546 4.903760 1803.343872 2.347554 C1808.660034 1.306965 1814.110596 0.952489 1820.000000 0.285824 z"/><path class="selected"  fill="#000000" opacity="1.000000" stroke="none" 
 	d="
M642.750000 73.035832 C633.872681 74.579793 625.240906 75.844609 616.619568 77.177327 C610.211792 78.167882 603.789734 79.103581 597.427917 80.340870 C593.771301 81.052052 591.770325 83.096562 591.878357 87.418019 C592.028625 93.432255 591.363403 99.469472 590.991516 105.493413 C590.615234 111.588353 592.170593 113.616398 598.163208 113.219182 C611.971313 112.303914 625.863281 111.526662 639.125610 107.162480 C642.877319 105.927937 646.127807 103.184346 649.629028 101.169057 C651.372131 100.165761 653.089172 98.605748 654.943420 98.393345 C664.350159 97.315892 664.006164 101.388981 661.377075 110.493703 C659.455566 117.148335 653.238769 118.258961 648.518677 121.230198 C639.660400 126.806462 629.696777 128.595799 619.385742 129.369969 C611.770752 129.941716 604.185181 131.121998 596.656677 132.433613 C595.266052 132.675892 593.195251 134.825169 593.176208 136.119755 C593.095276 141.640187 593.286560 147.226674 594.097534 152.682179 C595.078308 159.279805 597.379150 160.414616 604.213135 160.346791 C619.104248 160.198964 633.384888 156.875172 647.336914 152.153691 C652.103638 150.540593 656.179809 146.959324 660.895508 145.098393 C664.178039 143.803029 668.005493 143.800557 671.612549 143.544316 C671.995849 143.517079 672.927307 145.662968 672.938171 146.807042 C673.030090 156.481251 667.301758 162.813161 659.254333 166.078068 C647.409729 170.883488 635.129516 174.783513 622.774719 178.100255 C615.295776 180.108006 607.339416 180.987584 599.573364 181.139226 C583.583252 181.451512 574.868286 172.765477 574.942993 156.640935 C574.968628 151.116093 574.735718 145.518742 573.799805 140.096257 C573.431091 137.960103 570.977051 136.044819 569.179138 134.338124 C567.723511 132.956395 565.625244 132.252751 564.165161 130.874318 C559.388550 126.364796 559.887695 121.130101 565.658813 118.365651 C571.741821 115.451848 574.593750 111.161137 574.062805 104.359532 C573.726684 100.054036 573.831299 95.692799 574.040588 91.371205 C574.334656 85.299061 571.265198 82.744633 565.445984 82.402836 C562.750183 82.244496 561.876037 81.870152 561.915100 78.947117 C562.049988 68.854695 562.755066 69.625981 571.408325 66.141499 C576.780151 63.978398 582.102905 63.578023 587.705566 63.136342 C595.906372 62.489857 604.025757 60.819630 612.183044 59.607442 C617.524414 58.813710 622.853393 57.580189 628.219543 57.376347 C643.732666 56.787083 659.260864 56.509328 674.785339 56.384434 C677.669128 56.361210 680.691589 57.304967 683.401367 58.411412 C684.871521 59.011723 686.842590 60.955784 686.770447 62.187276 C686.648804 64.264653 685.516479 67.555577 684.043884 68.048131 C679.170898 69.678151 673.995666 70.694584 668.863220 71.194020 C660.271850 72.030018 651.624023 72.285832 642.750000 73.035832 z"/><path class="selected"  fill="#000000" opacity="1.000000" stroke="none" 
 	d="
M1392.000000 152.285832 C1385.078735 153.076634 1379.295532 151.199193 1373.645264 148.325352 C1368.066650 145.487996 1364.526733 140.606846 1364.227539 134.967793 C1363.519287 121.620808 1363.095093 108.132725 1364.240356 94.846898 C1365.529175 79.896931 1368.622681 65.099217 1371.023437 50.250203 C1371.876099 44.976399 1372.783691 39.692807 1374.068481 34.513470 C1375.089111 30.398930 1377.955444 28.557538 1382.409180 28.161595 C1388.519653 27.618367 1394.553955 26.211041 1400.619141 25.164456 C1404.192993 24.547787 1407.745849 23.519932 1411.338867 23.358037 C1423.020141 22.831708 1434.727417 22.180249 1446.400513 22.487630 C1451.544067 22.623074 1456.685791 24.773198 1461.721680 26.349309 C1465.048340 27.390423 1467.017700 30.184361 1465.773437 33.488186 C1465.240600 34.902608 1462.285889 35.983029 1460.326416 36.182644 C1451.463989 37.085461 1442.520264 37.269658 1433.687988 38.370656 C1421.525146 39.886815 1409.062378 39.934277 1397.577515 45.250569 C1390.265015 48.635411 1386.595703 54.272206 1385.985840 62.159840 C1385.738403 65.360295 1385.382324 68.554677 1384.985962 71.740605 C1384.606079 74.793049 1386.939331 75.298222 1388.828125 75.201390 C1398.223877 74.719685 1407.595703 73.647587 1416.993652 73.360249 C1429.766357 72.969731 1442.133301 71.312581 1453.994385 66.079793 C1456.647949 64.909108 1461.288452 65.123006 1463.435181 66.764470 C1465.770996 68.550587 1464.709228 72.458928 1463.245483 75.678349 C1459.360596 84.223622 1451.716553 86.963002 1443.638428 88.140950 C1430.775757 90.016575 1417.771606 90.912877 1404.836304 92.305653 C1399.768432 92.851323 1394.724609 93.621251 1389.669433 94.285176 C1385.290893 94.860280 1382.213379 98.782246 1382.098144 105.333089 C1381.983520 111.850911 1382.489014 118.398488 1383.065674 124.902592 C1383.420044 128.898976 1387.948364 131.960072 1392.334473 132.333272 C1404.080810 133.332738 1414.972778 129.793995 1425.701050 125.942586 C1434.087646 122.931843 1442.304443 119.316075 1450.273193 115.323552 C1455.013428 112.948628 1459.524780 109.751607 1463.408569 106.138875 C1467.078491 102.724995 1470.479980 102.979451 1473.895630 105.372914 C1477.362915 107.802662 1476.517578 111.573338 1474.932617 114.667668 C1470.731933 122.868794 1464.592285 128.981175 1455.710693 132.345128 C1441.173096 137.851216 1426.926880 144.161061 1412.254639 149.259862 C1406.066528 151.410313 1399.108154 151.344319 1392.000000 152.285832 z"/><path class="selected"  fill="#000000" opacity="1.000000" stroke="none" 
 	d="
M1531.000000 122.285847 C1522.970703 119.952519 1515.313110 117.955647 1507.961792 115.155171 C1503.787231 113.564854 1503.595093 115.691609 1504.074585 118.321019 C1505.358398 125.359807 1507.895508 131.999867 1513.278686 136.939961 C1517.232300 140.568043 1516.772461 144.378422 1514.467041 148.197255 C1512.136719 152.056874 1507.826294 152.788716 1502.896240 150.663808 C1495.326172 147.400975 1491.046631 141.233967 1489.079468 133.593251 C1486.741943 124.513478 1485.160156 115.240880 1482.914062 106.134907 C1482.114014 102.891194 1480.898437 99.446187 1478.884643 96.863362 C1473.163574 89.526143 1472.828735 82.104603 1476.737793 73.483784 C1478.325561 69.982091 1477.093384 65.156285 1476.954224 60.939229 C1476.898071 59.235707 1476.476684 57.504414 1475.966675 55.864995 C1475.184570 53.350651 1475.369018 50.846470 1472.349121 48.821721 C1464.950683 43.861210 1465.520752 37.749547 1470.051514 27.450337 C1471.599365 23.931706 1481.473022 20.926365 1485.254028 23.500088 C1488.184204 25.494595 1490.872192 29.137105 1491.772705 32.547452 C1493.544922 39.259038 1494.022461 46.315312 1494.989258 53.235463 C1495.387695 56.086842 1495.621216 58.961125 1496.011963 61.813695 C1496.445679 64.978917 1498.720215 64.676594 1500.774780 63.965932 C1517.673340 58.120762 1534.572266 52.272938 1551.396973 46.220006 C1555.000122 44.923710 1558.262451 42.706257 1561.752685 41.063626 C1566.408813 38.872243 1570.020386 41.408925 1573.297485 44.164281 C1577.607178 47.787968 1575.733276 51.911000 1574.095093 56.217000 C1572.579101 60.202122 1569.069946 61.208531 1566.064819 61.123356 C1544.371582 60.508488 1525.814209 70.434315 1506.590088 78.178456 C1505.447021 78.638981 1504.200806 78.842641 1503.056152 79.300023 C1499.035522 80.906697 1498.356933 85.292424 1501.064575 88.941243 C1505.171753 94.475926 1511.651855 95.840855 1517.372681 97.891591 C1531.326538 102.893574 1545.559936 107.177403 1559.834228 111.207051 C1575.237305 115.555363 1590.873657 119.075520 1606.286743 123.390828 C1612.329834 125.082753 1618.147949 127.733876 1623.825195 130.455708 C1625.078857 131.056752 1626.188354 134.059453 1625.777099 135.504521 C1625.255127 137.339192 1623.258667 139.866688 1621.643921 140.069234 C1616.831665 140.672902 1611.778564 140.964909 1607.030517 140.149464 C1595.929565 138.242924 1584.893432 135.862233 1573.938843 133.225224 C1559.737671 129.806691 1545.641479 125.952504 1531.000000 122.285847 z"/><path class="selected"  fill="#000000" opacity="1.000000" stroke="none" 
 	d="
M485.250000 70.035832 C503.944305 75.237187 521.058472 82.883137 536.574890 94.227193 C548.339783 102.828496 552.640930 114.496739 550.785095 128.169148 C549.449890 138.006016 544.197815 146.646779 537.595947 154.109105 C528.506164 164.383626 516.770691 169.323369 503.285156 171.444310 C491.268799 173.334202 479.516418 176.844487 467.550537 179.132237 C458.200073 180.919957 448.729584 182.213292 439.256409 183.173070 C434.082001 183.697392 432.006622 181.160863 432.001678 176.010106 C431.994934 169.013875 432.127441 162.014805 431.972687 155.022008 C431.676788 141.651524 430.213928 128.429402 428.432495 115.142537 C427.128082 105.413090 424.470703 96.473469 420.779327 87.708501 C417.371948 79.617772 424.984100 73.340214 431.139984 72.306386 C439.569061 70.890828 447.981872 69.065983 456.476837 68.445149 C464.581268 67.852864 472.783417 68.534581 480.939300 68.770680 C482.301544 68.810094 483.646850 69.432683 485.250000 70.035832 M488.500000 160.285832 C499.818054 158.133946 511.300781 156.156682 520.710144 148.933430 C527.906555 143.408925 532.108215 135.359700 532.721619 126.603535 C533.321960 118.035329 528.438782 111.152012 521.225586 106.289586 C508.176086 97.492833 494.615906 89.765553 478.916748 86.719990 C468.791931 84.755818 458.663391 83.413350 449.240936 89.325993 C447.985504 90.113789 446.198639 91.404637 446.144806 92.533467 C445.843780 98.842274 445.544433 105.213292 446.100708 111.487157 C447.072601 122.448475 448.897278 133.333424 449.906036 144.292576 C450.437591 150.067616 449.729401 155.952763 450.175842 161.742283 C450.299164 163.341389 452.742798 166.204259 453.808258 166.066273 C465.241699 164.585621 476.612244 162.619160 488.500000 160.285832 z"/><path class="selected"  fill="#000000" opacity="1.000000" stroke="none" 
 	d="
M784.750000 145.035832 C775.363891 155.052235 765.325683 163.710316 752.201111 167.423726 C744.217407 169.682606 735.914612 171.782292 727.700439 172.014042 C717.395386 172.304722 707.047180 168.707097 699.644836 161.923665 C686.914001 150.257405 680.375488 135.434682 684.999634 117.500661 C686.668640 111.027547 687.666138 104.282780 690.155640 98.142628 C693.939514 88.809788 701.546631 82.670140 710.100464 77.663029 C721.826782 70.798756 734.810242 67.062565 747.703247 63.547108 C755.445984 61.435933 763.510376 64.145756 770.787475 67.701741 C772.486145 68.531773 773.816467 70.317021 775.043030 71.877537 C780.758972 79.150212 786.348999 86.521641 792.040466 93.813832 C800.450622 104.589421 803.182495 112.044423 796.862366 125.699269 C793.739563 132.446232 789.005188 138.447270 784.750000 145.035832 M702.000000 115.785832 C702.000000 118.450871 702.036011 121.116490 701.993652 123.780858 C701.829773 134.089345 706.233887 142.745442 714.099609 148.517781 C724.072266 155.836339 735.509521 156.582387 747.518799 152.440617 C759.178589 148.419407 767.397522 140.419240 774.464844 131.063344 C777.162964 127.491643 779.039123 122.814259 779.814697 118.382603 C781.158447 110.704121 776.573364 104.392048 772.441711 98.630437 C770.500061 95.922856 766.091675 94.933217 762.732849 93.305989 C758.695557 91.350041 754.404480 90.070576 751.823608 85.731328 C748.057129 79.398656 746.743408 78.832463 740.177978 81.369450 C731.570984 84.695347 722.908508 88.084599 714.798157 92.432118 C706.224731 97.027867 701.439514 104.572056 702.000000 115.785832 z"/><path class="selected"  fill="#000000" opacity="1.000000" stroke="none" 
 	d="
M319.750000 106.035832 C326.333343 90.414403 332.656402 75.038731 339.010040 59.675694 C340.074249 57.102437 349.341827 53.694264 352.027283 54.813084 C355.695251 56.341267 357.358978 60.590260 355.361908 65.313023 C352.363251 72.404439 348.212677 79.052922 345.661957 86.281453 C337.499847 109.412144 329.195038 132.530644 322.271271 156.044316 C318.724396 168.089863 317.901001 180.951817 316.040954 193.473637 C315.082886 199.923131 306.826874 204.022923 300.131531 200.813115 C296.719177 199.177189 294.397278 196.920811 292.534881 192.789128 C286.067840 178.442235 278.612732 164.498677 270.841797 150.793919 C263.691559 138.183873 255.868652 125.935795 247.915954 113.807683 C243.304672 106.775303 237.554001 100.495061 232.857773 93.512044 C227.475098 85.508336 229.848709 80.105427 237.357727 77.464711 C239.988418 76.539616 249.407577 79.895329 250.990402 82.209126 C257.825928 92.201314 264.932098 102.025517 271.366760 112.270741 C280.720428 127.163670 289.570892 142.372410 298.668030 157.427098 C299.484863 158.778813 300.536285 159.988774 301.478760 161.264577 C301.985840 159.822606 302.521698 158.390004 302.995575 156.937214 C308.502502 140.055195 314.000030 123.170109 319.750000 106.035832 z"/><path class="selected"  fill="#000000" opacity="1.000000" stroke="none" 
 	d="
M1267.250000 116.035832 C1273.780273 121.232823 1279.952881 126.324971 1286.368530 131.089665 C1294.205566 136.910039 1303.324951 137.680348 1312.695434 137.093220 C1319.320801 136.678059 1324.050781 133.311894 1326.963989 127.521153 C1330.248047 120.993336 1329.063721 114.256932 1327.706787 107.425496 C1324.152466 89.530980 1315.486328 73.483266 1309.676880 56.411839 C1308.131103 51.869328 1307.544800 46.937230 1305.536865 42.642827 C1304.595093 40.628735 1301.327148 38.489545 1299.106811 38.482457 C1284.419678 38.435544 1269.706787 38.577778 1255.057373 39.518536 C1250.769653 39.793904 1247.054565 39.903935 1243.668945 37.399045 C1236.779907 32.301999 1239.665405 25.610150 1246.217651 22.666569 C1248.171020 21.789044 1250.479492 21.402203 1252.641601 21.337704 C1267.160278 20.904652 1281.689087 20.767041 1296.202392 20.212437 C1301.940552 19.993176 1307.635864 18.809750 1313.373291 18.346928 C1316.181641 18.120396 1320.338379 17.423894 1321.606079 18.898816 C1324.168091 21.879399 1327.439941 27.031041 1326.415527 29.813534 C1322.719238 39.853932 1327.572754 47.856084 1330.625244 56.366414 C1335.565307 70.139287 1341.755371 83.564427 1345.443848 97.653157 C1348.285400 108.507481 1351.192505 119.994191 1346.088745 131.510914 C1341.063476 142.850987 1328.703003 152.080708 1316.498657 153.309575 C1305.016113 154.465764 1293.951782 152.984791 1283.437378 148.230763 C1279.778198 146.576283 1275.929443 144.815159 1273.002930 142.175938 C1266.871582 136.646290 1258.720093 132.434971 1257.983276 122.728566 C1257.804687 120.374989 1257.608642 116.108327 1258.258057 115.939274 C1260.999634 115.225712 1264.057739 115.728123 1267.250000 116.035832 z"/><path class="selected"  fill="#000000" opacity="1.000000" stroke="none" 
 	d="
M1175.250000 133.035832 C1168.926758 128.952504 1162.095703 125.903996 1157.036865 121.019917 C1153.448486 117.555409 1151.641235 111.793400 1150.141846 106.730290 C1148.189819 100.137410 1146.209473 93.212605 1146.260620 86.445881 C1146.338867 76.076512 1149.685913 66.274541 1155.376709 57.342808 C1163.776245 44.159489 1176.067261 36.390912 1190.406860 31.283803 C1195.050537 29.629918 1199.635132 26.739751 1204.335693 26.543545 C1213.531494 26.159688 1222.092407 29.601834 1229.925659 34.391362 C1231.060913 35.085400 1231.455566 37.152371 1231.976440 38.658864 C1233.539429 43.178815 1234.225342 48.202412 1236.641235 52.188481 C1243.123047 62.883839 1248.129761 74.251927 1250.730835 86.298451 C1252.653686 95.202519 1248.979736 103.837117 1243.559814 111.117665 C1234.634766 123.106724 1223.467041 132.985066 1208.596680 135.755467 C1198.622314 137.613728 1187.868286 137.676457 1177.843994 133.660878 C1177.127563 133.373860 1176.284302 133.403447 1175.250000 133.035832 M1220.000000 59.785847 C1217.410400 56.862889 1214.865600 53.898564 1212.222168 51.025166 C1205.754516 43.994923 1197.728393 42.142636 1189.165161 45.773274 C1173.404663 52.455418 1159.739502 69.200215 1164.006836 89.938908 C1164.288818 91.309743 1164.972168 92.666203 1164.948364 94.020299 C1164.831055 100.746861 1168.165893 106.217976 1172.701416 110.219884 C1184.333130 120.483449 1199.968506 123.645268 1213.810669 115.232945 C1226.812988 107.330891 1232.890991 96.516865 1230.818970 85.939488 C1229.044311 76.880192 1226.053345 67.983647 1220.000000 59.785847 z"/><path class="selected"  fill="#000000" opacity="1.000000" stroke="none" 
 	d="
M1596.000000 51.285832 C1591.468994 52.787938 1583.151367 47.520009 1582.000000 42.735631 C1581.268677 39.696568 1585.873535 34.147290 1589.759155 33.277936 C1606.063599 29.630017 1622.277954 25.498913 1638.696899 22.476765 C1646.935913 20.960232 1655.445679 19.562832 1664.026855 22.141255 C1667.963379 23.324071 1672.364868 23.205487 1676.559082 23.239964 C1691.046509 23.359067 1705.536011 23.227406 1720.023682 23.331303 C1723.218628 23.354222 1726.441894 23.769826 1729.592895 24.335171 C1733.014892 24.949124 1734.278808 32.664410 1731.525268 36.221821 C1728.932007 39.572499 1725.612549 41.447209 1721.146728 41.322468 C1705.799682 40.893773 1690.449585 40.554265 1675.098633 40.312771 C1667.236450 40.189091 1665.675903 42.459927 1666.919922 50.235509 C1667.686035 55.024205 1667.359375 59.983250 1668.057861 64.788090 C1670.129639 79.041112 1672.452515 93.257832 1674.715332 107.482670 C1675.034180 109.486256 1675.978638 111.466923 1675.925903 113.439274 C1675.737305 120.501912 1680.714844 124.298909 1684.857544 128.797948 C1686.653198 130.748265 1689.028931 133.912221 1688.507568 135.795903 C1687.887695 138.035390 1684.660889 140.502766 1682.159302 141.061513 C1677.816162 142.031697 1673.287720 141.452077 1669.448974 138.290227 C1660.894653 131.244115 1656.684326 122.013173 1654.960815 111.287831 C1653.135742 99.931172 1650.841308 88.649159 1649.073608 77.284505 C1648.302612 72.328099 1648.453003 67.235432 1647.967529 62.225697 C1647.444336 56.825810 1647.012695 51.374501 1645.852661 46.096928 C1645.280151 43.492024 1643.491943 40.690854 1639.824951 41.303898 C1632.207031 42.577405 1624.537475 43.652287 1617.018432 45.373860 C1610.090942 46.959996 1603.332764 49.285832 1596.000000 51.285832 z"/><path class="selected"  fill="#000000" opacity="1.000000" stroke="none" 
 	d="
M404.000000 202.285832 C401.402923 205.619176 399.316254 209.628728 396.096039 211.026188 C390.443176 213.479344 385.314484 208.844792 385.036896 201.880498 C384.844787 197.061131 385.127289 192.223485 384.959778 187.402287 C384.825500 183.538640 384.107513 179.689519 384.072357 175.830083 C384.044861 172.808903 385.014648 169.773183 384.939819 166.758855 C384.614044 153.632390 384.084412 140.510762 383.591614 127.388798 C383.463379 123.973836 383.063141 120.565343 383.027496 117.151387 C382.942352 108.996251 383.244263 100.829777 382.915405 92.687047 C382.690552 87.119618 381.376129 81.599400 381.090149 76.030263 C380.853088 71.413746 387.208893 67.204457 393.535736 67.285832 C399.046387 67.356709 402.087463 70.320454 401.954254 75.937596 C401.846863 80.465459 401.011322 84.986760 401.054382 89.505681 C401.268677 112.005833 401.504608 134.508290 402.064178 157.001683 C402.372253 169.384602 403.356018 181.750126 403.981354 194.126225 C404.110077 196.673253 404.000000 199.232304 404.000000 202.285832 z"/><path class="selected"  fill="#000000" opacity="1.000000" stroke="none" 
 	d="
M96.000000 297.285832 C96.098976 295.686864 96.197960 294.587865 96.296936 293.488896 C96.864616 294.746922 97.785103 295.979252 97.879097 297.271733 C97.944527 298.171422 96.875404 299.153599 96.313110 300.098942 C96.208748 299.327916 96.104378 298.556859 96.000000 297.285832 z"/><path class="selected"  fill="#000000" opacity="1.000000" stroke="none" 
 	d="
M22.750000 25.535832 C23.317718 26.801449 23.635439 27.817059 23.953159 28.832677 C23.718773 28.900395 23.484386 28.968114 23.250000 29.035832 C23.000000 27.785832 22.750000 26.535832 22.750000 25.535832 z"/></svg>